%TF.GenerationSoftware,KiCad,Pcbnew,(6.0.1)*%
%TF.CreationDate,2022-10-29T04:51:09-07:00*%
%TF.ProjectId,DuDadPanel,44754461-6450-4616-9e65-6c2e6b696361,1.2*%
%TF.SameCoordinates,Original*%
%TF.FileFunction,Copper,L2,Bot*%
%TF.FilePolarity,Positive*%
%FSLAX46Y46*%
G04 Gerber Fmt 4.6, Leading zero omitted, Abs format (unit mm)*
G04 Created by KiCad (PCBNEW (6.0.1)) date 2022-10-29 04:51:09*
%MOMM*%
%LPD*%
G01*
G04 APERTURE LIST*
%TA.AperFunction,ComponentPad*%
%ADD10C,5.000000*%
%TD*%
G04 APERTURE END LIST*
D10*
%TO.P,H1,1,1*%
%TO.N,GND*%
X62500000Y-45175000D03*
%TD*%
%TO.P,H2,1,1*%
%TO.N,GND*%
X98000000Y-45175000D03*
%TD*%
%TO.P,H3,1,1*%
%TO.N,GND*%
X98000000Y-78825000D03*
%TD*%
%TO.P,H4,1,1*%
%TO.N,GND*%
X62500000Y-78825000D03*
%TD*%
%TA.AperFunction,NonConductor*%
G36*
X60507956Y-42703002D02*
G01*
X60554449Y-42756658D01*
X60564553Y-42826932D01*
X60535059Y-42891512D01*
X60518622Y-42907328D01*
X60483509Y-42935459D01*
X60239466Y-43182071D01*
X60237225Y-43184929D01*
X60180732Y-43256978D01*
X60025386Y-43455098D01*
X60023493Y-43458187D01*
X60023491Y-43458190D01*
X59977233Y-43533676D01*
X59844105Y-43750921D01*
X59842580Y-43754206D01*
X59842578Y-43754210D01*
X59803505Y-43838386D01*
X59698027Y-44065620D01*
X59589087Y-44395023D01*
X59518730Y-44734764D01*
X59487888Y-45080341D01*
X59487983Y-45083971D01*
X59487983Y-45083972D01*
X59490367Y-45175000D01*
X59496970Y-45427171D01*
X59545856Y-45770660D01*
X59633897Y-46106253D01*
X59759927Y-46429503D01*
X59761624Y-46432708D01*
X59895113Y-46684825D01*
X59922275Y-46736126D01*
X59924325Y-46739109D01*
X59924327Y-46739112D01*
X60116733Y-47019064D01*
X60116739Y-47019071D01*
X60118790Y-47022056D01*
X60346866Y-47283505D01*
X60349551Y-47285948D01*
X60559268Y-47476775D01*
X60603481Y-47517006D01*
X60885233Y-47719466D01*
X61188388Y-47888200D01*
X61508928Y-48020972D01*
X61512422Y-48021967D01*
X61512424Y-48021968D01*
X61839103Y-48115025D01*
X61839108Y-48115026D01*
X61842604Y-48116022D01*
X62039304Y-48148233D01*
X62181412Y-48171504D01*
X62181419Y-48171505D01*
X62184993Y-48172090D01*
X62358276Y-48180262D01*
X62527931Y-48188263D01*
X62527932Y-48188263D01*
X62531558Y-48188434D01*
X62540415Y-48187830D01*
X62874073Y-48165084D01*
X62874081Y-48165083D01*
X62877704Y-48164836D01*
X62881279Y-48164173D01*
X62881282Y-48164173D01*
X63215279Y-48102270D01*
X63215283Y-48102269D01*
X63218844Y-48101609D01*
X63550456Y-47999592D01*
X63868145Y-47860136D01*
X64112511Y-47717341D01*
X64164560Y-47686926D01*
X64164562Y-47686925D01*
X64167700Y-47685091D01*
X64170609Y-47682907D01*
X64442244Y-47478958D01*
X64442248Y-47478955D01*
X64445151Y-47476775D01*
X64696819Y-47237950D01*
X64919370Y-46971783D01*
X65109853Y-46681799D01*
X65238446Y-46426121D01*
X65264117Y-46375080D01*
X65264120Y-46375072D01*
X65265744Y-46371844D01*
X65384977Y-46046026D01*
X65385822Y-46042504D01*
X65385825Y-46042496D01*
X65465124Y-45712191D01*
X65465125Y-45712187D01*
X65465971Y-45708662D01*
X65500035Y-45427171D01*
X65507316Y-45367004D01*
X65507316Y-45366997D01*
X65507652Y-45364225D01*
X65513599Y-45175000D01*
X65513438Y-45172204D01*
X65493836Y-44832246D01*
X65493835Y-44832241D01*
X65493627Y-44828626D01*
X65433976Y-44486842D01*
X65335437Y-44154180D01*
X65199316Y-43835048D01*
X65149569Y-43747831D01*
X65029208Y-43536816D01*
X65027417Y-43533676D01*
X64822018Y-43254060D01*
X64585842Y-42999904D01*
X64474502Y-42904810D01*
X64435692Y-42845361D01*
X64435185Y-42774366D01*
X64473142Y-42714367D01*
X64537510Y-42684414D01*
X64556332Y-42683000D01*
X95939835Y-42683000D01*
X96007956Y-42703002D01*
X96054449Y-42756658D01*
X96064553Y-42826932D01*
X96035059Y-42891512D01*
X96018622Y-42907328D01*
X95983509Y-42935459D01*
X95739466Y-43182071D01*
X95737225Y-43184929D01*
X95680732Y-43256978D01*
X95525386Y-43455098D01*
X95523493Y-43458187D01*
X95523491Y-43458190D01*
X95477233Y-43533676D01*
X95344105Y-43750921D01*
X95342580Y-43754206D01*
X95342578Y-43754210D01*
X95303505Y-43838386D01*
X95198027Y-44065620D01*
X95089087Y-44395023D01*
X95018730Y-44734764D01*
X94987888Y-45080341D01*
X94987983Y-45083971D01*
X94987983Y-45083972D01*
X94990367Y-45175000D01*
X94996970Y-45427171D01*
X95045856Y-45770660D01*
X95133897Y-46106253D01*
X95259927Y-46429503D01*
X95261624Y-46432708D01*
X95395113Y-46684825D01*
X95422275Y-46736126D01*
X95424325Y-46739109D01*
X95424327Y-46739112D01*
X95616733Y-47019064D01*
X95616739Y-47019071D01*
X95618790Y-47022056D01*
X95846866Y-47283505D01*
X95849551Y-47285948D01*
X96059268Y-47476775D01*
X96103481Y-47517006D01*
X96385233Y-47719466D01*
X96688388Y-47888200D01*
X97008928Y-48020972D01*
X97012422Y-48021967D01*
X97012424Y-48021968D01*
X97339103Y-48115025D01*
X97339108Y-48115026D01*
X97342604Y-48116022D01*
X97539304Y-48148233D01*
X97681412Y-48171504D01*
X97681419Y-48171505D01*
X97684993Y-48172090D01*
X97858276Y-48180262D01*
X98027931Y-48188263D01*
X98027932Y-48188263D01*
X98031558Y-48188434D01*
X98040415Y-48187830D01*
X98374073Y-48165084D01*
X98374081Y-48165083D01*
X98377704Y-48164836D01*
X98381279Y-48164173D01*
X98381282Y-48164173D01*
X98715279Y-48102270D01*
X98715283Y-48102269D01*
X98718844Y-48101609D01*
X99050456Y-47999592D01*
X99368145Y-47860136D01*
X99612511Y-47717341D01*
X99664560Y-47686926D01*
X99664562Y-47686925D01*
X99667700Y-47685091D01*
X99670609Y-47682907D01*
X99942244Y-47478958D01*
X99942248Y-47478955D01*
X99945151Y-47476775D01*
X100196819Y-47237950D01*
X100419370Y-46971783D01*
X100609853Y-46681799D01*
X100738446Y-46426121D01*
X100764117Y-46375080D01*
X100764120Y-46375072D01*
X100765744Y-46371844D01*
X100884977Y-46046026D01*
X100885822Y-46042504D01*
X100885825Y-46042496D01*
X100965124Y-45712191D01*
X100965125Y-45712187D01*
X100965971Y-45708662D01*
X101000035Y-45427171D01*
X101007316Y-45367004D01*
X101007316Y-45366997D01*
X101007652Y-45364225D01*
X101013599Y-45175000D01*
X101013438Y-45172204D01*
X100993836Y-44832246D01*
X100993835Y-44832241D01*
X100993627Y-44828626D01*
X100933976Y-44486842D01*
X100835437Y-44154180D01*
X100699316Y-43835048D01*
X100649569Y-43747831D01*
X100529208Y-43536816D01*
X100527417Y-43533676D01*
X100322018Y-43254060D01*
X100085842Y-42999904D01*
X99974502Y-42904810D01*
X99935692Y-42845361D01*
X99935185Y-42774366D01*
X99973142Y-42714367D01*
X100037510Y-42684414D01*
X100056332Y-42683000D01*
X109966000Y-42683000D01*
X110034121Y-42703002D01*
X110080614Y-42756658D01*
X110092000Y-42809000D01*
X110092000Y-81191000D01*
X110071998Y-81259121D01*
X110018342Y-81305614D01*
X109966000Y-81317000D01*
X100060517Y-81317000D01*
X99992396Y-81296998D01*
X99945903Y-81243342D01*
X99935799Y-81173068D01*
X99965293Y-81108488D01*
X99973784Y-81099603D01*
X100194180Y-80890454D01*
X100196819Y-80887950D01*
X100419370Y-80621783D01*
X100609853Y-80331799D01*
X100738446Y-80076121D01*
X100764117Y-80025080D01*
X100764120Y-80025072D01*
X100765744Y-80021844D01*
X100884977Y-79696026D01*
X100885822Y-79692504D01*
X100885825Y-79692496D01*
X100965124Y-79362191D01*
X100965125Y-79362187D01*
X100965971Y-79358662D01*
X101000035Y-79077171D01*
X101007316Y-79017004D01*
X101007316Y-79016997D01*
X101007652Y-79014225D01*
X101013599Y-78825000D01*
X101013438Y-78822204D01*
X100993836Y-78482246D01*
X100993835Y-78482241D01*
X100993627Y-78478626D01*
X100933976Y-78136842D01*
X100835437Y-77804180D01*
X100699316Y-77485048D01*
X100649569Y-77397831D01*
X100529208Y-77186816D01*
X100527417Y-77183676D01*
X100322018Y-76904060D01*
X100085842Y-76649904D01*
X99822019Y-76424578D01*
X99534047Y-76231069D01*
X99225741Y-76071940D01*
X98901189Y-75949302D01*
X98897668Y-75948418D01*
X98897663Y-75948416D01*
X98736378Y-75907904D01*
X98564692Y-75864780D01*
X98542476Y-75861855D01*
X98224315Y-75819968D01*
X98224307Y-75819967D01*
X98220711Y-75819494D01*
X98076045Y-75817221D01*
X97877446Y-75814101D01*
X97877442Y-75814101D01*
X97873804Y-75814044D01*
X97870190Y-75814405D01*
X97870184Y-75814405D01*
X97626843Y-75838694D01*
X97528569Y-75848503D01*
X97189583Y-75922414D01*
X97186156Y-75923587D01*
X97186150Y-75923589D01*
X97107296Y-75950587D01*
X96861339Y-76034797D01*
X96548188Y-76184163D01*
X96254279Y-76368532D01*
X96251443Y-76370804D01*
X96251436Y-76370809D01*
X96007384Y-76566332D01*
X95983509Y-76585459D01*
X95739466Y-76832071D01*
X95737225Y-76834929D01*
X95680732Y-76906978D01*
X95525386Y-77105098D01*
X95523493Y-77108187D01*
X95523491Y-77108190D01*
X95477233Y-77183676D01*
X95344105Y-77400921D01*
X95342580Y-77404206D01*
X95342578Y-77404210D01*
X95303505Y-77488386D01*
X95198027Y-77715620D01*
X95089087Y-78045023D01*
X95018730Y-78384764D01*
X94987888Y-78730341D01*
X94987983Y-78733971D01*
X94987983Y-78733972D01*
X94990367Y-78825000D01*
X94996970Y-79077171D01*
X95045856Y-79420660D01*
X95133897Y-79756253D01*
X95259927Y-80079503D01*
X95261624Y-80082708D01*
X95395113Y-80334825D01*
X95422275Y-80386126D01*
X95424325Y-80389109D01*
X95424327Y-80389112D01*
X95616733Y-80669064D01*
X95616739Y-80669071D01*
X95618790Y-80672056D01*
X95846866Y-80933505D01*
X95849551Y-80935948D01*
X96027431Y-81097806D01*
X96064354Y-81158447D01*
X96062631Y-81229422D01*
X96022809Y-81288199D01*
X95957531Y-81316116D01*
X95942632Y-81317000D01*
X64560517Y-81317000D01*
X64492396Y-81296998D01*
X64445903Y-81243342D01*
X64435799Y-81173068D01*
X64465293Y-81108488D01*
X64473784Y-81099603D01*
X64694180Y-80890454D01*
X64696819Y-80887950D01*
X64919370Y-80621783D01*
X65109853Y-80331799D01*
X65238446Y-80076121D01*
X65264117Y-80025080D01*
X65264120Y-80025072D01*
X65265744Y-80021844D01*
X65384977Y-79696026D01*
X65385822Y-79692504D01*
X65385825Y-79692496D01*
X65465124Y-79362191D01*
X65465125Y-79362187D01*
X65465971Y-79358662D01*
X65500035Y-79077171D01*
X65507316Y-79017004D01*
X65507316Y-79016997D01*
X65507652Y-79014225D01*
X65513599Y-78825000D01*
X65513438Y-78822204D01*
X65493836Y-78482246D01*
X65493835Y-78482241D01*
X65493627Y-78478626D01*
X65433976Y-78136842D01*
X65335437Y-77804180D01*
X65199316Y-77485048D01*
X65149569Y-77397831D01*
X65029208Y-77186816D01*
X65027417Y-77183676D01*
X64822018Y-76904060D01*
X64585842Y-76649904D01*
X64322019Y-76424578D01*
X64034047Y-76231069D01*
X63725741Y-76071940D01*
X63401189Y-75949302D01*
X63397668Y-75948418D01*
X63397663Y-75948416D01*
X63236378Y-75907904D01*
X63064692Y-75864780D01*
X63042476Y-75861855D01*
X62724315Y-75819968D01*
X62724307Y-75819967D01*
X62720711Y-75819494D01*
X62576045Y-75817221D01*
X62377446Y-75814101D01*
X62377442Y-75814101D01*
X62373804Y-75814044D01*
X62370190Y-75814405D01*
X62370184Y-75814405D01*
X62126843Y-75838694D01*
X62028569Y-75848503D01*
X61689583Y-75922414D01*
X61686156Y-75923587D01*
X61686150Y-75923589D01*
X61607296Y-75950587D01*
X61361339Y-76034797D01*
X61048188Y-76184163D01*
X60754279Y-76368532D01*
X60751443Y-76370804D01*
X60751436Y-76370809D01*
X60507384Y-76566332D01*
X60483509Y-76585459D01*
X60239466Y-76832071D01*
X60237225Y-76834929D01*
X60180732Y-76906978D01*
X60025386Y-77105098D01*
X60023493Y-77108187D01*
X60023491Y-77108190D01*
X59977233Y-77183676D01*
X59844105Y-77400921D01*
X59842580Y-77404206D01*
X59842578Y-77404210D01*
X59803505Y-77488386D01*
X59698027Y-77715620D01*
X59589087Y-78045023D01*
X59518730Y-78384764D01*
X59487888Y-78730341D01*
X59487983Y-78733971D01*
X59487983Y-78733972D01*
X59490367Y-78825000D01*
X59496970Y-79077171D01*
X59545856Y-79420660D01*
X59633897Y-79756253D01*
X59759927Y-80079503D01*
X59761624Y-80082708D01*
X59895113Y-80334825D01*
X59922275Y-80386126D01*
X59924325Y-80389109D01*
X59924327Y-80389112D01*
X60116733Y-80669064D01*
X60116739Y-80669071D01*
X60118790Y-80672056D01*
X60346866Y-80933505D01*
X60349551Y-80935948D01*
X60527431Y-81097806D01*
X60564354Y-81158447D01*
X60562631Y-81229422D01*
X60522809Y-81288199D01*
X60457531Y-81316116D01*
X60442632Y-81317000D01*
X50634000Y-81317000D01*
X50565879Y-81296998D01*
X50519386Y-81243342D01*
X50508000Y-81191000D01*
X50508000Y-71107655D01*
X51239858Y-71107655D01*
X51275104Y-71366638D01*
X51276412Y-71371124D01*
X51276412Y-71371126D01*
X51296098Y-71438664D01*
X51348243Y-71617567D01*
X51457668Y-71854928D01*
X51460231Y-71858837D01*
X51598410Y-72069596D01*
X51598414Y-72069601D01*
X51600976Y-72073509D01*
X51775018Y-72268506D01*
X51975970Y-72435637D01*
X51979973Y-72438066D01*
X52195422Y-72568804D01*
X52195426Y-72568806D01*
X52199419Y-72571229D01*
X52440455Y-72672303D01*
X52693783Y-72736641D01*
X52698434Y-72737109D01*
X52698438Y-72737110D01*
X52891308Y-72756531D01*
X52910867Y-72758500D01*
X53066354Y-72758500D01*
X53068679Y-72758327D01*
X53068685Y-72758327D01*
X53256000Y-72744407D01*
X53256004Y-72744406D01*
X53260652Y-72744061D01*
X53265200Y-72743032D01*
X53265206Y-72743031D01*
X53451601Y-72700853D01*
X53515577Y-72686377D01*
X53551769Y-72672303D01*
X53754824Y-72593340D01*
X53754827Y-72593339D01*
X53759177Y-72591647D01*
X53986098Y-72461951D01*
X54191357Y-72300138D01*
X54370443Y-72109763D01*
X54519424Y-71895009D01*
X54635025Y-71660593D01*
X54714707Y-71411665D01*
X54756721Y-71153693D01*
X54757324Y-71107655D01*
X105839858Y-71107655D01*
X105875104Y-71366638D01*
X105876412Y-71371124D01*
X105876412Y-71371126D01*
X105896098Y-71438664D01*
X105948243Y-71617567D01*
X106057668Y-71854928D01*
X106060231Y-71858837D01*
X106198410Y-72069596D01*
X106198414Y-72069601D01*
X106200976Y-72073509D01*
X106375018Y-72268506D01*
X106575970Y-72435637D01*
X106579973Y-72438066D01*
X106795422Y-72568804D01*
X106795426Y-72568806D01*
X106799419Y-72571229D01*
X107040455Y-72672303D01*
X107293783Y-72736641D01*
X107298434Y-72737109D01*
X107298438Y-72737110D01*
X107491308Y-72756531D01*
X107510867Y-72758500D01*
X107666354Y-72758500D01*
X107668679Y-72758327D01*
X107668685Y-72758327D01*
X107856000Y-72744407D01*
X107856004Y-72744406D01*
X107860652Y-72744061D01*
X107865200Y-72743032D01*
X107865206Y-72743031D01*
X108051601Y-72700853D01*
X108115577Y-72686377D01*
X108151769Y-72672303D01*
X108354824Y-72593340D01*
X108354827Y-72593339D01*
X108359177Y-72591647D01*
X108586098Y-72461951D01*
X108791357Y-72300138D01*
X108970443Y-72109763D01*
X109119424Y-71895009D01*
X109235025Y-71660593D01*
X109314707Y-71411665D01*
X109356721Y-71153693D01*
X109360142Y-70892345D01*
X109324896Y-70633362D01*
X109310473Y-70583877D01*
X109253068Y-70386932D01*
X109251757Y-70382433D01*
X109142332Y-70145072D01*
X109109519Y-70095024D01*
X109001590Y-69930404D01*
X109001586Y-69930399D01*
X108999024Y-69926491D01*
X108824982Y-69731494D01*
X108624030Y-69564363D01*
X108576844Y-69535730D01*
X108404578Y-69431196D01*
X108404574Y-69431194D01*
X108400581Y-69428771D01*
X108159545Y-69327697D01*
X107906217Y-69263359D01*
X107901566Y-69262891D01*
X107901562Y-69262890D01*
X107692271Y-69241816D01*
X107689133Y-69241500D01*
X107533646Y-69241500D01*
X107531321Y-69241673D01*
X107531315Y-69241673D01*
X107344000Y-69255593D01*
X107343996Y-69255594D01*
X107339348Y-69255939D01*
X107334800Y-69256968D01*
X107334794Y-69256969D01*
X107148399Y-69299147D01*
X107084423Y-69313623D01*
X107080071Y-69315315D01*
X107080069Y-69315316D01*
X106845176Y-69406660D01*
X106845173Y-69406661D01*
X106840823Y-69408353D01*
X106613902Y-69538049D01*
X106408643Y-69699862D01*
X106229557Y-69890237D01*
X106080576Y-70104991D01*
X105964975Y-70339407D01*
X105885293Y-70588335D01*
X105843279Y-70846307D01*
X105839858Y-71107655D01*
X54757324Y-71107655D01*
X54760142Y-70892345D01*
X54724896Y-70633362D01*
X54710473Y-70583877D01*
X54653068Y-70386932D01*
X54651757Y-70382433D01*
X54542332Y-70145072D01*
X54509519Y-70095024D01*
X54401590Y-69930404D01*
X54401586Y-69930399D01*
X54399024Y-69926491D01*
X54224982Y-69731494D01*
X54024030Y-69564363D01*
X53976844Y-69535730D01*
X53804578Y-69431196D01*
X53804574Y-69431194D01*
X53800581Y-69428771D01*
X53559545Y-69327697D01*
X53306217Y-69263359D01*
X53301566Y-69262891D01*
X53301562Y-69262890D01*
X53092271Y-69241816D01*
X53089133Y-69241500D01*
X52933646Y-69241500D01*
X52931321Y-69241673D01*
X52931315Y-69241673D01*
X52744000Y-69255593D01*
X52743996Y-69255594D01*
X52739348Y-69255939D01*
X52734800Y-69256968D01*
X52734794Y-69256969D01*
X52548399Y-69299147D01*
X52484423Y-69313623D01*
X52480071Y-69315315D01*
X52480069Y-69315316D01*
X52245176Y-69406660D01*
X52245173Y-69406661D01*
X52240823Y-69408353D01*
X52013902Y-69538049D01*
X51808643Y-69699862D01*
X51629557Y-69890237D01*
X51480576Y-70104991D01*
X51364975Y-70339407D01*
X51285293Y-70588335D01*
X51243279Y-70846307D01*
X51239858Y-71107655D01*
X50508000Y-71107655D01*
X50508000Y-64882703D01*
X61140743Y-64882703D01*
X61178268Y-65167734D01*
X61254129Y-65445036D01*
X61366923Y-65709476D01*
X61514561Y-65956161D01*
X61694313Y-66180528D01*
X61902851Y-66378423D01*
X62136317Y-66546186D01*
X62140112Y-66548195D01*
X62140113Y-66548196D01*
X62161869Y-66559715D01*
X62390392Y-66680712D01*
X62660373Y-66779511D01*
X62941264Y-66840755D01*
X62969841Y-66843004D01*
X63164282Y-66858307D01*
X63164291Y-66858307D01*
X63166739Y-66858500D01*
X63322271Y-66858500D01*
X63324407Y-66858354D01*
X63324418Y-66858354D01*
X63532548Y-66844165D01*
X63532554Y-66844164D01*
X63536825Y-66843873D01*
X63541020Y-66843004D01*
X63541022Y-66843004D01*
X63677583Y-66814724D01*
X63818342Y-66785574D01*
X64089343Y-66689607D01*
X64344812Y-66557750D01*
X64348313Y-66555289D01*
X64348317Y-66555287D01*
X64462417Y-66475096D01*
X64580023Y-66392441D01*
X64790622Y-66196740D01*
X64972713Y-65974268D01*
X65122927Y-65729142D01*
X65238483Y-65465898D01*
X65317244Y-65189406D01*
X65357751Y-64904784D01*
X65357845Y-64886951D01*
X65357867Y-64882703D01*
X78160743Y-64882703D01*
X78198268Y-65167734D01*
X78274129Y-65445036D01*
X78386923Y-65709476D01*
X78534561Y-65956161D01*
X78714313Y-66180528D01*
X78922851Y-66378423D01*
X79156317Y-66546186D01*
X79160112Y-66548195D01*
X79160113Y-66548196D01*
X79181869Y-66559715D01*
X79410392Y-66680712D01*
X79680373Y-66779511D01*
X79961264Y-66840755D01*
X79989841Y-66843004D01*
X80184282Y-66858307D01*
X80184291Y-66858307D01*
X80186739Y-66858500D01*
X80342271Y-66858500D01*
X80344407Y-66858354D01*
X80344418Y-66858354D01*
X80552548Y-66844165D01*
X80552554Y-66844164D01*
X80556825Y-66843873D01*
X80561020Y-66843004D01*
X80561022Y-66843004D01*
X80697583Y-66814724D01*
X80838342Y-66785574D01*
X81109343Y-66689607D01*
X81364812Y-66557750D01*
X81368313Y-66555289D01*
X81368317Y-66555287D01*
X81482417Y-66475096D01*
X81600023Y-66392441D01*
X81810622Y-66196740D01*
X81992713Y-65974268D01*
X82142927Y-65729142D01*
X82258483Y-65465898D01*
X82337244Y-65189406D01*
X82377751Y-64904784D01*
X82377845Y-64886951D01*
X82379235Y-64621583D01*
X82379235Y-64621576D01*
X82379257Y-64617297D01*
X82341732Y-64332266D01*
X82265871Y-64054964D01*
X82153077Y-63790524D01*
X82005439Y-63543839D01*
X81825687Y-63319472D01*
X81617149Y-63121577D01*
X81383683Y-62953814D01*
X81361843Y-62942250D01*
X81338654Y-62929972D01*
X81129608Y-62819288D01*
X80859627Y-62720489D01*
X80578736Y-62659245D01*
X80547685Y-62656801D01*
X80355718Y-62641693D01*
X80355709Y-62641693D01*
X80353261Y-62641500D01*
X80197729Y-62641500D01*
X80195593Y-62641646D01*
X80195582Y-62641646D01*
X79987452Y-62655835D01*
X79987446Y-62655836D01*
X79983175Y-62656127D01*
X79978980Y-62656996D01*
X79978978Y-62656996D01*
X79842417Y-62685276D01*
X79701658Y-62714426D01*
X79430657Y-62810393D01*
X79175188Y-62942250D01*
X79171687Y-62944711D01*
X79171683Y-62944713D01*
X79161594Y-62951804D01*
X78939977Y-63107559D01*
X78729378Y-63303260D01*
X78547287Y-63525732D01*
X78397073Y-63770858D01*
X78281517Y-64034102D01*
X78202756Y-64310594D01*
X78162249Y-64595216D01*
X78162227Y-64599505D01*
X78162226Y-64599512D01*
X78160765Y-64878417D01*
X78160743Y-64882703D01*
X65357867Y-64882703D01*
X65359235Y-64621583D01*
X65359235Y-64621576D01*
X65359257Y-64617297D01*
X65321732Y-64332266D01*
X65245871Y-64054964D01*
X65133077Y-63790524D01*
X64985439Y-63543839D01*
X64805687Y-63319472D01*
X64597149Y-63121577D01*
X64363683Y-62953814D01*
X64341843Y-62942250D01*
X64318654Y-62929972D01*
X64109608Y-62819288D01*
X63839627Y-62720489D01*
X63558736Y-62659245D01*
X63527685Y-62656801D01*
X63335718Y-62641693D01*
X63335709Y-62641693D01*
X63333261Y-62641500D01*
X63177729Y-62641500D01*
X63175593Y-62641646D01*
X63175582Y-62641646D01*
X62967452Y-62655835D01*
X62967446Y-62655836D01*
X62963175Y-62656127D01*
X62958980Y-62656996D01*
X62958978Y-62656996D01*
X62822417Y-62685276D01*
X62681658Y-62714426D01*
X62410657Y-62810393D01*
X62155188Y-62942250D01*
X62151687Y-62944711D01*
X62151683Y-62944713D01*
X62141594Y-62951804D01*
X61919977Y-63107559D01*
X61709378Y-63303260D01*
X61527287Y-63525732D01*
X61377073Y-63770858D01*
X61261517Y-64034102D01*
X61182756Y-64310594D01*
X61142249Y-64595216D01*
X61142227Y-64599505D01*
X61142226Y-64599512D01*
X61140765Y-64878417D01*
X61140743Y-64882703D01*
X50508000Y-64882703D01*
X50508000Y-53107655D01*
X51239858Y-53107655D01*
X51275104Y-53366638D01*
X51276412Y-53371124D01*
X51276412Y-53371126D01*
X51289732Y-53416824D01*
X51348243Y-53617567D01*
X51457668Y-53854928D01*
X51483946Y-53895009D01*
X51598410Y-54069596D01*
X51598414Y-54069601D01*
X51600976Y-54073509D01*
X51775018Y-54268506D01*
X51975970Y-54435637D01*
X51992402Y-54445608D01*
X52195422Y-54568804D01*
X52195426Y-54568806D01*
X52199419Y-54571229D01*
X52440455Y-54672303D01*
X52693783Y-54736641D01*
X52698434Y-54737109D01*
X52698438Y-54737110D01*
X52848112Y-54752181D01*
X52910867Y-54758500D01*
X53066354Y-54758500D01*
X53068679Y-54758327D01*
X53068685Y-54758327D01*
X53180738Y-54750000D01*
X60886439Y-54750000D01*
X60886709Y-54754119D01*
X60896772Y-54907642D01*
X60906660Y-55058507D01*
X60966975Y-55361735D01*
X61066354Y-55654496D01*
X61068177Y-55658192D01*
X61068180Y-55658200D01*
X61178721Y-55882352D01*
X61203096Y-55931780D01*
X61205390Y-55935213D01*
X61205391Y-55935214D01*
X61374861Y-56188845D01*
X61377575Y-56191939D01*
X61377579Y-56191945D01*
X61576001Y-56418201D01*
X61578710Y-56421290D01*
X61581799Y-56423999D01*
X61808055Y-56622421D01*
X61808061Y-56622425D01*
X61811155Y-56625139D01*
X61814581Y-56627428D01*
X61814586Y-56627432D01*
X62064785Y-56794609D01*
X62068220Y-56796904D01*
X62071923Y-56798730D01*
X62341800Y-56931820D01*
X62341808Y-56931823D01*
X62345504Y-56933646D01*
X62349419Y-56934975D01*
X62634358Y-57031699D01*
X62634361Y-57031700D01*
X62638265Y-57033025D01*
X62864961Y-57078117D01*
X62937450Y-57092536D01*
X62937453Y-57092536D01*
X62941493Y-57093340D01*
X62945604Y-57093609D01*
X62945608Y-57093610D01*
X63170737Y-57108366D01*
X63170746Y-57108366D01*
X63172786Y-57108500D01*
X63327214Y-57108500D01*
X63329254Y-57108366D01*
X63329263Y-57108366D01*
X63554392Y-57093610D01*
X63554396Y-57093609D01*
X63558507Y-57093340D01*
X63562547Y-57092536D01*
X63562550Y-57092536D01*
X63635039Y-57078117D01*
X63861735Y-57033025D01*
X63865639Y-57031700D01*
X63865642Y-57031699D01*
X64150581Y-56934975D01*
X64154496Y-56933646D01*
X64158192Y-56931823D01*
X64158200Y-56931820D01*
X64428077Y-56798730D01*
X64431780Y-56796904D01*
X64435215Y-56794609D01*
X64685414Y-56627432D01*
X64685419Y-56627428D01*
X64688845Y-56625139D01*
X64691939Y-56622425D01*
X64691945Y-56622421D01*
X64918201Y-56423999D01*
X64921290Y-56421290D01*
X64923999Y-56418201D01*
X65122421Y-56191945D01*
X65122425Y-56191939D01*
X65125139Y-56188845D01*
X65296904Y-55931781D01*
X65433646Y-55654496D01*
X65533025Y-55361735D01*
X65593340Y-55058507D01*
X65603229Y-54907642D01*
X65613291Y-54754119D01*
X65613561Y-54750000D01*
X65605224Y-54622803D01*
X65595186Y-54469652D01*
X89391524Y-54469652D01*
X89393990Y-54478281D01*
X89393991Y-54478286D01*
X89399639Y-54498048D01*
X89403217Y-54514809D01*
X89406130Y-54535152D01*
X89406133Y-54535162D01*
X89407405Y-54544045D01*
X89418021Y-54567395D01*
X89424464Y-54584907D01*
X89428149Y-54597800D01*
X89431512Y-54609565D01*
X89447274Y-54634548D01*
X89455404Y-54649614D01*
X89467633Y-54676510D01*
X89484374Y-54695939D01*
X89495479Y-54710947D01*
X89509160Y-54732631D01*
X89528827Y-54750000D01*
X89531296Y-54752181D01*
X89543340Y-54764373D01*
X89562619Y-54786747D01*
X89570147Y-54791626D01*
X89570150Y-54791629D01*
X89584139Y-54800696D01*
X89599013Y-54811986D01*
X89618228Y-54828956D01*
X89626354Y-54832771D01*
X89626355Y-54832772D01*
X89632021Y-54835432D01*
X89644966Y-54841510D01*
X89659935Y-54849824D01*
X89684727Y-54865893D01*
X89701650Y-54870954D01*
X89709290Y-54873239D01*
X89726736Y-54879901D01*
X89749948Y-54890799D01*
X89779130Y-54895343D01*
X89795849Y-54899126D01*
X89815536Y-54905014D01*
X89815539Y-54905015D01*
X89824141Y-54907587D01*
X89833116Y-54907642D01*
X89833117Y-54907642D01*
X89839810Y-54907683D01*
X89858556Y-54907797D01*
X89859328Y-54907830D01*
X89860423Y-54908000D01*
X89891298Y-54908000D01*
X89892068Y-54908002D01*
X89965716Y-54908452D01*
X89965717Y-54908452D01*
X89969652Y-54908476D01*
X89970996Y-54908092D01*
X89972341Y-54908000D01*
X97991298Y-54908000D01*
X97992069Y-54908002D01*
X98069652Y-54908476D01*
X98078281Y-54906010D01*
X98078286Y-54906009D01*
X98098048Y-54900361D01*
X98114809Y-54896783D01*
X98135152Y-54893870D01*
X98135162Y-54893867D01*
X98144045Y-54892595D01*
X98167395Y-54881979D01*
X98184907Y-54875536D01*
X98200937Y-54870954D01*
X98209565Y-54868488D01*
X98234548Y-54852726D01*
X98249614Y-54844596D01*
X98276510Y-54832367D01*
X98295939Y-54815626D01*
X98310947Y-54804521D01*
X98325039Y-54795630D01*
X98332631Y-54790840D01*
X98352182Y-54768703D01*
X98364374Y-54756659D01*
X98379949Y-54743239D01*
X98379950Y-54743237D01*
X98386747Y-54737381D01*
X98391626Y-54729853D01*
X98391629Y-54729850D01*
X98400696Y-54715861D01*
X98411986Y-54700987D01*
X98416453Y-54695929D01*
X98428956Y-54681772D01*
X98432863Y-54673452D01*
X98435432Y-54667979D01*
X98441510Y-54655034D01*
X98449824Y-54640065D01*
X98465893Y-54615273D01*
X98473239Y-54590709D01*
X98479901Y-54573264D01*
X98486983Y-54558179D01*
X98490799Y-54550052D01*
X98495343Y-54520870D01*
X98499126Y-54504151D01*
X98505014Y-54484464D01*
X98505015Y-54484461D01*
X98507587Y-54475859D01*
X98507797Y-54441444D01*
X98507830Y-54440672D01*
X98508000Y-54439577D01*
X98508000Y-54408702D01*
X98508002Y-54407932D01*
X98508452Y-54334284D01*
X98508452Y-54334283D01*
X98508476Y-54330348D01*
X98508092Y-54329004D01*
X98508000Y-54327659D01*
X98508000Y-53531438D01*
X98528002Y-53463317D01*
X98581658Y-53416824D01*
X98651932Y-53406720D01*
X98716512Y-53436214D01*
X98749897Y-53482003D01*
X98824177Y-53656148D01*
X98846923Y-53709476D01*
X98858693Y-53729142D01*
X98960262Y-53898851D01*
X98994561Y-53956161D01*
X99174313Y-54180528D01*
X99382851Y-54378423D01*
X99616317Y-54546186D01*
X99620112Y-54548195D01*
X99620113Y-54548196D01*
X99638968Y-54558179D01*
X99870392Y-54680712D01*
X100140373Y-54779511D01*
X100421264Y-54840755D01*
X100430807Y-54841506D01*
X100644282Y-54858307D01*
X100644291Y-54858307D01*
X100646739Y-54858500D01*
X100802271Y-54858500D01*
X100804407Y-54858354D01*
X100804418Y-54858354D01*
X101012548Y-54844165D01*
X101012554Y-54844164D01*
X101016825Y-54843873D01*
X101021020Y-54843004D01*
X101021022Y-54843004D01*
X101272913Y-54790840D01*
X101298342Y-54785574D01*
X101569343Y-54689607D01*
X101730025Y-54606673D01*
X101821005Y-54559715D01*
X101821006Y-54559715D01*
X101824812Y-54557750D01*
X101828313Y-54555289D01*
X101828317Y-54555287D01*
X101961120Y-54461951D01*
X102060023Y-54392441D01*
X102193393Y-54268506D01*
X102267479Y-54199661D01*
X102267481Y-54199658D01*
X102270622Y-54196740D01*
X102452713Y-53974268D01*
X102602927Y-53729142D01*
X102631180Y-53664781D01*
X102716757Y-53469830D01*
X102718483Y-53465898D01*
X102797244Y-53189406D01*
X102808879Y-53107655D01*
X105839858Y-53107655D01*
X105875104Y-53366638D01*
X105876412Y-53371124D01*
X105876412Y-53371126D01*
X105889732Y-53416824D01*
X105948243Y-53617567D01*
X106057668Y-53854928D01*
X106083946Y-53895009D01*
X106198410Y-54069596D01*
X106198414Y-54069601D01*
X106200976Y-54073509D01*
X106375018Y-54268506D01*
X106575970Y-54435637D01*
X106592402Y-54445608D01*
X106795422Y-54568804D01*
X106795426Y-54568806D01*
X106799419Y-54571229D01*
X107040455Y-54672303D01*
X107293783Y-54736641D01*
X107298434Y-54737109D01*
X107298438Y-54737110D01*
X107448112Y-54752181D01*
X107510867Y-54758500D01*
X107666354Y-54758500D01*
X107668679Y-54758327D01*
X107668685Y-54758327D01*
X107856000Y-54744407D01*
X107856004Y-54744406D01*
X107860652Y-54744061D01*
X107865200Y-54743032D01*
X107865206Y-54743031D01*
X108094978Y-54691038D01*
X108115577Y-54686377D01*
X108135316Y-54678701D01*
X108354824Y-54593340D01*
X108354827Y-54593339D01*
X108359177Y-54591647D01*
X108376513Y-54581739D01*
X108458023Y-54535152D01*
X108586098Y-54461951D01*
X108791357Y-54300138D01*
X108970443Y-54109763D01*
X109119424Y-53895009D01*
X109141284Y-53850682D01*
X109232960Y-53664781D01*
X109232961Y-53664778D01*
X109235025Y-53660593D01*
X109314707Y-53411665D01*
X109356721Y-53153693D01*
X109359979Y-52904784D01*
X109360081Y-52897022D01*
X109360081Y-52897019D01*
X109360142Y-52892345D01*
X109324896Y-52633362D01*
X109320214Y-52617297D01*
X109259053Y-52407464D01*
X109251757Y-52382433D01*
X109142332Y-52145072D01*
X109107239Y-52091547D01*
X109001590Y-51930404D01*
X109001586Y-51930399D01*
X108999024Y-51926491D01*
X108824982Y-51731494D01*
X108624030Y-51564363D01*
X108531147Y-51508000D01*
X108404578Y-51431196D01*
X108404574Y-51431194D01*
X108400581Y-51428771D01*
X108159545Y-51327697D01*
X107906217Y-51263359D01*
X107901566Y-51262891D01*
X107901562Y-51262890D01*
X107692271Y-51241816D01*
X107689133Y-51241500D01*
X107533646Y-51241500D01*
X107531321Y-51241673D01*
X107531315Y-51241673D01*
X107344000Y-51255593D01*
X107343996Y-51255594D01*
X107339348Y-51255939D01*
X107334800Y-51256968D01*
X107334794Y-51256969D01*
X107148399Y-51299147D01*
X107084423Y-51313623D01*
X107080071Y-51315315D01*
X107080069Y-51315316D01*
X106845176Y-51406660D01*
X106845173Y-51406661D01*
X106840823Y-51408353D01*
X106613902Y-51538049D01*
X106408643Y-51699862D01*
X106229557Y-51890237D01*
X106080576Y-52104991D01*
X106078510Y-52109181D01*
X106078508Y-52109184D01*
X105968497Y-52332266D01*
X105964975Y-52339407D01*
X105885293Y-52588335D01*
X105843279Y-52846307D01*
X105839858Y-53107655D01*
X102808879Y-53107655D01*
X102837751Y-52904784D01*
X102837817Y-52892345D01*
X102839235Y-52621583D01*
X102839235Y-52621576D01*
X102839257Y-52617297D01*
X102801732Y-52332266D01*
X102725871Y-52054964D01*
X102669583Y-51922999D01*
X102614763Y-51794476D01*
X102614761Y-51794472D01*
X102613077Y-51790524D01*
X102479513Y-51567355D01*
X102467643Y-51547521D01*
X102467640Y-51547517D01*
X102465439Y-51543839D01*
X102285687Y-51319472D01*
X102077149Y-51121577D01*
X101852880Y-50960423D01*
X101847172Y-50956321D01*
X101847171Y-50956320D01*
X101843683Y-50953814D01*
X101821843Y-50942250D01*
X101798654Y-50929972D01*
X101589608Y-50819288D01*
X101401303Y-50750378D01*
X101323658Y-50721964D01*
X101323656Y-50721963D01*
X101319627Y-50720489D01*
X101038736Y-50659245D01*
X101007173Y-50656761D01*
X100815718Y-50641693D01*
X100815709Y-50641693D01*
X100813261Y-50641500D01*
X100657729Y-50641500D01*
X100655593Y-50641646D01*
X100655582Y-50641646D01*
X100447452Y-50655835D01*
X100447446Y-50655836D01*
X100443175Y-50656127D01*
X100438980Y-50656996D01*
X100438978Y-50656996D01*
X100411826Y-50662619D01*
X100161658Y-50714426D01*
X99890657Y-50810393D01*
X99886848Y-50812359D01*
X99686946Y-50915536D01*
X99635188Y-50942250D01*
X99631687Y-50944711D01*
X99631683Y-50944713D01*
X99621594Y-50951804D01*
X99399977Y-51107559D01*
X99384892Y-51121577D01*
X99232317Y-51263359D01*
X99189378Y-51303260D01*
X99007287Y-51525732D01*
X98857073Y-51770858D01*
X98749371Y-52016209D01*
X98703677Y-52070542D01*
X98635859Y-52091547D01*
X98567451Y-52072553D01*
X98520171Y-52019589D01*
X98508000Y-51965561D01*
X98508000Y-51008702D01*
X98508002Y-51007932D01*
X98508317Y-50956321D01*
X98508476Y-50930348D01*
X98506010Y-50921719D01*
X98506009Y-50921714D01*
X98500361Y-50901952D01*
X98496783Y-50885191D01*
X98493870Y-50864848D01*
X98493867Y-50864838D01*
X98492595Y-50855955D01*
X98481979Y-50832605D01*
X98475536Y-50815093D01*
X98470954Y-50799063D01*
X98468488Y-50790435D01*
X98452726Y-50765452D01*
X98444596Y-50750386D01*
X98432367Y-50723490D01*
X98415626Y-50704061D01*
X98404521Y-50689053D01*
X98395630Y-50674961D01*
X98390840Y-50667369D01*
X98368703Y-50647818D01*
X98356659Y-50635626D01*
X98343239Y-50620051D01*
X98343237Y-50620050D01*
X98337381Y-50613253D01*
X98329853Y-50608374D01*
X98329850Y-50608371D01*
X98315861Y-50599304D01*
X98300987Y-50588014D01*
X98288502Y-50576988D01*
X98281772Y-50571044D01*
X98273646Y-50567229D01*
X98273645Y-50567228D01*
X98267979Y-50564568D01*
X98255034Y-50558490D01*
X98240065Y-50550176D01*
X98215273Y-50534107D01*
X98190709Y-50526761D01*
X98173264Y-50520099D01*
X98168827Y-50518016D01*
X98150052Y-50509201D01*
X98120870Y-50504657D01*
X98104151Y-50500874D01*
X98084464Y-50494986D01*
X98084461Y-50494985D01*
X98075859Y-50492413D01*
X98066884Y-50492358D01*
X98066883Y-50492358D01*
X98060190Y-50492317D01*
X98041444Y-50492203D01*
X98040672Y-50492170D01*
X98039577Y-50492000D01*
X98008702Y-50492000D01*
X98007932Y-50491998D01*
X97934284Y-50491548D01*
X97934283Y-50491548D01*
X97930348Y-50491524D01*
X97929004Y-50491908D01*
X97927659Y-50492000D01*
X89908702Y-50492000D01*
X89907932Y-50491998D01*
X89907078Y-50491993D01*
X89830348Y-50491524D01*
X89821719Y-50493990D01*
X89821714Y-50493991D01*
X89801952Y-50499639D01*
X89785191Y-50503217D01*
X89764848Y-50506130D01*
X89764838Y-50506133D01*
X89755955Y-50507405D01*
X89732605Y-50518021D01*
X89715093Y-50524464D01*
X89707057Y-50526761D01*
X89690435Y-50531512D01*
X89665452Y-50547274D01*
X89650386Y-50555404D01*
X89623490Y-50567633D01*
X89604061Y-50584374D01*
X89589053Y-50595479D01*
X89567369Y-50609160D01*
X89561427Y-50615888D01*
X89547819Y-50631296D01*
X89535627Y-50643340D01*
X89513253Y-50662619D01*
X89508374Y-50670147D01*
X89508371Y-50670150D01*
X89499304Y-50684139D01*
X89488014Y-50699013D01*
X89471044Y-50718228D01*
X89458490Y-50744966D01*
X89450176Y-50759935D01*
X89434107Y-50784727D01*
X89431535Y-50793327D01*
X89426761Y-50809290D01*
X89420099Y-50826736D01*
X89409201Y-50849948D01*
X89404658Y-50879128D01*
X89400874Y-50895849D01*
X89394986Y-50915536D01*
X89394985Y-50915539D01*
X89392413Y-50924141D01*
X89392217Y-50956321D01*
X89392203Y-50958546D01*
X89392170Y-50959328D01*
X89392000Y-50960423D01*
X89392000Y-50991298D01*
X89391998Y-50992068D01*
X89391524Y-51069652D01*
X89391908Y-51070996D01*
X89392000Y-51072341D01*
X89392000Y-54391298D01*
X89391998Y-54392068D01*
X89391524Y-54469652D01*
X65595186Y-54469652D01*
X65593610Y-54445608D01*
X65593609Y-54445604D01*
X65593340Y-54441493D01*
X65586730Y-54408259D01*
X65564546Y-54296736D01*
X65533025Y-54138265D01*
X65433646Y-53845504D01*
X65431822Y-53841806D01*
X65431820Y-53841800D01*
X65298730Y-53571923D01*
X65296904Y-53568220D01*
X65294610Y-53564787D01*
X65294609Y-53564785D01*
X65127432Y-53314586D01*
X65127428Y-53314581D01*
X65125139Y-53311155D01*
X65122425Y-53308061D01*
X65122421Y-53308055D01*
X64923999Y-53081799D01*
X64921290Y-53078710D01*
X64918201Y-53076001D01*
X64691945Y-52877579D01*
X64691939Y-52877575D01*
X64688845Y-52874861D01*
X64685419Y-52872572D01*
X64685414Y-52872568D01*
X64435215Y-52705391D01*
X64435213Y-52705390D01*
X64431780Y-52703096D01*
X64299765Y-52637993D01*
X64158200Y-52568180D01*
X64158192Y-52568177D01*
X64154496Y-52566354D01*
X64150581Y-52565025D01*
X63865642Y-52468301D01*
X63865639Y-52468300D01*
X63861735Y-52466975D01*
X63635039Y-52421883D01*
X63562550Y-52407464D01*
X63562547Y-52407464D01*
X63558507Y-52406660D01*
X63554396Y-52406391D01*
X63554392Y-52406390D01*
X63329263Y-52391634D01*
X63329254Y-52391634D01*
X63327214Y-52391500D01*
X63172786Y-52391500D01*
X63170746Y-52391634D01*
X63170737Y-52391634D01*
X62945608Y-52406390D01*
X62945604Y-52406391D01*
X62941493Y-52406660D01*
X62937453Y-52407464D01*
X62937450Y-52407464D01*
X62864961Y-52421883D01*
X62638265Y-52466975D01*
X62634361Y-52468300D01*
X62634358Y-52468301D01*
X62349419Y-52565025D01*
X62345504Y-52566354D01*
X62341808Y-52568177D01*
X62341800Y-52568180D01*
X62200235Y-52637993D01*
X62068220Y-52703096D01*
X62064787Y-52705390D01*
X62064785Y-52705391D01*
X61814586Y-52872568D01*
X61814581Y-52872572D01*
X61811155Y-52874861D01*
X61808061Y-52877575D01*
X61808055Y-52877579D01*
X61581799Y-53076001D01*
X61578710Y-53078710D01*
X61576001Y-53081799D01*
X61377579Y-53308055D01*
X61377575Y-53308061D01*
X61374861Y-53311155D01*
X61372572Y-53314581D01*
X61372568Y-53314586D01*
X61260704Y-53482003D01*
X61203096Y-53568219D01*
X61066354Y-53845504D01*
X61065029Y-53849409D01*
X61065028Y-53849410D01*
X60988957Y-54073509D01*
X60966975Y-54138265D01*
X60935454Y-54296736D01*
X60913271Y-54408259D01*
X60906660Y-54441493D01*
X60906391Y-54445604D01*
X60906390Y-54445608D01*
X60894776Y-54622803D01*
X60886439Y-54750000D01*
X53180738Y-54750000D01*
X53256000Y-54744407D01*
X53256004Y-54744406D01*
X53260652Y-54744061D01*
X53265200Y-54743032D01*
X53265206Y-54743031D01*
X53494978Y-54691038D01*
X53515577Y-54686377D01*
X53535316Y-54678701D01*
X53754824Y-54593340D01*
X53754827Y-54593339D01*
X53759177Y-54591647D01*
X53776513Y-54581739D01*
X53858023Y-54535152D01*
X53986098Y-54461951D01*
X54191357Y-54300138D01*
X54370443Y-54109763D01*
X54519424Y-53895009D01*
X54541284Y-53850682D01*
X54632960Y-53664781D01*
X54632961Y-53664778D01*
X54635025Y-53660593D01*
X54714707Y-53411665D01*
X54756721Y-53153693D01*
X54759979Y-52904784D01*
X54760081Y-52897022D01*
X54760081Y-52897019D01*
X54760142Y-52892345D01*
X54724896Y-52633362D01*
X54720214Y-52617297D01*
X54659053Y-52407464D01*
X54651757Y-52382433D01*
X54542332Y-52145072D01*
X54507239Y-52091547D01*
X54401590Y-51930404D01*
X54401586Y-51930399D01*
X54399024Y-51926491D01*
X54224982Y-51731494D01*
X54024030Y-51564363D01*
X53931147Y-51508000D01*
X53804578Y-51431196D01*
X53804574Y-51431194D01*
X53800581Y-51428771D01*
X53559545Y-51327697D01*
X53306217Y-51263359D01*
X53301566Y-51262891D01*
X53301562Y-51262890D01*
X53092271Y-51241816D01*
X53089133Y-51241500D01*
X52933646Y-51241500D01*
X52931321Y-51241673D01*
X52931315Y-51241673D01*
X52744000Y-51255593D01*
X52743996Y-51255594D01*
X52739348Y-51255939D01*
X52734800Y-51256968D01*
X52734794Y-51256969D01*
X52548399Y-51299147D01*
X52484423Y-51313623D01*
X52480071Y-51315315D01*
X52480069Y-51315316D01*
X52245176Y-51406660D01*
X52245173Y-51406661D01*
X52240823Y-51408353D01*
X52013902Y-51538049D01*
X51808643Y-51699862D01*
X51629557Y-51890237D01*
X51480576Y-52104991D01*
X51478510Y-52109181D01*
X51478508Y-52109184D01*
X51368497Y-52332266D01*
X51364975Y-52339407D01*
X51285293Y-52588335D01*
X51243279Y-52846307D01*
X51239858Y-53107655D01*
X50508000Y-53107655D01*
X50508000Y-42809000D01*
X50528002Y-42740879D01*
X50581658Y-42694386D01*
X50634000Y-42683000D01*
X60439835Y-42683000D01*
X60507956Y-42703002D01*
G37*
%TD.AperFunction*%
M02*
