G04 #@! TF.GenerationSoftware,KiCad,Pcbnew,(5.1.10)-1*
G04 #@! TF.CreationDate,2021-12-21T11:24:08-08:00*
G04 #@! TF.ProjectId,SpankulatorPanel,5370616e-6b75-46c6-9174-6f7250616e65,rev?*
G04 #@! TF.SameCoordinates,Original*
G04 #@! TF.FileFunction,Copper,L2,Bot*
G04 #@! TF.FilePolarity,Positive*
%FSLAX46Y46*%
G04 Gerber Fmt 4.6, Leading zero omitted, Abs format (unit mm)*
G04 Created by KiCad (PCBNEW (5.1.10)-1) date 2021-12-21 11:24:08*
%MOMM*%
%LPD*%
G01*
G04 APERTURE LIST*
G04 #@! TA.AperFunction,ComponentPad*
%ADD10C,5.000000*%
G04 #@! TD*
G04 #@! TA.AperFunction,NonConductor*
%ADD11C,0.254000*%
G04 #@! TD*
G04 #@! TA.AperFunction,NonConductor*
%ADD12C,0.100000*%
G04 #@! TD*
G04 APERTURE END LIST*
D10*
X67500000Y-165400000D03*
X103000000Y-165400000D03*
X103000000Y-43000000D03*
X67500000Y-43000000D03*
D11*
X65064886Y-41001554D02*
X64721799Y-41515021D01*
X64485476Y-42085554D01*
X64365000Y-42691229D01*
X64365000Y-43308771D01*
X64485476Y-43914446D01*
X64721799Y-44484979D01*
X65064886Y-44998446D01*
X65501554Y-45435114D01*
X66015021Y-45778201D01*
X66585554Y-46014524D01*
X67191229Y-46135000D01*
X67808771Y-46135000D01*
X68414446Y-46014524D01*
X68984979Y-45778201D01*
X69498446Y-45435114D01*
X69935114Y-44998446D01*
X70278201Y-44484979D01*
X70514524Y-43914446D01*
X70635000Y-43308771D01*
X70635000Y-42691229D01*
X70514524Y-42085554D01*
X70278201Y-41515021D01*
X69935114Y-41001554D01*
X69593560Y-40660000D01*
X100906440Y-40660000D01*
X100564886Y-41001554D01*
X100221799Y-41515021D01*
X99985476Y-42085554D01*
X99865000Y-42691229D01*
X99865000Y-43308771D01*
X99985476Y-43914446D01*
X100221799Y-44484979D01*
X100564886Y-44998446D01*
X101001554Y-45435114D01*
X101515021Y-45778201D01*
X102085554Y-46014524D01*
X102691229Y-46135000D01*
X103308771Y-46135000D01*
X103914446Y-46014524D01*
X104484979Y-45778201D01*
X104998446Y-45435114D01*
X105435114Y-44998446D01*
X105778201Y-44484979D01*
X106014524Y-43914446D01*
X106135000Y-43308771D01*
X106135000Y-42691229D01*
X106014524Y-42085554D01*
X105778201Y-41515021D01*
X105435114Y-41001554D01*
X105093560Y-40660000D01*
X114740001Y-40660000D01*
X114740000Y-167740000D01*
X105093560Y-167740000D01*
X105435114Y-167398446D01*
X105778201Y-166884979D01*
X106014524Y-166314446D01*
X106135000Y-165708771D01*
X106135000Y-165091229D01*
X106014524Y-164485554D01*
X105778201Y-163915021D01*
X105435114Y-163401554D01*
X104998446Y-162964886D01*
X104484979Y-162621799D01*
X103914446Y-162385476D01*
X103308771Y-162265000D01*
X102691229Y-162265000D01*
X102085554Y-162385476D01*
X101515021Y-162621799D01*
X101001554Y-162964886D01*
X100564886Y-163401554D01*
X100221799Y-163915021D01*
X99985476Y-164485554D01*
X99865000Y-165091229D01*
X99865000Y-165708771D01*
X99985476Y-166314446D01*
X100221799Y-166884979D01*
X100564886Y-167398446D01*
X100906440Y-167740000D01*
X69593560Y-167740000D01*
X69935114Y-167398446D01*
X70278201Y-166884979D01*
X70514524Y-166314446D01*
X70635000Y-165708771D01*
X70635000Y-165091229D01*
X70514524Y-164485554D01*
X70278201Y-163915021D01*
X69935114Y-163401554D01*
X69498446Y-162964886D01*
X68984979Y-162621799D01*
X68414446Y-162385476D01*
X67808771Y-162265000D01*
X67191229Y-162265000D01*
X66585554Y-162385476D01*
X66015021Y-162621799D01*
X65501554Y-162964886D01*
X65064886Y-163401554D01*
X64721799Y-163915021D01*
X64485476Y-164485554D01*
X64365000Y-165091229D01*
X64365000Y-165708771D01*
X64485476Y-166314446D01*
X64721799Y-166884979D01*
X65064886Y-167398446D01*
X65406440Y-167740000D01*
X55660000Y-167740000D01*
X55660000Y-156064344D01*
X61115000Y-156064344D01*
X61115000Y-156435656D01*
X61187439Y-156799834D01*
X61329534Y-157142882D01*
X61535825Y-157451618D01*
X61798382Y-157714175D01*
X62107118Y-157920466D01*
X62450166Y-158062561D01*
X62814344Y-158135000D01*
X63185656Y-158135000D01*
X63549834Y-158062561D01*
X63892882Y-157920466D01*
X64201618Y-157714175D01*
X64464175Y-157451618D01*
X64670466Y-157142882D01*
X64812561Y-156799834D01*
X64885000Y-156435656D01*
X64885000Y-156064344D01*
X105615000Y-156064344D01*
X105615000Y-156435656D01*
X105687439Y-156799834D01*
X105829534Y-157142882D01*
X106035825Y-157451618D01*
X106298382Y-157714175D01*
X106607118Y-157920466D01*
X106950166Y-158062561D01*
X107314344Y-158135000D01*
X107685656Y-158135000D01*
X108049834Y-158062561D01*
X108392882Y-157920466D01*
X108701618Y-157714175D01*
X108964175Y-157451618D01*
X109170466Y-157142882D01*
X109312561Y-156799834D01*
X109385000Y-156435656D01*
X109385000Y-156064344D01*
X109312561Y-155700166D01*
X109170466Y-155357118D01*
X108964175Y-155048382D01*
X108701618Y-154785825D01*
X108392882Y-154579534D01*
X108049834Y-154437439D01*
X107685656Y-154365000D01*
X107314344Y-154365000D01*
X106950166Y-154437439D01*
X106607118Y-154579534D01*
X106298382Y-154785825D01*
X106035825Y-155048382D01*
X105829534Y-155357118D01*
X105687439Y-155700166D01*
X105615000Y-156064344D01*
X64885000Y-156064344D01*
X64812561Y-155700166D01*
X64670466Y-155357118D01*
X64464175Y-155048382D01*
X64201618Y-154785825D01*
X63892882Y-154579534D01*
X63549834Y-154437439D01*
X63185656Y-154365000D01*
X62814344Y-154365000D01*
X62450166Y-154437439D01*
X62107118Y-154579534D01*
X61798382Y-154785825D01*
X61535825Y-155048382D01*
X61329534Y-155357118D01*
X61187439Y-155700166D01*
X61115000Y-156064344D01*
X55660000Y-156064344D01*
X55660000Y-146372285D01*
X61165000Y-146372285D01*
X61165000Y-147127715D01*
X61312377Y-147868628D01*
X61601467Y-148566554D01*
X62021161Y-149194670D01*
X62555330Y-149728839D01*
X63183446Y-150148533D01*
X63881372Y-150437623D01*
X64622285Y-150585000D01*
X65377715Y-150585000D01*
X66118628Y-150437623D01*
X66816554Y-150148533D01*
X67444670Y-149728839D01*
X67978839Y-149194670D01*
X68398533Y-148566554D01*
X68687623Y-147868628D01*
X68835000Y-147127715D01*
X68835000Y-146372285D01*
X68687623Y-145631372D01*
X68398533Y-144933446D01*
X67978839Y-144305330D01*
X67444670Y-143771161D01*
X66816554Y-143351467D01*
X66118628Y-143062377D01*
X65377715Y-142915000D01*
X64622285Y-142915000D01*
X63881372Y-143062377D01*
X63183446Y-143351467D01*
X62555330Y-143771161D01*
X62021161Y-144305330D01*
X61601467Y-144933446D01*
X61312377Y-145631372D01*
X61165000Y-146372285D01*
X55660000Y-146372285D01*
X55660000Y-132512135D01*
X59915000Y-132512135D01*
X59915000Y-133247865D01*
X60058534Y-133969459D01*
X60340086Y-134649186D01*
X60748836Y-135260924D01*
X61269076Y-135781164D01*
X61880814Y-136189914D01*
X62560541Y-136471466D01*
X63282135Y-136615000D01*
X64017865Y-136615000D01*
X64739459Y-136471466D01*
X65419186Y-136189914D01*
X66030924Y-135781164D01*
X66551164Y-135260924D01*
X66959914Y-134649186D01*
X67241466Y-133969459D01*
X67385000Y-133247865D01*
X67385000Y-132512135D01*
X67241466Y-131790541D01*
X66959914Y-131110814D01*
X66551164Y-130499076D01*
X66030924Y-129978836D01*
X65419186Y-129570086D01*
X64739459Y-129288534D01*
X64017865Y-129145000D01*
X63282135Y-129145000D01*
X62560541Y-129288534D01*
X61880814Y-129570086D01*
X61269076Y-129978836D01*
X60748836Y-130499076D01*
X60340086Y-131110814D01*
X60058534Y-131790541D01*
X59915000Y-132512135D01*
X55660000Y-132512135D01*
X55660000Y-122005249D01*
X61765000Y-122005249D01*
X61765000Y-122494751D01*
X61860497Y-122974848D01*
X62047821Y-123427089D01*
X62319774Y-123834095D01*
X62665905Y-124180226D01*
X63072911Y-124452179D01*
X63525152Y-124639503D01*
X64005249Y-124735000D01*
X64494751Y-124735000D01*
X64974848Y-124639503D01*
X65427089Y-124452179D01*
X65610134Y-124329872D01*
X82965000Y-124329872D01*
X82965000Y-124770128D01*
X83050890Y-125201925D01*
X83219369Y-125608669D01*
X83463962Y-125974729D01*
X83775271Y-126286038D01*
X84141331Y-126530631D01*
X84548075Y-126699110D01*
X84979872Y-126785000D01*
X85420128Y-126785000D01*
X85851925Y-126699110D01*
X86258669Y-126530631D01*
X86624729Y-126286038D01*
X86936038Y-125974729D01*
X87180631Y-125608669D01*
X87349110Y-125201925D01*
X87435000Y-124770128D01*
X87435000Y-124329872D01*
X87349110Y-123898075D01*
X87180631Y-123491331D01*
X86936038Y-123125271D01*
X86624729Y-122813962D01*
X86258669Y-122569369D01*
X85851925Y-122400890D01*
X85420128Y-122315000D01*
X84979872Y-122315000D01*
X84548075Y-122400890D01*
X84141331Y-122569369D01*
X83775271Y-122813962D01*
X83463962Y-123125271D01*
X83219369Y-123491331D01*
X83050890Y-123898075D01*
X82965000Y-124329872D01*
X65610134Y-124329872D01*
X65834095Y-124180226D01*
X66180226Y-123834095D01*
X66452179Y-123427089D01*
X66639503Y-122974848D01*
X66735000Y-122494751D01*
X66735000Y-122005249D01*
X66639503Y-121525152D01*
X66452179Y-121072911D01*
X66180226Y-120665905D01*
X65834095Y-120319774D01*
X65427089Y-120047821D01*
X64974848Y-119860497D01*
X64494751Y-119765000D01*
X64005249Y-119765000D01*
X63525152Y-119860497D01*
X63072911Y-120047821D01*
X62665905Y-120319774D01*
X62319774Y-120665905D01*
X62047821Y-121072911D01*
X61860497Y-121525152D01*
X61765000Y-122005249D01*
X55660000Y-122005249D01*
X55660000Y-115029872D01*
X62015000Y-115029872D01*
X62015000Y-115470128D01*
X62100890Y-115901925D01*
X62269369Y-116308669D01*
X62513962Y-116674729D01*
X62825271Y-116986038D01*
X63191331Y-117230631D01*
X63598075Y-117399110D01*
X64029872Y-117485000D01*
X64470128Y-117485000D01*
X64901925Y-117399110D01*
X65308669Y-117230631D01*
X65674729Y-116986038D01*
X65986038Y-116674729D01*
X66230631Y-116308669D01*
X66399110Y-115901925D01*
X66485000Y-115470128D01*
X66485000Y-115029872D01*
X66399110Y-114598075D01*
X66230631Y-114191331D01*
X65986038Y-113825271D01*
X65674729Y-113513962D01*
X65308669Y-113269369D01*
X64901925Y-113100890D01*
X64470128Y-113015000D01*
X64029872Y-113015000D01*
X63598075Y-113100890D01*
X63191331Y-113269369D01*
X62825271Y-113513962D01*
X62513962Y-113825271D01*
X62269369Y-114191331D01*
X62100890Y-114598075D01*
X62015000Y-115029872D01*
X55660000Y-115029872D01*
X55660000Y-105512135D01*
X59915000Y-105512135D01*
X59915000Y-106247865D01*
X60058534Y-106969459D01*
X60340086Y-107649186D01*
X60748836Y-108260924D01*
X61269076Y-108781164D01*
X61880814Y-109189914D01*
X62560541Y-109471466D01*
X63282135Y-109615000D01*
X64017865Y-109615000D01*
X64739459Y-109471466D01*
X65419186Y-109189914D01*
X66030924Y-108781164D01*
X66551164Y-108260924D01*
X66810844Y-107872285D01*
X81365000Y-107872285D01*
X81365000Y-108627715D01*
X81512377Y-109368628D01*
X81801467Y-110066554D01*
X82221161Y-110694670D01*
X82755330Y-111228839D01*
X83383446Y-111648533D01*
X84081372Y-111937623D01*
X84822285Y-112085000D01*
X85577715Y-112085000D01*
X86318628Y-111937623D01*
X87016554Y-111648533D01*
X87644670Y-111228839D01*
X88178839Y-110694670D01*
X88598533Y-110066554D01*
X88887623Y-109368628D01*
X89035000Y-108627715D01*
X89035000Y-107872285D01*
X88887623Y-107131372D01*
X88598533Y-106433446D01*
X88178839Y-105805330D01*
X87885644Y-105512135D01*
X101415000Y-105512135D01*
X101415000Y-106247865D01*
X101558534Y-106969459D01*
X101840086Y-107649186D01*
X102248836Y-108260924D01*
X102769076Y-108781164D01*
X103380814Y-109189914D01*
X104060541Y-109471466D01*
X104782135Y-109615000D01*
X105517865Y-109615000D01*
X106239459Y-109471466D01*
X106919186Y-109189914D01*
X107530924Y-108781164D01*
X108051164Y-108260924D01*
X108459914Y-107649186D01*
X108741466Y-106969459D01*
X108885000Y-106247865D01*
X108885000Y-105512135D01*
X108741466Y-104790541D01*
X108459914Y-104110814D01*
X108051164Y-103499076D01*
X107530924Y-102978836D01*
X106919186Y-102570086D01*
X106239459Y-102288534D01*
X105517865Y-102145000D01*
X104782135Y-102145000D01*
X104060541Y-102288534D01*
X103380814Y-102570086D01*
X102769076Y-102978836D01*
X102248836Y-103499076D01*
X101840086Y-104110814D01*
X101558534Y-104790541D01*
X101415000Y-105512135D01*
X87885644Y-105512135D01*
X87644670Y-105271161D01*
X87016554Y-104851467D01*
X86318628Y-104562377D01*
X85577715Y-104415000D01*
X84822285Y-104415000D01*
X84081372Y-104562377D01*
X83383446Y-104851467D01*
X82755330Y-105271161D01*
X82221161Y-105805330D01*
X81801467Y-106433446D01*
X81512377Y-107131372D01*
X81365000Y-107872285D01*
X66810844Y-107872285D01*
X66959914Y-107649186D01*
X67241466Y-106969459D01*
X67385000Y-106247865D01*
X67385000Y-105512135D01*
X67241466Y-104790541D01*
X66959914Y-104110814D01*
X66551164Y-103499076D01*
X66030924Y-102978836D01*
X65419186Y-102570086D01*
X64739459Y-102288534D01*
X64017865Y-102145000D01*
X63282135Y-102145000D01*
X62560541Y-102288534D01*
X61880814Y-102570086D01*
X61269076Y-102978836D01*
X60748836Y-103499076D01*
X60340086Y-104110814D01*
X60058534Y-104790541D01*
X59915000Y-105512135D01*
X55660000Y-105512135D01*
X55660000Y-91855249D01*
X70265000Y-91855249D01*
X70265000Y-92344751D01*
X70360497Y-92824848D01*
X70547821Y-93277089D01*
X70819774Y-93684095D01*
X71165905Y-94030226D01*
X71572911Y-94302179D01*
X72025152Y-94489503D01*
X72505249Y-94585000D01*
X72994751Y-94585000D01*
X73474848Y-94489503D01*
X73927089Y-94302179D01*
X74334095Y-94030226D01*
X74680226Y-93684095D01*
X74952179Y-93277089D01*
X75139503Y-92824848D01*
X75235000Y-92344751D01*
X75235000Y-91855249D01*
X78515000Y-91855249D01*
X78515000Y-92344751D01*
X78610497Y-92824848D01*
X78797821Y-93277089D01*
X79069774Y-93684095D01*
X79415905Y-94030226D01*
X79822911Y-94302179D01*
X80275152Y-94489503D01*
X80755249Y-94585000D01*
X81244751Y-94585000D01*
X81724848Y-94489503D01*
X82177089Y-94302179D01*
X82584095Y-94030226D01*
X82930226Y-93684095D01*
X83202179Y-93277089D01*
X83389503Y-92824848D01*
X83485000Y-92344751D01*
X83485000Y-91855249D01*
X87015000Y-91855249D01*
X87015000Y-92344751D01*
X87110497Y-92824848D01*
X87297821Y-93277089D01*
X87569774Y-93684095D01*
X87915905Y-94030226D01*
X88322911Y-94302179D01*
X88775152Y-94489503D01*
X89255249Y-94585000D01*
X89744751Y-94585000D01*
X90224848Y-94489503D01*
X90677089Y-94302179D01*
X91084095Y-94030226D01*
X91430226Y-93684095D01*
X91702179Y-93277089D01*
X91889503Y-92824848D01*
X91985000Y-92344751D01*
X91985000Y-91855249D01*
X95265000Y-91855249D01*
X95265000Y-92344751D01*
X95360497Y-92824848D01*
X95547821Y-93277089D01*
X95819774Y-93684095D01*
X96165905Y-94030226D01*
X96572911Y-94302179D01*
X97025152Y-94489503D01*
X97505249Y-94585000D01*
X97994751Y-94585000D01*
X98474848Y-94489503D01*
X98927089Y-94302179D01*
X99334095Y-94030226D01*
X99680226Y-93684095D01*
X99952179Y-93277089D01*
X100139503Y-92824848D01*
X100235000Y-92344751D01*
X100235000Y-91855249D01*
X100139503Y-91375152D01*
X99952179Y-90922911D01*
X99680226Y-90515905D01*
X99334095Y-90169774D01*
X98927089Y-89897821D01*
X98474848Y-89710497D01*
X97994751Y-89615000D01*
X97505249Y-89615000D01*
X97025152Y-89710497D01*
X96572911Y-89897821D01*
X96165905Y-90169774D01*
X95819774Y-90515905D01*
X95547821Y-90922911D01*
X95360497Y-91375152D01*
X95265000Y-91855249D01*
X91985000Y-91855249D01*
X91889503Y-91375152D01*
X91702179Y-90922911D01*
X91430226Y-90515905D01*
X91084095Y-90169774D01*
X90677089Y-89897821D01*
X90224848Y-89710497D01*
X89744751Y-89615000D01*
X89255249Y-89615000D01*
X88775152Y-89710497D01*
X88322911Y-89897821D01*
X87915905Y-90169774D01*
X87569774Y-90515905D01*
X87297821Y-90922911D01*
X87110497Y-91375152D01*
X87015000Y-91855249D01*
X83485000Y-91855249D01*
X83389503Y-91375152D01*
X83202179Y-90922911D01*
X82930226Y-90515905D01*
X82584095Y-90169774D01*
X82177089Y-89897821D01*
X81724848Y-89710497D01*
X81244751Y-89615000D01*
X80755249Y-89615000D01*
X80275152Y-89710497D01*
X79822911Y-89897821D01*
X79415905Y-90169774D01*
X79069774Y-90515905D01*
X78797821Y-90922911D01*
X78610497Y-91375152D01*
X78515000Y-91855249D01*
X75235000Y-91855249D01*
X75139503Y-91375152D01*
X74952179Y-90922911D01*
X74680226Y-90515905D01*
X74334095Y-90169774D01*
X73927089Y-89897821D01*
X73474848Y-89710497D01*
X72994751Y-89615000D01*
X72505249Y-89615000D01*
X72025152Y-89710497D01*
X71572911Y-89897821D01*
X71165905Y-90169774D01*
X70819774Y-90515905D01*
X70547821Y-90922911D01*
X70360497Y-91375152D01*
X70265000Y-91855249D01*
X55660000Y-91855249D01*
X55660000Y-87529872D01*
X105195000Y-87529872D01*
X105195000Y-87970128D01*
X105280890Y-88401925D01*
X105449369Y-88808669D01*
X105693962Y-89174729D01*
X106005271Y-89486038D01*
X106371331Y-89730631D01*
X106778075Y-89899110D01*
X107209872Y-89985000D01*
X107650128Y-89985000D01*
X108081925Y-89899110D01*
X108488669Y-89730631D01*
X108854729Y-89486038D01*
X109166038Y-89174729D01*
X109410631Y-88808669D01*
X109579110Y-88401925D01*
X109665000Y-87970128D01*
X109665000Y-87529872D01*
X109579110Y-87098075D01*
X109410631Y-86691331D01*
X109166038Y-86325271D01*
X108854729Y-86013962D01*
X108488669Y-85769369D01*
X108081925Y-85600890D01*
X107650128Y-85515000D01*
X107209872Y-85515000D01*
X106778075Y-85600890D01*
X106371331Y-85769369D01*
X106005271Y-86013962D01*
X105693962Y-86325271D01*
X105449369Y-86691331D01*
X105280890Y-87098075D01*
X105195000Y-87529872D01*
X55660000Y-87529872D01*
X55660000Y-64000000D01*
X71536807Y-64000000D01*
X71540000Y-64032419D01*
X71540001Y-78967571D01*
X71536807Y-79000000D01*
X71549550Y-79129383D01*
X71587290Y-79253793D01*
X71648575Y-79368450D01*
X71731052Y-79468948D01*
X71831550Y-79551425D01*
X71946207Y-79612710D01*
X72070617Y-79650450D01*
X72167581Y-79660000D01*
X72200000Y-79663193D01*
X72232419Y-79660000D01*
X98167581Y-79660000D01*
X98200000Y-79663193D01*
X98232419Y-79660000D01*
X98329383Y-79650450D01*
X98453793Y-79612710D01*
X98568450Y-79551425D01*
X98668948Y-79468948D01*
X98751425Y-79368450D01*
X98812710Y-79253793D01*
X98850450Y-79129383D01*
X98863193Y-79000000D01*
X98860000Y-78967581D01*
X98860000Y-78012135D01*
X101415000Y-78012135D01*
X101415000Y-78747865D01*
X101558534Y-79469459D01*
X101840086Y-80149186D01*
X102248836Y-80760924D01*
X102769076Y-81281164D01*
X103380814Y-81689914D01*
X104060541Y-81971466D01*
X104782135Y-82115000D01*
X105517865Y-82115000D01*
X106239459Y-81971466D01*
X106919186Y-81689914D01*
X107530924Y-81281164D01*
X108051164Y-80760924D01*
X108459914Y-80149186D01*
X108741466Y-79469459D01*
X108885000Y-78747865D01*
X108885000Y-78012135D01*
X108741466Y-77290541D01*
X108459914Y-76610814D01*
X108051164Y-75999076D01*
X107530924Y-75478836D01*
X106919186Y-75070086D01*
X106239459Y-74788534D01*
X105517865Y-74645000D01*
X104782135Y-74645000D01*
X104060541Y-74788534D01*
X103380814Y-75070086D01*
X102769076Y-75478836D01*
X102248836Y-75999076D01*
X101840086Y-76610814D01*
X101558534Y-77290541D01*
X101415000Y-78012135D01*
X98860000Y-78012135D01*
X98860000Y-65012135D01*
X101415000Y-65012135D01*
X101415000Y-65747865D01*
X101558534Y-66469459D01*
X101840086Y-67149186D01*
X102248836Y-67760924D01*
X102769076Y-68281164D01*
X103380814Y-68689914D01*
X104060541Y-68971466D01*
X104782135Y-69115000D01*
X105517865Y-69115000D01*
X106239459Y-68971466D01*
X106919186Y-68689914D01*
X107530924Y-68281164D01*
X108051164Y-67760924D01*
X108459914Y-67149186D01*
X108741466Y-66469459D01*
X108885000Y-65747865D01*
X108885000Y-65012135D01*
X108741466Y-64290541D01*
X108459914Y-63610814D01*
X108051164Y-62999076D01*
X107530924Y-62478836D01*
X106919186Y-62070086D01*
X106239459Y-61788534D01*
X105517865Y-61645000D01*
X104782135Y-61645000D01*
X104060541Y-61788534D01*
X103380814Y-62070086D01*
X102769076Y-62478836D01*
X102248836Y-62999076D01*
X101840086Y-63610814D01*
X101558534Y-64290541D01*
X101415000Y-65012135D01*
X98860000Y-65012135D01*
X98860000Y-64032419D01*
X98863193Y-64000000D01*
X98850450Y-63870617D01*
X98812710Y-63746207D01*
X98751425Y-63631550D01*
X98668948Y-63531052D01*
X98568450Y-63448575D01*
X98453793Y-63387290D01*
X98329383Y-63349550D01*
X98232419Y-63340000D01*
X98200000Y-63336807D01*
X98167581Y-63340000D01*
X72232419Y-63340000D01*
X72200000Y-63336807D01*
X72167581Y-63340000D01*
X72070617Y-63349550D01*
X71946207Y-63387290D01*
X71831550Y-63448575D01*
X71731052Y-63531052D01*
X71648575Y-63631550D01*
X71587290Y-63746207D01*
X71549550Y-63870617D01*
X71536807Y-64000000D01*
X55660000Y-64000000D01*
X55660000Y-57529872D01*
X105195000Y-57529872D01*
X105195000Y-57970128D01*
X105280890Y-58401925D01*
X105449369Y-58808669D01*
X105693962Y-59174729D01*
X106005271Y-59486038D01*
X106371331Y-59730631D01*
X106778075Y-59899110D01*
X107209872Y-59985000D01*
X107650128Y-59985000D01*
X108081925Y-59899110D01*
X108488669Y-59730631D01*
X108854729Y-59486038D01*
X109166038Y-59174729D01*
X109410631Y-58808669D01*
X109579110Y-58401925D01*
X109665000Y-57970128D01*
X109665000Y-57529872D01*
X109579110Y-57098075D01*
X109410631Y-56691331D01*
X109166038Y-56325271D01*
X108854729Y-56013962D01*
X108488669Y-55769369D01*
X108081925Y-55600890D01*
X107650128Y-55515000D01*
X107209872Y-55515000D01*
X106778075Y-55600890D01*
X106371331Y-55769369D01*
X106005271Y-56013962D01*
X105693962Y-56325271D01*
X105449369Y-56691331D01*
X105280890Y-57098075D01*
X105195000Y-57529872D01*
X55660000Y-57529872D01*
X55660000Y-52064344D01*
X61115000Y-52064344D01*
X61115000Y-52435656D01*
X61187439Y-52799834D01*
X61329534Y-53142882D01*
X61535825Y-53451618D01*
X61798382Y-53714175D01*
X62107118Y-53920466D01*
X62450166Y-54062561D01*
X62814344Y-54135000D01*
X63185656Y-54135000D01*
X63549834Y-54062561D01*
X63892882Y-53920466D01*
X64140146Y-53755249D01*
X73265000Y-53755249D01*
X73265000Y-54244751D01*
X73360497Y-54724848D01*
X73547821Y-55177089D01*
X73819774Y-55584095D01*
X74165905Y-55930226D01*
X74572911Y-56202179D01*
X75025152Y-56389503D01*
X75505249Y-56485000D01*
X75994751Y-56485000D01*
X76474848Y-56389503D01*
X76927089Y-56202179D01*
X77334095Y-55930226D01*
X77680226Y-55584095D01*
X77952179Y-55177089D01*
X78139503Y-54724848D01*
X78235000Y-54244751D01*
X78235000Y-53755249D01*
X92265000Y-53755249D01*
X92265000Y-54244751D01*
X92360497Y-54724848D01*
X92547821Y-55177089D01*
X92819774Y-55584095D01*
X93165905Y-55930226D01*
X93572911Y-56202179D01*
X94025152Y-56389503D01*
X94505249Y-56485000D01*
X94994751Y-56485000D01*
X95474848Y-56389503D01*
X95927089Y-56202179D01*
X96334095Y-55930226D01*
X96680226Y-55584095D01*
X96952179Y-55177089D01*
X97139503Y-54724848D01*
X97235000Y-54244751D01*
X97235000Y-53755249D01*
X97139503Y-53275152D01*
X96952179Y-52822911D01*
X96680226Y-52415905D01*
X96334095Y-52069774D01*
X96325969Y-52064344D01*
X105615000Y-52064344D01*
X105615000Y-52435656D01*
X105687439Y-52799834D01*
X105829534Y-53142882D01*
X106035825Y-53451618D01*
X106298382Y-53714175D01*
X106607118Y-53920466D01*
X106950166Y-54062561D01*
X107314344Y-54135000D01*
X107685656Y-54135000D01*
X108049834Y-54062561D01*
X108392882Y-53920466D01*
X108701618Y-53714175D01*
X108964175Y-53451618D01*
X109170466Y-53142882D01*
X109312561Y-52799834D01*
X109385000Y-52435656D01*
X109385000Y-52064344D01*
X109312561Y-51700166D01*
X109170466Y-51357118D01*
X108964175Y-51048382D01*
X108701618Y-50785825D01*
X108392882Y-50579534D01*
X108049834Y-50437439D01*
X107685656Y-50365000D01*
X107314344Y-50365000D01*
X106950166Y-50437439D01*
X106607118Y-50579534D01*
X106298382Y-50785825D01*
X106035825Y-51048382D01*
X105829534Y-51357118D01*
X105687439Y-51700166D01*
X105615000Y-52064344D01*
X96325969Y-52064344D01*
X95927089Y-51797821D01*
X95474848Y-51610497D01*
X94994751Y-51515000D01*
X94505249Y-51515000D01*
X94025152Y-51610497D01*
X93572911Y-51797821D01*
X93165905Y-52069774D01*
X92819774Y-52415905D01*
X92547821Y-52822911D01*
X92360497Y-53275152D01*
X92265000Y-53755249D01*
X78235000Y-53755249D01*
X78139503Y-53275152D01*
X77952179Y-52822911D01*
X77680226Y-52415905D01*
X77334095Y-52069774D01*
X76927089Y-51797821D01*
X76474848Y-51610497D01*
X75994751Y-51515000D01*
X75505249Y-51515000D01*
X75025152Y-51610497D01*
X74572911Y-51797821D01*
X74165905Y-52069774D01*
X73819774Y-52415905D01*
X73547821Y-52822911D01*
X73360497Y-53275152D01*
X73265000Y-53755249D01*
X64140146Y-53755249D01*
X64201618Y-53714175D01*
X64464175Y-53451618D01*
X64670466Y-53142882D01*
X64812561Y-52799834D01*
X64885000Y-52435656D01*
X64885000Y-52064344D01*
X64812561Y-51700166D01*
X64670466Y-51357118D01*
X64464175Y-51048382D01*
X64201618Y-50785825D01*
X63892882Y-50579534D01*
X63549834Y-50437439D01*
X63185656Y-50365000D01*
X62814344Y-50365000D01*
X62450166Y-50437439D01*
X62107118Y-50579534D01*
X61798382Y-50785825D01*
X61535825Y-51048382D01*
X61329534Y-51357118D01*
X61187439Y-51700166D01*
X61115000Y-52064344D01*
X55660000Y-52064344D01*
X55660000Y-40660000D01*
X65406440Y-40660000D01*
X65064886Y-41001554D01*
G04 #@! TA.AperFunction,NonConductor*
D12*
G36*
X65064886Y-41001554D02*
G01*
X64721799Y-41515021D01*
X64485476Y-42085554D01*
X64365000Y-42691229D01*
X64365000Y-43308771D01*
X64485476Y-43914446D01*
X64721799Y-44484979D01*
X65064886Y-44998446D01*
X65501554Y-45435114D01*
X66015021Y-45778201D01*
X66585554Y-46014524D01*
X67191229Y-46135000D01*
X67808771Y-46135000D01*
X68414446Y-46014524D01*
X68984979Y-45778201D01*
X69498446Y-45435114D01*
X69935114Y-44998446D01*
X70278201Y-44484979D01*
X70514524Y-43914446D01*
X70635000Y-43308771D01*
X70635000Y-42691229D01*
X70514524Y-42085554D01*
X70278201Y-41515021D01*
X69935114Y-41001554D01*
X69593560Y-40660000D01*
X100906440Y-40660000D01*
X100564886Y-41001554D01*
X100221799Y-41515021D01*
X99985476Y-42085554D01*
X99865000Y-42691229D01*
X99865000Y-43308771D01*
X99985476Y-43914446D01*
X100221799Y-44484979D01*
X100564886Y-44998446D01*
X101001554Y-45435114D01*
X101515021Y-45778201D01*
X102085554Y-46014524D01*
X102691229Y-46135000D01*
X103308771Y-46135000D01*
X103914446Y-46014524D01*
X104484979Y-45778201D01*
X104998446Y-45435114D01*
X105435114Y-44998446D01*
X105778201Y-44484979D01*
X106014524Y-43914446D01*
X106135000Y-43308771D01*
X106135000Y-42691229D01*
X106014524Y-42085554D01*
X105778201Y-41515021D01*
X105435114Y-41001554D01*
X105093560Y-40660000D01*
X114740001Y-40660000D01*
X114740000Y-167740000D01*
X105093560Y-167740000D01*
X105435114Y-167398446D01*
X105778201Y-166884979D01*
X106014524Y-166314446D01*
X106135000Y-165708771D01*
X106135000Y-165091229D01*
X106014524Y-164485554D01*
X105778201Y-163915021D01*
X105435114Y-163401554D01*
X104998446Y-162964886D01*
X104484979Y-162621799D01*
X103914446Y-162385476D01*
X103308771Y-162265000D01*
X102691229Y-162265000D01*
X102085554Y-162385476D01*
X101515021Y-162621799D01*
X101001554Y-162964886D01*
X100564886Y-163401554D01*
X100221799Y-163915021D01*
X99985476Y-164485554D01*
X99865000Y-165091229D01*
X99865000Y-165708771D01*
X99985476Y-166314446D01*
X100221799Y-166884979D01*
X100564886Y-167398446D01*
X100906440Y-167740000D01*
X69593560Y-167740000D01*
X69935114Y-167398446D01*
X70278201Y-166884979D01*
X70514524Y-166314446D01*
X70635000Y-165708771D01*
X70635000Y-165091229D01*
X70514524Y-164485554D01*
X70278201Y-163915021D01*
X69935114Y-163401554D01*
X69498446Y-162964886D01*
X68984979Y-162621799D01*
X68414446Y-162385476D01*
X67808771Y-162265000D01*
X67191229Y-162265000D01*
X66585554Y-162385476D01*
X66015021Y-162621799D01*
X65501554Y-162964886D01*
X65064886Y-163401554D01*
X64721799Y-163915021D01*
X64485476Y-164485554D01*
X64365000Y-165091229D01*
X64365000Y-165708771D01*
X64485476Y-166314446D01*
X64721799Y-166884979D01*
X65064886Y-167398446D01*
X65406440Y-167740000D01*
X55660000Y-167740000D01*
X55660000Y-156064344D01*
X61115000Y-156064344D01*
X61115000Y-156435656D01*
X61187439Y-156799834D01*
X61329534Y-157142882D01*
X61535825Y-157451618D01*
X61798382Y-157714175D01*
X62107118Y-157920466D01*
X62450166Y-158062561D01*
X62814344Y-158135000D01*
X63185656Y-158135000D01*
X63549834Y-158062561D01*
X63892882Y-157920466D01*
X64201618Y-157714175D01*
X64464175Y-157451618D01*
X64670466Y-157142882D01*
X64812561Y-156799834D01*
X64885000Y-156435656D01*
X64885000Y-156064344D01*
X105615000Y-156064344D01*
X105615000Y-156435656D01*
X105687439Y-156799834D01*
X105829534Y-157142882D01*
X106035825Y-157451618D01*
X106298382Y-157714175D01*
X106607118Y-157920466D01*
X106950166Y-158062561D01*
X107314344Y-158135000D01*
X107685656Y-158135000D01*
X108049834Y-158062561D01*
X108392882Y-157920466D01*
X108701618Y-157714175D01*
X108964175Y-157451618D01*
X109170466Y-157142882D01*
X109312561Y-156799834D01*
X109385000Y-156435656D01*
X109385000Y-156064344D01*
X109312561Y-155700166D01*
X109170466Y-155357118D01*
X108964175Y-155048382D01*
X108701618Y-154785825D01*
X108392882Y-154579534D01*
X108049834Y-154437439D01*
X107685656Y-154365000D01*
X107314344Y-154365000D01*
X106950166Y-154437439D01*
X106607118Y-154579534D01*
X106298382Y-154785825D01*
X106035825Y-155048382D01*
X105829534Y-155357118D01*
X105687439Y-155700166D01*
X105615000Y-156064344D01*
X64885000Y-156064344D01*
X64812561Y-155700166D01*
X64670466Y-155357118D01*
X64464175Y-155048382D01*
X64201618Y-154785825D01*
X63892882Y-154579534D01*
X63549834Y-154437439D01*
X63185656Y-154365000D01*
X62814344Y-154365000D01*
X62450166Y-154437439D01*
X62107118Y-154579534D01*
X61798382Y-154785825D01*
X61535825Y-155048382D01*
X61329534Y-155357118D01*
X61187439Y-155700166D01*
X61115000Y-156064344D01*
X55660000Y-156064344D01*
X55660000Y-146372285D01*
X61165000Y-146372285D01*
X61165000Y-147127715D01*
X61312377Y-147868628D01*
X61601467Y-148566554D01*
X62021161Y-149194670D01*
X62555330Y-149728839D01*
X63183446Y-150148533D01*
X63881372Y-150437623D01*
X64622285Y-150585000D01*
X65377715Y-150585000D01*
X66118628Y-150437623D01*
X66816554Y-150148533D01*
X67444670Y-149728839D01*
X67978839Y-149194670D01*
X68398533Y-148566554D01*
X68687623Y-147868628D01*
X68835000Y-147127715D01*
X68835000Y-146372285D01*
X68687623Y-145631372D01*
X68398533Y-144933446D01*
X67978839Y-144305330D01*
X67444670Y-143771161D01*
X66816554Y-143351467D01*
X66118628Y-143062377D01*
X65377715Y-142915000D01*
X64622285Y-142915000D01*
X63881372Y-143062377D01*
X63183446Y-143351467D01*
X62555330Y-143771161D01*
X62021161Y-144305330D01*
X61601467Y-144933446D01*
X61312377Y-145631372D01*
X61165000Y-146372285D01*
X55660000Y-146372285D01*
X55660000Y-132512135D01*
X59915000Y-132512135D01*
X59915000Y-133247865D01*
X60058534Y-133969459D01*
X60340086Y-134649186D01*
X60748836Y-135260924D01*
X61269076Y-135781164D01*
X61880814Y-136189914D01*
X62560541Y-136471466D01*
X63282135Y-136615000D01*
X64017865Y-136615000D01*
X64739459Y-136471466D01*
X65419186Y-136189914D01*
X66030924Y-135781164D01*
X66551164Y-135260924D01*
X66959914Y-134649186D01*
X67241466Y-133969459D01*
X67385000Y-133247865D01*
X67385000Y-132512135D01*
X67241466Y-131790541D01*
X66959914Y-131110814D01*
X66551164Y-130499076D01*
X66030924Y-129978836D01*
X65419186Y-129570086D01*
X64739459Y-129288534D01*
X64017865Y-129145000D01*
X63282135Y-129145000D01*
X62560541Y-129288534D01*
X61880814Y-129570086D01*
X61269076Y-129978836D01*
X60748836Y-130499076D01*
X60340086Y-131110814D01*
X60058534Y-131790541D01*
X59915000Y-132512135D01*
X55660000Y-132512135D01*
X55660000Y-122005249D01*
X61765000Y-122005249D01*
X61765000Y-122494751D01*
X61860497Y-122974848D01*
X62047821Y-123427089D01*
X62319774Y-123834095D01*
X62665905Y-124180226D01*
X63072911Y-124452179D01*
X63525152Y-124639503D01*
X64005249Y-124735000D01*
X64494751Y-124735000D01*
X64974848Y-124639503D01*
X65427089Y-124452179D01*
X65610134Y-124329872D01*
X82965000Y-124329872D01*
X82965000Y-124770128D01*
X83050890Y-125201925D01*
X83219369Y-125608669D01*
X83463962Y-125974729D01*
X83775271Y-126286038D01*
X84141331Y-126530631D01*
X84548075Y-126699110D01*
X84979872Y-126785000D01*
X85420128Y-126785000D01*
X85851925Y-126699110D01*
X86258669Y-126530631D01*
X86624729Y-126286038D01*
X86936038Y-125974729D01*
X87180631Y-125608669D01*
X87349110Y-125201925D01*
X87435000Y-124770128D01*
X87435000Y-124329872D01*
X87349110Y-123898075D01*
X87180631Y-123491331D01*
X86936038Y-123125271D01*
X86624729Y-122813962D01*
X86258669Y-122569369D01*
X85851925Y-122400890D01*
X85420128Y-122315000D01*
X84979872Y-122315000D01*
X84548075Y-122400890D01*
X84141331Y-122569369D01*
X83775271Y-122813962D01*
X83463962Y-123125271D01*
X83219369Y-123491331D01*
X83050890Y-123898075D01*
X82965000Y-124329872D01*
X65610134Y-124329872D01*
X65834095Y-124180226D01*
X66180226Y-123834095D01*
X66452179Y-123427089D01*
X66639503Y-122974848D01*
X66735000Y-122494751D01*
X66735000Y-122005249D01*
X66639503Y-121525152D01*
X66452179Y-121072911D01*
X66180226Y-120665905D01*
X65834095Y-120319774D01*
X65427089Y-120047821D01*
X64974848Y-119860497D01*
X64494751Y-119765000D01*
X64005249Y-119765000D01*
X63525152Y-119860497D01*
X63072911Y-120047821D01*
X62665905Y-120319774D01*
X62319774Y-120665905D01*
X62047821Y-121072911D01*
X61860497Y-121525152D01*
X61765000Y-122005249D01*
X55660000Y-122005249D01*
X55660000Y-115029872D01*
X62015000Y-115029872D01*
X62015000Y-115470128D01*
X62100890Y-115901925D01*
X62269369Y-116308669D01*
X62513962Y-116674729D01*
X62825271Y-116986038D01*
X63191331Y-117230631D01*
X63598075Y-117399110D01*
X64029872Y-117485000D01*
X64470128Y-117485000D01*
X64901925Y-117399110D01*
X65308669Y-117230631D01*
X65674729Y-116986038D01*
X65986038Y-116674729D01*
X66230631Y-116308669D01*
X66399110Y-115901925D01*
X66485000Y-115470128D01*
X66485000Y-115029872D01*
X66399110Y-114598075D01*
X66230631Y-114191331D01*
X65986038Y-113825271D01*
X65674729Y-113513962D01*
X65308669Y-113269369D01*
X64901925Y-113100890D01*
X64470128Y-113015000D01*
X64029872Y-113015000D01*
X63598075Y-113100890D01*
X63191331Y-113269369D01*
X62825271Y-113513962D01*
X62513962Y-113825271D01*
X62269369Y-114191331D01*
X62100890Y-114598075D01*
X62015000Y-115029872D01*
X55660000Y-115029872D01*
X55660000Y-105512135D01*
X59915000Y-105512135D01*
X59915000Y-106247865D01*
X60058534Y-106969459D01*
X60340086Y-107649186D01*
X60748836Y-108260924D01*
X61269076Y-108781164D01*
X61880814Y-109189914D01*
X62560541Y-109471466D01*
X63282135Y-109615000D01*
X64017865Y-109615000D01*
X64739459Y-109471466D01*
X65419186Y-109189914D01*
X66030924Y-108781164D01*
X66551164Y-108260924D01*
X66810844Y-107872285D01*
X81365000Y-107872285D01*
X81365000Y-108627715D01*
X81512377Y-109368628D01*
X81801467Y-110066554D01*
X82221161Y-110694670D01*
X82755330Y-111228839D01*
X83383446Y-111648533D01*
X84081372Y-111937623D01*
X84822285Y-112085000D01*
X85577715Y-112085000D01*
X86318628Y-111937623D01*
X87016554Y-111648533D01*
X87644670Y-111228839D01*
X88178839Y-110694670D01*
X88598533Y-110066554D01*
X88887623Y-109368628D01*
X89035000Y-108627715D01*
X89035000Y-107872285D01*
X88887623Y-107131372D01*
X88598533Y-106433446D01*
X88178839Y-105805330D01*
X87885644Y-105512135D01*
X101415000Y-105512135D01*
X101415000Y-106247865D01*
X101558534Y-106969459D01*
X101840086Y-107649186D01*
X102248836Y-108260924D01*
X102769076Y-108781164D01*
X103380814Y-109189914D01*
X104060541Y-109471466D01*
X104782135Y-109615000D01*
X105517865Y-109615000D01*
X106239459Y-109471466D01*
X106919186Y-109189914D01*
X107530924Y-108781164D01*
X108051164Y-108260924D01*
X108459914Y-107649186D01*
X108741466Y-106969459D01*
X108885000Y-106247865D01*
X108885000Y-105512135D01*
X108741466Y-104790541D01*
X108459914Y-104110814D01*
X108051164Y-103499076D01*
X107530924Y-102978836D01*
X106919186Y-102570086D01*
X106239459Y-102288534D01*
X105517865Y-102145000D01*
X104782135Y-102145000D01*
X104060541Y-102288534D01*
X103380814Y-102570086D01*
X102769076Y-102978836D01*
X102248836Y-103499076D01*
X101840086Y-104110814D01*
X101558534Y-104790541D01*
X101415000Y-105512135D01*
X87885644Y-105512135D01*
X87644670Y-105271161D01*
X87016554Y-104851467D01*
X86318628Y-104562377D01*
X85577715Y-104415000D01*
X84822285Y-104415000D01*
X84081372Y-104562377D01*
X83383446Y-104851467D01*
X82755330Y-105271161D01*
X82221161Y-105805330D01*
X81801467Y-106433446D01*
X81512377Y-107131372D01*
X81365000Y-107872285D01*
X66810844Y-107872285D01*
X66959914Y-107649186D01*
X67241466Y-106969459D01*
X67385000Y-106247865D01*
X67385000Y-105512135D01*
X67241466Y-104790541D01*
X66959914Y-104110814D01*
X66551164Y-103499076D01*
X66030924Y-102978836D01*
X65419186Y-102570086D01*
X64739459Y-102288534D01*
X64017865Y-102145000D01*
X63282135Y-102145000D01*
X62560541Y-102288534D01*
X61880814Y-102570086D01*
X61269076Y-102978836D01*
X60748836Y-103499076D01*
X60340086Y-104110814D01*
X60058534Y-104790541D01*
X59915000Y-105512135D01*
X55660000Y-105512135D01*
X55660000Y-91855249D01*
X70265000Y-91855249D01*
X70265000Y-92344751D01*
X70360497Y-92824848D01*
X70547821Y-93277089D01*
X70819774Y-93684095D01*
X71165905Y-94030226D01*
X71572911Y-94302179D01*
X72025152Y-94489503D01*
X72505249Y-94585000D01*
X72994751Y-94585000D01*
X73474848Y-94489503D01*
X73927089Y-94302179D01*
X74334095Y-94030226D01*
X74680226Y-93684095D01*
X74952179Y-93277089D01*
X75139503Y-92824848D01*
X75235000Y-92344751D01*
X75235000Y-91855249D01*
X78515000Y-91855249D01*
X78515000Y-92344751D01*
X78610497Y-92824848D01*
X78797821Y-93277089D01*
X79069774Y-93684095D01*
X79415905Y-94030226D01*
X79822911Y-94302179D01*
X80275152Y-94489503D01*
X80755249Y-94585000D01*
X81244751Y-94585000D01*
X81724848Y-94489503D01*
X82177089Y-94302179D01*
X82584095Y-94030226D01*
X82930226Y-93684095D01*
X83202179Y-93277089D01*
X83389503Y-92824848D01*
X83485000Y-92344751D01*
X83485000Y-91855249D01*
X87015000Y-91855249D01*
X87015000Y-92344751D01*
X87110497Y-92824848D01*
X87297821Y-93277089D01*
X87569774Y-93684095D01*
X87915905Y-94030226D01*
X88322911Y-94302179D01*
X88775152Y-94489503D01*
X89255249Y-94585000D01*
X89744751Y-94585000D01*
X90224848Y-94489503D01*
X90677089Y-94302179D01*
X91084095Y-94030226D01*
X91430226Y-93684095D01*
X91702179Y-93277089D01*
X91889503Y-92824848D01*
X91985000Y-92344751D01*
X91985000Y-91855249D01*
X95265000Y-91855249D01*
X95265000Y-92344751D01*
X95360497Y-92824848D01*
X95547821Y-93277089D01*
X95819774Y-93684095D01*
X96165905Y-94030226D01*
X96572911Y-94302179D01*
X97025152Y-94489503D01*
X97505249Y-94585000D01*
X97994751Y-94585000D01*
X98474848Y-94489503D01*
X98927089Y-94302179D01*
X99334095Y-94030226D01*
X99680226Y-93684095D01*
X99952179Y-93277089D01*
X100139503Y-92824848D01*
X100235000Y-92344751D01*
X100235000Y-91855249D01*
X100139503Y-91375152D01*
X99952179Y-90922911D01*
X99680226Y-90515905D01*
X99334095Y-90169774D01*
X98927089Y-89897821D01*
X98474848Y-89710497D01*
X97994751Y-89615000D01*
X97505249Y-89615000D01*
X97025152Y-89710497D01*
X96572911Y-89897821D01*
X96165905Y-90169774D01*
X95819774Y-90515905D01*
X95547821Y-90922911D01*
X95360497Y-91375152D01*
X95265000Y-91855249D01*
X91985000Y-91855249D01*
X91889503Y-91375152D01*
X91702179Y-90922911D01*
X91430226Y-90515905D01*
X91084095Y-90169774D01*
X90677089Y-89897821D01*
X90224848Y-89710497D01*
X89744751Y-89615000D01*
X89255249Y-89615000D01*
X88775152Y-89710497D01*
X88322911Y-89897821D01*
X87915905Y-90169774D01*
X87569774Y-90515905D01*
X87297821Y-90922911D01*
X87110497Y-91375152D01*
X87015000Y-91855249D01*
X83485000Y-91855249D01*
X83389503Y-91375152D01*
X83202179Y-90922911D01*
X82930226Y-90515905D01*
X82584095Y-90169774D01*
X82177089Y-89897821D01*
X81724848Y-89710497D01*
X81244751Y-89615000D01*
X80755249Y-89615000D01*
X80275152Y-89710497D01*
X79822911Y-89897821D01*
X79415905Y-90169774D01*
X79069774Y-90515905D01*
X78797821Y-90922911D01*
X78610497Y-91375152D01*
X78515000Y-91855249D01*
X75235000Y-91855249D01*
X75139503Y-91375152D01*
X74952179Y-90922911D01*
X74680226Y-90515905D01*
X74334095Y-90169774D01*
X73927089Y-89897821D01*
X73474848Y-89710497D01*
X72994751Y-89615000D01*
X72505249Y-89615000D01*
X72025152Y-89710497D01*
X71572911Y-89897821D01*
X71165905Y-90169774D01*
X70819774Y-90515905D01*
X70547821Y-90922911D01*
X70360497Y-91375152D01*
X70265000Y-91855249D01*
X55660000Y-91855249D01*
X55660000Y-87529872D01*
X105195000Y-87529872D01*
X105195000Y-87970128D01*
X105280890Y-88401925D01*
X105449369Y-88808669D01*
X105693962Y-89174729D01*
X106005271Y-89486038D01*
X106371331Y-89730631D01*
X106778075Y-89899110D01*
X107209872Y-89985000D01*
X107650128Y-89985000D01*
X108081925Y-89899110D01*
X108488669Y-89730631D01*
X108854729Y-89486038D01*
X109166038Y-89174729D01*
X109410631Y-88808669D01*
X109579110Y-88401925D01*
X109665000Y-87970128D01*
X109665000Y-87529872D01*
X109579110Y-87098075D01*
X109410631Y-86691331D01*
X109166038Y-86325271D01*
X108854729Y-86013962D01*
X108488669Y-85769369D01*
X108081925Y-85600890D01*
X107650128Y-85515000D01*
X107209872Y-85515000D01*
X106778075Y-85600890D01*
X106371331Y-85769369D01*
X106005271Y-86013962D01*
X105693962Y-86325271D01*
X105449369Y-86691331D01*
X105280890Y-87098075D01*
X105195000Y-87529872D01*
X55660000Y-87529872D01*
X55660000Y-64000000D01*
X71536807Y-64000000D01*
X71540000Y-64032419D01*
X71540001Y-78967571D01*
X71536807Y-79000000D01*
X71549550Y-79129383D01*
X71587290Y-79253793D01*
X71648575Y-79368450D01*
X71731052Y-79468948D01*
X71831550Y-79551425D01*
X71946207Y-79612710D01*
X72070617Y-79650450D01*
X72167581Y-79660000D01*
X72200000Y-79663193D01*
X72232419Y-79660000D01*
X98167581Y-79660000D01*
X98200000Y-79663193D01*
X98232419Y-79660000D01*
X98329383Y-79650450D01*
X98453793Y-79612710D01*
X98568450Y-79551425D01*
X98668948Y-79468948D01*
X98751425Y-79368450D01*
X98812710Y-79253793D01*
X98850450Y-79129383D01*
X98863193Y-79000000D01*
X98860000Y-78967581D01*
X98860000Y-78012135D01*
X101415000Y-78012135D01*
X101415000Y-78747865D01*
X101558534Y-79469459D01*
X101840086Y-80149186D01*
X102248836Y-80760924D01*
X102769076Y-81281164D01*
X103380814Y-81689914D01*
X104060541Y-81971466D01*
X104782135Y-82115000D01*
X105517865Y-82115000D01*
X106239459Y-81971466D01*
X106919186Y-81689914D01*
X107530924Y-81281164D01*
X108051164Y-80760924D01*
X108459914Y-80149186D01*
X108741466Y-79469459D01*
X108885000Y-78747865D01*
X108885000Y-78012135D01*
X108741466Y-77290541D01*
X108459914Y-76610814D01*
X108051164Y-75999076D01*
X107530924Y-75478836D01*
X106919186Y-75070086D01*
X106239459Y-74788534D01*
X105517865Y-74645000D01*
X104782135Y-74645000D01*
X104060541Y-74788534D01*
X103380814Y-75070086D01*
X102769076Y-75478836D01*
X102248836Y-75999076D01*
X101840086Y-76610814D01*
X101558534Y-77290541D01*
X101415000Y-78012135D01*
X98860000Y-78012135D01*
X98860000Y-65012135D01*
X101415000Y-65012135D01*
X101415000Y-65747865D01*
X101558534Y-66469459D01*
X101840086Y-67149186D01*
X102248836Y-67760924D01*
X102769076Y-68281164D01*
X103380814Y-68689914D01*
X104060541Y-68971466D01*
X104782135Y-69115000D01*
X105517865Y-69115000D01*
X106239459Y-68971466D01*
X106919186Y-68689914D01*
X107530924Y-68281164D01*
X108051164Y-67760924D01*
X108459914Y-67149186D01*
X108741466Y-66469459D01*
X108885000Y-65747865D01*
X108885000Y-65012135D01*
X108741466Y-64290541D01*
X108459914Y-63610814D01*
X108051164Y-62999076D01*
X107530924Y-62478836D01*
X106919186Y-62070086D01*
X106239459Y-61788534D01*
X105517865Y-61645000D01*
X104782135Y-61645000D01*
X104060541Y-61788534D01*
X103380814Y-62070086D01*
X102769076Y-62478836D01*
X102248836Y-62999076D01*
X101840086Y-63610814D01*
X101558534Y-64290541D01*
X101415000Y-65012135D01*
X98860000Y-65012135D01*
X98860000Y-64032419D01*
X98863193Y-64000000D01*
X98850450Y-63870617D01*
X98812710Y-63746207D01*
X98751425Y-63631550D01*
X98668948Y-63531052D01*
X98568450Y-63448575D01*
X98453793Y-63387290D01*
X98329383Y-63349550D01*
X98232419Y-63340000D01*
X98200000Y-63336807D01*
X98167581Y-63340000D01*
X72232419Y-63340000D01*
X72200000Y-63336807D01*
X72167581Y-63340000D01*
X72070617Y-63349550D01*
X71946207Y-63387290D01*
X71831550Y-63448575D01*
X71731052Y-63531052D01*
X71648575Y-63631550D01*
X71587290Y-63746207D01*
X71549550Y-63870617D01*
X71536807Y-64000000D01*
X55660000Y-64000000D01*
X55660000Y-57529872D01*
X105195000Y-57529872D01*
X105195000Y-57970128D01*
X105280890Y-58401925D01*
X105449369Y-58808669D01*
X105693962Y-59174729D01*
X106005271Y-59486038D01*
X106371331Y-59730631D01*
X106778075Y-59899110D01*
X107209872Y-59985000D01*
X107650128Y-59985000D01*
X108081925Y-59899110D01*
X108488669Y-59730631D01*
X108854729Y-59486038D01*
X109166038Y-59174729D01*
X109410631Y-58808669D01*
X109579110Y-58401925D01*
X109665000Y-57970128D01*
X109665000Y-57529872D01*
X109579110Y-57098075D01*
X109410631Y-56691331D01*
X109166038Y-56325271D01*
X108854729Y-56013962D01*
X108488669Y-55769369D01*
X108081925Y-55600890D01*
X107650128Y-55515000D01*
X107209872Y-55515000D01*
X106778075Y-55600890D01*
X106371331Y-55769369D01*
X106005271Y-56013962D01*
X105693962Y-56325271D01*
X105449369Y-56691331D01*
X105280890Y-57098075D01*
X105195000Y-57529872D01*
X55660000Y-57529872D01*
X55660000Y-52064344D01*
X61115000Y-52064344D01*
X61115000Y-52435656D01*
X61187439Y-52799834D01*
X61329534Y-53142882D01*
X61535825Y-53451618D01*
X61798382Y-53714175D01*
X62107118Y-53920466D01*
X62450166Y-54062561D01*
X62814344Y-54135000D01*
X63185656Y-54135000D01*
X63549834Y-54062561D01*
X63892882Y-53920466D01*
X64140146Y-53755249D01*
X73265000Y-53755249D01*
X73265000Y-54244751D01*
X73360497Y-54724848D01*
X73547821Y-55177089D01*
X73819774Y-55584095D01*
X74165905Y-55930226D01*
X74572911Y-56202179D01*
X75025152Y-56389503D01*
X75505249Y-56485000D01*
X75994751Y-56485000D01*
X76474848Y-56389503D01*
X76927089Y-56202179D01*
X77334095Y-55930226D01*
X77680226Y-55584095D01*
X77952179Y-55177089D01*
X78139503Y-54724848D01*
X78235000Y-54244751D01*
X78235000Y-53755249D01*
X92265000Y-53755249D01*
X92265000Y-54244751D01*
X92360497Y-54724848D01*
X92547821Y-55177089D01*
X92819774Y-55584095D01*
X93165905Y-55930226D01*
X93572911Y-56202179D01*
X94025152Y-56389503D01*
X94505249Y-56485000D01*
X94994751Y-56485000D01*
X95474848Y-56389503D01*
X95927089Y-56202179D01*
X96334095Y-55930226D01*
X96680226Y-55584095D01*
X96952179Y-55177089D01*
X97139503Y-54724848D01*
X97235000Y-54244751D01*
X97235000Y-53755249D01*
X97139503Y-53275152D01*
X96952179Y-52822911D01*
X96680226Y-52415905D01*
X96334095Y-52069774D01*
X96325969Y-52064344D01*
X105615000Y-52064344D01*
X105615000Y-52435656D01*
X105687439Y-52799834D01*
X105829534Y-53142882D01*
X106035825Y-53451618D01*
X106298382Y-53714175D01*
X106607118Y-53920466D01*
X106950166Y-54062561D01*
X107314344Y-54135000D01*
X107685656Y-54135000D01*
X108049834Y-54062561D01*
X108392882Y-53920466D01*
X108701618Y-53714175D01*
X108964175Y-53451618D01*
X109170466Y-53142882D01*
X109312561Y-52799834D01*
X109385000Y-52435656D01*
X109385000Y-52064344D01*
X109312561Y-51700166D01*
X109170466Y-51357118D01*
X108964175Y-51048382D01*
X108701618Y-50785825D01*
X108392882Y-50579534D01*
X108049834Y-50437439D01*
X107685656Y-50365000D01*
X107314344Y-50365000D01*
X106950166Y-50437439D01*
X106607118Y-50579534D01*
X106298382Y-50785825D01*
X106035825Y-51048382D01*
X105829534Y-51357118D01*
X105687439Y-51700166D01*
X105615000Y-52064344D01*
X96325969Y-52064344D01*
X95927089Y-51797821D01*
X95474848Y-51610497D01*
X94994751Y-51515000D01*
X94505249Y-51515000D01*
X94025152Y-51610497D01*
X93572911Y-51797821D01*
X93165905Y-52069774D01*
X92819774Y-52415905D01*
X92547821Y-52822911D01*
X92360497Y-53275152D01*
X92265000Y-53755249D01*
X78235000Y-53755249D01*
X78139503Y-53275152D01*
X77952179Y-52822911D01*
X77680226Y-52415905D01*
X77334095Y-52069774D01*
X76927089Y-51797821D01*
X76474848Y-51610497D01*
X75994751Y-51515000D01*
X75505249Y-51515000D01*
X75025152Y-51610497D01*
X74572911Y-51797821D01*
X74165905Y-52069774D01*
X73819774Y-52415905D01*
X73547821Y-52822911D01*
X73360497Y-53275152D01*
X73265000Y-53755249D01*
X64140146Y-53755249D01*
X64201618Y-53714175D01*
X64464175Y-53451618D01*
X64670466Y-53142882D01*
X64812561Y-52799834D01*
X64885000Y-52435656D01*
X64885000Y-52064344D01*
X64812561Y-51700166D01*
X64670466Y-51357118D01*
X64464175Y-51048382D01*
X64201618Y-50785825D01*
X63892882Y-50579534D01*
X63549834Y-50437439D01*
X63185656Y-50365000D01*
X62814344Y-50365000D01*
X62450166Y-50437439D01*
X62107118Y-50579534D01*
X61798382Y-50785825D01*
X61535825Y-51048382D01*
X61329534Y-51357118D01*
X61187439Y-51700166D01*
X61115000Y-52064344D01*
X55660000Y-52064344D01*
X55660000Y-40660000D01*
X65406440Y-40660000D01*
X65064886Y-41001554D01*
G37*
G04 #@! TD.AperFunction*
M02*
