M48
; DRILL file {KiCad (6.0.1)} date Mon Oct 24 21:30:38 2022
; FORMAT={-:-/ absolute / inch / decimal}
; #@! TF.CreationDate,2022-10-24T21:30:38-07:00
; #@! TF.GenerationSoftware,Kicad,Pcbnew,(6.0.1)
; #@! TF.FileFunction,Plated,1,2,PTH
FMAT,2
INCH
; #@! TA.AperFunction,Plated,PTH,ComponentDrill
T1C0.0138
; #@! TA.AperFunction,Plated,PTH,ViaDrill
T2C0.0157
; #@! TA.AperFunction,Plated,PTH,ComponentDrill
T3C0.0173
; #@! TA.AperFunction,Plated,PTH,ComponentDrill
T4C0.0315
; #@! TA.AperFunction,Plated,PTH,ComponentDrill
T5C0.0354
; #@! TA.AperFunction,Plated,PTH,ComponentDrill
T6C0.0374
; #@! TA.AperFunction,Plated,PTH,ComponentDrill
T7C0.0394
; #@! TA.AperFunction,Plated,PTH,ComponentDrill
T8C0.0433
; #@! TA.AperFunction,Plated,PTH,ComponentDrill
T9C0.0906
%
G90
G05
T2
X2.52Y-2.638
X2.8072Y-2.6397
X2.8091Y-2.8012
X3.284Y-2.728
X3.4409Y-2.6545
X3.4508Y-2.5492
X3.6673Y-2.2579
X3.878Y-2.2579
T3
X3.6417Y-2.0669
X3.6673Y-2.1063
X3.6929Y-2.0669
X3.7185Y-2.1063
X3.7441Y-2.0669
T4
X2.036Y-2.24
X2.036Y-2.64
X2.1341Y-2.5478
X2.14Y-2.384
X2.2341Y-2.5478
X2.3341Y-2.5478
X2.54Y-2.384
X2.752Y-2.16
X2.752Y-2.56
X2.8543Y-2.3783
X2.9051Y-2.0787
X2.9516Y-2.7008
X2.9524Y-2.8238
X2.9543Y-2.3783
X3.0539Y-2.2028
X3.0543Y-2.3783
X3.252Y-2.378
X3.3051Y-2.0787
X3.3516Y-2.7008
X3.352Y-2.378
X3.3524Y-2.8238
X3.452Y-2.378
X3.4539Y-2.2028
X3.6374Y-2.8238
X3.7209Y-2.6539
X3.8209Y-2.6539
X3.9209Y-2.6539
X4.0374Y-2.8238
X4.24Y-2.24
X4.24Y-2.64
T5
X2.4402Y-2.5492
X2.5402Y-2.5492
X3.1102Y-2.5492
X3.2102Y-2.5492
X3.9157Y-2.0768
X4.0157Y-2.0768
T6
X3.7047Y-2.3898
X3.8031Y-2.3898
X3.8819Y-2.3898
X3.9803Y-2.3898
T7
X2.32Y-2.728
X2.32Y-2.828
X2.42Y-2.728
X2.42Y-2.828
X2.52Y-2.728
X2.52Y-2.828
X2.62Y-2.728
X2.62Y-2.828
X2.72Y-2.728
X2.72Y-2.828
T8
X2.3622Y-2.0669
X2.3622Y-2.2441
X2.6181Y-2.0669
X2.6181Y-2.2441
T9
X3.5839Y-2.4965
X4.1012Y-2.4965
T1
G00X3.5522Y-2.0559
M15
G01X3.5522Y-2.0953
M16
G05
G00X3.8337Y-2.0559
M15
G01X3.8337Y-2.0953
M16
G05
T0
M30
