%TF.GenerationSoftware,KiCad,Pcbnew,(6.0.1)*%
%TF.CreationDate,2023-12-10T20:53:18-08:00*%
%TF.ProjectId,DuDad,44754461-642e-46b6-9963-61645f706362,1.4*%
%TF.SameCoordinates,Original*%
%TF.FileFunction,Copper,L2,Bot*%
%TF.FilePolarity,Positive*%
%FSLAX46Y46*%
G04 Gerber Fmt 4.6, Leading zero omitted, Abs format (unit mm)*
G04 Created by KiCad (PCBNEW (6.0.1)) date 2023-12-10 20:53:18*
%MOMM*%
%LPD*%
G01*
G04 APERTURE LIST*
%TA.AperFunction,ComponentPad*%
%ADD10R,0.840000X0.840000*%
%TD*%
%TA.AperFunction,ComponentPad*%
%ADD11C,0.840000*%
%TD*%
%TA.AperFunction,ComponentPad*%
%ADD12O,0.850000X1.850000*%
%TD*%
%TA.AperFunction,ComponentPad*%
%ADD13C,2.000000*%
%TD*%
%TA.AperFunction,ComponentPad*%
%ADD14R,1.800000X1.800000*%
%TD*%
%TA.AperFunction,ComponentPad*%
%ADD15C,1.800000*%
%TD*%
%TA.AperFunction,ComponentPad*%
%ADD16R,1.600000X1.500000*%
%TD*%
%TA.AperFunction,ComponentPad*%
%ADD17C,1.600000*%
%TD*%
%TA.AperFunction,ComponentPad*%
%ADD18C,3.000000*%
%TD*%
%TA.AperFunction,ComponentPad*%
%ADD19R,1.700000X1.700000*%
%TD*%
%TA.AperFunction,ComponentPad*%
%ADD20O,1.700000X1.700000*%
%TD*%
%TA.AperFunction,ComponentPad*%
%ADD21O,1.600000X1.600000*%
%TD*%
%TA.AperFunction,ComponentPad*%
%ADD22R,1.500000X1.500000*%
%TD*%
%TA.AperFunction,ComponentPad*%
%ADD23C,1.500000*%
%TD*%
%TA.AperFunction,ViaPad*%
%ADD24C,0.800000*%
%TD*%
%TA.AperFunction,Conductor*%
%ADD25C,0.250000*%
%TD*%
G04 APERTURE END LIST*
D10*
%TO.P,J2,1,VBUS*%
%TO.N,Net-(J2-Pad1)*%
X92500000Y-52500000D03*
D11*
%TO.P,J2,2,D-*%
%TO.N,Net-(J2-Pad2)*%
X93150000Y-53500000D03*
%TO.P,J2,3,D+*%
%TO.N,Net-(J2-Pad3)*%
X93800000Y-52500000D03*
%TO.P,J2,4,ID*%
%TO.N,unconnected-(J2-Pad4)*%
X94450000Y-53500000D03*
%TO.P,J2,5,GND*%
%TO.N,GND*%
X95100000Y-52500000D03*
D12*
%TO.P,J2,6,Shield*%
%TO.N,Net-(J2-Pad6)*%
X90225000Y-52720000D03*
X97375000Y-52720000D03*
%TD*%
D13*
%TO.P,SW1,1,1*%
%TO.N,Net-(J1-Pad1)*%
X66500000Y-52500000D03*
X60000000Y-52500000D03*
%TO.P,SW1,2,2*%
%TO.N,GND*%
X60000000Y-57000000D03*
X66500000Y-57000000D03*
%TD*%
D14*
%TO.P,D1,1,K*%
%TO.N,Net-(D1-Pad1)*%
X79000000Y-64750000D03*
D15*
%TO.P,D1,2,A*%
%TO.N,Net-(D1-Pad2)*%
X81540000Y-64750000D03*
%TD*%
D14*
%TO.P,D2,1,K*%
%TO.N,Net-(D2-Pad1)*%
X102000000Y-52750000D03*
D15*
%TO.P,D2,2,A*%
%TO.N,Net-(D2-Pad2)*%
X99460000Y-52750000D03*
%TD*%
D14*
%TO.P,D3,1,K*%
%TO.N,Net-(D3-Pad1)*%
X64520000Y-64750000D03*
D15*
%TO.P,D3,2,A*%
%TO.N,Net-(D3-Pad2)*%
X61980000Y-64750000D03*
%TD*%
D16*
%TO.P,J3,1,VBUS*%
%TO.N,Net-(D2-Pad2)*%
X101100000Y-60700000D03*
D17*
%TO.P,J3,2,D-*%
%TO.N,Net-(J2-Pad2)*%
X98600000Y-60700000D03*
%TO.P,J3,3,D+*%
%TO.N,Net-(J2-Pad3)*%
X96600000Y-60700000D03*
%TO.P,J3,4,GND*%
%TO.N,GND*%
X94100000Y-60700000D03*
D18*
%TO.P,J3,5,Shield*%
%TO.N,Net-(J2-Pad6)*%
X91030000Y-63410000D03*
X104170000Y-63410000D03*
%TD*%
D19*
%TO.P,J1,1,Pin_1*%
%TO.N,Net-(J1-Pad1)*%
X58928000Y-69291200D03*
D20*
%TO.P,J1,2,Pin_2*%
%TO.N,GND*%
X58928000Y-71831200D03*
%TO.P,J1,3,Pin_3*%
%TO.N,unconnected-(J1-Pad3)*%
X61468000Y-69291200D03*
%TO.P,J1,4,Pin_4*%
%TO.N,unconnected-(J1-Pad4)*%
X61468000Y-71831200D03*
%TO.P,J1,5,Pin_5*%
%TO.N,+12V*%
X64008000Y-69291200D03*
%TO.P,J1,6,Pin_6*%
%TO.N,unconnected-(J1-Pad6)*%
X64008000Y-71831200D03*
%TO.P,J1,7,Pin_7*%
%TO.N,Net-(J1-Pad7)*%
X66548000Y-69291200D03*
%TO.P,J1,8,Pin_8*%
%TO.N,GND*%
X66548000Y-71831200D03*
%TO.P,J1,9,Pin_9*%
%TO.N,+3V3*%
X69088000Y-69291200D03*
%TO.P,J1,10,Pin_10*%
%TO.N,Net-(J1-Pad10)*%
X69088000Y-71831200D03*
%TD*%
D17*
%TO.P,R1,1*%
%TO.N,GND*%
X69900000Y-54864000D03*
D21*
%TO.P,R1,2*%
%TO.N,Net-(D1-Pad1)*%
X69900000Y-65024000D03*
%TD*%
D17*
%TO.P,R2,1*%
%TO.N,Net-(J1-Pad7)*%
X74970000Y-68600000D03*
D21*
%TO.P,R2,2*%
%TO.N,Net-(Q1-Pad2)*%
X85130000Y-68600000D03*
%TD*%
D17*
%TO.P,R3,1*%
%TO.N,GND*%
X107696000Y-67056000D03*
D21*
%TO.P,R3,2*%
%TO.N,Net-(D2-Pad1)*%
X107696000Y-56896000D03*
%TD*%
D17*
%TO.P,R4,1*%
%TO.N,GND*%
X54356000Y-60553600D03*
D21*
%TO.P,R4,2*%
%TO.N,Net-(D3-Pad1)*%
X64516000Y-60553600D03*
%TD*%
D17*
%TO.P,R5,1*%
%TO.N,Net-(J1-Pad10)*%
X51714400Y-67056000D03*
D21*
%TO.P,R5,2*%
%TO.N,Net-(Q2-Pad2)*%
X51714400Y-56896000D03*
%TD*%
D22*
%TO.P,Q1,1,E*%
%TO.N,+3V3*%
X82600000Y-60400000D03*
D23*
%TO.P,Q1,2,B*%
%TO.N,Net-(Q1-Pad2)*%
X85140000Y-60400000D03*
%TO.P,Q1,3,C*%
%TO.N,Net-(D1-Pad2)*%
X87680000Y-60400000D03*
%TD*%
D22*
%TO.P,Q2,1,E*%
%TO.N,+3V3*%
X54306800Y-64715000D03*
D23*
%TO.P,Q2,2,B*%
%TO.N,Net-(Q2-Pad2)*%
X56846800Y-64715000D03*
%TO.P,Q2,3,C*%
%TO.N,Net-(D3-Pad2)*%
X59386800Y-64715000D03*
%TD*%
D17*
%TO.P,R6,1*%
%TO.N,GND*%
X83950000Y-52800000D03*
D21*
%TO.P,R6,2*%
%TO.N,Net-(Q3-Pad2)*%
X73790000Y-52800000D03*
%TD*%
D17*
%TO.P,R8,1*%
%TO.N,Net-(Q4-Pad2)*%
X102550000Y-71725000D03*
D21*
%TO.P,R8,2*%
%TO.N,Net-(J2-Pad1)*%
X92390000Y-71725000D03*
%TD*%
D17*
%TO.P,R9,1*%
%TO.N,Net-(Q3-Pad3)*%
X77570000Y-55950000D03*
D21*
%TO.P,R9,2*%
%TO.N,Net-(Q4-Pad2)*%
X87730000Y-55950000D03*
%TD*%
D17*
%TO.P,R7,1*%
%TO.N,Net-(Q3-Pad2)*%
X85150000Y-71725000D03*
D21*
%TO.P,R7,2*%
%TO.N,+12V*%
X74990000Y-71725000D03*
%TD*%
D22*
%TO.P,Q3,1,S*%
%TO.N,GND*%
X72500000Y-60410000D03*
D23*
%TO.P,Q3,2,G*%
%TO.N,Net-(Q3-Pad2)*%
X75040000Y-60410000D03*
%TO.P,Q3,3,D*%
%TO.N,Net-(Q3-Pad3)*%
X77580000Y-60410000D03*
%TD*%
D22*
%TO.P,Q4,1,E*%
%TO.N,Net-(J2-Pad1)*%
X94510000Y-67410000D03*
D23*
%TO.P,Q4,2,B*%
%TO.N,Net-(Q4-Pad2)*%
X97050000Y-67410000D03*
%TO.P,Q4,3,C*%
%TO.N,Net-(D2-Pad2)*%
X99590000Y-67410000D03*
%TD*%
D24*
%TO.N,Net-(J2-Pad2)*%
X93150000Y-57350000D03*
X98500000Y-57350000D03*
%TO.N,+12V*%
X71302201Y-67047799D03*
X64008000Y-67005200D03*
X71350000Y-71150000D03*
%TO.N,Net-(D1-Pad2)*%
X87650000Y-64750000D03*
%TO.N,+3V3*%
X83413600Y-69291200D03*
%TO.N,Net-(Q4-Pad2)*%
X87400000Y-67425000D03*
%TD*%
D25*
%TO.N,Net-(J2-Pad1)*%
X92500000Y-52500000D02*
X92405489Y-52594511D01*
X92405489Y-62205240D02*
X94510000Y-64309751D01*
X94510000Y-67410000D02*
X94510000Y-69605000D01*
X94510000Y-64309751D02*
X94510000Y-67410000D01*
X94510000Y-69605000D02*
X92390000Y-71725000D01*
X92405489Y-52594511D02*
X92405489Y-62205240D01*
%TO.N,Net-(J2-Pad2)*%
X93150000Y-53500000D02*
X93150000Y-57350000D01*
X98500000Y-60700000D02*
X98500000Y-57350000D01*
%TO.N,Net-(J2-Pad3)*%
X96500000Y-52847101D02*
X95407898Y-51754999D01*
X96500000Y-60700000D02*
X96500000Y-52847101D01*
X93800000Y-52500000D02*
X94545001Y-51754999D01*
X95407898Y-51754999D02*
X94545001Y-51754999D01*
%TO.N,Net-(J2-Pad6)*%
X90930000Y-53425000D02*
X90225000Y-52720000D01*
X90930000Y-63410000D02*
X90930000Y-53425000D01*
%TO.N,Net-(J1-Pad1)*%
X58312289Y-54187711D02*
X58312289Y-68675489D01*
X60000000Y-52500000D02*
X66500000Y-52500000D01*
X58312289Y-68675489D02*
X58928000Y-69291200D01*
X60000000Y-52500000D02*
X58312289Y-54187711D01*
%TO.N,+12V*%
X71350000Y-67095598D02*
X71302201Y-67047799D01*
X71350000Y-71150000D02*
X71350000Y-67095598D01*
X64008000Y-69291200D02*
X64008000Y-67005200D01*
%TO.N,Net-(D1-Pad2)*%
X87650000Y-64750000D02*
X87680000Y-64720000D01*
X87680000Y-64720000D02*
X87680000Y-60400000D01*
%TO.N,Net-(D2-Pad2)*%
X101000000Y-54290000D02*
X99460000Y-52750000D01*
X101100000Y-65900000D02*
X99590000Y-67410000D01*
X101100000Y-60700000D02*
X101100000Y-65900000D01*
X101000000Y-60700000D02*
X101000000Y-54290000D01*
%TO.N,Net-(D2-Pad1)*%
X103550000Y-52750000D02*
X107696000Y-56896000D01*
X102000000Y-52750000D02*
X103550000Y-52750000D01*
%TO.N,Net-(Q1-Pad2)*%
X85130000Y-60410000D02*
X85140000Y-60400000D01*
X85130000Y-68600000D02*
X85130000Y-60410000D01*
%TO.N,Net-(D3-Pad1)*%
X64516000Y-64746000D02*
X64520000Y-64750000D01*
X64516000Y-60553600D02*
X64516000Y-64746000D01*
%TO.N,Net-(J1-Pad10)*%
X69088000Y-71831200D02*
X67269210Y-73649990D01*
X51145590Y-73649990D02*
X50444400Y-72948800D01*
X50444400Y-68326000D02*
X51714400Y-67056000D01*
X50444400Y-72948800D02*
X50444400Y-68326000D01*
X67269210Y-73649990D02*
X51145590Y-73649990D01*
%TO.N,Net-(Q2-Pad2)*%
X56946800Y-60997030D02*
X56946800Y-64922400D01*
X52845770Y-56896000D02*
X56946800Y-60997030D01*
X51714400Y-56896000D02*
X52845770Y-56896000D01*
%TO.N,+3V3*%
X83413600Y-69291200D02*
X83413600Y-61213600D01*
X83413600Y-61213600D02*
X82600000Y-60400000D01*
%TO.N,Net-(Q3-Pad2)*%
X75040000Y-63239022D02*
X75040000Y-60410000D01*
X83525978Y-71725000D02*
X75040000Y-63239022D01*
X72925489Y-53664511D02*
X72925489Y-58295489D01*
X73790000Y-52800000D02*
X72925489Y-53664511D01*
X85150000Y-71725000D02*
X83525978Y-71725000D01*
X72925489Y-58295489D02*
X75040000Y-60410000D01*
%TO.N,Net-(Q3-Pad3)*%
X77570000Y-55950000D02*
X77570000Y-60400000D01*
X77570000Y-60400000D02*
X77580000Y-60410000D01*
%TO.N,Net-(Q4-Pad2)*%
X87400000Y-67425000D02*
X86605489Y-66630489D01*
X97050000Y-67410000D02*
X101365000Y-71725000D01*
X101365000Y-71725000D02*
X102550000Y-71725000D01*
X86605489Y-66630489D02*
X86605489Y-57074511D01*
X86605489Y-57074511D02*
X87730000Y-55950000D01*
%TD*%
M02*
