%TF.GenerationSoftware,KiCad,Pcbnew,(6.0.1)*%
%TF.CreationDate,2022-10-23T07:17:20-07:00*%
%TF.ProjectId,DuDad,44754461-642e-46b6-9963-61645f706362,1.3*%
%TF.SameCoordinates,Original*%
%TF.FileFunction,Legend,Bot*%
%TF.FilePolarity,Positive*%
%FSLAX46Y46*%
G04 Gerber Fmt 4.6, Leading zero omitted, Abs format (unit mm)*
G04 Created by KiCad (PCBNEW (6.0.1)) date 2022-10-23 07:17:20*
%MOMM*%
%LPD*%
G01*
G04 APERTURE LIST*
%ADD10C,0.800000*%
%ADD11C,0.120000*%
%ADD12C,0.150000*%
%ADD13C,0.300000*%
G04 APERTURE END LIST*
D10*
X57048400Y-67868800D02*
X57048400Y-73152000D01*
D11*
X83985714Y-67100000D02*
X84057142Y-67064285D01*
X84164285Y-67064285D01*
X84271428Y-67100000D01*
X84342857Y-67171428D01*
X84378571Y-67242857D01*
X84414285Y-67385714D01*
X84414285Y-67492857D01*
X84378571Y-67635714D01*
X84342857Y-67707142D01*
X84271428Y-67778571D01*
X84164285Y-67814285D01*
X84092857Y-67814285D01*
X83985714Y-67778571D01*
X83950000Y-67742857D01*
X83950000Y-67492857D01*
X84092857Y-67492857D01*
X83628571Y-67814285D02*
X83628571Y-67314285D01*
X83628571Y-67457142D02*
X83592857Y-67385714D01*
X83557142Y-67350000D01*
X83485714Y-67314285D01*
X83414285Y-67314285D01*
X82878571Y-67778571D02*
X82950000Y-67814285D01*
X83092857Y-67814285D01*
X83164285Y-67778571D01*
X83200000Y-67707142D01*
X83200000Y-67421428D01*
X83164285Y-67350000D01*
X83092857Y-67314285D01*
X82950000Y-67314285D01*
X82878571Y-67350000D01*
X82842857Y-67421428D01*
X82842857Y-67492857D01*
X83200000Y-67564285D01*
X82235714Y-67778571D02*
X82307142Y-67814285D01*
X82450000Y-67814285D01*
X82521428Y-67778571D01*
X82557142Y-67707142D01*
X82557142Y-67421428D01*
X82521428Y-67350000D01*
X82450000Y-67314285D01*
X82307142Y-67314285D01*
X82235714Y-67350000D01*
X82200000Y-67421428D01*
X82200000Y-67492857D01*
X82557142Y-67564285D01*
X81878571Y-67314285D02*
X81878571Y-67814285D01*
X81878571Y-67385714D02*
X81842857Y-67350000D01*
X81771428Y-67314285D01*
X81664285Y-67314285D01*
X81592857Y-67350000D01*
X81557142Y-67421428D01*
X81557142Y-67814285D01*
X81307142Y-67314285D02*
X81021428Y-67314285D01*
X81200000Y-67814285D02*
X81200000Y-67171428D01*
X81164285Y-67100000D01*
X81092857Y-67064285D01*
X81021428Y-67064285D01*
X80450000Y-67814285D02*
X80450000Y-67421428D01*
X80485714Y-67350000D01*
X80557142Y-67314285D01*
X80700000Y-67314285D01*
X80771428Y-67350000D01*
X80450000Y-67778571D02*
X80521428Y-67814285D01*
X80700000Y-67814285D01*
X80771428Y-67778571D01*
X80807142Y-67707142D01*
X80807142Y-67635714D01*
X80771428Y-67564285D01*
X80700000Y-67528571D01*
X80521428Y-67528571D01*
X80450000Y-67492857D01*
X79771428Y-67778571D02*
X79842857Y-67814285D01*
X79985714Y-67814285D01*
X80057142Y-67778571D01*
X80092857Y-67742857D01*
X80128571Y-67671428D01*
X80128571Y-67457142D01*
X80092857Y-67385714D01*
X80057142Y-67350000D01*
X79985714Y-67314285D01*
X79842857Y-67314285D01*
X79771428Y-67350000D01*
X79164285Y-67778571D02*
X79235714Y-67814285D01*
X79378571Y-67814285D01*
X79450000Y-67778571D01*
X79485714Y-67707142D01*
X79485714Y-67421428D01*
X79450000Y-67350000D01*
X79378571Y-67314285D01*
X79235714Y-67314285D01*
X79164285Y-67350000D01*
X79128571Y-67421428D01*
X79128571Y-67492857D01*
X79485714Y-67564285D01*
X77878571Y-67814285D02*
X78235714Y-67814285D01*
X78235714Y-67064285D01*
X77307142Y-67814285D02*
X77307142Y-67421428D01*
X77342857Y-67350000D01*
X77414285Y-67314285D01*
X77557142Y-67314285D01*
X77628571Y-67350000D01*
X77307142Y-67778571D02*
X77378571Y-67814285D01*
X77557142Y-67814285D01*
X77628571Y-67778571D01*
X77664285Y-67707142D01*
X77664285Y-67635714D01*
X77628571Y-67564285D01*
X77557142Y-67528571D01*
X77378571Y-67528571D01*
X77307142Y-67492857D01*
X76950000Y-67814285D02*
X76950000Y-67064285D01*
X76950000Y-67350000D02*
X76878571Y-67314285D01*
X76735714Y-67314285D01*
X76664285Y-67350000D01*
X76628571Y-67385714D01*
X76592857Y-67457142D01*
X76592857Y-67671428D01*
X76628571Y-67742857D01*
X76664285Y-67778571D01*
X76735714Y-67814285D01*
X76878571Y-67814285D01*
X76950000Y-67778571D01*
X76307142Y-67778571D02*
X76235714Y-67814285D01*
X76092857Y-67814285D01*
X76021428Y-67778571D01*
X75985714Y-67707142D01*
X75985714Y-67671428D01*
X76021428Y-67600000D01*
X76092857Y-67564285D01*
X76200000Y-67564285D01*
X76271428Y-67528571D01*
X76307142Y-67457142D01*
X76307142Y-67421428D01*
X76271428Y-67350000D01*
X76200000Y-67314285D01*
X76092857Y-67314285D01*
X76021428Y-67350000D01*
D12*
X58591485Y-67559180D02*
X59162914Y-67559180D01*
X58877200Y-67559180D02*
X58877200Y-66559180D01*
X58972438Y-66702038D01*
X59067676Y-66797276D01*
X59162914Y-66844895D01*
D13*
X83153571Y-70396071D02*
X83153571Y-68896071D01*
X82796428Y-68896071D01*
X82582142Y-68967500D01*
X82439285Y-69110357D01*
X82367857Y-69253214D01*
X82296428Y-69538928D01*
X82296428Y-69753214D01*
X82367857Y-70038928D01*
X82439285Y-70181785D01*
X82582142Y-70324642D01*
X82796428Y-70396071D01*
X83153571Y-70396071D01*
X81010714Y-69396071D02*
X81010714Y-70396071D01*
X81653571Y-69396071D02*
X81653571Y-70181785D01*
X81582142Y-70324642D01*
X81439285Y-70396071D01*
X81225000Y-70396071D01*
X81082142Y-70324642D01*
X81010714Y-70253214D01*
X80296428Y-70396071D02*
X80296428Y-68896071D01*
X79939285Y-68896071D01*
X79725000Y-68967500D01*
X79582142Y-69110357D01*
X79510714Y-69253214D01*
X79439285Y-69538928D01*
X79439285Y-69753214D01*
X79510714Y-70038928D01*
X79582142Y-70181785D01*
X79725000Y-70324642D01*
X79939285Y-70396071D01*
X80296428Y-70396071D01*
X78153571Y-70396071D02*
X78153571Y-69610357D01*
X78225000Y-69467500D01*
X78367857Y-69396071D01*
X78653571Y-69396071D01*
X78796428Y-69467500D01*
X78153571Y-70324642D02*
X78296428Y-70396071D01*
X78653571Y-70396071D01*
X78796428Y-70324642D01*
X78867857Y-70181785D01*
X78867857Y-70038928D01*
X78796428Y-69896071D01*
X78653571Y-69824642D01*
X78296428Y-69824642D01*
X78153571Y-69753214D01*
X76796428Y-70396071D02*
X76796428Y-68896071D01*
X76796428Y-70324642D02*
X76939285Y-70396071D01*
X77225000Y-70396071D01*
X77367857Y-70324642D01*
X77439285Y-70253214D01*
X77510714Y-70110357D01*
X77510714Y-69681785D01*
X77439285Y-69538928D01*
X77367857Y-69467500D01*
X77225000Y-69396071D01*
X76939285Y-69396071D01*
X76796428Y-69467500D01*
X82689285Y-71811071D02*
X82332142Y-72811071D01*
X81975000Y-71811071D01*
X79475000Y-72811071D02*
X80332142Y-72811071D01*
X79903571Y-72811071D02*
X79903571Y-71311071D01*
X80046428Y-71525357D01*
X80189285Y-71668214D01*
X80332142Y-71739642D01*
X78832142Y-72668214D02*
X78760714Y-72739642D01*
X78832142Y-72811071D01*
X78903571Y-72739642D01*
X78832142Y-72668214D01*
X78832142Y-72811071D01*
X78260714Y-71311071D02*
X77332142Y-71311071D01*
X77832142Y-71882500D01*
X77617857Y-71882500D01*
X77475000Y-71953928D01*
X77403571Y-72025357D01*
X77332142Y-72168214D01*
X77332142Y-72525357D01*
X77403571Y-72668214D01*
X77475000Y-72739642D01*
X77617857Y-72811071D01*
X78046428Y-72811071D01*
X78189285Y-72739642D01*
X78260714Y-72668214D01*
D12*
%TO.C,J3*%
X97933333Y-56962380D02*
X97933333Y-57676666D01*
X97980952Y-57819523D01*
X98076190Y-57914761D01*
X98219047Y-57962380D01*
X98314285Y-57962380D01*
X97552380Y-56962380D02*
X96933333Y-56962380D01*
X97266666Y-57343333D01*
X97123809Y-57343333D01*
X97028571Y-57390952D01*
X96980952Y-57438571D01*
X96933333Y-57533809D01*
X96933333Y-57771904D01*
X96980952Y-57867142D01*
X97028571Y-57914761D01*
X97123809Y-57962380D01*
X97409523Y-57962380D01*
X97504761Y-57914761D01*
X97552380Y-57867142D01*
%TO.C,J1*%
X70488133Y-66559180D02*
X70488133Y-67273466D01*
X70535752Y-67416323D01*
X70630990Y-67511561D01*
X70773847Y-67559180D01*
X70869085Y-67559180D01*
X69488133Y-67559180D02*
X70059561Y-67559180D01*
X69773847Y-67559180D02*
X69773847Y-66559180D01*
X69869085Y-66702038D01*
X69964323Y-66797276D01*
X70059561Y-66844895D01*
%TO.C,Q1*%
X85220238Y-58222619D02*
X85315476Y-58175000D01*
X85410714Y-58079761D01*
X85553571Y-57936904D01*
X85648809Y-57889285D01*
X85744047Y-57889285D01*
X85696428Y-58127380D02*
X85791666Y-58079761D01*
X85886904Y-57984523D01*
X85934523Y-57794047D01*
X85934523Y-57460714D01*
X85886904Y-57270238D01*
X85791666Y-57175000D01*
X85696428Y-57127380D01*
X85505952Y-57127380D01*
X85410714Y-57175000D01*
X85315476Y-57270238D01*
X85267857Y-57460714D01*
X85267857Y-57794047D01*
X85315476Y-57984523D01*
X85410714Y-58079761D01*
X85505952Y-58127380D01*
X85696428Y-58127380D01*
X84315476Y-58127380D02*
X84886904Y-58127380D01*
X84601190Y-58127380D02*
X84601190Y-57127380D01*
X84696428Y-57270238D01*
X84791666Y-57365476D01*
X84886904Y-57413095D01*
%TO.C,Q2*%
X56920238Y-62572619D02*
X57015476Y-62525000D01*
X57110714Y-62429761D01*
X57253571Y-62286904D01*
X57348809Y-62239285D01*
X57444047Y-62239285D01*
X57396428Y-62477380D02*
X57491666Y-62429761D01*
X57586904Y-62334523D01*
X57634523Y-62144047D01*
X57634523Y-61810714D01*
X57586904Y-61620238D01*
X57491666Y-61525000D01*
X57396428Y-61477380D01*
X57205952Y-61477380D01*
X57110714Y-61525000D01*
X57015476Y-61620238D01*
X56967857Y-61810714D01*
X56967857Y-62144047D01*
X57015476Y-62334523D01*
X57110714Y-62429761D01*
X57205952Y-62477380D01*
X57396428Y-62477380D01*
X56586904Y-61572619D02*
X56539285Y-61525000D01*
X56444047Y-61477380D01*
X56205952Y-61477380D01*
X56110714Y-61525000D01*
X56063095Y-61572619D01*
X56015476Y-61667857D01*
X56015476Y-61763095D01*
X56063095Y-61905952D01*
X56634523Y-62477380D01*
X56015476Y-62477380D01*
%TO.C,Q3*%
X75170238Y-58247619D02*
X75265476Y-58200000D01*
X75360714Y-58104761D01*
X75503571Y-57961904D01*
X75598809Y-57914285D01*
X75694047Y-57914285D01*
X75646428Y-58152380D02*
X75741666Y-58104761D01*
X75836904Y-58009523D01*
X75884523Y-57819047D01*
X75884523Y-57485714D01*
X75836904Y-57295238D01*
X75741666Y-57200000D01*
X75646428Y-57152380D01*
X75455952Y-57152380D01*
X75360714Y-57200000D01*
X75265476Y-57295238D01*
X75217857Y-57485714D01*
X75217857Y-57819047D01*
X75265476Y-58009523D01*
X75360714Y-58104761D01*
X75455952Y-58152380D01*
X75646428Y-58152380D01*
X74884523Y-57152380D02*
X74265476Y-57152380D01*
X74598809Y-57533333D01*
X74455952Y-57533333D01*
X74360714Y-57580952D01*
X74313095Y-57628571D01*
X74265476Y-57723809D01*
X74265476Y-57961904D01*
X74313095Y-58057142D01*
X74360714Y-58104761D01*
X74455952Y-58152380D01*
X74741666Y-58152380D01*
X74836904Y-58104761D01*
X74884523Y-58057142D01*
%TO.C,Q4*%
X101745238Y-67417619D02*
X101840476Y-67370000D01*
X101935714Y-67274761D01*
X102078571Y-67131904D01*
X102173809Y-67084285D01*
X102269047Y-67084285D01*
X102221428Y-67322380D02*
X102316666Y-67274761D01*
X102411904Y-67179523D01*
X102459523Y-66989047D01*
X102459523Y-66655714D01*
X102411904Y-66465238D01*
X102316666Y-66370000D01*
X102221428Y-66322380D01*
X102030952Y-66322380D01*
X101935714Y-66370000D01*
X101840476Y-66465238D01*
X101792857Y-66655714D01*
X101792857Y-66989047D01*
X101840476Y-67179523D01*
X101935714Y-67274761D01*
X102030952Y-67322380D01*
X102221428Y-67322380D01*
X100935714Y-66655714D02*
X100935714Y-67322380D01*
X101173809Y-66274761D02*
X101411904Y-66989047D01*
X100792857Y-66989047D01*
D11*
%TO.C,J3*%
X104220000Y-65200000D02*
X90900000Y-65200000D01*
X104260000Y-58320000D02*
X104260000Y-61650000D01*
X90940000Y-58320000D02*
X90940000Y-61650000D01*
X104260000Y-58320000D02*
X90940000Y-58320000D01*
X102000000Y-58100000D02*
X100200000Y-58100000D01*
%TO.C,J1*%
X57598000Y-67961200D02*
X57598000Y-69291200D01*
X60198000Y-67961200D02*
X60198000Y-70561200D01*
X57598000Y-70561200D02*
X57598000Y-73161200D01*
X70418000Y-67961200D02*
X70418000Y-73161200D01*
X57598000Y-73161200D02*
X70418000Y-73161200D01*
X60198000Y-67961200D02*
X70418000Y-67961200D01*
X58928000Y-67961200D02*
X57598000Y-67961200D01*
X60198000Y-70561200D02*
X57598000Y-70561200D01*
%TO.C,Q1*%
X83340000Y-58550000D02*
X86940000Y-58550000D01*
X82783600Y-61498807D02*
G75*
G03*
X85140000Y-63000000I2356402J1098809D01*
G01*
X87464184Y-59277205D02*
G75*
G03*
X86940000Y-58550000I-2324175J-1122789D01*
G01*
X83340000Y-58550000D02*
G75*
G03*
X82815816Y-59277205I1799991J-1849994D01*
G01*
X85140000Y-63000000D02*
G75*
G03*
X87496400Y-61498807I1J2599997D01*
G01*
%TO.C,Q2*%
X54946800Y-62865000D02*
X58546800Y-62865000D01*
X54390400Y-65813807D02*
G75*
G03*
X56746800Y-67315000I2356402J1098809D01*
G01*
X54946800Y-62865000D02*
G75*
G03*
X54422616Y-63592205I1799991J-1849994D01*
G01*
X56746800Y-67315000D02*
G75*
G03*
X59103200Y-65813807I1J2599997D01*
G01*
X59070984Y-63592205D02*
G75*
G03*
X58546800Y-62865000I-2324175J-1122789D01*
G01*
%TO.C,Q3*%
X73240000Y-58560000D02*
X76840000Y-58560000D01*
X75040000Y-63010000D02*
G75*
G03*
X77396400Y-61508807I1J2599997D01*
G01*
X72683600Y-61508807D02*
G75*
G03*
X75040000Y-63010000I2356402J1098809D01*
G01*
X73240000Y-58560000D02*
G75*
G03*
X72715816Y-59287205I1799991J-1849994D01*
G01*
X77364184Y-59287205D02*
G75*
G03*
X76840000Y-58560000I-2324175J-1122789D01*
G01*
%TO.C,Q4*%
X95250000Y-65560000D02*
X98850000Y-65560000D01*
X97050000Y-70010000D02*
G75*
G03*
X99406400Y-68508807I1J2599997D01*
G01*
X94693600Y-68508807D02*
G75*
G03*
X97050000Y-70010000I2356402J1098809D01*
G01*
X95250000Y-65560000D02*
G75*
G03*
X94725816Y-66287205I1799991J-1849994D01*
G01*
X99374184Y-66287205D02*
G75*
G03*
X98850000Y-65560000I-2324175J-1122789D01*
G01*
%TD*%
M02*
