G04 #@! TF.GenerationSoftware,KiCad,Pcbnew,(6.0.1)*
G04 #@! TF.CreationDate,2023-10-17T13:43:02-07:00*
G04 #@! TF.ProjectId,SpankulatorPanel,5370616e-6b75-46c6-9174-6f7250616e65,rev?*
G04 #@! TF.SameCoordinates,Original*
G04 #@! TF.FileFunction,Legend,Bot*
G04 #@! TF.FilePolarity,Positive*
%FSLAX46Y46*%
G04 Gerber Fmt 4.6, Leading zero omitted, Abs format (unit mm)*
G04 Created by KiCad (PCBNEW (6.0.1)) date 2023-10-17 13:43:02*
%MOMM*%
%LPD*%
G01*
G04 APERTURE LIST*
%ADD10C,0.250000*%
G04 APERTURE END LIST*
D10*
X93321428Y-159792500D02*
X93464285Y-159721071D01*
X93678571Y-159721071D01*
X93892857Y-159792500D01*
X94035714Y-159935357D01*
X94107142Y-160078214D01*
X94178571Y-160363928D01*
X94178571Y-160578214D01*
X94107142Y-160863928D01*
X94035714Y-161006785D01*
X93892857Y-161149642D01*
X93678571Y-161221071D01*
X93535714Y-161221071D01*
X93321428Y-161149642D01*
X93250000Y-161078214D01*
X93250000Y-160578214D01*
X93535714Y-160578214D01*
X92607142Y-161221071D02*
X92607142Y-160221071D01*
X92607142Y-160506785D02*
X92535714Y-160363928D01*
X92464285Y-160292500D01*
X92321428Y-160221071D01*
X92178571Y-160221071D01*
X91107142Y-161149642D02*
X91250000Y-161221071D01*
X91535714Y-161221071D01*
X91678571Y-161149642D01*
X91750000Y-161006785D01*
X91750000Y-160435357D01*
X91678571Y-160292500D01*
X91535714Y-160221071D01*
X91250000Y-160221071D01*
X91107142Y-160292500D01*
X91035714Y-160435357D01*
X91035714Y-160578214D01*
X91750000Y-160721071D01*
X89821428Y-161149642D02*
X89964285Y-161221071D01*
X90250000Y-161221071D01*
X90392857Y-161149642D01*
X90464285Y-161006785D01*
X90464285Y-160435357D01*
X90392857Y-160292500D01*
X90250000Y-160221071D01*
X89964285Y-160221071D01*
X89821428Y-160292500D01*
X89750000Y-160435357D01*
X89750000Y-160578214D01*
X90464285Y-160721071D01*
X89107142Y-160221071D02*
X89107142Y-161221071D01*
X89107142Y-160363928D02*
X89035714Y-160292500D01*
X88892857Y-160221071D01*
X88678571Y-160221071D01*
X88535714Y-160292500D01*
X88464285Y-160435357D01*
X88464285Y-161221071D01*
X87964285Y-160221071D02*
X87392857Y-160221071D01*
X87750000Y-161221071D02*
X87750000Y-159935357D01*
X87678571Y-159792500D01*
X87535714Y-159721071D01*
X87392857Y-159721071D01*
X86250000Y-161221071D02*
X86250000Y-160435357D01*
X86321428Y-160292500D01*
X86464285Y-160221071D01*
X86750000Y-160221071D01*
X86892857Y-160292500D01*
X86250000Y-161149642D02*
X86392857Y-161221071D01*
X86750000Y-161221071D01*
X86892857Y-161149642D01*
X86964285Y-161006785D01*
X86964285Y-160863928D01*
X86892857Y-160721071D01*
X86750000Y-160649642D01*
X86392857Y-160649642D01*
X86250000Y-160578214D01*
X84892857Y-161149642D02*
X85035714Y-161221071D01*
X85321428Y-161221071D01*
X85464285Y-161149642D01*
X85535714Y-161078214D01*
X85607142Y-160935357D01*
X85607142Y-160506785D01*
X85535714Y-160363928D01*
X85464285Y-160292500D01*
X85321428Y-160221071D01*
X85035714Y-160221071D01*
X84892857Y-160292500D01*
X83678571Y-161149642D02*
X83821428Y-161221071D01*
X84107142Y-161221071D01*
X84250000Y-161149642D01*
X84321428Y-161006785D01*
X84321428Y-160435357D01*
X84250000Y-160292500D01*
X84107142Y-160221071D01*
X83821428Y-160221071D01*
X83678571Y-160292500D01*
X83607142Y-160435357D01*
X83607142Y-160578214D01*
X84321428Y-160721071D01*
X81107142Y-161221071D02*
X81821428Y-161221071D01*
X81821428Y-159721071D01*
X79964285Y-161221071D02*
X79964285Y-160435357D01*
X80035714Y-160292500D01*
X80178571Y-160221071D01*
X80464285Y-160221071D01*
X80607142Y-160292500D01*
X79964285Y-161149642D02*
X80107142Y-161221071D01*
X80464285Y-161221071D01*
X80607142Y-161149642D01*
X80678571Y-161006785D01*
X80678571Y-160863928D01*
X80607142Y-160721071D01*
X80464285Y-160649642D01*
X80107142Y-160649642D01*
X79964285Y-160578214D01*
X79250000Y-161221071D02*
X79250000Y-159721071D01*
X79250000Y-160292500D02*
X79107142Y-160221071D01*
X78821428Y-160221071D01*
X78678571Y-160292500D01*
X78607142Y-160363928D01*
X78535714Y-160506785D01*
X78535714Y-160935357D01*
X78607142Y-161078214D01*
X78678571Y-161149642D01*
X78821428Y-161221071D01*
X79107142Y-161221071D01*
X79250000Y-161149642D01*
X77964285Y-161149642D02*
X77821428Y-161221071D01*
X77535714Y-161221071D01*
X77392857Y-161149642D01*
X77321428Y-161006785D01*
X77321428Y-160935357D01*
X77392857Y-160792500D01*
X77535714Y-160721071D01*
X77750000Y-160721071D01*
X77892857Y-160649642D01*
X77964285Y-160506785D01*
X77964285Y-160435357D01*
X77892857Y-160292500D01*
X77750000Y-160221071D01*
X77535714Y-160221071D01*
X77392857Y-160292500D01*
X95750000Y-162136071D02*
X95750000Y-162421785D01*
X95178571Y-162136071D02*
X95178571Y-162421785D01*
X94750000Y-162136071D02*
X93892857Y-162136071D01*
X94321428Y-163636071D02*
X94321428Y-162136071D01*
X93392857Y-163636071D02*
X93392857Y-162136071D01*
X92750000Y-163636071D02*
X92750000Y-162850357D01*
X92821428Y-162707500D01*
X92964285Y-162636071D01*
X93178571Y-162636071D01*
X93321428Y-162707500D01*
X93392857Y-162778928D01*
X91464285Y-163564642D02*
X91607142Y-163636071D01*
X91892857Y-163636071D01*
X92035714Y-163564642D01*
X92107142Y-163421785D01*
X92107142Y-162850357D01*
X92035714Y-162707500D01*
X91892857Y-162636071D01*
X91607142Y-162636071D01*
X91464285Y-162707500D01*
X91392857Y-162850357D01*
X91392857Y-162993214D01*
X92107142Y-163136071D01*
X89678571Y-163564642D02*
X89464285Y-163636071D01*
X89107142Y-163636071D01*
X88964285Y-163564642D01*
X88892857Y-163493214D01*
X88821428Y-163350357D01*
X88821428Y-163207500D01*
X88892857Y-163064642D01*
X88964285Y-162993214D01*
X89107142Y-162921785D01*
X89392857Y-162850357D01*
X89535714Y-162778928D01*
X89607142Y-162707500D01*
X89678571Y-162564642D01*
X89678571Y-162421785D01*
X89607142Y-162278928D01*
X89535714Y-162207500D01*
X89392857Y-162136071D01*
X89035714Y-162136071D01*
X88821428Y-162207500D01*
X88178571Y-162636071D02*
X88178571Y-164136071D01*
X88178571Y-162707500D02*
X88035714Y-162636071D01*
X87750000Y-162636071D01*
X87607142Y-162707500D01*
X87535714Y-162778928D01*
X87464285Y-162921785D01*
X87464285Y-163350357D01*
X87535714Y-163493214D01*
X87607142Y-163564642D01*
X87750000Y-163636071D01*
X88035714Y-163636071D01*
X88178571Y-163564642D01*
X86178571Y-163636071D02*
X86178571Y-162850357D01*
X86250000Y-162707500D01*
X86392857Y-162636071D01*
X86678571Y-162636071D01*
X86821428Y-162707500D01*
X86178571Y-163564642D02*
X86321428Y-163636071D01*
X86678571Y-163636071D01*
X86821428Y-163564642D01*
X86892857Y-163421785D01*
X86892857Y-163278928D01*
X86821428Y-163136071D01*
X86678571Y-163064642D01*
X86321428Y-163064642D01*
X86178571Y-162993214D01*
X85464285Y-162636071D02*
X85464285Y-163636071D01*
X85464285Y-162778928D02*
X85392857Y-162707500D01*
X85250000Y-162636071D01*
X85035714Y-162636071D01*
X84892857Y-162707500D01*
X84821428Y-162850357D01*
X84821428Y-163636071D01*
X84107142Y-163636071D02*
X84107142Y-162136071D01*
X83964285Y-163064642D02*
X83535714Y-163636071D01*
X83535714Y-162636071D02*
X84107142Y-163207500D01*
X82250000Y-162636071D02*
X82250000Y-163636071D01*
X82892857Y-162636071D02*
X82892857Y-163421785D01*
X82821428Y-163564642D01*
X82678571Y-163636071D01*
X82464285Y-163636071D01*
X82321428Y-163564642D01*
X82250000Y-163493214D01*
X81321428Y-163636071D02*
X81464285Y-163564642D01*
X81535714Y-163421785D01*
X81535714Y-162136071D01*
X80107142Y-163636071D02*
X80107142Y-162850357D01*
X80178571Y-162707500D01*
X80321428Y-162636071D01*
X80607142Y-162636071D01*
X80750000Y-162707500D01*
X80107142Y-163564642D02*
X80250000Y-163636071D01*
X80607142Y-163636071D01*
X80750000Y-163564642D01*
X80821428Y-163421785D01*
X80821428Y-163278928D01*
X80750000Y-163136071D01*
X80607142Y-163064642D01*
X80250000Y-163064642D01*
X80107142Y-162993214D01*
X79607142Y-162636071D02*
X79035714Y-162636071D01*
X79392857Y-162136071D02*
X79392857Y-163421785D01*
X79321428Y-163564642D01*
X79178571Y-163636071D01*
X79035714Y-163636071D01*
X78321428Y-163636071D02*
X78464285Y-163564642D01*
X78535714Y-163493214D01*
X78607142Y-163350357D01*
X78607142Y-162921785D01*
X78535714Y-162778928D01*
X78464285Y-162707500D01*
X78321428Y-162636071D01*
X78107142Y-162636071D01*
X77964285Y-162707500D01*
X77892857Y-162778928D01*
X77821428Y-162921785D01*
X77821428Y-163350357D01*
X77892857Y-163493214D01*
X77964285Y-163564642D01*
X78107142Y-163636071D01*
X78321428Y-163636071D01*
X77178571Y-163636071D02*
X77178571Y-162636071D01*
X77178571Y-162921785D02*
X77107142Y-162778928D01*
X77035714Y-162707500D01*
X76892857Y-162636071D01*
X76750000Y-162636071D01*
X76321428Y-162136071D02*
X76321428Y-162421785D01*
X75750000Y-162136071D02*
X75750000Y-162421785D01*
M02*
