G04 #@! TF.GenerationSoftware,KiCad,Pcbnew,(6.0.1)*
G04 #@! TF.CreationDate,2022-10-29T06:40:01-07:00*
G04 #@! TF.ProjectId,SpankulatorPanel,5370616e-6b75-46c6-9174-6f7250616e65,rev?*
G04 #@! TF.SameCoordinates,Original*
G04 #@! TF.FileFunction,Legend,Bot*
G04 #@! TF.FilePolarity,Positive*
%FSLAX46Y46*%
G04 Gerber Fmt 4.6, Leading zero omitted, Abs format (unit mm)*
G04 Created by KiCad (PCBNEW (6.0.1)) date 2022-10-29 06:40:01*
%MOMM*%
%LPD*%
G01*
G04 APERTURE LIST*
%ADD10C,0.250000*%
G04 APERTURE END LIST*
D10*
X93321428Y-158585000D02*
X93464285Y-158513571D01*
X93678571Y-158513571D01*
X93892857Y-158585000D01*
X94035714Y-158727857D01*
X94107142Y-158870714D01*
X94178571Y-159156428D01*
X94178571Y-159370714D01*
X94107142Y-159656428D01*
X94035714Y-159799285D01*
X93892857Y-159942142D01*
X93678571Y-160013571D01*
X93535714Y-160013571D01*
X93321428Y-159942142D01*
X93250000Y-159870714D01*
X93250000Y-159370714D01*
X93535714Y-159370714D01*
X92607142Y-160013571D02*
X92607142Y-159013571D01*
X92607142Y-159299285D02*
X92535714Y-159156428D01*
X92464285Y-159085000D01*
X92321428Y-159013571D01*
X92178571Y-159013571D01*
X91107142Y-159942142D02*
X91250000Y-160013571D01*
X91535714Y-160013571D01*
X91678571Y-159942142D01*
X91750000Y-159799285D01*
X91750000Y-159227857D01*
X91678571Y-159085000D01*
X91535714Y-159013571D01*
X91250000Y-159013571D01*
X91107142Y-159085000D01*
X91035714Y-159227857D01*
X91035714Y-159370714D01*
X91750000Y-159513571D01*
X89821428Y-159942142D02*
X89964285Y-160013571D01*
X90250000Y-160013571D01*
X90392857Y-159942142D01*
X90464285Y-159799285D01*
X90464285Y-159227857D01*
X90392857Y-159085000D01*
X90250000Y-159013571D01*
X89964285Y-159013571D01*
X89821428Y-159085000D01*
X89750000Y-159227857D01*
X89750000Y-159370714D01*
X90464285Y-159513571D01*
X89107142Y-159013571D02*
X89107142Y-160013571D01*
X89107142Y-159156428D02*
X89035714Y-159085000D01*
X88892857Y-159013571D01*
X88678571Y-159013571D01*
X88535714Y-159085000D01*
X88464285Y-159227857D01*
X88464285Y-160013571D01*
X87964285Y-159013571D02*
X87392857Y-159013571D01*
X87750000Y-160013571D02*
X87750000Y-158727857D01*
X87678571Y-158585000D01*
X87535714Y-158513571D01*
X87392857Y-158513571D01*
X86250000Y-160013571D02*
X86250000Y-159227857D01*
X86321428Y-159085000D01*
X86464285Y-159013571D01*
X86750000Y-159013571D01*
X86892857Y-159085000D01*
X86250000Y-159942142D02*
X86392857Y-160013571D01*
X86750000Y-160013571D01*
X86892857Y-159942142D01*
X86964285Y-159799285D01*
X86964285Y-159656428D01*
X86892857Y-159513571D01*
X86750000Y-159442142D01*
X86392857Y-159442142D01*
X86250000Y-159370714D01*
X84892857Y-159942142D02*
X85035714Y-160013571D01*
X85321428Y-160013571D01*
X85464285Y-159942142D01*
X85535714Y-159870714D01*
X85607142Y-159727857D01*
X85607142Y-159299285D01*
X85535714Y-159156428D01*
X85464285Y-159085000D01*
X85321428Y-159013571D01*
X85035714Y-159013571D01*
X84892857Y-159085000D01*
X83678571Y-159942142D02*
X83821428Y-160013571D01*
X84107142Y-160013571D01*
X84250000Y-159942142D01*
X84321428Y-159799285D01*
X84321428Y-159227857D01*
X84250000Y-159085000D01*
X84107142Y-159013571D01*
X83821428Y-159013571D01*
X83678571Y-159085000D01*
X83607142Y-159227857D01*
X83607142Y-159370714D01*
X84321428Y-159513571D01*
X81107142Y-160013571D02*
X81821428Y-160013571D01*
X81821428Y-158513571D01*
X79964285Y-160013571D02*
X79964285Y-159227857D01*
X80035714Y-159085000D01*
X80178571Y-159013571D01*
X80464285Y-159013571D01*
X80607142Y-159085000D01*
X79964285Y-159942142D02*
X80107142Y-160013571D01*
X80464285Y-160013571D01*
X80607142Y-159942142D01*
X80678571Y-159799285D01*
X80678571Y-159656428D01*
X80607142Y-159513571D01*
X80464285Y-159442142D01*
X80107142Y-159442142D01*
X79964285Y-159370714D01*
X79250000Y-160013571D02*
X79250000Y-158513571D01*
X79250000Y-159085000D02*
X79107142Y-159013571D01*
X78821428Y-159013571D01*
X78678571Y-159085000D01*
X78607142Y-159156428D01*
X78535714Y-159299285D01*
X78535714Y-159727857D01*
X78607142Y-159870714D01*
X78678571Y-159942142D01*
X78821428Y-160013571D01*
X79107142Y-160013571D01*
X79250000Y-159942142D01*
X77964285Y-159942142D02*
X77821428Y-160013571D01*
X77535714Y-160013571D01*
X77392857Y-159942142D01*
X77321428Y-159799285D01*
X77321428Y-159727857D01*
X77392857Y-159585000D01*
X77535714Y-159513571D01*
X77750000Y-159513571D01*
X77892857Y-159442142D01*
X77964285Y-159299285D01*
X77964285Y-159227857D01*
X77892857Y-159085000D01*
X77750000Y-159013571D01*
X77535714Y-159013571D01*
X77392857Y-159085000D01*
X95750000Y-160928571D02*
X95750000Y-161214285D01*
X95178571Y-160928571D02*
X95178571Y-161214285D01*
X94750000Y-160928571D02*
X93892857Y-160928571D01*
X94321428Y-162428571D02*
X94321428Y-160928571D01*
X93392857Y-162428571D02*
X93392857Y-160928571D01*
X92750000Y-162428571D02*
X92750000Y-161642857D01*
X92821428Y-161500000D01*
X92964285Y-161428571D01*
X93178571Y-161428571D01*
X93321428Y-161500000D01*
X93392857Y-161571428D01*
X91464285Y-162357142D02*
X91607142Y-162428571D01*
X91892857Y-162428571D01*
X92035714Y-162357142D01*
X92107142Y-162214285D01*
X92107142Y-161642857D01*
X92035714Y-161500000D01*
X91892857Y-161428571D01*
X91607142Y-161428571D01*
X91464285Y-161500000D01*
X91392857Y-161642857D01*
X91392857Y-161785714D01*
X92107142Y-161928571D01*
X89678571Y-162357142D02*
X89464285Y-162428571D01*
X89107142Y-162428571D01*
X88964285Y-162357142D01*
X88892857Y-162285714D01*
X88821428Y-162142857D01*
X88821428Y-162000000D01*
X88892857Y-161857142D01*
X88964285Y-161785714D01*
X89107142Y-161714285D01*
X89392857Y-161642857D01*
X89535714Y-161571428D01*
X89607142Y-161500000D01*
X89678571Y-161357142D01*
X89678571Y-161214285D01*
X89607142Y-161071428D01*
X89535714Y-161000000D01*
X89392857Y-160928571D01*
X89035714Y-160928571D01*
X88821428Y-161000000D01*
X88178571Y-161428571D02*
X88178571Y-162928571D01*
X88178571Y-161500000D02*
X88035714Y-161428571D01*
X87750000Y-161428571D01*
X87607142Y-161500000D01*
X87535714Y-161571428D01*
X87464285Y-161714285D01*
X87464285Y-162142857D01*
X87535714Y-162285714D01*
X87607142Y-162357142D01*
X87750000Y-162428571D01*
X88035714Y-162428571D01*
X88178571Y-162357142D01*
X86178571Y-162428571D02*
X86178571Y-161642857D01*
X86250000Y-161500000D01*
X86392857Y-161428571D01*
X86678571Y-161428571D01*
X86821428Y-161500000D01*
X86178571Y-162357142D02*
X86321428Y-162428571D01*
X86678571Y-162428571D01*
X86821428Y-162357142D01*
X86892857Y-162214285D01*
X86892857Y-162071428D01*
X86821428Y-161928571D01*
X86678571Y-161857142D01*
X86321428Y-161857142D01*
X86178571Y-161785714D01*
X85464285Y-161428571D02*
X85464285Y-162428571D01*
X85464285Y-161571428D02*
X85392857Y-161500000D01*
X85250000Y-161428571D01*
X85035714Y-161428571D01*
X84892857Y-161500000D01*
X84821428Y-161642857D01*
X84821428Y-162428571D01*
X84107142Y-162428571D02*
X84107142Y-160928571D01*
X83964285Y-161857142D02*
X83535714Y-162428571D01*
X83535714Y-161428571D02*
X84107142Y-162000000D01*
X82250000Y-161428571D02*
X82250000Y-162428571D01*
X82892857Y-161428571D02*
X82892857Y-162214285D01*
X82821428Y-162357142D01*
X82678571Y-162428571D01*
X82464285Y-162428571D01*
X82321428Y-162357142D01*
X82250000Y-162285714D01*
X81321428Y-162428571D02*
X81464285Y-162357142D01*
X81535714Y-162214285D01*
X81535714Y-160928571D01*
X80107142Y-162428571D02*
X80107142Y-161642857D01*
X80178571Y-161500000D01*
X80321428Y-161428571D01*
X80607142Y-161428571D01*
X80750000Y-161500000D01*
X80107142Y-162357142D02*
X80250000Y-162428571D01*
X80607142Y-162428571D01*
X80750000Y-162357142D01*
X80821428Y-162214285D01*
X80821428Y-162071428D01*
X80750000Y-161928571D01*
X80607142Y-161857142D01*
X80250000Y-161857142D01*
X80107142Y-161785714D01*
X79607142Y-161428571D02*
X79035714Y-161428571D01*
X79392857Y-160928571D02*
X79392857Y-162214285D01*
X79321428Y-162357142D01*
X79178571Y-162428571D01*
X79035714Y-162428571D01*
X78321428Y-162428571D02*
X78464285Y-162357142D01*
X78535714Y-162285714D01*
X78607142Y-162142857D01*
X78607142Y-161714285D01*
X78535714Y-161571428D01*
X78464285Y-161500000D01*
X78321428Y-161428571D01*
X78107142Y-161428571D01*
X77964285Y-161500000D01*
X77892857Y-161571428D01*
X77821428Y-161714285D01*
X77821428Y-162142857D01*
X77892857Y-162285714D01*
X77964285Y-162357142D01*
X78107142Y-162428571D01*
X78321428Y-162428571D01*
X77178571Y-162428571D02*
X77178571Y-161428571D01*
X77178571Y-161714285D02*
X77107142Y-161571428D01*
X77035714Y-161500000D01*
X76892857Y-161428571D01*
X76750000Y-161428571D01*
X76321428Y-160928571D02*
X76321428Y-161214285D01*
X75750000Y-160928571D02*
X75750000Y-161214285D01*
X87892857Y-163843571D02*
X87535714Y-164843571D01*
X87178571Y-163843571D01*
X86750000Y-163343571D02*
X85821428Y-163343571D01*
X86321428Y-163915000D01*
X86107142Y-163915000D01*
X85964285Y-163986428D01*
X85892857Y-164057857D01*
X85821428Y-164200714D01*
X85821428Y-164557857D01*
X85892857Y-164700714D01*
X85964285Y-164772142D01*
X86107142Y-164843571D01*
X86535714Y-164843571D01*
X86678571Y-164772142D01*
X86750000Y-164700714D01*
X85178571Y-164700714D02*
X85107142Y-164772142D01*
X85178571Y-164843571D01*
X85250000Y-164772142D01*
X85178571Y-164700714D01*
X85178571Y-164843571D01*
X83821428Y-163843571D02*
X83821428Y-164843571D01*
X84178571Y-163272142D02*
X84535714Y-164343571D01*
X83607142Y-164343571D01*
M02*
