M48
; DRILL file {KiCad (6.0.1)} date Wed Oct 26 10:55:43 2022
; FORMAT={-:-/ absolute / inch / decimal}
; #@! TF.CreationDate,2022-10-26T10:55:43-07:00
; #@! TF.GenerationSoftware,Kicad,Pcbnew,(6.0.1)
; #@! TF.FileFunction,Plated,1,2,PTH
FMAT,2
INCH
; #@! TA.AperFunction,Plated,PTH,ViaDrill
T1C0.0118
; #@! TA.AperFunction,Plated,PTH,ComponentDrill
T2C0.0138
; #@! TA.AperFunction,Plated,PTH,ComponentDrill
T3C0.0173
; #@! TA.AperFunction,Plated,PTH,ComponentDrill
T4C0.0354
; #@! TA.AperFunction,Plated,PTH,ComponentDrill
T5C0.0374
; #@! TA.AperFunction,Plated,PTH,ComponentDrill
T6C0.0433
; #@! TA.AperFunction,Plated,PTH,ComponentDrill
T7C0.0906
%
G90
G05
T1
X2.0096Y-3.6289
X2.0207Y-4.2165
X2.0669Y-3.8435
X2.1122Y-4.8691
X2.1154Y-3.4526
X2.1169Y-3.1986
X2.1339Y-3.7234
X2.1457Y-3.9892
X2.1624Y-4.2372
X2.1654Y-5.6654
X2.2069Y-3.0721
X2.2154Y-5.3329
X2.2797Y-3.9892
X2.3484Y-5.375
T3
X2.1567Y-5.815
X2.1567Y-5.8661
X2.1567Y-5.9173
X2.1961Y-5.8406
X2.1961Y-5.8917
T4
X2.1154Y-2.8543
X2.1154Y-4.1339
X2.1154Y-5.5591
X2.2154Y-2.8543
X2.2154Y-4.1339
X2.2154Y-5.5591
T5
X2.19Y-4.5797
X2.19Y-4.6781
X2.19Y-4.7569
X2.19Y-4.8553
T6
X2.0768Y-2.377
X2.0768Y-2.6329
X2.2539Y-2.377
X2.2539Y-2.6329
T7
X2.0833Y-4.4589
X2.0833Y-4.9762
T2
G00X2.1457Y-5.7254
M15
G01X2.185Y-5.7254
M16
G05
G00X2.1457Y-6.0069
M15
G01X2.185Y-6.0069
M16
G05
T0
M30
