%TF.GenerationSoftware,KiCad,Pcbnew,(6.0.1)*%
%TF.CreationDate,2022-10-26T10:55:45-07:00*%
%TF.ProjectId,DuDad2HP,44754461-6432-4485-902e-6b696361645f,1.0*%
%TF.SameCoordinates,Original*%
%TF.FileFunction,Soldermask,Bot*%
%TF.FilePolarity,Negative*%
%FSLAX46Y46*%
G04 Gerber Fmt 4.6, Leading zero omitted, Abs format (unit mm)*
G04 Created by KiCad (PCBNEW (6.0.1)) date 2022-10-26 10:55:45*
%MOMM*%
%LPD*%
G01*
G04 APERTURE LIST*
G04 Aperture macros list*
%AMRoundRect*
0 Rectangle with rounded corners*
0 $1 Rounding radius*
0 $2 $3 $4 $5 $6 $7 $8 $9 X,Y pos of 4 corners*
0 Add a 4 corners polygon primitive as box body*
4,1,4,$2,$3,$4,$5,$6,$7,$8,$9,$2,$3,0*
0 Add four circle primitives for the rounded corners*
1,1,$1+$1,$2,$3*
1,1,$1+$1,$4,$5*
1,1,$1+$1,$6,$7*
1,1,$1+$1,$8,$9*
0 Add four rect primitives between the rounded corners*
20,1,$1+$1,$2,$3,$4,$5,0*
20,1,$1+$1,$4,$5,$6,$7,0*
20,1,$1+$1,$6,$7,$8,$9,0*
20,1,$1+$1,$8,$9,$2,$3,0*%
G04 Aperture macros list end*
%ADD10R,3.150000X1.000000*%
%ADD11C,2.500000*%
%ADD12R,1.800000X1.800000*%
%ADD13C,1.800000*%
%ADD14C,2.000000*%
%ADD15R,0.840000X0.840000*%
%ADD16C,0.840000*%
%ADD17O,1.850000X0.850000*%
%ADD18RoundRect,0.250000X-0.450000X0.350000X-0.450000X-0.350000X0.450000X-0.350000X0.450000X0.350000X0*%
%ADD19RoundRect,0.250000X0.450000X-0.350000X0.450000X0.350000X-0.450000X0.350000X-0.450000X-0.350000X0*%
%ADD20RoundRect,0.150000X-0.587500X-0.150000X0.587500X-0.150000X0.587500X0.150000X-0.587500X0.150000X0*%
%ADD21RoundRect,0.150000X0.150000X-0.587500X0.150000X0.587500X-0.150000X0.587500X-0.150000X-0.587500X0*%
%ADD22R,1.500000X1.600000*%
%ADD23C,1.600000*%
%ADD24C,3.000000*%
%ADD25RoundRect,0.150000X0.587500X0.150000X-0.587500X0.150000X-0.587500X-0.150000X0.587500X-0.150000X0*%
%ADD26RoundRect,0.250000X-0.350000X-0.450000X0.350000X-0.450000X0.350000X0.450000X-0.350000X0.450000X0*%
G04 APERTURE END LIST*
D10*
%TO.C,J1*%
X52500000Y-98680000D03*
X57550000Y-98680000D03*
X52500000Y-96140000D03*
X57550000Y-96140000D03*
X52500000Y-93600000D03*
X57550000Y-93600000D03*
X52500000Y-91060000D03*
X57550000Y-91060000D03*
X52500000Y-88520000D03*
X57550000Y-88520000D03*
%TD*%
D11*
%TO.C,H2*%
X55000000Y-157000000D03*
%TD*%
D12*
%TO.C,D2*%
X53730000Y-141200000D03*
D13*
X56270000Y-141200000D03*
%TD*%
D14*
%TO.C,SW1*%
X52750000Y-60375000D03*
X52750000Y-66875000D03*
X57250000Y-66875000D03*
X57250000Y-60375000D03*
%TD*%
D11*
%TO.C,H1*%
X55000000Y-54000000D03*
%TD*%
D12*
%TO.C,D1*%
X53730000Y-105000000D03*
D13*
X56270000Y-105000000D03*
%TD*%
D12*
%TO.C,D3*%
X53730000Y-72500000D03*
D13*
X56270000Y-72500000D03*
%TD*%
D15*
%TO.C,J2*%
X54780000Y-150300000D03*
D16*
X55780000Y-149650000D03*
X54780000Y-149000000D03*
X55780000Y-148350000D03*
X54780000Y-147700000D03*
D17*
X55000000Y-145425000D03*
X55000000Y-152575000D03*
%TD*%
D18*
%TO.C,R2*%
X52200000Y-108075000D03*
X52200000Y-110075000D03*
%TD*%
D19*
%TO.C,R8*%
X58575000Y-139575000D03*
X58575000Y-137575000D03*
%TD*%
D20*
%TO.C,Q3*%
X51862500Y-135775000D03*
X51862500Y-133875000D03*
X53737500Y-134825000D03*
%TD*%
D21*
%TO.C,Q2*%
X56300000Y-80612500D03*
X54400000Y-80612500D03*
X55350000Y-78737500D03*
%TD*%
D18*
%TO.C,R4*%
X51225000Y-70500000D03*
X51225000Y-72500000D03*
%TD*%
D22*
%TO.C,J3*%
X55625000Y-123325000D03*
D23*
X55625000Y-120825000D03*
X55625000Y-118825000D03*
X55625000Y-116325000D03*
D24*
X52915000Y-126395000D03*
X52915000Y-113255000D03*
%TD*%
D19*
%TO.C,R3*%
X51850000Y-143400000D03*
X51850000Y-141400000D03*
%TD*%
%TO.C,R5*%
X56275000Y-85575000D03*
X56275000Y-83575000D03*
%TD*%
D20*
%TO.C,Q1*%
X54387500Y-110075000D03*
X54387500Y-108175000D03*
X56262500Y-109125000D03*
%TD*%
D19*
%TO.C,R7*%
X53150000Y-131650000D03*
X53150000Y-129650000D03*
%TD*%
D25*
%TO.C,Q4*%
X58512500Y-133875000D03*
X58512500Y-135775000D03*
X56637500Y-134825000D03*
%TD*%
D18*
%TO.C,R1*%
X51275000Y-103000000D03*
X51275000Y-105000000D03*
%TD*%
D19*
%TO.C,R6*%
X51850000Y-139550000D03*
X51850000Y-137550000D03*
%TD*%
D26*
%TO.C,R9*%
X53875000Y-137650000D03*
X55875000Y-137650000D03*
%TD*%
M02*
