%TF.GenerationSoftware,KiCad,Pcbnew,(6.0.1)*%
%TF.CreationDate,2022-10-25T17:11:30-07:00*%
%TF.ProjectId,DuDad2HP,44754461-6432-4485-902e-6b696361645f,1.0*%
%TF.SameCoordinates,Original*%
%TF.FileFunction,Legend,Bot*%
%TF.FilePolarity,Positive*%
%FSLAX46Y46*%
G04 Gerber Fmt 4.6, Leading zero omitted, Abs format (unit mm)*
G04 Created by KiCad (PCBNEW (6.0.1)) date 2022-10-25 17:11:30*
%MOMM*%
%LPD*%
G01*
G04 APERTURE LIST*
%ADD10C,0.120000*%
%ADD11C,0.300000*%
%ADD12C,0.150000*%
G04 APERTURE END LIST*
D10*
X50900000Y-97175000D02*
X50900000Y-99750000D01*
X52400000Y-98400000D02*
X50900000Y-99750000D01*
X50950000Y-97200000D02*
X52400000Y-98400000D01*
X56525000Y-155087500D02*
X59925000Y-155087500D01*
X59925000Y-155087500D02*
X59925000Y-147062500D01*
X59925000Y-147062500D02*
X56525000Y-147062500D01*
X56525000Y-147062500D02*
X56525000Y-155087500D01*
G36*
X56525000Y-155087500D02*
G01*
X59925000Y-155087500D01*
X59925000Y-147062500D01*
X56525000Y-147062500D01*
X56525000Y-155087500D01*
G37*
D11*
X58000000Y-56328571D02*
X57928571Y-56185714D01*
X57928571Y-55971428D01*
X58000000Y-55757142D01*
X58142857Y-55614285D01*
X58285714Y-55542857D01*
X58571428Y-55471428D01*
X58785714Y-55471428D01*
X59071428Y-55542857D01*
X59214285Y-55614285D01*
X59357142Y-55757142D01*
X59428571Y-55971428D01*
X59428571Y-56114285D01*
X59357142Y-56328571D01*
X59285714Y-56400000D01*
X58785714Y-56400000D01*
X58785714Y-56114285D01*
X59428571Y-57042857D02*
X58428571Y-57042857D01*
X58714285Y-57042857D02*
X58571428Y-57114285D01*
X58500000Y-57185714D01*
X58428571Y-57328571D01*
X58428571Y-57471428D01*
X59357142Y-58542857D02*
X59428571Y-58400000D01*
X59428571Y-58114285D01*
X59357142Y-57971428D01*
X59214285Y-57900000D01*
X58642857Y-57900000D01*
X58500000Y-57971428D01*
X58428571Y-58114285D01*
X58428571Y-58400000D01*
X58500000Y-58542857D01*
X58642857Y-58614285D01*
X58785714Y-58614285D01*
X58928571Y-57900000D01*
X59357142Y-59828571D02*
X59428571Y-59685714D01*
X59428571Y-59400000D01*
X59357142Y-59257142D01*
X59214285Y-59185714D01*
X58642857Y-59185714D01*
X58500000Y-59257142D01*
X58428571Y-59400000D01*
X58428571Y-59685714D01*
X58500000Y-59828571D01*
X58642857Y-59900000D01*
X58785714Y-59900000D01*
X58928571Y-59185714D01*
X58428571Y-60542857D02*
X59428571Y-60542857D01*
X58571428Y-60542857D02*
X58500000Y-60614285D01*
X58428571Y-60757142D01*
X58428571Y-60971428D01*
X58500000Y-61114285D01*
X58642857Y-61185714D01*
X59428571Y-61185714D01*
X58428571Y-61685714D02*
X58428571Y-62257142D01*
X59428571Y-61900000D02*
X58142857Y-61900000D01*
X58000000Y-61971428D01*
X57928571Y-62114285D01*
X57928571Y-62257142D01*
X59428571Y-63400000D02*
X58642857Y-63400000D01*
X58500000Y-63328571D01*
X58428571Y-63185714D01*
X58428571Y-62900000D01*
X58500000Y-62757142D01*
X59357142Y-63400000D02*
X59428571Y-63257142D01*
X59428571Y-62900000D01*
X59357142Y-62757142D01*
X59214285Y-62685714D01*
X59071428Y-62685714D01*
X58928571Y-62757142D01*
X58857142Y-62900000D01*
X58857142Y-63257142D01*
X58785714Y-63400000D01*
X59357142Y-64757142D02*
X59428571Y-64614285D01*
X59428571Y-64328571D01*
X59357142Y-64185714D01*
X59285714Y-64114285D01*
X59142857Y-64042857D01*
X58714285Y-64042857D01*
X58571428Y-64114285D01*
X58500000Y-64185714D01*
X58428571Y-64328571D01*
X58428571Y-64614285D01*
X58500000Y-64757142D01*
X59357142Y-65971428D02*
X59428571Y-65828571D01*
X59428571Y-65542857D01*
X59357142Y-65400000D01*
X59214285Y-65328571D01*
X58642857Y-65328571D01*
X58500000Y-65400000D01*
X58428571Y-65542857D01*
X58428571Y-65828571D01*
X58500000Y-65971428D01*
X58642857Y-66042857D01*
X58785714Y-66042857D01*
X58928571Y-65328571D01*
X59428571Y-68542857D02*
X59428571Y-67828571D01*
X57928571Y-67828571D01*
X59428571Y-69685714D02*
X58642857Y-69685714D01*
X58500000Y-69614285D01*
X58428571Y-69471428D01*
X58428571Y-69185714D01*
X58500000Y-69042857D01*
X59357142Y-69685714D02*
X59428571Y-69542857D01*
X59428571Y-69185714D01*
X59357142Y-69042857D01*
X59214285Y-68971428D01*
X59071428Y-68971428D01*
X58928571Y-69042857D01*
X58857142Y-69185714D01*
X58857142Y-69542857D01*
X58785714Y-69685714D01*
X59428571Y-70400000D02*
X57928571Y-70400000D01*
X58500000Y-70400000D02*
X58428571Y-70542857D01*
X58428571Y-70828571D01*
X58500000Y-70971428D01*
X58571428Y-71042857D01*
X58714285Y-71114285D01*
X59142857Y-71114285D01*
X59285714Y-71042857D01*
X59357142Y-70971428D01*
X59428571Y-70828571D01*
X59428571Y-70542857D01*
X59357142Y-70400000D01*
X59357142Y-71685714D02*
X59428571Y-71828571D01*
X59428571Y-72114285D01*
X59357142Y-72257142D01*
X59214285Y-72328571D01*
X59142857Y-72328571D01*
X59000000Y-72257142D01*
X58928571Y-72114285D01*
X58928571Y-71900000D01*
X58857142Y-71757142D01*
X58714285Y-71685714D01*
X58642857Y-71685714D01*
X58500000Y-71757142D01*
X58428571Y-71900000D01*
X58428571Y-72114285D01*
X58500000Y-72257142D01*
X54103571Y-57196428D02*
X54103571Y-58053571D01*
X55603571Y-57625000D02*
X54103571Y-57625000D01*
X55603571Y-58553571D02*
X54103571Y-58553571D01*
X55603571Y-59196428D02*
X54817857Y-59196428D01*
X54675000Y-59125000D01*
X54603571Y-58982142D01*
X54603571Y-58767857D01*
X54675000Y-58625000D01*
X54746428Y-58553571D01*
X55532142Y-60482142D02*
X55603571Y-60339285D01*
X55603571Y-60053571D01*
X55532142Y-59910714D01*
X55389285Y-59839285D01*
X54817857Y-59839285D01*
X54675000Y-59910714D01*
X54603571Y-60053571D01*
X54603571Y-60339285D01*
X54675000Y-60482142D01*
X54817857Y-60553571D01*
X54960714Y-60553571D01*
X55103571Y-59839285D01*
X55603571Y-62339285D02*
X54103571Y-62339285D01*
X54103571Y-62696428D01*
X54175000Y-62910714D01*
X54317857Y-63053571D01*
X54460714Y-63124999D01*
X54746428Y-63196428D01*
X54960714Y-63196428D01*
X55246428Y-63124999D01*
X55389285Y-63053571D01*
X55532142Y-62910714D01*
X55603571Y-62696428D01*
X55603571Y-62339285D01*
X54603571Y-64482142D02*
X55603571Y-64482142D01*
X54603571Y-63839285D02*
X55389285Y-63839285D01*
X55532142Y-63910714D01*
X55603571Y-64053571D01*
X55603571Y-64267857D01*
X55532142Y-64410714D01*
X55460714Y-64482142D01*
X55603571Y-66339285D02*
X54103571Y-66339285D01*
X54103571Y-66696428D01*
X54175000Y-66910714D01*
X54317857Y-67053571D01*
X54460714Y-67125000D01*
X54746428Y-67196428D01*
X54960714Y-67196428D01*
X55246428Y-67125000D01*
X55389285Y-67053571D01*
X55532142Y-66910714D01*
X55603571Y-66696428D01*
X55603571Y-66339285D01*
X55603571Y-68482142D02*
X54817857Y-68482142D01*
X54675000Y-68410714D01*
X54603571Y-68267857D01*
X54603571Y-67982142D01*
X54675000Y-67839285D01*
X55532142Y-68482142D02*
X55603571Y-68339285D01*
X55603571Y-67982142D01*
X55532142Y-67839285D01*
X55389285Y-67767857D01*
X55246428Y-67767857D01*
X55103571Y-67839285D01*
X55032142Y-67982142D01*
X55032142Y-68339285D01*
X54960714Y-68482142D01*
X55603571Y-69839285D02*
X54103571Y-69839285D01*
X55532142Y-69839285D02*
X55603571Y-69696428D01*
X55603571Y-69410714D01*
X55532142Y-69267857D01*
X55460714Y-69196428D01*
X55317857Y-69125000D01*
X54889285Y-69125000D01*
X54746428Y-69196428D01*
X54675000Y-69267857D01*
X54603571Y-69410714D01*
X54603571Y-69696428D01*
X54675000Y-69839285D01*
X50828571Y-61557142D02*
X51828571Y-61914285D01*
X50828571Y-62271428D01*
X51828571Y-63628571D02*
X51828571Y-62771428D01*
X51828571Y-63200000D02*
X50328571Y-63200000D01*
X50542857Y-63057142D01*
X50685714Y-62914285D01*
X50757142Y-62771428D01*
X51685714Y-64271428D02*
X51757142Y-64342857D01*
X51828571Y-64271428D01*
X51757142Y-64200000D01*
X51685714Y-64271428D01*
X51828571Y-64271428D01*
X50328571Y-65271428D02*
X50328571Y-65414285D01*
X50400000Y-65557142D01*
X50471428Y-65628571D01*
X50614285Y-65700000D01*
X50900000Y-65771428D01*
X51257142Y-65771428D01*
X51542857Y-65700000D01*
X51685714Y-65628571D01*
X51757142Y-65557142D01*
X51828571Y-65414285D01*
X51828571Y-65271428D01*
X51757142Y-65128571D01*
X51685714Y-65057142D01*
X51542857Y-64985714D01*
X51257142Y-64914285D01*
X50900000Y-64914285D01*
X50614285Y-64985714D01*
X50471428Y-65057142D01*
X50400000Y-65128571D01*
X50328571Y-65271428D01*
X58828571Y-143725000D02*
X58828571Y-142867857D01*
X58828571Y-143296428D02*
X57328571Y-143296428D01*
X57542857Y-143153571D01*
X57685714Y-143010714D01*
X57757142Y-142867857D01*
X58685714Y-144367857D02*
X58757142Y-144439285D01*
X58828571Y-144367857D01*
X58757142Y-144296428D01*
X58685714Y-144367857D01*
X58828571Y-144367857D01*
X57328571Y-145367857D02*
X57328571Y-145510714D01*
X57400000Y-145653571D01*
X57471428Y-145725000D01*
X57614285Y-145796428D01*
X57900000Y-145867857D01*
X58257142Y-145867857D01*
X58542857Y-145796428D01*
X58685714Y-145725000D01*
X58757142Y-145653571D01*
X58828571Y-145510714D01*
X58828571Y-145367857D01*
X58757142Y-145225000D01*
X58685714Y-145153571D01*
X58542857Y-145082142D01*
X58257142Y-145010714D01*
X57900000Y-145010714D01*
X57614285Y-145082142D01*
X57471428Y-145153571D01*
X57400000Y-145225000D01*
X57328571Y-145367857D01*
X58685714Y-146510714D02*
X58757142Y-146582142D01*
X58828571Y-146510714D01*
X58757142Y-146439285D01*
X58685714Y-146510714D01*
X58828571Y-146510714D01*
D12*
%TO.C,R2*%
X52366666Y-107077380D02*
X52700000Y-106601190D01*
X52938095Y-107077380D02*
X52938095Y-106077380D01*
X52557142Y-106077380D01*
X52461904Y-106125000D01*
X52414285Y-106172619D01*
X52366666Y-106267857D01*
X52366666Y-106410714D01*
X52414285Y-106505952D01*
X52461904Y-106553571D01*
X52557142Y-106601190D01*
X52938095Y-106601190D01*
X51985714Y-106172619D02*
X51938095Y-106125000D01*
X51842857Y-106077380D01*
X51604761Y-106077380D01*
X51509523Y-106125000D01*
X51461904Y-106172619D01*
X51414285Y-106267857D01*
X51414285Y-106363095D01*
X51461904Y-106505952D01*
X52033333Y-107077380D01*
X51414285Y-107077380D01*
%TO.C,R8*%
X58741666Y-141677380D02*
X59075000Y-141201190D01*
X59313095Y-141677380D02*
X59313095Y-140677380D01*
X58932142Y-140677380D01*
X58836904Y-140725000D01*
X58789285Y-140772619D01*
X58741666Y-140867857D01*
X58741666Y-141010714D01*
X58789285Y-141105952D01*
X58836904Y-141153571D01*
X58932142Y-141201190D01*
X59313095Y-141201190D01*
X58170238Y-141105952D02*
X58265476Y-141058333D01*
X58313095Y-141010714D01*
X58360714Y-140915476D01*
X58360714Y-140867857D01*
X58313095Y-140772619D01*
X58265476Y-140725000D01*
X58170238Y-140677380D01*
X57979761Y-140677380D01*
X57884523Y-140725000D01*
X57836904Y-140772619D01*
X57789285Y-140867857D01*
X57789285Y-140915476D01*
X57836904Y-141010714D01*
X57884523Y-141058333D01*
X57979761Y-141105952D01*
X58170238Y-141105952D01*
X58265476Y-141153571D01*
X58313095Y-141201190D01*
X58360714Y-141296428D01*
X58360714Y-141486904D01*
X58313095Y-141582142D01*
X58265476Y-141629761D01*
X58170238Y-141677380D01*
X57979761Y-141677380D01*
X57884523Y-141629761D01*
X57836904Y-141582142D01*
X57789285Y-141486904D01*
X57789285Y-141296428D01*
X57836904Y-141201190D01*
X57884523Y-141153571D01*
X57979761Y-141105952D01*
%TO.C,Q3*%
X51445238Y-132522619D02*
X51540476Y-132475000D01*
X51635714Y-132379761D01*
X51778571Y-132236904D01*
X51873809Y-132189285D01*
X51969047Y-132189285D01*
X51921428Y-132427380D02*
X52016666Y-132379761D01*
X52111904Y-132284523D01*
X52159523Y-132094047D01*
X52159523Y-131760714D01*
X52111904Y-131570238D01*
X52016666Y-131475000D01*
X51921428Y-131427380D01*
X51730952Y-131427380D01*
X51635714Y-131475000D01*
X51540476Y-131570238D01*
X51492857Y-131760714D01*
X51492857Y-132094047D01*
X51540476Y-132284523D01*
X51635714Y-132379761D01*
X51730952Y-132427380D01*
X51921428Y-132427380D01*
X51159523Y-131427380D02*
X50540476Y-131427380D01*
X50873809Y-131808333D01*
X50730952Y-131808333D01*
X50635714Y-131855952D01*
X50588095Y-131903571D01*
X50540476Y-131998809D01*
X50540476Y-132236904D01*
X50588095Y-132332142D01*
X50635714Y-132379761D01*
X50730952Y-132427380D01*
X51016666Y-132427380D01*
X51111904Y-132379761D01*
X51159523Y-132332142D01*
%TO.C,Q2*%
X55370238Y-84922619D02*
X55465476Y-84875000D01*
X55560714Y-84779761D01*
X55703571Y-84636904D01*
X55798809Y-84589285D01*
X55894047Y-84589285D01*
X55846428Y-84827380D02*
X55941666Y-84779761D01*
X56036904Y-84684523D01*
X56084523Y-84494047D01*
X56084523Y-84160714D01*
X56036904Y-83970238D01*
X55941666Y-83875000D01*
X55846428Y-83827380D01*
X55655952Y-83827380D01*
X55560714Y-83875000D01*
X55465476Y-83970238D01*
X55417857Y-84160714D01*
X55417857Y-84494047D01*
X55465476Y-84684523D01*
X55560714Y-84779761D01*
X55655952Y-84827380D01*
X55846428Y-84827380D01*
X55036904Y-83922619D02*
X54989285Y-83875000D01*
X54894047Y-83827380D01*
X54655952Y-83827380D01*
X54560714Y-83875000D01*
X54513095Y-83922619D01*
X54465476Y-84017857D01*
X54465476Y-84113095D01*
X54513095Y-84255952D01*
X55084523Y-84827380D01*
X54465476Y-84827380D01*
%TO.C,R4*%
X51416666Y-69452380D02*
X51750000Y-68976190D01*
X51988095Y-69452380D02*
X51988095Y-68452380D01*
X51607142Y-68452380D01*
X51511904Y-68500000D01*
X51464285Y-68547619D01*
X51416666Y-68642857D01*
X51416666Y-68785714D01*
X51464285Y-68880952D01*
X51511904Y-68928571D01*
X51607142Y-68976190D01*
X51988095Y-68976190D01*
X50559523Y-68785714D02*
X50559523Y-69452380D01*
X50797619Y-68404761D02*
X51035714Y-69119047D01*
X50416666Y-69119047D01*
%TO.C,J3*%
X58267380Y-119491666D02*
X58981666Y-119491666D01*
X59124523Y-119444047D01*
X59219761Y-119348809D01*
X59267380Y-119205952D01*
X59267380Y-119110714D01*
X58267380Y-119872619D02*
X58267380Y-120491666D01*
X58648333Y-120158333D01*
X58648333Y-120301190D01*
X58695952Y-120396428D01*
X58743571Y-120444047D01*
X58838809Y-120491666D01*
X59076904Y-120491666D01*
X59172142Y-120444047D01*
X59219761Y-120396428D01*
X59267380Y-120301190D01*
X59267380Y-120015476D01*
X59219761Y-119920238D01*
X59172142Y-119872619D01*
%TO.C,R3*%
X52016666Y-145352380D02*
X52350000Y-144876190D01*
X52588095Y-145352380D02*
X52588095Y-144352380D01*
X52207142Y-144352380D01*
X52111904Y-144400000D01*
X52064285Y-144447619D01*
X52016666Y-144542857D01*
X52016666Y-144685714D01*
X52064285Y-144780952D01*
X52111904Y-144828571D01*
X52207142Y-144876190D01*
X52588095Y-144876190D01*
X51683333Y-144352380D02*
X51064285Y-144352380D01*
X51397619Y-144733333D01*
X51254761Y-144733333D01*
X51159523Y-144780952D01*
X51111904Y-144828571D01*
X51064285Y-144923809D01*
X51064285Y-145161904D01*
X51111904Y-145257142D01*
X51159523Y-145304761D01*
X51254761Y-145352380D01*
X51540476Y-145352380D01*
X51635714Y-145304761D01*
X51683333Y-145257142D01*
%TO.C,R5*%
X55516666Y-77077380D02*
X55850000Y-76601190D01*
X56088095Y-77077380D02*
X56088095Y-76077380D01*
X55707142Y-76077380D01*
X55611904Y-76125000D01*
X55564285Y-76172619D01*
X55516666Y-76267857D01*
X55516666Y-76410714D01*
X55564285Y-76505952D01*
X55611904Y-76553571D01*
X55707142Y-76601190D01*
X56088095Y-76601190D01*
X54611904Y-76077380D02*
X55088095Y-76077380D01*
X55135714Y-76553571D01*
X55088095Y-76505952D01*
X54992857Y-76458333D01*
X54754761Y-76458333D01*
X54659523Y-76505952D01*
X54611904Y-76553571D01*
X54564285Y-76648809D01*
X54564285Y-76886904D01*
X54611904Y-76982142D01*
X54659523Y-77029761D01*
X54754761Y-77077380D01*
X54992857Y-77077380D01*
X55088095Y-77029761D01*
X55135714Y-76982142D01*
%TO.C,Q1*%
X58395238Y-109747619D02*
X58490476Y-109700000D01*
X58585714Y-109604761D01*
X58728571Y-109461904D01*
X58823809Y-109414285D01*
X58919047Y-109414285D01*
X58871428Y-109652380D02*
X58966666Y-109604761D01*
X59061904Y-109509523D01*
X59109523Y-109319047D01*
X59109523Y-108985714D01*
X59061904Y-108795238D01*
X58966666Y-108700000D01*
X58871428Y-108652380D01*
X58680952Y-108652380D01*
X58585714Y-108700000D01*
X58490476Y-108795238D01*
X58442857Y-108985714D01*
X58442857Y-109319047D01*
X58490476Y-109509523D01*
X58585714Y-109604761D01*
X58680952Y-109652380D01*
X58871428Y-109652380D01*
X57490476Y-109652380D02*
X58061904Y-109652380D01*
X57776190Y-109652380D02*
X57776190Y-108652380D01*
X57871428Y-108795238D01*
X57966666Y-108890476D01*
X58061904Y-108938095D01*
%TO.C,R7*%
X55252380Y-130483333D02*
X54776190Y-130150000D01*
X55252380Y-129911904D02*
X54252380Y-129911904D01*
X54252380Y-130292857D01*
X54300000Y-130388095D01*
X54347619Y-130435714D01*
X54442857Y-130483333D01*
X54585714Y-130483333D01*
X54680952Y-130435714D01*
X54728571Y-130388095D01*
X54776190Y-130292857D01*
X54776190Y-129911904D01*
X54252380Y-130816666D02*
X54252380Y-131483333D01*
X55252380Y-131054761D01*
%TO.C,Q4*%
X57670238Y-132972619D02*
X57765476Y-132925000D01*
X57860714Y-132829761D01*
X58003571Y-132686904D01*
X58098809Y-132639285D01*
X58194047Y-132639285D01*
X58146428Y-132877380D02*
X58241666Y-132829761D01*
X58336904Y-132734523D01*
X58384523Y-132544047D01*
X58384523Y-132210714D01*
X58336904Y-132020238D01*
X58241666Y-131925000D01*
X58146428Y-131877380D01*
X57955952Y-131877380D01*
X57860714Y-131925000D01*
X57765476Y-132020238D01*
X57717857Y-132210714D01*
X57717857Y-132544047D01*
X57765476Y-132734523D01*
X57860714Y-132829761D01*
X57955952Y-132877380D01*
X58146428Y-132877380D01*
X56860714Y-132210714D02*
X56860714Y-132877380D01*
X57098809Y-131829761D02*
X57336904Y-132544047D01*
X56717857Y-132544047D01*
%TO.C,R1*%
X51391666Y-101902380D02*
X51725000Y-101426190D01*
X51963095Y-101902380D02*
X51963095Y-100902380D01*
X51582142Y-100902380D01*
X51486904Y-100950000D01*
X51439285Y-100997619D01*
X51391666Y-101092857D01*
X51391666Y-101235714D01*
X51439285Y-101330952D01*
X51486904Y-101378571D01*
X51582142Y-101426190D01*
X51963095Y-101426190D01*
X50439285Y-101902380D02*
X51010714Y-101902380D01*
X50725000Y-101902380D02*
X50725000Y-100902380D01*
X50820238Y-101045238D01*
X50915476Y-101140476D01*
X51010714Y-101188095D01*
%TO.C,R6*%
X53916666Y-139877380D02*
X54250000Y-139401190D01*
X54488095Y-139877380D02*
X54488095Y-138877380D01*
X54107142Y-138877380D01*
X54011904Y-138925000D01*
X53964285Y-138972619D01*
X53916666Y-139067857D01*
X53916666Y-139210714D01*
X53964285Y-139305952D01*
X54011904Y-139353571D01*
X54107142Y-139401190D01*
X54488095Y-139401190D01*
X53059523Y-138877380D02*
X53250000Y-138877380D01*
X53345238Y-138925000D01*
X53392857Y-138972619D01*
X53488095Y-139115476D01*
X53535714Y-139305952D01*
X53535714Y-139686904D01*
X53488095Y-139782142D01*
X53440476Y-139829761D01*
X53345238Y-139877380D01*
X53154761Y-139877380D01*
X53059523Y-139829761D01*
X53011904Y-139782142D01*
X52964285Y-139686904D01*
X52964285Y-139448809D01*
X53011904Y-139353571D01*
X53059523Y-139305952D01*
X53154761Y-139258333D01*
X53345238Y-139258333D01*
X53440476Y-139305952D01*
X53488095Y-139353571D01*
X53535714Y-139448809D01*
%TO.C,R9*%
X54941666Y-136602380D02*
X55275000Y-136126190D01*
X55513095Y-136602380D02*
X55513095Y-135602380D01*
X55132142Y-135602380D01*
X55036904Y-135650000D01*
X54989285Y-135697619D01*
X54941666Y-135792857D01*
X54941666Y-135935714D01*
X54989285Y-136030952D01*
X55036904Y-136078571D01*
X55132142Y-136126190D01*
X55513095Y-136126190D01*
X54465476Y-136602380D02*
X54275000Y-136602380D01*
X54179761Y-136554761D01*
X54132142Y-136507142D01*
X54036904Y-136364285D01*
X53989285Y-136173809D01*
X53989285Y-135792857D01*
X54036904Y-135697619D01*
X54084523Y-135650000D01*
X54179761Y-135602380D01*
X54370238Y-135602380D01*
X54465476Y-135650000D01*
X54513095Y-135697619D01*
X54560714Y-135792857D01*
X54560714Y-136030952D01*
X54513095Y-136126190D01*
X54465476Y-136173809D01*
X54370238Y-136221428D01*
X54179761Y-136221428D01*
X54084523Y-136173809D01*
X54036904Y-136126190D01*
X53989285Y-136030952D01*
%TO.C,J1*%
X55333333Y-100282380D02*
X55333333Y-100996666D01*
X55380952Y-101139523D01*
X55476190Y-101234761D01*
X55619047Y-101282380D01*
X55714285Y-101282380D01*
X54333333Y-101282380D02*
X54904761Y-101282380D01*
X54619047Y-101282380D02*
X54619047Y-100282380D01*
X54714285Y-100425238D01*
X54809523Y-100520476D01*
X54904761Y-100568095D01*
D10*
%TO.C,R2*%
X51465000Y-108847936D02*
X51465000Y-109302064D01*
X52935000Y-108847936D02*
X52935000Y-109302064D01*
%TO.C,R8*%
X59310000Y-138802064D02*
X59310000Y-138347936D01*
X57840000Y-138802064D02*
X57840000Y-138347936D01*
%TO.C,Q3*%
X53760000Y-134600000D02*
X53760000Y-135250000D01*
X53760000Y-134600000D02*
X53760000Y-133950000D01*
X50640000Y-134600000D02*
X50640000Y-132925000D01*
X50640000Y-134600000D02*
X50640000Y-135250000D01*
%TO.C,Q2*%
X55275000Y-80415000D02*
X54625000Y-80415000D01*
X55275000Y-83535000D02*
X53600000Y-83535000D01*
X55275000Y-80415000D02*
X55925000Y-80415000D01*
X55275000Y-83535000D02*
X55925000Y-83535000D01*
%TO.C,R4*%
X51960000Y-71272936D02*
X51960000Y-71727064D01*
X50490000Y-71272936D02*
X50490000Y-71727064D01*
%TO.C,J3*%
X58005000Y-126485000D02*
X58005000Y-113165000D01*
X58225000Y-124225000D02*
X58225000Y-122425000D01*
X58005000Y-113165000D02*
X54675000Y-113165000D01*
X58005000Y-126485000D02*
X54675000Y-126485000D01*
X51125000Y-126445000D02*
X51125000Y-113125000D01*
%TO.C,R3*%
X51115000Y-142627064D02*
X51115000Y-142172936D01*
X52585000Y-142627064D02*
X52585000Y-142172936D01*
%TO.C,R5*%
X55577064Y-79010000D02*
X55122936Y-79010000D01*
X55577064Y-77540000D02*
X55122936Y-77540000D01*
%TO.C,Q1*%
X55325000Y-107565000D02*
X54675000Y-107565000D01*
X55325000Y-110685000D02*
X55975000Y-110685000D01*
X55325000Y-110685000D02*
X53650000Y-110685000D01*
X55325000Y-107565000D02*
X55975000Y-107565000D01*
%TO.C,R7*%
X53885000Y-130877064D02*
X53885000Y-130422936D01*
X52415000Y-130877064D02*
X52415000Y-130422936D01*
%TO.C,Q4*%
X57575000Y-136385000D02*
X58225000Y-136385000D01*
X57575000Y-133265000D02*
X59250000Y-133265000D01*
X57575000Y-136385000D02*
X56925000Y-136385000D01*
X57575000Y-133265000D02*
X56925000Y-133265000D01*
%TO.C,R1*%
X52010000Y-103772936D02*
X52010000Y-104227064D01*
X50540000Y-103772936D02*
X50540000Y-104227064D01*
%TO.C,R6*%
X51115000Y-138777064D02*
X51115000Y-138322936D01*
X52585000Y-138777064D02*
X52585000Y-138322936D01*
%TO.C,R9*%
X54647936Y-138385000D02*
X55102064Y-138385000D01*
X54647936Y-136915000D02*
X55102064Y-136915000D01*
%TO.C,J1*%
X52400000Y-97230000D02*
X55000000Y-97230000D01*
X57600000Y-99830000D02*
X57600000Y-87010000D01*
X52400000Y-98500000D02*
X52400000Y-99830000D01*
X55000000Y-97230000D02*
X55000000Y-99830000D01*
X55000000Y-99830000D02*
X57600000Y-99830000D01*
X52400000Y-99830000D02*
X53730000Y-99830000D01*
X52400000Y-97230000D02*
X52400000Y-87010000D01*
X52400000Y-87010000D02*
X57600000Y-87010000D01*
%TD*%
M02*
