%TF.GenerationSoftware,KiCad,Pcbnew,(6.0.1)*%
%TF.CreationDate,2024-01-24T19:53:21-08:00*%
%TF.ProjectId,DuDad2HP,44754461-6432-4485-902e-6b696361645f,1.1*%
%TF.SameCoordinates,Original*%
%TF.FileFunction,Legend,Top*%
%TF.FilePolarity,Positive*%
%FSLAX46Y46*%
G04 Gerber Fmt 4.6, Leading zero omitted, Abs format (unit mm)*
G04 Created by KiCad (PCBNEW (6.0.1)) date 2024-01-24 19:53:21*
%MOMM*%
%LPD*%
G01*
G04 APERTURE LIST*
%ADD10C,0.150000*%
%ADD11C,0.120000*%
G04 APERTURE END LIST*
D10*
%TO.C,D2*%
X54261904Y-138692380D02*
X54261904Y-137692380D01*
X54500000Y-137692380D01*
X54642857Y-137740000D01*
X54738095Y-137835238D01*
X54785714Y-137930476D01*
X54833333Y-138120952D01*
X54833333Y-138263809D01*
X54785714Y-138454285D01*
X54738095Y-138549523D01*
X54642857Y-138644761D01*
X54500000Y-138692380D01*
X54261904Y-138692380D01*
X55214285Y-137787619D02*
X55261904Y-137740000D01*
X55357142Y-137692380D01*
X55595238Y-137692380D01*
X55690476Y-137740000D01*
X55738095Y-137787619D01*
X55785714Y-137882857D01*
X55785714Y-137978095D01*
X55738095Y-138120952D01*
X55166666Y-138692380D01*
X55785714Y-138692380D01*
%TO.C,SW1*%
X53666666Y-58504761D02*
X53809523Y-58552380D01*
X54047619Y-58552380D01*
X54142857Y-58504761D01*
X54190476Y-58457142D01*
X54238095Y-58361904D01*
X54238095Y-58266666D01*
X54190476Y-58171428D01*
X54142857Y-58123809D01*
X54047619Y-58076190D01*
X53857142Y-58028571D01*
X53761904Y-57980952D01*
X53714285Y-57933333D01*
X53666666Y-57838095D01*
X53666666Y-57742857D01*
X53714285Y-57647619D01*
X53761904Y-57600000D01*
X53857142Y-57552380D01*
X54095238Y-57552380D01*
X54238095Y-57600000D01*
X54571428Y-57552380D02*
X54809523Y-58552380D01*
X55000000Y-57838095D01*
X55190476Y-58552380D01*
X55428571Y-57552380D01*
X56333333Y-58552380D02*
X55761904Y-58552380D01*
X56047619Y-58552380D02*
X56047619Y-57552380D01*
X55952380Y-57695238D01*
X55857142Y-57790476D01*
X55761904Y-57838095D01*
%TO.C,D1*%
X54261904Y-102492380D02*
X54261904Y-101492380D01*
X54500000Y-101492380D01*
X54642857Y-101540000D01*
X54738095Y-101635238D01*
X54785714Y-101730476D01*
X54833333Y-101920952D01*
X54833333Y-102063809D01*
X54785714Y-102254285D01*
X54738095Y-102349523D01*
X54642857Y-102444761D01*
X54500000Y-102492380D01*
X54261904Y-102492380D01*
X55785714Y-102492380D02*
X55214285Y-102492380D01*
X55500000Y-102492380D02*
X55500000Y-101492380D01*
X55404761Y-101635238D01*
X55309523Y-101730476D01*
X55214285Y-101778095D01*
%TO.C,D3*%
X54261904Y-69992380D02*
X54261904Y-68992380D01*
X54500000Y-68992380D01*
X54642857Y-69040000D01*
X54738095Y-69135238D01*
X54785714Y-69230476D01*
X54833333Y-69420952D01*
X54833333Y-69563809D01*
X54785714Y-69754285D01*
X54738095Y-69849523D01*
X54642857Y-69944761D01*
X54500000Y-69992380D01*
X54261904Y-69992380D01*
X55166666Y-68992380D02*
X55785714Y-68992380D01*
X55452380Y-69373333D01*
X55595238Y-69373333D01*
X55690476Y-69420952D01*
X55738095Y-69468571D01*
X55785714Y-69563809D01*
X55785714Y-69801904D01*
X55738095Y-69897142D01*
X55690476Y-69944761D01*
X55595238Y-69992380D01*
X55309523Y-69992380D01*
X55214285Y-69944761D01*
X55166666Y-69897142D01*
%TO.C,J2*%
X51632380Y-149383333D02*
X52346666Y-149383333D01*
X52489523Y-149430952D01*
X52584761Y-149526190D01*
X52632380Y-149669047D01*
X52632380Y-149764285D01*
X51727619Y-148954761D02*
X51680000Y-148907142D01*
X51632380Y-148811904D01*
X51632380Y-148573809D01*
X51680000Y-148478571D01*
X51727619Y-148430952D01*
X51822857Y-148383333D01*
X51918095Y-148383333D01*
X52060952Y-148430952D01*
X52632380Y-149002380D01*
X52632380Y-148383333D01*
D11*
%TO.C,D2*%
X53440000Y-139964000D02*
X53440000Y-140120000D01*
X53440000Y-142280000D02*
X53440000Y-142436000D01*
X56041130Y-140120163D02*
G75*
G03*
X53959039Y-140120000I-1041130J-1079837D01*
G01*
X53440000Y-142435516D02*
G75*
G03*
X56672335Y-142278608I1560000J1235517D01*
G01*
X53959039Y-142280000D02*
G75*
G03*
X56041130Y-142279837I1040961J1080000D01*
G01*
X56672335Y-140121392D02*
G75*
G03*
X53440000Y-139964484I-1672335J-1078609D01*
G01*
%TO.C,SW1*%
X51750000Y-61375000D02*
X51750000Y-65875000D01*
X54250000Y-67125000D02*
X55750000Y-67125000D01*
X58250000Y-65875000D02*
X58250000Y-61375000D01*
X55750000Y-60125000D02*
X54250000Y-60125000D01*
%TO.C,D1*%
X53440000Y-106080000D02*
X53440000Y-106236000D01*
X53440000Y-103764000D02*
X53440000Y-103920000D01*
X56672335Y-103921392D02*
G75*
G03*
X53440000Y-103764484I-1672335J-1078609D01*
G01*
X56041130Y-103920163D02*
G75*
G03*
X53959039Y-103920000I-1041130J-1079837D01*
G01*
X53959039Y-106080000D02*
G75*
G03*
X56041130Y-106079837I1040961J1080000D01*
G01*
X53440000Y-106235516D02*
G75*
G03*
X56672335Y-106078608I1560000J1235517D01*
G01*
%TO.C,D3*%
X53440000Y-71264000D02*
X53440000Y-71420000D01*
X53440000Y-73580000D02*
X53440000Y-73736000D01*
X53959039Y-73580000D02*
G75*
G03*
X56041130Y-73579837I1040961J1080000D01*
G01*
X53440000Y-73735516D02*
G75*
G03*
X56672335Y-73578608I1560000J1235517D01*
G01*
X56041130Y-71420163D02*
G75*
G03*
X53959039Y-71420000I-1041130J-1079837D01*
G01*
X56672335Y-71421392D02*
G75*
G03*
X53440000Y-71264484I-1672335J-1078609D01*
G01*
D10*
%TO.C,J2*%
X53400000Y-153150000D02*
X53400000Y-144850000D01*
X56600000Y-153150000D02*
X56600000Y-144850000D01*
X56125000Y-153150000D02*
X56600000Y-153150000D01*
X53875000Y-153150000D02*
X53400000Y-153150000D01*
X53400000Y-144850000D02*
X53875000Y-144850000D01*
X56600000Y-144850000D02*
X56125000Y-144850000D01*
X53100000Y-151300000D02*
X53100000Y-149300000D01*
%TD*%
M02*
