%TF.GenerationSoftware,KiCad,Pcbnew,(6.0.1)*%
%TF.CreationDate,2024-01-24T19:53:21-08:00*%
%TF.ProjectId,DuDad2HP,44754461-6432-4485-902e-6b696361645f,1.1*%
%TF.SameCoordinates,Original*%
%TF.FileFunction,Copper,L2,Bot*%
%TF.FilePolarity,Positive*%
%FSLAX46Y46*%
G04 Gerber Fmt 4.6, Leading zero omitted, Abs format (unit mm)*
G04 Created by KiCad (PCBNEW (6.0.1)) date 2024-01-24 19:53:21*
%MOMM*%
%LPD*%
G01*
G04 APERTURE LIST*
G04 Aperture macros list*
%AMRoundRect*
0 Rectangle with rounded corners*
0 $1 Rounding radius*
0 $2 $3 $4 $5 $6 $7 $8 $9 X,Y pos of 4 corners*
0 Add a 4 corners polygon primitive as box body*
4,1,4,$2,$3,$4,$5,$6,$7,$8,$9,$2,$3,0*
0 Add four circle primitives for the rounded corners*
1,1,$1+$1,$2,$3*
1,1,$1+$1,$4,$5*
1,1,$1+$1,$6,$7*
1,1,$1+$1,$8,$9*
0 Add four rect primitives between the rounded corners*
20,1,$1+$1,$2,$3,$4,$5,0*
20,1,$1+$1,$4,$5,$6,$7,0*
20,1,$1+$1,$6,$7,$8,$9,0*
20,1,$1+$1,$8,$9,$2,$3,0*%
G04 Aperture macros list end*
%TA.AperFunction,ComponentPad*%
%ADD10R,1.800000X1.800000*%
%TD*%
%TA.AperFunction,ComponentPad*%
%ADD11C,1.800000*%
%TD*%
%TA.AperFunction,ComponentPad*%
%ADD12C,2.000000*%
%TD*%
%TA.AperFunction,ComponentPad*%
%ADD13R,0.840000X0.840000*%
%TD*%
%TA.AperFunction,ComponentPad*%
%ADD14C,0.840000*%
%TD*%
%TA.AperFunction,ComponentPad*%
%ADD15O,1.850000X0.850000*%
%TD*%
%TA.AperFunction,SMDPad,CuDef*%
%ADD16RoundRect,0.250000X-0.450000X0.350000X-0.450000X-0.350000X0.450000X-0.350000X0.450000X0.350000X0*%
%TD*%
%TA.AperFunction,SMDPad,CuDef*%
%ADD17RoundRect,0.250000X0.450000X-0.350000X0.450000X0.350000X-0.450000X0.350000X-0.450000X-0.350000X0*%
%TD*%
%TA.AperFunction,SMDPad,CuDef*%
%ADD18RoundRect,0.150000X-0.587500X-0.150000X0.587500X-0.150000X0.587500X0.150000X-0.587500X0.150000X0*%
%TD*%
%TA.AperFunction,SMDPad,CuDef*%
%ADD19RoundRect,0.150000X0.150000X-0.587500X0.150000X0.587500X-0.150000X0.587500X-0.150000X-0.587500X0*%
%TD*%
%TA.AperFunction,ComponentPad*%
%ADD20R,1.500000X1.600000*%
%TD*%
%TA.AperFunction,ComponentPad*%
%ADD21C,1.600000*%
%TD*%
%TA.AperFunction,ComponentPad*%
%ADD22C,3.000000*%
%TD*%
%TA.AperFunction,SMDPad,CuDef*%
%ADD23RoundRect,0.150000X0.587500X0.150000X-0.587500X0.150000X-0.587500X-0.150000X0.587500X-0.150000X0*%
%TD*%
%TA.AperFunction,SMDPad,CuDef*%
%ADD24RoundRect,0.250000X-0.350000X-0.450000X0.350000X-0.450000X0.350000X0.450000X-0.350000X0.450000X0*%
%TD*%
%TA.AperFunction,SMDPad,CuDef*%
%ADD25R,3.150000X1.000000*%
%TD*%
%TA.AperFunction,ViaPad*%
%ADD26C,0.500000*%
%TD*%
%TA.AperFunction,Conductor*%
%ADD27C,0.200000*%
%TD*%
%TA.AperFunction,Conductor*%
%ADD28C,0.250000*%
%TD*%
G04 APERTURE END LIST*
D10*
%TO.P,D2,1,K*%
%TO.N,Net-(D2-Pad1)*%
X53730000Y-141200000D03*
D11*
%TO.P,D2,2,A*%
%TO.N,Net-(D2-Pad2)*%
X56270000Y-141200000D03*
%TD*%
D12*
%TO.P,SW1,1,1*%
%TO.N,Net-(J1-Pad1)*%
X52750000Y-60375000D03*
X52750000Y-66875000D03*
%TO.P,SW1,2,2*%
%TO.N,GND*%
X57250000Y-66875000D03*
X57250000Y-60375000D03*
%TD*%
D10*
%TO.P,D1,1,K*%
%TO.N,Net-(D1-Pad1)*%
X53730000Y-105000000D03*
D11*
%TO.P,D1,2,A*%
%TO.N,Net-(D1-Pad2)*%
X56270000Y-105000000D03*
%TD*%
D10*
%TO.P,D3,1,K*%
%TO.N,Net-(D3-Pad1)*%
X53730000Y-72500000D03*
D11*
%TO.P,D3,2,A*%
%TO.N,Net-(D3-Pad2)*%
X56270000Y-72500000D03*
%TD*%
D13*
%TO.P,J2,1,VBUS*%
%TO.N,Net-(J2-Pad1)*%
X54780000Y-150300000D03*
D14*
%TO.P,J2,2,D-*%
%TO.N,Net-(J2-Pad2)*%
X55780000Y-149650000D03*
%TO.P,J2,3,D+*%
%TO.N,Net-(J2-Pad3)*%
X54780000Y-149000000D03*
%TO.P,J2,4,ID*%
%TO.N,unconnected-(J2-Pad4)*%
X55780000Y-148350000D03*
%TO.P,J2,5,GND*%
%TO.N,GND*%
X54780000Y-147700000D03*
D15*
%TO.P,J2,6,Shield*%
%TO.N,Net-(J2-Pad6)*%
X55000000Y-145425000D03*
X55000000Y-152575000D03*
%TD*%
D16*
%TO.P,R2,1*%
%TO.N,Net-(J1-Pad7)*%
X52200000Y-108075000D03*
%TO.P,R2,2*%
%TO.N,Net-(Q1-Pad1)*%
X52200000Y-110075000D03*
%TD*%
D17*
%TO.P,R8,1*%
%TO.N,Net-(Q4-Pad1)*%
X58575000Y-139575000D03*
%TO.P,R8,2*%
%TO.N,Net-(J2-Pad1)*%
X58575000Y-137575000D03*
%TD*%
D18*
%TO.P,Q3,1,G*%
%TO.N,Net-(Q3-Pad1)*%
X51862500Y-135775000D03*
%TO.P,Q3,2,S*%
%TO.N,GND*%
X51862500Y-133875000D03*
%TO.P,Q3,3,D*%
%TO.N,Net-(Q3-Pad3)*%
X53737500Y-134825000D03*
%TD*%
D19*
%TO.P,Q2,1,B*%
%TO.N,Net-(Q2-Pad1)*%
X56300000Y-80612500D03*
%TO.P,Q2,2,E*%
%TO.N,+3V3*%
X54400000Y-80612500D03*
%TO.P,Q2,3,C*%
%TO.N,Net-(D3-Pad2)*%
X55350000Y-78737500D03*
%TD*%
D16*
%TO.P,R4,1*%
%TO.N,GND*%
X51225000Y-70500000D03*
%TO.P,R4,2*%
%TO.N,Net-(D3-Pad1)*%
X51225000Y-72500000D03*
%TD*%
D20*
%TO.P,J3,1,VBUS*%
%TO.N,Net-(D2-Pad2)*%
X55625000Y-123325000D03*
D21*
%TO.P,J3,2,D-*%
%TO.N,Net-(J2-Pad2)*%
X55625000Y-120825000D03*
%TO.P,J3,3,D+*%
%TO.N,Net-(J2-Pad3)*%
X55625000Y-118825000D03*
%TO.P,J3,4,GND*%
%TO.N,GND*%
X55625000Y-116325000D03*
D22*
%TO.P,J3,5,Shield*%
%TO.N,Net-(J2-Pad6)*%
X52915000Y-126395000D03*
X52915000Y-113255000D03*
%TD*%
D17*
%TO.P,R3,1*%
%TO.N,GND*%
X51850000Y-143400000D03*
%TO.P,R3,2*%
%TO.N,Net-(D2-Pad1)*%
X51850000Y-141400000D03*
%TD*%
%TO.P,R5,1*%
%TO.N,Net-(J1-Pad10)*%
X56275000Y-85575000D03*
%TO.P,R5,2*%
%TO.N,Net-(Q2-Pad1)*%
X56275000Y-83575000D03*
%TD*%
D18*
%TO.P,Q1,1,B*%
%TO.N,Net-(Q1-Pad1)*%
X54387500Y-110075000D03*
%TO.P,Q1,2,E*%
%TO.N,+3V3*%
X54387500Y-108175000D03*
%TO.P,Q1,3,C*%
%TO.N,Net-(D1-Pad2)*%
X56262500Y-109125000D03*
%TD*%
D17*
%TO.P,R7,1*%
%TO.N,Net-(Q3-Pad1)*%
X53150000Y-131650000D03*
%TO.P,R7,2*%
%TO.N,+12V*%
X53150000Y-129650000D03*
%TD*%
D23*
%TO.P,Q4,1,B*%
%TO.N,Net-(Q4-Pad1)*%
X58512500Y-133875000D03*
%TO.P,Q4,2,E*%
%TO.N,Net-(J2-Pad1)*%
X58512500Y-135775000D03*
%TO.P,Q4,3,C*%
%TO.N,Net-(D2-Pad2)*%
X56637500Y-134825000D03*
%TD*%
D16*
%TO.P,R1,1*%
%TO.N,GND*%
X51275000Y-103000000D03*
%TO.P,R1,2*%
%TO.N,Net-(D1-Pad1)*%
X51275000Y-105000000D03*
%TD*%
D17*
%TO.P,R6,1*%
%TO.N,GND*%
X51850000Y-139550000D03*
%TO.P,R6,2*%
%TO.N,Net-(Q3-Pad1)*%
X51850000Y-137550000D03*
%TD*%
D24*
%TO.P,R9,1*%
%TO.N,Net-(Q3-Pad3)*%
X53875000Y-137650000D03*
%TO.P,R9,2*%
%TO.N,Net-(Q4-Pad1)*%
X55875000Y-137650000D03*
%TD*%
D25*
%TO.P,J1,1,Pin_1*%
%TO.N,Net-(J1-Pad1)*%
X52500000Y-98680000D03*
%TO.P,J1,2,Pin_2*%
%TO.N,GND*%
X57550000Y-98680000D03*
%TO.P,J1,3,Pin_3*%
%TO.N,unconnected-(J1-Pad3)*%
X52500000Y-96140000D03*
%TO.P,J1,4,Pin_4*%
%TO.N,unconnected-(J1-Pad4)*%
X57550000Y-96140000D03*
%TO.P,J1,5,Pin_5*%
%TO.N,+12V*%
X52500000Y-93600000D03*
%TO.P,J1,6,Pin_6*%
%TO.N,unconnected-(J1-Pad6)*%
X57550000Y-93600000D03*
%TO.P,J1,7,Pin_7*%
%TO.N,Net-(J1-Pad7)*%
X52500000Y-91060000D03*
%TO.P,J1,8,Pin_8*%
%TO.N,GND*%
X57550000Y-91060000D03*
%TO.P,J1,9,Pin_9*%
%TO.N,+3V3*%
X52500000Y-88520000D03*
%TO.P,J1,10,Pin_10*%
%TO.N,Net-(J1-Pad10)*%
X57550000Y-88520000D03*
%TD*%
D26*
%TO.N,Net-(D2-Pad2)*%
X56270000Y-135455000D03*
%TO.N,Net-(D3-Pad2)*%
X56056250Y-78031250D03*
%TO.N,Net-(J1-Pad1)*%
X52500000Y-97625000D03*
%TO.N,+12V*%
X54200000Y-94575000D03*
X53650000Y-123675000D03*
X54500000Y-101325000D03*
X57905489Y-101325000D03*
%TO.N,Net-(J1-Pad7)*%
X51045000Y-92175000D03*
X51325000Y-107100000D03*
%TO.N,+3V3*%
X54925000Y-107625000D03*
X53768750Y-81243750D03*
X53730000Y-87695000D03*
%TO.N,Net-(J2-Pad1)*%
X59650000Y-136525000D03*
%TO.N,Net-(J2-Pad3)*%
X55000000Y-143900000D03*
%TD*%
D27*
%TO.N,Net-(D1-Pad1)*%
X51275000Y-105000000D02*
X53730000Y-105000000D01*
%TO.N,Net-(D1-Pad2)*%
X56262500Y-109125000D02*
X56270000Y-109117500D01*
X56270000Y-109117500D02*
X56270000Y-105000000D01*
%TO.N,Net-(D2-Pad1)*%
X51850000Y-141400000D02*
X53530000Y-141400000D01*
X53530000Y-141400000D02*
X53730000Y-141200000D01*
%TO.N,Net-(D2-Pad2)*%
X56637500Y-134825000D02*
X55625000Y-133812500D01*
D28*
X56270000Y-135192500D02*
X56637500Y-134825000D01*
X56270000Y-135455000D02*
X56270000Y-135192500D01*
D27*
X55625000Y-133812500D02*
X55625000Y-123325000D01*
%TO.N,Net-(D3-Pad1)*%
X51225000Y-72500000D02*
X53730000Y-72500000D01*
D28*
%TO.N,Net-(D3-Pad2)*%
X56056250Y-78031250D02*
X55350000Y-78737500D01*
%TO.N,Net-(J1-Pad1)*%
X52500000Y-98680000D02*
X52500000Y-97625000D01*
D27*
%TO.N,GND*%
X50850480Y-142400480D02*
X51850000Y-143400000D01*
X51850000Y-139550000D02*
X50850480Y-140549520D01*
X50850480Y-140549520D02*
X50850480Y-142400480D01*
D28*
X50800480Y-134937020D02*
X51862500Y-133875000D01*
X50800480Y-138500480D02*
X50800480Y-134937020D01*
X51850000Y-139550000D02*
X50800480Y-138500480D01*
D27*
%TO.N,+12V*%
X54714511Y-124739511D02*
X53650000Y-123675000D01*
D28*
X57905489Y-101325000D02*
X54500000Y-101325000D01*
D27*
X53150000Y-129650000D02*
X54714511Y-128085489D01*
X54714511Y-128085489D02*
X54714511Y-124739511D01*
D28*
X53225000Y-93600000D02*
X54200000Y-94575000D01*
X52500000Y-93600000D02*
X53225000Y-93600000D01*
%TO.N,Net-(J1-Pad7)*%
X52500000Y-91060000D02*
X52160000Y-91060000D01*
D27*
X52200000Y-107975000D02*
X51325000Y-107100000D01*
X52200000Y-108075000D02*
X52200000Y-107975000D01*
D28*
X52160000Y-91060000D02*
X51045000Y-92175000D01*
D27*
%TO.N,+3V3*%
X54929511Y-107632989D02*
X54387500Y-108175000D01*
D28*
X53768750Y-81243750D02*
X54400000Y-80612500D01*
X53730000Y-88340000D02*
X53730000Y-87695000D01*
%TO.N,Net-(J1-Pad10)*%
X56270000Y-88340000D02*
X56270000Y-85580000D01*
X56270000Y-85580000D02*
X56275000Y-85575000D01*
%TO.N,Net-(J2-Pad1)*%
X58900000Y-135775000D02*
X59650000Y-136525000D01*
D27*
X59675000Y-136475000D02*
X58575000Y-137575000D01*
D28*
X58512500Y-135775000D02*
X58900000Y-135775000D01*
D27*
%TO.N,Net-(J2-Pad3)*%
X54995374Y-143900000D02*
X53750000Y-145145374D01*
X53750000Y-147975000D02*
X54775000Y-149000000D01*
X55000000Y-143900000D02*
X54995374Y-143900000D01*
X53750000Y-145145374D02*
X53750000Y-147975000D01*
D28*
%TO.N,Net-(Q3-Pad3)*%
X53875000Y-137650000D02*
X53875000Y-134962500D01*
X53875000Y-134962500D02*
X53737500Y-134825000D01*
%TO.N,Net-(Q4-Pad1)*%
X55875000Y-136996072D02*
X58512500Y-134358572D01*
D27*
X55875000Y-137650000D02*
X57800000Y-139575000D01*
D28*
X55875000Y-137650000D02*
X55875000Y-136996072D01*
X58512500Y-134358572D02*
X58512500Y-133875000D01*
D27*
X57800000Y-139575000D02*
X58575000Y-139575000D01*
D28*
%TO.N,Net-(Q3-Pad1)*%
X51862500Y-135775000D02*
X51862500Y-135283572D01*
X51850000Y-137550000D02*
X51850000Y-135787500D01*
X53150000Y-133996072D02*
X53150000Y-131650000D01*
X51862500Y-135283572D02*
X53150000Y-133996072D01*
X51850000Y-135787500D02*
X51862500Y-135775000D01*
D27*
%TO.N,Net-(Q1-Pad1)*%
X52200000Y-110075000D02*
X54387500Y-110075000D01*
D28*
%TO.N,Net-(Q2-Pad1)*%
X56275000Y-80637500D02*
X56300000Y-80612500D01*
X56275000Y-83575000D02*
X56275000Y-80637500D01*
%TD*%
%TA.AperFunction,Conductor*%
%TO.N,GND*%
G36*
X57788986Y-140609460D02*
G01*
X57794664Y-140612637D01*
X57796033Y-140613275D01*
X57802262Y-140617115D01*
X57882005Y-140643564D01*
X57963611Y-140670632D01*
X57963613Y-140670632D01*
X57970139Y-140672797D01*
X57976975Y-140673497D01*
X57976978Y-140673498D01*
X58020031Y-140677909D01*
X58074600Y-140683500D01*
X59075400Y-140683500D01*
X59078646Y-140683163D01*
X59078650Y-140683163D01*
X59174308Y-140673238D01*
X59174312Y-140673237D01*
X59181166Y-140672526D01*
X59187702Y-140670345D01*
X59187704Y-140670345D01*
X59326124Y-140624164D01*
X59397073Y-140621580D01*
X59458157Y-140657763D01*
X59489982Y-140721227D01*
X59492000Y-140743688D01*
X59492000Y-159366000D01*
X59471998Y-159434121D01*
X59418342Y-159480614D01*
X59366000Y-159492000D01*
X50634000Y-159492000D01*
X50565879Y-159471998D01*
X50519386Y-159418342D01*
X50508000Y-159366000D01*
X50508000Y-157107655D01*
X53239858Y-157107655D01*
X53275104Y-157366638D01*
X53276412Y-157371124D01*
X53276412Y-157371126D01*
X53296098Y-157438664D01*
X53348243Y-157617567D01*
X53457668Y-157854928D01*
X53460231Y-157858837D01*
X53598410Y-158069596D01*
X53598414Y-158069601D01*
X53600976Y-158073509D01*
X53775018Y-158268506D01*
X53975970Y-158435637D01*
X53979973Y-158438066D01*
X54195422Y-158568804D01*
X54195426Y-158568806D01*
X54199419Y-158571229D01*
X54440455Y-158672303D01*
X54693783Y-158736641D01*
X54698434Y-158737109D01*
X54698438Y-158737110D01*
X54891308Y-158756531D01*
X54910867Y-158758500D01*
X55066354Y-158758500D01*
X55068679Y-158758327D01*
X55068685Y-158758327D01*
X55256000Y-158744407D01*
X55256004Y-158744406D01*
X55260652Y-158744061D01*
X55265200Y-158743032D01*
X55265206Y-158743031D01*
X55451601Y-158700853D01*
X55515577Y-158686377D01*
X55551769Y-158672303D01*
X55754824Y-158593340D01*
X55754827Y-158593339D01*
X55759177Y-158591647D01*
X55986098Y-158461951D01*
X56191357Y-158300138D01*
X56370443Y-158109763D01*
X56519424Y-157895009D01*
X56635025Y-157660593D01*
X56714707Y-157411665D01*
X56756721Y-157153693D01*
X56760142Y-156892345D01*
X56724896Y-156633362D01*
X56710473Y-156583877D01*
X56653068Y-156386932D01*
X56651757Y-156382433D01*
X56542332Y-156145072D01*
X56509519Y-156095024D01*
X56401590Y-155930404D01*
X56401586Y-155930399D01*
X56399024Y-155926491D01*
X56224982Y-155731494D01*
X56024030Y-155564363D01*
X55976844Y-155535730D01*
X55804578Y-155431196D01*
X55804574Y-155431194D01*
X55800581Y-155428771D01*
X55559545Y-155327697D01*
X55306217Y-155263359D01*
X55301566Y-155262891D01*
X55301562Y-155262890D01*
X55092271Y-155241816D01*
X55089133Y-155241500D01*
X54933646Y-155241500D01*
X54931321Y-155241673D01*
X54931315Y-155241673D01*
X54744000Y-155255593D01*
X54743996Y-155255594D01*
X54739348Y-155255939D01*
X54734800Y-155256968D01*
X54734794Y-155256969D01*
X54548399Y-155299147D01*
X54484423Y-155313623D01*
X54480071Y-155315315D01*
X54480069Y-155315316D01*
X54245176Y-155406660D01*
X54245173Y-155406661D01*
X54240823Y-155408353D01*
X54013902Y-155538049D01*
X53808643Y-155699862D01*
X53629557Y-155890237D01*
X53480576Y-156104991D01*
X53364975Y-156339407D01*
X53285293Y-156588335D01*
X53243279Y-156846307D01*
X53239858Y-157107655D01*
X50508000Y-157107655D01*
X50508000Y-152673115D01*
X53566500Y-152673115D01*
X53607298Y-152865056D01*
X53687112Y-153044321D01*
X53802453Y-153203074D01*
X53948280Y-153334377D01*
X54118220Y-153432492D01*
X54124506Y-153434534D01*
X54124505Y-153434534D01*
X54298566Y-153491090D01*
X54298567Y-153491090D01*
X54304845Y-153493130D01*
X54311408Y-153493820D01*
X54311409Y-153493820D01*
X54334405Y-153496237D01*
X54451078Y-153508500D01*
X55548922Y-153508500D01*
X55665595Y-153496237D01*
X55688591Y-153493820D01*
X55688592Y-153493820D01*
X55695155Y-153493130D01*
X55701433Y-153491090D01*
X55701434Y-153491090D01*
X55875495Y-153434534D01*
X55875494Y-153434534D01*
X55881780Y-153432492D01*
X56051720Y-153334377D01*
X56197547Y-153203074D01*
X56312888Y-153044321D01*
X56392702Y-152865056D01*
X56433500Y-152673115D01*
X56433500Y-152476885D01*
X56392702Y-152284944D01*
X56312888Y-152105679D01*
X56197547Y-151946926D01*
X56051720Y-151815623D01*
X55881780Y-151717508D01*
X55804059Y-151692255D01*
X55701434Y-151658910D01*
X55701433Y-151658910D01*
X55695155Y-151656870D01*
X55688592Y-151656180D01*
X55688591Y-151656180D01*
X55665595Y-151653763D01*
X55548922Y-151641500D01*
X54451078Y-151641500D01*
X54334405Y-151653763D01*
X54311409Y-151656180D01*
X54311408Y-151656180D01*
X54304845Y-151656870D01*
X54298567Y-151658910D01*
X54298566Y-151658910D01*
X54195941Y-151692255D01*
X54118220Y-151717508D01*
X53948280Y-151815623D01*
X53802453Y-151946926D01*
X53687112Y-152105679D01*
X53607298Y-152284944D01*
X53566500Y-152476885D01*
X53566500Y-152673115D01*
X50508000Y-152673115D01*
X50508000Y-147975000D01*
X53136250Y-147975000D01*
X53141500Y-148014880D01*
X53141500Y-148014885D01*
X53154296Y-148112080D01*
X53157162Y-148133851D01*
X53218476Y-148281876D01*
X53223503Y-148288427D01*
X53223504Y-148288429D01*
X53291520Y-148377069D01*
X53291526Y-148377075D01*
X53316013Y-148408987D01*
X53322568Y-148414017D01*
X53341379Y-148428452D01*
X53353770Y-148439319D01*
X53810362Y-148895911D01*
X53844388Y-148958223D01*
X53845959Y-148986828D01*
X53847076Y-148986828D01*
X53847076Y-148993436D01*
X53846386Y-149000000D01*
X53847076Y-149006565D01*
X53856511Y-149096327D01*
X53866788Y-149194109D01*
X53927101Y-149379735D01*
X53930404Y-149385457D01*
X53930405Y-149385458D01*
X53960503Y-149437589D01*
X53977241Y-149506584D01*
X53952210Y-149576154D01*
X53909385Y-149633295D01*
X53858255Y-149769684D01*
X53851500Y-149831866D01*
X53851500Y-150768134D01*
X53858255Y-150830316D01*
X53909385Y-150966705D01*
X53996739Y-151083261D01*
X54113295Y-151170615D01*
X54249684Y-151221745D01*
X54311866Y-151228500D01*
X55248134Y-151228500D01*
X55310316Y-151221745D01*
X55446705Y-151170615D01*
X55563261Y-151083261D01*
X55650615Y-150966705D01*
X55701745Y-150830316D01*
X55708500Y-150768134D01*
X55708500Y-150704500D01*
X55728502Y-150636379D01*
X55782158Y-150589886D01*
X55834500Y-150578500D01*
X55877589Y-150578500D01*
X55884042Y-150577128D01*
X55884046Y-150577128D01*
X55973046Y-150558210D01*
X56068503Y-150537920D01*
X56074534Y-150535235D01*
X56240777Y-150461218D01*
X56240779Y-150461217D01*
X56246807Y-150458533D01*
X56404710Y-150343810D01*
X56535310Y-150198765D01*
X56632899Y-150029735D01*
X56693212Y-149844109D01*
X56713614Y-149650000D01*
X56705852Y-149576154D01*
X56693902Y-149462455D01*
X56693902Y-149462454D01*
X56693212Y-149455891D01*
X56687266Y-149437589D01*
X56634941Y-149276550D01*
X56632899Y-149270265D01*
X56535310Y-149101235D01*
X56520072Y-149084311D01*
X56489354Y-149020305D01*
X56498117Y-148949851D01*
X56520072Y-148915688D01*
X56530891Y-148903673D01*
X56530892Y-148903672D01*
X56535310Y-148898765D01*
X56632899Y-148729735D01*
X56693212Y-148544109D01*
X56713614Y-148350000D01*
X56693212Y-148155891D01*
X56678977Y-148112078D01*
X56634941Y-147976550D01*
X56632899Y-147970265D01*
X56535310Y-147801235D01*
X56468273Y-147726783D01*
X56409125Y-147661093D01*
X56409123Y-147661092D01*
X56404710Y-147656190D01*
X56397549Y-147650987D01*
X56252149Y-147545348D01*
X56252148Y-147545347D01*
X56246807Y-147541467D01*
X56240779Y-147538783D01*
X56240777Y-147538782D01*
X56074534Y-147464765D01*
X56074532Y-147464764D01*
X56068503Y-147462080D01*
X55973046Y-147441790D01*
X55884046Y-147422872D01*
X55884042Y-147422872D01*
X55877589Y-147421500D01*
X55756811Y-147421500D01*
X55688690Y-147401498D01*
X55642197Y-147347842D01*
X55636977Y-147334435D01*
X55634479Y-147326748D01*
X55629136Y-147314746D01*
X55599881Y-147264075D01*
X55589675Y-147254344D01*
X55581654Y-147257556D01*
X55263709Y-147575501D01*
X55248675Y-147588342D01*
X55155290Y-147656190D01*
X55150877Y-147661092D01*
X55150875Y-147661093D01*
X55095178Y-147722951D01*
X55024690Y-147801235D01*
X55021390Y-147806950D01*
X55021389Y-147806952D01*
X55014836Y-147818303D01*
X54994811Y-147844399D01*
X54869095Y-147970115D01*
X54806783Y-148004141D01*
X54735968Y-147999076D01*
X54690905Y-147970115D01*
X54509885Y-147789095D01*
X54475859Y-147726783D01*
X54480924Y-147655968D01*
X54509885Y-147610905D01*
X55221520Y-146899270D01*
X55228280Y-146886890D01*
X55224769Y-146882201D01*
X55074383Y-146815245D01*
X55061887Y-146811185D01*
X54883994Y-146773372D01*
X54870934Y-146772000D01*
X54689066Y-146772000D01*
X54676006Y-146773372D01*
X54510697Y-146808510D01*
X54439906Y-146803108D01*
X54383274Y-146760291D01*
X54358780Y-146693653D01*
X54358500Y-146685263D01*
X54358500Y-146484500D01*
X54378502Y-146416379D01*
X54432158Y-146369886D01*
X54484500Y-146358500D01*
X55548922Y-146358500D01*
X55665595Y-146346237D01*
X55688591Y-146343820D01*
X55688592Y-146343820D01*
X55695155Y-146343130D01*
X55701433Y-146341090D01*
X55701434Y-146341090D01*
X55875495Y-146284534D01*
X55875494Y-146284534D01*
X55881780Y-146282492D01*
X56051720Y-146184377D01*
X56197547Y-146053074D01*
X56312888Y-145894321D01*
X56392702Y-145715056D01*
X56433500Y-145523115D01*
X56433500Y-145326885D01*
X56392702Y-145134944D01*
X56326621Y-144986524D01*
X56315573Y-144961709D01*
X56315572Y-144961707D01*
X56312888Y-144955679D01*
X56227751Y-144838498D01*
X56201430Y-144802270D01*
X56201428Y-144802268D01*
X56197547Y-144796926D01*
X56138000Y-144743310D01*
X56056628Y-144670042D01*
X56056627Y-144670041D01*
X56051720Y-144665623D01*
X55881780Y-144567508D01*
X55846460Y-144556032D01*
X55698690Y-144508018D01*
X55640084Y-144467944D01*
X55612447Y-144402548D01*
X55624554Y-144332591D01*
X55632678Y-144318458D01*
X55674990Y-144254773D01*
X55678891Y-144248902D01*
X55739319Y-144089825D01*
X55763001Y-143921313D01*
X55763299Y-143900000D01*
X55744331Y-143730892D01*
X55688368Y-143570189D01*
X55682383Y-143560610D01*
X55660420Y-143525464D01*
X55598192Y-143425879D01*
X55478286Y-143305132D01*
X55462039Y-143294821D01*
X55423406Y-143270304D01*
X55334608Y-143213951D01*
X55174300Y-143156868D01*
X55005329Y-143136720D01*
X54998326Y-143137456D01*
X54998325Y-143137456D01*
X54843101Y-143153770D01*
X54843097Y-143153771D01*
X54836093Y-143154507D01*
X54829422Y-143156778D01*
X54681673Y-143207075D01*
X54681670Y-143207076D01*
X54675003Y-143209346D01*
X54669005Y-143213036D01*
X54669003Y-143213037D01*
X54536065Y-143294821D01*
X54536063Y-143294823D01*
X54530066Y-143298512D01*
X54408486Y-143417573D01*
X54316304Y-143560610D01*
X54313894Y-143567232D01*
X54275720Y-143672115D01*
X54258103Y-143720516D01*
X54255382Y-143742051D01*
X54227003Y-143807125D01*
X54219472Y-143815353D01*
X53353766Y-144681059D01*
X53341375Y-144691926D01*
X53316013Y-144711387D01*
X53291526Y-144743299D01*
X53291523Y-144743302D01*
X53218476Y-144838498D01*
X53218476Y-144838499D01*
X53157162Y-144986524D01*
X53141500Y-145105489D01*
X53141500Y-145105494D01*
X53136250Y-145145374D01*
X53137328Y-145153562D01*
X53140422Y-145177064D01*
X53141500Y-145193510D01*
X53141500Y-147926864D01*
X53140422Y-147943307D01*
X53136250Y-147975000D01*
X50508000Y-147975000D01*
X50508000Y-144192131D01*
X50528002Y-144124010D01*
X50581658Y-144077517D01*
X50651932Y-144067413D01*
X50716512Y-144096907D01*
X50741144Y-144125828D01*
X50798063Y-144217807D01*
X50807099Y-144229208D01*
X50921829Y-144343739D01*
X50933240Y-144352751D01*
X51071243Y-144437816D01*
X51084424Y-144443963D01*
X51238710Y-144495138D01*
X51252086Y-144498005D01*
X51346438Y-144507672D01*
X51352854Y-144508000D01*
X51577885Y-144508000D01*
X51593124Y-144503525D01*
X51594329Y-144502135D01*
X51596000Y-144494452D01*
X51596000Y-144489884D01*
X52104000Y-144489884D01*
X52108475Y-144505123D01*
X52109865Y-144506328D01*
X52117548Y-144507999D01*
X52347095Y-144507999D01*
X52353614Y-144507662D01*
X52449206Y-144497743D01*
X52462600Y-144494851D01*
X52616784Y-144443412D01*
X52629962Y-144437239D01*
X52767807Y-144351937D01*
X52779208Y-144342901D01*
X52893739Y-144228171D01*
X52902751Y-144216760D01*
X52987816Y-144078757D01*
X52993963Y-144065576D01*
X53045138Y-143911290D01*
X53048005Y-143897914D01*
X53057672Y-143803562D01*
X53058000Y-143797146D01*
X53058000Y-143672115D01*
X53053525Y-143656876D01*
X53052135Y-143655671D01*
X53044452Y-143654000D01*
X52122115Y-143654000D01*
X52106876Y-143658475D01*
X52105671Y-143659865D01*
X52104000Y-143667548D01*
X52104000Y-144489884D01*
X51596000Y-144489884D01*
X51596000Y-143272000D01*
X51616002Y-143203879D01*
X51669658Y-143157386D01*
X51722000Y-143146000D01*
X53039884Y-143146000D01*
X53055123Y-143141525D01*
X53056328Y-143140135D01*
X53057999Y-143132452D01*
X53057999Y-143002905D01*
X53057662Y-142996386D01*
X53047743Y-142900794D01*
X53044851Y-142887400D01*
X53007144Y-142774376D01*
X53004560Y-142703426D01*
X53040744Y-142642342D01*
X53104208Y-142610518D01*
X53126668Y-142608500D01*
X54678134Y-142608500D01*
X54740316Y-142601745D01*
X54876705Y-142550615D01*
X54993261Y-142463261D01*
X55080615Y-142346705D01*
X55105180Y-142281178D01*
X55147822Y-142224414D01*
X55214383Y-142199714D01*
X55283732Y-142214921D01*
X55303647Y-142228464D01*
X55435942Y-142338297D01*
X55459349Y-142357730D01*
X55659322Y-142474584D01*
X55875694Y-142557209D01*
X55880760Y-142558240D01*
X55880761Y-142558240D01*
X55933846Y-142569040D01*
X56102656Y-142603385D01*
X56232089Y-142608131D01*
X56328949Y-142611683D01*
X56328953Y-142611683D01*
X56334113Y-142611872D01*
X56339233Y-142611216D01*
X56339235Y-142611216D01*
X56413166Y-142601745D01*
X56563847Y-142582442D01*
X56568795Y-142580957D01*
X56568802Y-142580956D01*
X56780747Y-142517369D01*
X56785690Y-142515886D01*
X56800767Y-142508500D01*
X56989049Y-142416262D01*
X56989052Y-142416260D01*
X56993684Y-142413991D01*
X57182243Y-142279494D01*
X57346303Y-142116005D01*
X57481458Y-141927917D01*
X57544481Y-141800400D01*
X57581784Y-141724922D01*
X57581785Y-141724920D01*
X57584078Y-141720280D01*
X57651408Y-141498671D01*
X57681640Y-141269041D01*
X57683327Y-141200000D01*
X57666851Y-140999600D01*
X57664773Y-140974318D01*
X57664772Y-140974312D01*
X57664349Y-140969167D01*
X57609954Y-140752611D01*
X57612758Y-140681671D01*
X57653471Y-140623508D01*
X57719166Y-140596589D01*
X57788986Y-140609460D01*
G37*
%TD.AperFunction*%
%TA.AperFunction,Conductor*%
G36*
X50716512Y-142097858D02*
G01*
X50741144Y-142126779D01*
X50801522Y-142224348D01*
X50806704Y-142229521D01*
X50888463Y-142311138D01*
X50922542Y-142373421D01*
X50917539Y-142444241D01*
X50888618Y-142489329D01*
X50806261Y-142571829D01*
X50797249Y-142583240D01*
X50741260Y-142674072D01*
X50688488Y-142721565D01*
X50618417Y-142732989D01*
X50553293Y-142704715D01*
X50513793Y-142645721D01*
X50508000Y-142607956D01*
X50508000Y-142193082D01*
X50528002Y-142124961D01*
X50581658Y-142078468D01*
X50651932Y-142068364D01*
X50716512Y-142097858D01*
G37*
%TD.AperFunction*%
%TA.AperFunction,Conductor*%
G36*
X50716512Y-140246907D02*
G01*
X50741144Y-140275828D01*
X50798064Y-140367808D01*
X50807096Y-140379204D01*
X50813463Y-140385560D01*
X50847542Y-140447843D01*
X50842539Y-140518663D01*
X50813620Y-140563749D01*
X50800695Y-140576697D01*
X50796855Y-140582927D01*
X50796854Y-140582928D01*
X50741260Y-140673118D01*
X50688488Y-140720611D01*
X50618416Y-140732035D01*
X50553292Y-140703761D01*
X50513793Y-140644767D01*
X50508000Y-140607002D01*
X50508000Y-140342131D01*
X50528002Y-140274010D01*
X50581658Y-140227517D01*
X50651932Y-140217413D01*
X50716512Y-140246907D01*
G37*
%TD.AperFunction*%
%TA.AperFunction,Conductor*%
G36*
X54918886Y-138582815D02*
G01*
X54963976Y-138611736D01*
X55051697Y-138699305D01*
X55057927Y-138703145D01*
X55057928Y-138703146D01*
X55195090Y-138787694D01*
X55202262Y-138792115D01*
X55213134Y-138795721D01*
X55363611Y-138845632D01*
X55363613Y-138845632D01*
X55370139Y-138847797D01*
X55376975Y-138848497D01*
X55376978Y-138848498D01*
X55420031Y-138852909D01*
X55474600Y-138858500D01*
X56170761Y-138858500D01*
X56238882Y-138878502D01*
X56259856Y-138895405D01*
X57170291Y-139805840D01*
X57204317Y-139868152D01*
X57199252Y-139938967D01*
X57156705Y-139995803D01*
X57090185Y-140020614D01*
X57020302Y-140005243D01*
X56853889Y-139913378D01*
X56853880Y-139913374D01*
X56849355Y-139910876D01*
X56844486Y-139909152D01*
X56844482Y-139909150D01*
X56635903Y-139835288D01*
X56635899Y-139835287D01*
X56631028Y-139833562D01*
X56625935Y-139832655D01*
X56625932Y-139832654D01*
X56408095Y-139793851D01*
X56408089Y-139793850D01*
X56403006Y-139792945D01*
X56330096Y-139792054D01*
X56176581Y-139790179D01*
X56176579Y-139790179D01*
X56171411Y-139790116D01*
X55942464Y-139825150D01*
X55722314Y-139897106D01*
X55717726Y-139899494D01*
X55717722Y-139899496D01*
X55568694Y-139977075D01*
X55516872Y-140004052D01*
X55512739Y-140007155D01*
X55512736Y-140007157D01*
X55364319Y-140118592D01*
X55331655Y-140143117D01*
X55314170Y-140161414D01*
X55252646Y-140196844D01*
X55181733Y-140193387D01*
X55123947Y-140152141D01*
X55105094Y-140118592D01*
X55083768Y-140061705D01*
X55083767Y-140061704D01*
X55080615Y-140053295D01*
X54993261Y-139936739D01*
X54876705Y-139849385D01*
X54740316Y-139798255D01*
X54678134Y-139791500D01*
X52781866Y-139791500D01*
X52778469Y-139791869D01*
X52727534Y-139797402D01*
X52727532Y-139797402D01*
X52719684Y-139798255D01*
X52713165Y-139800699D01*
X52685014Y-139804000D01*
X51722000Y-139804000D01*
X51653879Y-139783998D01*
X51607386Y-139730342D01*
X51596000Y-139678000D01*
X51596000Y-139422000D01*
X51616002Y-139353879D01*
X51669658Y-139307386D01*
X51722000Y-139296000D01*
X53039884Y-139296000D01*
X53055123Y-139291525D01*
X53056328Y-139290135D01*
X53057999Y-139282452D01*
X53057999Y-139152905D01*
X53057662Y-139146386D01*
X53047743Y-139050794D01*
X53044851Y-139037400D01*
X53010937Y-138935747D01*
X53008353Y-138864798D01*
X53044536Y-138803714D01*
X53108001Y-138771889D01*
X53178596Y-138779428D01*
X53194728Y-138787667D01*
X53196032Y-138788275D01*
X53202262Y-138792115D01*
X53213134Y-138795721D01*
X53363611Y-138845632D01*
X53363613Y-138845632D01*
X53370139Y-138847797D01*
X53376975Y-138848497D01*
X53376978Y-138848498D01*
X53420031Y-138852909D01*
X53474600Y-138858500D01*
X54275400Y-138858500D01*
X54278646Y-138858163D01*
X54278650Y-138858163D01*
X54374308Y-138848238D01*
X54374312Y-138848237D01*
X54381166Y-138847526D01*
X54387702Y-138845345D01*
X54387704Y-138845345D01*
X54536444Y-138795721D01*
X54548946Y-138791550D01*
X54699348Y-138698478D01*
X54785784Y-138611891D01*
X54848066Y-138577812D01*
X54918886Y-138582815D01*
G37*
%TD.AperFunction*%
%TA.AperFunction,Conductor*%
G36*
X50716512Y-138247858D02*
G01*
X50741144Y-138276779D01*
X50801522Y-138374348D01*
X50806704Y-138379521D01*
X50888463Y-138461138D01*
X50922542Y-138523421D01*
X50917539Y-138594241D01*
X50888618Y-138639329D01*
X50806261Y-138721829D01*
X50797249Y-138733240D01*
X50741260Y-138824072D01*
X50688488Y-138871565D01*
X50618417Y-138882989D01*
X50553293Y-138854715D01*
X50513793Y-138795721D01*
X50508000Y-138757956D01*
X50508000Y-138343082D01*
X50528002Y-138274961D01*
X50581658Y-138228468D01*
X50651932Y-138218364D01*
X50716512Y-138247858D01*
G37*
%TD.AperFunction*%
%TA.AperFunction,Conductor*%
G36*
X50716512Y-134386055D02*
G01*
X50742454Y-134417141D01*
X50746909Y-134424675D01*
X50756551Y-134437104D01*
X50862896Y-134543449D01*
X50875322Y-134553089D01*
X51004779Y-134629648D01*
X51019210Y-134635893D01*
X51165065Y-134678269D01*
X51177667Y-134680570D01*
X51206084Y-134682807D01*
X51211014Y-134683000D01*
X51266270Y-134683000D01*
X51334391Y-134703002D01*
X51380884Y-134756658D01*
X51390988Y-134826932D01*
X51358120Y-134895253D01*
X51345914Y-134908251D01*
X51342361Y-134914713D01*
X51286333Y-134957916D01*
X51240621Y-134966500D01*
X51208498Y-134966500D01*
X51206050Y-134966693D01*
X51206042Y-134966693D01*
X51177579Y-134968933D01*
X51177574Y-134968934D01*
X51171169Y-134969438D01*
X51071231Y-134998472D01*
X51019012Y-135013643D01*
X51019010Y-135013644D01*
X51011399Y-135015855D01*
X51004572Y-135019892D01*
X51004573Y-135019892D01*
X50875020Y-135096509D01*
X50875017Y-135096511D01*
X50868193Y-135100547D01*
X50750547Y-135218193D01*
X50742453Y-135231880D01*
X50690560Y-135280332D01*
X50620709Y-135293037D01*
X50555078Y-135265961D01*
X50514505Y-135207701D01*
X50508000Y-135167740D01*
X50508000Y-134481279D01*
X50528002Y-134413158D01*
X50581658Y-134366665D01*
X50651932Y-134356561D01*
X50716512Y-134386055D01*
G37*
%TD.AperFunction*%
%TA.AperFunction,Conductor*%
G36*
X59434121Y-50528002D02*
G01*
X59480614Y-50581658D01*
X59492000Y-50634000D01*
X59492000Y-87432683D01*
X59471998Y-87500804D01*
X59418342Y-87547297D01*
X59348068Y-87557401D01*
X59321771Y-87550665D01*
X59242718Y-87521029D01*
X59242712Y-87521027D01*
X59235316Y-87518255D01*
X59173134Y-87511500D01*
X57029500Y-87511500D01*
X56961379Y-87491498D01*
X56914886Y-87437842D01*
X56903500Y-87385500D01*
X56903500Y-86755865D01*
X56923502Y-86687744D01*
X56977158Y-86641251D01*
X56989623Y-86636342D01*
X57026639Y-86623992D01*
X57048946Y-86616550D01*
X57199348Y-86523478D01*
X57324305Y-86398303D01*
X57417115Y-86247738D01*
X57472797Y-86079861D01*
X57483500Y-85975400D01*
X57483500Y-85174600D01*
X57472526Y-85068834D01*
X57416550Y-84901054D01*
X57323478Y-84750652D01*
X57236891Y-84664216D01*
X57202812Y-84601934D01*
X57207815Y-84531114D01*
X57236736Y-84486025D01*
X57319134Y-84403483D01*
X57324305Y-84398303D01*
X57417115Y-84247738D01*
X57472797Y-84079861D01*
X57483500Y-83975400D01*
X57483500Y-83174600D01*
X57472526Y-83068834D01*
X57416550Y-82901054D01*
X57323478Y-82750652D01*
X57198303Y-82625695D01*
X57047738Y-82532885D01*
X56994832Y-82515337D01*
X56936473Y-82474906D01*
X56909236Y-82409342D01*
X56908500Y-82395744D01*
X56908500Y-81724950D01*
X56928502Y-81656829D01*
X56945405Y-81635855D01*
X56974453Y-81606807D01*
X56978489Y-81599983D01*
X56978491Y-81599980D01*
X57055108Y-81470427D01*
X57059145Y-81463601D01*
X57105562Y-81303831D01*
X57108500Y-81266502D01*
X57108500Y-79958498D01*
X57105562Y-79921169D01*
X57059145Y-79761399D01*
X57042107Y-79732589D01*
X56978491Y-79625020D01*
X56978489Y-79625017D01*
X56974453Y-79618193D01*
X56856807Y-79500547D01*
X56849983Y-79496511D01*
X56849980Y-79496509D01*
X56720427Y-79419892D01*
X56720428Y-79419892D01*
X56713601Y-79415855D01*
X56705990Y-79413644D01*
X56705988Y-79413643D01*
X56653769Y-79398472D01*
X56553831Y-79369438D01*
X56547426Y-79368934D01*
X56547421Y-79368933D01*
X56518958Y-79366693D01*
X56518950Y-79366693D01*
X56516502Y-79366500D01*
X56284500Y-79366500D01*
X56216379Y-79346498D01*
X56169886Y-79292842D01*
X56158500Y-79240500D01*
X56158500Y-78887150D01*
X56178502Y-78819029D01*
X56232158Y-78772536D01*
X56245563Y-78767317D01*
X56364875Y-78728550D01*
X56371572Y-78726374D01*
X56517740Y-78639240D01*
X56522834Y-78634389D01*
X56522838Y-78634386D01*
X56590083Y-78570349D01*
X56640971Y-78521889D01*
X56735141Y-78380152D01*
X56795569Y-78221075D01*
X56819251Y-78052563D01*
X56819549Y-78031250D01*
X56800581Y-77862142D01*
X56744618Y-77701439D01*
X56654442Y-77557129D01*
X56534536Y-77436382D01*
X56518289Y-77426071D01*
X56479656Y-77401554D01*
X56390858Y-77345201D01*
X56230550Y-77288118D01*
X56061579Y-77267970D01*
X56054576Y-77268706D01*
X56054575Y-77268706D01*
X55899351Y-77285020D01*
X55899347Y-77285021D01*
X55892343Y-77285757D01*
X55885672Y-77288028D01*
X55737923Y-77338325D01*
X55737920Y-77338326D01*
X55731253Y-77340596D01*
X55725255Y-77344286D01*
X55725253Y-77344287D01*
X55592315Y-77426071D01*
X55592313Y-77426073D01*
X55586316Y-77429762D01*
X55581283Y-77434691D01*
X55560010Y-77455523D01*
X55497345Y-77488894D01*
X55471852Y-77491500D01*
X55133498Y-77491500D01*
X55131050Y-77491693D01*
X55131042Y-77491693D01*
X55102579Y-77493933D01*
X55102574Y-77493934D01*
X55096169Y-77494438D01*
X54996231Y-77523472D01*
X54944012Y-77538643D01*
X54944010Y-77538644D01*
X54936399Y-77540855D01*
X54929572Y-77544892D01*
X54929573Y-77544892D01*
X54800020Y-77621509D01*
X54800017Y-77621511D01*
X54793193Y-77625547D01*
X54675547Y-77743193D01*
X54671511Y-77750017D01*
X54671509Y-77750020D01*
X54609136Y-77855488D01*
X54590855Y-77886399D01*
X54544438Y-78046169D01*
X54541500Y-78083498D01*
X54541500Y-79240500D01*
X54521498Y-79308621D01*
X54467842Y-79355114D01*
X54415500Y-79366500D01*
X54183498Y-79366500D01*
X54181050Y-79366693D01*
X54181042Y-79366693D01*
X54152579Y-79368933D01*
X54152574Y-79368934D01*
X54146169Y-79369438D01*
X54046231Y-79398472D01*
X53994012Y-79413643D01*
X53994010Y-79413644D01*
X53986399Y-79415855D01*
X53979572Y-79419892D01*
X53979573Y-79419892D01*
X53850020Y-79496509D01*
X53850017Y-79496511D01*
X53843193Y-79500547D01*
X53725547Y-79618193D01*
X53721511Y-79625017D01*
X53721509Y-79625020D01*
X53657893Y-79732589D01*
X53640855Y-79761399D01*
X53594438Y-79921169D01*
X53591500Y-79958498D01*
X53591500Y-80412592D01*
X53571498Y-80480713D01*
X53517842Y-80527206D01*
X53506110Y-80531868D01*
X53481768Y-80540155D01*
X53450423Y-80550825D01*
X53450420Y-80550826D01*
X53443753Y-80553096D01*
X53437755Y-80556786D01*
X53437753Y-80556787D01*
X53304815Y-80638571D01*
X53304813Y-80638573D01*
X53298816Y-80642262D01*
X53177236Y-80761323D01*
X53085054Y-80904360D01*
X53026853Y-81064266D01*
X53005525Y-81233093D01*
X53022131Y-81402449D01*
X53075844Y-81563917D01*
X53079491Y-81569939D01*
X53079492Y-81569941D01*
X53141762Y-81672760D01*
X53163996Y-81709473D01*
X53282205Y-81831882D01*
X53424596Y-81925060D01*
X53431200Y-81927516D01*
X53431202Y-81927517D01*
X53467594Y-81941051D01*
X53584091Y-81984376D01*
X53752765Y-82006882D01*
X53759776Y-82006244D01*
X53759780Y-82006244D01*
X53915212Y-81992098D01*
X53922233Y-81991459D01*
X53928935Y-81989281D01*
X53928937Y-81989281D01*
X54077373Y-81941051D01*
X54077376Y-81941050D01*
X54084072Y-81938874D01*
X54189089Y-81876271D01*
X54253607Y-81858500D01*
X54616502Y-81858500D01*
X54618950Y-81858307D01*
X54618958Y-81858307D01*
X54647421Y-81856067D01*
X54647426Y-81856066D01*
X54653831Y-81855562D01*
X54753769Y-81826528D01*
X54805988Y-81811357D01*
X54805990Y-81811356D01*
X54813601Y-81809145D01*
X54842411Y-81792107D01*
X54949980Y-81728491D01*
X54949983Y-81728489D01*
X54956807Y-81724453D01*
X55074453Y-81606807D01*
X55078489Y-81599983D01*
X55078491Y-81599980D01*
X55155108Y-81470427D01*
X55159145Y-81463601D01*
X55205562Y-81303831D01*
X55208500Y-81266502D01*
X55208500Y-80109500D01*
X55228502Y-80041379D01*
X55282158Y-79994886D01*
X55334500Y-79983500D01*
X55365500Y-79983500D01*
X55433621Y-80003502D01*
X55480114Y-80057158D01*
X55491500Y-80109500D01*
X55491500Y-81266502D01*
X55494438Y-81303831D01*
X55540855Y-81463601D01*
X55544892Y-81470427D01*
X55623953Y-81604112D01*
X55641500Y-81668251D01*
X55641500Y-82395803D01*
X55621498Y-82463924D01*
X55567842Y-82510417D01*
X55555377Y-82515326D01*
X55507998Y-82531133D01*
X55507996Y-82531134D01*
X55501054Y-82533450D01*
X55350652Y-82626522D01*
X55225695Y-82751697D01*
X55132885Y-82902262D01*
X55077203Y-83070139D01*
X55066500Y-83174600D01*
X55066500Y-83975400D01*
X55077474Y-84081166D01*
X55133450Y-84248946D01*
X55226522Y-84399348D01*
X55231704Y-84404521D01*
X55313109Y-84485784D01*
X55347188Y-84548066D01*
X55342185Y-84618886D01*
X55313264Y-84663975D01*
X55237940Y-84739431D01*
X55225695Y-84751697D01*
X55132885Y-84902262D01*
X55077203Y-85070139D01*
X55066500Y-85174600D01*
X55066500Y-85975400D01*
X55077474Y-86081166D01*
X55133450Y-86248946D01*
X55226522Y-86399348D01*
X55351697Y-86524305D01*
X55357927Y-86528145D01*
X55357928Y-86528146D01*
X55495095Y-86612697D01*
X55502262Y-86617115D01*
X55550166Y-86633004D01*
X55608527Y-86673434D01*
X55635764Y-86738998D01*
X55636500Y-86752597D01*
X55636500Y-87581725D01*
X55616498Y-87649846D01*
X55611326Y-87657290D01*
X55524385Y-87773295D01*
X55473255Y-87909684D01*
X55466500Y-87971866D01*
X55466500Y-89068134D01*
X55473255Y-89130316D01*
X55524385Y-89266705D01*
X55611739Y-89383261D01*
X55728295Y-89470615D01*
X55864684Y-89521745D01*
X55926866Y-89528500D01*
X59173134Y-89528500D01*
X59235316Y-89521745D01*
X59242712Y-89518973D01*
X59242718Y-89518971D01*
X59321771Y-89489335D01*
X59392578Y-89484152D01*
X59454947Y-89518073D01*
X59489076Y-89580329D01*
X59492000Y-89607317D01*
X59492000Y-89973217D01*
X59471998Y-90041338D01*
X59418342Y-90087831D01*
X59348068Y-90097935D01*
X59321771Y-90091199D01*
X59242609Y-90061522D01*
X59227351Y-90057895D01*
X59176486Y-90052369D01*
X59169672Y-90052000D01*
X57822115Y-90052000D01*
X57806876Y-90056475D01*
X57805671Y-90057865D01*
X57804000Y-90065548D01*
X57804000Y-92049884D01*
X57808475Y-92065123D01*
X57809865Y-92066328D01*
X57817548Y-92067999D01*
X59169669Y-92067999D01*
X59176490Y-92067629D01*
X59227352Y-92062105D01*
X59242606Y-92058478D01*
X59321771Y-92028801D01*
X59392578Y-92023618D01*
X59454947Y-92057539D01*
X59489076Y-92119794D01*
X59492000Y-92146783D01*
X59492000Y-92512683D01*
X59471998Y-92580804D01*
X59418342Y-92627297D01*
X59348068Y-92637401D01*
X59321771Y-92630665D01*
X59242718Y-92601029D01*
X59242712Y-92601027D01*
X59235316Y-92598255D01*
X59173134Y-92591500D01*
X55926866Y-92591500D01*
X55864684Y-92598255D01*
X55728295Y-92649385D01*
X55611739Y-92736739D01*
X55524385Y-92853295D01*
X55473255Y-92989684D01*
X55466500Y-93051866D01*
X55466500Y-94148134D01*
X55473255Y-94210316D01*
X55524385Y-94346705D01*
X55611739Y-94463261D01*
X55728295Y-94550615D01*
X55864684Y-94601745D01*
X55926866Y-94608500D01*
X59173134Y-94608500D01*
X59235316Y-94601745D01*
X59242712Y-94598973D01*
X59242718Y-94598971D01*
X59321771Y-94569335D01*
X59392578Y-94564152D01*
X59454947Y-94598073D01*
X59489076Y-94660329D01*
X59492000Y-94687317D01*
X59492000Y-95052683D01*
X59471998Y-95120804D01*
X59418342Y-95167297D01*
X59348068Y-95177401D01*
X59321771Y-95170665D01*
X59242718Y-95141029D01*
X59242712Y-95141027D01*
X59235316Y-95138255D01*
X59173134Y-95131500D01*
X55926866Y-95131500D01*
X55864684Y-95138255D01*
X55728295Y-95189385D01*
X55611739Y-95276739D01*
X55524385Y-95393295D01*
X55473255Y-95529684D01*
X55466500Y-95591866D01*
X55466500Y-96688134D01*
X55473255Y-96750316D01*
X55524385Y-96886705D01*
X55611739Y-97003261D01*
X55728295Y-97090615D01*
X55864684Y-97141745D01*
X55926866Y-97148500D01*
X59173134Y-97148500D01*
X59235316Y-97141745D01*
X59242712Y-97138973D01*
X59242718Y-97138971D01*
X59321771Y-97109335D01*
X59392578Y-97104152D01*
X59454947Y-97138073D01*
X59489076Y-97200329D01*
X59492000Y-97227317D01*
X59492000Y-97593217D01*
X59471998Y-97661338D01*
X59418342Y-97707831D01*
X59348068Y-97717935D01*
X59321771Y-97711199D01*
X59242609Y-97681522D01*
X59227351Y-97677895D01*
X59176486Y-97672369D01*
X59169672Y-97672000D01*
X57822115Y-97672000D01*
X57806876Y-97676475D01*
X57805671Y-97677865D01*
X57804000Y-97685548D01*
X57804000Y-99669884D01*
X57808475Y-99685123D01*
X57809865Y-99686328D01*
X57817548Y-99687999D01*
X59169669Y-99687999D01*
X59176490Y-99687629D01*
X59227352Y-99682105D01*
X59242606Y-99678478D01*
X59321771Y-99648801D01*
X59392578Y-99643618D01*
X59454947Y-99677539D01*
X59489076Y-99739794D01*
X59492000Y-99766783D01*
X59492000Y-132985342D01*
X59471998Y-133053463D01*
X59418342Y-133099956D01*
X59348068Y-133110060D01*
X59330848Y-133106339D01*
X59210011Y-133071233D01*
X59210007Y-133071232D01*
X59203831Y-133069438D01*
X59197426Y-133068934D01*
X59197421Y-133068933D01*
X59168958Y-133066693D01*
X59168950Y-133066693D01*
X59166502Y-133066500D01*
X57858498Y-133066500D01*
X57856050Y-133066693D01*
X57856042Y-133066693D01*
X57827579Y-133068933D01*
X57827574Y-133068934D01*
X57821169Y-133069438D01*
X57721231Y-133098472D01*
X57669012Y-133113643D01*
X57669010Y-133113644D01*
X57661399Y-133115855D01*
X57654572Y-133119892D01*
X57654573Y-133119892D01*
X57525020Y-133196509D01*
X57525017Y-133196511D01*
X57518193Y-133200547D01*
X57400547Y-133318193D01*
X57396511Y-133325017D01*
X57396509Y-133325020D01*
X57363218Y-133381312D01*
X57315855Y-133461399D01*
X57269438Y-133621169D01*
X57266500Y-133658498D01*
X57266500Y-133890500D01*
X57246498Y-133958621D01*
X57192842Y-134005114D01*
X57140500Y-134016500D01*
X56741739Y-134016500D01*
X56673618Y-133996498D01*
X56652644Y-133979595D01*
X56270405Y-133597356D01*
X56236379Y-133535044D01*
X56233500Y-133508261D01*
X56233500Y-124759500D01*
X56253502Y-124691379D01*
X56307158Y-124644886D01*
X56359500Y-124633500D01*
X56423134Y-124633500D01*
X56485316Y-124626745D01*
X56621705Y-124575615D01*
X56738261Y-124488261D01*
X56825615Y-124371705D01*
X56876745Y-124235316D01*
X56883500Y-124173134D01*
X56883500Y-122476866D01*
X56876745Y-122414684D01*
X56825615Y-122278295D01*
X56738261Y-122161739D01*
X56621705Y-122074385D01*
X56613296Y-122071233D01*
X56613295Y-122071232D01*
X56563638Y-122052617D01*
X56517223Y-122035217D01*
X56460459Y-121992576D01*
X56435759Y-121926015D01*
X56450966Y-121856666D01*
X56472358Y-121828140D01*
X56631198Y-121669300D01*
X56762523Y-121481749D01*
X56764846Y-121476767D01*
X56764849Y-121476762D01*
X56856961Y-121279225D01*
X56856961Y-121279224D01*
X56859284Y-121274243D01*
X56918543Y-121053087D01*
X56938498Y-120825000D01*
X56918543Y-120596913D01*
X56859284Y-120375757D01*
X56856961Y-120370775D01*
X56764849Y-120173238D01*
X56764846Y-120173233D01*
X56762523Y-120168251D01*
X56631198Y-119980700D01*
X56564593Y-119914095D01*
X56530567Y-119851783D01*
X56535632Y-119780968D01*
X56564593Y-119735905D01*
X56631198Y-119669300D01*
X56762523Y-119481749D01*
X56764846Y-119476767D01*
X56764849Y-119476762D01*
X56856961Y-119279225D01*
X56856961Y-119279224D01*
X56859284Y-119274243D01*
X56918543Y-119053087D01*
X56938498Y-118825000D01*
X56918543Y-118596913D01*
X56859284Y-118375757D01*
X56856961Y-118370775D01*
X56764849Y-118173238D01*
X56764846Y-118173233D01*
X56762523Y-118168251D01*
X56631198Y-117980700D01*
X56469300Y-117818802D01*
X56464792Y-117815645D01*
X56464789Y-117815643D01*
X56286253Y-117690631D01*
X56281749Y-117687477D01*
X56276765Y-117685153D01*
X56274472Y-117683829D01*
X56225479Y-117632447D01*
X56212043Y-117562733D01*
X56238429Y-117496822D01*
X56274472Y-117465591D01*
X56286002Y-117458934D01*
X56338048Y-117422491D01*
X56346424Y-117412012D01*
X56339356Y-117398566D01*
X55637812Y-116697022D01*
X55623868Y-116689408D01*
X55622035Y-116689539D01*
X55615420Y-116693790D01*
X54909923Y-117399287D01*
X54903493Y-117411062D01*
X54912789Y-117423077D01*
X54963998Y-117458934D01*
X54975528Y-117465591D01*
X55024521Y-117516973D01*
X55037958Y-117586687D01*
X55011571Y-117652598D01*
X54975528Y-117683829D01*
X54973235Y-117685153D01*
X54968251Y-117687477D01*
X54963747Y-117690631D01*
X54785211Y-117815643D01*
X54785208Y-117815645D01*
X54780700Y-117818802D01*
X54618802Y-117980700D01*
X54487477Y-118168251D01*
X54485154Y-118173233D01*
X54485151Y-118173238D01*
X54393039Y-118370775D01*
X54390716Y-118375757D01*
X54331457Y-118596913D01*
X54311502Y-118825000D01*
X54331457Y-119053087D01*
X54390716Y-119274243D01*
X54393039Y-119279224D01*
X54393039Y-119279225D01*
X54485151Y-119476762D01*
X54485154Y-119476767D01*
X54487477Y-119481749D01*
X54618802Y-119669300D01*
X54685407Y-119735905D01*
X54719433Y-119798217D01*
X54714368Y-119869032D01*
X54685407Y-119914095D01*
X54618802Y-119980700D01*
X54487477Y-120168251D01*
X54485154Y-120173233D01*
X54485151Y-120173238D01*
X54393039Y-120370775D01*
X54390716Y-120375757D01*
X54331457Y-120596913D01*
X54311502Y-120825000D01*
X54331457Y-121053087D01*
X54390716Y-121274243D01*
X54393039Y-121279224D01*
X54393039Y-121279225D01*
X54485151Y-121476762D01*
X54485154Y-121476767D01*
X54487477Y-121481749D01*
X54618802Y-121669300D01*
X54777642Y-121828140D01*
X54811668Y-121890452D01*
X54806603Y-121961267D01*
X54764056Y-122018103D01*
X54732777Y-122035216D01*
X54686362Y-122052617D01*
X54636705Y-122071232D01*
X54636704Y-122071233D01*
X54628295Y-122074385D01*
X54511739Y-122161739D01*
X54424385Y-122278295D01*
X54373255Y-122414684D01*
X54366500Y-122476866D01*
X54366500Y-123014316D01*
X54346498Y-123082437D01*
X54292842Y-123128930D01*
X54222568Y-123139034D01*
X54157988Y-123109540D01*
X54151094Y-123103099D01*
X54133253Y-123085133D01*
X54133249Y-123085130D01*
X54128286Y-123080132D01*
X54112039Y-123069821D01*
X54073406Y-123045304D01*
X53984608Y-122988951D01*
X53824300Y-122931868D01*
X53655329Y-122911720D01*
X53648326Y-122912456D01*
X53648325Y-122912456D01*
X53493101Y-122928770D01*
X53493097Y-122928771D01*
X53486093Y-122929507D01*
X53479422Y-122931778D01*
X53331673Y-122982075D01*
X53331670Y-122982076D01*
X53325003Y-122984346D01*
X53319005Y-122988036D01*
X53319003Y-122988037D01*
X53186065Y-123069821D01*
X53186063Y-123069823D01*
X53180066Y-123073512D01*
X53058486Y-123192573D01*
X52966304Y-123335610D01*
X52908103Y-123495516D01*
X52886775Y-123664343D01*
X52903381Y-123833699D01*
X52957094Y-123995167D01*
X53045246Y-124140723D01*
X53050136Y-124145786D01*
X53050140Y-124145792D01*
X53076690Y-124173285D01*
X53109623Y-124236181D01*
X53103323Y-124306898D01*
X53059791Y-124362982D01*
X52992848Y-124386629D01*
X52985401Y-124386810D01*
X52929896Y-124386519D01*
X52792877Y-124385802D01*
X52792871Y-124385802D01*
X52788591Y-124385780D01*
X52784347Y-124386339D01*
X52784343Y-124386339D01*
X52665302Y-124402011D01*
X52517078Y-124421525D01*
X52252928Y-124493788D01*
X52248980Y-124495472D01*
X52004982Y-124599546D01*
X52004978Y-124599548D01*
X52001030Y-124601232D01*
X51947114Y-124633500D01*
X51769725Y-124739664D01*
X51769721Y-124739667D01*
X51766043Y-124741868D01*
X51552318Y-124913094D01*
X51363808Y-125111742D01*
X51204002Y-125334136D01*
X51075857Y-125576161D01*
X50981743Y-125833337D01*
X50923404Y-126100907D01*
X50901917Y-126373918D01*
X50917682Y-126647320D01*
X50918507Y-126651525D01*
X50918508Y-126651533D01*
X50948917Y-126806526D01*
X50970405Y-126916053D01*
X51059112Y-127175144D01*
X51182160Y-127419799D01*
X51184586Y-127423328D01*
X51184589Y-127423334D01*
X51334843Y-127641953D01*
X51337274Y-127645490D01*
X51521582Y-127848043D01*
X51731675Y-128023707D01*
X51735316Y-128025991D01*
X51960024Y-128166951D01*
X51960028Y-128166953D01*
X51963664Y-128169234D01*
X52088460Y-128225582D01*
X52209345Y-128280164D01*
X52209349Y-128280166D01*
X52213257Y-128281930D01*
X52434162Y-128347365D01*
X52493795Y-128385889D01*
X52523135Y-128450540D01*
X52512864Y-128520790D01*
X52466244Y-128574335D01*
X52438252Y-128587698D01*
X52383007Y-128606130D01*
X52383005Y-128606131D01*
X52376054Y-128608450D01*
X52225652Y-128701522D01*
X52100695Y-128826697D01*
X52007885Y-128977262D01*
X51952203Y-129145139D01*
X51941500Y-129249600D01*
X51941500Y-130050400D01*
X51952474Y-130156166D01*
X52008450Y-130323946D01*
X52101522Y-130474348D01*
X52106704Y-130479521D01*
X52188109Y-130560784D01*
X52222188Y-130623066D01*
X52217185Y-130693886D01*
X52188264Y-130738975D01*
X52112940Y-130814431D01*
X52100695Y-130826697D01*
X52007885Y-130977262D01*
X51952203Y-131145139D01*
X51941500Y-131249600D01*
X51941500Y-132050400D01*
X51952474Y-132156166D01*
X52008450Y-132323946D01*
X52101522Y-132474348D01*
X52226697Y-132599305D01*
X52377262Y-132692115D01*
X52430168Y-132709663D01*
X52488527Y-132750094D01*
X52515764Y-132815658D01*
X52516500Y-132829256D01*
X52516500Y-132941000D01*
X52496498Y-133009121D01*
X52442842Y-133055614D01*
X52390500Y-133067000D01*
X52134615Y-133067000D01*
X52119376Y-133071475D01*
X52118171Y-133072865D01*
X52116500Y-133080548D01*
X52116500Y-134003000D01*
X52096498Y-134071121D01*
X52042842Y-134117614D01*
X51990500Y-134129000D01*
X51734500Y-134129000D01*
X51666379Y-134108998D01*
X51619886Y-134055342D01*
X51608500Y-134003000D01*
X51608500Y-133085116D01*
X51604025Y-133069877D01*
X51602635Y-133068672D01*
X51594952Y-133067001D01*
X51211017Y-133067001D01*
X51206080Y-133067195D01*
X51177664Y-133069430D01*
X51165069Y-133071730D01*
X51019210Y-133114107D01*
X51004779Y-133120352D01*
X50875322Y-133196911D01*
X50862896Y-133206551D01*
X50756551Y-133312896D01*
X50746909Y-133325325D01*
X50742454Y-133332859D01*
X50690562Y-133381312D01*
X50620712Y-133394018D01*
X50555081Y-133366944D01*
X50514505Y-133308684D01*
X50508000Y-133268721D01*
X50508000Y-116330475D01*
X54312483Y-116330475D01*
X54331472Y-116547519D01*
X54333375Y-116558312D01*
X54389764Y-116768761D01*
X54393510Y-116779053D01*
X54485586Y-116976511D01*
X54491069Y-116986006D01*
X54527509Y-117038048D01*
X54537988Y-117046424D01*
X54551434Y-117039356D01*
X55252978Y-116337812D01*
X55259356Y-116326132D01*
X55989408Y-116326132D01*
X55989539Y-116327965D01*
X55993790Y-116334580D01*
X56699287Y-117040077D01*
X56711062Y-117046507D01*
X56723077Y-117037211D01*
X56758931Y-116986006D01*
X56764414Y-116976511D01*
X56856490Y-116779053D01*
X56860236Y-116768761D01*
X56916625Y-116558312D01*
X56918528Y-116547519D01*
X56937517Y-116330475D01*
X56937517Y-116319525D01*
X56918528Y-116102481D01*
X56916625Y-116091688D01*
X56860236Y-115881239D01*
X56856490Y-115870947D01*
X56764414Y-115673489D01*
X56758931Y-115663994D01*
X56722491Y-115611952D01*
X56712012Y-115603576D01*
X56698566Y-115610644D01*
X55997022Y-116312188D01*
X55989408Y-116326132D01*
X55259356Y-116326132D01*
X55260592Y-116323868D01*
X55260461Y-116322035D01*
X55256210Y-116315420D01*
X54550713Y-115609923D01*
X54538938Y-115603493D01*
X54526923Y-115612789D01*
X54491069Y-115663994D01*
X54485586Y-115673489D01*
X54393510Y-115870947D01*
X54389764Y-115881239D01*
X54333375Y-116091688D01*
X54331472Y-116102481D01*
X54312483Y-116319525D01*
X54312483Y-116330475D01*
X50508000Y-116330475D01*
X50508000Y-107657797D01*
X50528002Y-107589676D01*
X50581658Y-107543183D01*
X50651932Y-107533079D01*
X50716512Y-107562573D01*
X50724637Y-107570270D01*
X50838455Y-107688132D01*
X50934496Y-107750979D01*
X50980541Y-107805014D01*
X50991500Y-107856409D01*
X50991500Y-108475400D01*
X51002474Y-108581166D01*
X51058450Y-108748946D01*
X51151522Y-108899348D01*
X51235628Y-108983307D01*
X51238109Y-108985784D01*
X51272188Y-109048066D01*
X51267185Y-109118886D01*
X51238264Y-109163975D01*
X51193696Y-109208621D01*
X51150695Y-109251697D01*
X51146855Y-109257927D01*
X51146854Y-109257928D01*
X51068521Y-109385008D01*
X51057885Y-109402262D01*
X51055581Y-109409209D01*
X51010400Y-109545427D01*
X51002203Y-109570139D01*
X50991500Y-109674600D01*
X50991500Y-110475400D01*
X50991837Y-110478646D01*
X50991837Y-110478650D01*
X50992870Y-110488601D01*
X51002474Y-110581166D01*
X51004655Y-110587702D01*
X51004655Y-110587704D01*
X51045680Y-110710670D01*
X51058450Y-110748946D01*
X51151522Y-110899348D01*
X51276697Y-111024305D01*
X51427262Y-111117115D01*
X51507005Y-111143564D01*
X51588611Y-111170632D01*
X51588613Y-111170632D01*
X51595139Y-111172797D01*
X51601975Y-111173497D01*
X51601978Y-111173498D01*
X51645031Y-111177909D01*
X51699600Y-111183500D01*
X52035609Y-111183500D01*
X52103730Y-111203502D01*
X52150223Y-111257158D01*
X52160327Y-111327432D01*
X52130833Y-111392012D01*
X52085045Y-111425396D01*
X52001030Y-111461232D01*
X51981125Y-111473145D01*
X51769725Y-111599664D01*
X51769721Y-111599667D01*
X51766043Y-111601868D01*
X51552318Y-111773094D01*
X51363808Y-111971742D01*
X51204002Y-112194136D01*
X51075857Y-112436161D01*
X51074385Y-112440184D01*
X51074383Y-112440188D01*
X51067314Y-112459506D01*
X50981743Y-112693337D01*
X50923404Y-112960907D01*
X50901917Y-113233918D01*
X50917682Y-113507320D01*
X50918507Y-113511525D01*
X50918508Y-113511533D01*
X50929127Y-113565657D01*
X50970405Y-113776053D01*
X50971792Y-113780103D01*
X50971793Y-113780108D01*
X50992605Y-113840895D01*
X51059112Y-114035144D01*
X51182160Y-114279799D01*
X51184586Y-114283328D01*
X51184589Y-114283334D01*
X51334843Y-114501953D01*
X51337274Y-114505490D01*
X51521582Y-114708043D01*
X51731675Y-114883707D01*
X51735316Y-114885991D01*
X51960024Y-115026951D01*
X51960028Y-115026953D01*
X51963664Y-115029234D01*
X52031544Y-115059883D01*
X52209345Y-115140164D01*
X52209349Y-115140166D01*
X52213257Y-115141930D01*
X52217377Y-115143150D01*
X52217376Y-115143150D01*
X52471723Y-115218491D01*
X52471727Y-115218492D01*
X52475836Y-115219709D01*
X52480070Y-115220357D01*
X52480075Y-115220358D01*
X52742298Y-115260483D01*
X52742300Y-115260483D01*
X52746540Y-115261132D01*
X52885912Y-115263322D01*
X53016071Y-115265367D01*
X53016077Y-115265367D01*
X53020362Y-115265434D01*
X53247165Y-115237988D01*
X54903576Y-115237988D01*
X54910644Y-115251434D01*
X55612188Y-115952978D01*
X55626132Y-115960592D01*
X55627965Y-115960461D01*
X55634580Y-115956210D01*
X56340077Y-115250713D01*
X56346507Y-115238938D01*
X56337211Y-115226923D01*
X56286006Y-115191069D01*
X56276511Y-115185586D01*
X56079053Y-115093510D01*
X56068761Y-115089764D01*
X55858312Y-115033375D01*
X55847519Y-115031472D01*
X55630475Y-115012483D01*
X55619525Y-115012483D01*
X55402481Y-115031472D01*
X55391688Y-115033375D01*
X55181239Y-115089764D01*
X55170947Y-115093510D01*
X54973489Y-115185586D01*
X54963994Y-115191069D01*
X54911952Y-115227509D01*
X54903576Y-115237988D01*
X53247165Y-115237988D01*
X53292235Y-115232534D01*
X53557127Y-115163041D01*
X53561087Y-115161401D01*
X53561092Y-115161399D01*
X53734033Y-115089764D01*
X53810136Y-115058241D01*
X54046582Y-114920073D01*
X54262089Y-114751094D01*
X54303809Y-114708043D01*
X54449686Y-114557509D01*
X54452669Y-114554431D01*
X54455202Y-114550983D01*
X54455206Y-114550978D01*
X54612257Y-114337178D01*
X54614795Y-114333723D01*
X54642154Y-114283334D01*
X54743418Y-114096830D01*
X54743419Y-114096828D01*
X54745468Y-114093054D01*
X54842269Y-113836877D01*
X54903407Y-113569933D01*
X54927751Y-113297161D01*
X54928193Y-113255000D01*
X54909567Y-112981778D01*
X54854032Y-112713612D01*
X54762617Y-112455465D01*
X54637013Y-112212112D01*
X54627040Y-112197921D01*
X54482008Y-111991562D01*
X54479545Y-111988057D01*
X54293125Y-111787445D01*
X54289810Y-111784731D01*
X54289806Y-111784728D01*
X54084523Y-111616706D01*
X54081205Y-111613990D01*
X53847704Y-111470901D01*
X53843768Y-111469173D01*
X53600873Y-111362549D01*
X53600869Y-111362548D01*
X53596945Y-111360825D01*
X53333566Y-111285800D01*
X53329324Y-111285196D01*
X53329318Y-111285195D01*
X53162954Y-111261518D01*
X53098331Y-111232117D01*
X53059863Y-111172446D01*
X53059761Y-111101449D01*
X53098060Y-111041668D01*
X53114399Y-111029635D01*
X53124348Y-111023478D01*
X53249305Y-110898303D01*
X53258549Y-110883307D01*
X53290071Y-110832169D01*
X53342844Y-110784675D01*
X53412915Y-110773252D01*
X53461470Y-110789832D01*
X53536399Y-110834145D01*
X53544010Y-110836356D01*
X53544012Y-110836357D01*
X53596231Y-110851528D01*
X53696169Y-110880562D01*
X53702574Y-110881066D01*
X53702579Y-110881067D01*
X53731042Y-110883307D01*
X53731050Y-110883307D01*
X53733498Y-110883500D01*
X55041502Y-110883500D01*
X55043950Y-110883307D01*
X55043958Y-110883307D01*
X55072421Y-110881067D01*
X55072426Y-110881066D01*
X55078831Y-110880562D01*
X55178769Y-110851528D01*
X55230988Y-110836357D01*
X55230990Y-110836356D01*
X55238601Y-110834145D01*
X55322250Y-110784675D01*
X55374980Y-110753491D01*
X55374983Y-110753489D01*
X55381807Y-110749453D01*
X55499453Y-110631807D01*
X55503489Y-110624983D01*
X55503491Y-110624980D01*
X55580108Y-110495427D01*
X55584145Y-110488601D01*
X55630562Y-110328831D01*
X55633500Y-110291502D01*
X55633500Y-110059500D01*
X55653502Y-109991379D01*
X55707158Y-109944886D01*
X55759500Y-109933500D01*
X56916502Y-109933500D01*
X56918950Y-109933307D01*
X56918958Y-109933307D01*
X56947421Y-109931067D01*
X56947426Y-109931066D01*
X56953831Y-109930562D01*
X57053769Y-109901528D01*
X57105988Y-109886357D01*
X57105990Y-109886356D01*
X57113601Y-109884145D01*
X57142411Y-109867107D01*
X57249980Y-109803491D01*
X57249983Y-109803489D01*
X57256807Y-109799453D01*
X57374453Y-109681807D01*
X57378489Y-109674983D01*
X57378491Y-109674980D01*
X57455108Y-109545427D01*
X57459145Y-109538601D01*
X57505562Y-109378831D01*
X57507031Y-109360178D01*
X57508307Y-109343958D01*
X57508307Y-109343950D01*
X57508500Y-109341502D01*
X57508500Y-108908498D01*
X57508187Y-108904521D01*
X57506067Y-108877579D01*
X57506066Y-108877574D01*
X57505562Y-108871169D01*
X57459145Y-108711399D01*
X57385992Y-108587704D01*
X57378491Y-108575020D01*
X57378489Y-108575017D01*
X57374453Y-108568193D01*
X57256807Y-108450547D01*
X57249983Y-108446511D01*
X57249980Y-108446509D01*
X57120427Y-108369892D01*
X57120428Y-108369892D01*
X57113601Y-108365855D01*
X57105991Y-108363644D01*
X57105986Y-108363642D01*
X56969348Y-108323946D01*
X56909512Y-108285733D01*
X56879834Y-108221237D01*
X56878500Y-108202949D01*
X56878500Y-106348999D01*
X56898502Y-106280878D01*
X56949065Y-106235850D01*
X56993684Y-106213991D01*
X57182243Y-106079494D01*
X57346303Y-105916005D01*
X57481458Y-105727917D01*
X57584078Y-105520280D01*
X57651408Y-105298671D01*
X57681640Y-105069041D01*
X57683327Y-105000000D01*
X57677032Y-104923434D01*
X57664773Y-104774318D01*
X57664772Y-104774312D01*
X57664349Y-104769167D01*
X57607925Y-104544533D01*
X57515570Y-104332131D01*
X57389764Y-104137665D01*
X57233887Y-103966358D01*
X57229836Y-103963159D01*
X57229832Y-103963155D01*
X57056177Y-103826011D01*
X57056172Y-103826008D01*
X57052123Y-103822810D01*
X57047607Y-103820317D01*
X57047604Y-103820315D01*
X56853879Y-103713373D01*
X56853875Y-103713371D01*
X56849355Y-103710876D01*
X56844486Y-103709152D01*
X56844482Y-103709150D01*
X56635903Y-103635288D01*
X56635899Y-103635287D01*
X56631028Y-103633562D01*
X56625935Y-103632655D01*
X56625932Y-103632654D01*
X56408095Y-103593851D01*
X56408089Y-103593850D01*
X56403006Y-103592945D01*
X56330096Y-103592054D01*
X56176581Y-103590179D01*
X56176579Y-103590179D01*
X56171411Y-103590116D01*
X55942464Y-103625150D01*
X55722314Y-103697106D01*
X55717726Y-103699494D01*
X55717722Y-103699496D01*
X55521461Y-103801663D01*
X55516872Y-103804052D01*
X55512739Y-103807155D01*
X55512736Y-103807157D01*
X55440085Y-103861705D01*
X55331655Y-103943117D01*
X55319217Y-103956133D01*
X55314170Y-103961414D01*
X55252646Y-103996844D01*
X55181733Y-103993387D01*
X55123947Y-103952141D01*
X55105094Y-103918592D01*
X55083768Y-103861705D01*
X55083767Y-103861704D01*
X55080615Y-103853295D01*
X54993261Y-103736739D01*
X54876705Y-103649385D01*
X54740316Y-103598255D01*
X54678134Y-103591500D01*
X52781866Y-103591500D01*
X52719684Y-103598255D01*
X52712288Y-103601027D01*
X52712282Y-103601029D01*
X52642746Y-103627097D01*
X52571939Y-103632280D01*
X52509570Y-103598359D01*
X52475441Y-103536103D01*
X52473173Y-103496272D01*
X52482672Y-103403560D01*
X52483000Y-103397145D01*
X52483000Y-103272115D01*
X52478525Y-103256876D01*
X52477135Y-103255671D01*
X52469452Y-103254000D01*
X51147000Y-103254000D01*
X51078879Y-103233998D01*
X51032386Y-103180342D01*
X51021000Y-103128000D01*
X51021000Y-102727885D01*
X51529000Y-102727885D01*
X51533475Y-102743124D01*
X51534865Y-102744329D01*
X51542548Y-102746000D01*
X52464884Y-102746000D01*
X52480123Y-102741525D01*
X52481328Y-102740135D01*
X52482999Y-102732452D01*
X52482999Y-102602905D01*
X52482662Y-102596386D01*
X52472743Y-102500794D01*
X52469851Y-102487400D01*
X52418412Y-102333216D01*
X52412239Y-102320038D01*
X52326937Y-102182193D01*
X52317901Y-102170792D01*
X52203171Y-102056261D01*
X52191760Y-102047249D01*
X52053757Y-101962184D01*
X52040576Y-101956037D01*
X51886290Y-101904862D01*
X51872914Y-101901995D01*
X51778562Y-101892328D01*
X51772145Y-101892000D01*
X51547115Y-101892000D01*
X51531876Y-101896475D01*
X51530671Y-101897865D01*
X51529000Y-101905548D01*
X51529000Y-102727885D01*
X51021000Y-102727885D01*
X51021000Y-101910116D01*
X51016525Y-101894877D01*
X51015135Y-101893672D01*
X51007452Y-101892001D01*
X50777905Y-101892001D01*
X50771386Y-101892338D01*
X50675796Y-101902256D01*
X50660593Y-101905539D01*
X50589785Y-101900365D01*
X50533015Y-101857730D01*
X50508307Y-101791172D01*
X50508000Y-101782377D01*
X50508000Y-101314343D01*
X53736775Y-101314343D01*
X53753381Y-101483699D01*
X53807094Y-101645167D01*
X53810741Y-101651189D01*
X53810742Y-101651191D01*
X53824497Y-101673902D01*
X53895246Y-101790723D01*
X54013455Y-101913132D01*
X54019351Y-101916990D01*
X54109942Y-101976271D01*
X54155846Y-102006310D01*
X54162450Y-102008766D01*
X54162452Y-102008767D01*
X54198844Y-102022301D01*
X54315341Y-102065626D01*
X54484015Y-102088132D01*
X54491026Y-102087494D01*
X54491030Y-102087494D01*
X54646462Y-102073348D01*
X54653483Y-102072709D01*
X54660185Y-102070531D01*
X54660187Y-102070531D01*
X54808623Y-102022301D01*
X54808626Y-102022300D01*
X54815322Y-102020124D01*
X54821373Y-102016517D01*
X54821375Y-102016516D01*
X54888887Y-101976271D01*
X54953404Y-101958500D01*
X57450712Y-101958500D01*
X57519705Y-101979068D01*
X57561335Y-102006310D01*
X57567939Y-102008766D01*
X57567941Y-102008767D01*
X57604333Y-102022301D01*
X57720830Y-102065626D01*
X57889504Y-102088132D01*
X57896515Y-102087494D01*
X57896519Y-102087494D01*
X58051951Y-102073348D01*
X58058972Y-102072709D01*
X58065674Y-102070531D01*
X58065676Y-102070531D01*
X58214112Y-102022301D01*
X58214115Y-102022300D01*
X58220811Y-102020124D01*
X58366979Y-101932990D01*
X58372073Y-101928139D01*
X58372077Y-101928136D01*
X58446010Y-101857730D01*
X58490210Y-101815639D01*
X58584380Y-101673902D01*
X58644808Y-101514825D01*
X58668490Y-101346313D01*
X58668788Y-101325000D01*
X58649820Y-101155892D01*
X58593857Y-100995189D01*
X58587872Y-100985610D01*
X58565909Y-100950464D01*
X58503681Y-100850879D01*
X58383775Y-100730132D01*
X58367528Y-100719821D01*
X58291994Y-100671886D01*
X58240097Y-100638951D01*
X58079789Y-100581868D01*
X57910818Y-100561720D01*
X57903815Y-100562456D01*
X57903814Y-100562456D01*
X57748590Y-100578770D01*
X57748586Y-100578771D01*
X57741582Y-100579507D01*
X57580492Y-100634346D01*
X57517957Y-100672818D01*
X57451937Y-100691500D01*
X54954018Y-100691500D01*
X54886506Y-100671887D01*
X54834608Y-100638951D01*
X54674300Y-100581868D01*
X54505329Y-100561720D01*
X54498326Y-100562456D01*
X54498325Y-100562456D01*
X54343101Y-100578770D01*
X54343097Y-100578771D01*
X54336093Y-100579507D01*
X54329422Y-100581778D01*
X54181673Y-100632075D01*
X54181670Y-100632076D01*
X54175003Y-100634346D01*
X54169005Y-100638036D01*
X54169003Y-100638037D01*
X54036065Y-100719821D01*
X54036063Y-100719823D01*
X54030066Y-100723512D01*
X53908486Y-100842573D01*
X53816304Y-100985610D01*
X53758103Y-101145516D01*
X53736775Y-101314343D01*
X50508000Y-101314343D01*
X50508000Y-99748561D01*
X50528002Y-99680440D01*
X50581658Y-99633947D01*
X50651932Y-99623843D01*
X50677599Y-99632472D01*
X50678295Y-99630615D01*
X50814684Y-99681745D01*
X50876866Y-99688500D01*
X54123134Y-99688500D01*
X54185316Y-99681745D01*
X54321705Y-99630615D01*
X54438261Y-99543261D01*
X54525615Y-99426705D01*
X54576745Y-99290316D01*
X54583500Y-99228134D01*
X54583500Y-99224669D01*
X55467001Y-99224669D01*
X55467371Y-99231490D01*
X55472895Y-99282352D01*
X55476521Y-99297604D01*
X55521676Y-99418054D01*
X55530214Y-99433649D01*
X55606715Y-99535724D01*
X55619276Y-99548285D01*
X55721351Y-99624786D01*
X55736946Y-99633324D01*
X55857394Y-99678478D01*
X55872649Y-99682105D01*
X55923514Y-99687631D01*
X55930328Y-99688000D01*
X57277885Y-99688000D01*
X57293124Y-99683525D01*
X57294329Y-99682135D01*
X57296000Y-99674452D01*
X57296000Y-98952115D01*
X57291525Y-98936876D01*
X57290135Y-98935671D01*
X57282452Y-98934000D01*
X55485116Y-98934000D01*
X55469877Y-98938475D01*
X55468672Y-98939865D01*
X55467001Y-98947548D01*
X55467001Y-99224669D01*
X54583500Y-99224669D01*
X54583500Y-98407885D01*
X55467000Y-98407885D01*
X55471475Y-98423124D01*
X55472865Y-98424329D01*
X55480548Y-98426000D01*
X57277885Y-98426000D01*
X57293124Y-98421525D01*
X57294329Y-98420135D01*
X57296000Y-98412452D01*
X57296000Y-97690116D01*
X57291525Y-97674877D01*
X57290135Y-97673672D01*
X57282452Y-97672001D01*
X55930331Y-97672001D01*
X55923510Y-97672371D01*
X55872648Y-97677895D01*
X55857396Y-97681521D01*
X55736946Y-97726676D01*
X55721351Y-97735214D01*
X55619276Y-97811715D01*
X55606715Y-97824276D01*
X55530214Y-97926351D01*
X55521676Y-97941946D01*
X55476522Y-98062394D01*
X55472895Y-98077649D01*
X55467369Y-98128514D01*
X55467000Y-98135328D01*
X55467000Y-98407885D01*
X54583500Y-98407885D01*
X54583500Y-98131866D01*
X54576745Y-98069684D01*
X54525615Y-97933295D01*
X54438261Y-97816739D01*
X54321705Y-97729385D01*
X54185316Y-97678255D01*
X54123134Y-97671500D01*
X53381172Y-97671500D01*
X53313051Y-97651498D01*
X53266558Y-97597842D01*
X53255957Y-97559544D01*
X53245116Y-97462891D01*
X53244331Y-97455892D01*
X53195593Y-97315936D01*
X53192079Y-97245028D01*
X53227460Y-97183476D01*
X53290502Y-97150823D01*
X53314584Y-97148500D01*
X54123134Y-97148500D01*
X54185316Y-97141745D01*
X54321705Y-97090615D01*
X54438261Y-97003261D01*
X54525615Y-96886705D01*
X54576745Y-96750316D01*
X54583500Y-96688134D01*
X54583500Y-95591866D01*
X54576745Y-95529684D01*
X54525615Y-95393295D01*
X54527223Y-95392692D01*
X54514309Y-95333640D01*
X54539047Y-95267092D01*
X54575481Y-95234262D01*
X54655441Y-95186597D01*
X54655447Y-95186592D01*
X54661490Y-95182990D01*
X54666584Y-95178139D01*
X54666588Y-95178136D01*
X54733833Y-95114099D01*
X54784721Y-95065639D01*
X54878891Y-94923902D01*
X54939319Y-94764825D01*
X54963001Y-94596313D01*
X54963299Y-94575000D01*
X54944331Y-94405892D01*
X54888368Y-94245189D01*
X54798192Y-94100879D01*
X54678286Y-93980132D01*
X54641984Y-93957094D01*
X54595187Y-93903705D01*
X54583500Y-93850710D01*
X54583500Y-93051866D01*
X54576745Y-92989684D01*
X54525615Y-92853295D01*
X54438261Y-92736739D01*
X54321705Y-92649385D01*
X54185316Y-92598255D01*
X54123134Y-92591500D01*
X51880861Y-92591500D01*
X51812740Y-92571498D01*
X51766247Y-92517842D01*
X51756143Y-92447568D01*
X51763073Y-92420757D01*
X51781817Y-92371414D01*
X51781819Y-92371406D01*
X51784319Y-92364825D01*
X51785299Y-92357849D01*
X51786138Y-92354582D01*
X51819085Y-92296819D01*
X52010501Y-92105404D01*
X52072813Y-92071379D01*
X52099596Y-92068500D01*
X54123134Y-92068500D01*
X54185316Y-92061745D01*
X54321705Y-92010615D01*
X54438261Y-91923261D01*
X54525615Y-91806705D01*
X54576745Y-91670316D01*
X54583500Y-91608134D01*
X54583500Y-91604669D01*
X55467001Y-91604669D01*
X55467371Y-91611490D01*
X55472895Y-91662352D01*
X55476521Y-91677604D01*
X55521676Y-91798054D01*
X55530214Y-91813649D01*
X55606715Y-91915724D01*
X55619276Y-91928285D01*
X55721351Y-92004786D01*
X55736946Y-92013324D01*
X55857394Y-92058478D01*
X55872649Y-92062105D01*
X55923514Y-92067631D01*
X55930328Y-92068000D01*
X57277885Y-92068000D01*
X57293124Y-92063525D01*
X57294329Y-92062135D01*
X57296000Y-92054452D01*
X57296000Y-91332115D01*
X57291525Y-91316876D01*
X57290135Y-91315671D01*
X57282452Y-91314000D01*
X55485116Y-91314000D01*
X55469877Y-91318475D01*
X55468672Y-91319865D01*
X55467001Y-91327548D01*
X55467001Y-91604669D01*
X54583500Y-91604669D01*
X54583500Y-90787885D01*
X55467000Y-90787885D01*
X55471475Y-90803124D01*
X55472865Y-90804329D01*
X55480548Y-90806000D01*
X57277885Y-90806000D01*
X57293124Y-90801525D01*
X57294329Y-90800135D01*
X57296000Y-90792452D01*
X57296000Y-90070116D01*
X57291525Y-90054877D01*
X57290135Y-90053672D01*
X57282452Y-90052001D01*
X55930331Y-90052001D01*
X55923510Y-90052371D01*
X55872648Y-90057895D01*
X55857396Y-90061521D01*
X55736946Y-90106676D01*
X55721351Y-90115214D01*
X55619276Y-90191715D01*
X55606715Y-90204276D01*
X55530214Y-90306351D01*
X55521676Y-90321946D01*
X55476522Y-90442394D01*
X55472895Y-90457649D01*
X55467369Y-90508514D01*
X55467000Y-90515328D01*
X55467000Y-90787885D01*
X54583500Y-90787885D01*
X54583500Y-90511866D01*
X54576745Y-90449684D01*
X54525615Y-90313295D01*
X54438261Y-90196739D01*
X54321705Y-90109385D01*
X54185316Y-90058255D01*
X54123134Y-90051500D01*
X50876866Y-90051500D01*
X50814684Y-90058255D01*
X50678295Y-90109385D01*
X50676921Y-90105720D01*
X50625765Y-90117170D01*
X50559097Y-90092758D01*
X50516210Y-90036178D01*
X50508000Y-89991439D01*
X50508000Y-89588561D01*
X50528002Y-89520440D01*
X50581658Y-89473947D01*
X50651932Y-89463843D01*
X50677599Y-89472472D01*
X50678295Y-89470615D01*
X50814684Y-89521745D01*
X50876866Y-89528500D01*
X54123134Y-89528500D01*
X54185316Y-89521745D01*
X54321705Y-89470615D01*
X54438261Y-89383261D01*
X54525615Y-89266705D01*
X54576745Y-89130316D01*
X54583500Y-89068134D01*
X54583500Y-87971866D01*
X54576745Y-87909684D01*
X54525615Y-87773295D01*
X54520230Y-87766109D01*
X54518014Y-87763153D01*
X54516860Y-87759952D01*
X54515921Y-87758237D01*
X54516189Y-87758090D01*
X54493438Y-87694984D01*
X54493299Y-87695000D01*
X54493233Y-87694416D01*
X54474331Y-87525892D01*
X54471375Y-87517402D01*
X54420686Y-87371846D01*
X54418368Y-87365189D01*
X54412383Y-87355610D01*
X54390420Y-87320464D01*
X54328192Y-87220879D01*
X54208286Y-87100132D01*
X54192039Y-87089821D01*
X54153406Y-87065304D01*
X54064608Y-87008951D01*
X53904300Y-86951868D01*
X53735329Y-86931720D01*
X53728326Y-86932456D01*
X53728325Y-86932456D01*
X53573101Y-86948770D01*
X53573097Y-86948771D01*
X53566093Y-86949507D01*
X53559422Y-86951778D01*
X53411673Y-87002075D01*
X53411670Y-87002076D01*
X53405003Y-87004346D01*
X53399005Y-87008036D01*
X53399003Y-87008037D01*
X53266065Y-87089821D01*
X53266063Y-87089823D01*
X53260066Y-87093512D01*
X53138486Y-87212573D01*
X53046304Y-87355610D01*
X53043894Y-87362232D01*
X53019740Y-87428595D01*
X52977646Y-87485766D01*
X52911325Y-87511104D01*
X52901339Y-87511500D01*
X50876866Y-87511500D01*
X50814684Y-87518255D01*
X50678295Y-87569385D01*
X50676921Y-87565720D01*
X50625765Y-87577170D01*
X50559097Y-87552758D01*
X50516210Y-87496178D01*
X50508000Y-87451439D01*
X50508000Y-73725877D01*
X50528002Y-73657756D01*
X50581658Y-73611263D01*
X50646843Y-73600533D01*
X50724600Y-73608500D01*
X51725400Y-73608500D01*
X51728646Y-73608163D01*
X51728650Y-73608163D01*
X51824308Y-73598238D01*
X51824312Y-73598237D01*
X51831166Y-73597526D01*
X51837702Y-73595345D01*
X51837704Y-73595345D01*
X51991998Y-73543868D01*
X51998946Y-73541550D01*
X52145309Y-73450977D01*
X52213762Y-73432139D01*
X52281532Y-73453300D01*
X52329595Y-73513891D01*
X52362076Y-73600533D01*
X52379385Y-73646705D01*
X52466739Y-73763261D01*
X52583295Y-73850615D01*
X52719684Y-73901745D01*
X52781866Y-73908500D01*
X54678134Y-73908500D01*
X54740316Y-73901745D01*
X54876705Y-73850615D01*
X54993261Y-73763261D01*
X55080615Y-73646705D01*
X55105180Y-73581178D01*
X55147822Y-73524414D01*
X55214383Y-73499714D01*
X55283732Y-73514921D01*
X55303647Y-73528464D01*
X55368724Y-73582492D01*
X55459349Y-73657730D01*
X55659322Y-73774584D01*
X55875694Y-73857209D01*
X55880760Y-73858240D01*
X55880761Y-73858240D01*
X55933846Y-73869040D01*
X56102656Y-73903385D01*
X56232089Y-73908131D01*
X56328949Y-73911683D01*
X56328953Y-73911683D01*
X56334113Y-73911872D01*
X56339233Y-73911216D01*
X56339235Y-73911216D01*
X56413166Y-73901745D01*
X56563847Y-73882442D01*
X56568795Y-73880957D01*
X56568802Y-73880956D01*
X56780747Y-73817369D01*
X56785690Y-73815886D01*
X56866236Y-73776427D01*
X56989049Y-73716262D01*
X56989052Y-73716260D01*
X56993684Y-73713991D01*
X57182243Y-73579494D01*
X57346303Y-73416005D01*
X57481458Y-73227917D01*
X57584078Y-73020280D01*
X57651408Y-72798671D01*
X57681640Y-72569041D01*
X57683327Y-72500000D01*
X57677032Y-72423434D01*
X57664773Y-72274318D01*
X57664772Y-72274312D01*
X57664349Y-72269167D01*
X57607925Y-72044533D01*
X57515570Y-71832131D01*
X57389764Y-71637665D01*
X57233887Y-71466358D01*
X57229836Y-71463159D01*
X57229832Y-71463155D01*
X57056177Y-71326011D01*
X57056172Y-71326008D01*
X57052123Y-71322810D01*
X57047607Y-71320317D01*
X57047604Y-71320315D01*
X56853879Y-71213373D01*
X56853875Y-71213371D01*
X56849355Y-71210876D01*
X56844486Y-71209152D01*
X56844482Y-71209150D01*
X56635903Y-71135288D01*
X56635899Y-71135287D01*
X56631028Y-71133562D01*
X56625935Y-71132655D01*
X56625932Y-71132654D01*
X56408095Y-71093851D01*
X56408089Y-71093850D01*
X56403006Y-71092945D01*
X56330096Y-71092054D01*
X56176581Y-71090179D01*
X56176579Y-71090179D01*
X56171411Y-71090116D01*
X55942464Y-71125150D01*
X55722314Y-71197106D01*
X55717726Y-71199494D01*
X55717722Y-71199496D01*
X55521461Y-71301663D01*
X55516872Y-71304052D01*
X55512739Y-71307155D01*
X55512736Y-71307157D01*
X55335790Y-71440012D01*
X55331655Y-71443117D01*
X55317542Y-71457885D01*
X55314170Y-71461414D01*
X55252646Y-71496844D01*
X55181733Y-71493387D01*
X55123947Y-71452141D01*
X55105094Y-71418592D01*
X55083768Y-71361705D01*
X55083767Y-71361704D01*
X55080615Y-71353295D01*
X54993261Y-71236739D01*
X54876705Y-71149385D01*
X54740316Y-71098255D01*
X54678134Y-71091500D01*
X52781866Y-71091500D01*
X52719684Y-71098255D01*
X52712288Y-71101027D01*
X52712282Y-71101029D01*
X52589410Y-71147092D01*
X52518603Y-71152275D01*
X52456234Y-71118354D01*
X52422105Y-71056099D01*
X52421980Y-71002701D01*
X52423005Y-70997921D01*
X52432672Y-70903562D01*
X52433000Y-70897145D01*
X52433000Y-70772115D01*
X52428525Y-70756876D01*
X52427135Y-70755671D01*
X52419452Y-70754000D01*
X51097000Y-70754000D01*
X51028879Y-70733998D01*
X50982386Y-70680342D01*
X50971000Y-70628000D01*
X50971000Y-70227885D01*
X51479000Y-70227885D01*
X51483475Y-70243124D01*
X51484865Y-70244329D01*
X51492548Y-70246000D01*
X52414884Y-70246000D01*
X52430123Y-70241525D01*
X52431328Y-70240135D01*
X52432999Y-70232452D01*
X52432999Y-70102905D01*
X52432662Y-70096386D01*
X52422743Y-70000794D01*
X52419851Y-69987400D01*
X52368412Y-69833216D01*
X52362239Y-69820038D01*
X52276937Y-69682193D01*
X52267901Y-69670792D01*
X52153171Y-69556261D01*
X52141760Y-69547249D01*
X52003757Y-69462184D01*
X51990576Y-69456037D01*
X51836290Y-69404862D01*
X51822914Y-69401995D01*
X51728562Y-69392328D01*
X51722145Y-69392000D01*
X51497115Y-69392000D01*
X51481876Y-69396475D01*
X51480671Y-69397865D01*
X51479000Y-69405548D01*
X51479000Y-70227885D01*
X50971000Y-70227885D01*
X50971000Y-69410116D01*
X50966525Y-69394877D01*
X50965135Y-69393672D01*
X50957452Y-69392001D01*
X50727905Y-69392001D01*
X50721386Y-69392338D01*
X50647003Y-69400056D01*
X50577182Y-69387191D01*
X50525400Y-69338620D01*
X50508000Y-69274729D01*
X50508000Y-66875000D01*
X51236835Y-66875000D01*
X51255465Y-67111711D01*
X51310895Y-67342594D01*
X51312788Y-67347165D01*
X51312789Y-67347167D01*
X51399772Y-67557163D01*
X51401760Y-67561963D01*
X51404346Y-67566183D01*
X51523241Y-67760202D01*
X51523245Y-67760208D01*
X51525824Y-67764416D01*
X51680031Y-67944969D01*
X51860584Y-68099176D01*
X51864792Y-68101755D01*
X51864798Y-68101759D01*
X52058084Y-68220205D01*
X52063037Y-68223240D01*
X52067607Y-68225133D01*
X52067611Y-68225135D01*
X52277833Y-68312211D01*
X52282406Y-68314105D01*
X52362609Y-68333360D01*
X52508476Y-68368380D01*
X52508482Y-68368381D01*
X52513289Y-68369535D01*
X52750000Y-68388165D01*
X52986711Y-68369535D01*
X52991518Y-68368381D01*
X52991524Y-68368380D01*
X53137391Y-68333360D01*
X53217594Y-68314105D01*
X53222167Y-68312211D01*
X53432389Y-68225135D01*
X53432393Y-68225133D01*
X53436963Y-68223240D01*
X53441916Y-68220205D01*
X53625556Y-68107670D01*
X56382160Y-68107670D01*
X56387887Y-68115320D01*
X56559042Y-68220205D01*
X56567837Y-68224687D01*
X56777988Y-68311734D01*
X56787373Y-68314783D01*
X57008554Y-68367885D01*
X57018301Y-68369428D01*
X57245070Y-68387275D01*
X57254930Y-68387275D01*
X57481699Y-68369428D01*
X57491446Y-68367885D01*
X57712627Y-68314783D01*
X57722012Y-68311734D01*
X57932163Y-68224687D01*
X57940958Y-68220205D01*
X58108445Y-68117568D01*
X58117907Y-68107110D01*
X58114124Y-68098334D01*
X57262812Y-67247022D01*
X57248868Y-67239408D01*
X57247035Y-67239539D01*
X57240420Y-67243790D01*
X56388920Y-68095290D01*
X56382160Y-68107670D01*
X53625556Y-68107670D01*
X53635202Y-68101759D01*
X53635208Y-68101755D01*
X53639416Y-68099176D01*
X53819969Y-67944969D01*
X53974176Y-67764416D01*
X53976755Y-67760208D01*
X53976759Y-67760202D01*
X54095654Y-67566183D01*
X54098240Y-67561963D01*
X54100229Y-67557163D01*
X54187211Y-67347167D01*
X54187212Y-67347165D01*
X54189105Y-67342594D01*
X54244535Y-67111711D01*
X54262777Y-66879930D01*
X55737725Y-66879930D01*
X55755572Y-67106699D01*
X55757115Y-67116446D01*
X55810217Y-67337627D01*
X55813266Y-67347012D01*
X55900313Y-67557163D01*
X55904795Y-67565958D01*
X56007432Y-67733445D01*
X56017890Y-67742907D01*
X56026666Y-67739124D01*
X56877978Y-66887812D01*
X56884356Y-66876132D01*
X57614408Y-66876132D01*
X57614539Y-66877965D01*
X57618790Y-66884580D01*
X58470290Y-67736080D01*
X58482670Y-67742840D01*
X58490320Y-67737113D01*
X58595205Y-67565958D01*
X58599687Y-67557163D01*
X58686734Y-67347012D01*
X58689783Y-67337627D01*
X58742885Y-67116446D01*
X58744428Y-67106699D01*
X58762275Y-66879930D01*
X58762275Y-66870070D01*
X58744428Y-66643301D01*
X58742885Y-66633554D01*
X58689783Y-66412373D01*
X58686734Y-66402988D01*
X58599687Y-66192837D01*
X58595205Y-66184042D01*
X58492568Y-66016555D01*
X58482110Y-66007093D01*
X58473334Y-66010876D01*
X57622022Y-66862188D01*
X57614408Y-66876132D01*
X56884356Y-66876132D01*
X56885592Y-66873868D01*
X56885461Y-66872035D01*
X56881210Y-66865420D01*
X56029710Y-66013920D01*
X56017330Y-66007160D01*
X56009680Y-66012887D01*
X55904795Y-66184042D01*
X55900313Y-66192837D01*
X55813266Y-66402988D01*
X55810217Y-66412373D01*
X55757115Y-66633554D01*
X55755572Y-66643301D01*
X55737725Y-66870070D01*
X55737725Y-66879930D01*
X54262777Y-66879930D01*
X54263165Y-66875000D01*
X54244535Y-66638289D01*
X54189105Y-66407406D01*
X54187211Y-66402833D01*
X54100135Y-66192611D01*
X54100133Y-66192607D01*
X54098240Y-66188037D01*
X54095654Y-66183817D01*
X53976759Y-65989798D01*
X53976755Y-65989792D01*
X53974176Y-65985584D01*
X53819969Y-65805031D01*
X53639416Y-65650824D01*
X53635208Y-65648245D01*
X53635202Y-65648241D01*
X53626470Y-65642890D01*
X56382093Y-65642890D01*
X56385876Y-65651666D01*
X57237188Y-66502978D01*
X57251132Y-66510592D01*
X57252965Y-66510461D01*
X57259580Y-66506210D01*
X58111080Y-65654710D01*
X58117840Y-65642330D01*
X58112113Y-65634680D01*
X57940958Y-65529795D01*
X57932163Y-65525313D01*
X57722012Y-65438266D01*
X57712627Y-65435217D01*
X57491446Y-65382115D01*
X57481699Y-65380572D01*
X57254930Y-65362725D01*
X57245070Y-65362725D01*
X57018301Y-65380572D01*
X57008554Y-65382115D01*
X56787373Y-65435217D01*
X56777988Y-65438266D01*
X56567837Y-65525313D01*
X56559042Y-65529795D01*
X56391555Y-65632432D01*
X56382093Y-65642890D01*
X53626470Y-65642890D01*
X53441183Y-65529346D01*
X53436963Y-65526760D01*
X53432393Y-65524867D01*
X53432389Y-65524865D01*
X53222167Y-65437789D01*
X53222165Y-65437788D01*
X53217594Y-65435895D01*
X53137391Y-65416640D01*
X52991524Y-65381620D01*
X52991518Y-65381619D01*
X52986711Y-65380465D01*
X52750000Y-65361835D01*
X52513289Y-65380465D01*
X52508482Y-65381619D01*
X52508476Y-65381620D01*
X52362609Y-65416640D01*
X52282406Y-65435895D01*
X52277835Y-65437788D01*
X52277833Y-65437789D01*
X52067611Y-65524865D01*
X52067607Y-65524867D01*
X52063037Y-65526760D01*
X52058817Y-65529346D01*
X51864798Y-65648241D01*
X51864792Y-65648245D01*
X51860584Y-65650824D01*
X51680031Y-65805031D01*
X51525824Y-65985584D01*
X51523245Y-65989792D01*
X51523241Y-65989798D01*
X51404346Y-66183817D01*
X51401760Y-66188037D01*
X51399867Y-66192607D01*
X51399865Y-66192611D01*
X51312789Y-66402833D01*
X51310895Y-66407406D01*
X51255465Y-66638289D01*
X51236835Y-66875000D01*
X50508000Y-66875000D01*
X50508000Y-60375000D01*
X51236835Y-60375000D01*
X51255465Y-60611711D01*
X51310895Y-60842594D01*
X51312788Y-60847165D01*
X51312789Y-60847167D01*
X51399772Y-61057163D01*
X51401760Y-61061963D01*
X51404346Y-61066183D01*
X51523241Y-61260202D01*
X51523245Y-61260208D01*
X51525824Y-61264416D01*
X51680031Y-61444969D01*
X51860584Y-61599176D01*
X51864792Y-61601755D01*
X51864798Y-61601759D01*
X52058084Y-61720205D01*
X52063037Y-61723240D01*
X52067607Y-61725133D01*
X52067611Y-61725135D01*
X52277833Y-61812211D01*
X52282406Y-61814105D01*
X52362609Y-61833360D01*
X52508476Y-61868380D01*
X52508482Y-61868381D01*
X52513289Y-61869535D01*
X52750000Y-61888165D01*
X52986711Y-61869535D01*
X52991518Y-61868381D01*
X52991524Y-61868380D01*
X53137391Y-61833360D01*
X53217594Y-61814105D01*
X53222167Y-61812211D01*
X53432389Y-61725135D01*
X53432393Y-61725133D01*
X53436963Y-61723240D01*
X53441916Y-61720205D01*
X53625556Y-61607670D01*
X56382160Y-61607670D01*
X56387887Y-61615320D01*
X56559042Y-61720205D01*
X56567837Y-61724687D01*
X56777988Y-61811734D01*
X56787373Y-61814783D01*
X57008554Y-61867885D01*
X57018301Y-61869428D01*
X57245070Y-61887275D01*
X57254930Y-61887275D01*
X57481699Y-61869428D01*
X57491446Y-61867885D01*
X57712627Y-61814783D01*
X57722012Y-61811734D01*
X57932163Y-61724687D01*
X57940958Y-61720205D01*
X58108445Y-61617568D01*
X58117907Y-61607110D01*
X58114124Y-61598334D01*
X57262812Y-60747022D01*
X57248868Y-60739408D01*
X57247035Y-60739539D01*
X57240420Y-60743790D01*
X56388920Y-61595290D01*
X56382160Y-61607670D01*
X53625556Y-61607670D01*
X53635202Y-61601759D01*
X53635208Y-61601755D01*
X53639416Y-61599176D01*
X53819969Y-61444969D01*
X53974176Y-61264416D01*
X53976755Y-61260208D01*
X53976759Y-61260202D01*
X54095654Y-61066183D01*
X54098240Y-61061963D01*
X54100229Y-61057163D01*
X54187211Y-60847167D01*
X54187212Y-60847165D01*
X54189105Y-60842594D01*
X54244535Y-60611711D01*
X54262777Y-60379930D01*
X55737725Y-60379930D01*
X55755572Y-60606699D01*
X55757115Y-60616446D01*
X55810217Y-60837627D01*
X55813266Y-60847012D01*
X55900313Y-61057163D01*
X55904795Y-61065958D01*
X56007432Y-61233445D01*
X56017890Y-61242907D01*
X56026666Y-61239124D01*
X56877978Y-60387812D01*
X56884356Y-60376132D01*
X57614408Y-60376132D01*
X57614539Y-60377965D01*
X57618790Y-60384580D01*
X58470290Y-61236080D01*
X58482670Y-61242840D01*
X58490320Y-61237113D01*
X58595205Y-61065958D01*
X58599687Y-61057163D01*
X58686734Y-60847012D01*
X58689783Y-60837627D01*
X58742885Y-60616446D01*
X58744428Y-60606699D01*
X58762275Y-60379930D01*
X58762275Y-60370070D01*
X58744428Y-60143301D01*
X58742885Y-60133554D01*
X58689783Y-59912373D01*
X58686734Y-59902988D01*
X58599687Y-59692837D01*
X58595205Y-59684042D01*
X58492568Y-59516555D01*
X58482110Y-59507093D01*
X58473334Y-59510876D01*
X57622022Y-60362188D01*
X57614408Y-60376132D01*
X56884356Y-60376132D01*
X56885592Y-60373868D01*
X56885461Y-60372035D01*
X56881210Y-60365420D01*
X56029710Y-59513920D01*
X56017330Y-59507160D01*
X56009680Y-59512887D01*
X55904795Y-59684042D01*
X55900313Y-59692837D01*
X55813266Y-59902988D01*
X55810217Y-59912373D01*
X55757115Y-60133554D01*
X55755572Y-60143301D01*
X55737725Y-60370070D01*
X55737725Y-60379930D01*
X54262777Y-60379930D01*
X54263165Y-60375000D01*
X54244535Y-60138289D01*
X54189105Y-59907406D01*
X54187211Y-59902833D01*
X54100135Y-59692611D01*
X54100133Y-59692607D01*
X54098240Y-59688037D01*
X54095654Y-59683817D01*
X53976759Y-59489798D01*
X53976755Y-59489792D01*
X53974176Y-59485584D01*
X53819969Y-59305031D01*
X53639416Y-59150824D01*
X53635208Y-59148245D01*
X53635202Y-59148241D01*
X53626470Y-59142890D01*
X56382093Y-59142890D01*
X56385876Y-59151666D01*
X57237188Y-60002978D01*
X57251132Y-60010592D01*
X57252965Y-60010461D01*
X57259580Y-60006210D01*
X58111080Y-59154710D01*
X58117840Y-59142330D01*
X58112113Y-59134680D01*
X57940958Y-59029795D01*
X57932163Y-59025313D01*
X57722012Y-58938266D01*
X57712627Y-58935217D01*
X57491446Y-58882115D01*
X57481699Y-58880572D01*
X57254930Y-58862725D01*
X57245070Y-58862725D01*
X57018301Y-58880572D01*
X57008554Y-58882115D01*
X56787373Y-58935217D01*
X56777988Y-58938266D01*
X56567837Y-59025313D01*
X56559042Y-59029795D01*
X56391555Y-59132432D01*
X56382093Y-59142890D01*
X53626470Y-59142890D01*
X53441183Y-59029346D01*
X53436963Y-59026760D01*
X53432393Y-59024867D01*
X53432389Y-59024865D01*
X53222167Y-58937789D01*
X53222165Y-58937788D01*
X53217594Y-58935895D01*
X53137391Y-58916640D01*
X52991524Y-58881620D01*
X52991518Y-58881619D01*
X52986711Y-58880465D01*
X52750000Y-58861835D01*
X52513289Y-58880465D01*
X52508482Y-58881619D01*
X52508476Y-58881620D01*
X52362609Y-58916640D01*
X52282406Y-58935895D01*
X52277835Y-58937788D01*
X52277833Y-58937789D01*
X52067611Y-59024865D01*
X52067607Y-59024867D01*
X52063037Y-59026760D01*
X52058817Y-59029346D01*
X51864798Y-59148241D01*
X51864792Y-59148245D01*
X51860584Y-59150824D01*
X51680031Y-59305031D01*
X51525824Y-59485584D01*
X51523245Y-59489792D01*
X51523241Y-59489798D01*
X51404346Y-59683817D01*
X51401760Y-59688037D01*
X51399867Y-59692607D01*
X51399865Y-59692611D01*
X51312789Y-59902833D01*
X51310895Y-59907406D01*
X51255465Y-60138289D01*
X51236835Y-60375000D01*
X50508000Y-60375000D01*
X50508000Y-54107655D01*
X53239858Y-54107655D01*
X53275104Y-54366638D01*
X53276412Y-54371124D01*
X53276412Y-54371126D01*
X53296098Y-54438664D01*
X53348243Y-54617567D01*
X53457668Y-54854928D01*
X53460231Y-54858837D01*
X53598410Y-55069596D01*
X53598414Y-55069601D01*
X53600976Y-55073509D01*
X53775018Y-55268506D01*
X53975970Y-55435637D01*
X53979973Y-55438066D01*
X54195422Y-55568804D01*
X54195426Y-55568806D01*
X54199419Y-55571229D01*
X54440455Y-55672303D01*
X54693783Y-55736641D01*
X54698434Y-55737109D01*
X54698438Y-55737110D01*
X54891308Y-55756531D01*
X54910867Y-55758500D01*
X55066354Y-55758500D01*
X55068679Y-55758327D01*
X55068685Y-55758327D01*
X55256000Y-55744407D01*
X55256004Y-55744406D01*
X55260652Y-55744061D01*
X55265200Y-55743032D01*
X55265206Y-55743031D01*
X55451601Y-55700853D01*
X55515577Y-55686377D01*
X55551769Y-55672303D01*
X55754824Y-55593340D01*
X55754827Y-55593339D01*
X55759177Y-55591647D01*
X55986098Y-55461951D01*
X56191357Y-55300138D01*
X56370443Y-55109763D01*
X56519424Y-54895009D01*
X56635025Y-54660593D01*
X56714707Y-54411665D01*
X56756721Y-54153693D01*
X56760142Y-53892345D01*
X56724896Y-53633362D01*
X56710473Y-53583877D01*
X56653068Y-53386932D01*
X56651757Y-53382433D01*
X56542332Y-53145072D01*
X56509519Y-53095024D01*
X56401590Y-52930404D01*
X56401586Y-52930399D01*
X56399024Y-52926491D01*
X56224982Y-52731494D01*
X56024030Y-52564363D01*
X55976844Y-52535730D01*
X55804578Y-52431196D01*
X55804574Y-52431194D01*
X55800581Y-52428771D01*
X55559545Y-52327697D01*
X55306217Y-52263359D01*
X55301566Y-52262891D01*
X55301562Y-52262890D01*
X55092271Y-52241816D01*
X55089133Y-52241500D01*
X54933646Y-52241500D01*
X54931321Y-52241673D01*
X54931315Y-52241673D01*
X54744000Y-52255593D01*
X54743996Y-52255594D01*
X54739348Y-52255939D01*
X54734800Y-52256968D01*
X54734794Y-52256969D01*
X54548399Y-52299147D01*
X54484423Y-52313623D01*
X54480071Y-52315315D01*
X54480069Y-52315316D01*
X54245176Y-52406660D01*
X54245173Y-52406661D01*
X54240823Y-52408353D01*
X54013902Y-52538049D01*
X53808643Y-52699862D01*
X53629557Y-52890237D01*
X53480576Y-53104991D01*
X53364975Y-53339407D01*
X53285293Y-53588335D01*
X53243279Y-53846307D01*
X53239858Y-54107655D01*
X50508000Y-54107655D01*
X50508000Y-50634000D01*
X50528002Y-50565879D01*
X50581658Y-50519386D01*
X50634000Y-50508000D01*
X59366000Y-50508000D01*
X59434121Y-50528002D01*
G37*
%TD.AperFunction*%
%TD*%
M02*
