%TF.GenerationSoftware,KiCad,Pcbnew,(6.0.1)*%
%TF.CreationDate,2022-09-26T10:08:13-07:00*%
%TF.ProjectId,Spankulator,5370616e-6b75-46c6-9174-6f722e6b6963,4.2*%
%TF.SameCoordinates,Original*%
%TF.FileFunction,Legend,Bot*%
%TF.FilePolarity,Positive*%
%FSLAX46Y46*%
G04 Gerber Fmt 4.6, Leading zero omitted, Abs format (unit mm)*
G04 Created by KiCad (PCBNEW (6.0.1)) date 2022-09-26 10:08:13*
%MOMM*%
%LPD*%
G01*
G04 APERTURE LIST*
%ADD10C,0.100000*%
%ADD11C,0.120000*%
%ADD12C,0.150000*%
%ADD13C,0.300000*%
%ADD14C,0.250000*%
G04 APERTURE END LIST*
D10*
X66825000Y-53125000D02*
X72225000Y-53125000D01*
X72225000Y-53125000D02*
X72225000Y-54525000D01*
X72225000Y-54525000D02*
X66825000Y-54525000D01*
X66825000Y-54525000D02*
X66825000Y-53125000D01*
G36*
X72225000Y-54525000D02*
G01*
X66825000Y-54525000D01*
X66825000Y-53125000D01*
X72225000Y-53125000D01*
X72225000Y-54525000D01*
G37*
X72225000Y-54525000D02*
X66825000Y-54525000D01*
X66825000Y-53125000D01*
X72225000Y-53125000D01*
X72225000Y-54525000D01*
X73700000Y-141000000D02*
X73700000Y-145000000D01*
X73700000Y-145000000D02*
X88500000Y-145000000D01*
X88500000Y-145000000D02*
X88500000Y-141000000D01*
X88500000Y-141000000D02*
X73700000Y-141000000D01*
G36*
X88500000Y-145000000D02*
G01*
X73700000Y-145000000D01*
X73700000Y-141000000D01*
X88500000Y-141000000D01*
X88500000Y-145000000D01*
G37*
X88500000Y-145000000D02*
X73700000Y-145000000D01*
X73700000Y-141000000D01*
X88500000Y-141000000D01*
X88500000Y-145000000D01*
X76496000Y-67435000D02*
X76500000Y-68250000D01*
X76500000Y-68250000D02*
X75500000Y-68250000D01*
X75500000Y-68250000D02*
X75506000Y-67435000D01*
X75506000Y-67435000D02*
X76496000Y-67435000D01*
G36*
X76500000Y-68250000D02*
G01*
X75500000Y-68250000D01*
X75506000Y-67435000D01*
X76496000Y-67435000D01*
X76500000Y-68250000D01*
G37*
X76500000Y-68250000D02*
X75500000Y-68250000D01*
X75506000Y-67435000D01*
X76496000Y-67435000D01*
X76500000Y-68250000D01*
D11*
X92170000Y-138730000D02*
X89250000Y-138750000D01*
X89250000Y-138750000D02*
X89250000Y-141350000D01*
X105200000Y-100400000D02*
X105200000Y-104000000D01*
X105200000Y-104000000D02*
X96700000Y-103900000D01*
X96700000Y-103900000D02*
X96700000Y-100400000D01*
D10*
X88435000Y-72504000D02*
X89250000Y-72500000D01*
X89250000Y-72500000D02*
X89250000Y-73500000D01*
X89250000Y-73500000D02*
X88435000Y-73494000D01*
X88435000Y-73494000D02*
X88435000Y-72504000D01*
G36*
X89250000Y-73500000D02*
G01*
X88435000Y-73494000D01*
X88435000Y-72504000D01*
X89250000Y-72500000D01*
X89250000Y-73500000D01*
G37*
X89250000Y-73500000D02*
X88435000Y-73494000D01*
X88435000Y-72504000D01*
X89250000Y-72500000D01*
X89250000Y-73500000D01*
D11*
X89250000Y-141350000D02*
X93400000Y-141350000D01*
D10*
X56520000Y-76530000D02*
X61920000Y-76530000D01*
X61920000Y-76530000D02*
X61920000Y-77930000D01*
X61920000Y-77930000D02*
X56520000Y-77930000D01*
X56520000Y-77930000D02*
X56520000Y-76530000D01*
G36*
X61920000Y-77930000D02*
G01*
X56520000Y-77930000D01*
X56520000Y-76530000D01*
X61920000Y-76530000D01*
X61920000Y-77930000D01*
G37*
X61920000Y-77930000D02*
X56520000Y-77930000D01*
X56520000Y-76530000D01*
X61920000Y-76530000D01*
X61920000Y-77930000D01*
D12*
X66214404Y-54302380D02*
X66214404Y-53302380D01*
X65833452Y-53302380D01*
X65738214Y-53350000D01*
X65690595Y-53397619D01*
X65642976Y-53492857D01*
X65642976Y-53635714D01*
X65690595Y-53730952D01*
X65738214Y-53778571D01*
X65833452Y-53826190D01*
X66214404Y-53826190D01*
X65214404Y-54302380D02*
X65214404Y-53635714D01*
X65214404Y-53302380D02*
X65262023Y-53350000D01*
X65214404Y-53397619D01*
X65166785Y-53350000D01*
X65214404Y-53302380D01*
X65214404Y-53397619D01*
X64738214Y-53635714D02*
X64738214Y-54302380D01*
X64738214Y-53730952D02*
X64690595Y-53683333D01*
X64595357Y-53635714D01*
X64452500Y-53635714D01*
X64357261Y-53683333D01*
X64309642Y-53778571D01*
X64309642Y-54302380D01*
X62547738Y-54302380D02*
X63119166Y-54302380D01*
X62833452Y-54302380D02*
X62833452Y-53302380D01*
X62928690Y-53445238D01*
X63023928Y-53540476D01*
X63119166Y-53588095D01*
X87214285Y-75202380D02*
X87785714Y-75202380D01*
X87500000Y-75202380D02*
X87500000Y-74202380D01*
X87595238Y-74345238D01*
X87690476Y-74440476D01*
X87785714Y-74488095D01*
D13*
X63878571Y-66235714D02*
X62378571Y-66235714D01*
X62378571Y-66807142D01*
X62450000Y-66950000D01*
X62521428Y-67021428D01*
X62664285Y-67092857D01*
X62878571Y-67092857D01*
X63021428Y-67021428D01*
X63092857Y-66950000D01*
X63164285Y-66807142D01*
X63164285Y-66235714D01*
X62378571Y-68021428D02*
X62378571Y-68307142D01*
X62450000Y-68450000D01*
X62592857Y-68592857D01*
X62878571Y-68664285D01*
X63378571Y-68664285D01*
X63664285Y-68592857D01*
X63807142Y-68450000D01*
X63878571Y-68307142D01*
X63878571Y-68021428D01*
X63807142Y-67878571D01*
X63664285Y-67735714D01*
X63378571Y-67664285D01*
X62878571Y-67664285D01*
X62592857Y-67735714D01*
X62450000Y-67878571D01*
X62378571Y-68021428D01*
X62378571Y-69164285D02*
X63878571Y-69521428D01*
X62807142Y-69807142D01*
X63878571Y-70092857D01*
X62378571Y-70450000D01*
X63092857Y-71021428D02*
X63092857Y-71521428D01*
X63878571Y-71735714D02*
X63878571Y-71021428D01*
X62378571Y-71021428D01*
X62378571Y-71735714D01*
X63878571Y-73235714D02*
X63164285Y-72735714D01*
X63878571Y-72378571D02*
X62378571Y-72378571D01*
X62378571Y-72950000D01*
X62450000Y-73092857D01*
X62521428Y-73164285D01*
X62664285Y-73235714D01*
X62878571Y-73235714D01*
X63021428Y-73164285D01*
X63092857Y-73092857D01*
X63164285Y-72950000D01*
X63164285Y-72378571D01*
X77642857Y-68500000D02*
X77785714Y-68428571D01*
X78000000Y-68428571D01*
X78214285Y-68500000D01*
X78357142Y-68642857D01*
X78428571Y-68785714D01*
X78500000Y-69071428D01*
X78500000Y-69285714D01*
X78428571Y-69571428D01*
X78357142Y-69714285D01*
X78214285Y-69857142D01*
X78000000Y-69928571D01*
X77857142Y-69928571D01*
X77642857Y-69857142D01*
X77571428Y-69785714D01*
X77571428Y-69285714D01*
X77857142Y-69285714D01*
X77000000Y-69500000D02*
X76285714Y-69500000D01*
X77142857Y-69928571D02*
X76642857Y-68428571D01*
X76142857Y-69928571D01*
X75642857Y-69928571D02*
X75642857Y-68428571D01*
X74928571Y-69928571D02*
X74928571Y-68428571D01*
X74071428Y-69928571D01*
X74071428Y-68428571D01*
D12*
X76964285Y-66952380D02*
X77535714Y-66952380D01*
X77250000Y-66952380D02*
X77250000Y-65952380D01*
X77345238Y-66095238D01*
X77440476Y-66190476D01*
X77535714Y-66238095D01*
D13*
X102901714Y-96757142D02*
X102901714Y-99185714D01*
X102758857Y-99471428D01*
X102616000Y-99614285D01*
X102330285Y-99757142D01*
X101758857Y-99757142D01*
X101473142Y-99614285D01*
X101330285Y-99471428D01*
X101187428Y-99185714D01*
X101187428Y-96757142D01*
X99901714Y-99614285D02*
X99473142Y-99757142D01*
X98758857Y-99757142D01*
X98473142Y-99614285D01*
X98330285Y-99471428D01*
X98187428Y-99185714D01*
X98187428Y-98900000D01*
X98330285Y-98614285D01*
X98473142Y-98471428D01*
X98758857Y-98328571D01*
X99330285Y-98185714D01*
X99616000Y-98042857D01*
X99758857Y-97900000D01*
X99901714Y-97614285D01*
X99901714Y-97328571D01*
X99758857Y-97042857D01*
X99616000Y-96900000D01*
X99330285Y-96757142D01*
X98616000Y-96757142D01*
X98187428Y-96900000D01*
X95901714Y-98185714D02*
X95473142Y-98328571D01*
X95330285Y-98471428D01*
X95187428Y-98757142D01*
X95187428Y-99185714D01*
X95330285Y-99471428D01*
X95473142Y-99614285D01*
X95758857Y-99757142D01*
X96901714Y-99757142D01*
X96901714Y-96757142D01*
X95901714Y-96757142D01*
X95616000Y-96900000D01*
X95473142Y-97042857D01*
X95330285Y-97328571D01*
X95330285Y-97614285D01*
X95473142Y-97900000D01*
X95616000Y-98042857D01*
X95901714Y-98185714D01*
X96901714Y-98185714D01*
D14*
X98367023Y-43734761D02*
X97224166Y-43734761D01*
X97795595Y-45734761D02*
X97795595Y-43734761D01*
X96557500Y-45734761D02*
X96557500Y-43734761D01*
X95700357Y-45734761D02*
X95700357Y-44687142D01*
X95795595Y-44496666D01*
X95986071Y-44401428D01*
X96271785Y-44401428D01*
X96462261Y-44496666D01*
X96557500Y-44591904D01*
X93986071Y-45639523D02*
X94176547Y-45734761D01*
X94557500Y-45734761D01*
X94747976Y-45639523D01*
X94843214Y-45449047D01*
X94843214Y-44687142D01*
X94747976Y-44496666D01*
X94557500Y-44401428D01*
X94176547Y-44401428D01*
X93986071Y-44496666D01*
X93890833Y-44687142D01*
X93890833Y-44877619D01*
X94843214Y-45068095D01*
X91605119Y-45639523D02*
X91319404Y-45734761D01*
X90843214Y-45734761D01*
X90652738Y-45639523D01*
X90557500Y-45544285D01*
X90462261Y-45353809D01*
X90462261Y-45163333D01*
X90557500Y-44972857D01*
X90652738Y-44877619D01*
X90843214Y-44782380D01*
X91224166Y-44687142D01*
X91414642Y-44591904D01*
X91509880Y-44496666D01*
X91605119Y-44306190D01*
X91605119Y-44115714D01*
X91509880Y-43925238D01*
X91414642Y-43830000D01*
X91224166Y-43734761D01*
X90747976Y-43734761D01*
X90462261Y-43830000D01*
X89605119Y-44401428D02*
X89605119Y-46401428D01*
X89605119Y-44496666D02*
X89414642Y-44401428D01*
X89033690Y-44401428D01*
X88843214Y-44496666D01*
X88747976Y-44591904D01*
X88652738Y-44782380D01*
X88652738Y-45353809D01*
X88747976Y-45544285D01*
X88843214Y-45639523D01*
X89033690Y-45734761D01*
X89414642Y-45734761D01*
X89605119Y-45639523D01*
X86938452Y-45734761D02*
X86938452Y-44687142D01*
X87033690Y-44496666D01*
X87224166Y-44401428D01*
X87605119Y-44401428D01*
X87795595Y-44496666D01*
X86938452Y-45639523D02*
X87128928Y-45734761D01*
X87605119Y-45734761D01*
X87795595Y-45639523D01*
X87890833Y-45449047D01*
X87890833Y-45258571D01*
X87795595Y-45068095D01*
X87605119Y-44972857D01*
X87128928Y-44972857D01*
X86938452Y-44877619D01*
X85986071Y-44401428D02*
X85986071Y-45734761D01*
X85986071Y-44591904D02*
X85890833Y-44496666D01*
X85700357Y-44401428D01*
X85414642Y-44401428D01*
X85224166Y-44496666D01*
X85128928Y-44687142D01*
X85128928Y-45734761D01*
X84176547Y-45734761D02*
X84176547Y-43734761D01*
X83986071Y-44972857D02*
X83414642Y-45734761D01*
X83414642Y-44401428D02*
X84176547Y-45163333D01*
X81700357Y-44401428D02*
X81700357Y-45734761D01*
X82557500Y-44401428D02*
X82557500Y-45449047D01*
X82462261Y-45639523D01*
X82271785Y-45734761D01*
X81986071Y-45734761D01*
X81795595Y-45639523D01*
X81700357Y-45544285D01*
X80462261Y-45734761D02*
X80652738Y-45639523D01*
X80747976Y-45449047D01*
X80747976Y-43734761D01*
X78843214Y-45734761D02*
X78843214Y-44687142D01*
X78938452Y-44496666D01*
X79128928Y-44401428D01*
X79509880Y-44401428D01*
X79700357Y-44496666D01*
X78843214Y-45639523D02*
X79033690Y-45734761D01*
X79509880Y-45734761D01*
X79700357Y-45639523D01*
X79795595Y-45449047D01*
X79795595Y-45258571D01*
X79700357Y-45068095D01*
X79509880Y-44972857D01*
X79033690Y-44972857D01*
X78843214Y-44877619D01*
X78176547Y-44401428D02*
X77414642Y-44401428D01*
X77890833Y-43734761D02*
X77890833Y-45449047D01*
X77795595Y-45639523D01*
X77605119Y-45734761D01*
X77414642Y-45734761D01*
X76462261Y-45734761D02*
X76652738Y-45639523D01*
X76747976Y-45544285D01*
X76843214Y-45353809D01*
X76843214Y-44782380D01*
X76747976Y-44591904D01*
X76652738Y-44496666D01*
X76462261Y-44401428D01*
X76176547Y-44401428D01*
X75986071Y-44496666D01*
X75890833Y-44591904D01*
X75795595Y-44782380D01*
X75795595Y-45353809D01*
X75890833Y-45544285D01*
X75986071Y-45639523D01*
X76176547Y-45734761D01*
X76462261Y-45734761D01*
X74938452Y-45734761D02*
X74938452Y-44401428D01*
X74938452Y-44782380D02*
X74843214Y-44591904D01*
X74747976Y-44496666D01*
X74557500Y-44401428D01*
X74367023Y-44401428D01*
D13*
X84792857Y-47528571D02*
X84435714Y-48528571D01*
X84078571Y-47528571D01*
X82864285Y-47528571D02*
X82864285Y-48528571D01*
X83221428Y-46957142D02*
X83578571Y-48028571D01*
X82650000Y-48028571D01*
X82078571Y-48385714D02*
X82007142Y-48457142D01*
X82078571Y-48528571D01*
X82150000Y-48457142D01*
X82078571Y-48385714D01*
X82078571Y-48528571D01*
X81435714Y-47171428D02*
X81364285Y-47100000D01*
X81221428Y-47028571D01*
X80864285Y-47028571D01*
X80721428Y-47100000D01*
X80650000Y-47171428D01*
X80578571Y-47314285D01*
X80578571Y-47457142D01*
X80650000Y-47671428D01*
X81507142Y-48528571D01*
X80578571Y-48528571D01*
X66035714Y-46392857D02*
X65535714Y-46392857D01*
X65321428Y-47178571D02*
X66035714Y-47178571D01*
X66035714Y-45678571D01*
X65321428Y-45678571D01*
X64821428Y-45678571D02*
X63821428Y-47178571D01*
X63821428Y-45678571D02*
X64821428Y-47178571D01*
X63250000Y-47178571D02*
X63250000Y-45678571D01*
X62678571Y-45678571D01*
X62535714Y-45750000D01*
X62464285Y-45821428D01*
X62392857Y-45964285D01*
X62392857Y-46178571D01*
X62464285Y-46321428D01*
X62535714Y-46392857D01*
X62678571Y-46464285D01*
X63250000Y-46464285D01*
X88642857Y-75678571D02*
X88357142Y-75678571D01*
X88214285Y-75750000D01*
X88071428Y-75892857D01*
X88000000Y-76178571D01*
X88000000Y-76678571D01*
X88071428Y-76964285D01*
X88214285Y-77107142D01*
X88357142Y-77178571D01*
X88642857Y-77178571D01*
X88785714Y-77107142D01*
X88928571Y-76964285D01*
X89000000Y-76678571D01*
X89000000Y-76178571D01*
X88928571Y-75892857D01*
X88785714Y-75750000D01*
X88642857Y-75678571D01*
X86857142Y-76392857D02*
X87357142Y-76392857D01*
X87357142Y-77178571D02*
X87357142Y-75678571D01*
X86642857Y-75678571D01*
X85571428Y-76392857D02*
X86071428Y-76392857D01*
X86071428Y-77178571D02*
X86071428Y-75678571D01*
X85357142Y-75678571D01*
X84857142Y-77107142D02*
X84642857Y-77178571D01*
X84285714Y-77178571D01*
X84142857Y-77107142D01*
X84071428Y-77035714D01*
X84000000Y-76892857D01*
X84000000Y-76750000D01*
X84071428Y-76607142D01*
X84142857Y-76535714D01*
X84285714Y-76464285D01*
X84571428Y-76392857D01*
X84714285Y-76321428D01*
X84785714Y-76250000D01*
X84857142Y-76107142D01*
X84857142Y-75964285D01*
X84785714Y-75821428D01*
X84714285Y-75750000D01*
X84571428Y-75678571D01*
X84214285Y-75678571D01*
X84000000Y-75750000D01*
X83357142Y-76392857D02*
X82857142Y-76392857D01*
X82642857Y-77178571D02*
X83357142Y-77178571D01*
X83357142Y-75678571D01*
X82642857Y-75678571D01*
X82214285Y-75678571D02*
X81357142Y-75678571D01*
X81785714Y-77178571D02*
X81785714Y-75678571D01*
D12*
X88483333Y-140526190D02*
X88297619Y-140588095D01*
X87988095Y-140588095D01*
X87864285Y-140526190D01*
X87802380Y-140464285D01*
X87740476Y-140340476D01*
X87740476Y-140216666D01*
X87802380Y-140092857D01*
X87864285Y-140030952D01*
X87988095Y-139969047D01*
X88235714Y-139907142D01*
X88359523Y-139845238D01*
X88421428Y-139783333D01*
X88483333Y-139659523D01*
X88483333Y-139535714D01*
X88421428Y-139411904D01*
X88359523Y-139350000D01*
X88235714Y-139288095D01*
X87926190Y-139288095D01*
X87740476Y-139350000D01*
X86254761Y-139226190D02*
X87369047Y-140897619D01*
X85821428Y-140588095D02*
X85821428Y-139288095D01*
X85078571Y-140588095D01*
X85078571Y-139288095D01*
D13*
X102892857Y-41000000D02*
X103035714Y-40928571D01*
X103250000Y-40928571D01*
X103464285Y-41000000D01*
X103607142Y-41142857D01*
X103678571Y-41285714D01*
X103750000Y-41571428D01*
X103750000Y-41785714D01*
X103678571Y-42071428D01*
X103607142Y-42214285D01*
X103464285Y-42357142D01*
X103250000Y-42428571D01*
X103107142Y-42428571D01*
X102892857Y-42357142D01*
X102821428Y-42285714D01*
X102821428Y-41785714D01*
X103107142Y-41785714D01*
X102178571Y-42428571D02*
X102178571Y-40928571D01*
X101321428Y-42428571D01*
X101321428Y-40928571D01*
X100607142Y-42428571D02*
X100607142Y-40928571D01*
X100250000Y-40928571D01*
X100035714Y-41000000D01*
X99892857Y-41142857D01*
X99821428Y-41285714D01*
X99750000Y-41571428D01*
X99750000Y-41785714D01*
X99821428Y-42071428D01*
X99892857Y-42214285D01*
X100035714Y-42357142D01*
X100250000Y-42428571D01*
X100607142Y-42428571D01*
D12*
X88942857Y-40184000D02*
X89057142Y-40126857D01*
X89228571Y-40126857D01*
X89400000Y-40184000D01*
X89514285Y-40298285D01*
X89571428Y-40412571D01*
X89628571Y-40641142D01*
X89628571Y-40812571D01*
X89571428Y-41041142D01*
X89514285Y-41155428D01*
X89400000Y-41269714D01*
X89228571Y-41326857D01*
X89114285Y-41326857D01*
X88942857Y-41269714D01*
X88885714Y-41212571D01*
X88885714Y-40812571D01*
X89114285Y-40812571D01*
X88371428Y-41326857D02*
X88371428Y-40526857D01*
X88371428Y-40755428D02*
X88314285Y-40641142D01*
X88257142Y-40584000D01*
X88142857Y-40526857D01*
X88028571Y-40526857D01*
X87171428Y-41269714D02*
X87285714Y-41326857D01*
X87514285Y-41326857D01*
X87628571Y-41269714D01*
X87685714Y-41155428D01*
X87685714Y-40698285D01*
X87628571Y-40584000D01*
X87514285Y-40526857D01*
X87285714Y-40526857D01*
X87171428Y-40584000D01*
X87114285Y-40698285D01*
X87114285Y-40812571D01*
X87685714Y-40926857D01*
X86142857Y-41269714D02*
X86257142Y-41326857D01*
X86485714Y-41326857D01*
X86600000Y-41269714D01*
X86657142Y-41155428D01*
X86657142Y-40698285D01*
X86600000Y-40584000D01*
X86485714Y-40526857D01*
X86257142Y-40526857D01*
X86142857Y-40584000D01*
X86085714Y-40698285D01*
X86085714Y-40812571D01*
X86657142Y-40926857D01*
X85571428Y-40526857D02*
X85571428Y-41326857D01*
X85571428Y-40641142D02*
X85514285Y-40584000D01*
X85400000Y-40526857D01*
X85228571Y-40526857D01*
X85114285Y-40584000D01*
X85057142Y-40698285D01*
X85057142Y-41326857D01*
X84657142Y-40526857D02*
X84200000Y-40526857D01*
X84485714Y-41326857D02*
X84485714Y-40298285D01*
X84428571Y-40184000D01*
X84314285Y-40126857D01*
X84200000Y-40126857D01*
X83285714Y-41326857D02*
X83285714Y-40698285D01*
X83342857Y-40584000D01*
X83457142Y-40526857D01*
X83685714Y-40526857D01*
X83800000Y-40584000D01*
X83285714Y-41269714D02*
X83400000Y-41326857D01*
X83685714Y-41326857D01*
X83800000Y-41269714D01*
X83857142Y-41155428D01*
X83857142Y-41041142D01*
X83800000Y-40926857D01*
X83685714Y-40869714D01*
X83400000Y-40869714D01*
X83285714Y-40812571D01*
X82200000Y-41269714D02*
X82314285Y-41326857D01*
X82542857Y-41326857D01*
X82657142Y-41269714D01*
X82714285Y-41212571D01*
X82771428Y-41098285D01*
X82771428Y-40755428D01*
X82714285Y-40641142D01*
X82657142Y-40584000D01*
X82542857Y-40526857D01*
X82314285Y-40526857D01*
X82200000Y-40584000D01*
X81228571Y-41269714D02*
X81342857Y-41326857D01*
X81571428Y-41326857D01*
X81685714Y-41269714D01*
X81742857Y-41155428D01*
X81742857Y-40698285D01*
X81685714Y-40584000D01*
X81571428Y-40526857D01*
X81342857Y-40526857D01*
X81228571Y-40584000D01*
X81171428Y-40698285D01*
X81171428Y-40812571D01*
X81742857Y-40926857D01*
X86600000Y-43258857D02*
X87171428Y-43258857D01*
X87171428Y-42058857D01*
X85685714Y-43258857D02*
X85685714Y-42630285D01*
X85742857Y-42516000D01*
X85857142Y-42458857D01*
X86085714Y-42458857D01*
X86200000Y-42516000D01*
X85685714Y-43201714D02*
X85800000Y-43258857D01*
X86085714Y-43258857D01*
X86200000Y-43201714D01*
X86257142Y-43087428D01*
X86257142Y-42973142D01*
X86200000Y-42858857D01*
X86085714Y-42801714D01*
X85800000Y-42801714D01*
X85685714Y-42744571D01*
X85114285Y-43258857D02*
X85114285Y-42058857D01*
X85114285Y-42516000D02*
X85000000Y-42458857D01*
X84771428Y-42458857D01*
X84657142Y-42516000D01*
X84600000Y-42573142D01*
X84542857Y-42687428D01*
X84542857Y-43030285D01*
X84600000Y-43144571D01*
X84657142Y-43201714D01*
X84771428Y-43258857D01*
X85000000Y-43258857D01*
X85114285Y-43201714D01*
X84085714Y-43201714D02*
X83971428Y-43258857D01*
X83742857Y-43258857D01*
X83628571Y-43201714D01*
X83571428Y-43087428D01*
X83571428Y-43030285D01*
X83628571Y-42916000D01*
X83742857Y-42858857D01*
X83914285Y-42858857D01*
X84028571Y-42801714D01*
X84085714Y-42687428D01*
X84085714Y-42630285D01*
X84028571Y-42516000D01*
X83914285Y-42458857D01*
X83742857Y-42458857D01*
X83628571Y-42516000D01*
X56382380Y-73735595D02*
X55382380Y-73735595D01*
X55382380Y-74116547D01*
X55430000Y-74211785D01*
X55477619Y-74259404D01*
X55572857Y-74307023D01*
X55715714Y-74307023D01*
X55810952Y-74259404D01*
X55858571Y-74211785D01*
X55906190Y-74116547D01*
X55906190Y-73735595D01*
X56382380Y-74735595D02*
X55715714Y-74735595D01*
X55382380Y-74735595D02*
X55430000Y-74687976D01*
X55477619Y-74735595D01*
X55430000Y-74783214D01*
X55382380Y-74735595D01*
X55477619Y-74735595D01*
X55715714Y-75211785D02*
X56382380Y-75211785D01*
X55810952Y-75211785D02*
X55763333Y-75259404D01*
X55715714Y-75354642D01*
X55715714Y-75497500D01*
X55763333Y-75592738D01*
X55858571Y-75640357D01*
X56382380Y-75640357D01*
X56382380Y-77402261D02*
X56382380Y-76830833D01*
X56382380Y-77116547D02*
X55382380Y-77116547D01*
X55525238Y-77021309D01*
X55620476Y-76926071D01*
X55668095Y-76830833D01*
X113012380Y-100406666D02*
X113726666Y-100406666D01*
X113869523Y-100359047D01*
X113964761Y-100263809D01*
X114012380Y-100120952D01*
X114012380Y-100025714D01*
X113440952Y-101025714D02*
X113393333Y-100930476D01*
X113345714Y-100882857D01*
X113250476Y-100835238D01*
X113202857Y-100835238D01*
X113107619Y-100882857D01*
X113060000Y-100930476D01*
X113012380Y-101025714D01*
X113012380Y-101216190D01*
X113060000Y-101311428D01*
X113107619Y-101359047D01*
X113202857Y-101406666D01*
X113250476Y-101406666D01*
X113345714Y-101359047D01*
X113393333Y-101311428D01*
X113440952Y-101216190D01*
X113440952Y-101025714D01*
X113488571Y-100930476D01*
X113536190Y-100882857D01*
X113631428Y-100835238D01*
X113821904Y-100835238D01*
X113917142Y-100882857D01*
X113964761Y-100930476D01*
X114012380Y-101025714D01*
X114012380Y-101216190D01*
X113964761Y-101311428D01*
X113917142Y-101359047D01*
X113821904Y-101406666D01*
X113631428Y-101406666D01*
X113536190Y-101359047D01*
X113488571Y-101311428D01*
X113440952Y-101216190D01*
X102881904Y-47132380D02*
X102310476Y-47132380D01*
X102596190Y-48132380D02*
X102596190Y-47132380D01*
X101977142Y-48132380D02*
X101977142Y-47132380D01*
X101596190Y-47132380D01*
X101500952Y-47180000D01*
X101453333Y-47227619D01*
X101405714Y-47322857D01*
X101405714Y-47465714D01*
X101453333Y-47560952D01*
X101500952Y-47608571D01*
X101596190Y-47656190D01*
X101977142Y-47656190D01*
X101024761Y-47227619D02*
X100977142Y-47180000D01*
X100881904Y-47132380D01*
X100643809Y-47132380D01*
X100548571Y-47180000D01*
X100500952Y-47227619D01*
X100453333Y-47322857D01*
X100453333Y-47418095D01*
X100500952Y-47560952D01*
X101072380Y-48132380D01*
X100453333Y-48132380D01*
X59983333Y-78202380D02*
X59983333Y-78916666D01*
X60030952Y-79059523D01*
X60126190Y-79154761D01*
X60269047Y-79202380D01*
X60364285Y-79202380D01*
X59554761Y-78297619D02*
X59507142Y-78250000D01*
X59411904Y-78202380D01*
X59173809Y-78202380D01*
X59078571Y-78250000D01*
X59030952Y-78297619D01*
X58983333Y-78392857D01*
X58983333Y-78488095D01*
X59030952Y-78630952D01*
X59602380Y-79202380D01*
X58983333Y-79202380D01*
X74952380Y-63404761D02*
X74476190Y-63071428D01*
X74952380Y-62833333D02*
X73952380Y-62833333D01*
X73952380Y-63214285D01*
X74000000Y-63309523D01*
X74047619Y-63357142D01*
X74142857Y-63404761D01*
X74285714Y-63404761D01*
X74380952Y-63357142D01*
X74428571Y-63309523D01*
X74476190Y-63214285D01*
X74476190Y-62833333D01*
X73952380Y-63690476D02*
X74952380Y-64023809D01*
X73952380Y-64357142D01*
X74047619Y-64642857D02*
X74000000Y-64690476D01*
X73952380Y-64785714D01*
X73952380Y-65023809D01*
X74000000Y-65119047D01*
X74047619Y-65166666D01*
X74142857Y-65214285D01*
X74238095Y-65214285D01*
X74380952Y-65166666D01*
X74952380Y-64595238D01*
X74952380Y-65214285D01*
X85595238Y-71702380D02*
X85928571Y-71226190D01*
X86166666Y-71702380D02*
X86166666Y-70702380D01*
X85785714Y-70702380D01*
X85690476Y-70750000D01*
X85642857Y-70797619D01*
X85595238Y-70892857D01*
X85595238Y-71035714D01*
X85642857Y-71130952D01*
X85690476Y-71178571D01*
X85785714Y-71226190D01*
X86166666Y-71226190D01*
X85309523Y-70702380D02*
X84976190Y-71702380D01*
X84642857Y-70702380D01*
X84404761Y-70702380D02*
X83785714Y-70702380D01*
X84119047Y-71083333D01*
X83976190Y-71083333D01*
X83880952Y-71130952D01*
X83833333Y-71178571D01*
X83785714Y-71273809D01*
X83785714Y-71511904D01*
X83833333Y-71607142D01*
X83880952Y-71654761D01*
X83976190Y-71702380D01*
X84261904Y-71702380D01*
X84357142Y-71654761D01*
X84404761Y-71607142D01*
X61207904Y-123034380D02*
X60636476Y-123034380D01*
X60922190Y-124034380D02*
X60922190Y-123034380D01*
X60303142Y-124034380D02*
X60303142Y-123034380D01*
X59922190Y-123034380D01*
X59826952Y-123082000D01*
X59779333Y-123129619D01*
X59731714Y-123224857D01*
X59731714Y-123367714D01*
X59779333Y-123462952D01*
X59826952Y-123510571D01*
X59922190Y-123558190D01*
X60303142Y-123558190D01*
X59398380Y-123034380D02*
X58779333Y-123034380D01*
X59112666Y-123415333D01*
X58969809Y-123415333D01*
X58874571Y-123462952D01*
X58826952Y-123510571D01*
X58779333Y-123605809D01*
X58779333Y-123843904D01*
X58826952Y-123939142D01*
X58874571Y-123986761D01*
X58969809Y-124034380D01*
X59255523Y-124034380D01*
X59350761Y-123986761D01*
X59398380Y-123939142D01*
X69853333Y-53782380D02*
X69853333Y-54496666D01*
X69900952Y-54639523D01*
X69996190Y-54734761D01*
X70139047Y-54782380D01*
X70234285Y-54782380D01*
X69472380Y-53782380D02*
X68805714Y-53782380D01*
X69234285Y-54782380D01*
X78279904Y-72752380D02*
X77708476Y-72752380D01*
X77994190Y-73752380D02*
X77994190Y-72752380D01*
X77375142Y-73752380D02*
X77375142Y-72752380D01*
X76994190Y-72752380D01*
X76898952Y-72800000D01*
X76851333Y-72847619D01*
X76803714Y-72942857D01*
X76803714Y-73085714D01*
X76851333Y-73180952D01*
X76898952Y-73228571D01*
X76994190Y-73276190D01*
X77375142Y-73276190D01*
X75946571Y-73085714D02*
X75946571Y-73752380D01*
X76184666Y-72704761D02*
X76422761Y-73419047D01*
X75803714Y-73419047D01*
X71542857Y-83257142D02*
X71590476Y-83304761D01*
X71733333Y-83352380D01*
X71828571Y-83352380D01*
X71971428Y-83304761D01*
X72066666Y-83209523D01*
X72114285Y-83114285D01*
X72161904Y-82923809D01*
X72161904Y-82780952D01*
X72114285Y-82590476D01*
X72066666Y-82495238D01*
X71971428Y-82400000D01*
X71828571Y-82352380D01*
X71733333Y-82352380D01*
X71590476Y-82400000D01*
X71542857Y-82447619D01*
X70590476Y-83352380D02*
X71161904Y-83352380D01*
X70876190Y-83352380D02*
X70876190Y-82352380D01*
X70971428Y-82495238D01*
X71066666Y-82590476D01*
X71161904Y-82638095D01*
X69733333Y-82352380D02*
X69923809Y-82352380D01*
X70019047Y-82400000D01*
X70066666Y-82447619D01*
X70161904Y-82590476D01*
X70209523Y-82780952D01*
X70209523Y-83161904D01*
X70161904Y-83257142D01*
X70114285Y-83304761D01*
X70019047Y-83352380D01*
X69828571Y-83352380D01*
X69733333Y-83304761D01*
X69685714Y-83257142D01*
X69638095Y-83161904D01*
X69638095Y-82923809D01*
X69685714Y-82828571D01*
X69733333Y-82780952D01*
X69828571Y-82733333D01*
X70019047Y-82733333D01*
X70114285Y-82780952D01*
X70161904Y-82828571D01*
X70209523Y-82923809D01*
X83318742Y-62700342D02*
X83366361Y-62652723D01*
X83413980Y-62509866D01*
X83413980Y-62414628D01*
X83366361Y-62271771D01*
X83271123Y-62176533D01*
X83175885Y-62128914D01*
X82985409Y-62081295D01*
X82842552Y-62081295D01*
X82652076Y-62128914D01*
X82556838Y-62176533D01*
X82461600Y-62271771D01*
X82413980Y-62414628D01*
X82413980Y-62509866D01*
X82461600Y-62652723D01*
X82509219Y-62700342D01*
X82509219Y-63081295D02*
X82461600Y-63128914D01*
X82413980Y-63224152D01*
X82413980Y-63462247D01*
X82461600Y-63557485D01*
X82509219Y-63605104D01*
X82604457Y-63652723D01*
X82699695Y-63652723D01*
X82842552Y-63605104D01*
X83413980Y-63033676D01*
X83413980Y-63652723D01*
X82413980Y-64271771D02*
X82413980Y-64367009D01*
X82461600Y-64462247D01*
X82509219Y-64509866D01*
X82604457Y-64557485D01*
X82794933Y-64605104D01*
X83033028Y-64605104D01*
X83223504Y-64557485D01*
X83318742Y-64509866D01*
X83366361Y-64462247D01*
X83413980Y-64367009D01*
X83413980Y-64271771D01*
X83366361Y-64176533D01*
X83318742Y-64128914D01*
X83223504Y-64081295D01*
X83033028Y-64033676D01*
X82794933Y-64033676D01*
X82604457Y-64081295D01*
X82509219Y-64128914D01*
X82461600Y-64176533D01*
X82413980Y-64271771D01*
X60202380Y-57011904D02*
X59202380Y-57011904D01*
X59202380Y-57250000D01*
X59250000Y-57392857D01*
X59345238Y-57488095D01*
X59440476Y-57535714D01*
X59630952Y-57583333D01*
X59773809Y-57583333D01*
X59964285Y-57535714D01*
X60059523Y-57488095D01*
X60154761Y-57392857D01*
X60202380Y-57250000D01*
X60202380Y-57011904D01*
X59630952Y-58154761D02*
X59583333Y-58059523D01*
X59535714Y-58011904D01*
X59440476Y-57964285D01*
X59392857Y-57964285D01*
X59297619Y-58011904D01*
X59250000Y-58059523D01*
X59202380Y-58154761D01*
X59202380Y-58345238D01*
X59250000Y-58440476D01*
X59297619Y-58488095D01*
X59392857Y-58535714D01*
X59440476Y-58535714D01*
X59535714Y-58488095D01*
X59583333Y-58440476D01*
X59630952Y-58345238D01*
X59630952Y-58154761D01*
X59678571Y-58059523D01*
X59726190Y-58011904D01*
X59821428Y-57964285D01*
X60011904Y-57964285D01*
X60107142Y-58011904D01*
X60154761Y-58059523D01*
X60202380Y-58154761D01*
X60202380Y-58345238D01*
X60154761Y-58440476D01*
X60107142Y-58488095D01*
X60011904Y-58535714D01*
X59821428Y-58535714D01*
X59726190Y-58488095D01*
X59678571Y-58440476D01*
X59630952Y-58345238D01*
X61952380Y-61598095D02*
X60952380Y-61598095D01*
X61952380Y-62169523D02*
X61380952Y-61740952D01*
X60952380Y-62169523D02*
X61523809Y-61598095D01*
X94309523Y-142222380D02*
X94309523Y-142936666D01*
X94357142Y-143079523D01*
X94452380Y-143174761D01*
X94595238Y-143222380D01*
X94690476Y-143222380D01*
X93309523Y-143222380D02*
X93880952Y-143222380D01*
X93595238Y-143222380D02*
X93595238Y-142222380D01*
X93690476Y-142365238D01*
X93785714Y-142460476D01*
X93880952Y-142508095D01*
X92928571Y-142317619D02*
X92880952Y-142270000D01*
X92785714Y-142222380D01*
X92547619Y-142222380D01*
X92452380Y-142270000D01*
X92404761Y-142317619D01*
X92357142Y-142412857D01*
X92357142Y-142508095D01*
X92404761Y-142650952D01*
X92976190Y-143222380D01*
X92357142Y-143222380D01*
X61088095Y-52152380D02*
X61088095Y-51152380D01*
X60850000Y-51152380D01*
X60707142Y-51200000D01*
X60611904Y-51295238D01*
X60564285Y-51390476D01*
X60516666Y-51580952D01*
X60516666Y-51723809D01*
X60564285Y-51914285D01*
X60611904Y-52009523D01*
X60707142Y-52104761D01*
X60850000Y-52152380D01*
X61088095Y-52152380D01*
X60040476Y-52152380D02*
X59850000Y-52152380D01*
X59754761Y-52104761D01*
X59707142Y-52057142D01*
X59611904Y-51914285D01*
X59564285Y-51723809D01*
X59564285Y-51342857D01*
X59611904Y-51247619D01*
X59659523Y-51200000D01*
X59754761Y-51152380D01*
X59945238Y-51152380D01*
X60040476Y-51200000D01*
X60088095Y-51247619D01*
X60135714Y-51342857D01*
X60135714Y-51580952D01*
X60088095Y-51676190D01*
X60040476Y-51723809D01*
X59945238Y-51771428D01*
X59754761Y-51771428D01*
X59659523Y-51723809D01*
X59611904Y-51676190D01*
X59564285Y-51580952D01*
X64711904Y-50352380D02*
X64711904Y-49352380D01*
X64140476Y-50352380D02*
X64569047Y-49780952D01*
X64140476Y-49352380D02*
X64711904Y-49923809D01*
X109549523Y-142222380D02*
X109549523Y-142936666D01*
X109597142Y-143079523D01*
X109692380Y-143174761D01*
X109835238Y-143222380D01*
X109930476Y-143222380D01*
X108549523Y-143222380D02*
X109120952Y-143222380D01*
X108835238Y-143222380D02*
X108835238Y-142222380D01*
X108930476Y-142365238D01*
X109025714Y-142460476D01*
X109120952Y-142508095D01*
X108216190Y-142222380D02*
X107597142Y-142222380D01*
X107930476Y-142603333D01*
X107787619Y-142603333D01*
X107692380Y-142650952D01*
X107644761Y-142698571D01*
X107597142Y-142793809D01*
X107597142Y-143031904D01*
X107644761Y-143127142D01*
X107692380Y-143174761D01*
X107787619Y-143222380D01*
X108073333Y-143222380D01*
X108168571Y-143174761D01*
X108216190Y-143127142D01*
D10*
X115110000Y-99290000D02*
X114610000Y-99290000D01*
X112110000Y-99290000D02*
X112110000Y-98790000D01*
X112110000Y-99290000D02*
X112610000Y-99290000D01*
X115110000Y-99290000D02*
X115110000Y-98790000D01*
D12*
X103370000Y-44930000D02*
G75*
G03*
X103370000Y-44930000I-1750000J0D01*
G01*
D11*
X56650000Y-76420000D02*
X57980000Y-76420000D01*
X56650000Y-75090000D02*
X56650000Y-76420000D01*
X59250000Y-76420000D02*
X61850000Y-76420000D01*
X61850000Y-76420000D02*
X61850000Y-63600000D01*
X56650000Y-73820000D02*
X56650000Y-63600000D01*
X59250000Y-73820000D02*
X59250000Y-76420000D01*
X56650000Y-73820000D02*
X59250000Y-73820000D01*
X56650000Y-63600000D02*
X61850000Y-63600000D01*
X73720000Y-67435000D02*
X75506000Y-67435000D01*
X78460000Y-60485000D02*
X78460000Y-67435000D01*
X76496000Y-60485000D02*
X78460000Y-60485000D01*
X73720000Y-60485000D02*
X73720000Y-67435000D01*
X76496000Y-67435000D02*
X78460000Y-67435000D01*
X73720000Y-60485000D02*
X75506000Y-60485000D01*
X88435000Y-72504000D02*
X88435000Y-70540000D01*
X81485000Y-70540000D02*
X88435000Y-70540000D01*
X81485000Y-75280000D02*
X88435000Y-75280000D01*
X81485000Y-75280000D02*
X81485000Y-73494000D01*
X88435000Y-75280000D02*
X88435000Y-73494000D01*
X81485000Y-72504000D02*
X81485000Y-70540000D01*
D12*
X59450000Y-126000000D02*
G75*
G03*
X59450000Y-126000000I-1750000J0D01*
G01*
D11*
X66920000Y-40510000D02*
X72120000Y-40510000D01*
X66920000Y-50730000D02*
X66920000Y-40510000D01*
X66920000Y-53330000D02*
X68250000Y-53330000D01*
X69520000Y-53330000D02*
X72120000Y-53330000D01*
X66920000Y-50730000D02*
X69520000Y-50730000D01*
X72120000Y-53330000D02*
X72120000Y-40510000D01*
X66920000Y-52000000D02*
X66920000Y-53330000D01*
X69520000Y-50730000D02*
X69520000Y-53330000D01*
D12*
X80850000Y-75500000D02*
G75*
G03*
X80850000Y-75500000I-1750000J0D01*
G01*
D11*
X66504000Y-80761200D02*
X66504000Y-85001200D01*
X68539000Y-85001200D02*
X69244000Y-85001200D01*
X66504000Y-80761200D02*
X67209000Y-80761200D01*
X69244000Y-80761200D02*
X69244000Y-85001200D01*
X66504000Y-85001200D02*
X67209000Y-85001200D01*
X68539000Y-80761200D02*
X69244000Y-80761200D01*
X83980000Y-59864800D02*
X81740000Y-59864800D01*
X83980000Y-67104800D02*
X83980000Y-59864800D01*
X81740000Y-67104800D02*
X81740000Y-59864800D01*
X83980000Y-67104800D02*
X81740000Y-67104800D01*
X60820000Y-55930000D02*
X60820000Y-60170000D01*
X60820000Y-59570000D02*
X58580000Y-59570000D01*
X59700000Y-55280000D02*
X59700000Y-55930000D01*
X58580000Y-55930000D02*
X60820000Y-55930000D01*
X60820000Y-59330000D02*
X58580000Y-59330000D01*
X59700000Y-60820000D02*
X59700000Y-60170000D01*
X60820000Y-60170000D02*
X58580000Y-60170000D01*
X58580000Y-60170000D02*
X58580000Y-55930000D01*
X60820000Y-59450000D02*
X58580000Y-59450000D01*
X92170000Y-138730000D02*
X92170000Y-103110000D01*
X93500000Y-141330000D02*
X94830000Y-141330000D01*
X92170000Y-138730000D02*
X94830000Y-138730000D01*
X94830000Y-138730000D02*
X94830000Y-103110000D01*
X92170000Y-103110000D02*
X94830000Y-103110000D01*
X94830000Y-141330000D02*
X94830000Y-140000000D01*
X57870000Y-51700000D02*
X58520000Y-51700000D01*
X58520000Y-52820000D02*
X58520000Y-50580000D01*
X61920000Y-50580000D02*
X61920000Y-52820000D01*
X62760000Y-52820000D02*
X58520000Y-52820000D01*
X63410000Y-51700000D02*
X62760000Y-51700000D01*
X62160000Y-50580000D02*
X62160000Y-52820000D01*
X62760000Y-50580000D02*
X62760000Y-52820000D01*
X62040000Y-50580000D02*
X62040000Y-52820000D01*
X58520000Y-50580000D02*
X62760000Y-50580000D01*
X107410000Y-138730000D02*
X107410000Y-103110000D01*
X110070000Y-138730000D02*
X110070000Y-103110000D01*
X107410000Y-138730000D02*
X110070000Y-138730000D01*
X110070000Y-141330000D02*
X110070000Y-140000000D01*
X108740000Y-141330000D02*
X110070000Y-141330000D01*
X107410000Y-103110000D02*
X110070000Y-103110000D01*
M02*
