%TF.GenerationSoftware,KiCad,Pcbnew,(6.0.1)*%
%TF.CreationDate,2022-11-26T13:10:33-08:00*%
%TF.ProjectId,Spankulator,5370616e-6b75-46c6-9174-6f722e6b6963,4.4*%
%TF.SameCoordinates,Original*%
%TF.FileFunction,Legend,Top*%
%TF.FilePolarity,Positive*%
%FSLAX46Y46*%
G04 Gerber Fmt 4.6, Leading zero omitted, Abs format (unit mm)*
G04 Created by KiCad (PCBNEW (6.0.1)) date 2022-11-26 13:10:33*
%MOMM*%
%LPD*%
G01*
G04 APERTURE LIST*
%ADD10C,0.400000*%
%ADD11C,0.150000*%
%ADD12C,0.300000*%
%ADD13C,0.100000*%
%ADD14C,0.120000*%
G04 APERTURE END LIST*
D10*
X107784864Y-110666516D02*
G75*
G03*
X107800000Y-105530000I-2795193J2576517D01*
G01*
X105000000Y-105475000D02*
X105000000Y-110700000D01*
D11*
X81957142Y-40234000D02*
X81842857Y-40176857D01*
X81671428Y-40176857D01*
X81500000Y-40234000D01*
X81385714Y-40348285D01*
X81328571Y-40462571D01*
X81271428Y-40691142D01*
X81271428Y-40862571D01*
X81328571Y-41091142D01*
X81385714Y-41205428D01*
X81500000Y-41319714D01*
X81671428Y-41376857D01*
X81785714Y-41376857D01*
X81957142Y-41319714D01*
X82014285Y-41262571D01*
X82014285Y-40862571D01*
X81785714Y-40862571D01*
X82528571Y-41376857D02*
X82528571Y-40576857D01*
X82528571Y-40805428D02*
X82585714Y-40691142D01*
X82642857Y-40634000D01*
X82757142Y-40576857D01*
X82871428Y-40576857D01*
X83728571Y-41319714D02*
X83614285Y-41376857D01*
X83385714Y-41376857D01*
X83271428Y-41319714D01*
X83214285Y-41205428D01*
X83214285Y-40748285D01*
X83271428Y-40634000D01*
X83385714Y-40576857D01*
X83614285Y-40576857D01*
X83728571Y-40634000D01*
X83785714Y-40748285D01*
X83785714Y-40862571D01*
X83214285Y-40976857D01*
X84757142Y-41319714D02*
X84642857Y-41376857D01*
X84414285Y-41376857D01*
X84300000Y-41319714D01*
X84242857Y-41205428D01*
X84242857Y-40748285D01*
X84300000Y-40634000D01*
X84414285Y-40576857D01*
X84642857Y-40576857D01*
X84757142Y-40634000D01*
X84814285Y-40748285D01*
X84814285Y-40862571D01*
X84242857Y-40976857D01*
X85328571Y-40576857D02*
X85328571Y-41376857D01*
X85328571Y-40691142D02*
X85385714Y-40634000D01*
X85500000Y-40576857D01*
X85671428Y-40576857D01*
X85785714Y-40634000D01*
X85842857Y-40748285D01*
X85842857Y-41376857D01*
X86242857Y-40576857D02*
X86700000Y-40576857D01*
X86414285Y-41376857D02*
X86414285Y-40348285D01*
X86471428Y-40234000D01*
X86585714Y-40176857D01*
X86700000Y-40176857D01*
X87614285Y-41376857D02*
X87614285Y-40748285D01*
X87557142Y-40634000D01*
X87442857Y-40576857D01*
X87214285Y-40576857D01*
X87100000Y-40634000D01*
X87614285Y-41319714D02*
X87500000Y-41376857D01*
X87214285Y-41376857D01*
X87100000Y-41319714D01*
X87042857Y-41205428D01*
X87042857Y-41091142D01*
X87100000Y-40976857D01*
X87214285Y-40919714D01*
X87500000Y-40919714D01*
X87614285Y-40862571D01*
X88700000Y-41319714D02*
X88585714Y-41376857D01*
X88357142Y-41376857D01*
X88242857Y-41319714D01*
X88185714Y-41262571D01*
X88128571Y-41148285D01*
X88128571Y-40805428D01*
X88185714Y-40691142D01*
X88242857Y-40634000D01*
X88357142Y-40576857D01*
X88585714Y-40576857D01*
X88700000Y-40634000D01*
X89671428Y-41319714D02*
X89557142Y-41376857D01*
X89328571Y-41376857D01*
X89214285Y-41319714D01*
X89157142Y-41205428D01*
X89157142Y-40748285D01*
X89214285Y-40634000D01*
X89328571Y-40576857D01*
X89557142Y-40576857D01*
X89671428Y-40634000D01*
X89728571Y-40748285D01*
X89728571Y-40862571D01*
X89157142Y-40976857D01*
X84300000Y-43308857D02*
X83728571Y-43308857D01*
X83728571Y-42108857D01*
X85214285Y-43308857D02*
X85214285Y-42680285D01*
X85157142Y-42566000D01*
X85042857Y-42508857D01*
X84814285Y-42508857D01*
X84700000Y-42566000D01*
X85214285Y-43251714D02*
X85100000Y-43308857D01*
X84814285Y-43308857D01*
X84700000Y-43251714D01*
X84642857Y-43137428D01*
X84642857Y-43023142D01*
X84700000Y-42908857D01*
X84814285Y-42851714D01*
X85100000Y-42851714D01*
X85214285Y-42794571D01*
X85785714Y-43308857D02*
X85785714Y-42108857D01*
X85785714Y-42566000D02*
X85900000Y-42508857D01*
X86128571Y-42508857D01*
X86242857Y-42566000D01*
X86300000Y-42623142D01*
X86357142Y-42737428D01*
X86357142Y-43080285D01*
X86300000Y-43194571D01*
X86242857Y-43251714D01*
X86128571Y-43308857D01*
X85900000Y-43308857D01*
X85785714Y-43251714D01*
X86814285Y-43251714D02*
X86928571Y-43308857D01*
X87157142Y-43308857D01*
X87271428Y-43251714D01*
X87328571Y-43137428D01*
X87328571Y-43080285D01*
X87271428Y-42966000D01*
X87157142Y-42908857D01*
X86985714Y-42908857D01*
X86871428Y-42851714D01*
X86814285Y-42737428D01*
X86814285Y-42680285D01*
X86871428Y-42566000D01*
X86985714Y-42508857D01*
X87157142Y-42508857D01*
X87271428Y-42566000D01*
D12*
X67500000Y-145357142D02*
X67571428Y-145214285D01*
X67571428Y-145000000D01*
X67500000Y-144785714D01*
X67357142Y-144642857D01*
X67214285Y-144571428D01*
X66928571Y-144500000D01*
X66714285Y-144500000D01*
X66428571Y-144571428D01*
X66285714Y-144642857D01*
X66142857Y-144785714D01*
X66071428Y-145000000D01*
X66071428Y-145142857D01*
X66142857Y-145357142D01*
X66214285Y-145428571D01*
X66714285Y-145428571D01*
X66714285Y-145142857D01*
X66071428Y-146071428D02*
X67571428Y-146071428D01*
X66071428Y-146928571D01*
X67571428Y-146928571D01*
X66071428Y-147642857D02*
X67571428Y-147642857D01*
X67571428Y-148000000D01*
X67500000Y-148214285D01*
X67357142Y-148357142D01*
X67214285Y-148428571D01*
X66928571Y-148500000D01*
X66714285Y-148500000D01*
X66428571Y-148428571D01*
X66285714Y-148357142D01*
X66142857Y-148214285D01*
X66071428Y-148000000D01*
X66071428Y-147642857D01*
D11*
X104787142Y-115832857D02*
X104834761Y-115880476D01*
X104882380Y-116023333D01*
X104882380Y-116118571D01*
X104834761Y-116261428D01*
X104739523Y-116356666D01*
X104644285Y-116404285D01*
X104453809Y-116451904D01*
X104310952Y-116451904D01*
X104120476Y-116404285D01*
X104025238Y-116356666D01*
X103930000Y-116261428D01*
X103882380Y-116118571D01*
X103882380Y-116023333D01*
X103930000Y-115880476D01*
X103977619Y-115832857D01*
X103977619Y-115451904D02*
X103930000Y-115404285D01*
X103882380Y-115309047D01*
X103882380Y-115070952D01*
X103930000Y-114975714D01*
X103977619Y-114928095D01*
X104072857Y-114880476D01*
X104168095Y-114880476D01*
X104310952Y-114928095D01*
X104882380Y-115499523D01*
X104882380Y-114880476D01*
X104882380Y-113928095D02*
X104882380Y-114499523D01*
X104882380Y-114213809D02*
X103882380Y-114213809D01*
X104025238Y-114309047D01*
X104120476Y-114404285D01*
X104168095Y-114499523D01*
X83777142Y-61552857D02*
X83824761Y-61600476D01*
X83872380Y-61743333D01*
X83872380Y-61838571D01*
X83824761Y-61981428D01*
X83729523Y-62076666D01*
X83634285Y-62124285D01*
X83443809Y-62171904D01*
X83300952Y-62171904D01*
X83110476Y-62124285D01*
X83015238Y-62076666D01*
X82920000Y-61981428D01*
X82872380Y-61838571D01*
X82872380Y-61743333D01*
X82920000Y-61600476D01*
X82967619Y-61552857D01*
X82967619Y-61171904D02*
X82920000Y-61124285D01*
X82872380Y-61029047D01*
X82872380Y-60790952D01*
X82920000Y-60695714D01*
X82967619Y-60648095D01*
X83062857Y-60600476D01*
X83158095Y-60600476D01*
X83300952Y-60648095D01*
X83872380Y-61219523D01*
X83872380Y-60600476D01*
X82872380Y-59981428D02*
X82872380Y-59886190D01*
X82920000Y-59790952D01*
X82967619Y-59743333D01*
X83062857Y-59695714D01*
X83253333Y-59648095D01*
X83491428Y-59648095D01*
X83681904Y-59695714D01*
X83777142Y-59743333D01*
X83824761Y-59790952D01*
X83872380Y-59886190D01*
X83872380Y-59981428D01*
X83824761Y-60076666D01*
X83777142Y-60124285D01*
X83681904Y-60171904D01*
X83491428Y-60219523D01*
X83253333Y-60219523D01*
X83062857Y-60171904D01*
X82967619Y-60124285D01*
X82920000Y-60076666D01*
X82872380Y-59981428D01*
X59437142Y-78867142D02*
X59389523Y-78914761D01*
X59246666Y-78962380D01*
X59151428Y-78962380D01*
X59008571Y-78914761D01*
X58913333Y-78819523D01*
X58865714Y-78724285D01*
X58818095Y-78533809D01*
X58818095Y-78390952D01*
X58865714Y-78200476D01*
X58913333Y-78105238D01*
X59008571Y-78010000D01*
X59151428Y-77962380D01*
X59246666Y-77962380D01*
X59389523Y-78010000D01*
X59437142Y-78057619D01*
X60389523Y-78962380D02*
X59818095Y-78962380D01*
X60103809Y-78962380D02*
X60103809Y-77962380D01*
X60008571Y-78105238D01*
X59913333Y-78200476D01*
X59818095Y-78248095D01*
X60722857Y-77962380D02*
X61389523Y-77962380D01*
X60960952Y-78962380D01*
X59707142Y-120642857D02*
X59754761Y-120690476D01*
X59802380Y-120833333D01*
X59802380Y-120928571D01*
X59754761Y-121071428D01*
X59659523Y-121166666D01*
X59564285Y-121214285D01*
X59373809Y-121261904D01*
X59230952Y-121261904D01*
X59040476Y-121214285D01*
X58945238Y-121166666D01*
X58850000Y-121071428D01*
X58802380Y-120928571D01*
X58802380Y-120833333D01*
X58850000Y-120690476D01*
X58897619Y-120642857D01*
X59802380Y-119690476D02*
X59802380Y-120261904D01*
X59802380Y-119976190D02*
X58802380Y-119976190D01*
X58945238Y-120071428D01*
X59040476Y-120166666D01*
X59088095Y-120261904D01*
X59135714Y-118833333D02*
X59802380Y-118833333D01*
X58754761Y-119071428D02*
X59469047Y-119309523D01*
X59469047Y-118690476D01*
X76937142Y-131102857D02*
X76984761Y-131150476D01*
X77032380Y-131293333D01*
X77032380Y-131388571D01*
X76984761Y-131531428D01*
X76889523Y-131626666D01*
X76794285Y-131674285D01*
X76603809Y-131721904D01*
X76460952Y-131721904D01*
X76270476Y-131674285D01*
X76175238Y-131626666D01*
X76080000Y-131531428D01*
X76032380Y-131388571D01*
X76032380Y-131293333D01*
X76080000Y-131150476D01*
X76127619Y-131102857D01*
X77032380Y-130150476D02*
X77032380Y-130721904D01*
X77032380Y-130436190D02*
X76032380Y-130436190D01*
X76175238Y-130531428D01*
X76270476Y-130626666D01*
X76318095Y-130721904D01*
X76032380Y-129817142D02*
X76032380Y-129198095D01*
X76413333Y-129531428D01*
X76413333Y-129388571D01*
X76460952Y-129293333D01*
X76508571Y-129245714D01*
X76603809Y-129198095D01*
X76841904Y-129198095D01*
X76937142Y-129245714D01*
X76984761Y-129293333D01*
X77032380Y-129388571D01*
X77032380Y-129674285D01*
X76984761Y-129769523D01*
X76937142Y-129817142D01*
X87907142Y-123112857D02*
X87954761Y-123160476D01*
X88002380Y-123303333D01*
X88002380Y-123398571D01*
X87954761Y-123541428D01*
X87859523Y-123636666D01*
X87764285Y-123684285D01*
X87573809Y-123731904D01*
X87430952Y-123731904D01*
X87240476Y-123684285D01*
X87145238Y-123636666D01*
X87050000Y-123541428D01*
X87002380Y-123398571D01*
X87002380Y-123303333D01*
X87050000Y-123160476D01*
X87097619Y-123112857D01*
X88002380Y-122160476D02*
X88002380Y-122731904D01*
X88002380Y-122446190D02*
X87002380Y-122446190D01*
X87145238Y-122541428D01*
X87240476Y-122636666D01*
X87288095Y-122731904D01*
X87097619Y-121779523D02*
X87050000Y-121731904D01*
X87002380Y-121636666D01*
X87002380Y-121398571D01*
X87050000Y-121303333D01*
X87097619Y-121255714D01*
X87192857Y-121208095D01*
X87288095Y-121208095D01*
X87430952Y-121255714D01*
X88002380Y-121827142D01*
X88002380Y-121208095D01*
X95217142Y-145327142D02*
X95169523Y-145374761D01*
X95026666Y-145422380D01*
X94931428Y-145422380D01*
X94788571Y-145374761D01*
X94693333Y-145279523D01*
X94645714Y-145184285D01*
X94598095Y-144993809D01*
X94598095Y-144850952D01*
X94645714Y-144660476D01*
X94693333Y-144565238D01*
X94788571Y-144470000D01*
X94931428Y-144422380D01*
X95026666Y-144422380D01*
X95169523Y-144470000D01*
X95217142Y-144517619D01*
X96169523Y-145422380D02*
X95598095Y-145422380D01*
X95883809Y-145422380D02*
X95883809Y-144422380D01*
X95788571Y-144565238D01*
X95693333Y-144660476D01*
X95598095Y-144708095D01*
X96788571Y-144422380D02*
X96883809Y-144422380D01*
X96979047Y-144470000D01*
X97026666Y-144517619D01*
X97074285Y-144612857D01*
X97121904Y-144803333D01*
X97121904Y-145041428D01*
X97074285Y-145231904D01*
X97026666Y-145327142D01*
X96979047Y-145374761D01*
X96883809Y-145422380D01*
X96788571Y-145422380D01*
X96693333Y-145374761D01*
X96645714Y-145327142D01*
X96598095Y-145231904D01*
X96550476Y-145041428D01*
X96550476Y-144803333D01*
X96598095Y-144612857D01*
X96645714Y-144517619D01*
X96693333Y-144470000D01*
X96788571Y-144422380D01*
X100353333Y-122317142D02*
X100305714Y-122364761D01*
X100162857Y-122412380D01*
X100067619Y-122412380D01*
X99924761Y-122364761D01*
X99829523Y-122269523D01*
X99781904Y-122174285D01*
X99734285Y-121983809D01*
X99734285Y-121840952D01*
X99781904Y-121650476D01*
X99829523Y-121555238D01*
X99924761Y-121460000D01*
X100067619Y-121412380D01*
X100162857Y-121412380D01*
X100305714Y-121460000D01*
X100353333Y-121507619D01*
X100829523Y-122412380D02*
X101020000Y-122412380D01*
X101115238Y-122364761D01*
X101162857Y-122317142D01*
X101258095Y-122174285D01*
X101305714Y-121983809D01*
X101305714Y-121602857D01*
X101258095Y-121507619D01*
X101210476Y-121460000D01*
X101115238Y-121412380D01*
X100924761Y-121412380D01*
X100829523Y-121460000D01*
X100781904Y-121507619D01*
X100734285Y-121602857D01*
X100734285Y-121840952D01*
X100781904Y-121936190D01*
X100829523Y-121983809D01*
X100924761Y-122031428D01*
X101115238Y-122031428D01*
X101210476Y-121983809D01*
X101258095Y-121936190D01*
X101305714Y-121840952D01*
X73053333Y-92437142D02*
X73005714Y-92484761D01*
X72862857Y-92532380D01*
X72767619Y-92532380D01*
X72624761Y-92484761D01*
X72529523Y-92389523D01*
X72481904Y-92294285D01*
X72434285Y-92103809D01*
X72434285Y-91960952D01*
X72481904Y-91770476D01*
X72529523Y-91675238D01*
X72624761Y-91580000D01*
X72767619Y-91532380D01*
X72862857Y-91532380D01*
X73005714Y-91580000D01*
X73053333Y-91627619D01*
X73624761Y-91960952D02*
X73529523Y-91913333D01*
X73481904Y-91865714D01*
X73434285Y-91770476D01*
X73434285Y-91722857D01*
X73481904Y-91627619D01*
X73529523Y-91580000D01*
X73624761Y-91532380D01*
X73815238Y-91532380D01*
X73910476Y-91580000D01*
X73958095Y-91627619D01*
X74005714Y-91722857D01*
X74005714Y-91770476D01*
X73958095Y-91865714D01*
X73910476Y-91913333D01*
X73815238Y-91960952D01*
X73624761Y-91960952D01*
X73529523Y-92008571D01*
X73481904Y-92056190D01*
X73434285Y-92151428D01*
X73434285Y-92341904D01*
X73481904Y-92437142D01*
X73529523Y-92484761D01*
X73624761Y-92532380D01*
X73815238Y-92532380D01*
X73910476Y-92484761D01*
X73958095Y-92437142D01*
X74005714Y-92341904D01*
X74005714Y-92151428D01*
X73958095Y-92056190D01*
X73910476Y-92008571D01*
X73815238Y-91960952D01*
X68473333Y-109297142D02*
X68425714Y-109344761D01*
X68282857Y-109392380D01*
X68187619Y-109392380D01*
X68044761Y-109344761D01*
X67949523Y-109249523D01*
X67901904Y-109154285D01*
X67854285Y-108963809D01*
X67854285Y-108820952D01*
X67901904Y-108630476D01*
X67949523Y-108535238D01*
X68044761Y-108440000D01*
X68187619Y-108392380D01*
X68282857Y-108392380D01*
X68425714Y-108440000D01*
X68473333Y-108487619D01*
X68806666Y-108392380D02*
X69473333Y-108392380D01*
X69044761Y-109392380D01*
X77083333Y-69037142D02*
X77035714Y-69084761D01*
X76892857Y-69132380D01*
X76797619Y-69132380D01*
X76654761Y-69084761D01*
X76559523Y-68989523D01*
X76511904Y-68894285D01*
X76464285Y-68703809D01*
X76464285Y-68560952D01*
X76511904Y-68370476D01*
X76559523Y-68275238D01*
X76654761Y-68180000D01*
X76797619Y-68132380D01*
X76892857Y-68132380D01*
X77035714Y-68180000D01*
X77083333Y-68227619D01*
X77940476Y-68132380D02*
X77750000Y-68132380D01*
X77654761Y-68180000D01*
X77607142Y-68227619D01*
X77511904Y-68370476D01*
X77464285Y-68560952D01*
X77464285Y-68941904D01*
X77511904Y-69037142D01*
X77559523Y-69084761D01*
X77654761Y-69132380D01*
X77845238Y-69132380D01*
X77940476Y-69084761D01*
X77988095Y-69037142D01*
X78035714Y-68941904D01*
X78035714Y-68703809D01*
X77988095Y-68608571D01*
X77940476Y-68560952D01*
X77845238Y-68513333D01*
X77654761Y-68513333D01*
X77559523Y-68560952D01*
X77511904Y-68608571D01*
X77464285Y-68703809D01*
X83593333Y-55437142D02*
X83545714Y-55484761D01*
X83402857Y-55532380D01*
X83307619Y-55532380D01*
X83164761Y-55484761D01*
X83069523Y-55389523D01*
X83021904Y-55294285D01*
X82974285Y-55103809D01*
X82974285Y-54960952D01*
X83021904Y-54770476D01*
X83069523Y-54675238D01*
X83164761Y-54580000D01*
X83307619Y-54532380D01*
X83402857Y-54532380D01*
X83545714Y-54580000D01*
X83593333Y-54627619D01*
X84498095Y-54532380D02*
X84021904Y-54532380D01*
X83974285Y-55008571D01*
X84021904Y-54960952D01*
X84117142Y-54913333D01*
X84355238Y-54913333D01*
X84450476Y-54960952D01*
X84498095Y-55008571D01*
X84545714Y-55103809D01*
X84545714Y-55341904D01*
X84498095Y-55437142D01*
X84450476Y-55484761D01*
X84355238Y-55532380D01*
X84117142Y-55532380D01*
X84021904Y-55484761D01*
X83974285Y-55437142D01*
X105879142Y-88303142D02*
X105831523Y-88350761D01*
X105688666Y-88398380D01*
X105593428Y-88398380D01*
X105450571Y-88350761D01*
X105355333Y-88255523D01*
X105307714Y-88160285D01*
X105260095Y-87969809D01*
X105260095Y-87826952D01*
X105307714Y-87636476D01*
X105355333Y-87541238D01*
X105450571Y-87446000D01*
X105593428Y-87398380D01*
X105688666Y-87398380D01*
X105831523Y-87446000D01*
X105879142Y-87493619D01*
X106831523Y-88398380D02*
X106260095Y-88398380D01*
X106545809Y-88398380D02*
X106545809Y-87398380D01*
X106450571Y-87541238D01*
X106355333Y-87636476D01*
X106260095Y-87684095D01*
X107307714Y-88398380D02*
X107498190Y-88398380D01*
X107593428Y-88350761D01*
X107641047Y-88303142D01*
X107736285Y-88160285D01*
X107783904Y-87969809D01*
X107783904Y-87588857D01*
X107736285Y-87493619D01*
X107688666Y-87446000D01*
X107593428Y-87398380D01*
X107402952Y-87398380D01*
X107307714Y-87446000D01*
X107260095Y-87493619D01*
X107212476Y-87588857D01*
X107212476Y-87826952D01*
X107260095Y-87922190D01*
X107307714Y-87969809D01*
X107402952Y-88017428D01*
X107593428Y-88017428D01*
X107688666Y-87969809D01*
X107736285Y-87922190D01*
X107783904Y-87826952D01*
X93057142Y-143642857D02*
X93104761Y-143690476D01*
X93152380Y-143833333D01*
X93152380Y-143928571D01*
X93104761Y-144071428D01*
X93009523Y-144166666D01*
X92914285Y-144214285D01*
X92723809Y-144261904D01*
X92580952Y-144261904D01*
X92390476Y-144214285D01*
X92295238Y-144166666D01*
X92200000Y-144071428D01*
X92152380Y-143928571D01*
X92152380Y-143833333D01*
X92200000Y-143690476D01*
X92247619Y-143642857D01*
X93152380Y-142690476D02*
X93152380Y-143261904D01*
X93152380Y-142976190D02*
X92152380Y-142976190D01*
X92295238Y-143071428D01*
X92390476Y-143166666D01*
X92438095Y-143261904D01*
X92580952Y-142119047D02*
X92533333Y-142214285D01*
X92485714Y-142261904D01*
X92390476Y-142309523D01*
X92342857Y-142309523D01*
X92247619Y-142261904D01*
X92200000Y-142214285D01*
X92152380Y-142119047D01*
X92152380Y-141928571D01*
X92200000Y-141833333D01*
X92247619Y-141785714D01*
X92342857Y-141738095D01*
X92390476Y-141738095D01*
X92485714Y-141785714D01*
X92533333Y-141833333D01*
X92580952Y-141928571D01*
X92580952Y-142119047D01*
X92628571Y-142214285D01*
X92676190Y-142261904D01*
X92771428Y-142309523D01*
X92961904Y-142309523D01*
X93057142Y-142261904D01*
X93104761Y-142214285D01*
X93152380Y-142119047D01*
X93152380Y-141928571D01*
X93104761Y-141833333D01*
X93057142Y-141785714D01*
X92961904Y-141738095D01*
X92771428Y-141738095D01*
X92676190Y-141785714D01*
X92628571Y-141833333D01*
X92580952Y-141928571D01*
X80833333Y-111057142D02*
X80785714Y-111104761D01*
X80642857Y-111152380D01*
X80547619Y-111152380D01*
X80404761Y-111104761D01*
X80309523Y-111009523D01*
X80261904Y-110914285D01*
X80214285Y-110723809D01*
X80214285Y-110580952D01*
X80261904Y-110390476D01*
X80309523Y-110295238D01*
X80404761Y-110200000D01*
X80547619Y-110152380D01*
X80642857Y-110152380D01*
X80785714Y-110200000D01*
X80833333Y-110247619D01*
X81214285Y-110247619D02*
X81261904Y-110200000D01*
X81357142Y-110152380D01*
X81595238Y-110152380D01*
X81690476Y-110200000D01*
X81738095Y-110247619D01*
X81785714Y-110342857D01*
X81785714Y-110438095D01*
X81738095Y-110580952D01*
X81166666Y-111152380D01*
X81785714Y-111152380D01*
X87493333Y-110807142D02*
X87445714Y-110854761D01*
X87302857Y-110902380D01*
X87207619Y-110902380D01*
X87064761Y-110854761D01*
X86969523Y-110759523D01*
X86921904Y-110664285D01*
X86874285Y-110473809D01*
X86874285Y-110330952D01*
X86921904Y-110140476D01*
X86969523Y-110045238D01*
X87064761Y-109950000D01*
X87207619Y-109902380D01*
X87302857Y-109902380D01*
X87445714Y-109950000D01*
X87493333Y-109997619D01*
X88445714Y-110902380D02*
X87874285Y-110902380D01*
X88160000Y-110902380D02*
X88160000Y-109902380D01*
X88064761Y-110045238D01*
X87969523Y-110140476D01*
X87874285Y-110188095D01*
X86902380Y-130751904D02*
X87711904Y-130751904D01*
X87807142Y-130704285D01*
X87854761Y-130656666D01*
X87902380Y-130561428D01*
X87902380Y-130370952D01*
X87854761Y-130275714D01*
X87807142Y-130228095D01*
X87711904Y-130180476D01*
X86902380Y-130180476D01*
X86902380Y-129799523D02*
X86902380Y-129180476D01*
X87283333Y-129513809D01*
X87283333Y-129370952D01*
X87330952Y-129275714D01*
X87378571Y-129228095D01*
X87473809Y-129180476D01*
X87711904Y-129180476D01*
X87807142Y-129228095D01*
X87854761Y-129275714D01*
X87902380Y-129370952D01*
X87902380Y-129656666D01*
X87854761Y-129751904D01*
X87807142Y-129799523D01*
X75448095Y-55072380D02*
X75448095Y-55881904D01*
X75495714Y-55977142D01*
X75543333Y-56024761D01*
X75638571Y-56072380D01*
X75829047Y-56072380D01*
X75924285Y-56024761D01*
X75971904Y-55977142D01*
X76019523Y-55881904D01*
X76019523Y-55072380D01*
X77019523Y-56072380D02*
X76448095Y-56072380D01*
X76733809Y-56072380D02*
X76733809Y-55072380D01*
X76638571Y-55215238D01*
X76543333Y-55310476D01*
X76448095Y-55358095D01*
X60863333Y-47327142D02*
X60815714Y-47374761D01*
X60672857Y-47422380D01*
X60577619Y-47422380D01*
X60434761Y-47374761D01*
X60339523Y-47279523D01*
X60291904Y-47184285D01*
X60244285Y-46993809D01*
X60244285Y-46850952D01*
X60291904Y-46660476D01*
X60339523Y-46565238D01*
X60434761Y-46470000D01*
X60577619Y-46422380D01*
X60672857Y-46422380D01*
X60815714Y-46470000D01*
X60863333Y-46517619D01*
X61196666Y-46422380D02*
X61815714Y-46422380D01*
X61482380Y-46803333D01*
X61625238Y-46803333D01*
X61720476Y-46850952D01*
X61768095Y-46898571D01*
X61815714Y-46993809D01*
X61815714Y-47231904D01*
X61768095Y-47327142D01*
X61720476Y-47374761D01*
X61625238Y-47422380D01*
X61339523Y-47422380D01*
X61244285Y-47374761D01*
X61196666Y-47327142D01*
X58043333Y-56537142D02*
X57995714Y-56584761D01*
X57852857Y-56632380D01*
X57757619Y-56632380D01*
X57614761Y-56584761D01*
X57519523Y-56489523D01*
X57471904Y-56394285D01*
X57424285Y-56203809D01*
X57424285Y-56060952D01*
X57471904Y-55870476D01*
X57519523Y-55775238D01*
X57614761Y-55680000D01*
X57757619Y-55632380D01*
X57852857Y-55632380D01*
X57995714Y-55680000D01*
X58043333Y-55727619D01*
X58900476Y-55965714D02*
X58900476Y-56632380D01*
X58662380Y-55584761D02*
X58424285Y-56299047D01*
X59043333Y-56299047D01*
X103261904Y-48452380D02*
X103261904Y-47452380D01*
X103500000Y-47452380D01*
X103642857Y-47500000D01*
X103738095Y-47595238D01*
X103785714Y-47690476D01*
X103833333Y-47880952D01*
X103833333Y-48023809D01*
X103785714Y-48214285D01*
X103738095Y-48309523D01*
X103642857Y-48404761D01*
X103500000Y-48452380D01*
X103261904Y-48452380D01*
X104166666Y-47452380D02*
X104785714Y-47452380D01*
X104452380Y-47833333D01*
X104595238Y-47833333D01*
X104690476Y-47880952D01*
X104738095Y-47928571D01*
X104785714Y-48023809D01*
X104785714Y-48261904D01*
X104738095Y-48357142D01*
X104690476Y-48404761D01*
X104595238Y-48452380D01*
X104309523Y-48452380D01*
X104214285Y-48404761D01*
X104166666Y-48357142D01*
X66119904Y-104486380D02*
X66119904Y-103486380D01*
X66358000Y-103486380D01*
X66500857Y-103534000D01*
X66596095Y-103629238D01*
X66643714Y-103724476D01*
X66691333Y-103914952D01*
X66691333Y-104057809D01*
X66643714Y-104248285D01*
X66596095Y-104343523D01*
X66500857Y-104438761D01*
X66358000Y-104486380D01*
X66119904Y-104486380D01*
X67596095Y-103486380D02*
X67119904Y-103486380D01*
X67072285Y-103962571D01*
X67119904Y-103914952D01*
X67215142Y-103867333D01*
X67453238Y-103867333D01*
X67548476Y-103914952D01*
X67596095Y-103962571D01*
X67643714Y-104057809D01*
X67643714Y-104295904D01*
X67596095Y-104391142D01*
X67548476Y-104438761D01*
X67453238Y-104486380D01*
X67215142Y-104486380D01*
X67119904Y-104438761D01*
X67072285Y-104391142D01*
X64252380Y-97433333D02*
X64966666Y-97433333D01*
X65109523Y-97480952D01*
X65204761Y-97576190D01*
X65252380Y-97719047D01*
X65252380Y-97814285D01*
X65252380Y-96433333D02*
X65252380Y-97004761D01*
X65252380Y-96719047D02*
X64252380Y-96719047D01*
X64395238Y-96814285D01*
X64490476Y-96909523D01*
X64538095Y-97004761D01*
X105652380Y-56833333D02*
X106366666Y-56833333D01*
X106509523Y-56880952D01*
X106604761Y-56976190D01*
X106652380Y-57119047D01*
X106652380Y-57214285D01*
X105652380Y-56452380D02*
X105652380Y-55833333D01*
X106033333Y-56166666D01*
X106033333Y-56023809D01*
X106080952Y-55928571D01*
X106128571Y-55880952D01*
X106223809Y-55833333D01*
X106461904Y-55833333D01*
X106557142Y-55880952D01*
X106604761Y-55928571D01*
X106652380Y-56023809D01*
X106652380Y-56309523D01*
X106604761Y-56404761D01*
X106557142Y-56452380D01*
X106052380Y-68433333D02*
X106766666Y-68433333D01*
X106909523Y-68480952D01*
X107004761Y-68576190D01*
X107052380Y-68719047D01*
X107052380Y-68814285D01*
X106385714Y-67528571D02*
X107052380Y-67528571D01*
X106004761Y-67766666D02*
X106719047Y-68004761D01*
X106719047Y-67385714D01*
X106052380Y-96033333D02*
X106766666Y-96033333D01*
X106909523Y-96080952D01*
X107004761Y-96176190D01*
X107052380Y-96319047D01*
X107052380Y-96414285D01*
X106052380Y-95080952D02*
X106052380Y-95557142D01*
X106528571Y-95604761D01*
X106480952Y-95557142D01*
X106433333Y-95461904D01*
X106433333Y-95223809D01*
X106480952Y-95128571D01*
X106528571Y-95080952D01*
X106623809Y-95033333D01*
X106861904Y-95033333D01*
X106957142Y-95080952D01*
X107004761Y-95128571D01*
X107052380Y-95223809D01*
X107052380Y-95461904D01*
X107004761Y-95557142D01*
X106957142Y-95604761D01*
X64452380Y-124333333D02*
X65166666Y-124333333D01*
X65309523Y-124380952D01*
X65404761Y-124476190D01*
X65452380Y-124619047D01*
X65452380Y-124714285D01*
X64452380Y-123428571D02*
X64452380Y-123619047D01*
X64500000Y-123714285D01*
X64547619Y-123761904D01*
X64690476Y-123857142D01*
X64880952Y-123904761D01*
X65261904Y-123904761D01*
X65357142Y-123857142D01*
X65404761Y-123809523D01*
X65452380Y-123714285D01*
X65452380Y-123523809D01*
X65404761Y-123428571D01*
X65357142Y-123380952D01*
X65261904Y-123333333D01*
X65023809Y-123333333D01*
X64928571Y-123380952D01*
X64880952Y-123428571D01*
X64833333Y-123523809D01*
X64833333Y-123714285D01*
X64880952Y-123809523D01*
X64928571Y-123857142D01*
X65023809Y-123904761D01*
X74183333Y-113102380D02*
X73850000Y-112626190D01*
X73611904Y-113102380D02*
X73611904Y-112102380D01*
X73992857Y-112102380D01*
X74088095Y-112150000D01*
X74135714Y-112197619D01*
X74183333Y-112292857D01*
X74183333Y-112435714D01*
X74135714Y-112530952D01*
X74088095Y-112578571D01*
X73992857Y-112626190D01*
X73611904Y-112626190D01*
X75135714Y-113102380D02*
X74564285Y-113102380D01*
X74850000Y-113102380D02*
X74850000Y-112102380D01*
X74754761Y-112245238D01*
X74659523Y-112340476D01*
X74564285Y-112388095D01*
X97252380Y-118866666D02*
X96776190Y-119200000D01*
X97252380Y-119438095D02*
X96252380Y-119438095D01*
X96252380Y-119057142D01*
X96300000Y-118961904D01*
X96347619Y-118914285D01*
X96442857Y-118866666D01*
X96585714Y-118866666D01*
X96680952Y-118914285D01*
X96728571Y-118961904D01*
X96776190Y-119057142D01*
X96776190Y-119438095D01*
X96252380Y-118533333D02*
X96252380Y-117914285D01*
X96633333Y-118247619D01*
X96633333Y-118104761D01*
X96680952Y-118009523D01*
X96728571Y-117961904D01*
X96823809Y-117914285D01*
X97061904Y-117914285D01*
X97157142Y-117961904D01*
X97204761Y-118009523D01*
X97252380Y-118104761D01*
X97252380Y-118390476D01*
X97204761Y-118485714D01*
X97157142Y-118533333D01*
X74533333Y-116302380D02*
X74200000Y-115826190D01*
X73961904Y-116302380D02*
X73961904Y-115302380D01*
X74342857Y-115302380D01*
X74438095Y-115350000D01*
X74485714Y-115397619D01*
X74533333Y-115492857D01*
X74533333Y-115635714D01*
X74485714Y-115730952D01*
X74438095Y-115778571D01*
X74342857Y-115826190D01*
X73961904Y-115826190D01*
X75390476Y-115635714D02*
X75390476Y-116302380D01*
X75152380Y-115254761D02*
X74914285Y-115969047D01*
X75533333Y-115969047D01*
X69704380Y-62766857D02*
X69228190Y-63100190D01*
X69704380Y-63338285D02*
X68704380Y-63338285D01*
X68704380Y-62957333D01*
X68752000Y-62862095D01*
X68799619Y-62814476D01*
X68894857Y-62766857D01*
X69037714Y-62766857D01*
X69132952Y-62814476D01*
X69180571Y-62862095D01*
X69228190Y-62957333D01*
X69228190Y-63338285D01*
X69704380Y-61814476D02*
X69704380Y-62385904D01*
X69704380Y-62100190D02*
X68704380Y-62100190D01*
X68847238Y-62195428D01*
X68942476Y-62290666D01*
X68990095Y-62385904D01*
X68704380Y-61481142D02*
X68704380Y-60814476D01*
X69704380Y-61243047D01*
X100952380Y-71392857D02*
X100476190Y-71726190D01*
X100952380Y-71964285D02*
X99952380Y-71964285D01*
X99952380Y-71583333D01*
X100000000Y-71488095D01*
X100047619Y-71440476D01*
X100142857Y-71392857D01*
X100285714Y-71392857D01*
X100380952Y-71440476D01*
X100428571Y-71488095D01*
X100476190Y-71583333D01*
X100476190Y-71964285D01*
X100047619Y-71011904D02*
X100000000Y-70964285D01*
X99952380Y-70869047D01*
X99952380Y-70630952D01*
X100000000Y-70535714D01*
X100047619Y-70488095D01*
X100142857Y-70440476D01*
X100238095Y-70440476D01*
X100380952Y-70488095D01*
X100952380Y-71059523D01*
X100952380Y-70440476D01*
X99952380Y-69821428D02*
X99952380Y-69726190D01*
X100000000Y-69630952D01*
X100047619Y-69583333D01*
X100142857Y-69535714D01*
X100333333Y-69488095D01*
X100571428Y-69488095D01*
X100761904Y-69535714D01*
X100857142Y-69583333D01*
X100904761Y-69630952D01*
X100952380Y-69726190D01*
X100952380Y-69821428D01*
X100904761Y-69916666D01*
X100857142Y-69964285D01*
X100761904Y-70011904D01*
X100571428Y-70059523D01*
X100333333Y-70059523D01*
X100142857Y-70011904D01*
X100047619Y-69964285D01*
X100000000Y-69916666D01*
X99952380Y-69821428D01*
X84866666Y-98904761D02*
X85009523Y-98952380D01*
X85247619Y-98952380D01*
X85342857Y-98904761D01*
X85390476Y-98857142D01*
X85438095Y-98761904D01*
X85438095Y-98666666D01*
X85390476Y-98571428D01*
X85342857Y-98523809D01*
X85247619Y-98476190D01*
X85057142Y-98428571D01*
X84961904Y-98380952D01*
X84914285Y-98333333D01*
X84866666Y-98238095D01*
X84866666Y-98142857D01*
X84914285Y-98047619D01*
X84961904Y-98000000D01*
X85057142Y-97952380D01*
X85295238Y-97952380D01*
X85438095Y-98000000D01*
X85771428Y-97952380D02*
X86009523Y-98952380D01*
X86200000Y-98238095D01*
X86390476Y-98952380D01*
X86628571Y-97952380D01*
X87533333Y-98952380D02*
X86961904Y-98952380D01*
X87247619Y-98952380D02*
X87247619Y-97952380D01*
X87152380Y-98095238D01*
X87057142Y-98190476D01*
X86961904Y-98238095D01*
X64604761Y-113833333D02*
X64652380Y-113690476D01*
X64652380Y-113452380D01*
X64604761Y-113357142D01*
X64557142Y-113309523D01*
X64461904Y-113261904D01*
X64366666Y-113261904D01*
X64271428Y-113309523D01*
X64223809Y-113357142D01*
X64176190Y-113452380D01*
X64128571Y-113642857D01*
X64080952Y-113738095D01*
X64033333Y-113785714D01*
X63938095Y-113833333D01*
X63842857Y-113833333D01*
X63747619Y-113785714D01*
X63700000Y-113738095D01*
X63652380Y-113642857D01*
X63652380Y-113404761D01*
X63700000Y-113261904D01*
X63652380Y-112928571D02*
X64652380Y-112690476D01*
X63938095Y-112500000D01*
X64652380Y-112309523D01*
X63652380Y-112071428D01*
X63985714Y-111261904D02*
X64652380Y-111261904D01*
X63604761Y-111500000D02*
X64319047Y-111738095D01*
X64319047Y-111119047D01*
X87866666Y-82454761D02*
X88009523Y-82502380D01*
X88247619Y-82502380D01*
X88342857Y-82454761D01*
X88390476Y-82407142D01*
X88438095Y-82311904D01*
X88438095Y-82216666D01*
X88390476Y-82121428D01*
X88342857Y-82073809D01*
X88247619Y-82026190D01*
X88057142Y-81978571D01*
X87961904Y-81930952D01*
X87914285Y-81883333D01*
X87866666Y-81788095D01*
X87866666Y-81692857D01*
X87914285Y-81597619D01*
X87961904Y-81550000D01*
X88057142Y-81502380D01*
X88295238Y-81502380D01*
X88438095Y-81550000D01*
X88771428Y-81502380D02*
X89009523Y-82502380D01*
X89200000Y-81788095D01*
X89390476Y-82502380D01*
X89628571Y-81502380D01*
X90485714Y-81502380D02*
X90009523Y-81502380D01*
X89961904Y-81978571D01*
X90009523Y-81930952D01*
X90104761Y-81883333D01*
X90342857Y-81883333D01*
X90438095Y-81930952D01*
X90485714Y-81978571D01*
X90533333Y-82073809D01*
X90533333Y-82311904D01*
X90485714Y-82407142D01*
X90438095Y-82454761D01*
X90342857Y-82502380D01*
X90104761Y-82502380D01*
X90009523Y-82454761D01*
X89961904Y-82407142D01*
X71466666Y-82454761D02*
X71609523Y-82502380D01*
X71847619Y-82502380D01*
X71942857Y-82454761D01*
X71990476Y-82407142D01*
X72038095Y-82311904D01*
X72038095Y-82216666D01*
X71990476Y-82121428D01*
X71942857Y-82073809D01*
X71847619Y-82026190D01*
X71657142Y-81978571D01*
X71561904Y-81930952D01*
X71514285Y-81883333D01*
X71466666Y-81788095D01*
X71466666Y-81692857D01*
X71514285Y-81597619D01*
X71561904Y-81550000D01*
X71657142Y-81502380D01*
X71895238Y-81502380D01*
X72038095Y-81550000D01*
X72371428Y-81502380D02*
X72609523Y-82502380D01*
X72800000Y-81788095D01*
X72990476Y-82502380D01*
X73228571Y-81502380D01*
X74038095Y-81502380D02*
X73847619Y-81502380D01*
X73752380Y-81550000D01*
X73704761Y-81597619D01*
X73609523Y-81740476D01*
X73561904Y-81930952D01*
X73561904Y-82311904D01*
X73609523Y-82407142D01*
X73657142Y-82454761D01*
X73752380Y-82502380D01*
X73942857Y-82502380D01*
X74038095Y-82454761D01*
X74085714Y-82407142D01*
X74133333Y-82311904D01*
X74133333Y-82073809D01*
X74085714Y-81978571D01*
X74038095Y-81930952D01*
X73942857Y-81883333D01*
X73752380Y-81883333D01*
X73657142Y-81930952D01*
X73609523Y-81978571D01*
X73561904Y-82073809D01*
X79666666Y-82454761D02*
X79809523Y-82502380D01*
X80047619Y-82502380D01*
X80142857Y-82454761D01*
X80190476Y-82407142D01*
X80238095Y-82311904D01*
X80238095Y-82216666D01*
X80190476Y-82121428D01*
X80142857Y-82073809D01*
X80047619Y-82026190D01*
X79857142Y-81978571D01*
X79761904Y-81930952D01*
X79714285Y-81883333D01*
X79666666Y-81788095D01*
X79666666Y-81692857D01*
X79714285Y-81597619D01*
X79761904Y-81550000D01*
X79857142Y-81502380D01*
X80095238Y-81502380D01*
X80238095Y-81550000D01*
X80571428Y-81502380D02*
X80809523Y-82502380D01*
X81000000Y-81788095D01*
X81190476Y-82502380D01*
X81428571Y-81502380D01*
X81714285Y-81502380D02*
X82380952Y-81502380D01*
X81952380Y-82502380D01*
X95466666Y-82454761D02*
X95609523Y-82502380D01*
X95847619Y-82502380D01*
X95942857Y-82454761D01*
X95990476Y-82407142D01*
X96038095Y-82311904D01*
X96038095Y-82216666D01*
X95990476Y-82121428D01*
X95942857Y-82073809D01*
X95847619Y-82026190D01*
X95657142Y-81978571D01*
X95561904Y-81930952D01*
X95514285Y-81883333D01*
X95466666Y-81788095D01*
X95466666Y-81692857D01*
X95514285Y-81597619D01*
X95561904Y-81550000D01*
X95657142Y-81502380D01*
X95895238Y-81502380D01*
X96038095Y-81550000D01*
X96371428Y-81502380D02*
X96609523Y-82502380D01*
X96800000Y-81788095D01*
X96990476Y-82502380D01*
X97228571Y-81502380D01*
X97752380Y-81930952D02*
X97657142Y-81883333D01*
X97609523Y-81835714D01*
X97561904Y-81740476D01*
X97561904Y-81692857D01*
X97609523Y-81597619D01*
X97657142Y-81550000D01*
X97752380Y-81502380D01*
X97942857Y-81502380D01*
X98038095Y-81550000D01*
X98085714Y-81597619D01*
X98133333Y-81692857D01*
X98133333Y-81740476D01*
X98085714Y-81835714D01*
X98038095Y-81883333D01*
X97942857Y-81930952D01*
X97752380Y-81930952D01*
X97657142Y-81978571D01*
X97609523Y-82026190D01*
X97561904Y-82121428D01*
X97561904Y-82311904D01*
X97609523Y-82407142D01*
X97657142Y-82454761D01*
X97752380Y-82502380D01*
X97942857Y-82502380D01*
X98038095Y-82454761D01*
X98085714Y-82407142D01*
X98133333Y-82311904D01*
X98133333Y-82121428D01*
X98085714Y-82026190D01*
X98038095Y-81978571D01*
X97942857Y-81930952D01*
X73047619Y-145238095D02*
X73047619Y-145809523D01*
X72047619Y-145523809D02*
X73047619Y-145523809D01*
X72047619Y-146142857D02*
X73047619Y-146142857D01*
X73047619Y-146523809D01*
X73000000Y-146619047D01*
X72952380Y-146666666D01*
X72857142Y-146714285D01*
X72714285Y-146714285D01*
X72619047Y-146666666D01*
X72571428Y-146619047D01*
X72523809Y-146523809D01*
X72523809Y-146142857D01*
X72047619Y-147666666D02*
X72047619Y-147095238D01*
X72047619Y-147380952D02*
X73047619Y-147380952D01*
X72904761Y-147285714D01*
X72809523Y-147190476D01*
X72761904Y-147095238D01*
X100138095Y-129552380D02*
X100138095Y-130361904D01*
X100185714Y-130457142D01*
X100233333Y-130504761D01*
X100328571Y-130552380D01*
X100519047Y-130552380D01*
X100614285Y-130504761D01*
X100661904Y-130457142D01*
X100709523Y-130361904D01*
X100709523Y-129552380D01*
X101138095Y-129647619D02*
X101185714Y-129600000D01*
X101280952Y-129552380D01*
X101519047Y-129552380D01*
X101614285Y-129600000D01*
X101661904Y-129647619D01*
X101709523Y-129742857D01*
X101709523Y-129838095D01*
X101661904Y-129980952D01*
X101090476Y-130552380D01*
X101709523Y-130552380D01*
X93266666Y-43054761D02*
X93409523Y-43102380D01*
X93647619Y-43102380D01*
X93742857Y-43054761D01*
X93790476Y-43007142D01*
X93838095Y-42911904D01*
X93838095Y-42816666D01*
X93790476Y-42721428D01*
X93742857Y-42673809D01*
X93647619Y-42626190D01*
X93457142Y-42578571D01*
X93361904Y-42530952D01*
X93314285Y-42483333D01*
X93266666Y-42388095D01*
X93266666Y-42292857D01*
X93314285Y-42197619D01*
X93361904Y-42150000D01*
X93457142Y-42102380D01*
X93695238Y-42102380D01*
X93838095Y-42150000D01*
X94171428Y-42102380D02*
X94409523Y-43102380D01*
X94600000Y-42388095D01*
X94790476Y-43102380D01*
X95028571Y-42102380D01*
X95314285Y-42102380D02*
X95933333Y-42102380D01*
X95600000Y-42483333D01*
X95742857Y-42483333D01*
X95838095Y-42530952D01*
X95885714Y-42578571D01*
X95933333Y-42673809D01*
X95933333Y-42911904D01*
X95885714Y-43007142D01*
X95838095Y-43054761D01*
X95742857Y-43102380D01*
X95457142Y-43102380D01*
X95361904Y-43054761D01*
X95314285Y-43007142D01*
X103261904Y-77952380D02*
X103261904Y-76952380D01*
X103500000Y-76952380D01*
X103642857Y-77000000D01*
X103738095Y-77095238D01*
X103785714Y-77190476D01*
X103833333Y-77380952D01*
X103833333Y-77523809D01*
X103785714Y-77714285D01*
X103738095Y-77809523D01*
X103642857Y-77904761D01*
X103500000Y-77952380D01*
X103261904Y-77952380D01*
X104690476Y-77285714D02*
X104690476Y-77952380D01*
X104452380Y-76904761D02*
X104214285Y-77619047D01*
X104833333Y-77619047D01*
X81216666Y-48852380D02*
X81216666Y-49566666D01*
X81169047Y-49709523D01*
X81073809Y-49804761D01*
X80930952Y-49852380D01*
X80835714Y-49852380D01*
X81740476Y-49852380D02*
X81930952Y-49852380D01*
X82026190Y-49804761D01*
X82073809Y-49757142D01*
X82169047Y-49614285D01*
X82216666Y-49423809D01*
X82216666Y-49042857D01*
X82169047Y-48947619D01*
X82121428Y-48900000D01*
X82026190Y-48852380D01*
X81835714Y-48852380D01*
X81740476Y-48900000D01*
X81692857Y-48947619D01*
X81645238Y-49042857D01*
X81645238Y-49280952D01*
X81692857Y-49376190D01*
X81740476Y-49423809D01*
X81835714Y-49471428D01*
X82026190Y-49471428D01*
X82121428Y-49423809D01*
X82169047Y-49376190D01*
X82216666Y-49280952D01*
X74416666Y-44854761D02*
X74559523Y-44902380D01*
X74797619Y-44902380D01*
X74892857Y-44854761D01*
X74940476Y-44807142D01*
X74988095Y-44711904D01*
X74988095Y-44616666D01*
X74940476Y-44521428D01*
X74892857Y-44473809D01*
X74797619Y-44426190D01*
X74607142Y-44378571D01*
X74511904Y-44330952D01*
X74464285Y-44283333D01*
X74416666Y-44188095D01*
X74416666Y-44092857D01*
X74464285Y-43997619D01*
X74511904Y-43950000D01*
X74607142Y-43902380D01*
X74845238Y-43902380D01*
X74988095Y-43950000D01*
X75321428Y-43902380D02*
X75559523Y-44902380D01*
X75750000Y-44188095D01*
X75940476Y-44902380D01*
X76178571Y-43902380D01*
X76511904Y-43997619D02*
X76559523Y-43950000D01*
X76654761Y-43902380D01*
X76892857Y-43902380D01*
X76988095Y-43950000D01*
X77035714Y-43997619D01*
X77083333Y-44092857D01*
X77083333Y-44188095D01*
X77035714Y-44330952D01*
X76464285Y-44902380D01*
X77083333Y-44902380D01*
X83985714Y-118212380D02*
X83985714Y-117212380D01*
X84223809Y-117212380D01*
X84366666Y-117260000D01*
X84461904Y-117355238D01*
X84509523Y-117450476D01*
X84557142Y-117640952D01*
X84557142Y-117783809D01*
X84509523Y-117974285D01*
X84461904Y-118069523D01*
X84366666Y-118164761D01*
X84223809Y-118212380D01*
X83985714Y-118212380D01*
X85509523Y-118212380D02*
X84938095Y-118212380D01*
X85223809Y-118212380D02*
X85223809Y-117212380D01*
X85128571Y-117355238D01*
X85033333Y-117450476D01*
X84938095Y-117498095D01*
X86366666Y-117545714D02*
X86366666Y-118212380D01*
X86128571Y-117164761D02*
X85890476Y-117879047D01*
X86509523Y-117879047D01*
X84952380Y-143742857D02*
X84476190Y-144076190D01*
X84952380Y-144314285D02*
X83952380Y-144314285D01*
X83952380Y-143933333D01*
X84000000Y-143838095D01*
X84047619Y-143790476D01*
X84142857Y-143742857D01*
X84285714Y-143742857D01*
X84380952Y-143790476D01*
X84428571Y-143838095D01*
X84476190Y-143933333D01*
X84476190Y-144314285D01*
X84952380Y-142790476D02*
X84952380Y-143361904D01*
X84952380Y-143076190D02*
X83952380Y-143076190D01*
X84095238Y-143171428D01*
X84190476Y-143266666D01*
X84238095Y-143361904D01*
X84285714Y-141933333D02*
X84952380Y-141933333D01*
X83904761Y-142171428D02*
X84619047Y-142409523D01*
X84619047Y-141790476D01*
X90952380Y-118842857D02*
X90476190Y-119176190D01*
X90952380Y-119414285D02*
X89952380Y-119414285D01*
X89952380Y-119033333D01*
X90000000Y-118938095D01*
X90047619Y-118890476D01*
X90142857Y-118842857D01*
X90285714Y-118842857D01*
X90380952Y-118890476D01*
X90428571Y-118938095D01*
X90476190Y-119033333D01*
X90476190Y-119414285D01*
X90952380Y-117890476D02*
X90952380Y-118461904D01*
X90952380Y-118176190D02*
X89952380Y-118176190D01*
X90095238Y-118271428D01*
X90190476Y-118366666D01*
X90238095Y-118461904D01*
X89952380Y-116985714D02*
X89952380Y-117461904D01*
X90428571Y-117509523D01*
X90380952Y-117461904D01*
X90333333Y-117366666D01*
X90333333Y-117128571D01*
X90380952Y-117033333D01*
X90428571Y-116985714D01*
X90523809Y-116938095D01*
X90761904Y-116938095D01*
X90857142Y-116985714D01*
X90904761Y-117033333D01*
X90952380Y-117128571D01*
X90952380Y-117366666D01*
X90904761Y-117461904D01*
X90857142Y-117509523D01*
X78957142Y-121552380D02*
X78623809Y-121076190D01*
X78385714Y-121552380D02*
X78385714Y-120552380D01*
X78766666Y-120552380D01*
X78861904Y-120600000D01*
X78909523Y-120647619D01*
X78957142Y-120742857D01*
X78957142Y-120885714D01*
X78909523Y-120980952D01*
X78861904Y-121028571D01*
X78766666Y-121076190D01*
X78385714Y-121076190D01*
X79338095Y-120647619D02*
X79385714Y-120600000D01*
X79480952Y-120552380D01*
X79719047Y-120552380D01*
X79814285Y-120600000D01*
X79861904Y-120647619D01*
X79909523Y-120742857D01*
X79909523Y-120838095D01*
X79861904Y-120980952D01*
X79290476Y-121552380D01*
X79909523Y-121552380D01*
X80242857Y-120552380D02*
X80861904Y-120552380D01*
X80528571Y-120933333D01*
X80671428Y-120933333D01*
X80766666Y-120980952D01*
X80814285Y-121028571D01*
X80861904Y-121123809D01*
X80861904Y-121361904D01*
X80814285Y-121457142D01*
X80766666Y-121504761D01*
X80671428Y-121552380D01*
X80385714Y-121552380D01*
X80290476Y-121504761D01*
X80242857Y-121457142D01*
X79482143Y-125127381D02*
X79148810Y-124651191D01*
X78910715Y-125127381D02*
X78910715Y-124127381D01*
X79291667Y-124127381D01*
X79386905Y-124175001D01*
X79434524Y-124222620D01*
X79482143Y-124317858D01*
X79482143Y-124460715D01*
X79434524Y-124555953D01*
X79386905Y-124603572D01*
X79291667Y-124651191D01*
X78910715Y-124651191D01*
X79863096Y-124222620D02*
X79910715Y-124175001D01*
X80005953Y-124127381D01*
X80244048Y-124127381D01*
X80339286Y-124175001D01*
X80386905Y-124222620D01*
X80434524Y-124317858D01*
X80434524Y-124413096D01*
X80386905Y-124555953D01*
X79815477Y-125127381D01*
X80434524Y-125127381D01*
X81291667Y-124460715D02*
X81291667Y-125127381D01*
X81053572Y-124079762D02*
X80815477Y-124794048D01*
X81434524Y-124794048D01*
X90777379Y-131027858D02*
X90301189Y-131361191D01*
X90777379Y-131599286D02*
X89777379Y-131599286D01*
X89777379Y-131218334D01*
X89824999Y-131123096D01*
X89872618Y-131075477D01*
X89967856Y-131027858D01*
X90110713Y-131027858D01*
X90205951Y-131075477D01*
X90253570Y-131123096D01*
X90301189Y-131218334D01*
X90301189Y-131599286D01*
X89872618Y-130646905D02*
X89824999Y-130599286D01*
X89777379Y-130504048D01*
X89777379Y-130265953D01*
X89824999Y-130170715D01*
X89872618Y-130123096D01*
X89967856Y-130075477D01*
X90063094Y-130075477D01*
X90205951Y-130123096D01*
X90777379Y-130694524D01*
X90777379Y-130075477D01*
X89777379Y-129218334D02*
X89777379Y-129408810D01*
X89824999Y-129504048D01*
X89872618Y-129551667D01*
X90015475Y-129646905D01*
X90205951Y-129694524D01*
X90586903Y-129694524D01*
X90682141Y-129646905D01*
X90729760Y-129599286D01*
X90777379Y-129504048D01*
X90777379Y-129313572D01*
X90729760Y-129218334D01*
X90682141Y-129170715D01*
X90586903Y-129123096D01*
X90348808Y-129123096D01*
X90253570Y-129170715D01*
X90205951Y-129218334D01*
X90158332Y-129313572D01*
X90158332Y-129504048D01*
X90205951Y-129599286D01*
X90253570Y-129646905D01*
X90348808Y-129694524D01*
X82152380Y-143592857D02*
X81676190Y-143926190D01*
X82152380Y-144164285D02*
X81152380Y-144164285D01*
X81152380Y-143783333D01*
X81200000Y-143688095D01*
X81247619Y-143640476D01*
X81342857Y-143592857D01*
X81485714Y-143592857D01*
X81580952Y-143640476D01*
X81628571Y-143688095D01*
X81676190Y-143783333D01*
X81676190Y-144164285D01*
X81247619Y-143211904D02*
X81200000Y-143164285D01*
X81152380Y-143069047D01*
X81152380Y-142830952D01*
X81200000Y-142735714D01*
X81247619Y-142688095D01*
X81342857Y-142640476D01*
X81438095Y-142640476D01*
X81580952Y-142688095D01*
X82152380Y-143259523D01*
X82152380Y-142640476D01*
X81152380Y-142307142D02*
X81152380Y-141640476D01*
X82152380Y-142069047D01*
X78952380Y-143542857D02*
X78476190Y-143876190D01*
X78952380Y-144114285D02*
X77952380Y-144114285D01*
X77952380Y-143733333D01*
X78000000Y-143638095D01*
X78047619Y-143590476D01*
X78142857Y-143542857D01*
X78285714Y-143542857D01*
X78380952Y-143590476D01*
X78428571Y-143638095D01*
X78476190Y-143733333D01*
X78476190Y-144114285D01*
X78047619Y-143161904D02*
X78000000Y-143114285D01*
X77952380Y-143019047D01*
X77952380Y-142780952D01*
X78000000Y-142685714D01*
X78047619Y-142638095D01*
X78142857Y-142590476D01*
X78238095Y-142590476D01*
X78380952Y-142638095D01*
X78952380Y-143209523D01*
X78952380Y-142590476D01*
X78380952Y-142019047D02*
X78333333Y-142114285D01*
X78285714Y-142161904D01*
X78190476Y-142209523D01*
X78142857Y-142209523D01*
X78047619Y-142161904D01*
X78000000Y-142114285D01*
X77952380Y-142019047D01*
X77952380Y-141828571D01*
X78000000Y-141733333D01*
X78047619Y-141685714D01*
X78142857Y-141638095D01*
X78190476Y-141638095D01*
X78285714Y-141685714D01*
X78333333Y-141733333D01*
X78380952Y-141828571D01*
X78380952Y-142019047D01*
X78428571Y-142114285D01*
X78476190Y-142161904D01*
X78571428Y-142209523D01*
X78761904Y-142209523D01*
X78857142Y-142161904D01*
X78904761Y-142114285D01*
X78952380Y-142019047D01*
X78952380Y-141828571D01*
X78904761Y-141733333D01*
X78857142Y-141685714D01*
X78761904Y-141638095D01*
X78571428Y-141638095D01*
X78476190Y-141685714D01*
X78428571Y-141733333D01*
X78380952Y-141828571D01*
X63604761Y-137752380D02*
X63271428Y-137276190D01*
X63033333Y-137752380D02*
X63033333Y-136752380D01*
X63414285Y-136752380D01*
X63509523Y-136800000D01*
X63557142Y-136847619D01*
X63604761Y-136942857D01*
X63604761Y-137085714D01*
X63557142Y-137180952D01*
X63509523Y-137228571D01*
X63414285Y-137276190D01*
X63033333Y-137276190D01*
X63890476Y-136752380D02*
X64223809Y-137752380D01*
X64557142Y-136752380D01*
X65414285Y-137752380D02*
X64842857Y-137752380D01*
X65128571Y-137752380D02*
X65128571Y-136752380D01*
X65033333Y-136895238D01*
X64938095Y-136990476D01*
X64842857Y-137038095D01*
X88002380Y-143642857D02*
X87526190Y-143976190D01*
X88002380Y-144214285D02*
X87002380Y-144214285D01*
X87002380Y-143833333D01*
X87050000Y-143738095D01*
X87097619Y-143690476D01*
X87192857Y-143642857D01*
X87335714Y-143642857D01*
X87430952Y-143690476D01*
X87478571Y-143738095D01*
X87526190Y-143833333D01*
X87526190Y-144214285D01*
X88002380Y-142690476D02*
X88002380Y-143261904D01*
X88002380Y-142976190D02*
X87002380Y-142976190D01*
X87145238Y-143071428D01*
X87240476Y-143166666D01*
X87288095Y-143261904D01*
X88002380Y-141738095D02*
X88002380Y-142309523D01*
X88002380Y-142023809D02*
X87002380Y-142023809D01*
X87145238Y-142119047D01*
X87240476Y-142214285D01*
X87288095Y-142309523D01*
X72583333Y-89202380D02*
X72250000Y-88726190D01*
X72011904Y-89202380D02*
X72011904Y-88202380D01*
X72392857Y-88202380D01*
X72488095Y-88250000D01*
X72535714Y-88297619D01*
X72583333Y-88392857D01*
X72583333Y-88535714D01*
X72535714Y-88630952D01*
X72488095Y-88678571D01*
X72392857Y-88726190D01*
X72011904Y-88726190D01*
X73154761Y-88630952D02*
X73059523Y-88583333D01*
X73011904Y-88535714D01*
X72964285Y-88440476D01*
X72964285Y-88392857D01*
X73011904Y-88297619D01*
X73059523Y-88250000D01*
X73154761Y-88202380D01*
X73345238Y-88202380D01*
X73440476Y-88250000D01*
X73488095Y-88297619D01*
X73535714Y-88392857D01*
X73535714Y-88440476D01*
X73488095Y-88535714D01*
X73440476Y-88583333D01*
X73345238Y-88630952D01*
X73154761Y-88630952D01*
X73059523Y-88678571D01*
X73011904Y-88726190D01*
X72964285Y-88821428D01*
X72964285Y-89011904D01*
X73011904Y-89107142D01*
X73059523Y-89154761D01*
X73154761Y-89202380D01*
X73345238Y-89202380D01*
X73440476Y-89154761D01*
X73488095Y-89107142D01*
X73535714Y-89011904D01*
X73535714Y-88821428D01*
X73488095Y-88726190D01*
X73440476Y-88678571D01*
X73345238Y-88630952D01*
X113252380Y-59542857D02*
X112776190Y-59876190D01*
X113252380Y-60114285D02*
X112252380Y-60114285D01*
X112252380Y-59733333D01*
X112300000Y-59638095D01*
X112347619Y-59590476D01*
X112442857Y-59542857D01*
X112585714Y-59542857D01*
X112680952Y-59590476D01*
X112728571Y-59638095D01*
X112776190Y-59733333D01*
X112776190Y-60114285D01*
X113252380Y-58590476D02*
X113252380Y-59161904D01*
X113252380Y-58876190D02*
X112252380Y-58876190D01*
X112395238Y-58971428D01*
X112490476Y-59066666D01*
X112538095Y-59161904D01*
X113252380Y-58114285D02*
X113252380Y-57923809D01*
X113204761Y-57828571D01*
X113157142Y-57780952D01*
X113014285Y-57685714D01*
X112823809Y-57638095D01*
X112442857Y-57638095D01*
X112347619Y-57685714D01*
X112300000Y-57733333D01*
X112252380Y-57828571D01*
X112252380Y-58019047D01*
X112300000Y-58114285D01*
X112347619Y-58161904D01*
X112442857Y-58209523D01*
X112680952Y-58209523D01*
X112776190Y-58161904D01*
X112823809Y-58114285D01*
X112871428Y-58019047D01*
X112871428Y-57828571D01*
X112823809Y-57733333D01*
X112776190Y-57685714D01*
X112680952Y-57638095D01*
X113732380Y-117726095D02*
X112732380Y-117726095D01*
X112732380Y-117488000D01*
X112780000Y-117345142D01*
X112875238Y-117249904D01*
X112970476Y-117202285D01*
X113160952Y-117154666D01*
X113303809Y-117154666D01*
X113494285Y-117202285D01*
X113589523Y-117249904D01*
X113684761Y-117345142D01*
X113732380Y-117488000D01*
X113732380Y-117726095D01*
X112732380Y-116297523D02*
X112732380Y-116488000D01*
X112780000Y-116583238D01*
X112827619Y-116630857D01*
X112970476Y-116726095D01*
X113160952Y-116773714D01*
X113541904Y-116773714D01*
X113637142Y-116726095D01*
X113684761Y-116678476D01*
X113732380Y-116583238D01*
X113732380Y-116392761D01*
X113684761Y-116297523D01*
X113637142Y-116249904D01*
X113541904Y-116202285D01*
X113303809Y-116202285D01*
X113208571Y-116249904D01*
X113160952Y-116297523D01*
X113113333Y-116392761D01*
X113113333Y-116583238D01*
X113160952Y-116678476D01*
X113208571Y-116726095D01*
X113303809Y-116773714D01*
X111882380Y-121761904D02*
X110882380Y-121761904D01*
X111882380Y-121190476D02*
X111310952Y-121619047D01*
X110882380Y-121190476D02*
X111453809Y-121761904D01*
X96085714Y-147977380D02*
X96085714Y-146977380D01*
X96323809Y-146977380D01*
X96466666Y-147025000D01*
X96561904Y-147120238D01*
X96609523Y-147215476D01*
X96657142Y-147405952D01*
X96657142Y-147548809D01*
X96609523Y-147739285D01*
X96561904Y-147834523D01*
X96466666Y-147929761D01*
X96323809Y-147977380D01*
X96085714Y-147977380D01*
X97609523Y-147977380D02*
X97038095Y-147977380D01*
X97323809Y-147977380D02*
X97323809Y-146977380D01*
X97228571Y-147120238D01*
X97133333Y-147215476D01*
X97038095Y-147263095D01*
X97942857Y-146977380D02*
X98561904Y-146977380D01*
X98228571Y-147358333D01*
X98371428Y-147358333D01*
X98466666Y-147405952D01*
X98514285Y-147453571D01*
X98561904Y-147548809D01*
X98561904Y-147786904D01*
X98514285Y-147882142D01*
X98466666Y-147929761D01*
X98371428Y-147977380D01*
X98085714Y-147977380D01*
X97990476Y-147929761D01*
X97942857Y-147882142D01*
X102788095Y-148002380D02*
X102788095Y-147002380D01*
X103359523Y-148002380D02*
X102930952Y-147430952D01*
X103359523Y-147002380D02*
X102788095Y-147573809D01*
X85654761Y-62797619D02*
X85559523Y-62750000D01*
X85464285Y-62654761D01*
X85321428Y-62511904D01*
X85226190Y-62464285D01*
X85130952Y-62464285D01*
X85178571Y-62702380D02*
X85083333Y-62654761D01*
X84988095Y-62559523D01*
X84940476Y-62369047D01*
X84940476Y-62035714D01*
X84988095Y-61845238D01*
X85083333Y-61750000D01*
X85178571Y-61702380D01*
X85369047Y-61702380D01*
X85464285Y-61750000D01*
X85559523Y-61845238D01*
X85607142Y-62035714D01*
X85607142Y-62369047D01*
X85559523Y-62559523D01*
X85464285Y-62654761D01*
X85369047Y-62702380D01*
X85178571Y-62702380D01*
X85940476Y-61702380D02*
X86559523Y-61702380D01*
X86226190Y-62083333D01*
X86369047Y-62083333D01*
X86464285Y-62130952D01*
X86511904Y-62178571D01*
X86559523Y-62273809D01*
X86559523Y-62511904D01*
X86511904Y-62607142D01*
X86464285Y-62654761D01*
X86369047Y-62702380D01*
X86083333Y-62702380D01*
X85988095Y-62654761D01*
X85940476Y-62607142D01*
X87154761Y-57797619D02*
X87059523Y-57750000D01*
X86964285Y-57654761D01*
X86821428Y-57511904D01*
X86726190Y-57464285D01*
X86630952Y-57464285D01*
X86678571Y-57702380D02*
X86583333Y-57654761D01*
X86488095Y-57559523D01*
X86440476Y-57369047D01*
X86440476Y-57035714D01*
X86488095Y-56845238D01*
X86583333Y-56750000D01*
X86678571Y-56702380D01*
X86869047Y-56702380D01*
X86964285Y-56750000D01*
X87059523Y-56845238D01*
X87107142Y-57035714D01*
X87107142Y-57369047D01*
X87059523Y-57559523D01*
X86964285Y-57654761D01*
X86869047Y-57702380D01*
X86678571Y-57702380D01*
X88011904Y-56702380D02*
X87535714Y-56702380D01*
X87488095Y-57178571D01*
X87535714Y-57130952D01*
X87630952Y-57083333D01*
X87869047Y-57083333D01*
X87964285Y-57130952D01*
X88011904Y-57178571D01*
X88059523Y-57273809D01*
X88059523Y-57511904D01*
X88011904Y-57607142D01*
X87964285Y-57654761D01*
X87869047Y-57702380D01*
X87630952Y-57702380D01*
X87535714Y-57654761D01*
X87488095Y-57607142D01*
X73797142Y-72008380D02*
X73463809Y-71532190D01*
X73225714Y-72008380D02*
X73225714Y-71008380D01*
X73606666Y-71008380D01*
X73701904Y-71056000D01*
X73749523Y-71103619D01*
X73797142Y-71198857D01*
X73797142Y-71341714D01*
X73749523Y-71436952D01*
X73701904Y-71484571D01*
X73606666Y-71532190D01*
X73225714Y-71532190D01*
X74178095Y-71103619D02*
X74225714Y-71056000D01*
X74320952Y-71008380D01*
X74559047Y-71008380D01*
X74654285Y-71056000D01*
X74701904Y-71103619D01*
X74749523Y-71198857D01*
X74749523Y-71294095D01*
X74701904Y-71436952D01*
X74130476Y-72008380D01*
X74749523Y-72008380D01*
X75225714Y-72008380D02*
X75416190Y-72008380D01*
X75511428Y-71960761D01*
X75559047Y-71913142D01*
X75654285Y-71770285D01*
X75701904Y-71579809D01*
X75701904Y-71198857D01*
X75654285Y-71103619D01*
X75606666Y-71056000D01*
X75511428Y-71008380D01*
X75320952Y-71008380D01*
X75225714Y-71056000D01*
X75178095Y-71103619D01*
X75130476Y-71198857D01*
X75130476Y-71436952D01*
X75178095Y-71532190D01*
X75225714Y-71579809D01*
X75320952Y-71627428D01*
X75511428Y-71627428D01*
X75606666Y-71579809D01*
X75654285Y-71532190D01*
X75701904Y-71436952D01*
D13*
X67906190Y-68961428D02*
X67668095Y-69128095D01*
X67906190Y-69247142D02*
X67406190Y-69247142D01*
X67406190Y-69056666D01*
X67430000Y-69009047D01*
X67453809Y-68985238D01*
X67501428Y-68961428D01*
X67572857Y-68961428D01*
X67620476Y-68985238D01*
X67644285Y-69009047D01*
X67668095Y-69056666D01*
X67668095Y-69247142D01*
X67406190Y-68794761D02*
X67406190Y-68485238D01*
X67596666Y-68651904D01*
X67596666Y-68580476D01*
X67620476Y-68532857D01*
X67644285Y-68509047D01*
X67691904Y-68485238D01*
X67810952Y-68485238D01*
X67858571Y-68509047D01*
X67882380Y-68532857D01*
X67906190Y-68580476D01*
X67906190Y-68723333D01*
X67882380Y-68770952D01*
X67858571Y-68794761D01*
X67406190Y-68175714D02*
X67406190Y-68128095D01*
X67430000Y-68080476D01*
X67453809Y-68056666D01*
X67501428Y-68032857D01*
X67596666Y-68009047D01*
X67715714Y-68009047D01*
X67810952Y-68032857D01*
X67858571Y-68056666D01*
X67882380Y-68080476D01*
X67906190Y-68128095D01*
X67906190Y-68175714D01*
X67882380Y-68223333D01*
X67858571Y-68247142D01*
X67810952Y-68270952D01*
X67715714Y-68294761D01*
X67596666Y-68294761D01*
X67501428Y-68270952D01*
X67453809Y-68247142D01*
X67430000Y-68223333D01*
X67406190Y-68175714D01*
X85416190Y-69431428D02*
X85178095Y-69598095D01*
X85416190Y-69717142D02*
X84916190Y-69717142D01*
X84916190Y-69526666D01*
X84940000Y-69479047D01*
X84963809Y-69455238D01*
X85011428Y-69431428D01*
X85082857Y-69431428D01*
X85130476Y-69455238D01*
X85154285Y-69479047D01*
X85178095Y-69526666D01*
X85178095Y-69717142D01*
X84916190Y-69264761D02*
X84916190Y-68955238D01*
X85106666Y-69121904D01*
X85106666Y-69050476D01*
X85130476Y-69002857D01*
X85154285Y-68979047D01*
X85201904Y-68955238D01*
X85320952Y-68955238D01*
X85368571Y-68979047D01*
X85392380Y-69002857D01*
X85416190Y-69050476D01*
X85416190Y-69193333D01*
X85392380Y-69240952D01*
X85368571Y-69264761D01*
X85416190Y-68479047D02*
X85416190Y-68764761D01*
X85416190Y-68621904D02*
X84916190Y-68621904D01*
X84987619Y-68669523D01*
X85035238Y-68717142D01*
X85059047Y-68764761D01*
D11*
X93901142Y-63762380D02*
X93567809Y-63286190D01*
X93329714Y-63762380D02*
X93329714Y-62762380D01*
X93710666Y-62762380D01*
X93805904Y-62810000D01*
X93853523Y-62857619D01*
X93901142Y-62952857D01*
X93901142Y-63095714D01*
X93853523Y-63190952D01*
X93805904Y-63238571D01*
X93710666Y-63286190D01*
X93329714Y-63286190D01*
X94853523Y-63762380D02*
X94282095Y-63762380D01*
X94567809Y-63762380D02*
X94567809Y-62762380D01*
X94472571Y-62905238D01*
X94377333Y-63000476D01*
X94282095Y-63048095D01*
X95472571Y-62762380D02*
X95567809Y-62762380D01*
X95663047Y-62810000D01*
X95710666Y-62857619D01*
X95758285Y-62952857D01*
X95805904Y-63143333D01*
X95805904Y-63381428D01*
X95758285Y-63571904D01*
X95710666Y-63667142D01*
X95663047Y-63714761D01*
X95567809Y-63762380D01*
X95472571Y-63762380D01*
X95377333Y-63714761D01*
X95329714Y-63667142D01*
X95282095Y-63571904D01*
X95234476Y-63381428D01*
X95234476Y-63143333D01*
X95282095Y-62952857D01*
X95329714Y-62857619D01*
X95377333Y-62810000D01*
X95472571Y-62762380D01*
X59968095Y-88752380D02*
X59968095Y-89561904D01*
X60015714Y-89657142D01*
X60063333Y-89704761D01*
X60158571Y-89752380D01*
X60349047Y-89752380D01*
X60444285Y-89704761D01*
X60491904Y-89657142D01*
X60539523Y-89561904D01*
X60539523Y-88752380D01*
X61444285Y-88752380D02*
X61253809Y-88752380D01*
X61158571Y-88800000D01*
X61110952Y-88847619D01*
X61015714Y-88990476D01*
X60968095Y-89180952D01*
X60968095Y-89561904D01*
X61015714Y-89657142D01*
X61063333Y-89704761D01*
X61158571Y-89752380D01*
X61349047Y-89752380D01*
X61444285Y-89704761D01*
X61491904Y-89657142D01*
X61539523Y-89561904D01*
X61539523Y-89323809D01*
X61491904Y-89228571D01*
X61444285Y-89180952D01*
X61349047Y-89133333D01*
X61158571Y-89133333D01*
X61063333Y-89180952D01*
X61015714Y-89228571D01*
X60968095Y-89323809D01*
X113568380Y-130042285D02*
X112568380Y-130042285D01*
X112568380Y-129804190D01*
X112616000Y-129661333D01*
X112711238Y-129566095D01*
X112806476Y-129518476D01*
X112996952Y-129470857D01*
X113139809Y-129470857D01*
X113330285Y-129518476D01*
X113425523Y-129566095D01*
X113520761Y-129661333D01*
X113568380Y-129804190D01*
X113568380Y-130042285D01*
X113568380Y-128518476D02*
X113568380Y-129089904D01*
X113568380Y-128804190D02*
X112568380Y-128804190D01*
X112711238Y-128899428D01*
X112806476Y-128994666D01*
X112854095Y-129089904D01*
X112568380Y-127613714D02*
X112568380Y-128089904D01*
X113044571Y-128137523D01*
X112996952Y-128089904D01*
X112949333Y-127994666D01*
X112949333Y-127756571D01*
X112996952Y-127661333D01*
X113044571Y-127613714D01*
X113139809Y-127566095D01*
X113377904Y-127566095D01*
X113473142Y-127613714D01*
X113520761Y-127661333D01*
X113568380Y-127756571D01*
X113568380Y-127994666D01*
X113520761Y-128089904D01*
X113473142Y-128137523D01*
X113586380Y-123385904D02*
X112586380Y-123385904D01*
X113586380Y-122814476D02*
X113014952Y-123243047D01*
X112586380Y-122814476D02*
X113157809Y-123385904D01*
X113488380Y-140092285D02*
X112488380Y-140092285D01*
X112488380Y-139854190D01*
X112536000Y-139711333D01*
X112631238Y-139616095D01*
X112726476Y-139568476D01*
X112916952Y-139520857D01*
X113059809Y-139520857D01*
X113250285Y-139568476D01*
X113345523Y-139616095D01*
X113440761Y-139711333D01*
X113488380Y-139854190D01*
X113488380Y-140092285D01*
X113488380Y-138568476D02*
X113488380Y-139139904D01*
X113488380Y-138854190D02*
X112488380Y-138854190D01*
X112631238Y-138949428D01*
X112726476Y-139044666D01*
X112774095Y-139139904D01*
X112488380Y-137711333D02*
X112488380Y-137901809D01*
X112536000Y-137997047D01*
X112583619Y-138044666D01*
X112726476Y-138139904D01*
X112916952Y-138187523D01*
X113297904Y-138187523D01*
X113393142Y-138139904D01*
X113440761Y-138092285D01*
X113488380Y-137997047D01*
X113488380Y-137806571D01*
X113440761Y-137711333D01*
X113393142Y-137663714D01*
X113297904Y-137616095D01*
X113059809Y-137616095D01*
X112964571Y-137663714D01*
X112916952Y-137711333D01*
X112869333Y-137806571D01*
X112869333Y-137997047D01*
X112916952Y-138092285D01*
X112964571Y-138139904D01*
X113059809Y-138187523D01*
X115062380Y-135029904D02*
X114062380Y-135029904D01*
X115062380Y-134458476D02*
X114490952Y-134887047D01*
X114062380Y-134458476D02*
X114633809Y-135029904D01*
X76372380Y-101384285D02*
X75372380Y-101384285D01*
X75372380Y-101146190D01*
X75420000Y-101003333D01*
X75515238Y-100908095D01*
X75610476Y-100860476D01*
X75800952Y-100812857D01*
X75943809Y-100812857D01*
X76134285Y-100860476D01*
X76229523Y-100908095D01*
X76324761Y-101003333D01*
X76372380Y-101146190D01*
X76372380Y-101384285D01*
X76372380Y-99860476D02*
X76372380Y-100431904D01*
X76372380Y-100146190D02*
X75372380Y-100146190D01*
X75515238Y-100241428D01*
X75610476Y-100336666D01*
X75658095Y-100431904D01*
X76372380Y-99384285D02*
X76372380Y-99193809D01*
X76324761Y-99098571D01*
X76277142Y-99050952D01*
X76134285Y-98955714D01*
X75943809Y-98908095D01*
X75562857Y-98908095D01*
X75467619Y-98955714D01*
X75420000Y-99003333D01*
X75372380Y-99098571D01*
X75372380Y-99289047D01*
X75420000Y-99384285D01*
X75467619Y-99431904D01*
X75562857Y-99479523D01*
X75800952Y-99479523D01*
X75896190Y-99431904D01*
X75943809Y-99384285D01*
X75991428Y-99289047D01*
X75991428Y-99098571D01*
X75943809Y-99003333D01*
X75896190Y-98955714D01*
X75800952Y-98908095D01*
X78182380Y-96301904D02*
X77182380Y-96301904D01*
X78182380Y-95730476D02*
X77610952Y-96159047D01*
X77182380Y-95730476D02*
X77753809Y-96301904D01*
X70695714Y-106432380D02*
X70695714Y-105432380D01*
X70933809Y-105432380D01*
X71076666Y-105480000D01*
X71171904Y-105575238D01*
X71219523Y-105670476D01*
X71267142Y-105860952D01*
X71267142Y-106003809D01*
X71219523Y-106194285D01*
X71171904Y-106289523D01*
X71076666Y-106384761D01*
X70933809Y-106432380D01*
X70695714Y-106432380D01*
X71648095Y-105527619D02*
X71695714Y-105480000D01*
X71790952Y-105432380D01*
X72029047Y-105432380D01*
X72124285Y-105480000D01*
X72171904Y-105527619D01*
X72219523Y-105622857D01*
X72219523Y-105718095D01*
X72171904Y-105860952D01*
X71600476Y-106432380D01*
X72219523Y-106432380D01*
X72838571Y-105432380D02*
X72933809Y-105432380D01*
X73029047Y-105480000D01*
X73076666Y-105527619D01*
X73124285Y-105622857D01*
X73171904Y-105813333D01*
X73171904Y-106051428D01*
X73124285Y-106241904D01*
X73076666Y-106337142D01*
X73029047Y-106384761D01*
X72933809Y-106432380D01*
X72838571Y-106432380D01*
X72743333Y-106384761D01*
X72695714Y-106337142D01*
X72648095Y-106241904D01*
X72600476Y-106051428D01*
X72600476Y-105813333D01*
X72648095Y-105622857D01*
X72695714Y-105527619D01*
X72743333Y-105480000D01*
X72838571Y-105432380D01*
X77228095Y-106442380D02*
X77228095Y-105442380D01*
X77799523Y-106442380D02*
X77370952Y-105870952D01*
X77799523Y-105442380D02*
X77228095Y-106013809D01*
X113702380Y-108558095D02*
X112702380Y-108558095D01*
X112702380Y-108320000D01*
X112750000Y-108177142D01*
X112845238Y-108081904D01*
X112940476Y-108034285D01*
X113130952Y-107986666D01*
X113273809Y-107986666D01*
X113464285Y-108034285D01*
X113559523Y-108081904D01*
X113654761Y-108177142D01*
X113702380Y-108320000D01*
X113702380Y-108558095D01*
X113702380Y-107034285D02*
X113702380Y-107605714D01*
X113702380Y-107320000D02*
X112702380Y-107320000D01*
X112845238Y-107415238D01*
X112940476Y-107510476D01*
X112988095Y-107605714D01*
X113652380Y-102751904D02*
X112652380Y-102751904D01*
X113652380Y-102180476D02*
X113080952Y-102609047D01*
X112652380Y-102180476D02*
X113223809Y-102751904D01*
X89513333Y-89152380D02*
X89180000Y-88676190D01*
X88941904Y-89152380D02*
X88941904Y-88152380D01*
X89322857Y-88152380D01*
X89418095Y-88200000D01*
X89465714Y-88247619D01*
X89513333Y-88342857D01*
X89513333Y-88485714D01*
X89465714Y-88580952D01*
X89418095Y-88628571D01*
X89322857Y-88676190D01*
X88941904Y-88676190D01*
X90370476Y-88152380D02*
X90180000Y-88152380D01*
X90084761Y-88200000D01*
X90037142Y-88247619D01*
X89941904Y-88390476D01*
X89894285Y-88580952D01*
X89894285Y-88961904D01*
X89941904Y-89057142D01*
X89989523Y-89104761D01*
X90084761Y-89152380D01*
X90275238Y-89152380D01*
X90370476Y-89104761D01*
X90418095Y-89057142D01*
X90465714Y-88961904D01*
X90465714Y-88723809D01*
X90418095Y-88628571D01*
X90370476Y-88580952D01*
X90275238Y-88533333D01*
X90084761Y-88533333D01*
X89989523Y-88580952D01*
X89941904Y-88628571D01*
X89894285Y-88723809D01*
X59702380Y-105536903D02*
X60511904Y-105536903D01*
X60607142Y-105489284D01*
X60654761Y-105441665D01*
X60702380Y-105346427D01*
X60702380Y-105155951D01*
X60654761Y-105060713D01*
X60607142Y-105013094D01*
X60511904Y-104965475D01*
X59702380Y-104965475D01*
X59702380Y-104013094D02*
X59702380Y-104489284D01*
X60178571Y-104536903D01*
X60130952Y-104489284D01*
X60083333Y-104394046D01*
X60083333Y-104155951D01*
X60130952Y-104060713D01*
X60178571Y-104013094D01*
X60273809Y-103965475D01*
X60511904Y-103965475D01*
X60607142Y-104013094D01*
X60654761Y-104060713D01*
X60702380Y-104155951D01*
X60702380Y-104394046D01*
X60654761Y-104489284D01*
X60607142Y-104536903D01*
X59307142Y-113082857D02*
X59354761Y-113130476D01*
X59402380Y-113273333D01*
X59402380Y-113368571D01*
X59354761Y-113511428D01*
X59259523Y-113606666D01*
X59164285Y-113654285D01*
X58973809Y-113701904D01*
X58830952Y-113701904D01*
X58640476Y-113654285D01*
X58545238Y-113606666D01*
X58450000Y-113511428D01*
X58402380Y-113368571D01*
X58402380Y-113273333D01*
X58450000Y-113130476D01*
X58497619Y-113082857D01*
X59402380Y-112130476D02*
X59402380Y-112701904D01*
X59402380Y-112416190D02*
X58402380Y-112416190D01*
X58545238Y-112511428D01*
X58640476Y-112606666D01*
X58688095Y-112701904D01*
X59402380Y-111178095D02*
X59402380Y-111749523D01*
X59402380Y-111463809D02*
X58402380Y-111463809D01*
X58545238Y-111559047D01*
X58640476Y-111654285D01*
X58688095Y-111749523D01*
X58107142Y-97892857D02*
X58154761Y-97940476D01*
X58202380Y-98083333D01*
X58202380Y-98178571D01*
X58154761Y-98321428D01*
X58059523Y-98416666D01*
X57964285Y-98464285D01*
X57773809Y-98511904D01*
X57630952Y-98511904D01*
X57440476Y-98464285D01*
X57345238Y-98416666D01*
X57250000Y-98321428D01*
X57202380Y-98178571D01*
X57202380Y-98083333D01*
X57250000Y-97940476D01*
X57297619Y-97892857D01*
X58202380Y-96940476D02*
X58202380Y-97511904D01*
X58202380Y-97226190D02*
X57202380Y-97226190D01*
X57345238Y-97321428D01*
X57440476Y-97416666D01*
X57488095Y-97511904D01*
X57202380Y-96035714D02*
X57202380Y-96511904D01*
X57678571Y-96559523D01*
X57630952Y-96511904D01*
X57583333Y-96416666D01*
X57583333Y-96178571D01*
X57630952Y-96083333D01*
X57678571Y-96035714D01*
X57773809Y-95988095D01*
X58011904Y-95988095D01*
X58107142Y-96035714D01*
X58154761Y-96083333D01*
X58202380Y-96178571D01*
X58202380Y-96416666D01*
X58154761Y-96511904D01*
X58107142Y-96559523D01*
X75952380Y-142716666D02*
X75476190Y-143050000D01*
X75952380Y-143288095D02*
X74952380Y-143288095D01*
X74952380Y-142907142D01*
X75000000Y-142811904D01*
X75047619Y-142764285D01*
X75142857Y-142716666D01*
X75285714Y-142716666D01*
X75380952Y-142764285D01*
X75428571Y-142811904D01*
X75476190Y-142907142D01*
X75476190Y-143288095D01*
X74952380Y-142383333D02*
X74952380Y-141716666D01*
X75952380Y-142145238D01*
X95154761Y-74047619D02*
X95059523Y-74000000D01*
X94964285Y-73904761D01*
X94821428Y-73761904D01*
X94726190Y-73714285D01*
X94630952Y-73714285D01*
X94678571Y-73952380D02*
X94583333Y-73904761D01*
X94488095Y-73809523D01*
X94440476Y-73619047D01*
X94440476Y-73285714D01*
X94488095Y-73095238D01*
X94583333Y-73000000D01*
X94678571Y-72952380D01*
X94869047Y-72952380D01*
X94964285Y-73000000D01*
X95059523Y-73095238D01*
X95107142Y-73285714D01*
X95107142Y-73619047D01*
X95059523Y-73809523D01*
X94964285Y-73904761D01*
X94869047Y-73952380D01*
X94678571Y-73952380D01*
X95440476Y-72952380D02*
X96107142Y-72952380D01*
X95678571Y-73952380D01*
X94334761Y-57787619D02*
X94239523Y-57740000D01*
X94144285Y-57644761D01*
X94001428Y-57501904D01*
X93906190Y-57454285D01*
X93810952Y-57454285D01*
X93858571Y-57692380D02*
X93763333Y-57644761D01*
X93668095Y-57549523D01*
X93620476Y-57359047D01*
X93620476Y-57025714D01*
X93668095Y-56835238D01*
X93763333Y-56740000D01*
X93858571Y-56692380D01*
X94049047Y-56692380D01*
X94144285Y-56740000D01*
X94239523Y-56835238D01*
X94287142Y-57025714D01*
X94287142Y-57359047D01*
X94239523Y-57549523D01*
X94144285Y-57644761D01*
X94049047Y-57692380D01*
X93858571Y-57692380D01*
X94858571Y-57120952D02*
X94763333Y-57073333D01*
X94715714Y-57025714D01*
X94668095Y-56930476D01*
X94668095Y-56882857D01*
X94715714Y-56787619D01*
X94763333Y-56740000D01*
X94858571Y-56692380D01*
X95049047Y-56692380D01*
X95144285Y-56740000D01*
X95191904Y-56787619D01*
X95239523Y-56882857D01*
X95239523Y-56930476D01*
X95191904Y-57025714D01*
X95144285Y-57073333D01*
X95049047Y-57120952D01*
X94858571Y-57120952D01*
X94763333Y-57168571D01*
X94715714Y-57216190D01*
X94668095Y-57311428D01*
X94668095Y-57501904D01*
X94715714Y-57597142D01*
X94763333Y-57644761D01*
X94858571Y-57692380D01*
X95049047Y-57692380D01*
X95144285Y-57644761D01*
X95191904Y-57597142D01*
X95239523Y-57501904D01*
X95239523Y-57311428D01*
X95191904Y-57216190D01*
X95144285Y-57168571D01*
X95049047Y-57120952D01*
X90782142Y-52952380D02*
X90448809Y-52476190D01*
X90210714Y-52952380D02*
X90210714Y-51952380D01*
X90591666Y-51952380D01*
X90686904Y-52000000D01*
X90734523Y-52047619D01*
X90782142Y-52142857D01*
X90782142Y-52285714D01*
X90734523Y-52380952D01*
X90686904Y-52428571D01*
X90591666Y-52476190D01*
X90210714Y-52476190D01*
X91734523Y-52952380D02*
X91163095Y-52952380D01*
X91448809Y-52952380D02*
X91448809Y-51952380D01*
X91353571Y-52095238D01*
X91258333Y-52190476D01*
X91163095Y-52238095D01*
X92591666Y-51952380D02*
X92401190Y-51952380D01*
X92305952Y-52000000D01*
X92258333Y-52047619D01*
X92163095Y-52190476D01*
X92115476Y-52380952D01*
X92115476Y-52761904D01*
X92163095Y-52857142D01*
X92210714Y-52904761D01*
X92305952Y-52952380D01*
X92496428Y-52952380D01*
X92591666Y-52904761D01*
X92639285Y-52857142D01*
X92686904Y-52761904D01*
X92686904Y-52523809D01*
X92639285Y-52428571D01*
X92591666Y-52380952D01*
X92496428Y-52333333D01*
X92305952Y-52333333D01*
X92210714Y-52380952D01*
X92163095Y-52428571D01*
X92115476Y-52523809D01*
X90904761Y-74047619D02*
X90809523Y-74000000D01*
X90714285Y-73904761D01*
X90571428Y-73761904D01*
X90476190Y-73714285D01*
X90380952Y-73714285D01*
X90428571Y-73952380D02*
X90333333Y-73904761D01*
X90238095Y-73809523D01*
X90190476Y-73619047D01*
X90190476Y-73285714D01*
X90238095Y-73095238D01*
X90333333Y-73000000D01*
X90428571Y-72952380D01*
X90619047Y-72952380D01*
X90714285Y-73000000D01*
X90809523Y-73095238D01*
X90857142Y-73285714D01*
X90857142Y-73619047D01*
X90809523Y-73809523D01*
X90714285Y-73904761D01*
X90619047Y-73952380D01*
X90428571Y-73952380D01*
X91238095Y-73047619D02*
X91285714Y-73000000D01*
X91380952Y-72952380D01*
X91619047Y-72952380D01*
X91714285Y-73000000D01*
X91761904Y-73047619D01*
X91809523Y-73142857D01*
X91809523Y-73238095D01*
X91761904Y-73380952D01*
X91190476Y-73952380D01*
X91809523Y-73952380D01*
X97754761Y-52447619D02*
X97659523Y-52400000D01*
X97564285Y-52304761D01*
X97421428Y-52161904D01*
X97326190Y-52114285D01*
X97230952Y-52114285D01*
X97278571Y-52352380D02*
X97183333Y-52304761D01*
X97088095Y-52209523D01*
X97040476Y-52019047D01*
X97040476Y-51685714D01*
X97088095Y-51495238D01*
X97183333Y-51400000D01*
X97278571Y-51352380D01*
X97469047Y-51352380D01*
X97564285Y-51400000D01*
X97659523Y-51495238D01*
X97707142Y-51685714D01*
X97707142Y-52019047D01*
X97659523Y-52209523D01*
X97564285Y-52304761D01*
X97469047Y-52352380D01*
X97278571Y-52352380D01*
X98564285Y-51685714D02*
X98564285Y-52352380D01*
X98326190Y-51304761D02*
X98088095Y-52019047D01*
X98707142Y-52019047D01*
X113252380Y-46866666D02*
X112776190Y-47200000D01*
X113252380Y-47438095D02*
X112252380Y-47438095D01*
X112252380Y-47057142D01*
X112300000Y-46961904D01*
X112347619Y-46914285D01*
X112442857Y-46866666D01*
X112585714Y-46866666D01*
X112680952Y-46914285D01*
X112728571Y-46961904D01*
X112776190Y-47057142D01*
X112776190Y-47438095D01*
X112347619Y-46485714D02*
X112300000Y-46438095D01*
X112252380Y-46342857D01*
X112252380Y-46104761D01*
X112300000Y-46009523D01*
X112347619Y-45961904D01*
X112442857Y-45914285D01*
X112538095Y-45914285D01*
X112680952Y-45961904D01*
X113252380Y-46533333D01*
X113252380Y-45914285D01*
X70702380Y-124246666D02*
X70226190Y-124580000D01*
X70702380Y-124818095D02*
X69702380Y-124818095D01*
X69702380Y-124437142D01*
X69750000Y-124341904D01*
X69797619Y-124294285D01*
X69892857Y-124246666D01*
X70035714Y-124246666D01*
X70130952Y-124294285D01*
X70178571Y-124341904D01*
X70226190Y-124437142D01*
X70226190Y-124818095D01*
X70702380Y-123770476D02*
X70702380Y-123580000D01*
X70654761Y-123484761D01*
X70607142Y-123437142D01*
X70464285Y-123341904D01*
X70273809Y-123294285D01*
X69892857Y-123294285D01*
X69797619Y-123341904D01*
X69750000Y-123389523D01*
X69702380Y-123484761D01*
X69702380Y-123675238D01*
X69750000Y-123770476D01*
X69797619Y-123818095D01*
X69892857Y-123865714D01*
X70130952Y-123865714D01*
X70226190Y-123818095D01*
X70273809Y-123770476D01*
X70321428Y-123675238D01*
X70321428Y-123484761D01*
X70273809Y-123389523D01*
X70226190Y-123341904D01*
X70130952Y-123294285D01*
X66572380Y-74322857D02*
X66096190Y-74656190D01*
X66572380Y-74894285D02*
X65572380Y-74894285D01*
X65572380Y-74513333D01*
X65620000Y-74418095D01*
X65667619Y-74370476D01*
X65762857Y-74322857D01*
X65905714Y-74322857D01*
X66000952Y-74370476D01*
X66048571Y-74418095D01*
X66096190Y-74513333D01*
X66096190Y-74894285D01*
X66572380Y-73370476D02*
X66572380Y-73941904D01*
X66572380Y-73656190D02*
X65572380Y-73656190D01*
X65715238Y-73751428D01*
X65810476Y-73846666D01*
X65858095Y-73941904D01*
X65667619Y-72989523D02*
X65620000Y-72941904D01*
X65572380Y-72846666D01*
X65572380Y-72608571D01*
X65620000Y-72513333D01*
X65667619Y-72465714D01*
X65762857Y-72418095D01*
X65858095Y-72418095D01*
X66000952Y-72465714D01*
X66572380Y-73037142D01*
X66572380Y-72418095D01*
X66602380Y-61292857D02*
X66126190Y-61626190D01*
X66602380Y-61864285D02*
X65602380Y-61864285D01*
X65602380Y-61483333D01*
X65650000Y-61388095D01*
X65697619Y-61340476D01*
X65792857Y-61292857D01*
X65935714Y-61292857D01*
X66030952Y-61340476D01*
X66078571Y-61388095D01*
X66126190Y-61483333D01*
X66126190Y-61864285D01*
X66602380Y-60340476D02*
X66602380Y-60911904D01*
X66602380Y-60626190D02*
X65602380Y-60626190D01*
X65745238Y-60721428D01*
X65840476Y-60816666D01*
X65888095Y-60911904D01*
X65602380Y-60007142D02*
X65602380Y-59388095D01*
X65983333Y-59721428D01*
X65983333Y-59578571D01*
X66030952Y-59483333D01*
X66078571Y-59435714D01*
X66173809Y-59388095D01*
X66411904Y-59388095D01*
X66507142Y-59435714D01*
X66554761Y-59483333D01*
X66602380Y-59578571D01*
X66602380Y-59864285D01*
X66554761Y-59959523D01*
X66507142Y-60007142D01*
X63552380Y-70894857D02*
X63076190Y-71228190D01*
X63552380Y-71466285D02*
X62552380Y-71466285D01*
X62552380Y-71085333D01*
X62600000Y-70990095D01*
X62647619Y-70942476D01*
X62742857Y-70894857D01*
X62885714Y-70894857D01*
X62980952Y-70942476D01*
X63028571Y-70990095D01*
X63076190Y-71085333D01*
X63076190Y-71466285D01*
X63552380Y-69942476D02*
X63552380Y-70513904D01*
X63552380Y-70228190D02*
X62552380Y-70228190D01*
X62695238Y-70323428D01*
X62790476Y-70418666D01*
X62838095Y-70513904D01*
X62980952Y-69371047D02*
X62933333Y-69466285D01*
X62885714Y-69513904D01*
X62790476Y-69561523D01*
X62742857Y-69561523D01*
X62647619Y-69513904D01*
X62600000Y-69466285D01*
X62552380Y-69371047D01*
X62552380Y-69180571D01*
X62600000Y-69085333D01*
X62647619Y-69037714D01*
X62742857Y-68990095D01*
X62790476Y-68990095D01*
X62885714Y-69037714D01*
X62933333Y-69085333D01*
X62980952Y-69180571D01*
X62980952Y-69371047D01*
X63028571Y-69466285D01*
X63076190Y-69513904D01*
X63171428Y-69561523D01*
X63361904Y-69561523D01*
X63457142Y-69513904D01*
X63504761Y-69466285D01*
X63552380Y-69371047D01*
X63552380Y-69180571D01*
X63504761Y-69085333D01*
X63457142Y-69037714D01*
X63361904Y-68990095D01*
X63171428Y-68990095D01*
X63076190Y-69037714D01*
X63028571Y-69085333D01*
X62980952Y-69180571D01*
X57658380Y-144904095D02*
X56658380Y-144904095D01*
X56658380Y-144666000D01*
X56706000Y-144523142D01*
X56801238Y-144427904D01*
X56896476Y-144380285D01*
X57086952Y-144332666D01*
X57229809Y-144332666D01*
X57420285Y-144380285D01*
X57515523Y-144427904D01*
X57610761Y-144523142D01*
X57658380Y-144666000D01*
X57658380Y-144904095D01*
X56753619Y-143951714D02*
X56706000Y-143904095D01*
X56658380Y-143808857D01*
X56658380Y-143570761D01*
X56706000Y-143475523D01*
X56753619Y-143427904D01*
X56848857Y-143380285D01*
X56944095Y-143380285D01*
X57086952Y-143427904D01*
X57658380Y-143999333D01*
X57658380Y-143380285D01*
X56134380Y-140109904D02*
X55134380Y-140109904D01*
X56134380Y-139538476D02*
X55562952Y-139967047D01*
X55134380Y-139538476D02*
X55705809Y-140109904D01*
X57732380Y-134490095D02*
X56732380Y-134490095D01*
X56732380Y-134252000D01*
X56780000Y-134109142D01*
X56875238Y-134013904D01*
X56970476Y-133966285D01*
X57160952Y-133918666D01*
X57303809Y-133918666D01*
X57494285Y-133966285D01*
X57589523Y-134013904D01*
X57684761Y-134109142D01*
X57732380Y-134252000D01*
X57732380Y-134490095D01*
X56732380Y-133585333D02*
X56732380Y-132918666D01*
X57732380Y-133347238D01*
X59458380Y-129949904D02*
X58458380Y-129949904D01*
X59458380Y-129378476D02*
X58886952Y-129807047D01*
X58458380Y-129378476D02*
X59029809Y-129949904D01*
X70988095Y-100652380D02*
X70988095Y-101461904D01*
X71035714Y-101557142D01*
X71083333Y-101604761D01*
X71178571Y-101652380D01*
X71369047Y-101652380D01*
X71464285Y-101604761D01*
X71511904Y-101557142D01*
X71559523Y-101461904D01*
X71559523Y-100652380D01*
X72464285Y-100985714D02*
X72464285Y-101652380D01*
X72226190Y-100604761D02*
X71988095Y-101319047D01*
X72607142Y-101319047D01*
X67777142Y-84162857D02*
X67824761Y-84210476D01*
X67872380Y-84353333D01*
X67872380Y-84448571D01*
X67824761Y-84591428D01*
X67729523Y-84686666D01*
X67634285Y-84734285D01*
X67443809Y-84781904D01*
X67300952Y-84781904D01*
X67110476Y-84734285D01*
X67015238Y-84686666D01*
X66920000Y-84591428D01*
X66872380Y-84448571D01*
X66872380Y-84353333D01*
X66920000Y-84210476D01*
X66967619Y-84162857D01*
X67872380Y-83210476D02*
X67872380Y-83781904D01*
X67872380Y-83496190D02*
X66872380Y-83496190D01*
X67015238Y-83591428D01*
X67110476Y-83686666D01*
X67158095Y-83781904D01*
X66872380Y-82353333D02*
X66872380Y-82543809D01*
X66920000Y-82639047D01*
X66967619Y-82686666D01*
X67110476Y-82781904D01*
X67300952Y-82829523D01*
X67681904Y-82829523D01*
X67777142Y-82781904D01*
X67824761Y-82734285D01*
X67872380Y-82639047D01*
X67872380Y-82448571D01*
X67824761Y-82353333D01*
X67777142Y-82305714D01*
X67681904Y-82258095D01*
X67443809Y-82258095D01*
X67348571Y-82305714D01*
X67300952Y-82353333D01*
X67253333Y-82448571D01*
X67253333Y-82639047D01*
X67300952Y-82734285D01*
X67348571Y-82781904D01*
X67443809Y-82829523D01*
X64261904Y-48892380D02*
X64261904Y-47892380D01*
X64500000Y-47892380D01*
X64642857Y-47940000D01*
X64738095Y-48035238D01*
X64785714Y-48130476D01*
X64833333Y-48320952D01*
X64833333Y-48463809D01*
X64785714Y-48654285D01*
X64738095Y-48749523D01*
X64642857Y-48844761D01*
X64500000Y-48892380D01*
X64261904Y-48892380D01*
X65404761Y-48320952D02*
X65309523Y-48273333D01*
X65261904Y-48225714D01*
X65214285Y-48130476D01*
X65214285Y-48082857D01*
X65261904Y-47987619D01*
X65309523Y-47940000D01*
X65404761Y-47892380D01*
X65595238Y-47892380D01*
X65690476Y-47940000D01*
X65738095Y-47987619D01*
X65785714Y-48082857D01*
X65785714Y-48130476D01*
X65738095Y-48225714D01*
X65690476Y-48273333D01*
X65595238Y-48320952D01*
X65404761Y-48320952D01*
X65309523Y-48368571D01*
X65261904Y-48416190D01*
X65214285Y-48511428D01*
X65214285Y-48701904D01*
X65261904Y-48797142D01*
X65309523Y-48844761D01*
X65404761Y-48892380D01*
X65595238Y-48892380D01*
X65690476Y-48844761D01*
X65738095Y-48797142D01*
X65785714Y-48701904D01*
X65785714Y-48511428D01*
X65738095Y-48416190D01*
X65690476Y-48368571D01*
X65595238Y-48320952D01*
X66091904Y-50836666D02*
X66568095Y-50836666D01*
X65996666Y-51122380D02*
X66330000Y-50122380D01*
X66663333Y-51122380D01*
X104547619Y-107670238D02*
X104500000Y-107765476D01*
X104404761Y-107860714D01*
X104261904Y-108003571D01*
X104214285Y-108098809D01*
X104214285Y-108194047D01*
X104452380Y-108146428D02*
X104404761Y-108241666D01*
X104309523Y-108336904D01*
X104119047Y-108384523D01*
X103785714Y-108384523D01*
X103595238Y-108336904D01*
X103500000Y-108241666D01*
X103452380Y-108146428D01*
X103452380Y-107955952D01*
X103500000Y-107860714D01*
X103595238Y-107765476D01*
X103785714Y-107717857D01*
X104119047Y-107717857D01*
X104309523Y-107765476D01*
X104404761Y-107860714D01*
X104452380Y-107955952D01*
X104452380Y-108146428D01*
X104452380Y-106765476D02*
X104452380Y-107336904D01*
X104452380Y-107051190D02*
X103452380Y-107051190D01*
X103595238Y-107146428D01*
X103690476Y-107241666D01*
X103738095Y-107336904D01*
X100202380Y-113267857D02*
X99726190Y-113601190D01*
X100202380Y-113839285D02*
X99202380Y-113839285D01*
X99202380Y-113458333D01*
X99250000Y-113363095D01*
X99297619Y-113315476D01*
X99392857Y-113267857D01*
X99535714Y-113267857D01*
X99630952Y-113315476D01*
X99678571Y-113363095D01*
X99726190Y-113458333D01*
X99726190Y-113839285D01*
X99297619Y-112886904D02*
X99250000Y-112839285D01*
X99202380Y-112744047D01*
X99202380Y-112505952D01*
X99250000Y-112410714D01*
X99297619Y-112363095D01*
X99392857Y-112315476D01*
X99488095Y-112315476D01*
X99630952Y-112363095D01*
X100202380Y-112934523D01*
X100202380Y-112315476D01*
X99297619Y-111934523D02*
X99250000Y-111886904D01*
X99202380Y-111791666D01*
X99202380Y-111553571D01*
X99250000Y-111458333D01*
X99297619Y-111410714D01*
X99392857Y-111363095D01*
X99488095Y-111363095D01*
X99630952Y-111410714D01*
X100202380Y-111982142D01*
X100202380Y-111363095D01*
X113152380Y-72992857D02*
X112676190Y-73326190D01*
X113152380Y-73564285D02*
X112152380Y-73564285D01*
X112152380Y-73183333D01*
X112200000Y-73088095D01*
X112247619Y-73040476D01*
X112342857Y-72992857D01*
X112485714Y-72992857D01*
X112580952Y-73040476D01*
X112628571Y-73088095D01*
X112676190Y-73183333D01*
X112676190Y-73564285D01*
X112247619Y-72611904D02*
X112200000Y-72564285D01*
X112152380Y-72469047D01*
X112152380Y-72230952D01*
X112200000Y-72135714D01*
X112247619Y-72088095D01*
X112342857Y-72040476D01*
X112438095Y-72040476D01*
X112580952Y-72088095D01*
X113152380Y-72659523D01*
X113152380Y-72040476D01*
X113152380Y-71088095D02*
X113152380Y-71659523D01*
X113152380Y-71373809D02*
X112152380Y-71373809D01*
X112295238Y-71469047D01*
X112390476Y-71564285D01*
X112438095Y-71659523D01*
X59412380Y-44388095D02*
X58412380Y-44388095D01*
X58412380Y-44150000D01*
X58460000Y-44007142D01*
X58555238Y-43911904D01*
X58650476Y-43864285D01*
X58840952Y-43816666D01*
X58983809Y-43816666D01*
X59174285Y-43864285D01*
X59269523Y-43911904D01*
X59364761Y-44007142D01*
X59412380Y-44150000D01*
X59412380Y-44388095D01*
X59412380Y-43340476D02*
X59412380Y-43150000D01*
X59364761Y-43054761D01*
X59317142Y-43007142D01*
X59174285Y-42911904D01*
X58983809Y-42864285D01*
X58602857Y-42864285D01*
X58507619Y-42911904D01*
X58460000Y-42959523D01*
X58412380Y-43054761D01*
X58412380Y-43245238D01*
X58460000Y-43340476D01*
X58507619Y-43388095D01*
X58602857Y-43435714D01*
X58840952Y-43435714D01*
X58936190Y-43388095D01*
X58983809Y-43340476D01*
X59031428Y-43245238D01*
X59031428Y-43054761D01*
X58983809Y-42959523D01*
X58936190Y-42911904D01*
X58840952Y-42864285D01*
X59432380Y-41321904D02*
X58432380Y-41321904D01*
X59432380Y-40750476D02*
X58860952Y-41179047D01*
X58432380Y-40750476D02*
X59003809Y-41321904D01*
X97252380Y-102966666D02*
X96776190Y-103300000D01*
X97252380Y-103538095D02*
X96252380Y-103538095D01*
X96252380Y-103157142D01*
X96300000Y-103061904D01*
X96347619Y-103014285D01*
X96442857Y-102966666D01*
X96585714Y-102966666D01*
X96680952Y-103014285D01*
X96728571Y-103061904D01*
X96776190Y-103157142D01*
X96776190Y-103538095D01*
X96252380Y-102061904D02*
X96252380Y-102538095D01*
X96728571Y-102585714D01*
X96680952Y-102538095D01*
X96633333Y-102442857D01*
X96633333Y-102204761D01*
X96680952Y-102109523D01*
X96728571Y-102061904D01*
X96823809Y-102014285D01*
X97061904Y-102014285D01*
X97157142Y-102061904D01*
X97204761Y-102109523D01*
X97252380Y-102204761D01*
X97252380Y-102442857D01*
X97204761Y-102538095D01*
X97157142Y-102585714D01*
D14*
X105295000Y-113580000D02*
X105280000Y-113580000D01*
X107420000Y-118120000D02*
X107405000Y-118120000D01*
X107420000Y-113580000D02*
X107405000Y-113580000D01*
X105295000Y-118120000D02*
X105280000Y-118120000D01*
X107420000Y-113580000D02*
X107420000Y-118120000D01*
X105280000Y-113580000D02*
X105280000Y-118120000D01*
X82195000Y-58650000D02*
X82180000Y-58650000D01*
X84320000Y-63190000D02*
X84305000Y-63190000D01*
X84320000Y-58650000D02*
X84305000Y-58650000D01*
X82195000Y-63190000D02*
X82180000Y-63190000D01*
X84320000Y-58650000D02*
X84320000Y-63190000D01*
X82180000Y-58650000D02*
X82180000Y-63190000D01*
X57760000Y-79475000D02*
X57760000Y-79490000D01*
X62300000Y-77350000D02*
X62300000Y-77365000D01*
X57760000Y-77350000D02*
X57760000Y-77365000D01*
X62300000Y-79475000D02*
X62300000Y-79490000D01*
X57760000Y-77350000D02*
X62300000Y-77350000D01*
X57760000Y-79490000D02*
X62300000Y-79490000D01*
X56095000Y-117730000D02*
X56080000Y-117730000D01*
X58220000Y-122270000D02*
X58205000Y-122270000D01*
X58220000Y-117730000D02*
X58205000Y-117730000D01*
X56095000Y-122270000D02*
X56080000Y-122270000D01*
X58220000Y-117730000D02*
X58220000Y-122270000D01*
X56080000Y-117730000D02*
X56080000Y-122270000D01*
X77655000Y-132620000D02*
X77670000Y-132620000D01*
X75530000Y-128080000D02*
X75545000Y-128080000D01*
X75530000Y-132620000D02*
X75545000Y-132620000D01*
X77655000Y-128080000D02*
X77670000Y-128080000D01*
X75530000Y-132620000D02*
X75530000Y-128080000D01*
X77670000Y-132620000D02*
X77670000Y-128080000D01*
X88455000Y-124670000D02*
X88470000Y-124670000D01*
X86330000Y-120130000D02*
X86345000Y-120130000D01*
X86330000Y-124670000D02*
X86345000Y-124670000D01*
X88455000Y-120130000D02*
X88470000Y-120130000D01*
X86330000Y-124670000D02*
X86330000Y-120130000D01*
X88470000Y-124670000D02*
X88470000Y-120130000D01*
X103254800Y-143873000D02*
X103254800Y-143858000D01*
X98714800Y-145998000D02*
X98714800Y-145983000D01*
X103254800Y-145998000D02*
X103254800Y-145983000D01*
X98714800Y-143873000D02*
X98714800Y-143858000D01*
X103254800Y-145998000D02*
X98714800Y-145998000D01*
X103254800Y-143858000D02*
X98714800Y-143858000D01*
X104470000Y-122745000D02*
X104470000Y-122730000D01*
X99930000Y-124870000D02*
X99930000Y-124855000D01*
X104470000Y-124870000D02*
X104470000Y-124855000D01*
X99930000Y-122745000D02*
X99930000Y-122730000D01*
X104470000Y-124870000D02*
X99930000Y-124870000D01*
X104470000Y-122730000D02*
X99930000Y-122730000D01*
X71230000Y-93055000D02*
X71230000Y-93070000D01*
X75770000Y-90930000D02*
X75770000Y-90945000D01*
X71230000Y-90930000D02*
X71230000Y-90945000D01*
X75770000Y-93055000D02*
X75770000Y-93070000D01*
X71230000Y-90930000D02*
X75770000Y-90930000D01*
X71230000Y-93070000D02*
X75770000Y-93070000D01*
X70930000Y-109805000D02*
X70930000Y-109820000D01*
X75470000Y-107680000D02*
X75470000Y-107695000D01*
X70930000Y-107680000D02*
X70930000Y-107695000D01*
X75470000Y-109805000D02*
X75470000Y-109820000D01*
X70930000Y-107680000D02*
X75470000Y-107680000D01*
X70930000Y-109820000D02*
X75470000Y-109820000D01*
X75070000Y-69745000D02*
X75070000Y-69760000D01*
X79610000Y-67620000D02*
X79610000Y-67635000D01*
X75070000Y-67620000D02*
X75070000Y-67635000D01*
X79610000Y-69745000D02*
X79610000Y-69760000D01*
X75070000Y-67620000D02*
X79610000Y-67620000D01*
X75070000Y-69760000D02*
X79610000Y-69760000D01*
X81480000Y-56105000D02*
X81480000Y-56120000D01*
X86020000Y-53980000D02*
X86020000Y-53995000D01*
X81480000Y-53980000D02*
X81480000Y-53995000D01*
X86020000Y-56105000D02*
X86020000Y-56120000D01*
X81480000Y-53980000D02*
X86020000Y-53980000D01*
X81480000Y-56120000D02*
X86020000Y-56120000D01*
X108792000Y-84691000D02*
X108792000Y-84676000D01*
X104252000Y-86816000D02*
X104252000Y-86801000D01*
X108792000Y-86816000D02*
X108792000Y-86801000D01*
X104252000Y-84691000D02*
X104252000Y-84676000D01*
X108792000Y-86816000D02*
X104252000Y-86816000D01*
X108792000Y-84676000D02*
X104252000Y-84676000D01*
X89445000Y-140730000D02*
X89430000Y-140730000D01*
X91570000Y-145270000D02*
X91555000Y-145270000D01*
X91570000Y-140730000D02*
X91555000Y-140730000D01*
X89445000Y-145270000D02*
X89430000Y-145270000D01*
X91570000Y-140730000D02*
X91570000Y-145270000D01*
X89430000Y-140730000D02*
X89430000Y-145270000D01*
X83270000Y-107445000D02*
X83270000Y-107430000D01*
X78730000Y-109570000D02*
X78730000Y-109555000D01*
X83270000Y-109570000D02*
X83270000Y-109555000D01*
X78730000Y-107445000D02*
X78730000Y-107430000D01*
X83270000Y-109570000D02*
X78730000Y-109570000D01*
X83270000Y-107430000D02*
X78730000Y-107430000D01*
X86230000Y-109555000D02*
X86230000Y-109570000D01*
X90770000Y-107430000D02*
X90770000Y-107445000D01*
X86230000Y-107430000D02*
X86230000Y-107445000D01*
X90770000Y-109555000D02*
X90770000Y-109570000D01*
X86230000Y-107430000D02*
X90770000Y-107430000D01*
X86230000Y-109570000D02*
X90770000Y-109570000D01*
X88640000Y-136700000D02*
X88640000Y-126420000D01*
X78300000Y-134210000D02*
X88580000Y-134210000D01*
X88580000Y-134210000D02*
X88580000Y-132560000D01*
X88580000Y-130560000D02*
X88580000Y-128910000D01*
X88640000Y-126420000D02*
X78240000Y-126420000D01*
X88580000Y-128910000D02*
X78300000Y-128910000D01*
X78240000Y-126420000D02*
X78240000Y-136700000D01*
X78300000Y-128910000D02*
X78300000Y-134210000D01*
X78240000Y-136700000D02*
X88640000Y-136700000D01*
X88580000Y-130560000D02*
G75*
G03*
X88580000Y-132560000I0J-1000000D01*
G01*
X81350000Y-56560000D02*
X71070000Y-56560000D01*
X78860000Y-66900000D02*
X78860000Y-56620000D01*
X78860000Y-56620000D02*
X77210000Y-56620000D01*
X75210000Y-56620000D02*
X73560000Y-56620000D01*
X71070000Y-56560000D02*
X71070000Y-66960000D01*
X73560000Y-56620000D02*
X73560000Y-66900000D01*
X71070000Y-66960000D02*
X81350000Y-66960000D01*
X73560000Y-66900000D02*
X78860000Y-66900000D01*
X81350000Y-66960000D02*
X81350000Y-56560000D01*
X75210000Y-56620000D02*
G75*
G03*
X77210000Y-56620000I1000000J0D01*
G01*
X58089000Y-48280000D02*
X58089000Y-45499000D01*
X57209000Y-48280000D02*
X57209000Y-45955000D01*
X58049000Y-53125000D02*
X58049000Y-50360000D01*
X58489000Y-48280000D02*
X58489000Y-45373000D01*
X57489000Y-48280000D02*
X57489000Y-45780000D01*
X57769000Y-53006000D02*
X57769000Y-50360000D01*
X59450000Y-53400000D02*
X59450000Y-45240000D01*
X58729000Y-48280000D02*
X58729000Y-45318000D01*
X56849000Y-52410000D02*
X56849000Y-50360000D01*
X55689000Y-50773000D02*
X55689000Y-47867000D01*
X57369000Y-48280000D02*
X57369000Y-45851000D01*
X63939698Y-51635000D02*
X63139698Y-51635000D01*
X57969000Y-48280000D02*
X57969000Y-45546000D01*
X57729000Y-52986000D02*
X57729000Y-50360000D01*
X59250000Y-53391000D02*
X59250000Y-45249000D01*
X57329000Y-52764000D02*
X57329000Y-50360000D01*
X57929000Y-48280000D02*
X57929000Y-45563000D01*
X57889000Y-48280000D02*
X57889000Y-45580000D01*
X58209000Y-48280000D02*
X58209000Y-45457000D01*
X57089000Y-48280000D02*
X57089000Y-46040000D01*
X55889000Y-51210000D02*
X55889000Y-47430000D01*
X58049000Y-48280000D02*
X58049000Y-45515000D01*
X56729000Y-52303000D02*
X56729000Y-46337000D01*
X56929000Y-48280000D02*
X56929000Y-46164000D01*
X58369000Y-48280000D02*
X58369000Y-45406000D01*
X58689000Y-48280000D02*
X58689000Y-45326000D01*
X58850000Y-53344000D02*
X58850000Y-45296000D01*
X58609000Y-48280000D02*
X58609000Y-45344000D01*
X57129000Y-48280000D02*
X57129000Y-46011000D01*
X56569000Y-52146000D02*
X56569000Y-46494000D01*
X56809000Y-52375000D02*
X56809000Y-50360000D01*
X55569000Y-50418000D02*
X55569000Y-48222000D01*
X57449000Y-48280000D02*
X57449000Y-45803000D01*
X58449000Y-48280000D02*
X58449000Y-45384000D01*
X55929000Y-51284000D02*
X55929000Y-47356000D01*
X57089000Y-52600000D02*
X57089000Y-50360000D01*
X57569000Y-52904000D02*
X57569000Y-50360000D01*
X56169000Y-51665000D02*
X56169000Y-46975000D01*
X58529000Y-48280000D02*
X58529000Y-45363000D01*
X55649000Y-50666000D02*
X55649000Y-47974000D01*
X57769000Y-48280000D02*
X57769000Y-45634000D01*
X58529000Y-53277000D02*
X58529000Y-50360000D01*
X57129000Y-52629000D02*
X57129000Y-50360000D01*
X59050000Y-53372000D02*
X59050000Y-45268000D01*
X58009000Y-53110000D02*
X58009000Y-50360000D01*
X58769000Y-53330000D02*
X58769000Y-50360000D01*
X59530000Y-53400000D02*
X59530000Y-45240000D01*
X58289000Y-48280000D02*
X58289000Y-45431000D01*
X57649000Y-52947000D02*
X57649000Y-50360000D01*
X56049000Y-51486000D02*
X56049000Y-47154000D01*
X57609000Y-52926000D02*
X57609000Y-50360000D01*
X59410000Y-53399000D02*
X59410000Y-45241000D01*
X56809000Y-48280000D02*
X56809000Y-46265000D01*
X55609000Y-50549000D02*
X55609000Y-48091000D01*
X58129000Y-48280000D02*
X58129000Y-45485000D01*
X56369000Y-51924000D02*
X56369000Y-46716000D01*
X56489000Y-52061000D02*
X56489000Y-46579000D01*
X56769000Y-48280000D02*
X56769000Y-46301000D01*
X59130000Y-53381000D02*
X59130000Y-45259000D01*
X59330000Y-53396000D02*
X59330000Y-45244000D01*
X57169000Y-52658000D02*
X57169000Y-50360000D01*
X57409000Y-52813000D02*
X57409000Y-50360000D01*
X58209000Y-53183000D02*
X58209000Y-50360000D01*
X58689000Y-53314000D02*
X58689000Y-50360000D01*
X55489000Y-50088000D02*
X55489000Y-48552000D01*
X56769000Y-52339000D02*
X56769000Y-50360000D01*
X57889000Y-53060000D02*
X57889000Y-50360000D01*
X56929000Y-52476000D02*
X56929000Y-50360000D01*
X59090000Y-53377000D02*
X59090000Y-45263000D01*
X57169000Y-48280000D02*
X57169000Y-45982000D01*
X58649000Y-48280000D02*
X58649000Y-45335000D01*
X56129000Y-51607000D02*
X56129000Y-47033000D01*
X55849000Y-51133000D02*
X55849000Y-47507000D01*
X55769000Y-50965000D02*
X55769000Y-47675000D01*
X56889000Y-48280000D02*
X56889000Y-46196000D01*
X57649000Y-48280000D02*
X57649000Y-45693000D01*
X56209000Y-51720000D02*
X56209000Y-46920000D01*
X58129000Y-53155000D02*
X58129000Y-50360000D01*
X57689000Y-52967000D02*
X57689000Y-50360000D01*
X59490000Y-53400000D02*
X59490000Y-45240000D01*
X57929000Y-53077000D02*
X57929000Y-50360000D01*
X58569000Y-53287000D02*
X58569000Y-50360000D01*
X58329000Y-48280000D02*
X58329000Y-45418000D01*
X58249000Y-53197000D02*
X58249000Y-50360000D01*
X56689000Y-52265000D02*
X56689000Y-46375000D01*
X58089000Y-53141000D02*
X58089000Y-50360000D01*
X56969000Y-48280000D02*
X56969000Y-46131000D01*
X58289000Y-53209000D02*
X58289000Y-50360000D01*
X57009000Y-52540000D02*
X57009000Y-50360000D01*
X58009000Y-48280000D02*
X58009000Y-45530000D01*
X59170000Y-53385000D02*
X59170000Y-45255000D01*
X55969000Y-51354000D02*
X55969000Y-47286000D01*
X55809000Y-51051000D02*
X55809000Y-47589000D01*
X56969000Y-52509000D02*
X56969000Y-50360000D01*
X58970000Y-53362000D02*
X58970000Y-45278000D01*
X57569000Y-48280000D02*
X57569000Y-45736000D01*
X56249000Y-51774000D02*
X56249000Y-46866000D01*
X58930000Y-53357000D02*
X58930000Y-45283000D01*
X56889000Y-52444000D02*
X56889000Y-50360000D01*
X55729000Y-50872000D02*
X55729000Y-47768000D01*
X55529000Y-50268000D02*
X55529000Y-48372000D01*
X57289000Y-52738000D02*
X57289000Y-50360000D01*
X59290000Y-53394000D02*
X59290000Y-45246000D01*
X58729000Y-53322000D02*
X58729000Y-50360000D01*
X56289000Y-51825000D02*
X56289000Y-46815000D01*
X57009000Y-48280000D02*
X57009000Y-46100000D01*
X58329000Y-53222000D02*
X58329000Y-50360000D01*
X59210000Y-53388000D02*
X59210000Y-45252000D01*
X57849000Y-48280000D02*
X57849000Y-45598000D01*
X57729000Y-48280000D02*
X57729000Y-45654000D01*
X57809000Y-53024000D02*
X57809000Y-50360000D01*
X58409000Y-53245000D02*
X58409000Y-50360000D01*
X57369000Y-52789000D02*
X57369000Y-50360000D01*
X56329000Y-51876000D02*
X56329000Y-46764000D01*
X58569000Y-48280000D02*
X58569000Y-45353000D01*
X56009000Y-51422000D02*
X56009000Y-47218000D01*
X58409000Y-48280000D02*
X58409000Y-45395000D01*
X58449000Y-53256000D02*
X58449000Y-50360000D01*
X57449000Y-52837000D02*
X57449000Y-50360000D01*
X57409000Y-48280000D02*
X57409000Y-45827000D01*
X56849000Y-48280000D02*
X56849000Y-46230000D01*
X57049000Y-52570000D02*
X57049000Y-50360000D01*
X57529000Y-48280000D02*
X57529000Y-45758000D01*
X57809000Y-48280000D02*
X57809000Y-45616000D01*
X57609000Y-48280000D02*
X57609000Y-45714000D01*
X58249000Y-48280000D02*
X58249000Y-45443000D01*
X58890000Y-53350000D02*
X58890000Y-45290000D01*
X57849000Y-53042000D02*
X57849000Y-50360000D01*
X58649000Y-53305000D02*
X58649000Y-50360000D01*
X58769000Y-48280000D02*
X58769000Y-45310000D01*
X57969000Y-53094000D02*
X57969000Y-50360000D01*
X57489000Y-52860000D02*
X57489000Y-50360000D01*
X58169000Y-48280000D02*
X58169000Y-45470000D01*
X56649000Y-52227000D02*
X56649000Y-46413000D01*
X56449000Y-52017000D02*
X56449000Y-46623000D01*
X59010000Y-53368000D02*
X59010000Y-45272000D01*
X58609000Y-53296000D02*
X58609000Y-50360000D01*
X56409000Y-51971000D02*
X56409000Y-46669000D01*
X56089000Y-51548000D02*
X56089000Y-47092000D01*
X58809000Y-53337000D02*
X58809000Y-50360000D01*
X57529000Y-52882000D02*
X57529000Y-50360000D01*
X57329000Y-48280000D02*
X57329000Y-45876000D01*
X58809000Y-48280000D02*
X58809000Y-45303000D01*
X57209000Y-52685000D02*
X57209000Y-50360000D01*
X57249000Y-52712000D02*
X57249000Y-50360000D01*
X57689000Y-48280000D02*
X57689000Y-45673000D01*
X55449000Y-49853000D02*
X55449000Y-48787000D01*
X57049000Y-48280000D02*
X57049000Y-46070000D01*
X56529000Y-52104000D02*
X56529000Y-46536000D01*
X59370000Y-53397000D02*
X59370000Y-45243000D01*
X57289000Y-48280000D02*
X57289000Y-45902000D01*
X58369000Y-53234000D02*
X58369000Y-50360000D01*
X57249000Y-48280000D02*
X57249000Y-45928000D01*
X58169000Y-53170000D02*
X58169000Y-50360000D01*
X56609000Y-52187000D02*
X56609000Y-46453000D01*
X58489000Y-53267000D02*
X58489000Y-50360000D01*
X63539698Y-52035000D02*
X63539698Y-51235000D01*
X63650000Y-49320000D02*
G75*
G03*
X63650000Y-49320000I-4120000J0D01*
G01*
X63631000Y-57251000D02*
X63631000Y-59709000D01*
X62831000Y-55829000D02*
X62831000Y-61131000D01*
X60390000Y-54456000D02*
X60390000Y-62504000D01*
X62231000Y-59520000D02*
X62231000Y-61700000D01*
X60350000Y-54450000D02*
X60350000Y-62510000D01*
X61711000Y-54918000D02*
X61711000Y-57440000D01*
X61351000Y-59520000D02*
X61351000Y-62220000D01*
X61071000Y-59520000D02*
X61071000Y-62330000D01*
X62751000Y-55739000D02*
X62751000Y-61221000D01*
X63711000Y-57532000D02*
X63711000Y-59428000D01*
X59750000Y-54400000D02*
X59750000Y-62560000D01*
X61231000Y-54690000D02*
X61231000Y-57440000D01*
X61271000Y-54706000D02*
X61271000Y-57440000D01*
X60711000Y-54523000D02*
X60711000Y-57440000D01*
X61231000Y-59520000D02*
X61231000Y-62270000D01*
X60831000Y-59520000D02*
X60831000Y-62405000D01*
X60551000Y-54486000D02*
X60551000Y-57440000D01*
X62911000Y-55924000D02*
X62911000Y-61036000D01*
X61591000Y-54853000D02*
X61591000Y-57440000D01*
X55700302Y-55765000D02*
X55700302Y-56565000D01*
X61871000Y-55011000D02*
X61871000Y-57440000D01*
X55300302Y-56165000D02*
X56100302Y-56165000D01*
X62471000Y-55461000D02*
X62471000Y-57440000D01*
X61631000Y-54874000D02*
X61631000Y-57440000D01*
X60991000Y-54603000D02*
X60991000Y-57440000D01*
X62071000Y-59520000D02*
X62071000Y-61818000D01*
X60791000Y-54544000D02*
X60791000Y-57440000D01*
X61711000Y-59520000D02*
X61711000Y-62042000D01*
X59910000Y-54404000D02*
X59910000Y-62556000D01*
X59990000Y-54409000D02*
X59990000Y-62551000D01*
X60551000Y-59520000D02*
X60551000Y-62474000D01*
X62271000Y-59520000D02*
X62271000Y-61669000D01*
X60991000Y-59520000D02*
X60991000Y-62357000D01*
X60591000Y-54495000D02*
X60591000Y-57440000D01*
X61031000Y-59520000D02*
X61031000Y-62343000D01*
X60591000Y-59520000D02*
X60591000Y-62465000D01*
X61471000Y-54794000D02*
X61471000Y-57440000D01*
X59870000Y-54403000D02*
X59870000Y-62557000D01*
X61111000Y-59520000D02*
X61111000Y-62315000D01*
X60310000Y-54443000D02*
X60310000Y-62517000D01*
X63791000Y-57947000D02*
X63791000Y-59013000D01*
X61831000Y-59520000D02*
X61831000Y-61973000D01*
X63231000Y-56378000D02*
X63231000Y-60582000D01*
X60631000Y-59520000D02*
X60631000Y-62456000D01*
X61751000Y-59520000D02*
X61751000Y-62020000D01*
X62351000Y-55356000D02*
X62351000Y-57440000D01*
X62991000Y-56026000D02*
X62991000Y-60934000D01*
X62311000Y-59520000D02*
X62311000Y-61636000D01*
X62271000Y-55291000D02*
X62271000Y-57440000D01*
X60871000Y-59520000D02*
X60871000Y-62394000D01*
X60911000Y-54578000D02*
X60911000Y-57440000D01*
X61791000Y-54963000D02*
X61791000Y-57440000D01*
X61951000Y-55062000D02*
X61951000Y-57440000D01*
X62551000Y-55535000D02*
X62551000Y-61425000D01*
X62951000Y-55975000D02*
X62951000Y-60985000D01*
X61951000Y-59520000D02*
X61951000Y-61898000D01*
X63351000Y-56590000D02*
X63351000Y-60370000D01*
X61151000Y-59520000D02*
X61151000Y-62301000D01*
X61671000Y-59520000D02*
X61671000Y-62064000D01*
X61431000Y-59520000D02*
X61431000Y-62184000D01*
X61911000Y-59520000D02*
X61911000Y-61924000D01*
X62511000Y-55497000D02*
X62511000Y-61463000D01*
X63311000Y-56516000D02*
X63311000Y-60444000D01*
X63071000Y-56135000D02*
X63071000Y-60825000D01*
X60030000Y-54412000D02*
X60030000Y-62548000D01*
X60511000Y-54478000D02*
X60511000Y-57440000D01*
X60751000Y-54533000D02*
X60751000Y-57440000D01*
X61071000Y-54630000D02*
X61071000Y-57440000D01*
X60871000Y-54566000D02*
X60871000Y-57440000D01*
X62111000Y-59520000D02*
X62111000Y-61789000D01*
X61511000Y-59520000D02*
X61511000Y-62146000D01*
X60471000Y-59520000D02*
X60471000Y-62490000D01*
X60431000Y-59520000D02*
X60431000Y-62497000D01*
X63591000Y-57134000D02*
X63591000Y-59826000D01*
X63431000Y-56749000D02*
X63431000Y-60211000D01*
X60190000Y-54428000D02*
X60190000Y-62532000D01*
X63671000Y-57382000D02*
X63671000Y-59578000D01*
X60791000Y-59520000D02*
X60791000Y-62416000D01*
X62391000Y-55390000D02*
X62391000Y-57440000D01*
X62151000Y-59520000D02*
X62151000Y-61760000D01*
X62791000Y-55783000D02*
X62791000Y-61177000D01*
X59830000Y-54401000D02*
X59830000Y-62559000D01*
X60711000Y-59520000D02*
X60711000Y-62437000D01*
X62031000Y-55115000D02*
X62031000Y-57440000D01*
X61791000Y-59520000D02*
X61791000Y-61997000D01*
X61351000Y-54740000D02*
X61351000Y-57440000D01*
X61391000Y-59520000D02*
X61391000Y-62202000D01*
X62431000Y-55425000D02*
X62431000Y-57440000D01*
X63471000Y-56835000D02*
X63471000Y-60125000D01*
X62191000Y-55230000D02*
X62191000Y-57440000D01*
X62431000Y-59520000D02*
X62431000Y-61535000D01*
X60431000Y-54463000D02*
X60431000Y-57440000D01*
X61671000Y-54896000D02*
X61671000Y-57440000D01*
X61191000Y-59520000D02*
X61191000Y-62285000D01*
X60230000Y-54432000D02*
X60230000Y-62528000D01*
X62111000Y-55171000D02*
X62111000Y-57440000D01*
X60911000Y-59520000D02*
X60911000Y-62382000D01*
X61271000Y-59520000D02*
X61271000Y-62254000D01*
X62191000Y-59520000D02*
X62191000Y-61730000D01*
X62671000Y-55654000D02*
X62671000Y-61306000D01*
X61311000Y-54723000D02*
X61311000Y-57440000D01*
X60831000Y-54555000D02*
X60831000Y-57440000D01*
X62151000Y-55200000D02*
X62151000Y-57440000D01*
X61151000Y-54659000D02*
X61151000Y-57440000D01*
X63751000Y-57712000D02*
X63751000Y-59248000D01*
X62871000Y-55876000D02*
X62871000Y-61084000D01*
X61311000Y-59520000D02*
X61311000Y-62237000D01*
X61551000Y-59520000D02*
X61551000Y-62127000D01*
X61191000Y-54675000D02*
X61191000Y-57440000D01*
X60511000Y-59520000D02*
X60511000Y-62482000D01*
X60631000Y-54504000D02*
X60631000Y-57440000D01*
X61591000Y-59520000D02*
X61591000Y-62107000D01*
X62591000Y-55573000D02*
X62591000Y-61387000D01*
X61551000Y-54833000D02*
X61551000Y-57440000D01*
X60070000Y-54415000D02*
X60070000Y-62545000D01*
X61991000Y-59520000D02*
X61991000Y-61872000D01*
X60671000Y-54513000D02*
X60671000Y-57440000D01*
X60951000Y-54591000D02*
X60951000Y-57440000D01*
X62351000Y-59520000D02*
X62351000Y-61604000D01*
X61111000Y-54645000D02*
X61111000Y-57440000D01*
X61911000Y-55036000D02*
X61911000Y-57440000D01*
X61031000Y-54617000D02*
X61031000Y-57440000D01*
X60951000Y-59520000D02*
X60951000Y-62369000D01*
X61831000Y-54987000D02*
X61831000Y-57440000D01*
X62631000Y-55613000D02*
X62631000Y-61347000D01*
X62231000Y-55260000D02*
X62231000Y-57440000D01*
X61431000Y-54776000D02*
X61431000Y-57440000D01*
X60110000Y-54419000D02*
X60110000Y-62541000D01*
X63551000Y-57027000D02*
X63551000Y-59933000D01*
X60471000Y-54470000D02*
X60471000Y-57440000D01*
X60751000Y-59520000D02*
X60751000Y-62427000D01*
X61751000Y-54940000D02*
X61751000Y-57440000D01*
X61871000Y-59520000D02*
X61871000Y-61949000D01*
X63111000Y-56193000D02*
X63111000Y-60767000D01*
X62071000Y-55142000D02*
X62071000Y-57440000D01*
X62031000Y-59520000D02*
X62031000Y-61845000D01*
X63391000Y-56667000D02*
X63391000Y-60293000D01*
X61471000Y-59520000D02*
X61471000Y-62166000D01*
X59950000Y-54406000D02*
X59950000Y-62554000D01*
X63511000Y-56928000D02*
X63511000Y-60032000D01*
X59710000Y-54400000D02*
X59710000Y-62560000D01*
X60270000Y-54438000D02*
X60270000Y-62522000D01*
X62391000Y-59520000D02*
X62391000Y-61570000D01*
X62471000Y-59520000D02*
X62471000Y-61499000D01*
X62711000Y-55696000D02*
X62711000Y-61264000D01*
X60150000Y-54423000D02*
X60150000Y-62537000D01*
X61391000Y-54758000D02*
X61391000Y-57440000D01*
X63031000Y-56080000D02*
X63031000Y-60880000D01*
X63191000Y-56314000D02*
X63191000Y-60646000D01*
X59790000Y-54400000D02*
X59790000Y-62560000D01*
X62311000Y-55324000D02*
X62311000Y-57440000D01*
X63271000Y-56446000D02*
X63271000Y-60514000D01*
X61631000Y-59520000D02*
X61631000Y-62086000D01*
X61511000Y-54814000D02*
X61511000Y-57440000D01*
X60671000Y-59520000D02*
X60671000Y-62447000D01*
X61991000Y-55088000D02*
X61991000Y-57440000D01*
X63151000Y-56252000D02*
X63151000Y-60708000D01*
X63830000Y-58480000D02*
G75*
G03*
X63830000Y-58480000I-4120000J0D01*
G01*
X105870000Y-46764000D02*
X105870000Y-46920000D01*
X105870000Y-49080000D02*
X105870000Y-49236000D01*
X106389039Y-49080000D02*
G75*
G03*
X108471130Y-49079837I1040961J1080000D01*
G01*
X105870000Y-49235516D02*
G75*
G03*
X109102335Y-49078608I1560000J1235517D01*
G01*
X108471130Y-46920163D02*
G75*
G03*
X106389039Y-46920000I-1041130J-1079837D01*
G01*
X109102335Y-46921392D02*
G75*
G03*
X105870000Y-46764484I-1672335J-1078609D01*
G01*
X62710000Y-106580000D02*
X62710000Y-106736000D01*
X62710000Y-104264000D02*
X62710000Y-104420000D01*
X63229039Y-106580000D02*
G75*
G03*
X65311130Y-106579837I1040961J1080000D01*
G01*
X62710000Y-106735516D02*
G75*
G03*
X65942335Y-106578608I1560000J1235517D01*
G01*
X65311130Y-104420163D02*
G75*
G03*
X63229039Y-104420000I-1041130J-1079837D01*
G01*
X65942335Y-104421392D02*
G75*
G03*
X62710000Y-104264484I-1672335J-1078609D01*
G01*
X60450000Y-90870000D02*
X68550000Y-90870000D01*
X68550000Y-103130000D02*
X68550000Y-90870000D01*
X68550000Y-103130000D02*
X60450000Y-103130000D01*
X60450000Y-103130000D02*
X60450000Y-90870000D01*
X110050000Y-62630000D02*
X101950000Y-62630000D01*
X101950000Y-50370000D02*
X110050000Y-50370000D01*
X110050000Y-62630000D02*
X110050000Y-50370000D01*
X101950000Y-62630000D02*
X101950000Y-50370000D01*
X110050000Y-75630000D02*
X101950000Y-75630000D01*
X101950000Y-63370000D02*
X110050000Y-63370000D01*
X110050000Y-75630000D02*
X110050000Y-63370000D01*
X101950000Y-75630000D02*
X101950000Y-63370000D01*
X110050000Y-103130000D02*
X110050000Y-90870000D01*
X110050000Y-103130000D02*
X101950000Y-103130000D01*
X101950000Y-90870000D02*
X110050000Y-90870000D01*
X101950000Y-103130000D02*
X101950000Y-90870000D01*
X68550000Y-130130000D02*
X60450000Y-130130000D01*
X60450000Y-117870000D02*
X68550000Y-117870000D01*
X68550000Y-130130000D02*
X68550000Y-117870000D01*
X60450000Y-130130000D02*
X60450000Y-117870000D01*
X70680000Y-112600000D02*
X71450000Y-112600000D01*
X78760000Y-112600000D02*
X77990000Y-112600000D01*
X77990000Y-111230000D02*
X71450000Y-111230000D01*
X71450000Y-111230000D02*
X71450000Y-113970000D01*
X77990000Y-113970000D02*
X77990000Y-111230000D01*
X71450000Y-113970000D02*
X77990000Y-113970000D01*
X98120000Y-115400000D02*
X95380000Y-115400000D01*
X95380000Y-115400000D02*
X95380000Y-121940000D01*
X96750000Y-114630000D02*
X96750000Y-115400000D01*
X95380000Y-121940000D02*
X98120000Y-121940000D01*
X96750000Y-122710000D02*
X96750000Y-121940000D01*
X98120000Y-121940000D02*
X98120000Y-115400000D01*
X78760000Y-115800000D02*
X77990000Y-115800000D01*
X70680000Y-115800000D02*
X71450000Y-115800000D01*
X71450000Y-117170000D02*
X77990000Y-117170000D01*
X77990000Y-117170000D02*
X77990000Y-114430000D01*
X77990000Y-114430000D02*
X71450000Y-114430000D01*
X71450000Y-114430000D02*
X71450000Y-117170000D01*
X70600000Y-57370000D02*
X67860000Y-57370000D01*
X67860000Y-63910000D02*
X70600000Y-63910000D01*
X67860000Y-57370000D02*
X67860000Y-63910000D01*
X70600000Y-63910000D02*
X70600000Y-57370000D01*
X69230000Y-64680000D02*
X69230000Y-63910000D01*
X69230000Y-56600000D02*
X69230000Y-57370000D01*
X100250000Y-75210000D02*
X100250000Y-74440000D01*
X100250000Y-67130000D02*
X100250000Y-67900000D01*
X101620000Y-74440000D02*
X101620000Y-67900000D01*
X98880000Y-74440000D02*
X101620000Y-74440000D01*
X98880000Y-67900000D02*
X98880000Y-74440000D01*
X101620000Y-67900000D02*
X98880000Y-67900000D01*
D13*
X91575000Y-105325000D02*
X90775000Y-105325000D01*
X79775000Y-105325000D02*
X78825000Y-105325000D01*
X90875000Y-91675000D02*
X91575000Y-91675000D01*
X91575000Y-104750000D02*
X91575000Y-105325000D01*
X91575000Y-91675000D02*
X91575000Y-92175000D01*
X79675000Y-91675000D02*
X78825000Y-91675000D01*
X78825000Y-105325000D02*
X78825000Y-104650000D01*
X78825000Y-91675000D02*
X78825000Y-92350000D01*
D14*
X63500000Y-116250000D02*
X65000000Y-116250000D01*
X65000000Y-109250000D02*
X63500000Y-109250000D01*
X67500000Y-115000000D02*
X67500000Y-110500000D01*
X61000000Y-110500000D02*
X61000000Y-115000000D01*
X88750000Y-85850000D02*
X90250000Y-85850000D01*
X86250000Y-80100000D02*
X86250000Y-84600000D01*
X90250000Y-78850000D02*
X88750000Y-78850000D01*
X92750000Y-84600000D02*
X92750000Y-80100000D01*
X76000000Y-84600000D02*
X76000000Y-80100000D01*
X73500000Y-78850000D02*
X72000000Y-78850000D01*
X69500000Y-80100000D02*
X69500000Y-84600000D01*
X72000000Y-85850000D02*
X73500000Y-85850000D01*
X77750000Y-80100000D02*
X77750000Y-84600000D01*
X80250000Y-85850000D02*
X81750000Y-85850000D01*
X81750000Y-78850000D02*
X80250000Y-78850000D01*
X84250000Y-84600000D02*
X84250000Y-80100000D01*
X94500000Y-80100000D02*
X94500000Y-84600000D01*
X101000000Y-84600000D02*
X101000000Y-80100000D01*
X98500000Y-78850000D02*
X97000000Y-78850000D01*
X97000000Y-85850000D02*
X98500000Y-85850000D01*
D11*
X71500000Y-146500000D02*
G75*
G03*
X71500000Y-146500000I-1750000J0D01*
G01*
D14*
X98160000Y-125420000D02*
X98160000Y-143320000D01*
X105950000Y-125360000D02*
X95670000Y-125360000D01*
X95670000Y-143380000D02*
X105950000Y-143380000D01*
X105950000Y-143380000D02*
X105950000Y-125360000D01*
X103460000Y-125420000D02*
X101810000Y-125420000D01*
X103460000Y-143320000D02*
X103460000Y-125420000D01*
X95670000Y-125360000D02*
X95670000Y-143380000D01*
X99810000Y-125420000D02*
X98160000Y-125420000D01*
X98160000Y-143320000D02*
X103460000Y-143320000D01*
X99810000Y-125420000D02*
G75*
G03*
X101810000Y-125420000I1000000J0D01*
G01*
X95500000Y-41000000D02*
X94000000Y-41000000D01*
X94000000Y-48000000D02*
X95500000Y-48000000D01*
X91500000Y-42250000D02*
X91500000Y-46750000D01*
X98000000Y-46750000D02*
X98000000Y-42250000D01*
X105870000Y-79080000D02*
X105870000Y-79236000D01*
X105870000Y-76764000D02*
X105870000Y-76920000D01*
X105870000Y-79235516D02*
G75*
G03*
X109102335Y-79078608I1560000J1235517D01*
G01*
X108471130Y-76920163D02*
G75*
G03*
X106389039Y-76920000I-1041130J-1079837D01*
G01*
X109102335Y-76921392D02*
G75*
G03*
X105870000Y-76764484I-1672335J-1078609D01*
G01*
X106389039Y-79080000D02*
G75*
G03*
X108471130Y-79079837I1040961J1080000D01*
G01*
D13*
X80140000Y-50000000D02*
X80140000Y-50500000D01*
X80140000Y-53000000D02*
X80640000Y-53000000D01*
X80140000Y-53000000D02*
X80140000Y-52500000D01*
X80140000Y-50000000D02*
X80640000Y-50000000D01*
D14*
X79000000Y-46750000D02*
X79000000Y-42250000D01*
X75000000Y-48000000D02*
X76500000Y-48000000D01*
X76500000Y-41000000D02*
X75000000Y-41000000D01*
X72500000Y-42250000D02*
X72500000Y-46750000D01*
X86760000Y-116036000D02*
X86760000Y-115880000D01*
X86760000Y-113720000D02*
X86760000Y-113564000D01*
X84158870Y-115879837D02*
G75*
G03*
X86240961Y-115880000I1041130J1079837D01*
G01*
X83527665Y-115878608D02*
G75*
G03*
X86760000Y-116035516I1672335J1078609D01*
G01*
X86760000Y-113564484D02*
G75*
G03*
X83527665Y-113721392I-1560000J-1235517D01*
G01*
X86240961Y-113720000D02*
G75*
G03*
X84158870Y-113720163I-1040961J-1080000D01*
G01*
X83130000Y-146350000D02*
X85870000Y-146350000D01*
X84500000Y-147120000D02*
X84500000Y-146350000D01*
X85870000Y-139810000D02*
X83130000Y-139810000D01*
X85870000Y-146350000D02*
X85870000Y-139810000D01*
X83130000Y-139810000D02*
X83130000Y-146350000D01*
X84500000Y-139040000D02*
X84500000Y-139810000D01*
X89030000Y-114750000D02*
X89030000Y-121290000D01*
X89030000Y-121290000D02*
X91770000Y-121290000D01*
X90400000Y-113980000D02*
X90400000Y-114750000D01*
X91770000Y-121290000D02*
X91770000Y-114750000D01*
X91770000Y-114750000D02*
X89030000Y-114750000D01*
X90400000Y-122060000D02*
X90400000Y-121290000D01*
X76610000Y-122370000D02*
X83150000Y-122370000D01*
X83920000Y-121000000D02*
X83150000Y-121000000D01*
X75840000Y-121000000D02*
X76610000Y-121000000D01*
X83150000Y-119630000D02*
X76610000Y-119630000D01*
X76610000Y-119630000D02*
X76610000Y-122370000D01*
X83150000Y-122370000D02*
X83150000Y-119630000D01*
X83190000Y-123330000D02*
X76650000Y-123330000D01*
X76650000Y-126070000D02*
X83190000Y-126070000D01*
X76650000Y-123330000D02*
X76650000Y-126070000D01*
X83190000Y-126070000D02*
X83190000Y-123330000D01*
X75880000Y-124700000D02*
X76650000Y-124700000D01*
X83960000Y-124700000D02*
X83190000Y-124700000D01*
X89030000Y-127050000D02*
X89030000Y-133590000D01*
X91770000Y-127050000D02*
X89030000Y-127050000D01*
X90400000Y-134360000D02*
X90400000Y-133590000D01*
X89030000Y-133590000D02*
X91770000Y-133590000D01*
X90400000Y-126280000D02*
X90400000Y-127050000D01*
X91770000Y-133590000D02*
X91770000Y-127050000D01*
X82870000Y-139800000D02*
X80130000Y-139800000D01*
X81500000Y-147110000D02*
X81500000Y-146340000D01*
X82870000Y-146340000D02*
X82870000Y-139800000D01*
X80130000Y-139800000D02*
X80130000Y-146340000D01*
X80130000Y-146340000D02*
X82870000Y-146340000D01*
X81500000Y-139030000D02*
X81500000Y-139800000D01*
X77130000Y-146350000D02*
X79870000Y-146350000D01*
X77130000Y-139810000D02*
X77130000Y-146350000D01*
X78500000Y-147120000D02*
X78500000Y-146350000D01*
X78500000Y-139040000D02*
X78500000Y-139810000D01*
X79870000Y-146350000D02*
X79870000Y-139810000D01*
X79870000Y-139810000D02*
X77130000Y-139810000D01*
X58880000Y-141970000D02*
X58880000Y-132030000D01*
X71120000Y-136129000D02*
X71120000Y-135370000D01*
X71120000Y-141970000D02*
X71120000Y-140371000D01*
X71120000Y-133630000D02*
X71120000Y-132030000D01*
X71120000Y-138629000D02*
X71120000Y-137870000D01*
X71120000Y-141970000D02*
X67255000Y-141970000D01*
X62745000Y-141970000D02*
X58880000Y-141970000D01*
X71120000Y-132030000D02*
X67255000Y-132030000D01*
X62745000Y-132030000D02*
X58880000Y-132030000D01*
X86180000Y-139810000D02*
X86180000Y-146350000D01*
X87550000Y-147120000D02*
X87550000Y-146350000D01*
X88920000Y-139810000D02*
X86180000Y-139810000D01*
X88920000Y-146350000D02*
X88920000Y-139810000D01*
X86180000Y-146350000D02*
X88920000Y-146350000D01*
X87550000Y-139040000D02*
X87550000Y-139810000D01*
X77960000Y-88700000D02*
X77190000Y-88700000D01*
X70650000Y-90070000D02*
X77190000Y-90070000D01*
X69880000Y-88700000D02*
X70650000Y-88700000D01*
X77190000Y-87330000D02*
X70650000Y-87330000D01*
X70650000Y-87330000D02*
X70650000Y-90070000D01*
X77190000Y-90070000D02*
X77190000Y-87330000D01*
X111130000Y-62690000D02*
X113870000Y-62690000D01*
X111130000Y-56150000D02*
X111130000Y-62690000D01*
X112500000Y-55380000D02*
X112500000Y-56150000D01*
X113870000Y-56150000D02*
X111130000Y-56150000D01*
X112500000Y-63460000D02*
X112500000Y-62690000D01*
X113870000Y-62690000D02*
X113870000Y-56150000D01*
X113230000Y-120460000D02*
X113230000Y-119810000D01*
X112110000Y-119090000D02*
X114350000Y-119090000D01*
X114350000Y-115570000D02*
X112110000Y-115570000D01*
X112110000Y-115570000D02*
X112110000Y-119810000D01*
X112110000Y-118970000D02*
X114350000Y-118970000D01*
X112110000Y-119810000D02*
X114350000Y-119810000D01*
X112110000Y-119210000D02*
X114350000Y-119210000D01*
X114350000Y-119810000D02*
X114350000Y-115570000D01*
X113230000Y-114920000D02*
X113230000Y-115570000D01*
X95570000Y-146380000D02*
X95570000Y-148620000D01*
X99810000Y-146380000D02*
X95570000Y-146380000D01*
X95570000Y-148620000D02*
X99810000Y-148620000D01*
X99210000Y-148620000D02*
X99210000Y-146380000D01*
X100460000Y-147500000D02*
X99810000Y-147500000D01*
X99810000Y-148620000D02*
X99810000Y-146380000D01*
X98970000Y-148620000D02*
X98970000Y-146380000D01*
X99090000Y-148620000D02*
X99090000Y-146380000D01*
X94920000Y-147500000D02*
X95570000Y-147500000D01*
D13*
X88960000Y-64010000D02*
X88660000Y-63860000D01*
X88960000Y-64010000D02*
X88960000Y-64310000D01*
X88960000Y-68710000D02*
X88660000Y-68860000D01*
X88960000Y-68410000D02*
X88960000Y-68710000D01*
D11*
X85810000Y-64410000D02*
G75*
G03*
X85760000Y-68260000I1900000J-1950000D01*
G01*
D13*
X92700000Y-61350000D02*
X92400000Y-61350000D01*
X92700000Y-61350000D02*
X92850000Y-61050000D01*
X88300000Y-61350000D02*
X88000000Y-61350000D01*
X88000000Y-61350000D02*
X87850000Y-61050000D01*
D11*
X92300000Y-58200000D02*
G75*
G03*
X88450000Y-58150000I-1950000J-1900000D01*
G01*
D14*
X78770000Y-71776000D02*
X78000000Y-71776000D01*
X78000000Y-73146000D02*
X78000000Y-70406000D01*
X71460000Y-73146000D02*
X78000000Y-73146000D01*
X70690000Y-71776000D02*
X71460000Y-71776000D01*
X78000000Y-70406000D02*
X71460000Y-70406000D01*
X71460000Y-70406000D02*
X71460000Y-73146000D01*
X70980000Y-68670000D02*
X71050000Y-68670000D01*
X70980000Y-68670000D02*
G75*
G03*
X70980000Y-68670000I-1370000J0D01*
G01*
X83250000Y-67300000D02*
X83250000Y-67230000D01*
X84620000Y-68670000D02*
G75*
G03*
X84620000Y-68670000I-1370000J0D01*
G01*
X91380000Y-63250000D02*
X92150000Y-63250000D01*
X98690000Y-61880000D02*
X92150000Y-61880000D01*
X99460000Y-63250000D02*
X98690000Y-63250000D01*
X92150000Y-61880000D02*
X92150000Y-64620000D01*
X98690000Y-64620000D02*
X98690000Y-61880000D01*
X92150000Y-64620000D02*
X98690000Y-64620000D01*
X58310000Y-90460000D02*
X62810000Y-90460000D01*
X62810000Y-90460000D02*
X62810000Y-80180000D01*
X62810000Y-80180000D02*
X61560000Y-80180000D01*
X55310000Y-90520000D02*
X65810000Y-90520000D01*
X65810000Y-90520000D02*
X65810000Y-80120000D01*
X59560000Y-80180000D02*
X58310000Y-80180000D01*
X65810000Y-80120000D02*
X55310000Y-80120000D01*
X55310000Y-80120000D02*
X55310000Y-90520000D01*
X58310000Y-80180000D02*
X58310000Y-90460000D01*
X59560000Y-80180000D02*
G75*
G03*
X61560000Y-80180000I1000000J0D01*
G01*
X114206000Y-130538000D02*
X114206000Y-126298000D01*
X113086000Y-125648000D02*
X113086000Y-126298000D01*
X114206000Y-126898000D02*
X111966000Y-126898000D01*
X114206000Y-127138000D02*
X111966000Y-127138000D01*
X113086000Y-131188000D02*
X113086000Y-130538000D01*
X111966000Y-126298000D02*
X111966000Y-130538000D01*
X114206000Y-126298000D02*
X111966000Y-126298000D01*
X111966000Y-130538000D02*
X114206000Y-130538000D01*
X114206000Y-127018000D02*
X111966000Y-127018000D01*
X114206000Y-136458000D02*
X111966000Y-136458000D01*
X114206000Y-140698000D02*
X114206000Y-136458000D01*
X113086000Y-141348000D02*
X113086000Y-140698000D01*
X114206000Y-137298000D02*
X111966000Y-137298000D01*
X111966000Y-136458000D02*
X111966000Y-140698000D01*
X114206000Y-137058000D02*
X111966000Y-137058000D01*
X113086000Y-135808000D02*
X113086000Y-136458000D01*
X111966000Y-140698000D02*
X114206000Y-140698000D01*
X114206000Y-137178000D02*
X111966000Y-137178000D01*
X75930000Y-97080000D02*
X75930000Y-97730000D01*
X74810000Y-101970000D02*
X77050000Y-101970000D01*
X74810000Y-97730000D02*
X74810000Y-101970000D01*
X77050000Y-97730000D02*
X74810000Y-97730000D01*
X77050000Y-98450000D02*
X74810000Y-98450000D01*
X77050000Y-101970000D02*
X77050000Y-97730000D01*
X77050000Y-98330000D02*
X74810000Y-98330000D01*
X77050000Y-98570000D02*
X74810000Y-98570000D01*
X75930000Y-102620000D02*
X75930000Y-101970000D01*
X69390000Y-106040000D02*
X70040000Y-106040000D01*
X74930000Y-106040000D02*
X74280000Y-106040000D01*
X73440000Y-107160000D02*
X73440000Y-104920000D01*
X74280000Y-107160000D02*
X74280000Y-104920000D01*
X73560000Y-107160000D02*
X73560000Y-104920000D01*
X70040000Y-107160000D02*
X74280000Y-107160000D01*
X70040000Y-104920000D02*
X70040000Y-107160000D01*
X74280000Y-104920000D02*
X70040000Y-104920000D01*
X73680000Y-107160000D02*
X73680000Y-104920000D01*
X112110000Y-105670000D02*
X112110000Y-109910000D01*
X113230000Y-110560000D02*
X113230000Y-109910000D01*
X114350000Y-106270000D02*
X112110000Y-106270000D01*
X114350000Y-106390000D02*
X112110000Y-106390000D01*
X114350000Y-105670000D02*
X112110000Y-105670000D01*
X113230000Y-105020000D02*
X113230000Y-105670000D01*
X112110000Y-109910000D02*
X114350000Y-109910000D01*
X114350000Y-106510000D02*
X112110000Y-106510000D01*
X114350000Y-109910000D02*
X114350000Y-105670000D01*
X92950000Y-87330000D02*
X86410000Y-87330000D01*
X86410000Y-87330000D02*
X86410000Y-90070000D01*
X85640000Y-88700000D02*
X86410000Y-88700000D01*
X92950000Y-90070000D02*
X92950000Y-87330000D01*
X86410000Y-90070000D02*
X92950000Y-90070000D01*
X93720000Y-88700000D02*
X92950000Y-88700000D01*
D13*
X59350000Y-102424999D02*
X59350000Y-102724999D01*
X59350000Y-106824999D02*
X59350000Y-107124999D01*
X59350000Y-102424999D02*
X59050000Y-102274999D01*
X59350000Y-107124999D02*
X59050000Y-107274999D01*
D11*
X56200000Y-102824999D02*
G75*
G03*
X56150000Y-106674999I1900000J-1950000D01*
G01*
D14*
X59085000Y-109962712D02*
X59085000Y-110412712D01*
X59310000Y-110187712D02*
X58860000Y-110187712D01*
X58810000Y-114619741D02*
G75*
G03*
X58810000Y-110380259I-1060001J2119741D01*
G01*
X56690000Y-110380259D02*
G75*
G03*
X56690000Y-114619741I1060001J-2119741D01*
G01*
X56190000Y-99562288D02*
X56640000Y-99562288D01*
X56415000Y-99787288D02*
X56415000Y-99337288D01*
X56690000Y-95130259D02*
G75*
G03*
X56690000Y-99369741I1060001J-2119741D01*
G01*
X58810000Y-99369741D02*
G75*
G03*
X58810000Y-95130259I-1060001J2119741D01*
G01*
X74130000Y-146350000D02*
X76870000Y-146350000D01*
X75500000Y-147120000D02*
X75500000Y-146350000D01*
X74130000Y-139810000D02*
X74130000Y-146350000D01*
X75500000Y-139040000D02*
X75500000Y-139810000D01*
X76870000Y-146350000D02*
X76870000Y-139810000D01*
X76870000Y-139810000D02*
X74130000Y-139810000D01*
D13*
X94400000Y-67300000D02*
X94400000Y-67000000D01*
X94400000Y-71700000D02*
X94400000Y-71400000D01*
X94400000Y-67000000D02*
X94700000Y-66850000D01*
X94400000Y-71700000D02*
X94700000Y-71850000D01*
D11*
X97550000Y-71300000D02*
G75*
G03*
X97600000Y-67450000I-1900000J1950000D01*
G01*
D13*
X95500000Y-61350000D02*
X95350000Y-61050000D01*
X100200000Y-61350000D02*
X99900000Y-61350000D01*
X95800000Y-61350000D02*
X95500000Y-61350000D01*
X100200000Y-61350000D02*
X100350000Y-61050000D01*
D11*
X99800000Y-58200000D02*
G75*
G03*
X95950000Y-58150000I-1950000J-1900000D01*
G01*
D14*
X91525000Y-54870000D02*
X91595000Y-54870000D01*
X91525000Y-54870000D02*
G75*
G03*
X91525000Y-54870000I-1370000J0D01*
G01*
D13*
X89650000Y-67000000D02*
X89950000Y-66850000D01*
X89650000Y-71700000D02*
X89950000Y-71850000D01*
X89650000Y-67300000D02*
X89650000Y-67000000D01*
X89650000Y-71700000D02*
X89650000Y-71400000D01*
D11*
X92800000Y-71300000D02*
G75*
G03*
X92850000Y-67450000I-1900000J1950000D01*
G01*
D13*
X100200000Y-56850000D02*
X100350000Y-56550000D01*
X95800000Y-56850000D02*
X95500000Y-56850000D01*
X95500000Y-56850000D02*
X95350000Y-56550000D01*
X100200000Y-56850000D02*
X99900000Y-56850000D01*
D11*
X99800000Y-53700000D02*
G75*
G03*
X95950000Y-53650000I-1950000J-1900000D01*
G01*
D14*
X112650000Y-50960000D02*
X112650000Y-50190000D01*
X112650000Y-42880000D02*
X112650000Y-43650000D01*
X114020000Y-43650000D02*
X111280000Y-43650000D01*
X114020000Y-50190000D02*
X114020000Y-43650000D01*
X111280000Y-50190000D02*
X114020000Y-50190000D01*
X111280000Y-43650000D02*
X111280000Y-50190000D01*
X71620000Y-120810000D02*
X68880000Y-120810000D01*
X70250000Y-120040000D02*
X70250000Y-120810000D01*
X68880000Y-120810000D02*
X68880000Y-127350000D01*
X71620000Y-127350000D02*
X71620000Y-120810000D01*
X68880000Y-127350000D02*
X71620000Y-127350000D01*
X70250000Y-128120000D02*
X70250000Y-127350000D01*
X67490000Y-76950000D02*
X67490000Y-70410000D01*
X64750000Y-70410000D02*
X64750000Y-76950000D01*
X64750000Y-76950000D02*
X67490000Y-76950000D01*
X66120000Y-77720000D02*
X66120000Y-76950000D01*
X67490000Y-70410000D02*
X64750000Y-70410000D01*
X66120000Y-69640000D02*
X66120000Y-70410000D01*
X64780000Y-57380000D02*
X64780000Y-63920000D01*
X67520000Y-63920000D02*
X67520000Y-57380000D01*
X67520000Y-57380000D02*
X64780000Y-57380000D01*
X64780000Y-63920000D02*
X67520000Y-63920000D01*
X66150000Y-64690000D02*
X66150000Y-63920000D01*
X66150000Y-56610000D02*
X66150000Y-57380000D01*
X61730000Y-66474000D02*
X61730000Y-73014000D01*
X61730000Y-73014000D02*
X64470000Y-73014000D01*
X63100000Y-73784000D02*
X63100000Y-73014000D01*
X64470000Y-73014000D02*
X64470000Y-66474000D01*
X63100000Y-65704000D02*
X63100000Y-66474000D01*
X64470000Y-66474000D02*
X61730000Y-66474000D01*
X58326000Y-141538000D02*
X56086000Y-141538000D01*
X56086000Y-141538000D02*
X56086000Y-145778000D01*
X57206000Y-140888000D02*
X57206000Y-141538000D01*
X57206000Y-146428000D02*
X57206000Y-145778000D01*
X58326000Y-142258000D02*
X56086000Y-142258000D01*
X58326000Y-145778000D02*
X58326000Y-141538000D01*
X56086000Y-145778000D02*
X58326000Y-145778000D01*
X58326000Y-142138000D02*
X56086000Y-142138000D01*
X58326000Y-142378000D02*
X56086000Y-142378000D01*
X58326000Y-131978000D02*
X56086000Y-131978000D01*
X56086000Y-135618000D02*
X58326000Y-135618000D01*
X58326000Y-135618000D02*
X58326000Y-131378000D01*
X58326000Y-132218000D02*
X56086000Y-132218000D01*
X58326000Y-132098000D02*
X56086000Y-132098000D01*
X57206000Y-136268000D02*
X57206000Y-135618000D01*
X58326000Y-131378000D02*
X56086000Y-131378000D01*
X56086000Y-131378000D02*
X56086000Y-135618000D01*
X57206000Y-130728000D02*
X57206000Y-131378000D01*
X73600000Y-98722000D02*
X73600000Y-95122000D01*
X70651193Y-94565600D02*
G75*
G03*
X69150000Y-96922000I1098804J-2356399D01*
G01*
X73600000Y-95122000D02*
G75*
G03*
X72872795Y-94597816I-1849994J-1799991D01*
G01*
X69150000Y-96922000D02*
G75*
G03*
X70651193Y-99278400I2600002J2D01*
G01*
X72872795Y-99246184D02*
G75*
G03*
X73600000Y-98722000I-1122789J2324175D01*
G01*
X66369000Y-86151200D02*
X66054000Y-86151200D01*
X66369000Y-80911200D02*
X66054000Y-80911200D01*
X66054000Y-80911200D02*
X66054000Y-86151200D01*
X68794000Y-80911200D02*
X68794000Y-86151200D01*
X68794000Y-86151200D02*
X68479000Y-86151200D01*
X68794000Y-80911200D02*
X68479000Y-80911200D01*
X66406371Y-52704315D02*
G75*
G03*
X66406371Y-52704315I-1326371J0D01*
G01*
X65080000Y-51377944D02*
X65080000Y-51264315D01*
D13*
X104900000Y-110425000D02*
X105200000Y-110575000D01*
X104900000Y-110425000D02*
X104900000Y-110125000D01*
X104900000Y-105725000D02*
X105200000Y-105575000D01*
X104900000Y-106025000D02*
X104900000Y-105725000D01*
D11*
X108050000Y-110025000D02*
G75*
G03*
X108100000Y-106175000I-1900000J1950000D01*
G01*
D14*
X98430000Y-116620000D02*
X101170000Y-116620000D01*
X99800000Y-117390000D02*
X99800000Y-116620000D01*
X98430000Y-110080000D02*
X98430000Y-116620000D01*
X101170000Y-110080000D02*
X98430000Y-110080000D01*
X101170000Y-116620000D02*
X101170000Y-110080000D01*
X99800000Y-109310000D02*
X99800000Y-110080000D01*
X112500000Y-76110000D02*
X112500000Y-75340000D01*
X113870000Y-75340000D02*
X113870000Y-68800000D01*
X111130000Y-75340000D02*
X113870000Y-75340000D01*
X113870000Y-68800000D02*
X111130000Y-68800000D01*
X112500000Y-68030000D02*
X112500000Y-68800000D01*
X111130000Y-68800000D02*
X111130000Y-75340000D01*
X56830000Y-42513629D02*
X56830000Y-42400000D01*
X58156371Y-43840000D02*
G75*
G03*
X58156371Y-43840000I-1326371J0D01*
G01*
X95380000Y-99630000D02*
X95380000Y-106170000D01*
X98120000Y-99630000D02*
X95380000Y-99630000D01*
X98120000Y-106170000D02*
X98120000Y-99630000D01*
X95380000Y-106170000D02*
X98120000Y-106170000D01*
X96750000Y-98860000D02*
X96750000Y-99630000D01*
X96750000Y-106940000D02*
X96750000Y-106170000D01*
M02*
