%TF.GenerationSoftware,KiCad,Pcbnew,(6.0.1)*%
%TF.CreationDate,2022-11-26T13:10:33-08:00*%
%TF.ProjectId,Spankulator,5370616e-6b75-46c6-9174-6f722e6b6963,4.4*%
%TF.SameCoordinates,Original*%
%TF.FileFunction,Legend,Bot*%
%TF.FilePolarity,Positive*%
%FSLAX46Y46*%
G04 Gerber Fmt 4.6, Leading zero omitted, Abs format (unit mm)*
G04 Created by KiCad (PCBNEW (6.0.1)) date 2022-11-26 13:10:33*
%MOMM*%
%LPD*%
G01*
G04 APERTURE LIST*
%ADD10C,0.100000*%
%ADD11C,0.120000*%
%ADD12C,0.300000*%
%ADD13C,0.250000*%
%ADD14C,0.150000*%
G04 APERTURE END LIST*
D10*
X73700000Y-141000000D02*
X73700000Y-145000000D01*
X73700000Y-145000000D02*
X83010000Y-145000000D01*
X83010000Y-145000000D02*
X83010000Y-141000000D01*
X83010000Y-141000000D02*
X73700000Y-141000000D01*
G36*
X83010000Y-145000000D02*
G01*
X73700000Y-145000000D01*
X73700000Y-141000000D01*
X83010000Y-141000000D01*
X83010000Y-145000000D01*
G37*
X83010000Y-145000000D02*
X73700000Y-145000000D01*
X73700000Y-141000000D01*
X83010000Y-141000000D01*
X83010000Y-145000000D01*
X72895462Y-55175248D02*
X72899462Y-55990248D01*
X72899462Y-55990248D02*
X71950000Y-55990000D01*
X71950000Y-55990000D02*
X71956000Y-55175000D01*
X71956000Y-55175000D02*
X72895462Y-55175248D01*
G36*
X72895462Y-55175248D02*
G01*
X72899462Y-55990248D01*
X71950000Y-55990000D01*
X71956000Y-55175000D01*
X72895462Y-55175248D01*
G37*
X72895462Y-55175248D02*
X72899462Y-55990248D01*
X71950000Y-55990000D01*
X71956000Y-55175000D01*
X72895462Y-55175248D01*
X66825000Y-53495000D02*
X72225000Y-53495000D01*
X72225000Y-53495000D02*
X72225000Y-54525000D01*
X72225000Y-54525000D02*
X66825000Y-54525000D01*
X66825000Y-54525000D02*
X66825000Y-53495000D01*
G36*
X72225000Y-54525000D02*
G01*
X66825000Y-54525000D01*
X66825000Y-53495000D01*
X72225000Y-53495000D01*
X72225000Y-54525000D01*
G37*
X72225000Y-54525000D02*
X66825000Y-54525000D01*
X66825000Y-53495000D01*
X72225000Y-53495000D01*
X72225000Y-54525000D01*
D11*
X105200000Y-100400000D02*
X105200000Y-104000000D01*
X105200000Y-104000000D02*
X96700000Y-103900000D01*
X96700000Y-103900000D02*
X96700000Y-100400000D01*
D10*
X88595000Y-71294000D02*
X89410000Y-71290000D01*
X89410000Y-71290000D02*
X89410000Y-72290000D01*
X89410000Y-72290000D02*
X88595000Y-72284000D01*
X88595000Y-72284000D02*
X88595000Y-71294000D01*
G36*
X89410000Y-72290000D02*
G01*
X88595000Y-72284000D01*
X88595000Y-71294000D01*
X89410000Y-71290000D01*
X89410000Y-72290000D01*
G37*
X89410000Y-72290000D02*
X88595000Y-72284000D01*
X88595000Y-71294000D01*
X89410000Y-71290000D01*
X89410000Y-72290000D01*
X56520000Y-76530000D02*
X61920000Y-76530000D01*
X61920000Y-76530000D02*
X61920000Y-77930000D01*
X61920000Y-77930000D02*
X56520000Y-77930000D01*
X56520000Y-77930000D02*
X56520000Y-76530000D01*
G36*
X61920000Y-77930000D02*
G01*
X56520000Y-77930000D01*
X56520000Y-76530000D01*
X61920000Y-76530000D01*
X61920000Y-77930000D01*
G37*
X61920000Y-77930000D02*
X56520000Y-77930000D01*
X56520000Y-76530000D01*
X61920000Y-76530000D01*
X61920000Y-77930000D01*
D12*
X63878571Y-66235714D02*
X62378571Y-66235714D01*
X62378571Y-66807142D01*
X62450000Y-66950000D01*
X62521428Y-67021428D01*
X62664285Y-67092857D01*
X62878571Y-67092857D01*
X63021428Y-67021428D01*
X63092857Y-66950000D01*
X63164285Y-66807142D01*
X63164285Y-66235714D01*
X62378571Y-68021428D02*
X62378571Y-68307142D01*
X62450000Y-68450000D01*
X62592857Y-68592857D01*
X62878571Y-68664285D01*
X63378571Y-68664285D01*
X63664285Y-68592857D01*
X63807142Y-68450000D01*
X63878571Y-68307142D01*
X63878571Y-68021428D01*
X63807142Y-67878571D01*
X63664285Y-67735714D01*
X63378571Y-67664285D01*
X62878571Y-67664285D01*
X62592857Y-67735714D01*
X62450000Y-67878571D01*
X62378571Y-68021428D01*
X62378571Y-69164285D02*
X63878571Y-69521428D01*
X62807142Y-69807142D01*
X63878571Y-70092857D01*
X62378571Y-70450000D01*
X63092857Y-71021428D02*
X63092857Y-71521428D01*
X63878571Y-71735714D02*
X63878571Y-71021428D01*
X62378571Y-71021428D01*
X62378571Y-71735714D01*
X63878571Y-73235714D02*
X63164285Y-72735714D01*
X63878571Y-72378571D02*
X62378571Y-72378571D01*
X62378571Y-72950000D01*
X62450000Y-73092857D01*
X62521428Y-73164285D01*
X62664285Y-73235714D01*
X62878571Y-73235714D01*
X63021428Y-73164285D01*
X63092857Y-73092857D01*
X63164285Y-72950000D01*
X63164285Y-72378571D01*
X87273809Y-142771428D02*
X87273809Y-144104761D01*
X87750000Y-142009523D02*
X88226190Y-143438095D01*
X86988095Y-143438095D01*
X86226190Y-143914285D02*
X86130952Y-144009523D01*
X86226190Y-144104761D01*
X86321428Y-144009523D01*
X86226190Y-143914285D01*
X86226190Y-144104761D01*
X84416666Y-142771428D02*
X84416666Y-144104761D01*
X84892857Y-142009523D02*
X85369047Y-143438095D01*
X84130952Y-143438095D01*
X83369047Y-143914285D02*
X83273809Y-144009523D01*
X83369047Y-144104761D01*
X83464285Y-144009523D01*
X83369047Y-143914285D01*
X83369047Y-144104761D01*
X77522857Y-49470000D02*
X77665714Y-49398571D01*
X77880000Y-49398571D01*
X78094285Y-49470000D01*
X78237142Y-49612857D01*
X78308571Y-49755714D01*
X78380000Y-50041428D01*
X78380000Y-50255714D01*
X78308571Y-50541428D01*
X78237142Y-50684285D01*
X78094285Y-50827142D01*
X77880000Y-50898571D01*
X77737142Y-50898571D01*
X77522857Y-50827142D01*
X77451428Y-50755714D01*
X77451428Y-50255714D01*
X77737142Y-50255714D01*
X76880000Y-50470000D02*
X76165714Y-50470000D01*
X77022857Y-50898571D02*
X76522857Y-49398571D01*
X76022857Y-50898571D01*
X75522857Y-50898571D02*
X75522857Y-49398571D01*
X74808571Y-50898571D02*
X74808571Y-49398571D01*
X73951428Y-50898571D01*
X73951428Y-49398571D01*
X102901714Y-96757142D02*
X102901714Y-99185714D01*
X102758857Y-99471428D01*
X102616000Y-99614285D01*
X102330285Y-99757142D01*
X101758857Y-99757142D01*
X101473142Y-99614285D01*
X101330285Y-99471428D01*
X101187428Y-99185714D01*
X101187428Y-96757142D01*
X99901714Y-99614285D02*
X99473142Y-99757142D01*
X98758857Y-99757142D01*
X98473142Y-99614285D01*
X98330285Y-99471428D01*
X98187428Y-99185714D01*
X98187428Y-98900000D01*
X98330285Y-98614285D01*
X98473142Y-98471428D01*
X98758857Y-98328571D01*
X99330285Y-98185714D01*
X99616000Y-98042857D01*
X99758857Y-97900000D01*
X99901714Y-97614285D01*
X99901714Y-97328571D01*
X99758857Y-97042857D01*
X99616000Y-96900000D01*
X99330285Y-96757142D01*
X98616000Y-96757142D01*
X98187428Y-96900000D01*
X95901714Y-98185714D02*
X95473142Y-98328571D01*
X95330285Y-98471428D01*
X95187428Y-98757142D01*
X95187428Y-99185714D01*
X95330285Y-99471428D01*
X95473142Y-99614285D01*
X95758857Y-99757142D01*
X96901714Y-99757142D01*
X96901714Y-96757142D01*
X95901714Y-96757142D01*
X95616000Y-96900000D01*
X95473142Y-97042857D01*
X95330285Y-97328571D01*
X95330285Y-97614285D01*
X95473142Y-97900000D01*
X95616000Y-98042857D01*
X95901714Y-98185714D01*
X96901714Y-98185714D01*
D13*
X98367023Y-43734761D02*
X97224166Y-43734761D01*
X97795595Y-45734761D02*
X97795595Y-43734761D01*
X96557500Y-45734761D02*
X96557500Y-43734761D01*
X95700357Y-45734761D02*
X95700357Y-44687142D01*
X95795595Y-44496666D01*
X95986071Y-44401428D01*
X96271785Y-44401428D01*
X96462261Y-44496666D01*
X96557500Y-44591904D01*
X93986071Y-45639523D02*
X94176547Y-45734761D01*
X94557500Y-45734761D01*
X94747976Y-45639523D01*
X94843214Y-45449047D01*
X94843214Y-44687142D01*
X94747976Y-44496666D01*
X94557500Y-44401428D01*
X94176547Y-44401428D01*
X93986071Y-44496666D01*
X93890833Y-44687142D01*
X93890833Y-44877619D01*
X94843214Y-45068095D01*
X91605119Y-45639523D02*
X91319404Y-45734761D01*
X90843214Y-45734761D01*
X90652738Y-45639523D01*
X90557500Y-45544285D01*
X90462261Y-45353809D01*
X90462261Y-45163333D01*
X90557500Y-44972857D01*
X90652738Y-44877619D01*
X90843214Y-44782380D01*
X91224166Y-44687142D01*
X91414642Y-44591904D01*
X91509880Y-44496666D01*
X91605119Y-44306190D01*
X91605119Y-44115714D01*
X91509880Y-43925238D01*
X91414642Y-43830000D01*
X91224166Y-43734761D01*
X90747976Y-43734761D01*
X90462261Y-43830000D01*
X89605119Y-44401428D02*
X89605119Y-46401428D01*
X89605119Y-44496666D02*
X89414642Y-44401428D01*
X89033690Y-44401428D01*
X88843214Y-44496666D01*
X88747976Y-44591904D01*
X88652738Y-44782380D01*
X88652738Y-45353809D01*
X88747976Y-45544285D01*
X88843214Y-45639523D01*
X89033690Y-45734761D01*
X89414642Y-45734761D01*
X89605119Y-45639523D01*
X86938452Y-45734761D02*
X86938452Y-44687142D01*
X87033690Y-44496666D01*
X87224166Y-44401428D01*
X87605119Y-44401428D01*
X87795595Y-44496666D01*
X86938452Y-45639523D02*
X87128928Y-45734761D01*
X87605119Y-45734761D01*
X87795595Y-45639523D01*
X87890833Y-45449047D01*
X87890833Y-45258571D01*
X87795595Y-45068095D01*
X87605119Y-44972857D01*
X87128928Y-44972857D01*
X86938452Y-44877619D01*
X85986071Y-44401428D02*
X85986071Y-45734761D01*
X85986071Y-44591904D02*
X85890833Y-44496666D01*
X85700357Y-44401428D01*
X85414642Y-44401428D01*
X85224166Y-44496666D01*
X85128928Y-44687142D01*
X85128928Y-45734761D01*
X84176547Y-45734761D02*
X84176547Y-43734761D01*
X83986071Y-44972857D02*
X83414642Y-45734761D01*
X83414642Y-44401428D02*
X84176547Y-45163333D01*
X81700357Y-44401428D02*
X81700357Y-45734761D01*
X82557500Y-44401428D02*
X82557500Y-45449047D01*
X82462261Y-45639523D01*
X82271785Y-45734761D01*
X81986071Y-45734761D01*
X81795595Y-45639523D01*
X81700357Y-45544285D01*
X80462261Y-45734761D02*
X80652738Y-45639523D01*
X80747976Y-45449047D01*
X80747976Y-43734761D01*
X78843214Y-45734761D02*
X78843214Y-44687142D01*
X78938452Y-44496666D01*
X79128928Y-44401428D01*
X79509880Y-44401428D01*
X79700357Y-44496666D01*
X78843214Y-45639523D02*
X79033690Y-45734761D01*
X79509880Y-45734761D01*
X79700357Y-45639523D01*
X79795595Y-45449047D01*
X79795595Y-45258571D01*
X79700357Y-45068095D01*
X79509880Y-44972857D01*
X79033690Y-44972857D01*
X78843214Y-44877619D01*
X78176547Y-44401428D02*
X77414642Y-44401428D01*
X77890833Y-43734761D02*
X77890833Y-45449047D01*
X77795595Y-45639523D01*
X77605119Y-45734761D01*
X77414642Y-45734761D01*
X76462261Y-45734761D02*
X76652738Y-45639523D01*
X76747976Y-45544285D01*
X76843214Y-45353809D01*
X76843214Y-44782380D01*
X76747976Y-44591904D01*
X76652738Y-44496666D01*
X76462261Y-44401428D01*
X76176547Y-44401428D01*
X75986071Y-44496666D01*
X75890833Y-44591904D01*
X75795595Y-44782380D01*
X75795595Y-45353809D01*
X75890833Y-45544285D01*
X75986071Y-45639523D01*
X76176547Y-45734761D01*
X76462261Y-45734761D01*
X74938452Y-45734761D02*
X74938452Y-44401428D01*
X74938452Y-44782380D02*
X74843214Y-44591904D01*
X74747976Y-44496666D01*
X74557500Y-44401428D01*
X74367023Y-44401428D01*
D12*
X84792857Y-47528571D02*
X84435714Y-48528571D01*
X84078571Y-47528571D01*
X82864285Y-47528571D02*
X82864285Y-48528571D01*
X83221428Y-46957142D02*
X83578571Y-48028571D01*
X82650000Y-48028571D01*
X82078571Y-48385714D02*
X82007142Y-48457142D01*
X82078571Y-48528571D01*
X82150000Y-48457142D01*
X82078571Y-48385714D01*
X82078571Y-48528571D01*
X80721428Y-47528571D02*
X80721428Y-48528571D01*
X81078571Y-46957142D02*
X81435714Y-48028571D01*
X80507142Y-48028571D01*
X66035714Y-46392857D02*
X65535714Y-46392857D01*
X65321428Y-47178571D02*
X66035714Y-47178571D01*
X66035714Y-45678571D01*
X65321428Y-45678571D01*
X64821428Y-45678571D02*
X63821428Y-47178571D01*
X63821428Y-45678571D02*
X64821428Y-47178571D01*
X63250000Y-47178571D02*
X63250000Y-45678571D01*
X62678571Y-45678571D01*
X62535714Y-45750000D01*
X62464285Y-45821428D01*
X62392857Y-45964285D01*
X62392857Y-46178571D01*
X62464285Y-46321428D01*
X62535714Y-46392857D01*
X62678571Y-46464285D01*
X63250000Y-46464285D01*
X88642857Y-75678571D02*
X88357142Y-75678571D01*
X88214285Y-75750000D01*
X88071428Y-75892857D01*
X88000000Y-76178571D01*
X88000000Y-76678571D01*
X88071428Y-76964285D01*
X88214285Y-77107142D01*
X88357142Y-77178571D01*
X88642857Y-77178571D01*
X88785714Y-77107142D01*
X88928571Y-76964285D01*
X89000000Y-76678571D01*
X89000000Y-76178571D01*
X88928571Y-75892857D01*
X88785714Y-75750000D01*
X88642857Y-75678571D01*
X86857142Y-76392857D02*
X87357142Y-76392857D01*
X87357142Y-77178571D02*
X87357142Y-75678571D01*
X86642857Y-75678571D01*
X85571428Y-76392857D02*
X86071428Y-76392857D01*
X86071428Y-77178571D02*
X86071428Y-75678571D01*
X85357142Y-75678571D01*
X84857142Y-77107142D02*
X84642857Y-77178571D01*
X84285714Y-77178571D01*
X84142857Y-77107142D01*
X84071428Y-77035714D01*
X84000000Y-76892857D01*
X84000000Y-76750000D01*
X84071428Y-76607142D01*
X84142857Y-76535714D01*
X84285714Y-76464285D01*
X84571428Y-76392857D01*
X84714285Y-76321428D01*
X84785714Y-76250000D01*
X84857142Y-76107142D01*
X84857142Y-75964285D01*
X84785714Y-75821428D01*
X84714285Y-75750000D01*
X84571428Y-75678571D01*
X84214285Y-75678571D01*
X84000000Y-75750000D01*
X83357142Y-76392857D02*
X82857142Y-76392857D01*
X82642857Y-77178571D02*
X83357142Y-77178571D01*
X83357142Y-75678571D01*
X82642857Y-75678571D01*
X82214285Y-75678571D02*
X81357142Y-75678571D01*
X81785714Y-77178571D02*
X81785714Y-75678571D01*
D14*
X88053333Y-140966190D02*
X87867619Y-141028095D01*
X87558095Y-141028095D01*
X87434285Y-140966190D01*
X87372380Y-140904285D01*
X87310476Y-140780476D01*
X87310476Y-140656666D01*
X87372380Y-140532857D01*
X87434285Y-140470952D01*
X87558095Y-140409047D01*
X87805714Y-140347142D01*
X87929523Y-140285238D01*
X87991428Y-140223333D01*
X88053333Y-140099523D01*
X88053333Y-139975714D01*
X87991428Y-139851904D01*
X87929523Y-139790000D01*
X87805714Y-139728095D01*
X87496190Y-139728095D01*
X87310476Y-139790000D01*
X85824761Y-139666190D02*
X86939047Y-141337619D01*
X85391428Y-141028095D02*
X85391428Y-139728095D01*
X84648571Y-141028095D01*
X84648571Y-139728095D01*
D12*
X102892857Y-41000000D02*
X103035714Y-40928571D01*
X103250000Y-40928571D01*
X103464285Y-41000000D01*
X103607142Y-41142857D01*
X103678571Y-41285714D01*
X103750000Y-41571428D01*
X103750000Y-41785714D01*
X103678571Y-42071428D01*
X103607142Y-42214285D01*
X103464285Y-42357142D01*
X103250000Y-42428571D01*
X103107142Y-42428571D01*
X102892857Y-42357142D01*
X102821428Y-42285714D01*
X102821428Y-41785714D01*
X103107142Y-41785714D01*
X102178571Y-42428571D02*
X102178571Y-40928571D01*
X101321428Y-42428571D01*
X101321428Y-40928571D01*
X100607142Y-42428571D02*
X100607142Y-40928571D01*
X100250000Y-40928571D01*
X100035714Y-41000000D01*
X99892857Y-41142857D01*
X99821428Y-41285714D01*
X99750000Y-41571428D01*
X99750000Y-41785714D01*
X99821428Y-42071428D01*
X99892857Y-42214285D01*
X100035714Y-42357142D01*
X100250000Y-42428571D01*
X100607142Y-42428571D01*
D14*
X88942857Y-40184000D02*
X89057142Y-40126857D01*
X89228571Y-40126857D01*
X89400000Y-40184000D01*
X89514285Y-40298285D01*
X89571428Y-40412571D01*
X89628571Y-40641142D01*
X89628571Y-40812571D01*
X89571428Y-41041142D01*
X89514285Y-41155428D01*
X89400000Y-41269714D01*
X89228571Y-41326857D01*
X89114285Y-41326857D01*
X88942857Y-41269714D01*
X88885714Y-41212571D01*
X88885714Y-40812571D01*
X89114285Y-40812571D01*
X88371428Y-41326857D02*
X88371428Y-40526857D01*
X88371428Y-40755428D02*
X88314285Y-40641142D01*
X88257142Y-40584000D01*
X88142857Y-40526857D01*
X88028571Y-40526857D01*
X87171428Y-41269714D02*
X87285714Y-41326857D01*
X87514285Y-41326857D01*
X87628571Y-41269714D01*
X87685714Y-41155428D01*
X87685714Y-40698285D01*
X87628571Y-40584000D01*
X87514285Y-40526857D01*
X87285714Y-40526857D01*
X87171428Y-40584000D01*
X87114285Y-40698285D01*
X87114285Y-40812571D01*
X87685714Y-40926857D01*
X86142857Y-41269714D02*
X86257142Y-41326857D01*
X86485714Y-41326857D01*
X86600000Y-41269714D01*
X86657142Y-41155428D01*
X86657142Y-40698285D01*
X86600000Y-40584000D01*
X86485714Y-40526857D01*
X86257142Y-40526857D01*
X86142857Y-40584000D01*
X86085714Y-40698285D01*
X86085714Y-40812571D01*
X86657142Y-40926857D01*
X85571428Y-40526857D02*
X85571428Y-41326857D01*
X85571428Y-40641142D02*
X85514285Y-40584000D01*
X85400000Y-40526857D01*
X85228571Y-40526857D01*
X85114285Y-40584000D01*
X85057142Y-40698285D01*
X85057142Y-41326857D01*
X84657142Y-40526857D02*
X84200000Y-40526857D01*
X84485714Y-41326857D02*
X84485714Y-40298285D01*
X84428571Y-40184000D01*
X84314285Y-40126857D01*
X84200000Y-40126857D01*
X83285714Y-41326857D02*
X83285714Y-40698285D01*
X83342857Y-40584000D01*
X83457142Y-40526857D01*
X83685714Y-40526857D01*
X83800000Y-40584000D01*
X83285714Y-41269714D02*
X83400000Y-41326857D01*
X83685714Y-41326857D01*
X83800000Y-41269714D01*
X83857142Y-41155428D01*
X83857142Y-41041142D01*
X83800000Y-40926857D01*
X83685714Y-40869714D01*
X83400000Y-40869714D01*
X83285714Y-40812571D01*
X82200000Y-41269714D02*
X82314285Y-41326857D01*
X82542857Y-41326857D01*
X82657142Y-41269714D01*
X82714285Y-41212571D01*
X82771428Y-41098285D01*
X82771428Y-40755428D01*
X82714285Y-40641142D01*
X82657142Y-40584000D01*
X82542857Y-40526857D01*
X82314285Y-40526857D01*
X82200000Y-40584000D01*
X81228571Y-41269714D02*
X81342857Y-41326857D01*
X81571428Y-41326857D01*
X81685714Y-41269714D01*
X81742857Y-41155428D01*
X81742857Y-40698285D01*
X81685714Y-40584000D01*
X81571428Y-40526857D01*
X81342857Y-40526857D01*
X81228571Y-40584000D01*
X81171428Y-40698285D01*
X81171428Y-40812571D01*
X81742857Y-40926857D01*
X86600000Y-43258857D02*
X87171428Y-43258857D01*
X87171428Y-42058857D01*
X85685714Y-43258857D02*
X85685714Y-42630285D01*
X85742857Y-42516000D01*
X85857142Y-42458857D01*
X86085714Y-42458857D01*
X86200000Y-42516000D01*
X85685714Y-43201714D02*
X85800000Y-43258857D01*
X86085714Y-43258857D01*
X86200000Y-43201714D01*
X86257142Y-43087428D01*
X86257142Y-42973142D01*
X86200000Y-42858857D01*
X86085714Y-42801714D01*
X85800000Y-42801714D01*
X85685714Y-42744571D01*
X85114285Y-43258857D02*
X85114285Y-42058857D01*
X85114285Y-42516000D02*
X85000000Y-42458857D01*
X84771428Y-42458857D01*
X84657142Y-42516000D01*
X84600000Y-42573142D01*
X84542857Y-42687428D01*
X84542857Y-43030285D01*
X84600000Y-43144571D01*
X84657142Y-43201714D01*
X84771428Y-43258857D01*
X85000000Y-43258857D01*
X85114285Y-43201714D01*
X84085714Y-43201714D02*
X83971428Y-43258857D01*
X83742857Y-43258857D01*
X83628571Y-43201714D01*
X83571428Y-43087428D01*
X83571428Y-43030285D01*
X83628571Y-42916000D01*
X83742857Y-42858857D01*
X83914285Y-42858857D01*
X84028571Y-42801714D01*
X84085714Y-42687428D01*
X84085714Y-42630285D01*
X84028571Y-42516000D01*
X83914285Y-42458857D01*
X83742857Y-42458857D01*
X83628571Y-42516000D01*
X56382380Y-73735595D02*
X55382380Y-73735595D01*
X55382380Y-74116547D01*
X55430000Y-74211785D01*
X55477619Y-74259404D01*
X55572857Y-74307023D01*
X55715714Y-74307023D01*
X55810952Y-74259404D01*
X55858571Y-74211785D01*
X55906190Y-74116547D01*
X55906190Y-73735595D01*
X56382380Y-74735595D02*
X55715714Y-74735595D01*
X55382380Y-74735595D02*
X55430000Y-74687976D01*
X55477619Y-74735595D01*
X55430000Y-74783214D01*
X55382380Y-74735595D01*
X55477619Y-74735595D01*
X55715714Y-75211785D02*
X56382380Y-75211785D01*
X55810952Y-75211785D02*
X55763333Y-75259404D01*
X55715714Y-75354642D01*
X55715714Y-75497500D01*
X55763333Y-75592738D01*
X55858571Y-75640357D01*
X56382380Y-75640357D01*
X56382380Y-77402261D02*
X56382380Y-76830833D01*
X56382380Y-77116547D02*
X55382380Y-77116547D01*
X55525238Y-77021309D01*
X55620476Y-76926071D01*
X55668095Y-76830833D01*
X113012380Y-100406666D02*
X113726666Y-100406666D01*
X113869523Y-100359047D01*
X113964761Y-100263809D01*
X114012380Y-100120952D01*
X114012380Y-100025714D01*
X113440952Y-101025714D02*
X113393333Y-100930476D01*
X113345714Y-100882857D01*
X113250476Y-100835238D01*
X113202857Y-100835238D01*
X113107619Y-100882857D01*
X113060000Y-100930476D01*
X113012380Y-101025714D01*
X113012380Y-101216190D01*
X113060000Y-101311428D01*
X113107619Y-101359047D01*
X113202857Y-101406666D01*
X113250476Y-101406666D01*
X113345714Y-101359047D01*
X113393333Y-101311428D01*
X113440952Y-101216190D01*
X113440952Y-101025714D01*
X113488571Y-100930476D01*
X113536190Y-100882857D01*
X113631428Y-100835238D01*
X113821904Y-100835238D01*
X113917142Y-100882857D01*
X113964761Y-100930476D01*
X114012380Y-101025714D01*
X114012380Y-101216190D01*
X113964761Y-101311428D01*
X113917142Y-101359047D01*
X113821904Y-101406666D01*
X113631428Y-101406666D01*
X113536190Y-101359047D01*
X113488571Y-101311428D01*
X113440952Y-101216190D01*
X102881904Y-47132380D02*
X102310476Y-47132380D01*
X102596190Y-48132380D02*
X102596190Y-47132380D01*
X101977142Y-48132380D02*
X101977142Y-47132380D01*
X101596190Y-47132380D01*
X101500952Y-47180000D01*
X101453333Y-47227619D01*
X101405714Y-47322857D01*
X101405714Y-47465714D01*
X101453333Y-47560952D01*
X101500952Y-47608571D01*
X101596190Y-47656190D01*
X101977142Y-47656190D01*
X101024761Y-47227619D02*
X100977142Y-47180000D01*
X100881904Y-47132380D01*
X100643809Y-47132380D01*
X100548571Y-47180000D01*
X100500952Y-47227619D01*
X100453333Y-47322857D01*
X100453333Y-47418095D01*
X100500952Y-47560952D01*
X101072380Y-48132380D01*
X100453333Y-48132380D01*
X59983333Y-78202380D02*
X59983333Y-78916666D01*
X60030952Y-79059523D01*
X60126190Y-79154761D01*
X60269047Y-79202380D01*
X60364285Y-79202380D01*
X59554761Y-78297619D02*
X59507142Y-78250000D01*
X59411904Y-78202380D01*
X59173809Y-78202380D01*
X59078571Y-78250000D01*
X59030952Y-78297619D01*
X58983333Y-78392857D01*
X58983333Y-78488095D01*
X59030952Y-78630952D01*
X59602380Y-79202380D01*
X58983333Y-79202380D01*
X77070238Y-52827380D02*
X77403571Y-52351190D01*
X77641666Y-52827380D02*
X77641666Y-51827380D01*
X77260714Y-51827380D01*
X77165476Y-51875000D01*
X77117857Y-51922619D01*
X77070238Y-52017857D01*
X77070238Y-52160714D01*
X77117857Y-52255952D01*
X77165476Y-52303571D01*
X77260714Y-52351190D01*
X77641666Y-52351190D01*
X76784523Y-51827380D02*
X76451190Y-52827380D01*
X76117857Y-51827380D01*
X75832142Y-51922619D02*
X75784523Y-51875000D01*
X75689285Y-51827380D01*
X75451190Y-51827380D01*
X75355952Y-51875000D01*
X75308333Y-51922619D01*
X75260714Y-52017857D01*
X75260714Y-52113095D01*
X75308333Y-52255952D01*
X75879761Y-52827380D01*
X75260714Y-52827380D01*
X85595238Y-71702380D02*
X85928571Y-71226190D01*
X86166666Y-71702380D02*
X86166666Y-70702380D01*
X85785714Y-70702380D01*
X85690476Y-70750000D01*
X85642857Y-70797619D01*
X85595238Y-70892857D01*
X85595238Y-71035714D01*
X85642857Y-71130952D01*
X85690476Y-71178571D01*
X85785714Y-71226190D01*
X86166666Y-71226190D01*
X85309523Y-70702380D02*
X84976190Y-71702380D01*
X84642857Y-70702380D01*
X84404761Y-70702380D02*
X83785714Y-70702380D01*
X84119047Y-71083333D01*
X83976190Y-71083333D01*
X83880952Y-71130952D01*
X83833333Y-71178571D01*
X83785714Y-71273809D01*
X83785714Y-71511904D01*
X83833333Y-71607142D01*
X83880952Y-71654761D01*
X83976190Y-71702380D01*
X84261904Y-71702380D01*
X84357142Y-71654761D01*
X84404761Y-71607142D01*
X61207904Y-123034380D02*
X60636476Y-123034380D01*
X60922190Y-124034380D02*
X60922190Y-123034380D01*
X60303142Y-124034380D02*
X60303142Y-123034380D01*
X59922190Y-123034380D01*
X59826952Y-123082000D01*
X59779333Y-123129619D01*
X59731714Y-123224857D01*
X59731714Y-123367714D01*
X59779333Y-123462952D01*
X59826952Y-123510571D01*
X59922190Y-123558190D01*
X60303142Y-123558190D01*
X59398380Y-123034380D02*
X58779333Y-123034380D01*
X59112666Y-123415333D01*
X58969809Y-123415333D01*
X58874571Y-123462952D01*
X58826952Y-123510571D01*
X58779333Y-123605809D01*
X58779333Y-123843904D01*
X58826952Y-123939142D01*
X58874571Y-123986761D01*
X58969809Y-124034380D01*
X59255523Y-124034380D01*
X59350761Y-123986761D01*
X59398380Y-123939142D01*
X65883333Y-44182380D02*
X65883333Y-44896666D01*
X65930952Y-45039523D01*
X66026190Y-45134761D01*
X66169047Y-45182380D01*
X66264285Y-45182380D01*
X65502380Y-44182380D02*
X64835714Y-44182380D01*
X65264285Y-45182380D01*
X78279904Y-72752380D02*
X77708476Y-72752380D01*
X77994190Y-73752380D02*
X77994190Y-72752380D01*
X77375142Y-73752380D02*
X77375142Y-72752380D01*
X76994190Y-72752380D01*
X76898952Y-72800000D01*
X76851333Y-72847619D01*
X76803714Y-72942857D01*
X76803714Y-73085714D01*
X76851333Y-73180952D01*
X76898952Y-73228571D01*
X76994190Y-73276190D01*
X77375142Y-73276190D01*
X75946571Y-73085714D02*
X75946571Y-73752380D01*
X76184666Y-72704761D02*
X76422761Y-73419047D01*
X75803714Y-73419047D01*
X94309523Y-142222380D02*
X94309523Y-142936666D01*
X94357142Y-143079523D01*
X94452380Y-143174761D01*
X94595238Y-143222380D01*
X94690476Y-143222380D01*
X93309523Y-143222380D02*
X93880952Y-143222380D01*
X93595238Y-143222380D02*
X93595238Y-142222380D01*
X93690476Y-142365238D01*
X93785714Y-142460476D01*
X93880952Y-142508095D01*
X92928571Y-142317619D02*
X92880952Y-142270000D01*
X92785714Y-142222380D01*
X92547619Y-142222380D01*
X92452380Y-142270000D01*
X92404761Y-142317619D01*
X92357142Y-142412857D01*
X92357142Y-142508095D01*
X92404761Y-142650952D01*
X92976190Y-143222380D01*
X92357142Y-143222380D01*
X109549523Y-142222380D02*
X109549523Y-142936666D01*
X109597142Y-143079523D01*
X109692380Y-143174761D01*
X109835238Y-143222380D01*
X109930476Y-143222380D01*
X108549523Y-143222380D02*
X109120952Y-143222380D01*
X108835238Y-143222380D02*
X108835238Y-142222380D01*
X108930476Y-142365238D01*
X109025714Y-142460476D01*
X109120952Y-142508095D01*
X108216190Y-142222380D02*
X107597142Y-142222380D01*
X107930476Y-142603333D01*
X107787619Y-142603333D01*
X107692380Y-142650952D01*
X107644761Y-142698571D01*
X107597142Y-142793809D01*
X107597142Y-143031904D01*
X107644761Y-143127142D01*
X107692380Y-143174761D01*
X107787619Y-143222380D01*
X108073333Y-143222380D01*
X108168571Y-143174761D01*
X108216190Y-143127142D01*
D10*
X115110000Y-99290000D02*
X114610000Y-99290000D01*
X112110000Y-99290000D02*
X112110000Y-98790000D01*
X112110000Y-99290000D02*
X112610000Y-99290000D01*
X115110000Y-99290000D02*
X115110000Y-98790000D01*
D14*
X103370000Y-44930000D02*
G75*
G03*
X103370000Y-44930000I-1750000J0D01*
G01*
D11*
X56650000Y-76420000D02*
X57980000Y-76420000D01*
X56650000Y-75090000D02*
X56650000Y-76420000D01*
X59250000Y-76420000D02*
X61850000Y-76420000D01*
X61850000Y-76420000D02*
X61850000Y-63600000D01*
X56650000Y-73820000D02*
X56650000Y-63600000D01*
X59250000Y-73820000D02*
X59250000Y-76420000D01*
X56650000Y-73820000D02*
X59250000Y-73820000D01*
X56650000Y-63600000D02*
X61850000Y-63600000D01*
X73040000Y-51595000D02*
X73040000Y-53381000D01*
X79990000Y-56335000D02*
X73040000Y-56335000D01*
X79990000Y-54371000D02*
X79990000Y-56335000D01*
X79990000Y-51595000D02*
X73040000Y-51595000D01*
X73040000Y-54371000D02*
X73040000Y-56335000D01*
X79990000Y-51595000D02*
X79990000Y-53381000D01*
X88435000Y-72504000D02*
X88435000Y-70540000D01*
X81485000Y-70540000D02*
X88435000Y-70540000D01*
X81485000Y-75280000D02*
X88435000Y-75280000D01*
X81485000Y-75280000D02*
X81485000Y-73494000D01*
X88435000Y-75280000D02*
X88435000Y-73494000D01*
X81485000Y-72504000D02*
X81485000Y-70540000D01*
D14*
X59450000Y-126000000D02*
G75*
G03*
X59450000Y-126000000I-1750000J0D01*
G01*
D11*
X66920000Y-40510000D02*
X72120000Y-40510000D01*
X66920000Y-50730000D02*
X66920000Y-40510000D01*
X66920000Y-53330000D02*
X68250000Y-53330000D01*
X69520000Y-53330000D02*
X72120000Y-53330000D01*
X66920000Y-50730000D02*
X69520000Y-50730000D01*
X72120000Y-53330000D02*
X72120000Y-40510000D01*
X66920000Y-52000000D02*
X66920000Y-53330000D01*
X69520000Y-50730000D02*
X69520000Y-53330000D01*
D14*
X80850000Y-75500000D02*
G75*
G03*
X80850000Y-75500000I-1750000J0D01*
G01*
D11*
X92170000Y-138730000D02*
X92170000Y-103110000D01*
X93500000Y-141330000D02*
X94830000Y-141330000D01*
X92170000Y-138730000D02*
X94830000Y-138730000D01*
X94830000Y-138730000D02*
X94830000Y-103110000D01*
X92170000Y-103110000D02*
X94830000Y-103110000D01*
X94830000Y-141330000D02*
X94830000Y-140000000D01*
X107410000Y-138730000D02*
X107410000Y-103110000D01*
X110070000Y-138730000D02*
X110070000Y-103110000D01*
X107410000Y-138730000D02*
X110070000Y-138730000D01*
X110070000Y-141330000D02*
X110070000Y-140000000D01*
X108740000Y-141330000D02*
X110070000Y-141330000D01*
X107410000Y-103110000D02*
X110070000Y-103110000D01*
M02*
