%TF.GenerationSoftware,KiCad,Pcbnew,(6.0.1)*%
%TF.CreationDate,2023-10-10T21:34:29-07:00*%
%TF.ProjectId,Spankulator,5370616e-6b75-46c6-9174-6f722e6b6963,5.3*%
%TF.SameCoordinates,Original*%
%TF.FileFunction,Legend,Bot*%
%TF.FilePolarity,Positive*%
%FSLAX46Y46*%
G04 Gerber Fmt 4.6, Leading zero omitted, Abs format (unit mm)*
G04 Created by KiCad (PCBNEW (6.0.1)) date 2023-10-10 21:34:29*
%MOMM*%
%LPD*%
G01*
G04 APERTURE LIST*
%ADD10C,0.100000*%
%ADD11C,0.120000*%
%ADD12C,0.300000*%
%ADD13C,0.250000*%
%ADD14C,0.150000*%
%ADD15C,0.010000*%
G04 APERTURE END LIST*
D10*
X73700000Y-141000000D02*
X73700000Y-145000000D01*
X73700000Y-145000000D02*
X83010000Y-145000000D01*
X83010000Y-145000000D02*
X83010000Y-141000000D01*
X83010000Y-141000000D02*
X73700000Y-141000000D01*
G36*
X83010000Y-145000000D02*
G01*
X73700000Y-145000000D01*
X73700000Y-141000000D01*
X83010000Y-141000000D01*
X83010000Y-145000000D01*
G37*
X83010000Y-145000000D02*
X73700000Y-145000000D01*
X73700000Y-141000000D01*
X83010000Y-141000000D01*
X83010000Y-145000000D01*
X80576063Y-46515123D02*
X80580063Y-47330123D01*
X80580063Y-47330123D02*
X79630601Y-47329875D01*
X79630601Y-47329875D02*
X79636601Y-46514875D01*
X79636601Y-46514875D02*
X80576063Y-46515123D01*
G36*
X80576063Y-46515123D02*
G01*
X80580063Y-47330123D01*
X79630601Y-47329875D01*
X79636601Y-46514875D01*
X80576063Y-46515123D01*
G37*
X80576063Y-46515123D02*
X80580063Y-47330123D01*
X79630601Y-47329875D01*
X79636601Y-46514875D01*
X80576063Y-46515123D01*
X66825000Y-53495000D02*
X72225000Y-53495000D01*
X72225000Y-53495000D02*
X72225000Y-54525000D01*
X72225000Y-54525000D02*
X66825000Y-54525000D01*
X66825000Y-54525000D02*
X66825000Y-53495000D01*
G36*
X72225000Y-54525000D02*
G01*
X66825000Y-54525000D01*
X66825000Y-53495000D01*
X72225000Y-53495000D01*
X72225000Y-54525000D01*
G37*
X72225000Y-54525000D02*
X66825000Y-54525000D01*
X66825000Y-53495000D01*
X72225000Y-53495000D01*
X72225000Y-54525000D01*
D11*
X105200000Y-100400000D02*
X105200000Y-103900000D01*
X105200000Y-103900000D02*
X96700000Y-103900000D01*
X96700000Y-103900000D02*
X96700000Y-100400000D01*
D10*
X88580000Y-74050000D02*
X89395000Y-74046000D01*
X89395000Y-74046000D02*
X89395000Y-75046000D01*
X89395000Y-75046000D02*
X88580000Y-75040000D01*
X88580000Y-75040000D02*
X88580000Y-74050000D01*
G36*
X89395000Y-75046000D02*
G01*
X88580000Y-75040000D01*
X88580000Y-74050000D01*
X89395000Y-74046000D01*
X89395000Y-75046000D01*
G37*
X89395000Y-75046000D02*
X88580000Y-75040000D01*
X88580000Y-74050000D01*
X89395000Y-74046000D01*
X89395000Y-75046000D01*
X56520000Y-76530000D02*
X61920000Y-76530000D01*
X61920000Y-76530000D02*
X61920000Y-77930000D01*
X61920000Y-77930000D02*
X56520000Y-77930000D01*
X56520000Y-77930000D02*
X56520000Y-76530000D01*
G36*
X61920000Y-77930000D02*
G01*
X56520000Y-77930000D01*
X56520000Y-76530000D01*
X61920000Y-76530000D01*
X61920000Y-77930000D01*
G37*
X61920000Y-77930000D02*
X56520000Y-77930000D01*
X56520000Y-76530000D01*
X61920000Y-76530000D01*
X61920000Y-77930000D01*
D12*
X63878571Y-66235714D02*
X62378571Y-66235714D01*
X62378571Y-66807142D01*
X62450000Y-66950000D01*
X62521428Y-67021428D01*
X62664285Y-67092857D01*
X62878571Y-67092857D01*
X63021428Y-67021428D01*
X63092857Y-66950000D01*
X63164285Y-66807142D01*
X63164285Y-66235714D01*
X62378571Y-68021428D02*
X62378571Y-68307142D01*
X62450000Y-68450000D01*
X62592857Y-68592857D01*
X62878571Y-68664285D01*
X63378571Y-68664285D01*
X63664285Y-68592857D01*
X63807142Y-68450000D01*
X63878571Y-68307142D01*
X63878571Y-68021428D01*
X63807142Y-67878571D01*
X63664285Y-67735714D01*
X63378571Y-67664285D01*
X62878571Y-67664285D01*
X62592857Y-67735714D01*
X62450000Y-67878571D01*
X62378571Y-68021428D01*
X62378571Y-69164285D02*
X63878571Y-69521428D01*
X62807142Y-69807142D01*
X63878571Y-70092857D01*
X62378571Y-70450000D01*
X63092857Y-71021428D02*
X63092857Y-71521428D01*
X63878571Y-71735714D02*
X63878571Y-71021428D01*
X62378571Y-71021428D01*
X62378571Y-71735714D01*
X63878571Y-73235714D02*
X63164285Y-72735714D01*
X63878571Y-72378571D02*
X62378571Y-72378571D01*
X62378571Y-72950000D01*
X62450000Y-73092857D01*
X62521428Y-73164285D01*
X62664285Y-73235714D01*
X62878571Y-73235714D01*
X63021428Y-73164285D01*
X63092857Y-73092857D01*
X63164285Y-72950000D01*
X63164285Y-72378571D01*
X87178571Y-142104761D02*
X88130952Y-142104761D01*
X88226190Y-143057142D01*
X88130952Y-142961904D01*
X87940476Y-142866666D01*
X87464285Y-142866666D01*
X87273809Y-142961904D01*
X87178571Y-143057142D01*
X87083333Y-143247619D01*
X87083333Y-143723809D01*
X87178571Y-143914285D01*
X87273809Y-144009523D01*
X87464285Y-144104761D01*
X87940476Y-144104761D01*
X88130952Y-144009523D01*
X88226190Y-143914285D01*
X86226190Y-143914285D02*
X86130952Y-144009523D01*
X86226190Y-144104761D01*
X86321428Y-144009523D01*
X86226190Y-143914285D01*
X86226190Y-144104761D01*
X85464285Y-142104761D02*
X84226190Y-142104761D01*
X84892857Y-142866666D01*
X84607142Y-142866666D01*
X84416666Y-142961904D01*
X84321428Y-143057142D01*
X84226190Y-143247619D01*
X84226190Y-143723809D01*
X84321428Y-143914285D01*
X84416666Y-144009523D01*
X84607142Y-144104761D01*
X85178571Y-144104761D01*
X85369047Y-144009523D01*
X85464285Y-143914285D01*
X83369047Y-143914285D02*
X83273809Y-144009523D01*
X83369047Y-144104761D01*
X83464285Y-144009523D01*
X83369047Y-143914285D01*
X83369047Y-144104761D01*
D11*
X87403333Y-74213333D02*
X87370000Y-74180000D01*
X87303333Y-74146666D01*
X87136666Y-74146666D01*
X87070000Y-74180000D01*
X87036666Y-74213333D01*
X87003333Y-74280000D01*
X87003333Y-74346666D01*
X87036666Y-74446666D01*
X87436666Y-74846666D01*
X87003333Y-74846666D01*
X86570000Y-74146666D02*
X86503333Y-74146666D01*
X86436666Y-74180000D01*
X86403333Y-74213333D01*
X86370000Y-74280000D01*
X86336666Y-74413333D01*
X86336666Y-74580000D01*
X86370000Y-74713333D01*
X86403333Y-74780000D01*
X86436666Y-74813333D01*
X86503333Y-74846666D01*
X86570000Y-74846666D01*
X86636666Y-74813333D01*
X86670000Y-74780000D01*
X86703333Y-74713333D01*
X86736666Y-74580000D01*
X86736666Y-74413333D01*
X86703333Y-74280000D01*
X86670000Y-74213333D01*
X86636666Y-74180000D01*
X86570000Y-74146666D01*
X86036666Y-74846666D02*
X86036666Y-74146666D01*
X85636666Y-74846666D02*
X85936666Y-74446666D01*
X85636666Y-74146666D02*
X86036666Y-74546666D01*
D12*
X85862857Y-42570000D02*
X86005714Y-42498571D01*
X86220000Y-42498571D01*
X86434285Y-42570000D01*
X86577142Y-42712857D01*
X86648571Y-42855714D01*
X86720000Y-43141428D01*
X86720000Y-43355714D01*
X86648571Y-43641428D01*
X86577142Y-43784285D01*
X86434285Y-43927142D01*
X86220000Y-43998571D01*
X86077142Y-43998571D01*
X85862857Y-43927142D01*
X85791428Y-43855714D01*
X85791428Y-43355714D01*
X86077142Y-43355714D01*
X85220000Y-43570000D02*
X84505714Y-43570000D01*
X85362857Y-43998571D02*
X84862857Y-42498571D01*
X84362857Y-43998571D01*
X83862857Y-43998571D02*
X83862857Y-42498571D01*
X83148571Y-43998571D02*
X83148571Y-42498571D01*
X82291428Y-43998571D01*
X82291428Y-42498571D01*
X102903809Y-99234761D02*
X102903809Y-100853809D01*
X102808571Y-101044285D01*
X102713333Y-101139523D01*
X102522857Y-101234761D01*
X102141904Y-101234761D01*
X101951428Y-101139523D01*
X101856190Y-101044285D01*
X101760952Y-100853809D01*
X101760952Y-99234761D01*
X100903809Y-101139523D02*
X100618095Y-101234761D01*
X100141904Y-101234761D01*
X99951428Y-101139523D01*
X99856190Y-101044285D01*
X99760952Y-100853809D01*
X99760952Y-100663333D01*
X99856190Y-100472857D01*
X99951428Y-100377619D01*
X100141904Y-100282380D01*
X100522857Y-100187142D01*
X100713333Y-100091904D01*
X100808571Y-99996666D01*
X100903809Y-99806190D01*
X100903809Y-99615714D01*
X100808571Y-99425238D01*
X100713333Y-99330000D01*
X100522857Y-99234761D01*
X100046666Y-99234761D01*
X99760952Y-99330000D01*
X98237142Y-100187142D02*
X97951428Y-100282380D01*
X97856190Y-100377619D01*
X97760952Y-100568095D01*
X97760952Y-100853809D01*
X97856190Y-101044285D01*
X97951428Y-101139523D01*
X98141904Y-101234761D01*
X98903809Y-101234761D01*
X98903809Y-99234761D01*
X98237142Y-99234761D01*
X98046666Y-99330000D01*
X97951428Y-99425238D01*
X97856190Y-99615714D01*
X97856190Y-99806190D01*
X97951428Y-99996666D01*
X98046666Y-100091904D01*
X98237142Y-100187142D01*
X98903809Y-100187142D01*
D13*
X100197023Y-81354761D02*
X99054166Y-81354761D01*
X99625595Y-83354761D02*
X99625595Y-81354761D01*
X98387500Y-83354761D02*
X98387500Y-81354761D01*
X97530357Y-83354761D02*
X97530357Y-82307142D01*
X97625595Y-82116666D01*
X97816071Y-82021428D01*
X98101785Y-82021428D01*
X98292261Y-82116666D01*
X98387500Y-82211904D01*
X95816071Y-83259523D02*
X96006547Y-83354761D01*
X96387500Y-83354761D01*
X96577976Y-83259523D01*
X96673214Y-83069047D01*
X96673214Y-82307142D01*
X96577976Y-82116666D01*
X96387500Y-82021428D01*
X96006547Y-82021428D01*
X95816071Y-82116666D01*
X95720833Y-82307142D01*
X95720833Y-82497619D01*
X96673214Y-82688095D01*
X93435119Y-83259523D02*
X93149404Y-83354761D01*
X92673214Y-83354761D01*
X92482738Y-83259523D01*
X92387500Y-83164285D01*
X92292261Y-82973809D01*
X92292261Y-82783333D01*
X92387500Y-82592857D01*
X92482738Y-82497619D01*
X92673214Y-82402380D01*
X93054166Y-82307142D01*
X93244642Y-82211904D01*
X93339880Y-82116666D01*
X93435119Y-81926190D01*
X93435119Y-81735714D01*
X93339880Y-81545238D01*
X93244642Y-81450000D01*
X93054166Y-81354761D01*
X92577976Y-81354761D01*
X92292261Y-81450000D01*
X91435119Y-82021428D02*
X91435119Y-84021428D01*
X91435119Y-82116666D02*
X91244642Y-82021428D01*
X90863690Y-82021428D01*
X90673214Y-82116666D01*
X90577976Y-82211904D01*
X90482738Y-82402380D01*
X90482738Y-82973809D01*
X90577976Y-83164285D01*
X90673214Y-83259523D01*
X90863690Y-83354761D01*
X91244642Y-83354761D01*
X91435119Y-83259523D01*
X88768452Y-83354761D02*
X88768452Y-82307142D01*
X88863690Y-82116666D01*
X89054166Y-82021428D01*
X89435119Y-82021428D01*
X89625595Y-82116666D01*
X88768452Y-83259523D02*
X88958928Y-83354761D01*
X89435119Y-83354761D01*
X89625595Y-83259523D01*
X89720833Y-83069047D01*
X89720833Y-82878571D01*
X89625595Y-82688095D01*
X89435119Y-82592857D01*
X88958928Y-82592857D01*
X88768452Y-82497619D01*
X87816071Y-82021428D02*
X87816071Y-83354761D01*
X87816071Y-82211904D02*
X87720833Y-82116666D01*
X87530357Y-82021428D01*
X87244642Y-82021428D01*
X87054166Y-82116666D01*
X86958928Y-82307142D01*
X86958928Y-83354761D01*
X86006547Y-83354761D02*
X86006547Y-81354761D01*
X85816071Y-82592857D02*
X85244642Y-83354761D01*
X85244642Y-82021428D02*
X86006547Y-82783333D01*
X83530357Y-82021428D02*
X83530357Y-83354761D01*
X84387500Y-82021428D02*
X84387500Y-83069047D01*
X84292261Y-83259523D01*
X84101785Y-83354761D01*
X83816071Y-83354761D01*
X83625595Y-83259523D01*
X83530357Y-83164285D01*
X82292261Y-83354761D02*
X82482738Y-83259523D01*
X82577976Y-83069047D01*
X82577976Y-81354761D01*
X80673214Y-83354761D02*
X80673214Y-82307142D01*
X80768452Y-82116666D01*
X80958928Y-82021428D01*
X81339880Y-82021428D01*
X81530357Y-82116666D01*
X80673214Y-83259523D02*
X80863690Y-83354761D01*
X81339880Y-83354761D01*
X81530357Y-83259523D01*
X81625595Y-83069047D01*
X81625595Y-82878571D01*
X81530357Y-82688095D01*
X81339880Y-82592857D01*
X80863690Y-82592857D01*
X80673214Y-82497619D01*
X80006547Y-82021428D02*
X79244642Y-82021428D01*
X79720833Y-81354761D02*
X79720833Y-83069047D01*
X79625595Y-83259523D01*
X79435119Y-83354761D01*
X79244642Y-83354761D01*
X78292261Y-83354761D02*
X78482738Y-83259523D01*
X78577976Y-83164285D01*
X78673214Y-82973809D01*
X78673214Y-82402380D01*
X78577976Y-82211904D01*
X78482738Y-82116666D01*
X78292261Y-82021428D01*
X78006547Y-82021428D01*
X77816071Y-82116666D01*
X77720833Y-82211904D01*
X77625595Y-82402380D01*
X77625595Y-82973809D01*
X77720833Y-83164285D01*
X77816071Y-83259523D01*
X78006547Y-83354761D01*
X78292261Y-83354761D01*
X76768452Y-83354761D02*
X76768452Y-82021428D01*
X76768452Y-82402380D02*
X76673214Y-82211904D01*
X76577976Y-82116666D01*
X76387500Y-82021428D01*
X76197023Y-82021428D01*
D12*
X74732857Y-82488571D02*
X74375714Y-83488571D01*
X74018571Y-82488571D01*
X72732857Y-81988571D02*
X73447142Y-81988571D01*
X73518571Y-82702857D01*
X73447142Y-82631428D01*
X73304285Y-82560000D01*
X72947142Y-82560000D01*
X72804285Y-82631428D01*
X72732857Y-82702857D01*
X72661428Y-82845714D01*
X72661428Y-83202857D01*
X72732857Y-83345714D01*
X72804285Y-83417142D01*
X72947142Y-83488571D01*
X73304285Y-83488571D01*
X73447142Y-83417142D01*
X73518571Y-83345714D01*
X72018571Y-83345714D02*
X71947142Y-83417142D01*
X72018571Y-83488571D01*
X72090000Y-83417142D01*
X72018571Y-83345714D01*
X72018571Y-83488571D01*
X71447142Y-81988571D02*
X70518571Y-81988571D01*
X71018571Y-82560000D01*
X70804285Y-82560000D01*
X70661428Y-82631428D01*
X70590000Y-82702857D01*
X70518571Y-82845714D01*
X70518571Y-83202857D01*
X70590000Y-83345714D01*
X70661428Y-83417142D01*
X70804285Y-83488571D01*
X71232857Y-83488571D01*
X71375714Y-83417142D01*
X71447142Y-83345714D01*
X73372857Y-42724285D02*
X73372857Y-43224285D01*
X74158571Y-43438571D02*
X74158571Y-42724285D01*
X72658571Y-42724285D01*
X72658571Y-43438571D01*
X72658571Y-43938571D02*
X74158571Y-44938571D01*
X72658571Y-44938571D02*
X74158571Y-43938571D01*
X74158571Y-45510000D02*
X72658571Y-45510000D01*
X72658571Y-46081428D01*
X72730000Y-46224285D01*
X72801428Y-46295714D01*
X72944285Y-46367142D01*
X73158571Y-46367142D01*
X73301428Y-46295714D01*
X73372857Y-46224285D01*
X73444285Y-46081428D01*
X73444285Y-45510000D01*
D14*
X66582380Y-49335595D02*
X65582380Y-49335595D01*
X65582380Y-49716547D01*
X65630000Y-49811785D01*
X65677619Y-49859404D01*
X65772857Y-49907023D01*
X65915714Y-49907023D01*
X66010952Y-49859404D01*
X66058571Y-49811785D01*
X66106190Y-49716547D01*
X66106190Y-49335595D01*
X66582380Y-50335595D02*
X65915714Y-50335595D01*
X65582380Y-50335595D02*
X65630000Y-50287976D01*
X65677619Y-50335595D01*
X65630000Y-50383214D01*
X65582380Y-50335595D01*
X65677619Y-50335595D01*
X65915714Y-50811785D02*
X66582380Y-50811785D01*
X66010952Y-50811785D02*
X65963333Y-50859404D01*
X65915714Y-50954642D01*
X65915714Y-51097500D01*
X65963333Y-51192738D01*
X66058571Y-51240357D01*
X66582380Y-51240357D01*
X66582380Y-53002261D02*
X66582380Y-52430833D01*
X66582380Y-52716547D02*
X65582380Y-52716547D01*
X65725238Y-52621309D01*
X65820476Y-52526071D01*
X65868095Y-52430833D01*
D12*
X88642857Y-75678571D02*
X88357142Y-75678571D01*
X88214285Y-75750000D01*
X88071428Y-75892857D01*
X88000000Y-76178571D01*
X88000000Y-76678571D01*
X88071428Y-76964285D01*
X88214285Y-77107142D01*
X88357142Y-77178571D01*
X88642857Y-77178571D01*
X88785714Y-77107142D01*
X88928571Y-76964285D01*
X89000000Y-76678571D01*
X89000000Y-76178571D01*
X88928571Y-75892857D01*
X88785714Y-75750000D01*
X88642857Y-75678571D01*
X86857142Y-76392857D02*
X87357142Y-76392857D01*
X87357142Y-77178571D02*
X87357142Y-75678571D01*
X86642857Y-75678571D01*
X85571428Y-76392857D02*
X86071428Y-76392857D01*
X86071428Y-77178571D02*
X86071428Y-75678571D01*
X85357142Y-75678571D01*
X84857142Y-77107142D02*
X84642857Y-77178571D01*
X84285714Y-77178571D01*
X84142857Y-77107142D01*
X84071428Y-77035714D01*
X84000000Y-76892857D01*
X84000000Y-76750000D01*
X84071428Y-76607142D01*
X84142857Y-76535714D01*
X84285714Y-76464285D01*
X84571428Y-76392857D01*
X84714285Y-76321428D01*
X84785714Y-76250000D01*
X84857142Y-76107142D01*
X84857142Y-75964285D01*
X84785714Y-75821428D01*
X84714285Y-75750000D01*
X84571428Y-75678571D01*
X84214285Y-75678571D01*
X84000000Y-75750000D01*
X83357142Y-76392857D02*
X82857142Y-76392857D01*
X82642857Y-77178571D02*
X83357142Y-77178571D01*
X83357142Y-75678571D01*
X82642857Y-75678571D01*
X82214285Y-75678571D02*
X81357142Y-75678571D01*
X81785714Y-77178571D02*
X81785714Y-75678571D01*
X70862857Y-142800000D02*
X71005714Y-142728571D01*
X71220000Y-142728571D01*
X71434285Y-142800000D01*
X71577142Y-142942857D01*
X71648571Y-143085714D01*
X71720000Y-143371428D01*
X71720000Y-143585714D01*
X71648571Y-143871428D01*
X71577142Y-144014285D01*
X71434285Y-144157142D01*
X71220000Y-144228571D01*
X71077142Y-144228571D01*
X70862857Y-144157142D01*
X70791428Y-144085714D01*
X70791428Y-143585714D01*
X71077142Y-143585714D01*
X70148571Y-144228571D02*
X70148571Y-142728571D01*
X69291428Y-144228571D01*
X69291428Y-142728571D01*
X68577142Y-144228571D02*
X68577142Y-142728571D01*
X68220000Y-142728571D01*
X68005714Y-142800000D01*
X67862857Y-142942857D01*
X67791428Y-143085714D01*
X67720000Y-143371428D01*
X67720000Y-143585714D01*
X67791428Y-143871428D01*
X67862857Y-144014285D01*
X68005714Y-144157142D01*
X68220000Y-144228571D01*
X68577142Y-144228571D01*
D14*
X88053333Y-140966190D02*
X87867619Y-141028095D01*
X87558095Y-141028095D01*
X87434285Y-140966190D01*
X87372380Y-140904285D01*
X87310476Y-140780476D01*
X87310476Y-140656666D01*
X87372380Y-140532857D01*
X87434285Y-140470952D01*
X87558095Y-140409047D01*
X87805714Y-140347142D01*
X87929523Y-140285238D01*
X87991428Y-140223333D01*
X88053333Y-140099523D01*
X88053333Y-139975714D01*
X87991428Y-139851904D01*
X87929523Y-139790000D01*
X87805714Y-139728095D01*
X87496190Y-139728095D01*
X87310476Y-139790000D01*
X85824761Y-139666190D02*
X86939047Y-141337619D01*
X85391428Y-141028095D02*
X85391428Y-139728095D01*
X84648571Y-141028095D01*
X84648571Y-139728095D01*
D13*
X91354761Y-92860000D02*
X91545238Y-92764761D01*
X91830952Y-92764761D01*
X92116666Y-92860000D01*
X92307142Y-93050476D01*
X92402380Y-93240952D01*
X92497619Y-93621904D01*
X92497619Y-93907619D01*
X92402380Y-94288571D01*
X92307142Y-94479047D01*
X92116666Y-94669523D01*
X91830952Y-94764761D01*
X91640476Y-94764761D01*
X91354761Y-94669523D01*
X91259523Y-94574285D01*
X91259523Y-93907619D01*
X91640476Y-93907619D01*
X90402380Y-94764761D02*
X90402380Y-93431428D01*
X90402380Y-93812380D02*
X90307142Y-93621904D01*
X90211904Y-93526666D01*
X90021428Y-93431428D01*
X89830952Y-93431428D01*
X88402380Y-94669523D02*
X88592857Y-94764761D01*
X88973809Y-94764761D01*
X89164285Y-94669523D01*
X89259523Y-94479047D01*
X89259523Y-93717142D01*
X89164285Y-93526666D01*
X88973809Y-93431428D01*
X88592857Y-93431428D01*
X88402380Y-93526666D01*
X88307142Y-93717142D01*
X88307142Y-93907619D01*
X89259523Y-94098095D01*
X86688095Y-94669523D02*
X86878571Y-94764761D01*
X87259523Y-94764761D01*
X87450000Y-94669523D01*
X87545238Y-94479047D01*
X87545238Y-93717142D01*
X87450000Y-93526666D01*
X87259523Y-93431428D01*
X86878571Y-93431428D01*
X86688095Y-93526666D01*
X86592857Y-93717142D01*
X86592857Y-93907619D01*
X87545238Y-94098095D01*
X85735714Y-93431428D02*
X85735714Y-94764761D01*
X85735714Y-93621904D02*
X85640476Y-93526666D01*
X85449999Y-93431428D01*
X85164285Y-93431428D01*
X84973809Y-93526666D01*
X84878571Y-93717142D01*
X84878571Y-94764761D01*
X84211904Y-93431428D02*
X83449999Y-93431428D01*
X83926190Y-94764761D02*
X83926190Y-93050476D01*
X83830952Y-92860000D01*
X83640476Y-92764761D01*
X83449999Y-92764761D01*
X81926190Y-94764761D02*
X81926190Y-93717142D01*
X82021428Y-93526666D01*
X82211904Y-93431428D01*
X82592857Y-93431428D01*
X82783333Y-93526666D01*
X81926190Y-94669523D02*
X82116666Y-94764761D01*
X82592857Y-94764761D01*
X82783333Y-94669523D01*
X82878571Y-94479047D01*
X82878571Y-94288571D01*
X82783333Y-94098095D01*
X82592857Y-94002857D01*
X82116666Y-94002857D01*
X81926190Y-93907619D01*
X80116666Y-94669523D02*
X80307142Y-94764761D01*
X80688095Y-94764761D01*
X80878571Y-94669523D01*
X80973809Y-94574285D01*
X81069047Y-94383809D01*
X81069047Y-93812380D01*
X80973809Y-93621904D01*
X80878571Y-93526666D01*
X80688095Y-93431428D01*
X80307142Y-93431428D01*
X80116666Y-93526666D01*
X78497619Y-94669523D02*
X78688095Y-94764761D01*
X79069047Y-94764761D01*
X79259523Y-94669523D01*
X79354761Y-94479047D01*
X79354761Y-93717142D01*
X79259523Y-93526666D01*
X79069047Y-93431428D01*
X78688095Y-93431428D01*
X78497619Y-93526666D01*
X78402380Y-93717142D01*
X78402380Y-93907619D01*
X79354761Y-94098095D01*
X87450000Y-97984761D02*
X88402380Y-97984761D01*
X88402380Y-95984761D01*
X85926190Y-97984761D02*
X85926190Y-96937142D01*
X86021428Y-96746666D01*
X86211904Y-96651428D01*
X86592857Y-96651428D01*
X86783333Y-96746666D01*
X85926190Y-97889523D02*
X86116666Y-97984761D01*
X86592857Y-97984761D01*
X86783333Y-97889523D01*
X86878571Y-97699047D01*
X86878571Y-97508571D01*
X86783333Y-97318095D01*
X86592857Y-97222857D01*
X86116666Y-97222857D01*
X85926190Y-97127619D01*
X84973809Y-97984761D02*
X84973809Y-95984761D01*
X84973809Y-96746666D02*
X84783333Y-96651428D01*
X84402380Y-96651428D01*
X84211904Y-96746666D01*
X84116666Y-96841904D01*
X84021428Y-97032380D01*
X84021428Y-97603809D01*
X84116666Y-97794285D01*
X84211904Y-97889523D01*
X84402380Y-97984761D01*
X84783333Y-97984761D01*
X84973809Y-97889523D01*
X83259523Y-97889523D02*
X83069047Y-97984761D01*
X82688095Y-97984761D01*
X82497619Y-97889523D01*
X82402380Y-97699047D01*
X82402380Y-97603809D01*
X82497619Y-97413333D01*
X82688095Y-97318095D01*
X82973809Y-97318095D01*
X83164285Y-97222857D01*
X83259523Y-97032380D01*
X83259523Y-96937142D01*
X83164285Y-96746666D01*
X82973809Y-96651428D01*
X82688095Y-96651428D01*
X82497619Y-96746666D01*
D11*
X86623333Y-48473333D02*
X86590000Y-48440000D01*
X86523333Y-48406666D01*
X86356666Y-48406666D01*
X86290000Y-48440000D01*
X86256666Y-48473333D01*
X86223333Y-48540000D01*
X86223333Y-48606666D01*
X86256666Y-48706666D01*
X86656666Y-49106666D01*
X86223333Y-49106666D01*
X85790000Y-48406666D02*
X85723333Y-48406666D01*
X85656666Y-48440000D01*
X85623333Y-48473333D01*
X85590000Y-48540000D01*
X85556666Y-48673333D01*
X85556666Y-48840000D01*
X85590000Y-48973333D01*
X85623333Y-49040000D01*
X85656666Y-49073333D01*
X85723333Y-49106666D01*
X85790000Y-49106666D01*
X85856666Y-49073333D01*
X85890000Y-49040000D01*
X85923333Y-48973333D01*
X85956666Y-48840000D01*
X85956666Y-48673333D01*
X85923333Y-48540000D01*
X85890000Y-48473333D01*
X85856666Y-48440000D01*
X85790000Y-48406666D01*
X85256666Y-49106666D02*
X85256666Y-48406666D01*
X84856666Y-49106666D02*
X85156666Y-48706666D01*
X84856666Y-48406666D02*
X85256666Y-48806666D01*
D14*
X56382380Y-73735595D02*
X55382380Y-73735595D01*
X55382380Y-74116547D01*
X55430000Y-74211785D01*
X55477619Y-74259404D01*
X55572857Y-74307023D01*
X55715714Y-74307023D01*
X55810952Y-74259404D01*
X55858571Y-74211785D01*
X55906190Y-74116547D01*
X55906190Y-73735595D01*
X56382380Y-74735595D02*
X55715714Y-74735595D01*
X55382380Y-74735595D02*
X55430000Y-74687976D01*
X55477619Y-74735595D01*
X55430000Y-74783214D01*
X55382380Y-74735595D01*
X55477619Y-74735595D01*
X55715714Y-75211785D02*
X56382380Y-75211785D01*
X55810952Y-75211785D02*
X55763333Y-75259404D01*
X55715714Y-75354642D01*
X55715714Y-75497500D01*
X55763333Y-75592738D01*
X55858571Y-75640357D01*
X56382380Y-75640357D01*
X56382380Y-77402261D02*
X56382380Y-76830833D01*
X56382380Y-77116547D02*
X55382380Y-77116547D01*
X55525238Y-77021309D01*
X55620476Y-76926071D01*
X55668095Y-76830833D01*
X73381904Y-148052380D02*
X72810476Y-148052380D01*
X73096190Y-149052380D02*
X73096190Y-148052380D01*
X72477142Y-149052380D02*
X72477142Y-148052380D01*
X72096190Y-148052380D01*
X72000952Y-148100000D01*
X71953333Y-148147619D01*
X71905714Y-148242857D01*
X71905714Y-148385714D01*
X71953333Y-148480952D01*
X72000952Y-148528571D01*
X72096190Y-148576190D01*
X72477142Y-148576190D01*
X70953333Y-149052380D02*
X71524761Y-149052380D01*
X71239047Y-149052380D02*
X71239047Y-148052380D01*
X71334285Y-148195238D01*
X71429523Y-148290476D01*
X71524761Y-148338095D01*
X59983333Y-78202380D02*
X59983333Y-78916666D01*
X60030952Y-79059523D01*
X60126190Y-79154761D01*
X60269047Y-79202380D01*
X60364285Y-79202380D01*
X59554761Y-78297619D02*
X59507142Y-78250000D01*
X59411904Y-78202380D01*
X59173809Y-78202380D01*
X59078571Y-78250000D01*
X59030952Y-78297619D01*
X58983333Y-78392857D01*
X58983333Y-78488095D01*
X59030952Y-78630952D01*
X59602380Y-79202380D01*
X58983333Y-79202380D01*
X84700238Y-45877380D02*
X85033571Y-45401190D01*
X85271666Y-45877380D02*
X85271666Y-44877380D01*
X84890714Y-44877380D01*
X84795476Y-44925000D01*
X84747857Y-44972619D01*
X84700238Y-45067857D01*
X84700238Y-45210714D01*
X84747857Y-45305952D01*
X84795476Y-45353571D01*
X84890714Y-45401190D01*
X85271666Y-45401190D01*
X84414523Y-44877380D02*
X84081190Y-45877380D01*
X83747857Y-44877380D01*
X83462142Y-44972619D02*
X83414523Y-44925000D01*
X83319285Y-44877380D01*
X83081190Y-44877380D01*
X82985952Y-44925000D01*
X82938333Y-44972619D01*
X82890714Y-45067857D01*
X82890714Y-45163095D01*
X82938333Y-45305952D01*
X83509761Y-45877380D01*
X82890714Y-45877380D01*
X85595238Y-71702380D02*
X85928571Y-71226190D01*
X86166666Y-71702380D02*
X86166666Y-70702380D01*
X85785714Y-70702380D01*
X85690476Y-70750000D01*
X85642857Y-70797619D01*
X85595238Y-70892857D01*
X85595238Y-71035714D01*
X85642857Y-71130952D01*
X85690476Y-71178571D01*
X85785714Y-71226190D01*
X86166666Y-71226190D01*
X85309523Y-70702380D02*
X84976190Y-71702380D01*
X84642857Y-70702380D01*
X84404761Y-70702380D02*
X83785714Y-70702380D01*
X84119047Y-71083333D01*
X83976190Y-71083333D01*
X83880952Y-71130952D01*
X83833333Y-71178571D01*
X83785714Y-71273809D01*
X83785714Y-71511904D01*
X83833333Y-71607142D01*
X83880952Y-71654761D01*
X83976190Y-71702380D01*
X84261904Y-71702380D01*
X84357142Y-71654761D01*
X84404761Y-71607142D01*
X66393333Y-43922380D02*
X66393333Y-44636666D01*
X66440952Y-44779523D01*
X66536190Y-44874761D01*
X66679047Y-44922380D01*
X66774285Y-44922380D01*
X66012380Y-43922380D02*
X65345714Y-43922380D01*
X65774285Y-44922380D01*
X94309523Y-142222380D02*
X94309523Y-142936666D01*
X94357142Y-143079523D01*
X94452380Y-143174761D01*
X94595238Y-143222380D01*
X94690476Y-143222380D01*
X93309523Y-143222380D02*
X93880952Y-143222380D01*
X93595238Y-143222380D02*
X93595238Y-142222380D01*
X93690476Y-142365238D01*
X93785714Y-142460476D01*
X93880952Y-142508095D01*
X92928571Y-142317619D02*
X92880952Y-142270000D01*
X92785714Y-142222380D01*
X92547619Y-142222380D01*
X92452380Y-142270000D01*
X92404761Y-142317619D01*
X92357142Y-142412857D01*
X92357142Y-142508095D01*
X92404761Y-142650952D01*
X92976190Y-143222380D01*
X92357142Y-143222380D01*
X109549523Y-142222380D02*
X109549523Y-142936666D01*
X109597142Y-143079523D01*
X109692380Y-143174761D01*
X109835238Y-143222380D01*
X109930476Y-143222380D01*
X108549523Y-143222380D02*
X109120952Y-143222380D01*
X108835238Y-143222380D02*
X108835238Y-142222380D01*
X108930476Y-142365238D01*
X109025714Y-142460476D01*
X109120952Y-142508095D01*
X108216190Y-142222380D02*
X107597142Y-142222380D01*
X107930476Y-142603333D01*
X107787619Y-142603333D01*
X107692380Y-142650952D01*
X107644761Y-142698571D01*
X107597142Y-142793809D01*
X107597142Y-143031904D01*
X107644761Y-143127142D01*
X107692380Y-143174761D01*
X107787619Y-143222380D01*
X108073333Y-143222380D01*
X108168571Y-143174761D01*
X108216190Y-143127142D01*
X71500000Y-146500000D02*
G75*
G03*
X71500000Y-146500000I-1750000J0D01*
G01*
D11*
X56650000Y-76420000D02*
X57980000Y-76420000D01*
X56650000Y-75090000D02*
X56650000Y-76420000D01*
X59250000Y-76420000D02*
X61850000Y-76420000D01*
X61850000Y-76420000D02*
X61850000Y-63600000D01*
X56650000Y-73820000D02*
X56650000Y-63600000D01*
X59250000Y-73820000D02*
X59250000Y-76420000D01*
X56650000Y-73820000D02*
X59250000Y-73820000D01*
X56650000Y-63600000D02*
X61850000Y-63600000D01*
X80670000Y-44645000D02*
X80670000Y-46431000D01*
X87620000Y-49385000D02*
X80670000Y-49385000D01*
X87620000Y-47421000D02*
X87620000Y-49385000D01*
X87620000Y-44645000D02*
X80670000Y-44645000D01*
X80670000Y-47421000D02*
X80670000Y-49385000D01*
X87620000Y-44645000D02*
X87620000Y-46431000D01*
X88435000Y-72504000D02*
X88435000Y-70540000D01*
X81485000Y-70540000D02*
X88435000Y-70540000D01*
X81485000Y-75280000D02*
X88435000Y-75280000D01*
X81485000Y-75280000D02*
X81485000Y-73494000D01*
X88435000Y-75280000D02*
X88435000Y-73494000D01*
X81485000Y-72504000D02*
X81485000Y-70540000D01*
X66920000Y-40510000D02*
X72120000Y-40510000D01*
X66920000Y-50730000D02*
X66920000Y-40510000D01*
X66920000Y-53330000D02*
X68250000Y-53330000D01*
X69520000Y-53330000D02*
X72120000Y-53330000D01*
X66920000Y-50730000D02*
X69520000Y-50730000D01*
X72120000Y-53330000D02*
X72120000Y-40510000D01*
X66920000Y-52000000D02*
X66920000Y-53330000D01*
X69520000Y-50730000D02*
X69520000Y-53330000D01*
X92170000Y-138730000D02*
X92170000Y-103110000D01*
X93500000Y-141330000D02*
X94830000Y-141330000D01*
X92170000Y-138730000D02*
X94830000Y-138730000D01*
X94830000Y-138730000D02*
X94830000Y-103110000D01*
X92170000Y-103110000D02*
X94830000Y-103110000D01*
X94830000Y-141330000D02*
X94830000Y-140000000D01*
X107410000Y-138730000D02*
X107410000Y-103110000D01*
X110070000Y-138730000D02*
X110070000Y-103110000D01*
X107410000Y-138730000D02*
X110070000Y-138730000D01*
X110070000Y-141330000D02*
X110070000Y-140000000D01*
X108740000Y-141330000D02*
X110070000Y-141330000D01*
X107410000Y-103110000D02*
X110070000Y-103110000D01*
D15*
X107796307Y-81831168D02*
X107732761Y-81838410D01*
X107732761Y-81838410D02*
X107688250Y-81851520D01*
X107688250Y-81851520D02*
X107652192Y-81871905D01*
X107652192Y-81871905D02*
X107641819Y-81879369D01*
X107641819Y-81879369D02*
X107583747Y-81948113D01*
X107583747Y-81948113D02*
X107559480Y-82032552D01*
X107559480Y-82032552D02*
X107571376Y-82115422D01*
X107571376Y-82115422D02*
X107602984Y-82163754D01*
X107602984Y-82163754D02*
X107630181Y-82184217D01*
X107630181Y-82184217D02*
X107670365Y-82199182D01*
X107670365Y-82199182D02*
X107732527Y-82210120D01*
X107732527Y-82210120D02*
X107825659Y-82218498D01*
X107825659Y-82218498D02*
X107958752Y-82225787D01*
X107958752Y-82225787D02*
X107991781Y-82227279D01*
X107991781Y-82227279D02*
X108199670Y-82240755D01*
X108199670Y-82240755D02*
X108371933Y-82263141D01*
X108371933Y-82263141D02*
X108523454Y-82297925D01*
X108523454Y-82297925D02*
X108669116Y-82348594D01*
X108669116Y-82348594D02*
X108823803Y-82418635D01*
X108823803Y-82418635D02*
X108837596Y-82425470D01*
X108837596Y-82425470D02*
X109066085Y-82556632D01*
X109066085Y-82556632D02*
X109285378Y-82715351D01*
X109285378Y-82715351D02*
X109488455Y-82894371D01*
X109488455Y-82894371D02*
X109668294Y-83086436D01*
X109668294Y-83086436D02*
X109817873Y-83284290D01*
X109817873Y-83284290D02*
X109930172Y-83480680D01*
X109930172Y-83480680D02*
X109980690Y-83606687D01*
X109980690Y-83606687D02*
X110032059Y-83715545D01*
X110032059Y-83715545D02*
X110099743Y-83776404D01*
X110099743Y-83776404D02*
X110183516Y-83789153D01*
X110183516Y-83789153D02*
X110279781Y-83755531D01*
X110279781Y-83755531D02*
X110347658Y-83694515D01*
X110347658Y-83694515D02*
X110375624Y-83606369D01*
X110375624Y-83606369D02*
X110363515Y-83490463D01*
X110363515Y-83490463D02*
X110311168Y-83346165D01*
X110311168Y-83346165D02*
X110218419Y-83172846D01*
X110218419Y-83172846D02*
X110085104Y-82969873D01*
X110085104Y-82969873D02*
X110071005Y-82949981D01*
X110071005Y-82949981D02*
X109875216Y-82711472D01*
X109875216Y-82711472D02*
X109640637Y-82485973D01*
X109640637Y-82485973D02*
X109379138Y-82282727D01*
X109379138Y-82282727D02*
X109102590Y-82110974D01*
X109102590Y-82110974D02*
X108827375Y-81981713D01*
X108827375Y-81981713D02*
X108632545Y-81912372D01*
X108632545Y-81912372D02*
X108456125Y-81866546D01*
X108456125Y-81866546D02*
X108277005Y-81840218D01*
X108277005Y-81840218D02*
X108074070Y-81829371D01*
X108074070Y-81829371D02*
X108022819Y-81828652D01*
X108022819Y-81828652D02*
X107889466Y-81828385D01*
X107889466Y-81828385D02*
X107796307Y-81831168D01*
X107796307Y-81831168D02*
X107796307Y-81831168D01*
G36*
X108022819Y-81828652D02*
G01*
X108074070Y-81829371D01*
X108277005Y-81840218D01*
X108456125Y-81866546D01*
X108632545Y-81912372D01*
X108827375Y-81981713D01*
X109102590Y-82110974D01*
X109379138Y-82282727D01*
X109640637Y-82485973D01*
X109875216Y-82711472D01*
X110071005Y-82949981D01*
X110085104Y-82969873D01*
X110218419Y-83172846D01*
X110311168Y-83346165D01*
X110363515Y-83490463D01*
X110375624Y-83606369D01*
X110347658Y-83694515D01*
X110279781Y-83755531D01*
X110183516Y-83789153D01*
X110099743Y-83776404D01*
X110032059Y-83715545D01*
X109980690Y-83606687D01*
X109930172Y-83480680D01*
X109817873Y-83284290D01*
X109668294Y-83086436D01*
X109488455Y-82894371D01*
X109285378Y-82715351D01*
X109066085Y-82556632D01*
X108837596Y-82425470D01*
X108823803Y-82418635D01*
X108669116Y-82348594D01*
X108523454Y-82297925D01*
X108371933Y-82263141D01*
X108199670Y-82240755D01*
X107991781Y-82227279D01*
X107958752Y-82225787D01*
X107825659Y-82218498D01*
X107732527Y-82210120D01*
X107670365Y-82199182D01*
X107630181Y-82184217D01*
X107602984Y-82163754D01*
X107571376Y-82115422D01*
X107559480Y-82032552D01*
X107583747Y-81948113D01*
X107641819Y-81879369D01*
X107652192Y-81871905D01*
X107688250Y-81851520D01*
X107732761Y-81838410D01*
X107796307Y-81831168D01*
X107889466Y-81828385D01*
X108022819Y-81828652D01*
G37*
X108022819Y-81828652D02*
X108074070Y-81829371D01*
X108277005Y-81840218D01*
X108456125Y-81866546D01*
X108632545Y-81912372D01*
X108827375Y-81981713D01*
X109102590Y-82110974D01*
X109379138Y-82282727D01*
X109640637Y-82485973D01*
X109875216Y-82711472D01*
X110071005Y-82949981D01*
X110085104Y-82969873D01*
X110218419Y-83172846D01*
X110311168Y-83346165D01*
X110363515Y-83490463D01*
X110375624Y-83606369D01*
X110347658Y-83694515D01*
X110279781Y-83755531D01*
X110183516Y-83789153D01*
X110099743Y-83776404D01*
X110032059Y-83715545D01*
X109980690Y-83606687D01*
X109930172Y-83480680D01*
X109817873Y-83284290D01*
X109668294Y-83086436D01*
X109488455Y-82894371D01*
X109285378Y-82715351D01*
X109066085Y-82556632D01*
X108837596Y-82425470D01*
X108823803Y-82418635D01*
X108669116Y-82348594D01*
X108523454Y-82297925D01*
X108371933Y-82263141D01*
X108199670Y-82240755D01*
X107991781Y-82227279D01*
X107958752Y-82225787D01*
X107825659Y-82218498D01*
X107732527Y-82210120D01*
X107670365Y-82199182D01*
X107630181Y-82184217D01*
X107602984Y-82163754D01*
X107571376Y-82115422D01*
X107559480Y-82032552D01*
X107583747Y-81948113D01*
X107641819Y-81879369D01*
X107652192Y-81871905D01*
X107688250Y-81851520D01*
X107732761Y-81838410D01*
X107796307Y-81831168D01*
X107889466Y-81828385D01*
X108022819Y-81828652D01*
X107392525Y-78188910D02*
X107353374Y-78209310D01*
X107353374Y-78209310D02*
X107332051Y-78228670D01*
X107332051Y-78228670D02*
X107289058Y-78304024D01*
X107289058Y-78304024D02*
X107279626Y-78396973D01*
X107279626Y-78396973D02*
X107305051Y-78485878D01*
X107305051Y-78485878D02*
X107315636Y-78503010D01*
X107315636Y-78503010D02*
X107358142Y-78539230D01*
X107358142Y-78539230D02*
X107433828Y-78567179D01*
X107433828Y-78567179D02*
X107525186Y-78586250D01*
X107525186Y-78586250D02*
X107797481Y-78647977D01*
X107797481Y-78647977D02*
X108026227Y-78732965D01*
X108026227Y-78732965D02*
X108213716Y-78842583D01*
X108213716Y-78842583D02*
X108362240Y-78978200D01*
X108362240Y-78978200D02*
X108474091Y-79141185D01*
X108474091Y-79141185D02*
X108482933Y-79158221D01*
X108482933Y-79158221D02*
X108541894Y-79318719D01*
X108541894Y-79318719D02*
X108575128Y-79509580D01*
X108575128Y-79509580D02*
X108580272Y-79716058D01*
X108580272Y-79716058D02*
X108578126Y-79752451D01*
X108578126Y-79752451D02*
X108571343Y-79820828D01*
X108571343Y-79820828D02*
X108556688Y-79850425D01*
X108556688Y-79850425D02*
X108522952Y-79853154D01*
X108522952Y-79853154D02*
X108489226Y-79846917D01*
X108489226Y-79846917D02*
X108215822Y-79801656D01*
X108215822Y-79801656D02*
X107914839Y-79769036D01*
X107914839Y-79769036D02*
X107601266Y-79749636D01*
X107601266Y-79749636D02*
X107290092Y-79744034D01*
X107290092Y-79744034D02*
X106996307Y-79752808D01*
X106996307Y-79752808D02*
X106734900Y-79776536D01*
X106734900Y-79776536D02*
X106719175Y-79778639D01*
X106719175Y-79778639D02*
X106305068Y-79852342D01*
X106305068Y-79852342D02*
X105891453Y-79958437D01*
X105891453Y-79958437D02*
X105494816Y-80092158D01*
X105494816Y-80092158D02*
X105190188Y-80220768D01*
X105190188Y-80220768D02*
X105077120Y-80272162D01*
X105077120Y-80272162D02*
X105000752Y-80302472D01*
X105000752Y-80302472D02*
X104952760Y-80314138D01*
X104952760Y-80314138D02*
X104924819Y-80309602D01*
X104924819Y-80309602D02*
X104915236Y-80301395D01*
X104915236Y-80301395D02*
X104878140Y-80273571D01*
X104878140Y-80273571D02*
X104805475Y-80231343D01*
X104805475Y-80231343D02*
X104708402Y-80180223D01*
X104708402Y-80180223D02*
X104598085Y-80125724D01*
X104598085Y-80125724D02*
X104485686Y-80073359D01*
X104485686Y-80073359D02*
X104382369Y-80028639D01*
X104382369Y-80028639D02*
X104299296Y-79997077D01*
X104299296Y-79997077D02*
X104298364Y-79996766D01*
X104298364Y-79996766D02*
X104156944Y-79956824D01*
X104156944Y-79956824D02*
X103995350Y-79922267D01*
X103995350Y-79922267D02*
X103834034Y-79896722D01*
X103834034Y-79896722D02*
X103693450Y-79883815D01*
X103693450Y-79883815D02*
X103656241Y-79882946D01*
X103656241Y-79882946D02*
X103559675Y-79889216D01*
X103559675Y-79889216D02*
X103496846Y-79910849D01*
X103496846Y-79910849D02*
X103468622Y-79933099D01*
X103468622Y-79933099D02*
X103411042Y-80018107D01*
X103411042Y-80018107D02*
X103401331Y-80106011D01*
X103401331Y-80106011D02*
X103435502Y-80183397D01*
X103435502Y-80183397D02*
X103466649Y-80218719D01*
X103466649Y-80218719D02*
X103505568Y-80245152D01*
X103505568Y-80245152D02*
X103561797Y-80265713D01*
X103561797Y-80265713D02*
X103644877Y-80283421D01*
X103644877Y-80283421D02*
X103764348Y-80301295D01*
X103764348Y-80301295D02*
X103838754Y-80310989D01*
X103838754Y-80310989D02*
X103989697Y-80337601D01*
X103989697Y-80337601D02*
X104149227Y-80378181D01*
X104149227Y-80378181D02*
X104301068Y-80427647D01*
X104301068Y-80427647D02*
X104428947Y-80480918D01*
X104428947Y-80480918D02*
X104490439Y-80514496D01*
X104490439Y-80514496D02*
X104566427Y-80562608D01*
X104566427Y-80562608D02*
X104404551Y-80671469D01*
X104404551Y-80671469D02*
X104303861Y-80741848D01*
X104303861Y-80741848D02*
X104200357Y-80818411D01*
X104200357Y-80818411D02*
X104122832Y-80879428D01*
X104122832Y-80879428D02*
X104002989Y-80978525D01*
X104002989Y-80978525D02*
X103854865Y-80891712D01*
X103854865Y-80891712D02*
X103549430Y-80739768D01*
X103549430Y-80739768D02*
X103234645Y-80637187D01*
X103234645Y-80637187D02*
X102906774Y-80582842D01*
X102906774Y-80582842D02*
X102807258Y-80575872D01*
X102807258Y-80575872D02*
X102600349Y-80574477D01*
X102600349Y-80574477D02*
X102421416Y-80595378D01*
X102421416Y-80595378D02*
X102251039Y-80642602D01*
X102251039Y-80642602D02*
X102069792Y-80720173D01*
X102069792Y-80720173D02*
X102040043Y-80734888D01*
X102040043Y-80734888D02*
X101785401Y-80890678D01*
X101785401Y-80890678D02*
X101556515Y-81087831D01*
X101556515Y-81087831D02*
X101356486Y-81322242D01*
X101356486Y-81322242D02*
X101188417Y-81589803D01*
X101188417Y-81589803D02*
X101055408Y-81886409D01*
X101055408Y-81886409D02*
X100975902Y-82143546D01*
X100975902Y-82143546D02*
X100952628Y-82280903D01*
X100952628Y-82280903D02*
X100940641Y-82451463D01*
X100940641Y-82451463D02*
X100939574Y-82638983D01*
X100939574Y-82638983D02*
X100949060Y-82827220D01*
X100949060Y-82827220D02*
X100968732Y-82999932D01*
X100968732Y-82999932D02*
X100998222Y-83140875D01*
X100998222Y-83140875D02*
X100998472Y-83141745D01*
X100998472Y-83141745D02*
X101109555Y-83444715D01*
X101109555Y-83444715D02*
X101261505Y-83720313D01*
X101261505Y-83720313D02*
X101457217Y-83973212D01*
X101457217Y-83973212D02*
X101609136Y-84127515D01*
X101609136Y-84127515D02*
X101700097Y-84214348D01*
X101700097Y-84214348D02*
X101757696Y-84275712D01*
X101757696Y-84275712D02*
X101787440Y-84318851D01*
X101787440Y-84318851D02*
X101794836Y-84351006D01*
X101794836Y-84351006D02*
X101791233Y-84367007D01*
X101791233Y-84367007D02*
X101778849Y-84411012D01*
X101778849Y-84411012D02*
X101759226Y-84493339D01*
X101759226Y-84493339D02*
X101734994Y-84602476D01*
X101734994Y-84602476D02*
X101708784Y-84726912D01*
X101708784Y-84726912D02*
X101707064Y-84735307D01*
X101707064Y-84735307D02*
X101624579Y-85253038D01*
X101624579Y-85253038D02*
X101591469Y-85759375D01*
X101591469Y-85759375D02*
X101607879Y-86255452D01*
X101607879Y-86255452D02*
X101673953Y-86742403D01*
X101673953Y-86742403D02*
X101789836Y-87221363D01*
X101789836Y-87221363D02*
X101955672Y-87693467D01*
X101955672Y-87693467D02*
X102133842Y-88085883D01*
X102133842Y-88085883D02*
X102370432Y-88501824D01*
X102370432Y-88501824D02*
X102651567Y-88897196D01*
X102651567Y-88897196D02*
X102974295Y-89269446D01*
X102974295Y-89269446D02*
X103335660Y-89616018D01*
X103335660Y-89616018D02*
X103732710Y-89934358D01*
X103732710Y-89934358D02*
X104162491Y-90221911D01*
X104162491Y-90221911D02*
X104622050Y-90476122D01*
X104622050Y-90476122D02*
X105108433Y-90694437D01*
X105108433Y-90694437D02*
X105183958Y-90724099D01*
X105183958Y-90724099D02*
X105466709Y-90829013D01*
X105466709Y-90829013D02*
X105722233Y-90914001D01*
X105722233Y-90914001D02*
X105967701Y-90983830D01*
X105967701Y-90983830D02*
X106220282Y-91043265D01*
X106220282Y-91043265D02*
X106497145Y-91097072D01*
X106497145Y-91097072D02*
X106579475Y-91111456D01*
X106579475Y-91111456D02*
X106764484Y-91136450D01*
X106764484Y-91136450D02*
X106986603Y-91155748D01*
X106986603Y-91155748D02*
X107232426Y-91169040D01*
X107232426Y-91169040D02*
X107488549Y-91176018D01*
X107488549Y-91176018D02*
X107741568Y-91176371D01*
X107741568Y-91176371D02*
X107978079Y-91169791D01*
X107978079Y-91169791D02*
X108184677Y-91155967D01*
X108184677Y-91155967D02*
X108243175Y-91149860D01*
X108243175Y-91149860D02*
X108758860Y-91065999D01*
X108758860Y-91065999D02*
X109262861Y-90936407D01*
X109262861Y-90936407D02*
X109748016Y-90763189D01*
X109748016Y-90763189D02*
X110095633Y-90605698D01*
X110095633Y-90605698D02*
X110504206Y-90380801D01*
X110504206Y-90380801D02*
X110882999Y-90126318D01*
X110882999Y-90126318D02*
X111239406Y-89836436D01*
X111239406Y-89836436D02*
X111580819Y-89505344D01*
X111580819Y-89505344D02*
X111793410Y-89270819D01*
X111793410Y-89270819D02*
X111852513Y-89204682D01*
X111852513Y-89204682D02*
X111890047Y-89172061D01*
X111890047Y-89172061D02*
X111916640Y-89167177D01*
X111916640Y-89167177D02*
X111942919Y-89184253D01*
X111942919Y-89184253D02*
X111946596Y-89187539D01*
X111946596Y-89187539D02*
X112005706Y-89227729D01*
X112005706Y-89227729D02*
X112100758Y-89277716D01*
X112100758Y-89277716D02*
X112219249Y-89332007D01*
X112219249Y-89332007D02*
X112348676Y-89385107D01*
X112348676Y-89385107D02*
X112476538Y-89431523D01*
X112476538Y-89431523D02*
X112562884Y-89458362D01*
X112562884Y-89458362D02*
X112726792Y-89494214D01*
X112726792Y-89494214D02*
X112913606Y-89518527D01*
X112913606Y-89518527D02*
X113105422Y-89530196D01*
X113105422Y-89530196D02*
X113284335Y-89528117D01*
X113284335Y-89528117D02*
X113429064Y-89511832D01*
X113429064Y-89511832D02*
X113707924Y-89437724D01*
X113707924Y-89437724D02*
X113959252Y-89324836D01*
X113959252Y-89324836D02*
X114189915Y-89169335D01*
X114189915Y-89169335D02*
X114406779Y-88967384D01*
X114406779Y-88967384D02*
X114409821Y-88964133D01*
X114409821Y-88964133D02*
X114581797Y-88752717D01*
X114581797Y-88752717D02*
X114707318Y-88534207D01*
X114707318Y-88534207D02*
X114790716Y-88300504D01*
X114790716Y-88300504D02*
X114810371Y-88215527D01*
X114810371Y-88215527D02*
X114840427Y-87944650D01*
X114840427Y-87944650D02*
X114832745Y-87842504D01*
X114832745Y-87842504D02*
X114432218Y-87842504D01*
X114432218Y-87842504D02*
X114430703Y-88052120D01*
X114430703Y-88052120D02*
X114386048Y-88261893D01*
X114386048Y-88261893D02*
X114295140Y-88466649D01*
X114295140Y-88466649D02*
X114283915Y-88485768D01*
X114283915Y-88485768D02*
X114168183Y-88642032D01*
X114168183Y-88642032D02*
X114018250Y-88790012D01*
X114018250Y-88790012D02*
X113846560Y-88920553D01*
X113846560Y-88920553D02*
X113665559Y-89024499D01*
X113665559Y-89024499D02*
X113487691Y-89092696D01*
X113487691Y-89092696D02*
X113444656Y-89103196D01*
X113444656Y-89103196D02*
X113314199Y-89119291D01*
X113314199Y-89119291D02*
X113152806Y-89122103D01*
X113152806Y-89122103D02*
X112978226Y-89112862D01*
X112978226Y-89112862D02*
X112808206Y-89092795D01*
X112808206Y-89092795D02*
X112660494Y-89063133D01*
X112660494Y-89063133D02*
X112599275Y-89044639D01*
X112599275Y-89044639D02*
X112419612Y-88977846D01*
X112419612Y-88977846D02*
X112285100Y-88920769D01*
X112285100Y-88920769D02*
X112197295Y-88874116D01*
X112197295Y-88874116D02*
X112162901Y-88846237D01*
X112162901Y-88846237D02*
X112153221Y-88817663D01*
X112153221Y-88817663D02*
X112165112Y-88772288D01*
X112165112Y-88772288D02*
X112201940Y-88700703D01*
X112201940Y-88700703D02*
X112234553Y-88645916D01*
X112234553Y-88645916D02*
X112294097Y-88544289D01*
X112294097Y-88544289D02*
X112363469Y-88419583D01*
X112363469Y-88419583D02*
X112430195Y-88294363D01*
X112430195Y-88294363D02*
X112447762Y-88260209D01*
X112447762Y-88260209D02*
X112499975Y-88159129D01*
X112499975Y-88159129D02*
X112536482Y-88095942D01*
X112536482Y-88095942D02*
X112564223Y-88063067D01*
X112564223Y-88063067D02*
X112590140Y-88052925D01*
X112590140Y-88052925D02*
X112621170Y-88057934D01*
X112621170Y-88057934D02*
X112630470Y-88060644D01*
X112630470Y-88060644D02*
X112750638Y-88102394D01*
X112750638Y-88102394D02*
X112835316Y-88147056D01*
X112835316Y-88147056D02*
X112883041Y-88185447D01*
X112883041Y-88185447D02*
X112941919Y-88260336D01*
X112941919Y-88260336D02*
X112955684Y-88337681D01*
X112955684Y-88337681D02*
X112926081Y-88430127D01*
X112926081Y-88430127D02*
X112918810Y-88444545D01*
X112918810Y-88444545D02*
X112873301Y-88562003D01*
X112873301Y-88562003D02*
X112871209Y-88655604D01*
X112871209Y-88655604D02*
X112912486Y-88724158D01*
X112912486Y-88724158D02*
X112930516Y-88737863D01*
X112930516Y-88737863D02*
X113003070Y-88763877D01*
X113003070Y-88763877D02*
X113071496Y-88742419D01*
X113071496Y-88742419D02*
X113137887Y-88672277D01*
X113137887Y-88672277D02*
X113186164Y-88589840D01*
X113186164Y-88589840D02*
X113243799Y-88427518D01*
X113243799Y-88427518D02*
X113252057Y-88270517D01*
X113252057Y-88270517D02*
X113212244Y-88123826D01*
X113212244Y-88123826D02*
X113125670Y-87992434D01*
X113125670Y-87992434D02*
X113001864Y-87886699D01*
X113001864Y-87886699D02*
X112933307Y-87843406D01*
X112933307Y-87843406D02*
X112881767Y-87814728D01*
X112881767Y-87814728D02*
X112863274Y-87807746D01*
X112863274Y-87807746D02*
X112827460Y-87799485D01*
X112827460Y-87799485D02*
X112774804Y-87781482D01*
X112774804Y-87781482D02*
X112705726Y-87755218D01*
X112705726Y-87755218D02*
X112779501Y-87676754D01*
X112779501Y-87676754D02*
X112879756Y-87593900D01*
X112879756Y-87593900D02*
X112997149Y-87546128D01*
X112997149Y-87546128D02*
X113144304Y-87528651D01*
X113144304Y-87528651D02*
X113170804Y-87528346D01*
X113170804Y-87528346D02*
X113348427Y-87551907D01*
X113348427Y-87551907D02*
X113505083Y-87620339D01*
X113505083Y-87620339D02*
X113635700Y-87730263D01*
X113635700Y-87730263D02*
X113735207Y-87878301D01*
X113735207Y-87878301D02*
X113752511Y-87915861D01*
X113752511Y-87915861D02*
X113810645Y-88017682D01*
X113810645Y-88017682D02*
X113876604Y-88070553D01*
X113876604Y-88070553D02*
X113949284Y-88073855D01*
X113949284Y-88073855D02*
X113995235Y-88052063D01*
X113995235Y-88052063D02*
X114045443Y-87992320D01*
X114045443Y-87992320D02*
X114058420Y-87909458D01*
X114058420Y-87909458D02*
X114038046Y-87810195D01*
X114038046Y-87810195D02*
X113988203Y-87701252D01*
X113988203Y-87701252D02*
X113912771Y-87589349D01*
X113912771Y-87589349D02*
X113815631Y-87481205D01*
X113815631Y-87481205D02*
X113700664Y-87383540D01*
X113700664Y-87383540D02*
X113571751Y-87303073D01*
X113571751Y-87303073D02*
X113558888Y-87296551D01*
X113558888Y-87296551D02*
X113498803Y-87269657D01*
X113498803Y-87269657D02*
X113439449Y-87252089D01*
X113439449Y-87252089D02*
X113367733Y-87241938D01*
X113367733Y-87241938D02*
X113270562Y-87237295D01*
X113270562Y-87237295D02*
X113145375Y-87236246D01*
X113145375Y-87236246D02*
X112853275Y-87236246D01*
X112853275Y-87236246D02*
X112904075Y-87028211D01*
X112904075Y-87028211D02*
X112929255Y-86928871D01*
X112929255Y-86928871D02*
X112953902Y-86862285D01*
X112953902Y-86862285D02*
X112988051Y-86821884D01*
X112988051Y-86821884D02*
X113041741Y-86801102D01*
X113041741Y-86801102D02*
X113125005Y-86793369D01*
X113125005Y-86793369D02*
X113247881Y-86792117D01*
X113247881Y-86792117D02*
X113264870Y-86792092D01*
X113264870Y-86792092D02*
X113496404Y-86814192D01*
X113496404Y-86814192D02*
X113709703Y-86877841D01*
X113709703Y-86877841D02*
X113901653Y-86977863D01*
X113901653Y-86977863D02*
X114069142Y-87109086D01*
X114069142Y-87109086D02*
X114209056Y-87266336D01*
X114209056Y-87266336D02*
X114318282Y-87444438D01*
X114318282Y-87444438D02*
X114393707Y-87638218D01*
X114393707Y-87638218D02*
X114432218Y-87842504D01*
X114432218Y-87842504D02*
X114832745Y-87842504D01*
X114832745Y-87842504D02*
X114820503Y-87679732D01*
X114820503Y-87679732D02*
X114751287Y-87423059D01*
X114751287Y-87423059D02*
X114633465Y-87176912D01*
X114633465Y-87176912D02*
X114467726Y-86943577D01*
X114467726Y-86943577D02*
X114406784Y-86874267D01*
X114406784Y-86874267D02*
X114240629Y-86723657D01*
X114240629Y-86723657D02*
X114043834Y-86593864D01*
X114043834Y-86593864D02*
X113940370Y-86544166D01*
X113940370Y-86544166D02*
X112597283Y-86544166D01*
X112597283Y-86544166D02*
X112587962Y-86616701D01*
X112587962Y-86616701D02*
X112567544Y-86721468D01*
X112567544Y-86721468D02*
X112537835Y-86850271D01*
X112537835Y-86850271D02*
X112500639Y-86994912D01*
X112500639Y-86994912D02*
X112457763Y-87147197D01*
X112457763Y-87147197D02*
X112442549Y-87198146D01*
X112442549Y-87198146D02*
X112269656Y-87685192D01*
X112269656Y-87685192D02*
X112056057Y-88143162D01*
X112056057Y-88143162D02*
X111803686Y-88570404D01*
X111803686Y-88570404D02*
X111514477Y-88965266D01*
X111514477Y-88965266D02*
X111190367Y-89326098D01*
X111190367Y-89326098D02*
X110833290Y-89651248D01*
X110833290Y-89651248D02*
X110445182Y-89939065D01*
X110445182Y-89939065D02*
X110027976Y-90187898D01*
X110027976Y-90187898D02*
X109583609Y-90396096D01*
X109583609Y-90396096D02*
X109114015Y-90562006D01*
X109114015Y-90562006D02*
X108621130Y-90683979D01*
X108621130Y-90683979D02*
X108293975Y-90738272D01*
X108293975Y-90738272D02*
X108111708Y-90756737D01*
X108111708Y-90756737D02*
X107893928Y-90768977D01*
X107893928Y-90768977D02*
X107655548Y-90774946D01*
X107655548Y-90774946D02*
X107411477Y-90774601D01*
X107411477Y-90774601D02*
X107176627Y-90767900D01*
X107176627Y-90767900D02*
X106965908Y-90754799D01*
X106965908Y-90754799D02*
X106846175Y-90742485D01*
X106846175Y-90742485D02*
X106311587Y-90651540D01*
X106311587Y-90651540D02*
X105789837Y-90515440D01*
X105789837Y-90515440D02*
X105284985Y-90336121D01*
X105284985Y-90336121D02*
X104801087Y-90115522D01*
X104801087Y-90115522D02*
X104342203Y-89855580D01*
X104342203Y-89855580D02*
X103912390Y-89558232D01*
X103912390Y-89558232D02*
X103515706Y-89225418D01*
X103515706Y-89225418D02*
X103364336Y-89079915D01*
X103364336Y-89079915D02*
X103045937Y-88733289D01*
X103045937Y-88733289D02*
X102773488Y-88374700D01*
X102773488Y-88374700D02*
X102542358Y-87996872D01*
X102542358Y-87996872D02*
X102347913Y-87592528D01*
X102347913Y-87592528D02*
X102239147Y-87312446D01*
X102239147Y-87312446D02*
X102123911Y-86920892D01*
X102123911Y-86920892D02*
X102045682Y-86503127D01*
X102045682Y-86503127D02*
X102004884Y-86068183D01*
X102004884Y-86068183D02*
X102001939Y-85625096D01*
X102001939Y-85625096D02*
X102037271Y-85182899D01*
X102037271Y-85182899D02*
X102111303Y-84750626D01*
X102111303Y-84750626D02*
X102117792Y-84721646D01*
X102117792Y-84721646D02*
X102139330Y-84627566D01*
X102139330Y-84627566D02*
X102159470Y-84566634D01*
X102159470Y-84566634D02*
X102187909Y-84534840D01*
X102187909Y-84534840D02*
X102234343Y-84528174D01*
X102234343Y-84528174D02*
X102308470Y-84542626D01*
X102308470Y-84542626D02*
X102419987Y-84574186D01*
X102419987Y-84574186D02*
X102451975Y-84583452D01*
X102451975Y-84583452D02*
X102562485Y-84610713D01*
X102562485Y-84610713D02*
X102677612Y-84628213D01*
X102677612Y-84628213D02*
X102813402Y-84637770D01*
X102813402Y-84637770D02*
X102959975Y-84641032D01*
X102959975Y-84641032D02*
X103093041Y-84641185D01*
X103093041Y-84641185D02*
X103197733Y-84637608D01*
X103197733Y-84637608D02*
X103289513Y-84628041D01*
X103289513Y-84628041D02*
X103383842Y-84610227D01*
X103383842Y-84610227D02*
X103496181Y-84581907D01*
X103496181Y-84581907D02*
X103637797Y-84542028D01*
X103637797Y-84542028D02*
X103648614Y-84547311D01*
X103648614Y-84547311D02*
X103640301Y-84576678D01*
X103640301Y-84576678D02*
X103610975Y-84633382D01*
X103610975Y-84633382D02*
X103558751Y-84720673D01*
X103558751Y-84720673D02*
X103481746Y-84841801D01*
X103481746Y-84841801D02*
X103378075Y-85000018D01*
X103378075Y-85000018D02*
X103332747Y-85068359D01*
X103332747Y-85068359D02*
X103158417Y-85336156D01*
X103158417Y-85336156D02*
X103009227Y-85577082D01*
X103009227Y-85577082D02*
X102886372Y-85788909D01*
X102886372Y-85788909D02*
X102791052Y-85969411D01*
X102791052Y-85969411D02*
X102724462Y-86116362D01*
X102724462Y-86116362D02*
X102687800Y-86227535D01*
X102687800Y-86227535D02*
X102680575Y-86281264D01*
X102680575Y-86281264D02*
X102705363Y-86381806D01*
X102705363Y-86381806D02*
X102778839Y-86473045D01*
X102778839Y-86473045D02*
X102899673Y-86554555D01*
X102899673Y-86554555D02*
X103066537Y-86625911D01*
X103066537Y-86625911D02*
X103278100Y-86686687D01*
X103278100Y-86686687D02*
X103533032Y-86736460D01*
X103533032Y-86736460D02*
X103830004Y-86774803D01*
X103830004Y-86774803D02*
X104167685Y-86801292D01*
X104167685Y-86801292D02*
X104331575Y-86809191D01*
X104331575Y-86809191D02*
X104476750Y-86814465D01*
X104476750Y-86814465D02*
X104580279Y-86816365D01*
X104580279Y-86816365D02*
X104651249Y-86814124D01*
X104651249Y-86814124D02*
X104698750Y-86806977D01*
X104698750Y-86806977D02*
X104731868Y-86794160D01*
X104731868Y-86794160D02*
X104759690Y-86774908D01*
X104759690Y-86774908D02*
X104762106Y-86772948D01*
X104762106Y-86772948D02*
X104811618Y-86702869D01*
X104811618Y-86702869D02*
X104825660Y-86614971D01*
X104825660Y-86614971D02*
X104803604Y-86528407D01*
X104803604Y-86528407D02*
X104771591Y-86483873D01*
X104771591Y-86483873D02*
X104746370Y-86463463D01*
X104746370Y-86463463D02*
X104711869Y-86448013D01*
X104711869Y-86448013D02*
X104659783Y-86436147D01*
X104659783Y-86436147D02*
X104581811Y-86426491D01*
X104581811Y-86426491D02*
X104469650Y-86417667D01*
X104469650Y-86417667D02*
X104315661Y-86408339D01*
X104315661Y-86408339D02*
X104087524Y-86392613D01*
X104087524Y-86392613D02*
X103869160Y-86372204D01*
X103869160Y-86372204D02*
X103666555Y-86348089D01*
X103666555Y-86348089D02*
X103485691Y-86321243D01*
X103485691Y-86321243D02*
X103332554Y-86292643D01*
X103332554Y-86292643D02*
X103213126Y-86263265D01*
X103213126Y-86263265D02*
X103133392Y-86234086D01*
X103133392Y-86234086D02*
X103101308Y-86210187D01*
X103101308Y-86210187D02*
X103107128Y-86175293D01*
X103107128Y-86175293D02*
X103142145Y-86101831D01*
X103142145Y-86101831D02*
X103205003Y-85991816D01*
X103205003Y-85991816D02*
X103294341Y-85847262D01*
X103294341Y-85847262D02*
X103408802Y-85670183D01*
X103408802Y-85670183D02*
X103547027Y-85462594D01*
X103547027Y-85462594D02*
X103707658Y-85226509D01*
X103707658Y-85226509D02*
X103889335Y-84963943D01*
X103889335Y-84963943D02*
X104090701Y-84676911D01*
X104090701Y-84676911D02*
X104310397Y-84367426D01*
X104310397Y-84367426D02*
X104547064Y-84037503D01*
X104547064Y-84037503D02*
X104799344Y-83689157D01*
X104799344Y-83689157D02*
X104828913Y-83648532D01*
X104828913Y-83648532D02*
X104915880Y-83529598D01*
X104915880Y-83529598D02*
X104979440Y-83445649D01*
X104979440Y-83445649D02*
X105026070Y-83390589D01*
X105026070Y-83390589D02*
X105062248Y-83358326D01*
X105062248Y-83358326D02*
X105094453Y-83342763D01*
X105094453Y-83342763D02*
X105129160Y-83337806D01*
X105129160Y-83337806D02*
X105159615Y-83337382D01*
X105159615Y-83337382D02*
X105277237Y-83361464D01*
X105277237Y-83361464D02*
X105392840Y-83429326D01*
X105392840Y-83429326D02*
X105498692Y-83534273D01*
X105498692Y-83534273D02*
X105587061Y-83669606D01*
X105587061Y-83669606D02*
X105616939Y-83733503D01*
X105616939Y-83733503D02*
X105633684Y-83776984D01*
X105633684Y-83776984D02*
X105640242Y-83814461D01*
X105640242Y-83814461D02*
X105634119Y-83857313D01*
X105634119Y-83857313D02*
X105612820Y-83916917D01*
X105612820Y-83916917D02*
X105573849Y-84004651D01*
X105573849Y-84004651D02*
X105542809Y-84071526D01*
X105542809Y-84071526D02*
X105417129Y-84397430D01*
X105417129Y-84397430D02*
X105340058Y-84727487D01*
X105340058Y-84727487D02*
X105310883Y-85057649D01*
X105310883Y-85057649D02*
X105328887Y-85383870D01*
X105328887Y-85383870D02*
X105393359Y-85702101D01*
X105393359Y-85702101D02*
X105503583Y-86008296D01*
X105503583Y-86008296D02*
X105658846Y-86298408D01*
X105658846Y-86298408D02*
X105858433Y-86568390D01*
X105858433Y-86568390D02*
X106012151Y-86731703D01*
X106012151Y-86731703D02*
X106274242Y-86952660D01*
X106274242Y-86952660D02*
X106556128Y-87126853D01*
X106556128Y-87126853D02*
X106858302Y-87254495D01*
X106858302Y-87254495D02*
X107181260Y-87335805D01*
X107181260Y-87335805D02*
X107468588Y-87368435D01*
X107468588Y-87368435D02*
X107816977Y-87365672D01*
X107816977Y-87365672D02*
X108144355Y-87316860D01*
X108144355Y-87316860D02*
X108452436Y-87221351D01*
X108452436Y-87221351D02*
X108742936Y-87078493D01*
X108742936Y-87078493D02*
X109017567Y-86887638D01*
X109017567Y-86887638D02*
X109224082Y-86702846D01*
X109224082Y-86702846D02*
X109453375Y-86446285D01*
X109453375Y-86446285D02*
X109633823Y-86177316D01*
X109633823Y-86177316D02*
X109766316Y-85893889D01*
X109766316Y-85893889D02*
X109851742Y-85593953D01*
X109851742Y-85593953D02*
X109890989Y-85275458D01*
X109890989Y-85275458D02*
X109893946Y-85158545D01*
X109893946Y-85158545D02*
X109487400Y-85158545D01*
X109487400Y-85158545D02*
X109482823Y-85333528D01*
X109482823Y-85333528D02*
X109465701Y-85481849D01*
X109465701Y-85481849D02*
X109431884Y-85621059D01*
X109431884Y-85621059D02*
X109377219Y-85768707D01*
X109377219Y-85768707D02*
X109306282Y-85924316D01*
X109306282Y-85924316D02*
X109237379Y-86059847D01*
X109237379Y-86059847D02*
X109172782Y-86165991D01*
X109172782Y-86165991D02*
X109099616Y-86261169D01*
X109099616Y-86261169D02*
X109005007Y-86363799D01*
X109005007Y-86363799D02*
X108984443Y-86384751D01*
X108984443Y-86384751D02*
X108886113Y-86478860D01*
X108886113Y-86478860D02*
X108783556Y-86567859D01*
X108783556Y-86567859D02*
X108685658Y-86644947D01*
X108685658Y-86644947D02*
X108601306Y-86703325D01*
X108601306Y-86703325D02*
X108539387Y-86736193D01*
X108539387Y-86736193D02*
X108518899Y-86740946D01*
X108518899Y-86740946D02*
X108515213Y-86720550D01*
X108515213Y-86720550D02*
X108529826Y-86669867D01*
X108529826Y-86669867D02*
X108536572Y-86652861D01*
X108536572Y-86652861D02*
X108571064Y-86508723D01*
X108571064Y-86508723D02*
X108560884Y-86362085D01*
X108560884Y-86362085D02*
X108510773Y-86222242D01*
X108510773Y-86222242D02*
X108425470Y-86098490D01*
X108425470Y-86098490D02*
X108309716Y-86000126D01*
X108309716Y-86000126D02*
X108171797Y-85937462D01*
X108171797Y-85937462D02*
X108006294Y-85910945D01*
X108006294Y-85910945D02*
X107855289Y-85932834D01*
X107855289Y-85932834D02*
X107716046Y-86003837D01*
X107716046Y-86003837D02*
X107629902Y-86077303D01*
X107629902Y-86077303D02*
X107525595Y-86210390D01*
X107525595Y-86210390D02*
X107470395Y-86354065D01*
X107470395Y-86354065D02*
X107463143Y-86511563D01*
X107463143Y-86511563D02*
X107465960Y-86535426D01*
X107465960Y-86535426D02*
X107499135Y-86657801D01*
X107499135Y-86657801D02*
X107559319Y-86776747D01*
X107559319Y-86776747D02*
X107636110Y-86874610D01*
X107636110Y-86874610D02*
X107692729Y-86920242D01*
X107692729Y-86920242D02*
X107773275Y-86969356D01*
X107773275Y-86969356D02*
X107570075Y-86969010D01*
X107570075Y-86969010D02*
X107441273Y-86963535D01*
X107441273Y-86963535D02*
X107302638Y-86949557D01*
X107302638Y-86949557D02*
X107189804Y-86931155D01*
X107189804Y-86931155D02*
X106960559Y-86862345D01*
X106960559Y-86862345D02*
X106727247Y-86755865D01*
X106727247Y-86755865D02*
X106505049Y-86620470D01*
X106505049Y-86620470D02*
X106309143Y-86464913D01*
X106309143Y-86464913D02*
X106212191Y-86367393D01*
X106212191Y-86367393D02*
X106045537Y-86149648D01*
X106045537Y-86149648D02*
X105905842Y-85902515D01*
X105905842Y-85902515D02*
X105799109Y-85639447D01*
X105799109Y-85639447D02*
X105731341Y-85373896D01*
X105731341Y-85373896D02*
X105714707Y-85252568D01*
X105714707Y-85252568D02*
X105710185Y-85077842D01*
X105710185Y-85077842D02*
X105724807Y-84878482D01*
X105724807Y-84878482D02*
X105756060Y-84675809D01*
X105756060Y-84675809D02*
X105801432Y-84491140D01*
X105801432Y-84491140D02*
X105806255Y-84475716D01*
X105806255Y-84475716D02*
X105894629Y-84255300D01*
X105894629Y-84255300D02*
X106016163Y-84033153D01*
X106016163Y-84033153D02*
X106161328Y-83823533D01*
X106161328Y-83823533D02*
X106320598Y-83640693D01*
X106320598Y-83640693D02*
X106432468Y-83538634D01*
X106432468Y-83538634D02*
X106665829Y-83379912D01*
X106665829Y-83379912D02*
X106915729Y-83268411D01*
X106915729Y-83268411D02*
X107179400Y-83204364D01*
X107179400Y-83204364D02*
X107454068Y-83188005D01*
X107454068Y-83188005D02*
X107736964Y-83219568D01*
X107736964Y-83219568D02*
X108025316Y-83299288D01*
X108025316Y-83299288D02*
X108234386Y-83386461D01*
X108234386Y-83386461D02*
X108442401Y-83492952D01*
X108442401Y-83492952D02*
X108616878Y-83600375D01*
X108616878Y-83600375D02*
X108774124Y-83719464D01*
X108774124Y-83719464D02*
X108874360Y-83807789D01*
X108874360Y-83807789D02*
X109091084Y-84039731D01*
X109091084Y-84039731D02*
X109261379Y-84290731D01*
X109261379Y-84290731D02*
X109384608Y-84559387D01*
X109384608Y-84559387D02*
X109460135Y-84844296D01*
X109460135Y-84844296D02*
X109487322Y-85144057D01*
X109487322Y-85144057D02*
X109487400Y-85158545D01*
X109487400Y-85158545D02*
X109893946Y-85158545D01*
X109893946Y-85158545D02*
X109893984Y-85157078D01*
X109893984Y-85157078D02*
X109895677Y-85065082D01*
X109895677Y-85065082D02*
X109902094Y-85014484D01*
X109902094Y-85014484D02*
X109915624Y-84995936D01*
X109915624Y-84995936D02*
X109934540Y-84998400D01*
X109934540Y-84998400D02*
X109963249Y-85013418D01*
X109963249Y-85013418D02*
X110031140Y-85050891D01*
X110031140Y-85050891D02*
X110133479Y-85108122D01*
X110133479Y-85108122D02*
X110265531Y-85182416D01*
X110265531Y-85182416D02*
X110422562Y-85271080D01*
X110422562Y-85271080D02*
X110599835Y-85371416D01*
X110599835Y-85371416D02*
X110792617Y-85480730D01*
X110792617Y-85480730D02*
X110996173Y-85596328D01*
X110996173Y-85596328D02*
X111205767Y-85715513D01*
X111205767Y-85715513D02*
X111416666Y-85835591D01*
X111416666Y-85835591D02*
X111624134Y-85953866D01*
X111624134Y-85953866D02*
X111823437Y-86067644D01*
X111823437Y-86067644D02*
X112009839Y-86174228D01*
X112009839Y-86174228D02*
X112178607Y-86270925D01*
X112178607Y-86270925D02*
X112325004Y-86355038D01*
X112325004Y-86355038D02*
X112444297Y-86423873D01*
X112444297Y-86423873D02*
X112531751Y-86474735D01*
X112531751Y-86474735D02*
X112582630Y-86504928D01*
X112582630Y-86504928D02*
X112593700Y-86512058D01*
X112593700Y-86512058D02*
X112597283Y-86544166D01*
X112597283Y-86544166D02*
X113940370Y-86544166D01*
X113940370Y-86544166D02*
X113828941Y-86490643D01*
X113828941Y-86490643D02*
X113608492Y-86419747D01*
X113608492Y-86419747D02*
X113395031Y-86386931D01*
X113395031Y-86386931D02*
X113341045Y-86385346D01*
X113341045Y-86385346D02*
X113240371Y-86378130D01*
X113240371Y-86378130D02*
X113151748Y-86359415D01*
X113151748Y-86359415D02*
X113117777Y-86346108D01*
X113117777Y-86346108D02*
X113068786Y-86315647D01*
X113068786Y-86315647D02*
X113052538Y-86280783D01*
X113052538Y-86280783D02*
X113060092Y-86220274D01*
X113060092Y-86220274D02*
X113061652Y-86212758D01*
X113061652Y-86212758D02*
X113071160Y-86136226D01*
X113071160Y-86136226D02*
X113077661Y-86018280D01*
X113077661Y-86018280D02*
X113081316Y-85868205D01*
X113081316Y-85868205D02*
X113082286Y-85695290D01*
X113082286Y-85695290D02*
X113081664Y-85620584D01*
X113081664Y-85620584D02*
X112688437Y-85620584D01*
X112688437Y-85620584D02*
X112685833Y-85765961D01*
X112685833Y-85765961D02*
X112679822Y-85891119D01*
X112679822Y-85891119D02*
X112670549Y-85988667D01*
X112670549Y-85988667D02*
X112658158Y-86051214D01*
X112658158Y-86051214D02*
X112642793Y-86071369D01*
X112642793Y-86071369D02*
X112640633Y-86070518D01*
X112640633Y-86070518D02*
X112616264Y-86056619D01*
X112616264Y-86056619D02*
X112551653Y-86019802D01*
X112551653Y-86019802D02*
X112450701Y-85962289D01*
X112450701Y-85962289D02*
X112317308Y-85886302D01*
X112317308Y-85886302D02*
X112155377Y-85794064D01*
X112155377Y-85794064D02*
X111968808Y-85687796D01*
X111968808Y-85687796D02*
X111761502Y-85569721D01*
X111761502Y-85569721D02*
X111537360Y-85442061D01*
X111537360Y-85442061D02*
X111316575Y-85316316D01*
X111316575Y-85316316D02*
X111076487Y-85179639D01*
X111076487Y-85179639D02*
X110846609Y-85048889D01*
X110846609Y-85048889D02*
X110631260Y-84926515D01*
X110631260Y-84926515D02*
X110434759Y-84814966D01*
X110434759Y-84814966D02*
X110261423Y-84716691D01*
X110261423Y-84716691D02*
X110115572Y-84634138D01*
X110115572Y-84634138D02*
X110001524Y-84569756D01*
X110001524Y-84569756D02*
X109923598Y-84525994D01*
X109923598Y-84525994D02*
X109888882Y-84506781D01*
X109888882Y-84506781D02*
X109806954Y-84453806D01*
X109806954Y-84453806D02*
X109755894Y-84393132D01*
X109755894Y-84393132D02*
X109725845Y-84327946D01*
X109725845Y-84327946D02*
X109639340Y-84146221D01*
X109639340Y-84146221D02*
X109516320Y-83951886D01*
X109516320Y-83951886D02*
X109365503Y-83755452D01*
X109365503Y-83755452D02*
X109195606Y-83567432D01*
X109195606Y-83567432D02*
X109015348Y-83398337D01*
X109015348Y-83398337D02*
X108846513Y-83267598D01*
X108846513Y-83267598D02*
X108536973Y-83079559D01*
X108536973Y-83079559D02*
X108223163Y-82937808D01*
X108223163Y-82937808D02*
X107908213Y-82842284D01*
X107908213Y-82842284D02*
X107595253Y-82792928D01*
X107595253Y-82792928D02*
X107287413Y-82789676D01*
X107287413Y-82789676D02*
X106987826Y-82832469D01*
X106987826Y-82832469D02*
X106699620Y-82921245D01*
X106699620Y-82921245D02*
X106425927Y-83055943D01*
X106425927Y-83055943D02*
X106169877Y-83236502D01*
X106169877Y-83236502D02*
X106072913Y-83321726D01*
X106072913Y-83321726D02*
X106007613Y-83380767D01*
X106007613Y-83380767D02*
X105957111Y-83422879D01*
X105957111Y-83422879D02*
X105932341Y-83438945D01*
X105932341Y-83438945D02*
X105932339Y-83438946D01*
X105932339Y-83438946D02*
X105910684Y-83419367D01*
X105910684Y-83419367D02*
X105877550Y-83371479D01*
X105877550Y-83371479D02*
X105873049Y-83363986D01*
X105873049Y-83363986D02*
X105757750Y-83215706D01*
X105757750Y-83215706D02*
X105606477Y-83091768D01*
X105606477Y-83091768D02*
X105431076Y-82999367D01*
X105431076Y-82999367D02*
X105243392Y-82945696D01*
X105243392Y-82945696D02*
X105169749Y-82936839D01*
X105169749Y-82936839D02*
X104993889Y-82924257D01*
X104993889Y-82924257D02*
X104993808Y-82748601D01*
X104993808Y-82748601D02*
X104595330Y-82748601D01*
X104595330Y-82748601D02*
X104585452Y-82913756D01*
X104585452Y-82913756D02*
X104561375Y-83053909D01*
X104561375Y-83053909D02*
X104548808Y-83096046D01*
X104548808Y-83096046D02*
X104465006Y-83302338D01*
X104465006Y-83302338D02*
X104366289Y-83487882D01*
X104366289Y-83487882D02*
X104260257Y-83638656D01*
X104260257Y-83638656D02*
X104245039Y-83656444D01*
X104245039Y-83656444D02*
X104136294Y-83780024D01*
X104136294Y-83780024D02*
X104138353Y-83628486D01*
X104138353Y-83628486D02*
X104125123Y-83486495D01*
X104125123Y-83486495D02*
X104076785Y-83369563D01*
X104076785Y-83369563D02*
X103986848Y-83264302D01*
X103986848Y-83264302D02*
X103943836Y-83227331D01*
X103943836Y-83227331D02*
X103821944Y-83159312D01*
X103821944Y-83159312D02*
X103685718Y-83133696D01*
X103685718Y-83133696D02*
X103546137Y-83148842D01*
X103546137Y-83148842D02*
X103414182Y-83203110D01*
X103414182Y-83203110D02*
X103300833Y-83294860D01*
X103300833Y-83294860D02*
X103273607Y-83327460D01*
X103273607Y-83327460D02*
X103229431Y-83398130D01*
X103229431Y-83398130D02*
X103204745Y-83477104D01*
X103204745Y-83477104D02*
X103193030Y-83580855D01*
X103193030Y-83580855D02*
X103190309Y-83679570D01*
X103190309Y-83679570D02*
X103200541Y-83751081D01*
X103200541Y-83751081D02*
X103228400Y-83818306D01*
X103228400Y-83818306D02*
X103248945Y-83854995D01*
X103248945Y-83854995D02*
X103347961Y-83976999D01*
X103347961Y-83976999D02*
X103477027Y-84058453D01*
X103477027Y-84058453D02*
X103569575Y-84087332D01*
X103569575Y-84087332D02*
X103626484Y-84100604D01*
X103626484Y-84100604D02*
X103637920Y-84110842D01*
X103637920Y-84110842D02*
X103608164Y-84125289D01*
X103608164Y-84125289D02*
X103594975Y-84130337D01*
X103594975Y-84130337D02*
X103333761Y-84206845D01*
X103333761Y-84206845D02*
X103064691Y-84243331D01*
X103064691Y-84243331D02*
X102798853Y-84239442D01*
X102798853Y-84239442D02*
X102547337Y-84194824D01*
X102547337Y-84194824D02*
X102456373Y-84166608D01*
X102456373Y-84166608D02*
X102185590Y-84045637D01*
X102185590Y-84045637D02*
X101946361Y-83885800D01*
X101946361Y-83885800D02*
X101741313Y-83689914D01*
X101741313Y-83689914D02*
X101573073Y-83460793D01*
X101573073Y-83460793D02*
X101444269Y-83201256D01*
X101444269Y-83201256D02*
X101382246Y-83015065D01*
X101382246Y-83015065D02*
X101345437Y-82811469D01*
X101345437Y-82811469D02*
X101336438Y-82584933D01*
X101336438Y-82584933D02*
X101354493Y-82354527D01*
X101354493Y-82354527D02*
X101398849Y-82139318D01*
X101398849Y-82139318D02*
X101419501Y-82073818D01*
X101419501Y-82073818D02*
X101536772Y-81799878D01*
X101536772Y-81799878D02*
X101685124Y-81557881D01*
X101685124Y-81557881D02*
X101861197Y-81351890D01*
X101861197Y-81351890D02*
X102061630Y-81185969D01*
X102061630Y-81185969D02*
X102237339Y-81084773D01*
X102237339Y-81084773D02*
X102340114Y-81038315D01*
X102340114Y-81038315D02*
X102423462Y-81008926D01*
X102423462Y-81008926D02*
X102507111Y-80991956D01*
X102507111Y-80991956D02*
X102610786Y-80982756D01*
X102610786Y-80982756D02*
X102684931Y-80979264D01*
X102684931Y-80979264D02*
X102819377Y-80976631D01*
X102819377Y-80976631D02*
X102927276Y-80983113D01*
X102927276Y-80983113D02*
X103032490Y-81001527D01*
X103032490Y-81001527D02*
X103158880Y-81034691D01*
X103158880Y-81034691D02*
X103161943Y-81035568D01*
X103161943Y-81035568D02*
X103458366Y-81143381D01*
X103458366Y-81143381D02*
X103731261Y-81288130D01*
X103731261Y-81288130D02*
X103976010Y-81465663D01*
X103976010Y-81465663D02*
X104187997Y-81671827D01*
X104187997Y-81671827D02*
X104362604Y-81902471D01*
X104362604Y-81902471D02*
X104495215Y-82153443D01*
X104495215Y-82153443D02*
X104541339Y-82276078D01*
X104541339Y-82276078D02*
X104573116Y-82412465D01*
X104573116Y-82412465D02*
X104591165Y-82575738D01*
X104591165Y-82575738D02*
X104595330Y-82748601D01*
X104595330Y-82748601D02*
X104993808Y-82748601D01*
X104993808Y-82748601D02*
X104993775Y-82679951D01*
X104993775Y-82679951D02*
X104971897Y-82395258D01*
X104971897Y-82395258D02*
X104909070Y-82116114D01*
X104909070Y-82116114D02*
X104850575Y-81952766D01*
X104850575Y-81952766D02*
X104789299Y-81830703D01*
X104789299Y-81830703D02*
X104701827Y-81689001D01*
X104701827Y-81689001D02*
X104598643Y-81543168D01*
X104598643Y-81543168D02*
X104490230Y-81408711D01*
X104490230Y-81408711D02*
X104459424Y-81374185D01*
X104459424Y-81374185D02*
X104403380Y-81314688D01*
X104403380Y-81314688D02*
X104366574Y-81271850D01*
X104366574Y-81271850D02*
X104352322Y-81237856D01*
X104352322Y-81237856D02*
X104363943Y-81204890D01*
X104363943Y-81204890D02*
X104404755Y-81165137D01*
X104404755Y-81165137D02*
X104478074Y-81110782D01*
X104478074Y-81110782D02*
X104587218Y-81034010D01*
X104587218Y-81034010D02*
X104610975Y-81017170D01*
X104610975Y-81017170D02*
X104727434Y-80934759D01*
X104727434Y-80934759D02*
X104810697Y-80879078D01*
X104810697Y-80879078D02*
X104869177Y-80847711D01*
X104869177Y-80847711D02*
X104911287Y-80838244D01*
X104911287Y-80838244D02*
X104945438Y-80848261D01*
X104945438Y-80848261D02*
X104980044Y-80875346D01*
X104980044Y-80875346D02*
X105008814Y-80902947D01*
X105008814Y-80902947D02*
X105122732Y-81036181D01*
X105122732Y-81036181D02*
X105223529Y-81196460D01*
X105223529Y-81196460D02*
X105285378Y-81330746D01*
X105285378Y-81330746D02*
X105342816Y-81444273D01*
X105342816Y-81444273D02*
X105412920Y-81510957D01*
X105412920Y-81510957D02*
X105499016Y-81533892D01*
X105499016Y-81533892D02*
X105503944Y-81533946D01*
X105503944Y-81533946D02*
X105580436Y-81513454D01*
X105580436Y-81513454D02*
X105649245Y-81461929D01*
X105649245Y-81461929D02*
X105694147Y-81394297D01*
X105694147Y-81394297D02*
X105702865Y-81350950D01*
X105702865Y-81350950D02*
X105689791Y-81283813D01*
X105689791Y-81283813D02*
X105655098Y-81186813D01*
X105655098Y-81186813D02*
X105604814Y-81072704D01*
X105604814Y-81072704D02*
X105544967Y-80954241D01*
X105544967Y-80954241D02*
X105481587Y-80844178D01*
X105481587Y-80844178D02*
X105422265Y-80757288D01*
X105422265Y-80757288D02*
X105370370Y-80687027D01*
X105370370Y-80687027D02*
X105335453Y-80633895D01*
X105335453Y-80633895D02*
X105324701Y-80608876D01*
X105324701Y-80608876D02*
X105324938Y-80608549D01*
X105324938Y-80608549D02*
X105360553Y-80587606D01*
X105360553Y-80587606D02*
X105432811Y-80554295D01*
X105432811Y-80554295D02*
X105530469Y-80513199D01*
X105530469Y-80513199D02*
X105642283Y-80468905D01*
X105642283Y-80468905D02*
X105757009Y-80425997D01*
X105757009Y-80425997D02*
X105861880Y-80389564D01*
X105861880Y-80389564D02*
X106344442Y-80256626D01*
X106344442Y-80256626D02*
X106832900Y-80173994D01*
X106832900Y-80173994D02*
X107326443Y-80141618D01*
X107326443Y-80141618D02*
X107824260Y-80159448D01*
X107824260Y-80159448D02*
X108325541Y-80227434D01*
X108325541Y-80227434D02*
X108829476Y-80345528D01*
X108829476Y-80345528D02*
X109335252Y-80513679D01*
X109335252Y-80513679D02*
X109592152Y-80618050D01*
X109592152Y-80618050D02*
X110008741Y-80824553D01*
X110008741Y-80824553D02*
X110409779Y-81076911D01*
X110409779Y-81076911D02*
X110791145Y-81371481D01*
X110791145Y-81371481D02*
X111148720Y-81704622D01*
X111148720Y-81704622D02*
X111478385Y-82072691D01*
X111478385Y-82072691D02*
X111776020Y-82472045D01*
X111776020Y-82472045D02*
X111893035Y-82652327D01*
X111893035Y-82652327D02*
X112107609Y-83039521D01*
X112107609Y-83039521D02*
X112293204Y-83461008D01*
X112293204Y-83461008D02*
X112446714Y-83907365D01*
X112446714Y-83907365D02*
X112565033Y-84369169D01*
X112565033Y-84369169D02*
X112645052Y-84836994D01*
X112645052Y-84836994D02*
X112661888Y-84984687D01*
X112661888Y-84984687D02*
X112674359Y-85137038D01*
X112674359Y-85137038D02*
X112682845Y-85298731D01*
X112682845Y-85298731D02*
X112687489Y-85462377D01*
X112687489Y-85462377D02*
X112688437Y-85620584D01*
X112688437Y-85620584D02*
X113081664Y-85620584D01*
X113081664Y-85620584D02*
X113080731Y-85508821D01*
X113080731Y-85508821D02*
X113076814Y-85318085D01*
X113076814Y-85318085D02*
X113070696Y-85132368D01*
X113070696Y-85132368D02*
X113062537Y-84960957D01*
X113062537Y-84960957D02*
X113052499Y-84813139D01*
X113052499Y-84813139D02*
X113040743Y-84698200D01*
X113040743Y-84698200D02*
X113034664Y-84658146D01*
X113034664Y-84658146D02*
X112988085Y-84413241D01*
X112988085Y-84413241D02*
X112938692Y-84183569D01*
X112938692Y-84183569D02*
X112889092Y-83980445D01*
X112889092Y-83980445D02*
X112841895Y-83815185D01*
X112841895Y-83815185D02*
X112836582Y-83798638D01*
X112836582Y-83798638D02*
X112813032Y-83714363D01*
X112813032Y-83714363D02*
X112802118Y-83649475D01*
X112802118Y-83649475D02*
X112806003Y-83618507D01*
X112806003Y-83618507D02*
X112841305Y-83603087D01*
X112841305Y-83603087D02*
X112909625Y-83583237D01*
X112909625Y-83583237D02*
X112971618Y-83568660D01*
X112971618Y-83568660D02*
X113188846Y-83500348D01*
X113188846Y-83500348D02*
X113404795Y-83392434D01*
X113404795Y-83392434D02*
X113607125Y-83253380D01*
X113607125Y-83253380D02*
X113783498Y-83091649D01*
X113783498Y-83091649D02*
X113919951Y-82918246D01*
X113919951Y-82918246D02*
X114010060Y-82760814D01*
X114010060Y-82760814D02*
X114070157Y-82609974D01*
X114070157Y-82609974D02*
X114105046Y-82448696D01*
X114105046Y-82448696D02*
X114119529Y-82259950D01*
X114119529Y-82259950D02*
X114120519Y-82207046D01*
X114120519Y-82207046D02*
X114120055Y-82070958D01*
X114120055Y-82070958D02*
X114113731Y-81966402D01*
X114113731Y-81966402D02*
X114098834Y-81874203D01*
X114098834Y-81874203D02*
X114072648Y-81775189D01*
X114072648Y-81775189D02*
X114048598Y-81699046D01*
X114048598Y-81699046D02*
X113987634Y-81539017D01*
X113987634Y-81539017D02*
X113923861Y-81426564D01*
X113923861Y-81426564D02*
X113854765Y-81358462D01*
X113854765Y-81358462D02*
X113777833Y-81331489D01*
X113777833Y-81331489D02*
X113761357Y-81330746D01*
X113761357Y-81330746D02*
X113679973Y-81353482D01*
X113679973Y-81353482D02*
X113629573Y-81392545D01*
X113629573Y-81392545D02*
X113596700Y-81440683D01*
X113596700Y-81440683D02*
X113583098Y-81500735D01*
X113583098Y-81500735D02*
X113589426Y-81581202D01*
X113589426Y-81581202D02*
X113616344Y-81690587D01*
X113616344Y-81690587D02*
X113663925Y-81835720D01*
X113663925Y-81835720D02*
X113719981Y-82062132D01*
X113719981Y-82062132D02*
X113727875Y-82279711D01*
X113727875Y-82279711D02*
X113688436Y-82484860D01*
X113688436Y-82484860D02*
X113602492Y-82673984D01*
X113602492Y-82673984D02*
X113470870Y-82843487D01*
X113470870Y-82843487D02*
X113420836Y-82891564D01*
X113420836Y-82891564D02*
X113268580Y-83007975D01*
X113268580Y-83007975D02*
X113098895Y-83103251D01*
X113098895Y-83103251D02*
X112925418Y-83171369D01*
X112925418Y-83171369D02*
X112761785Y-83206305D01*
X112761785Y-83206305D02*
X112700875Y-83209638D01*
X112700875Y-83209638D02*
X112665708Y-83206654D01*
X112665708Y-83206654D02*
X112637167Y-83192350D01*
X112637167Y-83192350D02*
X112608977Y-83158533D01*
X112608977Y-83158533D02*
X112574860Y-83097008D01*
X112574860Y-83097008D02*
X112528540Y-82999582D01*
X112528540Y-82999582D02*
X112511400Y-82962289D01*
X112511400Y-82962289D02*
X112297811Y-82549652D01*
X112297811Y-82549652D02*
X112038838Y-82146088D01*
X112038838Y-82146088D02*
X111732292Y-81748338D01*
X111732292Y-81748338D02*
X111571136Y-81562450D01*
X111571136Y-81562450D02*
X111477612Y-81457297D01*
X111477612Y-81457297D02*
X111414648Y-81383093D01*
X111414648Y-81383093D02*
X111378184Y-81333610D01*
X111378184Y-81333610D02*
X111364158Y-81302620D01*
X111364158Y-81302620D02*
X111368508Y-81283896D01*
X111368508Y-81283896D02*
X111382683Y-81273463D01*
X111382683Y-81273463D02*
X111442691Y-81230069D01*
X111442691Y-81230069D02*
X111523115Y-81156016D01*
X111523115Y-81156016D02*
X111614519Y-81061752D01*
X111614519Y-81061752D02*
X111707468Y-80957722D01*
X111707468Y-80957722D02*
X111792528Y-80854372D01*
X111792528Y-80854372D02*
X111860263Y-80762151D01*
X111860263Y-80762151D02*
X111893136Y-80708265D01*
X111893136Y-80708265D02*
X112002883Y-80449685D01*
X112002883Y-80449685D02*
X112064089Y-80187457D01*
X112064089Y-80187457D02*
X112077380Y-79926163D01*
X112077380Y-79926163D02*
X112043379Y-79670383D01*
X112043379Y-79670383D02*
X111962710Y-79424698D01*
X111962710Y-79424698D02*
X111835997Y-79193690D01*
X111835997Y-79193690D02*
X111663865Y-78981940D01*
X111663865Y-78981940D02*
X111656988Y-78974896D01*
X111656988Y-78974896D02*
X111548588Y-78872386D01*
X111548588Y-78872386D02*
X111461316Y-78810311D01*
X111461316Y-78810311D02*
X111388420Y-78786642D01*
X111388420Y-78786642D02*
X111323150Y-78799347D01*
X111323150Y-78799347D02*
X111258751Y-78846397D01*
X111258751Y-78846397D02*
X111251921Y-78853091D01*
X111251921Y-78853091D02*
X111205996Y-78911566D01*
X111205996Y-78911566D02*
X111191469Y-78970411D01*
X111191469Y-78970411D02*
X111210486Y-79037487D01*
X111210486Y-79037487D02*
X111265194Y-79120653D01*
X111265194Y-79120653D02*
X111352771Y-79222366D01*
X111352771Y-79222366D02*
X111509860Y-79421260D01*
X111509860Y-79421260D02*
X111616748Y-79622203D01*
X111616748Y-79622203D02*
X111674031Y-79827818D01*
X111674031Y-79827818D02*
X111682307Y-80040729D01*
X111682307Y-80040729D02*
X111642171Y-80263559D01*
X111642171Y-80263559D02*
X111611308Y-80359938D01*
X111611308Y-80359938D02*
X111530509Y-80527842D01*
X111530509Y-80527842D02*
X111413934Y-80694456D01*
X111413934Y-80694456D02*
X111274387Y-80844400D01*
X111274387Y-80844400D02*
X111124672Y-80962295D01*
X111124672Y-80962295D02*
X111094377Y-80980825D01*
X111094377Y-80980825D02*
X111018909Y-81024604D01*
X111018909Y-81024604D02*
X110831192Y-80883645D01*
X110831192Y-80883645D02*
X110399299Y-80590698D01*
X110399299Y-80590698D02*
X109938405Y-80337828D01*
X109938405Y-80337828D02*
X109454132Y-80127938D01*
X109454132Y-80127938D02*
X109184752Y-80033448D01*
X109184752Y-80033448D02*
X108970628Y-79964373D01*
X108970628Y-79964373D02*
X108976252Y-79688709D01*
X108976252Y-79688709D02*
X108961864Y-79401940D01*
X108961864Y-79401940D02*
X108906121Y-79144534D01*
X108906121Y-79144534D02*
X108808623Y-78915796D01*
X108808623Y-78915796D02*
X108668969Y-78715033D01*
X108668969Y-78715033D02*
X108486760Y-78541551D01*
X108486760Y-78541551D02*
X108261594Y-78394656D01*
X108261594Y-78394656D02*
X108215544Y-78370515D01*
X108215544Y-78370515D02*
X108105378Y-78324546D01*
X108105378Y-78324546D02*
X107961980Y-78278655D01*
X107961980Y-78278655D02*
X107802715Y-78237450D01*
X107802715Y-78237450D02*
X107644949Y-78205538D01*
X107644949Y-78205538D02*
X107536255Y-78190285D01*
X107536255Y-78190285D02*
X107447839Y-78183630D01*
X107447839Y-78183630D02*
X107392525Y-78188910D01*
X107392525Y-78188910D02*
X107392525Y-78188910D01*
G36*
X114240629Y-86723657D02*
G01*
X114406784Y-86874267D01*
X114467726Y-86943577D01*
X114633465Y-87176912D01*
X114751287Y-87423059D01*
X114820503Y-87679732D01*
X114832745Y-87842504D01*
X114840427Y-87944650D01*
X114810371Y-88215527D01*
X114790716Y-88300504D01*
X114707318Y-88534207D01*
X114581797Y-88752717D01*
X114409821Y-88964133D01*
X114406779Y-88967384D01*
X114189915Y-89169335D01*
X113959252Y-89324836D01*
X113707924Y-89437724D01*
X113429064Y-89511832D01*
X113284335Y-89528117D01*
X113105422Y-89530196D01*
X112913606Y-89518527D01*
X112726792Y-89494214D01*
X112562884Y-89458362D01*
X112476538Y-89431523D01*
X112348676Y-89385107D01*
X112219249Y-89332007D01*
X112100758Y-89277716D01*
X112005706Y-89227729D01*
X111946596Y-89187539D01*
X111942919Y-89184253D01*
X111916640Y-89167177D01*
X111890047Y-89172061D01*
X111852513Y-89204682D01*
X111793410Y-89270819D01*
X111580819Y-89505344D01*
X111239406Y-89836436D01*
X110882999Y-90126318D01*
X110504206Y-90380801D01*
X110095633Y-90605698D01*
X109748016Y-90763189D01*
X109262861Y-90936407D01*
X108758860Y-91065999D01*
X108243175Y-91149860D01*
X108184677Y-91155967D01*
X107978079Y-91169791D01*
X107741568Y-91176371D01*
X107488549Y-91176018D01*
X107232426Y-91169040D01*
X106986603Y-91155748D01*
X106764484Y-91136450D01*
X106579475Y-91111456D01*
X106497145Y-91097072D01*
X106220282Y-91043265D01*
X105967701Y-90983830D01*
X105722233Y-90914001D01*
X105466709Y-90829013D01*
X105183958Y-90724099D01*
X105108433Y-90694437D01*
X104622050Y-90476122D01*
X104162491Y-90221911D01*
X103732710Y-89934358D01*
X103335660Y-89616018D01*
X102974295Y-89269446D01*
X102651567Y-88897196D01*
X102370432Y-88501824D01*
X102133842Y-88085883D01*
X101955672Y-87693467D01*
X101789836Y-87221363D01*
X101673953Y-86742403D01*
X101607879Y-86255452D01*
X101591469Y-85759375D01*
X101600250Y-85625096D01*
X102001939Y-85625096D01*
X102004884Y-86068183D01*
X102045682Y-86503127D01*
X102123911Y-86920892D01*
X102239147Y-87312446D01*
X102347913Y-87592528D01*
X102542358Y-87996872D01*
X102773488Y-88374700D01*
X103045937Y-88733289D01*
X103364336Y-89079915D01*
X103515706Y-89225418D01*
X103912390Y-89558232D01*
X104342203Y-89855580D01*
X104801087Y-90115522D01*
X105284985Y-90336121D01*
X105789837Y-90515440D01*
X106311587Y-90651540D01*
X106846175Y-90742485D01*
X106965908Y-90754799D01*
X107176627Y-90767900D01*
X107411477Y-90774601D01*
X107655548Y-90774946D01*
X107893928Y-90768977D01*
X108111708Y-90756737D01*
X108293975Y-90738272D01*
X108621130Y-90683979D01*
X109114015Y-90562006D01*
X109583609Y-90396096D01*
X110027976Y-90187898D01*
X110445182Y-89939065D01*
X110833290Y-89651248D01*
X111190367Y-89326098D01*
X111514477Y-88965266D01*
X111622586Y-88817663D01*
X112153221Y-88817663D01*
X112162901Y-88846237D01*
X112197295Y-88874116D01*
X112285100Y-88920769D01*
X112419612Y-88977846D01*
X112599275Y-89044639D01*
X112660494Y-89063133D01*
X112808206Y-89092795D01*
X112978226Y-89112862D01*
X113152806Y-89122103D01*
X113314199Y-89119291D01*
X113444656Y-89103196D01*
X113487691Y-89092696D01*
X113665559Y-89024499D01*
X113846560Y-88920553D01*
X114018250Y-88790012D01*
X114168183Y-88642032D01*
X114283915Y-88485768D01*
X114295140Y-88466649D01*
X114386048Y-88261893D01*
X114430703Y-88052120D01*
X114432218Y-87842504D01*
X114393707Y-87638218D01*
X114318282Y-87444438D01*
X114209056Y-87266336D01*
X114069142Y-87109086D01*
X113901653Y-86977863D01*
X113709703Y-86877841D01*
X113496404Y-86814192D01*
X113264870Y-86792092D01*
X113247881Y-86792117D01*
X113125005Y-86793369D01*
X113041741Y-86801102D01*
X112988051Y-86821884D01*
X112953902Y-86862285D01*
X112929255Y-86928871D01*
X112904075Y-87028211D01*
X112853275Y-87236246D01*
X113145375Y-87236246D01*
X113270562Y-87237295D01*
X113367733Y-87241938D01*
X113439449Y-87252089D01*
X113498803Y-87269657D01*
X113558888Y-87296551D01*
X113571751Y-87303073D01*
X113700664Y-87383540D01*
X113815631Y-87481205D01*
X113912771Y-87589349D01*
X113988203Y-87701252D01*
X114038046Y-87810195D01*
X114058420Y-87909458D01*
X114045443Y-87992320D01*
X113995235Y-88052063D01*
X113949284Y-88073855D01*
X113876604Y-88070553D01*
X113810645Y-88017682D01*
X113752511Y-87915861D01*
X113735207Y-87878301D01*
X113635700Y-87730263D01*
X113505083Y-87620339D01*
X113348427Y-87551907D01*
X113170804Y-87528346D01*
X113144304Y-87528651D01*
X112997149Y-87546128D01*
X112879756Y-87593900D01*
X112779501Y-87676754D01*
X112705726Y-87755218D01*
X112774804Y-87781482D01*
X112827460Y-87799485D01*
X112863274Y-87807746D01*
X112881767Y-87814728D01*
X112933307Y-87843406D01*
X113001864Y-87886699D01*
X113125670Y-87992434D01*
X113212244Y-88123826D01*
X113252057Y-88270517D01*
X113243799Y-88427518D01*
X113186164Y-88589840D01*
X113137887Y-88672277D01*
X113071496Y-88742419D01*
X113003070Y-88763877D01*
X112930516Y-88737863D01*
X112912486Y-88724158D01*
X112871209Y-88655604D01*
X112873301Y-88562003D01*
X112918810Y-88444545D01*
X112926081Y-88430127D01*
X112955684Y-88337681D01*
X112941919Y-88260336D01*
X112883041Y-88185447D01*
X112835316Y-88147056D01*
X112750638Y-88102394D01*
X112630470Y-88060644D01*
X112621170Y-88057934D01*
X112590140Y-88052925D01*
X112564223Y-88063067D01*
X112536482Y-88095942D01*
X112499975Y-88159129D01*
X112447762Y-88260209D01*
X112430195Y-88294363D01*
X112363469Y-88419583D01*
X112294097Y-88544289D01*
X112234553Y-88645916D01*
X112201940Y-88700703D01*
X112165112Y-88772288D01*
X112153221Y-88817663D01*
X111622586Y-88817663D01*
X111803686Y-88570404D01*
X112056057Y-88143162D01*
X112269656Y-87685192D01*
X112442549Y-87198146D01*
X112457763Y-87147197D01*
X112500639Y-86994912D01*
X112537835Y-86850271D01*
X112567544Y-86721468D01*
X112587962Y-86616701D01*
X112597283Y-86544166D01*
X112593700Y-86512058D01*
X112582630Y-86504928D01*
X112531751Y-86474735D01*
X112444297Y-86423873D01*
X112325004Y-86355038D01*
X112178607Y-86270925D01*
X112009839Y-86174228D01*
X111823437Y-86067644D01*
X111624134Y-85953866D01*
X111416666Y-85835591D01*
X111205767Y-85715513D01*
X110996173Y-85596328D01*
X110792617Y-85480730D01*
X110599835Y-85371416D01*
X110422562Y-85271080D01*
X110265531Y-85182416D01*
X110133479Y-85108122D01*
X110031140Y-85050891D01*
X109963249Y-85013418D01*
X109934540Y-84998400D01*
X109915624Y-84995936D01*
X109902094Y-85014484D01*
X109895677Y-85065082D01*
X109893984Y-85157078D01*
X109893946Y-85158545D01*
X109890989Y-85275458D01*
X109851742Y-85593953D01*
X109766316Y-85893889D01*
X109633823Y-86177316D01*
X109453375Y-86446285D01*
X109224082Y-86702846D01*
X109017567Y-86887638D01*
X108742936Y-87078493D01*
X108452436Y-87221351D01*
X108144355Y-87316860D01*
X107816977Y-87365672D01*
X107468588Y-87368435D01*
X107181260Y-87335805D01*
X106858302Y-87254495D01*
X106556128Y-87126853D01*
X106274242Y-86952660D01*
X106012151Y-86731703D01*
X105858433Y-86568390D01*
X105658846Y-86298408D01*
X105503583Y-86008296D01*
X105393359Y-85702101D01*
X105328887Y-85383870D01*
X105311997Y-85077842D01*
X105710185Y-85077842D01*
X105714707Y-85252568D01*
X105731341Y-85373896D01*
X105799109Y-85639447D01*
X105905842Y-85902515D01*
X106045537Y-86149648D01*
X106212191Y-86367393D01*
X106309143Y-86464913D01*
X106505049Y-86620470D01*
X106727247Y-86755865D01*
X106960559Y-86862345D01*
X107189804Y-86931155D01*
X107302638Y-86949557D01*
X107441273Y-86963535D01*
X107570075Y-86969010D01*
X107773275Y-86969356D01*
X107692729Y-86920242D01*
X107636110Y-86874610D01*
X107559319Y-86776747D01*
X107499135Y-86657801D01*
X107465960Y-86535426D01*
X107463143Y-86511563D01*
X107470395Y-86354065D01*
X107525595Y-86210390D01*
X107629902Y-86077303D01*
X107716046Y-86003837D01*
X107855289Y-85932834D01*
X108006294Y-85910945D01*
X108171797Y-85937462D01*
X108309716Y-86000126D01*
X108425470Y-86098490D01*
X108510773Y-86222242D01*
X108560884Y-86362085D01*
X108571064Y-86508723D01*
X108536572Y-86652861D01*
X108529826Y-86669867D01*
X108515213Y-86720550D01*
X108518899Y-86740946D01*
X108539387Y-86736193D01*
X108601306Y-86703325D01*
X108685658Y-86644947D01*
X108783556Y-86567859D01*
X108886113Y-86478860D01*
X108984443Y-86384751D01*
X109005007Y-86363799D01*
X109099616Y-86261169D01*
X109172782Y-86165991D01*
X109237379Y-86059847D01*
X109306282Y-85924316D01*
X109377219Y-85768707D01*
X109431884Y-85621059D01*
X109465701Y-85481849D01*
X109482823Y-85333528D01*
X109487400Y-85158545D01*
X109487322Y-85144057D01*
X109460135Y-84844296D01*
X109384608Y-84559387D01*
X109261379Y-84290731D01*
X109091084Y-84039731D01*
X108874360Y-83807789D01*
X108774124Y-83719464D01*
X108616878Y-83600375D01*
X108442401Y-83492952D01*
X108234386Y-83386461D01*
X108025316Y-83299288D01*
X107736964Y-83219568D01*
X107454068Y-83188005D01*
X107179400Y-83204364D01*
X106915729Y-83268411D01*
X106665829Y-83379912D01*
X106432468Y-83538634D01*
X106320598Y-83640693D01*
X106161328Y-83823533D01*
X106016163Y-84033153D01*
X105894629Y-84255300D01*
X105806255Y-84475716D01*
X105801432Y-84491140D01*
X105756060Y-84675809D01*
X105724807Y-84878482D01*
X105710185Y-85077842D01*
X105311997Y-85077842D01*
X105310883Y-85057649D01*
X105340058Y-84727487D01*
X105417129Y-84397430D01*
X105542809Y-84071526D01*
X105573849Y-84004651D01*
X105612820Y-83916917D01*
X105634119Y-83857313D01*
X105640242Y-83814461D01*
X105633684Y-83776984D01*
X105616939Y-83733503D01*
X105587061Y-83669606D01*
X105498692Y-83534273D01*
X105392840Y-83429326D01*
X105277237Y-83361464D01*
X105159615Y-83337382D01*
X105129160Y-83337806D01*
X105094453Y-83342763D01*
X105062248Y-83358326D01*
X105026070Y-83390589D01*
X104979440Y-83445649D01*
X104915880Y-83529598D01*
X104828913Y-83648532D01*
X104799344Y-83689157D01*
X104547064Y-84037503D01*
X104310397Y-84367426D01*
X104090701Y-84676911D01*
X103889335Y-84963943D01*
X103707658Y-85226509D01*
X103547027Y-85462594D01*
X103408802Y-85670183D01*
X103294341Y-85847262D01*
X103205003Y-85991816D01*
X103142145Y-86101831D01*
X103107128Y-86175293D01*
X103101308Y-86210187D01*
X103133392Y-86234086D01*
X103213126Y-86263265D01*
X103332554Y-86292643D01*
X103485691Y-86321243D01*
X103666555Y-86348089D01*
X103869160Y-86372204D01*
X104087524Y-86392613D01*
X104315661Y-86408339D01*
X104469650Y-86417667D01*
X104581811Y-86426491D01*
X104659783Y-86436147D01*
X104711869Y-86448013D01*
X104746370Y-86463463D01*
X104771591Y-86483873D01*
X104803604Y-86528407D01*
X104825660Y-86614971D01*
X104811618Y-86702869D01*
X104762106Y-86772948D01*
X104759690Y-86774908D01*
X104731868Y-86794160D01*
X104698750Y-86806977D01*
X104651249Y-86814124D01*
X104580279Y-86816365D01*
X104476750Y-86814465D01*
X104331575Y-86809191D01*
X104167685Y-86801292D01*
X103830004Y-86774803D01*
X103533032Y-86736460D01*
X103278100Y-86686687D01*
X103066537Y-86625911D01*
X102899673Y-86554555D01*
X102778839Y-86473045D01*
X102705363Y-86381806D01*
X102680575Y-86281264D01*
X102687800Y-86227535D01*
X102724462Y-86116362D01*
X102791052Y-85969411D01*
X102886372Y-85788909D01*
X103009227Y-85577082D01*
X103158417Y-85336156D01*
X103332747Y-85068359D01*
X103378075Y-85000018D01*
X103481746Y-84841801D01*
X103558751Y-84720673D01*
X103610975Y-84633382D01*
X103640301Y-84576678D01*
X103648614Y-84547311D01*
X103637797Y-84542028D01*
X103496181Y-84581907D01*
X103383842Y-84610227D01*
X103289513Y-84628041D01*
X103197733Y-84637608D01*
X103093041Y-84641185D01*
X102959975Y-84641032D01*
X102813402Y-84637770D01*
X102677612Y-84628213D01*
X102562485Y-84610713D01*
X102451975Y-84583452D01*
X102419987Y-84574186D01*
X102308470Y-84542626D01*
X102234343Y-84528174D01*
X102187909Y-84534840D01*
X102159470Y-84566634D01*
X102139330Y-84627566D01*
X102117792Y-84721646D01*
X102111303Y-84750626D01*
X102037271Y-85182899D01*
X102001939Y-85625096D01*
X101600250Y-85625096D01*
X101624579Y-85253038D01*
X101707064Y-84735307D01*
X101708784Y-84726912D01*
X101734994Y-84602476D01*
X101759226Y-84493339D01*
X101778849Y-84411012D01*
X101791233Y-84367007D01*
X101794836Y-84351006D01*
X101787440Y-84318851D01*
X101757696Y-84275712D01*
X101700097Y-84214348D01*
X101609136Y-84127515D01*
X101457217Y-83973212D01*
X101261505Y-83720313D01*
X101109555Y-83444715D01*
X100998472Y-83141745D01*
X100998222Y-83140875D01*
X100968732Y-82999932D01*
X100949060Y-82827220D01*
X100939574Y-82638983D01*
X100939882Y-82584933D01*
X101336438Y-82584933D01*
X101345437Y-82811469D01*
X101382246Y-83015065D01*
X101444269Y-83201256D01*
X101573073Y-83460793D01*
X101741313Y-83689914D01*
X101946361Y-83885800D01*
X102185590Y-84045637D01*
X102456373Y-84166608D01*
X102547337Y-84194824D01*
X102798853Y-84239442D01*
X103064691Y-84243331D01*
X103333761Y-84206845D01*
X103594975Y-84130337D01*
X103608164Y-84125289D01*
X103637920Y-84110842D01*
X103626484Y-84100604D01*
X103569575Y-84087332D01*
X103477027Y-84058453D01*
X103347961Y-83976999D01*
X103248945Y-83854995D01*
X103228400Y-83818306D01*
X103200541Y-83751081D01*
X103190309Y-83679570D01*
X103193030Y-83580855D01*
X103204745Y-83477104D01*
X103229431Y-83398130D01*
X103273607Y-83327460D01*
X103300833Y-83294860D01*
X103414182Y-83203110D01*
X103546137Y-83148842D01*
X103685718Y-83133696D01*
X103821944Y-83159312D01*
X103943836Y-83227331D01*
X103986848Y-83264302D01*
X104076785Y-83369563D01*
X104125123Y-83486495D01*
X104138353Y-83628486D01*
X104136294Y-83780024D01*
X104245039Y-83656444D01*
X104260257Y-83638656D01*
X104366289Y-83487882D01*
X104465006Y-83302338D01*
X104548808Y-83096046D01*
X104561375Y-83053909D01*
X104585452Y-82913756D01*
X104595330Y-82748601D01*
X104591165Y-82575738D01*
X104573116Y-82412465D01*
X104541339Y-82276078D01*
X104495215Y-82153443D01*
X104362604Y-81902471D01*
X104187997Y-81671827D01*
X103976010Y-81465663D01*
X103731261Y-81288130D01*
X103636480Y-81237856D01*
X104352322Y-81237856D01*
X104366574Y-81271850D01*
X104403380Y-81314688D01*
X104459424Y-81374185D01*
X104490230Y-81408711D01*
X104598643Y-81543168D01*
X104701827Y-81689001D01*
X104789299Y-81830703D01*
X104850575Y-81952766D01*
X104909070Y-82116114D01*
X104971897Y-82395258D01*
X104993775Y-82679951D01*
X104993808Y-82748601D01*
X104993889Y-82924257D01*
X105169749Y-82936839D01*
X105243392Y-82945696D01*
X105431076Y-82999367D01*
X105606477Y-83091768D01*
X105757750Y-83215706D01*
X105873049Y-83363986D01*
X105877550Y-83371479D01*
X105910684Y-83419367D01*
X105932339Y-83438946D01*
X105932341Y-83438945D01*
X105957111Y-83422879D01*
X106007613Y-83380767D01*
X106072913Y-83321726D01*
X106169877Y-83236502D01*
X106425927Y-83055943D01*
X106699620Y-82921245D01*
X106987826Y-82832469D01*
X107287413Y-82789676D01*
X107595253Y-82792928D01*
X107908213Y-82842284D01*
X108223163Y-82937808D01*
X108536973Y-83079559D01*
X108846513Y-83267598D01*
X109015348Y-83398337D01*
X109195606Y-83567432D01*
X109365503Y-83755452D01*
X109516320Y-83951886D01*
X109639340Y-84146221D01*
X109725845Y-84327946D01*
X109755894Y-84393132D01*
X109806954Y-84453806D01*
X109888882Y-84506781D01*
X109923598Y-84525994D01*
X110001524Y-84569756D01*
X110115572Y-84634138D01*
X110261423Y-84716691D01*
X110434759Y-84814966D01*
X110631260Y-84926515D01*
X110846609Y-85048889D01*
X111076487Y-85179639D01*
X111316575Y-85316316D01*
X111537360Y-85442061D01*
X111761502Y-85569721D01*
X111968808Y-85687796D01*
X112155377Y-85794064D01*
X112317308Y-85886302D01*
X112450701Y-85962289D01*
X112551653Y-86019802D01*
X112616264Y-86056619D01*
X112640633Y-86070518D01*
X112642793Y-86071369D01*
X112658158Y-86051214D01*
X112670549Y-85988667D01*
X112679822Y-85891119D01*
X112685833Y-85765961D01*
X112688437Y-85620584D01*
X112687489Y-85462377D01*
X112682845Y-85298731D01*
X112674359Y-85137038D01*
X112661888Y-84984687D01*
X112645052Y-84836994D01*
X112565033Y-84369169D01*
X112446714Y-83907365D01*
X112293204Y-83461008D01*
X112107609Y-83039521D01*
X111893035Y-82652327D01*
X111776020Y-82472045D01*
X111478385Y-82072691D01*
X111148720Y-81704622D01*
X110791145Y-81371481D01*
X110409779Y-81076911D01*
X110008741Y-80824553D01*
X109592152Y-80618050D01*
X109335252Y-80513679D01*
X108829476Y-80345528D01*
X108325541Y-80227434D01*
X107824260Y-80159448D01*
X107326443Y-80141618D01*
X106832900Y-80173994D01*
X106344442Y-80256626D01*
X105861880Y-80389564D01*
X105757009Y-80425997D01*
X105642283Y-80468905D01*
X105530469Y-80513199D01*
X105432811Y-80554295D01*
X105360553Y-80587606D01*
X105324938Y-80608549D01*
X105324701Y-80608876D01*
X105335453Y-80633895D01*
X105370370Y-80687027D01*
X105422265Y-80757288D01*
X105481587Y-80844178D01*
X105544967Y-80954241D01*
X105604814Y-81072704D01*
X105655098Y-81186813D01*
X105689791Y-81283813D01*
X105702865Y-81350950D01*
X105694147Y-81394297D01*
X105649245Y-81461929D01*
X105580436Y-81513454D01*
X105503944Y-81533946D01*
X105499016Y-81533892D01*
X105412920Y-81510957D01*
X105342816Y-81444273D01*
X105285378Y-81330746D01*
X105223529Y-81196460D01*
X105122732Y-81036181D01*
X105008814Y-80902947D01*
X104980044Y-80875346D01*
X104945438Y-80848261D01*
X104911287Y-80838244D01*
X104869177Y-80847711D01*
X104810697Y-80879078D01*
X104727434Y-80934759D01*
X104610975Y-81017170D01*
X104587218Y-81034010D01*
X104478074Y-81110782D01*
X104404755Y-81165137D01*
X104363943Y-81204890D01*
X104352322Y-81237856D01*
X103636480Y-81237856D01*
X103458366Y-81143381D01*
X103161943Y-81035568D01*
X103158880Y-81034691D01*
X103032490Y-81001527D01*
X102927276Y-80983113D01*
X102819377Y-80976631D01*
X102684931Y-80979264D01*
X102610786Y-80982756D01*
X102507111Y-80991956D01*
X102423462Y-81008926D01*
X102340114Y-81038315D01*
X102237339Y-81084773D01*
X102061630Y-81185969D01*
X101861197Y-81351890D01*
X101685124Y-81557881D01*
X101536772Y-81799878D01*
X101419501Y-82073818D01*
X101398849Y-82139318D01*
X101354493Y-82354527D01*
X101336438Y-82584933D01*
X100939882Y-82584933D01*
X100940641Y-82451463D01*
X100952628Y-82280903D01*
X100975902Y-82143546D01*
X101055408Y-81886409D01*
X101188417Y-81589803D01*
X101356486Y-81322242D01*
X101556515Y-81087831D01*
X101785401Y-80890678D01*
X102040043Y-80734888D01*
X102069792Y-80720173D01*
X102251039Y-80642602D01*
X102421416Y-80595378D01*
X102600349Y-80574477D01*
X102807258Y-80575872D01*
X102906774Y-80582842D01*
X103234645Y-80637187D01*
X103549430Y-80739768D01*
X103854865Y-80891712D01*
X104002989Y-80978525D01*
X104122832Y-80879428D01*
X104200357Y-80818411D01*
X104303861Y-80741848D01*
X104404551Y-80671469D01*
X104566427Y-80562608D01*
X104490439Y-80514496D01*
X104428947Y-80480918D01*
X104301068Y-80427647D01*
X104149227Y-80378181D01*
X103989697Y-80337601D01*
X103838754Y-80310989D01*
X103764348Y-80301295D01*
X103644877Y-80283421D01*
X103561797Y-80265713D01*
X103505568Y-80245152D01*
X103466649Y-80218719D01*
X103435502Y-80183397D01*
X103401331Y-80106011D01*
X103411042Y-80018107D01*
X103468622Y-79933099D01*
X103496846Y-79910849D01*
X103559675Y-79889216D01*
X103656241Y-79882946D01*
X103693450Y-79883815D01*
X103834034Y-79896722D01*
X103995350Y-79922267D01*
X104156944Y-79956824D01*
X104298364Y-79996766D01*
X104299296Y-79997077D01*
X104382369Y-80028639D01*
X104485686Y-80073359D01*
X104598085Y-80125724D01*
X104708402Y-80180223D01*
X104805475Y-80231343D01*
X104878140Y-80273571D01*
X104915236Y-80301395D01*
X104924819Y-80309602D01*
X104952760Y-80314138D01*
X105000752Y-80302472D01*
X105077120Y-80272162D01*
X105190188Y-80220768D01*
X105494816Y-80092158D01*
X105891453Y-79958437D01*
X106305068Y-79852342D01*
X106719175Y-79778639D01*
X106734900Y-79776536D01*
X106996307Y-79752808D01*
X107290092Y-79744034D01*
X107601266Y-79749636D01*
X107914839Y-79769036D01*
X108215822Y-79801656D01*
X108489226Y-79846917D01*
X108522952Y-79853154D01*
X108556688Y-79850425D01*
X108571343Y-79820828D01*
X108578126Y-79752451D01*
X108580272Y-79716058D01*
X108575128Y-79509580D01*
X108541894Y-79318719D01*
X108482933Y-79158221D01*
X108474091Y-79141185D01*
X108362240Y-78978200D01*
X108213716Y-78842583D01*
X108026227Y-78732965D01*
X107797481Y-78647977D01*
X107525186Y-78586250D01*
X107433828Y-78567179D01*
X107358142Y-78539230D01*
X107315636Y-78503010D01*
X107305051Y-78485878D01*
X107279626Y-78396973D01*
X107289058Y-78304024D01*
X107332051Y-78228670D01*
X107353374Y-78209310D01*
X107392525Y-78188910D01*
X107447839Y-78183630D01*
X107536255Y-78190285D01*
X107644949Y-78205538D01*
X107802715Y-78237450D01*
X107961980Y-78278655D01*
X108105378Y-78324546D01*
X108215544Y-78370515D01*
X108261594Y-78394656D01*
X108486760Y-78541551D01*
X108668969Y-78715033D01*
X108808623Y-78915796D01*
X108906121Y-79144534D01*
X108961864Y-79401940D01*
X108976252Y-79688709D01*
X108970628Y-79964373D01*
X109184752Y-80033448D01*
X109454132Y-80127938D01*
X109938405Y-80337828D01*
X110399299Y-80590698D01*
X110831192Y-80883645D01*
X111018909Y-81024604D01*
X111094377Y-80980825D01*
X111124672Y-80962295D01*
X111274387Y-80844400D01*
X111413934Y-80694456D01*
X111530509Y-80527842D01*
X111611308Y-80359938D01*
X111642171Y-80263559D01*
X111682307Y-80040729D01*
X111674031Y-79827818D01*
X111616748Y-79622203D01*
X111509860Y-79421260D01*
X111352771Y-79222366D01*
X111265194Y-79120653D01*
X111210486Y-79037487D01*
X111191469Y-78970411D01*
X111205996Y-78911566D01*
X111251921Y-78853091D01*
X111258751Y-78846397D01*
X111323150Y-78799347D01*
X111388420Y-78786642D01*
X111461316Y-78810311D01*
X111548588Y-78872386D01*
X111656988Y-78974896D01*
X111663865Y-78981940D01*
X111835997Y-79193690D01*
X111962710Y-79424698D01*
X112043379Y-79670383D01*
X112077380Y-79926163D01*
X112064089Y-80187457D01*
X112002883Y-80449685D01*
X111893136Y-80708265D01*
X111860263Y-80762151D01*
X111792528Y-80854372D01*
X111707468Y-80957722D01*
X111614519Y-81061752D01*
X111523115Y-81156016D01*
X111442691Y-81230069D01*
X111382683Y-81273463D01*
X111368508Y-81283896D01*
X111364158Y-81302620D01*
X111378184Y-81333610D01*
X111414648Y-81383093D01*
X111477612Y-81457297D01*
X111571136Y-81562450D01*
X111732292Y-81748338D01*
X112038838Y-82146088D01*
X112297811Y-82549652D01*
X112511400Y-82962289D01*
X112528540Y-82999582D01*
X112574860Y-83097008D01*
X112608977Y-83158533D01*
X112637167Y-83192350D01*
X112665708Y-83206654D01*
X112700875Y-83209638D01*
X112761785Y-83206305D01*
X112925418Y-83171369D01*
X113098895Y-83103251D01*
X113268580Y-83007975D01*
X113420836Y-82891564D01*
X113470870Y-82843487D01*
X113602492Y-82673984D01*
X113688436Y-82484860D01*
X113727875Y-82279711D01*
X113719981Y-82062132D01*
X113663925Y-81835720D01*
X113616344Y-81690587D01*
X113589426Y-81581202D01*
X113583098Y-81500735D01*
X113596700Y-81440683D01*
X113629573Y-81392545D01*
X113679973Y-81353482D01*
X113761357Y-81330746D01*
X113777833Y-81331489D01*
X113854765Y-81358462D01*
X113923861Y-81426564D01*
X113987634Y-81539017D01*
X114048598Y-81699046D01*
X114072648Y-81775189D01*
X114098834Y-81874203D01*
X114113731Y-81966402D01*
X114120055Y-82070958D01*
X114120519Y-82207046D01*
X114119529Y-82259950D01*
X114105046Y-82448696D01*
X114070157Y-82609974D01*
X114010060Y-82760814D01*
X113919951Y-82918246D01*
X113783498Y-83091649D01*
X113607125Y-83253380D01*
X113404795Y-83392434D01*
X113188846Y-83500348D01*
X112971618Y-83568660D01*
X112909625Y-83583237D01*
X112841305Y-83603087D01*
X112806003Y-83618507D01*
X112802118Y-83649475D01*
X112813032Y-83714363D01*
X112836582Y-83798638D01*
X112841895Y-83815185D01*
X112889092Y-83980445D01*
X112938692Y-84183569D01*
X112988085Y-84413241D01*
X113034664Y-84658146D01*
X113040743Y-84698200D01*
X113052499Y-84813139D01*
X113062537Y-84960957D01*
X113070696Y-85132368D01*
X113076814Y-85318085D01*
X113080731Y-85508821D01*
X113081664Y-85620584D01*
X113082286Y-85695290D01*
X113081316Y-85868205D01*
X113077661Y-86018280D01*
X113071160Y-86136226D01*
X113061652Y-86212758D01*
X113060092Y-86220274D01*
X113052538Y-86280783D01*
X113068786Y-86315647D01*
X113117777Y-86346108D01*
X113151748Y-86359415D01*
X113240371Y-86378130D01*
X113341045Y-86385346D01*
X113395031Y-86386931D01*
X113608492Y-86419747D01*
X113828941Y-86490643D01*
X113940370Y-86544166D01*
X114043834Y-86593864D01*
X114240629Y-86723657D01*
G37*
X114240629Y-86723657D02*
X114406784Y-86874267D01*
X114467726Y-86943577D01*
X114633465Y-87176912D01*
X114751287Y-87423059D01*
X114820503Y-87679732D01*
X114832745Y-87842504D01*
X114840427Y-87944650D01*
X114810371Y-88215527D01*
X114790716Y-88300504D01*
X114707318Y-88534207D01*
X114581797Y-88752717D01*
X114409821Y-88964133D01*
X114406779Y-88967384D01*
X114189915Y-89169335D01*
X113959252Y-89324836D01*
X113707924Y-89437724D01*
X113429064Y-89511832D01*
X113284335Y-89528117D01*
X113105422Y-89530196D01*
X112913606Y-89518527D01*
X112726792Y-89494214D01*
X112562884Y-89458362D01*
X112476538Y-89431523D01*
X112348676Y-89385107D01*
X112219249Y-89332007D01*
X112100758Y-89277716D01*
X112005706Y-89227729D01*
X111946596Y-89187539D01*
X111942919Y-89184253D01*
X111916640Y-89167177D01*
X111890047Y-89172061D01*
X111852513Y-89204682D01*
X111793410Y-89270819D01*
X111580819Y-89505344D01*
X111239406Y-89836436D01*
X110882999Y-90126318D01*
X110504206Y-90380801D01*
X110095633Y-90605698D01*
X109748016Y-90763189D01*
X109262861Y-90936407D01*
X108758860Y-91065999D01*
X108243175Y-91149860D01*
X108184677Y-91155967D01*
X107978079Y-91169791D01*
X107741568Y-91176371D01*
X107488549Y-91176018D01*
X107232426Y-91169040D01*
X106986603Y-91155748D01*
X106764484Y-91136450D01*
X106579475Y-91111456D01*
X106497145Y-91097072D01*
X106220282Y-91043265D01*
X105967701Y-90983830D01*
X105722233Y-90914001D01*
X105466709Y-90829013D01*
X105183958Y-90724099D01*
X105108433Y-90694437D01*
X104622050Y-90476122D01*
X104162491Y-90221911D01*
X103732710Y-89934358D01*
X103335660Y-89616018D01*
X102974295Y-89269446D01*
X102651567Y-88897196D01*
X102370432Y-88501824D01*
X102133842Y-88085883D01*
X101955672Y-87693467D01*
X101789836Y-87221363D01*
X101673953Y-86742403D01*
X101607879Y-86255452D01*
X101591469Y-85759375D01*
X101600250Y-85625096D01*
X102001939Y-85625096D01*
X102004884Y-86068183D01*
X102045682Y-86503127D01*
X102123911Y-86920892D01*
X102239147Y-87312446D01*
X102347913Y-87592528D01*
X102542358Y-87996872D01*
X102773488Y-88374700D01*
X103045937Y-88733289D01*
X103364336Y-89079915D01*
X103515706Y-89225418D01*
X103912390Y-89558232D01*
X104342203Y-89855580D01*
X104801087Y-90115522D01*
X105284985Y-90336121D01*
X105789837Y-90515440D01*
X106311587Y-90651540D01*
X106846175Y-90742485D01*
X106965908Y-90754799D01*
X107176627Y-90767900D01*
X107411477Y-90774601D01*
X107655548Y-90774946D01*
X107893928Y-90768977D01*
X108111708Y-90756737D01*
X108293975Y-90738272D01*
X108621130Y-90683979D01*
X109114015Y-90562006D01*
X109583609Y-90396096D01*
X110027976Y-90187898D01*
X110445182Y-89939065D01*
X110833290Y-89651248D01*
X111190367Y-89326098D01*
X111514477Y-88965266D01*
X111622586Y-88817663D01*
X112153221Y-88817663D01*
X112162901Y-88846237D01*
X112197295Y-88874116D01*
X112285100Y-88920769D01*
X112419612Y-88977846D01*
X112599275Y-89044639D01*
X112660494Y-89063133D01*
X112808206Y-89092795D01*
X112978226Y-89112862D01*
X113152806Y-89122103D01*
X113314199Y-89119291D01*
X113444656Y-89103196D01*
X113487691Y-89092696D01*
X113665559Y-89024499D01*
X113846560Y-88920553D01*
X114018250Y-88790012D01*
X114168183Y-88642032D01*
X114283915Y-88485768D01*
X114295140Y-88466649D01*
X114386048Y-88261893D01*
X114430703Y-88052120D01*
X114432218Y-87842504D01*
X114393707Y-87638218D01*
X114318282Y-87444438D01*
X114209056Y-87266336D01*
X114069142Y-87109086D01*
X113901653Y-86977863D01*
X113709703Y-86877841D01*
X113496404Y-86814192D01*
X113264870Y-86792092D01*
X113247881Y-86792117D01*
X113125005Y-86793369D01*
X113041741Y-86801102D01*
X112988051Y-86821884D01*
X112953902Y-86862285D01*
X112929255Y-86928871D01*
X112904075Y-87028211D01*
X112853275Y-87236246D01*
X113145375Y-87236246D01*
X113270562Y-87237295D01*
X113367733Y-87241938D01*
X113439449Y-87252089D01*
X113498803Y-87269657D01*
X113558888Y-87296551D01*
X113571751Y-87303073D01*
X113700664Y-87383540D01*
X113815631Y-87481205D01*
X113912771Y-87589349D01*
X113988203Y-87701252D01*
X114038046Y-87810195D01*
X114058420Y-87909458D01*
X114045443Y-87992320D01*
X113995235Y-88052063D01*
X113949284Y-88073855D01*
X113876604Y-88070553D01*
X113810645Y-88017682D01*
X113752511Y-87915861D01*
X113735207Y-87878301D01*
X113635700Y-87730263D01*
X113505083Y-87620339D01*
X113348427Y-87551907D01*
X113170804Y-87528346D01*
X113144304Y-87528651D01*
X112997149Y-87546128D01*
X112879756Y-87593900D01*
X112779501Y-87676754D01*
X112705726Y-87755218D01*
X112774804Y-87781482D01*
X112827460Y-87799485D01*
X112863274Y-87807746D01*
X112881767Y-87814728D01*
X112933307Y-87843406D01*
X113001864Y-87886699D01*
X113125670Y-87992434D01*
X113212244Y-88123826D01*
X113252057Y-88270517D01*
X113243799Y-88427518D01*
X113186164Y-88589840D01*
X113137887Y-88672277D01*
X113071496Y-88742419D01*
X113003070Y-88763877D01*
X112930516Y-88737863D01*
X112912486Y-88724158D01*
X112871209Y-88655604D01*
X112873301Y-88562003D01*
X112918810Y-88444545D01*
X112926081Y-88430127D01*
X112955684Y-88337681D01*
X112941919Y-88260336D01*
X112883041Y-88185447D01*
X112835316Y-88147056D01*
X112750638Y-88102394D01*
X112630470Y-88060644D01*
X112621170Y-88057934D01*
X112590140Y-88052925D01*
X112564223Y-88063067D01*
X112536482Y-88095942D01*
X112499975Y-88159129D01*
X112447762Y-88260209D01*
X112430195Y-88294363D01*
X112363469Y-88419583D01*
X112294097Y-88544289D01*
X112234553Y-88645916D01*
X112201940Y-88700703D01*
X112165112Y-88772288D01*
X112153221Y-88817663D01*
X111622586Y-88817663D01*
X111803686Y-88570404D01*
X112056057Y-88143162D01*
X112269656Y-87685192D01*
X112442549Y-87198146D01*
X112457763Y-87147197D01*
X112500639Y-86994912D01*
X112537835Y-86850271D01*
X112567544Y-86721468D01*
X112587962Y-86616701D01*
X112597283Y-86544166D01*
X112593700Y-86512058D01*
X112582630Y-86504928D01*
X112531751Y-86474735D01*
X112444297Y-86423873D01*
X112325004Y-86355038D01*
X112178607Y-86270925D01*
X112009839Y-86174228D01*
X111823437Y-86067644D01*
X111624134Y-85953866D01*
X111416666Y-85835591D01*
X111205767Y-85715513D01*
X110996173Y-85596328D01*
X110792617Y-85480730D01*
X110599835Y-85371416D01*
X110422562Y-85271080D01*
X110265531Y-85182416D01*
X110133479Y-85108122D01*
X110031140Y-85050891D01*
X109963249Y-85013418D01*
X109934540Y-84998400D01*
X109915624Y-84995936D01*
X109902094Y-85014484D01*
X109895677Y-85065082D01*
X109893984Y-85157078D01*
X109893946Y-85158545D01*
X109890989Y-85275458D01*
X109851742Y-85593953D01*
X109766316Y-85893889D01*
X109633823Y-86177316D01*
X109453375Y-86446285D01*
X109224082Y-86702846D01*
X109017567Y-86887638D01*
X108742936Y-87078493D01*
X108452436Y-87221351D01*
X108144355Y-87316860D01*
X107816977Y-87365672D01*
X107468588Y-87368435D01*
X107181260Y-87335805D01*
X106858302Y-87254495D01*
X106556128Y-87126853D01*
X106274242Y-86952660D01*
X106012151Y-86731703D01*
X105858433Y-86568390D01*
X105658846Y-86298408D01*
X105503583Y-86008296D01*
X105393359Y-85702101D01*
X105328887Y-85383870D01*
X105311997Y-85077842D01*
X105710185Y-85077842D01*
X105714707Y-85252568D01*
X105731341Y-85373896D01*
X105799109Y-85639447D01*
X105905842Y-85902515D01*
X106045537Y-86149648D01*
X106212191Y-86367393D01*
X106309143Y-86464913D01*
X106505049Y-86620470D01*
X106727247Y-86755865D01*
X106960559Y-86862345D01*
X107189804Y-86931155D01*
X107302638Y-86949557D01*
X107441273Y-86963535D01*
X107570075Y-86969010D01*
X107773275Y-86969356D01*
X107692729Y-86920242D01*
X107636110Y-86874610D01*
X107559319Y-86776747D01*
X107499135Y-86657801D01*
X107465960Y-86535426D01*
X107463143Y-86511563D01*
X107470395Y-86354065D01*
X107525595Y-86210390D01*
X107629902Y-86077303D01*
X107716046Y-86003837D01*
X107855289Y-85932834D01*
X108006294Y-85910945D01*
X108171797Y-85937462D01*
X108309716Y-86000126D01*
X108425470Y-86098490D01*
X108510773Y-86222242D01*
X108560884Y-86362085D01*
X108571064Y-86508723D01*
X108536572Y-86652861D01*
X108529826Y-86669867D01*
X108515213Y-86720550D01*
X108518899Y-86740946D01*
X108539387Y-86736193D01*
X108601306Y-86703325D01*
X108685658Y-86644947D01*
X108783556Y-86567859D01*
X108886113Y-86478860D01*
X108984443Y-86384751D01*
X109005007Y-86363799D01*
X109099616Y-86261169D01*
X109172782Y-86165991D01*
X109237379Y-86059847D01*
X109306282Y-85924316D01*
X109377219Y-85768707D01*
X109431884Y-85621059D01*
X109465701Y-85481849D01*
X109482823Y-85333528D01*
X109487400Y-85158545D01*
X109487322Y-85144057D01*
X109460135Y-84844296D01*
X109384608Y-84559387D01*
X109261379Y-84290731D01*
X109091084Y-84039731D01*
X108874360Y-83807789D01*
X108774124Y-83719464D01*
X108616878Y-83600375D01*
X108442401Y-83492952D01*
X108234386Y-83386461D01*
X108025316Y-83299288D01*
X107736964Y-83219568D01*
X107454068Y-83188005D01*
X107179400Y-83204364D01*
X106915729Y-83268411D01*
X106665829Y-83379912D01*
X106432468Y-83538634D01*
X106320598Y-83640693D01*
X106161328Y-83823533D01*
X106016163Y-84033153D01*
X105894629Y-84255300D01*
X105806255Y-84475716D01*
X105801432Y-84491140D01*
X105756060Y-84675809D01*
X105724807Y-84878482D01*
X105710185Y-85077842D01*
X105311997Y-85077842D01*
X105310883Y-85057649D01*
X105340058Y-84727487D01*
X105417129Y-84397430D01*
X105542809Y-84071526D01*
X105573849Y-84004651D01*
X105612820Y-83916917D01*
X105634119Y-83857313D01*
X105640242Y-83814461D01*
X105633684Y-83776984D01*
X105616939Y-83733503D01*
X105587061Y-83669606D01*
X105498692Y-83534273D01*
X105392840Y-83429326D01*
X105277237Y-83361464D01*
X105159615Y-83337382D01*
X105129160Y-83337806D01*
X105094453Y-83342763D01*
X105062248Y-83358326D01*
X105026070Y-83390589D01*
X104979440Y-83445649D01*
X104915880Y-83529598D01*
X104828913Y-83648532D01*
X104799344Y-83689157D01*
X104547064Y-84037503D01*
X104310397Y-84367426D01*
X104090701Y-84676911D01*
X103889335Y-84963943D01*
X103707658Y-85226509D01*
X103547027Y-85462594D01*
X103408802Y-85670183D01*
X103294341Y-85847262D01*
X103205003Y-85991816D01*
X103142145Y-86101831D01*
X103107128Y-86175293D01*
X103101308Y-86210187D01*
X103133392Y-86234086D01*
X103213126Y-86263265D01*
X103332554Y-86292643D01*
X103485691Y-86321243D01*
X103666555Y-86348089D01*
X103869160Y-86372204D01*
X104087524Y-86392613D01*
X104315661Y-86408339D01*
X104469650Y-86417667D01*
X104581811Y-86426491D01*
X104659783Y-86436147D01*
X104711869Y-86448013D01*
X104746370Y-86463463D01*
X104771591Y-86483873D01*
X104803604Y-86528407D01*
X104825660Y-86614971D01*
X104811618Y-86702869D01*
X104762106Y-86772948D01*
X104759690Y-86774908D01*
X104731868Y-86794160D01*
X104698750Y-86806977D01*
X104651249Y-86814124D01*
X104580279Y-86816365D01*
X104476750Y-86814465D01*
X104331575Y-86809191D01*
X104167685Y-86801292D01*
X103830004Y-86774803D01*
X103533032Y-86736460D01*
X103278100Y-86686687D01*
X103066537Y-86625911D01*
X102899673Y-86554555D01*
X102778839Y-86473045D01*
X102705363Y-86381806D01*
X102680575Y-86281264D01*
X102687800Y-86227535D01*
X102724462Y-86116362D01*
X102791052Y-85969411D01*
X102886372Y-85788909D01*
X103009227Y-85577082D01*
X103158417Y-85336156D01*
X103332747Y-85068359D01*
X103378075Y-85000018D01*
X103481746Y-84841801D01*
X103558751Y-84720673D01*
X103610975Y-84633382D01*
X103640301Y-84576678D01*
X103648614Y-84547311D01*
X103637797Y-84542028D01*
X103496181Y-84581907D01*
X103383842Y-84610227D01*
X103289513Y-84628041D01*
X103197733Y-84637608D01*
X103093041Y-84641185D01*
X102959975Y-84641032D01*
X102813402Y-84637770D01*
X102677612Y-84628213D01*
X102562485Y-84610713D01*
X102451975Y-84583452D01*
X102419987Y-84574186D01*
X102308470Y-84542626D01*
X102234343Y-84528174D01*
X102187909Y-84534840D01*
X102159470Y-84566634D01*
X102139330Y-84627566D01*
X102117792Y-84721646D01*
X102111303Y-84750626D01*
X102037271Y-85182899D01*
X102001939Y-85625096D01*
X101600250Y-85625096D01*
X101624579Y-85253038D01*
X101707064Y-84735307D01*
X101708784Y-84726912D01*
X101734994Y-84602476D01*
X101759226Y-84493339D01*
X101778849Y-84411012D01*
X101791233Y-84367007D01*
X101794836Y-84351006D01*
X101787440Y-84318851D01*
X101757696Y-84275712D01*
X101700097Y-84214348D01*
X101609136Y-84127515D01*
X101457217Y-83973212D01*
X101261505Y-83720313D01*
X101109555Y-83444715D01*
X100998472Y-83141745D01*
X100998222Y-83140875D01*
X100968732Y-82999932D01*
X100949060Y-82827220D01*
X100939574Y-82638983D01*
X100939882Y-82584933D01*
X101336438Y-82584933D01*
X101345437Y-82811469D01*
X101382246Y-83015065D01*
X101444269Y-83201256D01*
X101573073Y-83460793D01*
X101741313Y-83689914D01*
X101946361Y-83885800D01*
X102185590Y-84045637D01*
X102456373Y-84166608D01*
X102547337Y-84194824D01*
X102798853Y-84239442D01*
X103064691Y-84243331D01*
X103333761Y-84206845D01*
X103594975Y-84130337D01*
X103608164Y-84125289D01*
X103637920Y-84110842D01*
X103626484Y-84100604D01*
X103569575Y-84087332D01*
X103477027Y-84058453D01*
X103347961Y-83976999D01*
X103248945Y-83854995D01*
X103228400Y-83818306D01*
X103200541Y-83751081D01*
X103190309Y-83679570D01*
X103193030Y-83580855D01*
X103204745Y-83477104D01*
X103229431Y-83398130D01*
X103273607Y-83327460D01*
X103300833Y-83294860D01*
X103414182Y-83203110D01*
X103546137Y-83148842D01*
X103685718Y-83133696D01*
X103821944Y-83159312D01*
X103943836Y-83227331D01*
X103986848Y-83264302D01*
X104076785Y-83369563D01*
X104125123Y-83486495D01*
X104138353Y-83628486D01*
X104136294Y-83780024D01*
X104245039Y-83656444D01*
X104260257Y-83638656D01*
X104366289Y-83487882D01*
X104465006Y-83302338D01*
X104548808Y-83096046D01*
X104561375Y-83053909D01*
X104585452Y-82913756D01*
X104595330Y-82748601D01*
X104591165Y-82575738D01*
X104573116Y-82412465D01*
X104541339Y-82276078D01*
X104495215Y-82153443D01*
X104362604Y-81902471D01*
X104187997Y-81671827D01*
X103976010Y-81465663D01*
X103731261Y-81288130D01*
X103636480Y-81237856D01*
X104352322Y-81237856D01*
X104366574Y-81271850D01*
X104403380Y-81314688D01*
X104459424Y-81374185D01*
X104490230Y-81408711D01*
X104598643Y-81543168D01*
X104701827Y-81689001D01*
X104789299Y-81830703D01*
X104850575Y-81952766D01*
X104909070Y-82116114D01*
X104971897Y-82395258D01*
X104993775Y-82679951D01*
X104993808Y-82748601D01*
X104993889Y-82924257D01*
X105169749Y-82936839D01*
X105243392Y-82945696D01*
X105431076Y-82999367D01*
X105606477Y-83091768D01*
X105757750Y-83215706D01*
X105873049Y-83363986D01*
X105877550Y-83371479D01*
X105910684Y-83419367D01*
X105932339Y-83438946D01*
X105932341Y-83438945D01*
X105957111Y-83422879D01*
X106007613Y-83380767D01*
X106072913Y-83321726D01*
X106169877Y-83236502D01*
X106425927Y-83055943D01*
X106699620Y-82921245D01*
X106987826Y-82832469D01*
X107287413Y-82789676D01*
X107595253Y-82792928D01*
X107908213Y-82842284D01*
X108223163Y-82937808D01*
X108536973Y-83079559D01*
X108846513Y-83267598D01*
X109015348Y-83398337D01*
X109195606Y-83567432D01*
X109365503Y-83755452D01*
X109516320Y-83951886D01*
X109639340Y-84146221D01*
X109725845Y-84327946D01*
X109755894Y-84393132D01*
X109806954Y-84453806D01*
X109888882Y-84506781D01*
X109923598Y-84525994D01*
X110001524Y-84569756D01*
X110115572Y-84634138D01*
X110261423Y-84716691D01*
X110434759Y-84814966D01*
X110631260Y-84926515D01*
X110846609Y-85048889D01*
X111076487Y-85179639D01*
X111316575Y-85316316D01*
X111537360Y-85442061D01*
X111761502Y-85569721D01*
X111968808Y-85687796D01*
X112155377Y-85794064D01*
X112317308Y-85886302D01*
X112450701Y-85962289D01*
X112551653Y-86019802D01*
X112616264Y-86056619D01*
X112640633Y-86070518D01*
X112642793Y-86071369D01*
X112658158Y-86051214D01*
X112670549Y-85988667D01*
X112679822Y-85891119D01*
X112685833Y-85765961D01*
X112688437Y-85620584D01*
X112687489Y-85462377D01*
X112682845Y-85298731D01*
X112674359Y-85137038D01*
X112661888Y-84984687D01*
X112645052Y-84836994D01*
X112565033Y-84369169D01*
X112446714Y-83907365D01*
X112293204Y-83461008D01*
X112107609Y-83039521D01*
X111893035Y-82652327D01*
X111776020Y-82472045D01*
X111478385Y-82072691D01*
X111148720Y-81704622D01*
X110791145Y-81371481D01*
X110409779Y-81076911D01*
X110008741Y-80824553D01*
X109592152Y-80618050D01*
X109335252Y-80513679D01*
X108829476Y-80345528D01*
X108325541Y-80227434D01*
X107824260Y-80159448D01*
X107326443Y-80141618D01*
X106832900Y-80173994D01*
X106344442Y-80256626D01*
X105861880Y-80389564D01*
X105757009Y-80425997D01*
X105642283Y-80468905D01*
X105530469Y-80513199D01*
X105432811Y-80554295D01*
X105360553Y-80587606D01*
X105324938Y-80608549D01*
X105324701Y-80608876D01*
X105335453Y-80633895D01*
X105370370Y-80687027D01*
X105422265Y-80757288D01*
X105481587Y-80844178D01*
X105544967Y-80954241D01*
X105604814Y-81072704D01*
X105655098Y-81186813D01*
X105689791Y-81283813D01*
X105702865Y-81350950D01*
X105694147Y-81394297D01*
X105649245Y-81461929D01*
X105580436Y-81513454D01*
X105503944Y-81533946D01*
X105499016Y-81533892D01*
X105412920Y-81510957D01*
X105342816Y-81444273D01*
X105285378Y-81330746D01*
X105223529Y-81196460D01*
X105122732Y-81036181D01*
X105008814Y-80902947D01*
X104980044Y-80875346D01*
X104945438Y-80848261D01*
X104911287Y-80838244D01*
X104869177Y-80847711D01*
X104810697Y-80879078D01*
X104727434Y-80934759D01*
X104610975Y-81017170D01*
X104587218Y-81034010D01*
X104478074Y-81110782D01*
X104404755Y-81165137D01*
X104363943Y-81204890D01*
X104352322Y-81237856D01*
X103636480Y-81237856D01*
X103458366Y-81143381D01*
X103161943Y-81035568D01*
X103158880Y-81034691D01*
X103032490Y-81001527D01*
X102927276Y-80983113D01*
X102819377Y-80976631D01*
X102684931Y-80979264D01*
X102610786Y-80982756D01*
X102507111Y-80991956D01*
X102423462Y-81008926D01*
X102340114Y-81038315D01*
X102237339Y-81084773D01*
X102061630Y-81185969D01*
X101861197Y-81351890D01*
X101685124Y-81557881D01*
X101536772Y-81799878D01*
X101419501Y-82073818D01*
X101398849Y-82139318D01*
X101354493Y-82354527D01*
X101336438Y-82584933D01*
X100939882Y-82584933D01*
X100940641Y-82451463D01*
X100952628Y-82280903D01*
X100975902Y-82143546D01*
X101055408Y-81886409D01*
X101188417Y-81589803D01*
X101356486Y-81322242D01*
X101556515Y-81087831D01*
X101785401Y-80890678D01*
X102040043Y-80734888D01*
X102069792Y-80720173D01*
X102251039Y-80642602D01*
X102421416Y-80595378D01*
X102600349Y-80574477D01*
X102807258Y-80575872D01*
X102906774Y-80582842D01*
X103234645Y-80637187D01*
X103549430Y-80739768D01*
X103854865Y-80891712D01*
X104002989Y-80978525D01*
X104122832Y-80879428D01*
X104200357Y-80818411D01*
X104303861Y-80741848D01*
X104404551Y-80671469D01*
X104566427Y-80562608D01*
X104490439Y-80514496D01*
X104428947Y-80480918D01*
X104301068Y-80427647D01*
X104149227Y-80378181D01*
X103989697Y-80337601D01*
X103838754Y-80310989D01*
X103764348Y-80301295D01*
X103644877Y-80283421D01*
X103561797Y-80265713D01*
X103505568Y-80245152D01*
X103466649Y-80218719D01*
X103435502Y-80183397D01*
X103401331Y-80106011D01*
X103411042Y-80018107D01*
X103468622Y-79933099D01*
X103496846Y-79910849D01*
X103559675Y-79889216D01*
X103656241Y-79882946D01*
X103693450Y-79883815D01*
X103834034Y-79896722D01*
X103995350Y-79922267D01*
X104156944Y-79956824D01*
X104298364Y-79996766D01*
X104299296Y-79997077D01*
X104382369Y-80028639D01*
X104485686Y-80073359D01*
X104598085Y-80125724D01*
X104708402Y-80180223D01*
X104805475Y-80231343D01*
X104878140Y-80273571D01*
X104915236Y-80301395D01*
X104924819Y-80309602D01*
X104952760Y-80314138D01*
X105000752Y-80302472D01*
X105077120Y-80272162D01*
X105190188Y-80220768D01*
X105494816Y-80092158D01*
X105891453Y-79958437D01*
X106305068Y-79852342D01*
X106719175Y-79778639D01*
X106734900Y-79776536D01*
X106996307Y-79752808D01*
X107290092Y-79744034D01*
X107601266Y-79749636D01*
X107914839Y-79769036D01*
X108215822Y-79801656D01*
X108489226Y-79846917D01*
X108522952Y-79853154D01*
X108556688Y-79850425D01*
X108571343Y-79820828D01*
X108578126Y-79752451D01*
X108580272Y-79716058D01*
X108575128Y-79509580D01*
X108541894Y-79318719D01*
X108482933Y-79158221D01*
X108474091Y-79141185D01*
X108362240Y-78978200D01*
X108213716Y-78842583D01*
X108026227Y-78732965D01*
X107797481Y-78647977D01*
X107525186Y-78586250D01*
X107433828Y-78567179D01*
X107358142Y-78539230D01*
X107315636Y-78503010D01*
X107305051Y-78485878D01*
X107279626Y-78396973D01*
X107289058Y-78304024D01*
X107332051Y-78228670D01*
X107353374Y-78209310D01*
X107392525Y-78188910D01*
X107447839Y-78183630D01*
X107536255Y-78190285D01*
X107644949Y-78205538D01*
X107802715Y-78237450D01*
X107961980Y-78278655D01*
X108105378Y-78324546D01*
X108215544Y-78370515D01*
X108261594Y-78394656D01*
X108486760Y-78541551D01*
X108668969Y-78715033D01*
X108808623Y-78915796D01*
X108906121Y-79144534D01*
X108961864Y-79401940D01*
X108976252Y-79688709D01*
X108970628Y-79964373D01*
X109184752Y-80033448D01*
X109454132Y-80127938D01*
X109938405Y-80337828D01*
X110399299Y-80590698D01*
X110831192Y-80883645D01*
X111018909Y-81024604D01*
X111094377Y-80980825D01*
X111124672Y-80962295D01*
X111274387Y-80844400D01*
X111413934Y-80694456D01*
X111530509Y-80527842D01*
X111611308Y-80359938D01*
X111642171Y-80263559D01*
X111682307Y-80040729D01*
X111674031Y-79827818D01*
X111616748Y-79622203D01*
X111509860Y-79421260D01*
X111352771Y-79222366D01*
X111265194Y-79120653D01*
X111210486Y-79037487D01*
X111191469Y-78970411D01*
X111205996Y-78911566D01*
X111251921Y-78853091D01*
X111258751Y-78846397D01*
X111323150Y-78799347D01*
X111388420Y-78786642D01*
X111461316Y-78810311D01*
X111548588Y-78872386D01*
X111656988Y-78974896D01*
X111663865Y-78981940D01*
X111835997Y-79193690D01*
X111962710Y-79424698D01*
X112043379Y-79670383D01*
X112077380Y-79926163D01*
X112064089Y-80187457D01*
X112002883Y-80449685D01*
X111893136Y-80708265D01*
X111860263Y-80762151D01*
X111792528Y-80854372D01*
X111707468Y-80957722D01*
X111614519Y-81061752D01*
X111523115Y-81156016D01*
X111442691Y-81230069D01*
X111382683Y-81273463D01*
X111368508Y-81283896D01*
X111364158Y-81302620D01*
X111378184Y-81333610D01*
X111414648Y-81383093D01*
X111477612Y-81457297D01*
X111571136Y-81562450D01*
X111732292Y-81748338D01*
X112038838Y-82146088D01*
X112297811Y-82549652D01*
X112511400Y-82962289D01*
X112528540Y-82999582D01*
X112574860Y-83097008D01*
X112608977Y-83158533D01*
X112637167Y-83192350D01*
X112665708Y-83206654D01*
X112700875Y-83209638D01*
X112761785Y-83206305D01*
X112925418Y-83171369D01*
X113098895Y-83103251D01*
X113268580Y-83007975D01*
X113420836Y-82891564D01*
X113470870Y-82843487D01*
X113602492Y-82673984D01*
X113688436Y-82484860D01*
X113727875Y-82279711D01*
X113719981Y-82062132D01*
X113663925Y-81835720D01*
X113616344Y-81690587D01*
X113589426Y-81581202D01*
X113583098Y-81500735D01*
X113596700Y-81440683D01*
X113629573Y-81392545D01*
X113679973Y-81353482D01*
X113761357Y-81330746D01*
X113777833Y-81331489D01*
X113854765Y-81358462D01*
X113923861Y-81426564D01*
X113987634Y-81539017D01*
X114048598Y-81699046D01*
X114072648Y-81775189D01*
X114098834Y-81874203D01*
X114113731Y-81966402D01*
X114120055Y-82070958D01*
X114120519Y-82207046D01*
X114119529Y-82259950D01*
X114105046Y-82448696D01*
X114070157Y-82609974D01*
X114010060Y-82760814D01*
X113919951Y-82918246D01*
X113783498Y-83091649D01*
X113607125Y-83253380D01*
X113404795Y-83392434D01*
X113188846Y-83500348D01*
X112971618Y-83568660D01*
X112909625Y-83583237D01*
X112841305Y-83603087D01*
X112806003Y-83618507D01*
X112802118Y-83649475D01*
X112813032Y-83714363D01*
X112836582Y-83798638D01*
X112841895Y-83815185D01*
X112889092Y-83980445D01*
X112938692Y-84183569D01*
X112988085Y-84413241D01*
X113034664Y-84658146D01*
X113040743Y-84698200D01*
X113052499Y-84813139D01*
X113062537Y-84960957D01*
X113070696Y-85132368D01*
X113076814Y-85318085D01*
X113080731Y-85508821D01*
X113081664Y-85620584D01*
X113082286Y-85695290D01*
X113081316Y-85868205D01*
X113077661Y-86018280D01*
X113071160Y-86136226D01*
X113061652Y-86212758D01*
X113060092Y-86220274D01*
X113052538Y-86280783D01*
X113068786Y-86315647D01*
X113117777Y-86346108D01*
X113151748Y-86359415D01*
X113240371Y-86378130D01*
X113341045Y-86385346D01*
X113395031Y-86386931D01*
X113608492Y-86419747D01*
X113828941Y-86490643D01*
X113940370Y-86544166D01*
X114043834Y-86593864D01*
X114240629Y-86723657D01*
X108291294Y-88936146D02*
X108201354Y-88964381D01*
X108201354Y-88964381D02*
X108111490Y-89001524D01*
X108111490Y-89001524D02*
X107925018Y-89072771D01*
X107925018Y-89072771D02*
X107697623Y-89130646D01*
X107697623Y-89130646D02*
X107426449Y-89175740D01*
X107426449Y-89175740D02*
X107112875Y-89208309D01*
X107112875Y-89208309D02*
X106859722Y-89222512D01*
X106859722Y-89222512D02*
X106641672Y-89220554D01*
X106641672Y-89220554D02*
X106445278Y-89201223D01*
X106445278Y-89201223D02*
X106257091Y-89163305D01*
X106257091Y-89163305D02*
X106097225Y-89116762D01*
X106097225Y-89116762D02*
X105990220Y-89084009D01*
X105990220Y-89084009D02*
X105917341Y-89068377D01*
X105917341Y-89068377D02*
X105865573Y-89068055D01*
X105865573Y-89068055D02*
X105826765Y-89079158D01*
X105826765Y-89079158D02*
X105756915Y-89133079D01*
X105756915Y-89133079D02*
X105717658Y-89214597D01*
X105717658Y-89214597D02*
X105716658Y-89305980D01*
X105716658Y-89305980D02*
X105721417Y-89322970D01*
X105721417Y-89322970D02*
X105768821Y-89389817D01*
X105768821Y-89389817D02*
X105860615Y-89450686D01*
X105860615Y-89450686D02*
X105990618Y-89504397D01*
X105990618Y-89504397D02*
X106152646Y-89549769D01*
X106152646Y-89549769D02*
X106340519Y-89585625D01*
X106340519Y-89585625D02*
X106548052Y-89610784D01*
X106548052Y-89610784D02*
X106769065Y-89624067D01*
X106769065Y-89624067D02*
X106997375Y-89624294D01*
X106997375Y-89624294D02*
X107226799Y-89610286D01*
X107226799Y-89610286D02*
X107227175Y-89610251D01*
X107227175Y-89610251D02*
X107460058Y-89581752D01*
X107460058Y-89581752D02*
X107689113Y-89541651D01*
X107689113Y-89541651D02*
X107905980Y-89492246D01*
X107905980Y-89492246D02*
X108102296Y-89435837D01*
X108102296Y-89435837D02*
X108269702Y-89374723D01*
X108269702Y-89374723D02*
X108399835Y-89311203D01*
X108399835Y-89311203D02*
X108457805Y-89271883D01*
X108457805Y-89271883D02*
X108515892Y-89199387D01*
X108515892Y-89199387D02*
X108535666Y-89116517D01*
X108535666Y-89116517D02*
X108520788Y-89035780D01*
X108520788Y-89035780D02*
X108474916Y-88969683D01*
X108474916Y-88969683D02*
X108401712Y-88930732D01*
X108401712Y-88930732D02*
X108356391Y-88925346D01*
X108356391Y-88925346D02*
X108291294Y-88936146D01*
X108291294Y-88936146D02*
X108291294Y-88936146D01*
G36*
X108401712Y-88930732D02*
G01*
X108474916Y-88969683D01*
X108520788Y-89035780D01*
X108535666Y-89116517D01*
X108515892Y-89199387D01*
X108457805Y-89271883D01*
X108399835Y-89311203D01*
X108269702Y-89374723D01*
X108102296Y-89435837D01*
X107905980Y-89492246D01*
X107689113Y-89541651D01*
X107460058Y-89581752D01*
X107227175Y-89610251D01*
X107226799Y-89610286D01*
X106997375Y-89624294D01*
X106769065Y-89624067D01*
X106548052Y-89610784D01*
X106340519Y-89585625D01*
X106152646Y-89549769D01*
X105990618Y-89504397D01*
X105860615Y-89450686D01*
X105768821Y-89389817D01*
X105721417Y-89322970D01*
X105716658Y-89305980D01*
X105717658Y-89214597D01*
X105756915Y-89133079D01*
X105826765Y-89079158D01*
X105865573Y-89068055D01*
X105917341Y-89068377D01*
X105990220Y-89084009D01*
X106097225Y-89116762D01*
X106257091Y-89163305D01*
X106445278Y-89201223D01*
X106641672Y-89220554D01*
X106859722Y-89222512D01*
X107112875Y-89208309D01*
X107426449Y-89175740D01*
X107697623Y-89130646D01*
X107925018Y-89072771D01*
X108111490Y-89001524D01*
X108201354Y-88964381D01*
X108291294Y-88936146D01*
X108356391Y-88925346D01*
X108401712Y-88930732D01*
G37*
X108401712Y-88930732D02*
X108474916Y-88969683D01*
X108520788Y-89035780D01*
X108535666Y-89116517D01*
X108515892Y-89199387D01*
X108457805Y-89271883D01*
X108399835Y-89311203D01*
X108269702Y-89374723D01*
X108102296Y-89435837D01*
X107905980Y-89492246D01*
X107689113Y-89541651D01*
X107460058Y-89581752D01*
X107227175Y-89610251D01*
X107226799Y-89610286D01*
X106997375Y-89624294D01*
X106769065Y-89624067D01*
X106548052Y-89610784D01*
X106340519Y-89585625D01*
X106152646Y-89549769D01*
X105990618Y-89504397D01*
X105860615Y-89450686D01*
X105768821Y-89389817D01*
X105721417Y-89322970D01*
X105716658Y-89305980D01*
X105717658Y-89214597D01*
X105756915Y-89133079D01*
X105826765Y-89079158D01*
X105865573Y-89068055D01*
X105917341Y-89068377D01*
X105990220Y-89084009D01*
X106097225Y-89116762D01*
X106257091Y-89163305D01*
X106445278Y-89201223D01*
X106641672Y-89220554D01*
X106859722Y-89222512D01*
X107112875Y-89208309D01*
X107426449Y-89175740D01*
X107697623Y-89130646D01*
X107925018Y-89072771D01*
X108111490Y-89001524D01*
X108201354Y-88964381D01*
X108291294Y-88936146D01*
X108356391Y-88925346D01*
X108401712Y-88930732D01*
M02*
