%TF.GenerationSoftware,KiCad,Pcbnew,(6.0.1)*%
%TF.CreationDate,2023-10-05T11:53:59-07:00*%
%TF.ProjectId,Spankulator,5370616e-6b75-46c6-9174-6f722e6b6963,5.3*%
%TF.SameCoordinates,Original*%
%TF.FileFunction,Soldermask,Top*%
%TF.FilePolarity,Negative*%
%FSLAX46Y46*%
G04 Gerber Fmt 4.6, Leading zero omitted, Abs format (unit mm)*
G04 Created by KiCad (PCBNEW (6.0.1)) date 2023-10-05 11:53:59*
%MOMM*%
%LPD*%
G01*
G04 APERTURE LIST*
G04 Aperture macros list*
%AMRoundRect*
0 Rectangle with rounded corners*
0 $1 Rounding radius*
0 $2 $3 $4 $5 $6 $7 $8 $9 X,Y pos of 4 corners*
0 Add a 4 corners polygon primitive as box body*
4,1,4,$2,$3,$4,$5,$6,$7,$8,$9,$2,$3,0*
0 Add four circle primitives for the rounded corners*
1,1,$1+$1,$2,$3*
1,1,$1+$1,$4,$5*
1,1,$1+$1,$6,$7*
1,1,$1+$1,$8,$9*
0 Add four rect primitives between the rounded corners*
20,1,$1+$1,$2,$3,$4,$5,0*
20,1,$1+$1,$4,$5,$6,$7,0*
20,1,$1+$1,$6,$7,$8,$9,0*
20,1,$1+$1,$8,$9,$2,$3,0*%
G04 Aperture macros list end*
%ADD10RoundRect,0.051000X1.100000X-1.100000X1.100000X1.100000X-1.100000X1.100000X-1.100000X-1.100000X0*%
%ADD11O,2.302000X2.302000*%
%ADD12RoundRect,0.051000X-1.100000X1.100000X-1.100000X-1.100000X1.100000X-1.100000X1.100000X1.100000X0*%
%ADD13RoundRect,0.051000X0.800000X0.800000X-0.800000X0.800000X-0.800000X-0.800000X0.800000X-0.800000X0*%
%ADD14C,1.702000*%
%ADD15RoundRect,0.051000X-0.800000X-0.800000X0.800000X-0.800000X0.800000X0.800000X-0.800000X0.800000X0*%
%ADD16RoundRect,0.051000X-0.900000X-0.900000X0.900000X-0.900000X0.900000X0.900000X-0.900000X0.900000X0*%
%ADD17C,1.902000*%
%ADD18C,2.352000*%
%ADD19O,1.702000X2.702000*%
%ADD20O,1.702000X1.702000*%
%ADD21C,2.102000*%
%ADD22RoundRect,0.051000X-1.400000X-1.800000X1.400000X-1.800000X1.400000X1.800000X-1.400000X1.800000X0*%
%ADD23C,2.902000*%
%ADD24C,2.602000*%
%ADD25RoundRect,0.051000X0.900000X0.900000X-0.900000X0.900000X-0.900000X-0.900000X0.900000X-0.900000X0*%
%ADD26C,4.102000*%
%ADD27RoundRect,0.051000X-0.800000X0.800000X-0.800000X-0.800000X0.800000X-0.800000X0.800000X0.800000X0*%
%ADD28RoundRect,0.051000X0.800000X-0.800000X0.800000X0.800000X-0.800000X0.800000X-0.800000X-0.800000X0*%
%ADD29RoundRect,0.051000X-1.200000X-0.800000X1.200000X-0.800000X1.200000X0.800000X-1.200000X0.800000X0*%
%ADD30O,2.502000X1.702000*%
%ADD31RoundRect,0.051000X-0.750000X0.750000X-0.750000X-0.750000X0.750000X-0.750000X0.750000X0.750000X0*%
%ADD32C,1.602000*%
%ADD33RoundRect,0.051000X0.750000X-0.750000X0.750000X0.750000X-0.750000X0.750000X-0.750000X-0.750000X0*%
%ADD34RoundRect,0.201000X-0.825000X-0.150000X0.825000X-0.150000X0.825000X0.150000X-0.825000X0.150000X0*%
%ADD35RoundRect,0.051000X-0.850000X-0.850000X0.850000X-0.850000X0.850000X0.850000X-0.850000X0.850000X0*%
%ADD36O,1.802000X1.802000*%
%ADD37C,1.542000*%
G04 APERTURE END LIST*
D10*
X65400000Y-49050000D03*
D11*
X65400000Y-46510000D03*
D12*
X56830000Y-40950000D03*
D11*
X56830000Y-43490000D03*
D13*
X61280000Y-49320000D03*
D14*
X57780000Y-49320000D03*
X61460000Y-58480000D03*
D15*
X57960000Y-58480000D03*
D16*
X106160000Y-48000000D03*
D17*
X108700000Y-48000000D03*
D16*
X63000000Y-105500000D03*
D17*
X65540000Y-105500000D03*
D18*
X64500000Y-101330000D03*
X64500000Y-92430000D03*
X63000000Y-99180000D03*
X63000000Y-94730000D03*
D19*
X67050000Y-93590000D03*
D14*
X67050000Y-100270000D03*
D18*
X106000000Y-60830000D03*
X106000000Y-51930000D03*
X104500000Y-58680000D03*
X104500000Y-54230000D03*
D19*
X108550000Y-53090000D03*
D14*
X108550000Y-59770000D03*
D18*
X106000000Y-73830000D03*
X106000000Y-64930000D03*
X104500000Y-71680000D03*
X104500000Y-67230000D03*
D19*
X108550000Y-66090000D03*
D14*
X108550000Y-72770000D03*
D18*
X106000000Y-101330000D03*
X106000000Y-92430000D03*
X104500000Y-99180000D03*
X104500000Y-94730000D03*
D19*
X108550000Y-93590000D03*
D14*
X108550000Y-100270000D03*
D18*
X64500000Y-128330000D03*
X64500000Y-119430000D03*
X63000000Y-126180000D03*
X63000000Y-121730000D03*
D19*
X67050000Y-120590000D03*
D14*
X67050000Y-127270000D03*
X79800000Y-112600000D03*
D20*
X69640000Y-112600000D03*
D14*
X96750000Y-123750000D03*
D20*
X96750000Y-113590000D03*
D14*
X79800000Y-115800000D03*
D20*
X69640000Y-115800000D03*
D14*
X69230000Y-55560000D03*
D20*
X69230000Y-65720000D03*
D14*
X100170000Y-55940000D03*
D20*
X100170000Y-66100000D03*
D21*
X82700000Y-91500000D03*
X87700000Y-91500000D03*
D22*
X90900000Y-98500000D03*
X79500000Y-98500000D03*
D21*
X82700000Y-106000000D03*
X87700000Y-106000000D03*
X85200000Y-106000000D03*
X62000000Y-116000000D03*
X62000000Y-109500000D03*
X66500000Y-109500000D03*
X66500000Y-116000000D03*
X87250000Y-85600000D03*
X87250000Y-79100000D03*
X91750000Y-85600000D03*
X91750000Y-79100000D03*
X70500000Y-79100000D03*
X70500000Y-85600000D03*
X75000000Y-85600000D03*
X75000000Y-79100000D03*
X78750000Y-79100000D03*
X78750000Y-85600000D03*
X83250000Y-85600000D03*
X83250000Y-79100000D03*
X95500000Y-85600000D03*
X95500000Y-79100000D03*
X100000000Y-79100000D03*
X100000000Y-85600000D03*
D23*
X69750000Y-146500000D03*
D15*
X97000000Y-126750000D03*
D20*
X97000000Y-129290000D03*
X97000000Y-131830000D03*
X97000000Y-134370000D03*
X97000000Y-136910000D03*
X97000000Y-139450000D03*
X97000000Y-141990000D03*
X104620000Y-141990000D03*
X104620000Y-139450000D03*
X104620000Y-136910000D03*
X104620000Y-134370000D03*
X104620000Y-131830000D03*
X104620000Y-129290000D03*
X104620000Y-126750000D03*
D21*
X92500000Y-41250000D03*
X92500000Y-47750000D03*
X97000000Y-47750000D03*
X97000000Y-41250000D03*
D24*
X107500000Y-146500000D03*
X63000000Y-146500000D03*
X63000000Y-42500000D03*
X107500000Y-42500000D03*
D14*
X70700000Y-108750000D03*
X75700000Y-108750000D03*
X104700000Y-123800000D03*
X99700000Y-123800000D03*
X78810000Y-52490000D03*
X73810000Y-52490000D03*
X76880000Y-55010000D03*
X71880000Y-55010000D03*
D16*
X106160000Y-78000000D03*
D17*
X108700000Y-78000000D03*
D16*
X81440000Y-51500000D03*
D17*
X83980000Y-51500000D03*
X86520000Y-51500000D03*
X89060000Y-51500000D03*
D21*
X73500000Y-41250000D03*
X73500000Y-47750000D03*
X78000000Y-47750000D03*
X78000000Y-41250000D03*
D25*
X86470000Y-114800000D03*
D17*
X83930000Y-114800000D03*
D14*
X84500000Y-138000000D03*
D20*
X84500000Y-148160000D03*
D14*
X90400000Y-123100000D03*
D20*
X90400000Y-112940000D03*
D14*
X74800000Y-121000000D03*
D20*
X84960000Y-121000000D03*
D14*
X85000000Y-124700000D03*
D20*
X74840000Y-124700000D03*
D14*
X90400000Y-135400000D03*
D20*
X90400000Y-125240000D03*
D14*
X81500000Y-148150000D03*
D20*
X81500000Y-137990000D03*
D14*
X78500000Y-138000000D03*
D20*
X78500000Y-148160000D03*
D26*
X65000000Y-132600000D03*
X65000000Y-141400000D03*
D17*
X72000000Y-134500000D03*
X72000000Y-137000000D03*
X72000000Y-139500000D03*
D14*
X87400000Y-124900000D03*
X87400000Y-119900000D03*
X86000000Y-108500000D03*
X91000000Y-108500000D03*
X83500000Y-108500000D03*
X78500000Y-108500000D03*
X57150000Y-117500000D03*
X57150000Y-122500000D03*
X87550000Y-138000000D03*
D20*
X87550000Y-148160000D03*
D14*
X79000000Y-88700000D03*
D20*
X68840000Y-88700000D03*
D15*
X72400000Y-57950000D03*
D20*
X72400000Y-60490000D03*
X72400000Y-63030000D03*
X72400000Y-65570000D03*
X80020000Y-65570000D03*
X80020000Y-63030000D03*
X80020000Y-60490000D03*
X80020000Y-57950000D03*
D27*
X87250000Y-127750000D03*
D20*
X84710000Y-127750000D03*
X82170000Y-127750000D03*
X79630000Y-127750000D03*
X79630000Y-135370000D03*
X82170000Y-135370000D03*
X84710000Y-135370000D03*
X87250000Y-135370000D03*
D14*
X112500000Y-64500000D03*
D20*
X112500000Y-54340000D03*
D23*
X100800000Y-45700000D03*
D14*
X76600000Y-132850000D03*
X76600000Y-127850000D03*
D28*
X113230000Y-121500000D03*
D20*
X113230000Y-113880000D03*
D13*
X101500000Y-147500000D03*
D20*
X93880000Y-147500000D03*
D24*
X73550000Y-76000000D03*
X96850000Y-76000000D03*
D14*
X79810000Y-71776000D03*
D20*
X69650000Y-71776000D03*
D14*
X69660000Y-68700000D03*
D20*
X79820000Y-68700000D03*
D14*
X83220000Y-58050000D03*
D20*
X83220000Y-68210000D03*
D14*
X97800000Y-68750000D03*
D20*
X87640000Y-68750000D03*
D14*
X57530000Y-78420000D03*
X62530000Y-78420000D03*
D29*
X56750000Y-81510000D03*
D30*
X56750000Y-84050000D03*
X56750000Y-86590000D03*
X56750000Y-89130000D03*
X64370000Y-89130000D03*
X64370000Y-86590000D03*
X64370000Y-84050000D03*
X64370000Y-81510000D03*
D27*
X113086000Y-124608000D03*
D20*
X113086000Y-132228000D03*
D27*
X113086000Y-134768000D03*
D20*
X113086000Y-142388000D03*
D27*
X75930000Y-96040000D03*
D20*
X75930000Y-103660000D03*
D13*
X75970000Y-106040000D03*
D20*
X68350000Y-106040000D03*
D27*
X113230000Y-103980000D03*
D20*
X113230000Y-111600000D03*
D14*
X84600000Y-88700000D03*
D20*
X94760000Y-88700000D03*
D31*
X57750000Y-107374999D03*
D32*
X57750000Y-104774999D03*
X57750000Y-102174999D03*
D27*
X57750000Y-110000000D03*
D14*
X57750000Y-115000000D03*
D28*
X57750000Y-99750000D03*
D14*
X57750000Y-94750000D03*
X90500000Y-140500000D03*
X90500000Y-145500000D03*
X75500000Y-148160000D03*
D20*
X75500000Y-138000000D03*
D14*
X112650000Y-52000000D03*
D20*
X112650000Y-41840000D03*
D14*
X70250000Y-119000000D03*
D20*
X70250000Y-129160000D03*
D23*
X57700000Y-126000000D03*
D14*
X66120000Y-68600000D03*
D20*
X66120000Y-78760000D03*
D14*
X66150000Y-66230000D03*
D20*
X66150000Y-56070000D03*
D14*
X63100000Y-64664000D03*
D20*
X63100000Y-74824000D03*
D23*
X112740000Y-146810000D03*
D27*
X57206000Y-139848000D03*
D20*
X57206000Y-147468000D03*
D14*
X103484800Y-144928000D03*
X98484800Y-144928000D03*
D27*
X57206000Y-129688000D03*
D20*
X57206000Y-137308000D03*
D33*
X71750000Y-99462000D03*
D32*
X71750000Y-96922000D03*
X71750000Y-94382000D03*
D14*
X113110000Y-100610000D03*
X113110000Y-95610000D03*
X71000000Y-92000000D03*
X76000000Y-92000000D03*
X67424000Y-81031200D03*
X67424000Y-86031200D03*
X96530000Y-54890000D03*
X91530000Y-54890000D03*
X106350000Y-113350000D03*
X106350000Y-118350000D03*
D33*
X106500000Y-105475000D03*
D32*
X106500000Y-108075000D03*
X106500000Y-110675000D03*
D14*
X99800000Y-108270000D03*
D20*
X99800000Y-118430000D03*
D14*
X112550000Y-77830000D03*
D20*
X112550000Y-67670000D03*
D34*
X107885000Y-82775000D03*
X107885000Y-84045000D03*
X107885000Y-85315000D03*
X107885000Y-86585000D03*
X112835000Y-86585000D03*
X112835000Y-85315000D03*
X112835000Y-84045000D03*
X112835000Y-82775000D03*
D15*
X88910000Y-57940000D03*
D20*
X88910000Y-60480000D03*
X88910000Y-63020000D03*
X88910000Y-65560000D03*
X96530000Y-65560000D03*
X96530000Y-63020000D03*
X96530000Y-60480000D03*
X96530000Y-57940000D03*
D14*
X100060000Y-72250000D03*
D20*
X89900000Y-72250000D03*
D35*
X57980000Y-75090000D03*
D36*
X60520000Y-75090000D03*
X57980000Y-72550000D03*
X60520000Y-72550000D03*
X57980000Y-70010000D03*
X60520000Y-70010000D03*
X57980000Y-67470000D03*
X60520000Y-67470000D03*
X57980000Y-64930000D03*
X60520000Y-64930000D03*
D37*
X81605000Y-46925000D03*
X84145000Y-46925000D03*
X86685000Y-46925000D03*
X87500000Y-73000000D03*
X84960000Y-73000000D03*
X82420000Y-73000000D03*
D35*
X68250000Y-52000000D03*
D36*
X70790000Y-52000000D03*
X68250000Y-49460000D03*
X70790000Y-49460000D03*
X68250000Y-46920000D03*
X70790000Y-46920000D03*
X68250000Y-44380000D03*
X70790000Y-44380000D03*
X68250000Y-41840000D03*
X70790000Y-41840000D03*
D15*
X93500000Y-140000000D03*
D20*
X93500000Y-137460000D03*
X93500000Y-134920000D03*
X93500000Y-132380000D03*
X93500000Y-129840000D03*
X93500000Y-127300000D03*
X93500000Y-124760000D03*
X93500000Y-122220000D03*
X93500000Y-119680000D03*
X93500000Y-117140000D03*
X93500000Y-114600000D03*
X93500000Y-112060000D03*
X93500000Y-109520000D03*
X93500000Y-106980000D03*
X93500000Y-104440000D03*
D15*
X108740000Y-140000000D03*
D20*
X108740000Y-137460000D03*
X108740000Y-134920000D03*
X108740000Y-132380000D03*
X108740000Y-129840000D03*
X108740000Y-127300000D03*
X108740000Y-124760000D03*
X108740000Y-122220000D03*
X108740000Y-119680000D03*
X108740000Y-117140000D03*
X108740000Y-114600000D03*
X108740000Y-112060000D03*
X108740000Y-109520000D03*
X108740000Y-106980000D03*
X108740000Y-104440000D03*
G36*
X65526288Y-47648836D02*
G01*
X65526575Y-47650815D01*
X65525446Y-47651937D01*
X65461923Y-47676784D01*
X65421303Y-47732878D01*
X65417459Y-47802030D01*
X65451610Y-47862282D01*
X65513091Y-47894598D01*
X65537333Y-47897010D01*
X65538958Y-47898176D01*
X65538760Y-47900167D01*
X65537135Y-47901000D01*
X65262870Y-47901000D01*
X65261138Y-47900000D01*
X65261138Y-47898000D01*
X65262307Y-47897081D01*
X65329319Y-47877405D01*
X65374674Y-47825062D01*
X65384531Y-47756509D01*
X65355760Y-47693511D01*
X65297328Y-47655959D01*
X65290918Y-47654750D01*
X65289402Y-47653447D01*
X65289772Y-47651481D01*
X65291368Y-47650787D01*
X65460133Y-47657418D01*
X65524430Y-47648095D01*
X65526288Y-47648836D01*
G37*
G36*
X56968862Y-42100000D02*
G01*
X56968862Y-42102000D01*
X56967693Y-42102919D01*
X56900681Y-42122595D01*
X56855326Y-42174938D01*
X56845469Y-42243491D01*
X56874240Y-42306489D01*
X56931616Y-42343363D01*
X56932533Y-42345141D01*
X56931451Y-42346824D01*
X56930509Y-42347046D01*
X56739850Y-42344550D01*
X56712302Y-42349284D01*
X56710425Y-42348592D01*
X56710087Y-42346621D01*
X56711234Y-42345450D01*
X56768077Y-42323216D01*
X56808697Y-42267122D01*
X56812541Y-42197970D01*
X56778390Y-42137718D01*
X56716909Y-42105402D01*
X56692667Y-42102990D01*
X56691042Y-42101824D01*
X56691240Y-42099833D01*
X56692865Y-42099000D01*
X56967130Y-42099000D01*
X56968862Y-42100000D01*
G37*
M02*
