%TF.GenerationSoftware,KiCad,Pcbnew,(6.0.1)*%
%TF.CreationDate,2022-10-29T04:53:39-07:00*%
%TF.ProjectId,DuDad2HP_Panel,44754461-6432-4485-905f-50616e656c2e,rev?*%
%TF.SameCoordinates,Original*%
%TF.FileFunction,Legend,Top*%
%TF.FilePolarity,Positive*%
%FSLAX46Y46*%
G04 Gerber Fmt 4.6, Leading zero omitted, Abs format (unit mm)*
G04 Created by KiCad (PCBNEW (6.0.1)) date 2022-10-29 04:53:39*
%MOMM*%
%LPD*%
G01*
G04 APERTURE LIST*
%ADD10C,0.150000*%
%ADD11C,0.500000*%
%ADD12C,0.300000*%
%ADD13C,0.100000*%
%ADD14C,0.250000*%
%ADD15C,0.010000*%
G04 APERTURE END LIST*
D10*
X58525000Y-59893000D02*
X51525000Y-59893000D01*
D11*
X53300000Y-153040000D02*
X56700000Y-153040000D01*
X53300000Y-153040000D02*
X53300000Y-144940000D01*
X56700000Y-153040000D02*
X56700000Y-144940000D01*
D10*
X51525000Y-68575000D02*
X58525000Y-68575000D01*
X51525000Y-59893000D02*
X51525000Y-68575000D01*
X58525000Y-68575000D02*
X58525000Y-59893000D01*
D11*
X53300000Y-144940000D02*
X56700000Y-144940000D01*
D10*
X50925000Y-75523571D02*
X51067857Y-75571190D01*
X51115476Y-75618809D01*
X51163095Y-75714047D01*
X51163095Y-75856904D01*
X51115476Y-75952142D01*
X51067857Y-75999761D01*
X50972619Y-76047380D01*
X50591666Y-76047380D01*
X50591666Y-75047380D01*
X50925000Y-75047380D01*
X51020238Y-75095000D01*
X51067857Y-75142619D01*
X51115476Y-75237857D01*
X51115476Y-75333095D01*
X51067857Y-75428333D01*
X51020238Y-75475952D01*
X50925000Y-75523571D01*
X50591666Y-75523571D01*
X51734523Y-76047380D02*
X51639285Y-75999761D01*
X51591666Y-75952142D01*
X51544047Y-75856904D01*
X51544047Y-75571190D01*
X51591666Y-75475952D01*
X51639285Y-75428333D01*
X51734523Y-75380714D01*
X51877380Y-75380714D01*
X51972619Y-75428333D01*
X52020238Y-75475952D01*
X52067857Y-75571190D01*
X52067857Y-75856904D01*
X52020238Y-75952142D01*
X51972619Y-75999761D01*
X51877380Y-76047380D01*
X51734523Y-76047380D01*
X52639285Y-76047380D02*
X52544047Y-75999761D01*
X52496428Y-75952142D01*
X52448809Y-75856904D01*
X52448809Y-75571190D01*
X52496428Y-75475952D01*
X52544047Y-75428333D01*
X52639285Y-75380714D01*
X52782142Y-75380714D01*
X52877380Y-75428333D01*
X52925000Y-75475952D01*
X52972619Y-75571190D01*
X52972619Y-75856904D01*
X52925000Y-75952142D01*
X52877380Y-75999761D01*
X52782142Y-76047380D01*
X52639285Y-76047380D01*
X53258333Y-75380714D02*
X53639285Y-75380714D01*
X53401190Y-75047380D02*
X53401190Y-75904523D01*
X53448809Y-75999761D01*
X53544047Y-76047380D01*
X53639285Y-76047380D01*
X55210714Y-76047380D02*
X54734523Y-76047380D01*
X54734523Y-75047380D01*
X55686904Y-76047380D02*
X55591666Y-75999761D01*
X55544047Y-75952142D01*
X55496428Y-75856904D01*
X55496428Y-75571190D01*
X55544047Y-75475952D01*
X55591666Y-75428333D01*
X55686904Y-75380714D01*
X55829761Y-75380714D01*
X55925000Y-75428333D01*
X55972619Y-75475952D01*
X56020238Y-75571190D01*
X56020238Y-75856904D01*
X55972619Y-75952142D01*
X55925000Y-75999761D01*
X55829761Y-76047380D01*
X55686904Y-76047380D01*
X56877380Y-76047380D02*
X56877380Y-75523571D01*
X56829761Y-75428333D01*
X56734523Y-75380714D01*
X56544047Y-75380714D01*
X56448809Y-75428333D01*
X56877380Y-75999761D02*
X56782142Y-76047380D01*
X56544047Y-76047380D01*
X56448809Y-75999761D01*
X56401190Y-75904523D01*
X56401190Y-75809285D01*
X56448809Y-75714047D01*
X56544047Y-75666428D01*
X56782142Y-75666428D01*
X56877380Y-75618809D01*
X57782142Y-76047380D02*
X57782142Y-75047380D01*
X57782142Y-75999761D02*
X57686904Y-76047380D01*
X57496428Y-76047380D01*
X57401190Y-75999761D01*
X57353571Y-75952142D01*
X57305952Y-75856904D01*
X57305952Y-75571190D01*
X57353571Y-75475952D01*
X57401190Y-75428333D01*
X57496428Y-75380714D01*
X57686904Y-75380714D01*
X57782142Y-75428333D01*
X58639285Y-75999761D02*
X58544047Y-76047380D01*
X58353571Y-76047380D01*
X58258333Y-75999761D01*
X58210714Y-75904523D01*
X58210714Y-75523571D01*
X58258333Y-75428333D01*
X58353571Y-75380714D01*
X58544047Y-75380714D01*
X58639285Y-75428333D01*
X58686904Y-75523571D01*
X58686904Y-75618809D01*
X58210714Y-75714047D01*
X59115476Y-76047380D02*
X59115476Y-75380714D01*
X59115476Y-75571190D02*
X59163095Y-75475952D01*
X59210714Y-75428333D01*
X59305952Y-75380714D01*
X59401190Y-75380714D01*
X50782142Y-77133571D02*
X51115476Y-77133571D01*
X51258333Y-77657380D02*
X50782142Y-77657380D01*
X50782142Y-76657380D01*
X51258333Y-76657380D01*
X51591666Y-77657380D02*
X52115476Y-76990714D01*
X51591666Y-76990714D02*
X52115476Y-77657380D01*
X52353571Y-76990714D02*
X52734523Y-76990714D01*
X52496428Y-76657380D02*
X52496428Y-77514523D01*
X52544047Y-77609761D01*
X52639285Y-77657380D01*
X52734523Y-77657380D01*
X53686904Y-76657380D02*
X54258333Y-76657380D01*
X53972619Y-77657380D02*
X53972619Y-76657380D01*
X54591666Y-77657380D02*
X54591666Y-76990714D01*
X54591666Y-77181190D02*
X54639285Y-77085952D01*
X54686904Y-77038333D01*
X54782142Y-76990714D01*
X54877380Y-76990714D01*
X55210714Y-77657380D02*
X55210714Y-76990714D01*
X55210714Y-76657380D02*
X55163095Y-76705000D01*
X55210714Y-76752619D01*
X55258333Y-76705000D01*
X55210714Y-76657380D01*
X55210714Y-76752619D01*
X56115476Y-76990714D02*
X56115476Y-77800238D01*
X56067857Y-77895476D01*
X56020238Y-77943095D01*
X55925000Y-77990714D01*
X55782142Y-77990714D01*
X55686904Y-77943095D01*
X56115476Y-77609761D02*
X56020238Y-77657380D01*
X55829761Y-77657380D01*
X55734523Y-77609761D01*
X55686904Y-77562142D01*
X55639285Y-77466904D01*
X55639285Y-77181190D01*
X55686904Y-77085952D01*
X55734523Y-77038333D01*
X55829761Y-76990714D01*
X56020238Y-76990714D01*
X56115476Y-77038333D01*
X57544047Y-76657380D02*
X57734523Y-76657380D01*
X57829761Y-76705000D01*
X57925000Y-76800238D01*
X57972619Y-76990714D01*
X57972619Y-77324047D01*
X57925000Y-77514523D01*
X57829761Y-77609761D01*
X57734523Y-77657380D01*
X57544047Y-77657380D01*
X57448809Y-77609761D01*
X57353571Y-77514523D01*
X57305952Y-77324047D01*
X57305952Y-76990714D01*
X57353571Y-76800238D01*
X57448809Y-76705000D01*
X57544047Y-76657380D01*
X58258333Y-76990714D02*
X58639285Y-76990714D01*
X58401190Y-77657380D02*
X58401190Y-76800238D01*
X58448809Y-76705000D01*
X58544047Y-76657380D01*
X58639285Y-76657380D01*
X58829761Y-76990714D02*
X59210714Y-76990714D01*
X58972619Y-77657380D02*
X58972619Y-76800238D01*
X59020238Y-76705000D01*
X59115476Y-76657380D01*
X59210714Y-76657380D01*
X52047619Y-119495000D02*
X51952380Y-119447380D01*
X51809523Y-119447380D01*
X51666666Y-119495000D01*
X51571428Y-119590238D01*
X51523809Y-119685476D01*
X51476190Y-119875952D01*
X51476190Y-120018809D01*
X51523809Y-120209285D01*
X51571428Y-120304523D01*
X51666666Y-120399761D01*
X51809523Y-120447380D01*
X51904761Y-120447380D01*
X52047619Y-120399761D01*
X52095238Y-120352142D01*
X52095238Y-120018809D01*
X51904761Y-120018809D01*
X52523809Y-120447380D02*
X52523809Y-119780714D01*
X52523809Y-119971190D02*
X52571428Y-119875952D01*
X52619047Y-119828333D01*
X52714285Y-119780714D01*
X52809523Y-119780714D01*
X53523809Y-120399761D02*
X53428571Y-120447380D01*
X53238095Y-120447380D01*
X53142857Y-120399761D01*
X53095238Y-120304523D01*
X53095238Y-119923571D01*
X53142857Y-119828333D01*
X53238095Y-119780714D01*
X53428571Y-119780714D01*
X53523809Y-119828333D01*
X53571428Y-119923571D01*
X53571428Y-120018809D01*
X53095238Y-120114047D01*
X54380952Y-120399761D02*
X54285714Y-120447380D01*
X54095238Y-120447380D01*
X54000000Y-120399761D01*
X53952380Y-120304523D01*
X53952380Y-119923571D01*
X54000000Y-119828333D01*
X54095238Y-119780714D01*
X54285714Y-119780714D01*
X54380952Y-119828333D01*
X54428571Y-119923571D01*
X54428571Y-120018809D01*
X53952380Y-120114047D01*
X54857142Y-119780714D02*
X54857142Y-120447380D01*
X54857142Y-119875952D02*
X54904761Y-119828333D01*
X55000000Y-119780714D01*
X55142857Y-119780714D01*
X55238095Y-119828333D01*
X55285714Y-119923571D01*
X55285714Y-120447380D01*
X55619047Y-119780714D02*
X56000000Y-119780714D01*
X55761904Y-120447380D02*
X55761904Y-119590238D01*
X55809523Y-119495000D01*
X55904761Y-119447380D01*
X56000000Y-119447380D01*
X56761904Y-120447380D02*
X56761904Y-119923571D01*
X56714285Y-119828333D01*
X56619047Y-119780714D01*
X56428571Y-119780714D01*
X56333333Y-119828333D01*
X56761904Y-120399761D02*
X56666666Y-120447380D01*
X56428571Y-120447380D01*
X56333333Y-120399761D01*
X56285714Y-120304523D01*
X56285714Y-120209285D01*
X56333333Y-120114047D01*
X56428571Y-120066428D01*
X56666666Y-120066428D01*
X56761904Y-120018809D01*
X57666666Y-120399761D02*
X57571428Y-120447380D01*
X57380952Y-120447380D01*
X57285714Y-120399761D01*
X57238095Y-120352142D01*
X57190476Y-120256904D01*
X57190476Y-119971190D01*
X57238095Y-119875952D01*
X57285714Y-119828333D01*
X57380952Y-119780714D01*
X57571428Y-119780714D01*
X57666666Y-119828333D01*
X58476190Y-120399761D02*
X58380952Y-120447380D01*
X58190476Y-120447380D01*
X58095238Y-120399761D01*
X58047619Y-120304523D01*
X58047619Y-119923571D01*
X58095238Y-119828333D01*
X58190476Y-119780714D01*
X58380952Y-119780714D01*
X58476190Y-119828333D01*
X58523809Y-119923571D01*
X58523809Y-120018809D01*
X58047619Y-120114047D01*
X54000000Y-122057380D02*
X53523809Y-122057380D01*
X53523809Y-121057380D01*
X54761904Y-122057380D02*
X54761904Y-121533571D01*
X54714285Y-121438333D01*
X54619047Y-121390714D01*
X54428571Y-121390714D01*
X54333333Y-121438333D01*
X54761904Y-122009761D02*
X54666666Y-122057380D01*
X54428571Y-122057380D01*
X54333333Y-122009761D01*
X54285714Y-121914523D01*
X54285714Y-121819285D01*
X54333333Y-121724047D01*
X54428571Y-121676428D01*
X54666666Y-121676428D01*
X54761904Y-121628809D01*
X55238095Y-122057380D02*
X55238095Y-121057380D01*
X55238095Y-121438333D02*
X55333333Y-121390714D01*
X55523809Y-121390714D01*
X55619047Y-121438333D01*
X55666666Y-121485952D01*
X55714285Y-121581190D01*
X55714285Y-121866904D01*
X55666666Y-121962142D01*
X55619047Y-122009761D01*
X55523809Y-122057380D01*
X55333333Y-122057380D01*
X55238095Y-122009761D01*
X56095238Y-122009761D02*
X56190476Y-122057380D01*
X56380952Y-122057380D01*
X56476190Y-122009761D01*
X56523809Y-121914523D01*
X56523809Y-121866904D01*
X56476190Y-121771666D01*
X56380952Y-121724047D01*
X56238095Y-121724047D01*
X56142857Y-121676428D01*
X56095238Y-121581190D01*
X56095238Y-121533571D01*
X56142857Y-121438333D01*
X56238095Y-121390714D01*
X56380952Y-121390714D01*
X56476190Y-121438333D01*
D12*
X53067857Y-67221571D02*
X52567857Y-66507285D01*
X52210714Y-67221571D02*
X52210714Y-65721571D01*
X52782142Y-65721571D01*
X52925000Y-65793000D01*
X52996428Y-65864428D01*
X53067857Y-66007285D01*
X53067857Y-66221571D01*
X52996428Y-66364428D01*
X52925000Y-66435857D01*
X52782142Y-66507285D01*
X52210714Y-66507285D01*
X54282142Y-67150142D02*
X54139285Y-67221571D01*
X53853571Y-67221571D01*
X53710714Y-67150142D01*
X53639285Y-67007285D01*
X53639285Y-66435857D01*
X53710714Y-66293000D01*
X53853571Y-66221571D01*
X54139285Y-66221571D01*
X54282142Y-66293000D01*
X54353571Y-66435857D01*
X54353571Y-66578714D01*
X53639285Y-66721571D01*
X54925000Y-67150142D02*
X55067857Y-67221571D01*
X55353571Y-67221571D01*
X55496428Y-67150142D01*
X55567857Y-67007285D01*
X55567857Y-66935857D01*
X55496428Y-66793000D01*
X55353571Y-66721571D01*
X55139285Y-66721571D01*
X54996428Y-66650142D01*
X54925000Y-66507285D01*
X54925000Y-66435857D01*
X54996428Y-66293000D01*
X55139285Y-66221571D01*
X55353571Y-66221571D01*
X55496428Y-66293000D01*
X56782142Y-67150142D02*
X56639285Y-67221571D01*
X56353571Y-67221571D01*
X56210714Y-67150142D01*
X56139285Y-67007285D01*
X56139285Y-66435857D01*
X56210714Y-66293000D01*
X56353571Y-66221571D01*
X56639285Y-66221571D01*
X56782142Y-66293000D01*
X56853571Y-66435857D01*
X56853571Y-66578714D01*
X56139285Y-66721571D01*
X57282142Y-66221571D02*
X57853571Y-66221571D01*
X57496428Y-65721571D02*
X57496428Y-67007285D01*
X57567857Y-67150142D01*
X57710714Y-67221571D01*
X57853571Y-67221571D01*
D13*
X52927380Y-69348690D02*
X52927380Y-68848690D01*
X53117857Y-68848690D01*
X53165476Y-68872500D01*
X53189285Y-68896309D01*
X53213095Y-68943928D01*
X53213095Y-69015357D01*
X53189285Y-69062976D01*
X53165476Y-69086785D01*
X53117857Y-69110595D01*
X52927380Y-69110595D01*
X53427380Y-69348690D02*
X53427380Y-69015357D01*
X53427380Y-69110595D02*
X53451190Y-69062976D01*
X53475000Y-69039166D01*
X53522619Y-69015357D01*
X53570238Y-69015357D01*
X53927380Y-69324880D02*
X53879761Y-69348690D01*
X53784523Y-69348690D01*
X53736904Y-69324880D01*
X53713095Y-69277261D01*
X53713095Y-69086785D01*
X53736904Y-69039166D01*
X53784523Y-69015357D01*
X53879761Y-69015357D01*
X53927380Y-69039166D01*
X53951190Y-69086785D01*
X53951190Y-69134404D01*
X53713095Y-69182023D01*
X54141666Y-69324880D02*
X54189285Y-69348690D01*
X54284523Y-69348690D01*
X54332142Y-69324880D01*
X54355952Y-69277261D01*
X54355952Y-69253452D01*
X54332142Y-69205833D01*
X54284523Y-69182023D01*
X54213095Y-69182023D01*
X54165476Y-69158214D01*
X54141666Y-69110595D01*
X54141666Y-69086785D01*
X54165476Y-69039166D01*
X54213095Y-69015357D01*
X54284523Y-69015357D01*
X54332142Y-69039166D01*
X54546428Y-69324880D02*
X54594047Y-69348690D01*
X54689285Y-69348690D01*
X54736904Y-69324880D01*
X54760714Y-69277261D01*
X54760714Y-69253452D01*
X54736904Y-69205833D01*
X54689285Y-69182023D01*
X54617857Y-69182023D01*
X54570238Y-69158214D01*
X54546428Y-69110595D01*
X54546428Y-69086785D01*
X54570238Y-69039166D01*
X54617857Y-69015357D01*
X54689285Y-69015357D01*
X54736904Y-69039166D01*
X55284523Y-69015357D02*
X55475000Y-69015357D01*
X55355952Y-68848690D02*
X55355952Y-69277261D01*
X55379761Y-69324880D01*
X55427380Y-69348690D01*
X55475000Y-69348690D01*
X55594047Y-69015357D02*
X55689285Y-69348690D01*
X55784523Y-69110595D01*
X55879761Y-69348690D01*
X55975000Y-69015357D01*
X56165476Y-69348690D02*
X56165476Y-69015357D01*
X56165476Y-68848690D02*
X56141666Y-68872500D01*
X56165476Y-68896309D01*
X56189285Y-68872500D01*
X56165476Y-68848690D01*
X56165476Y-68896309D01*
X56617857Y-69324880D02*
X56570238Y-69348690D01*
X56475000Y-69348690D01*
X56427380Y-69324880D01*
X56403571Y-69301071D01*
X56379761Y-69253452D01*
X56379761Y-69110595D01*
X56403571Y-69062976D01*
X56427380Y-69039166D01*
X56475000Y-69015357D01*
X56570238Y-69015357D01*
X56617857Y-69039166D01*
X57022619Y-69324880D02*
X56975000Y-69348690D01*
X56879761Y-69348690D01*
X56832142Y-69324880D01*
X56808333Y-69277261D01*
X56808333Y-69086785D01*
X56832142Y-69039166D01*
X56879761Y-69015357D01*
X56975000Y-69015357D01*
X57022619Y-69039166D01*
X57046428Y-69086785D01*
X57046428Y-69134404D01*
X56808333Y-69182023D01*
X52308333Y-69820357D02*
X52498809Y-69820357D01*
X52379761Y-70153690D02*
X52379761Y-69725119D01*
X52403571Y-69677500D01*
X52451190Y-69653690D01*
X52498809Y-69653690D01*
X52736904Y-70153690D02*
X52689285Y-70129880D01*
X52665476Y-70106071D01*
X52641666Y-70058452D01*
X52641666Y-69915595D01*
X52665476Y-69867976D01*
X52689285Y-69844166D01*
X52736904Y-69820357D01*
X52808333Y-69820357D01*
X52855952Y-69844166D01*
X52879761Y-69867976D01*
X52903571Y-69915595D01*
X52903571Y-70058452D01*
X52879761Y-70106071D01*
X52855952Y-70129880D01*
X52808333Y-70153690D01*
X52736904Y-70153690D01*
X53117857Y-70153690D02*
X53117857Y-69820357D01*
X53117857Y-69915595D02*
X53141666Y-69867976D01*
X53165476Y-69844166D01*
X53213095Y-69820357D01*
X53260714Y-69820357D01*
X53808333Y-70153690D02*
X53808333Y-69653690D01*
X53808333Y-69844166D02*
X53855952Y-69820357D01*
X53951190Y-69820357D01*
X53998809Y-69844166D01*
X54022619Y-69867976D01*
X54046428Y-69915595D01*
X54046428Y-70058452D01*
X54022619Y-70106071D01*
X53998809Y-70129880D01*
X53951190Y-70153690D01*
X53855952Y-70153690D01*
X53808333Y-70129880D01*
X54332142Y-70153690D02*
X54284523Y-70129880D01*
X54260714Y-70106071D01*
X54236904Y-70058452D01*
X54236904Y-69915595D01*
X54260714Y-69867976D01*
X54284523Y-69844166D01*
X54332142Y-69820357D01*
X54403571Y-69820357D01*
X54451190Y-69844166D01*
X54475000Y-69867976D01*
X54498809Y-69915595D01*
X54498809Y-70058452D01*
X54475000Y-70106071D01*
X54451190Y-70129880D01*
X54403571Y-70153690D01*
X54332142Y-70153690D01*
X54784523Y-70153690D02*
X54736904Y-70129880D01*
X54713095Y-70106071D01*
X54689285Y-70058452D01*
X54689285Y-69915595D01*
X54713095Y-69867976D01*
X54736904Y-69844166D01*
X54784523Y-69820357D01*
X54855952Y-69820357D01*
X54903571Y-69844166D01*
X54927380Y-69867976D01*
X54951190Y-69915595D01*
X54951190Y-70058452D01*
X54927380Y-70106071D01*
X54903571Y-70129880D01*
X54855952Y-70153690D01*
X54784523Y-70153690D01*
X55094047Y-69820357D02*
X55284523Y-69820357D01*
X55165476Y-69653690D02*
X55165476Y-70082261D01*
X55189285Y-70129880D01*
X55236904Y-70153690D01*
X55284523Y-70153690D01*
X55522619Y-70153690D02*
X55475000Y-70129880D01*
X55451190Y-70082261D01*
X55451190Y-69653690D01*
X55784523Y-70153690D02*
X55736904Y-70129880D01*
X55713095Y-70106071D01*
X55689285Y-70058452D01*
X55689285Y-69915595D01*
X55713095Y-69867976D01*
X55736904Y-69844166D01*
X55784523Y-69820357D01*
X55855952Y-69820357D01*
X55903571Y-69844166D01*
X55927380Y-69867976D01*
X55951190Y-69915595D01*
X55951190Y-70058452D01*
X55927380Y-70106071D01*
X55903571Y-70129880D01*
X55855952Y-70153690D01*
X55784523Y-70153690D01*
X56379761Y-70153690D02*
X56379761Y-69891785D01*
X56355952Y-69844166D01*
X56308333Y-69820357D01*
X56213095Y-69820357D01*
X56165476Y-69844166D01*
X56379761Y-70129880D02*
X56332142Y-70153690D01*
X56213095Y-70153690D01*
X56165476Y-70129880D01*
X56141666Y-70082261D01*
X56141666Y-70034642D01*
X56165476Y-69987023D01*
X56213095Y-69963214D01*
X56332142Y-69963214D01*
X56379761Y-69939404D01*
X56832142Y-70153690D02*
X56832142Y-69653690D01*
X56832142Y-70129880D02*
X56784523Y-70153690D01*
X56689285Y-70153690D01*
X56641666Y-70129880D01*
X56617857Y-70106071D01*
X56594047Y-70058452D01*
X56594047Y-69915595D01*
X56617857Y-69867976D01*
X56641666Y-69844166D01*
X56689285Y-69820357D01*
X56784523Y-69820357D01*
X56832142Y-69844166D01*
X57260714Y-70129880D02*
X57213095Y-70153690D01*
X57117857Y-70153690D01*
X57070238Y-70129880D01*
X57046428Y-70082261D01*
X57046428Y-69891785D01*
X57070238Y-69844166D01*
X57117857Y-69820357D01*
X57213095Y-69820357D01*
X57260714Y-69844166D01*
X57284523Y-69891785D01*
X57284523Y-69939404D01*
X57046428Y-69987023D01*
X57498809Y-70153690D02*
X57498809Y-69820357D01*
X57498809Y-69915595D02*
X57522619Y-69867976D01*
X57546428Y-69844166D01*
X57594047Y-69820357D01*
X57641666Y-69820357D01*
D12*
X51503571Y-150903571D02*
X52503571Y-150903571D01*
X51503571Y-151546428D02*
X52289285Y-151546428D01*
X52432142Y-151475000D01*
X52503571Y-151332142D01*
X52503571Y-151117857D01*
X52432142Y-150975000D01*
X52360714Y-150903571D01*
X51003571Y-150189285D02*
X52217857Y-150189285D01*
X52360714Y-150117857D01*
X52432142Y-150046428D01*
X52503571Y-149903571D01*
X52503571Y-149617857D01*
X52432142Y-149475000D01*
X52360714Y-149403571D01*
X52217857Y-149332142D01*
X51003571Y-149332142D01*
X52432142Y-148689285D02*
X52503571Y-148475000D01*
X52503571Y-148117857D01*
X52432142Y-147975000D01*
X52360714Y-147903571D01*
X52217857Y-147832142D01*
X52075000Y-147832142D01*
X51932142Y-147903571D01*
X51860714Y-147975000D01*
X51789285Y-148117857D01*
X51717857Y-148403571D01*
X51646428Y-148546428D01*
X51575000Y-148617857D01*
X51432142Y-148689285D01*
X51289285Y-148689285D01*
X51146428Y-148617857D01*
X51075000Y-148546428D01*
X51003571Y-148403571D01*
X51003571Y-148046428D01*
X51075000Y-147832142D01*
X51717857Y-146689285D02*
X51789285Y-146475000D01*
X51860714Y-146403571D01*
X52003571Y-146332142D01*
X52217857Y-146332142D01*
X52360714Y-146403571D01*
X52432142Y-146475000D01*
X52503571Y-146617857D01*
X52503571Y-147189285D01*
X51003571Y-147189285D01*
X51003571Y-146689285D01*
X51075000Y-146546428D01*
X51146428Y-146475000D01*
X51289285Y-146403571D01*
X51432142Y-146403571D01*
X51575000Y-146475000D01*
X51646428Y-146546428D01*
X51717857Y-146689285D01*
X51717857Y-147189285D01*
D10*
X52642857Y-107997380D02*
X53214285Y-107997380D01*
X52928571Y-108997380D02*
X52928571Y-107997380D01*
X53547619Y-108997380D02*
X53547619Y-108330714D01*
X53547619Y-108521190D02*
X53595238Y-108425952D01*
X53642857Y-108378333D01*
X53738095Y-108330714D01*
X53833333Y-108330714D01*
X54166666Y-108997380D02*
X54166666Y-108330714D01*
X54166666Y-107997380D02*
X54119047Y-108045000D01*
X54166666Y-108092619D01*
X54214285Y-108045000D01*
X54166666Y-107997380D01*
X54166666Y-108092619D01*
X55071428Y-108330714D02*
X55071428Y-109140238D01*
X55023809Y-109235476D01*
X54976190Y-109283095D01*
X54880952Y-109330714D01*
X54738095Y-109330714D01*
X54642857Y-109283095D01*
X55071428Y-108949761D02*
X54976190Y-108997380D01*
X54785714Y-108997380D01*
X54690476Y-108949761D01*
X54642857Y-108902142D01*
X54595238Y-108806904D01*
X54595238Y-108521190D01*
X54642857Y-108425952D01*
X54690476Y-108378333D01*
X54785714Y-108330714D01*
X54976190Y-108330714D01*
X55071428Y-108378333D01*
X56309523Y-108997380D02*
X56309523Y-107997380D01*
X56785714Y-108330714D02*
X56785714Y-108997380D01*
X56785714Y-108425952D02*
X56833333Y-108378333D01*
X56928571Y-108330714D01*
X57071428Y-108330714D01*
X57166666Y-108378333D01*
X57214285Y-108473571D01*
X57214285Y-108997380D01*
X53690476Y-110607380D02*
X53214285Y-110607380D01*
X53214285Y-109607380D01*
X54452380Y-110607380D02*
X54452380Y-110083571D01*
X54404761Y-109988333D01*
X54309523Y-109940714D01*
X54119047Y-109940714D01*
X54023809Y-109988333D01*
X54452380Y-110559761D02*
X54357142Y-110607380D01*
X54119047Y-110607380D01*
X54023809Y-110559761D01*
X53976190Y-110464523D01*
X53976190Y-110369285D01*
X54023809Y-110274047D01*
X54119047Y-110226428D01*
X54357142Y-110226428D01*
X54452380Y-110178809D01*
X54785714Y-109940714D02*
X55166666Y-109940714D01*
X54928571Y-109607380D02*
X54928571Y-110464523D01*
X54976190Y-110559761D01*
X55071428Y-110607380D01*
X55166666Y-110607380D01*
X55928571Y-110559761D02*
X55833333Y-110607380D01*
X55642857Y-110607380D01*
X55547619Y-110559761D01*
X55500000Y-110512142D01*
X55452380Y-110416904D01*
X55452380Y-110131190D01*
X55500000Y-110035952D01*
X55547619Y-109988333D01*
X55642857Y-109940714D01*
X55833333Y-109940714D01*
X55928571Y-109988333D01*
X56357142Y-110607380D02*
X56357142Y-109607380D01*
X56785714Y-110607380D02*
X56785714Y-110083571D01*
X56738095Y-109988333D01*
X56642857Y-109940714D01*
X56500000Y-109940714D01*
X56404761Y-109988333D01*
X56357142Y-110035952D01*
D14*
X51796428Y-128728571D02*
X51796428Y-127228571D01*
X52153571Y-127228571D01*
X52367857Y-127300000D01*
X52510714Y-127442857D01*
X52582142Y-127585714D01*
X52653571Y-127871428D01*
X52653571Y-128085714D01*
X52582142Y-128371428D01*
X52510714Y-128514285D01*
X52367857Y-128657142D01*
X52153571Y-128728571D01*
X51796428Y-128728571D01*
X53939285Y-127728571D02*
X53939285Y-128728571D01*
X53296428Y-127728571D02*
X53296428Y-128514285D01*
X53367857Y-128657142D01*
X53510714Y-128728571D01*
X53725000Y-128728571D01*
X53867857Y-128657142D01*
X53939285Y-128585714D01*
X54653571Y-128728571D02*
X54653571Y-127228571D01*
X55010714Y-127228571D01*
X55225000Y-127300000D01*
X55367857Y-127442857D01*
X55439285Y-127585714D01*
X55510714Y-127871428D01*
X55510714Y-128085714D01*
X55439285Y-128371428D01*
X55367857Y-128514285D01*
X55225000Y-128657142D01*
X55010714Y-128728571D01*
X54653571Y-128728571D01*
X56796428Y-128728571D02*
X56796428Y-127942857D01*
X56725000Y-127800000D01*
X56582142Y-127728571D01*
X56296428Y-127728571D01*
X56153571Y-127800000D01*
X56796428Y-128657142D02*
X56653571Y-128728571D01*
X56296428Y-128728571D01*
X56153571Y-128657142D01*
X56082142Y-128514285D01*
X56082142Y-128371428D01*
X56153571Y-128228571D01*
X56296428Y-128157142D01*
X56653571Y-128157142D01*
X56796428Y-128085714D01*
X58153571Y-128728571D02*
X58153571Y-127228571D01*
X58153571Y-128657142D02*
X58010714Y-128728571D01*
X57725000Y-128728571D01*
X57582142Y-128657142D01*
X57510714Y-128585714D01*
X57439285Y-128442857D01*
X57439285Y-128014285D01*
X57510714Y-127871428D01*
X57582142Y-127800000D01*
X57725000Y-127728571D01*
X58010714Y-127728571D01*
X58153571Y-127800000D01*
X53300000Y-125003571D02*
X54157142Y-125003571D01*
X53728571Y-126503571D02*
X53728571Y-125003571D01*
X54657142Y-126503571D02*
X54657142Y-125003571D01*
X55300000Y-126503571D02*
X55300000Y-125717857D01*
X55228571Y-125575000D01*
X55085714Y-125503571D01*
X54871428Y-125503571D01*
X54728571Y-125575000D01*
X54657142Y-125646428D01*
X56585714Y-126432142D02*
X56442857Y-126503571D01*
X56157142Y-126503571D01*
X56014285Y-126432142D01*
X55942857Y-126289285D01*
X55942857Y-125717857D01*
X56014285Y-125575000D01*
X56157142Y-125503571D01*
X56442857Y-125503571D01*
X56585714Y-125575000D01*
X56657142Y-125717857D01*
X56657142Y-125860714D01*
X55942857Y-126003571D01*
D15*
%TO.C,GR1*%
X52770850Y-82948564D02*
X52810001Y-82968964D01*
X52810001Y-82968964D02*
X52831324Y-82988324D01*
X52831324Y-82988324D02*
X52874317Y-83063678D01*
X52874317Y-83063678D02*
X52883749Y-83156627D01*
X52883749Y-83156627D02*
X52858324Y-83245532D01*
X52858324Y-83245532D02*
X52847739Y-83262664D01*
X52847739Y-83262664D02*
X52805233Y-83298884D01*
X52805233Y-83298884D02*
X52729547Y-83326833D01*
X52729547Y-83326833D02*
X52638189Y-83345904D01*
X52638189Y-83345904D02*
X52365894Y-83407631D01*
X52365894Y-83407631D02*
X52137148Y-83492619D01*
X52137148Y-83492619D02*
X51949659Y-83602237D01*
X51949659Y-83602237D02*
X51801135Y-83737854D01*
X51801135Y-83737854D02*
X51689284Y-83900839D01*
X51689284Y-83900839D02*
X51680442Y-83917875D01*
X51680442Y-83917875D02*
X51621481Y-84078373D01*
X51621481Y-84078373D02*
X51588247Y-84269234D01*
X51588247Y-84269234D02*
X51583103Y-84475712D01*
X51583103Y-84475712D02*
X51585249Y-84512105D01*
X51585249Y-84512105D02*
X51592032Y-84580482D01*
X51592032Y-84580482D02*
X51606687Y-84610079D01*
X51606687Y-84610079D02*
X51640423Y-84612808D01*
X51640423Y-84612808D02*
X51674149Y-84606571D01*
X51674149Y-84606571D02*
X51947553Y-84561310D01*
X51947553Y-84561310D02*
X52248536Y-84528690D01*
X52248536Y-84528690D02*
X52562109Y-84509290D01*
X52562109Y-84509290D02*
X52873283Y-84503688D01*
X52873283Y-84503688D02*
X53167068Y-84512462D01*
X53167068Y-84512462D02*
X53428475Y-84536190D01*
X53428475Y-84536190D02*
X53444200Y-84538293D01*
X53444200Y-84538293D02*
X53858307Y-84611996D01*
X53858307Y-84611996D02*
X54271922Y-84718091D01*
X54271922Y-84718091D02*
X54668559Y-84851812D01*
X54668559Y-84851812D02*
X54973187Y-84980422D01*
X54973187Y-84980422D02*
X55086255Y-85031816D01*
X55086255Y-85031816D02*
X55162623Y-85062126D01*
X55162623Y-85062126D02*
X55210615Y-85073792D01*
X55210615Y-85073792D02*
X55238556Y-85069256D01*
X55238556Y-85069256D02*
X55248139Y-85061049D01*
X55248139Y-85061049D02*
X55285235Y-85033225D01*
X55285235Y-85033225D02*
X55357900Y-84990997D01*
X55357900Y-84990997D02*
X55454973Y-84939877D01*
X55454973Y-84939877D02*
X55565290Y-84885378D01*
X55565290Y-84885378D02*
X55677689Y-84833013D01*
X55677689Y-84833013D02*
X55781006Y-84788293D01*
X55781006Y-84788293D02*
X55864079Y-84756731D01*
X55864079Y-84756731D02*
X55865011Y-84756420D01*
X55865011Y-84756420D02*
X56006431Y-84716478D01*
X56006431Y-84716478D02*
X56168025Y-84681921D01*
X56168025Y-84681921D02*
X56329341Y-84656376D01*
X56329341Y-84656376D02*
X56469925Y-84643469D01*
X56469925Y-84643469D02*
X56507134Y-84642600D01*
X56507134Y-84642600D02*
X56603700Y-84648870D01*
X56603700Y-84648870D02*
X56666529Y-84670503D01*
X56666529Y-84670503D02*
X56694753Y-84692753D01*
X56694753Y-84692753D02*
X56752333Y-84777761D01*
X56752333Y-84777761D02*
X56762044Y-84865665D01*
X56762044Y-84865665D02*
X56727873Y-84943051D01*
X56727873Y-84943051D02*
X56696726Y-84978373D01*
X56696726Y-84978373D02*
X56657807Y-85004806D01*
X56657807Y-85004806D02*
X56601578Y-85025367D01*
X56601578Y-85025367D02*
X56518498Y-85043075D01*
X56518498Y-85043075D02*
X56399027Y-85060949D01*
X56399027Y-85060949D02*
X56324621Y-85070643D01*
X56324621Y-85070643D02*
X56173678Y-85097255D01*
X56173678Y-85097255D02*
X56014148Y-85137835D01*
X56014148Y-85137835D02*
X55862307Y-85187301D01*
X55862307Y-85187301D02*
X55734428Y-85240572D01*
X55734428Y-85240572D02*
X55672936Y-85274150D01*
X55672936Y-85274150D02*
X55596948Y-85322262D01*
X55596948Y-85322262D02*
X55758824Y-85431123D01*
X55758824Y-85431123D02*
X55859514Y-85501502D01*
X55859514Y-85501502D02*
X55963018Y-85578065D01*
X55963018Y-85578065D02*
X56040543Y-85639082D01*
X56040543Y-85639082D02*
X56160386Y-85738179D01*
X56160386Y-85738179D02*
X56308510Y-85651366D01*
X56308510Y-85651366D02*
X56613945Y-85499422D01*
X56613945Y-85499422D02*
X56928730Y-85396841D01*
X56928730Y-85396841D02*
X57256601Y-85342496D01*
X57256601Y-85342496D02*
X57356117Y-85335526D01*
X57356117Y-85335526D02*
X57563026Y-85334131D01*
X57563026Y-85334131D02*
X57741959Y-85355032D01*
X57741959Y-85355032D02*
X57912336Y-85402256D01*
X57912336Y-85402256D02*
X58093583Y-85479827D01*
X58093583Y-85479827D02*
X58123332Y-85494542D01*
X58123332Y-85494542D02*
X58377974Y-85650332D01*
X58377974Y-85650332D02*
X58606860Y-85847485D01*
X58606860Y-85847485D02*
X58806889Y-86081896D01*
X58806889Y-86081896D02*
X58974958Y-86349457D01*
X58974958Y-86349457D02*
X59107967Y-86646063D01*
X59107967Y-86646063D02*
X59187473Y-86903200D01*
X59187473Y-86903200D02*
X59210747Y-87040557D01*
X59210747Y-87040557D02*
X59222734Y-87211117D01*
X59222734Y-87211117D02*
X59223801Y-87398637D01*
X59223801Y-87398637D02*
X59214315Y-87586874D01*
X59214315Y-87586874D02*
X59194643Y-87759586D01*
X59194643Y-87759586D02*
X59165153Y-87900529D01*
X59165153Y-87900529D02*
X59164903Y-87901399D01*
X59164903Y-87901399D02*
X59053820Y-88204369D01*
X59053820Y-88204369D02*
X58901870Y-88479967D01*
X58901870Y-88479967D02*
X58706158Y-88732866D01*
X58706158Y-88732866D02*
X58554239Y-88887169D01*
X58554239Y-88887169D02*
X58463278Y-88974002D01*
X58463278Y-88974002D02*
X58405679Y-89035366D01*
X58405679Y-89035366D02*
X58375935Y-89078505D01*
X58375935Y-89078505D02*
X58368539Y-89110660D01*
X58368539Y-89110660D02*
X58372142Y-89126661D01*
X58372142Y-89126661D02*
X58384526Y-89170666D01*
X58384526Y-89170666D02*
X58404149Y-89252993D01*
X58404149Y-89252993D02*
X58428381Y-89362130D01*
X58428381Y-89362130D02*
X58454591Y-89486566D01*
X58454591Y-89486566D02*
X58456311Y-89494961D01*
X58456311Y-89494961D02*
X58538796Y-90012692D01*
X58538796Y-90012692D02*
X58571906Y-90519029D01*
X58571906Y-90519029D02*
X58555496Y-91015106D01*
X58555496Y-91015106D02*
X58489422Y-91502057D01*
X58489422Y-91502057D02*
X58373539Y-91981017D01*
X58373539Y-91981017D02*
X58207703Y-92453121D01*
X58207703Y-92453121D02*
X58029533Y-92845537D01*
X58029533Y-92845537D02*
X57792943Y-93261478D01*
X57792943Y-93261478D02*
X57511808Y-93656850D01*
X57511808Y-93656850D02*
X57189080Y-94029100D01*
X57189080Y-94029100D02*
X56827715Y-94375672D01*
X56827715Y-94375672D02*
X56430665Y-94694012D01*
X56430665Y-94694012D02*
X56000884Y-94981565D01*
X56000884Y-94981565D02*
X55541325Y-95235776D01*
X55541325Y-95235776D02*
X55054942Y-95454091D01*
X55054942Y-95454091D02*
X54979417Y-95483753D01*
X54979417Y-95483753D02*
X54696666Y-95588667D01*
X54696666Y-95588667D02*
X54441142Y-95673655D01*
X54441142Y-95673655D02*
X54195674Y-95743484D01*
X54195674Y-95743484D02*
X53943093Y-95802919D01*
X53943093Y-95802919D02*
X53666230Y-95856726D01*
X53666230Y-95856726D02*
X53583900Y-95871110D01*
X53583900Y-95871110D02*
X53398891Y-95896104D01*
X53398891Y-95896104D02*
X53176772Y-95915402D01*
X53176772Y-95915402D02*
X52930949Y-95928694D01*
X52930949Y-95928694D02*
X52674826Y-95935672D01*
X52674826Y-95935672D02*
X52421807Y-95936025D01*
X52421807Y-95936025D02*
X52185296Y-95929445D01*
X52185296Y-95929445D02*
X51978698Y-95915621D01*
X51978698Y-95915621D02*
X51920200Y-95909514D01*
X51920200Y-95909514D02*
X51404515Y-95825653D01*
X51404515Y-95825653D02*
X50900514Y-95696061D01*
X50900514Y-95696061D02*
X50415359Y-95522843D01*
X50415359Y-95522843D02*
X50067742Y-95365352D01*
X50067742Y-95365352D02*
X49659169Y-95140455D01*
X49659169Y-95140455D02*
X49280376Y-94885972D01*
X49280376Y-94885972D02*
X48923969Y-94596090D01*
X48923969Y-94596090D02*
X48582556Y-94264998D01*
X48582556Y-94264998D02*
X48369965Y-94030473D01*
X48369965Y-94030473D02*
X48310862Y-93964336D01*
X48310862Y-93964336D02*
X48273328Y-93931715D01*
X48273328Y-93931715D02*
X48246735Y-93926831D01*
X48246735Y-93926831D02*
X48220456Y-93943907D01*
X48220456Y-93943907D02*
X48216779Y-93947193D01*
X48216779Y-93947193D02*
X48157669Y-93987383D01*
X48157669Y-93987383D02*
X48062617Y-94037370D01*
X48062617Y-94037370D02*
X47944126Y-94091661D01*
X47944126Y-94091661D02*
X47814699Y-94144761D01*
X47814699Y-94144761D02*
X47686837Y-94191177D01*
X47686837Y-94191177D02*
X47600491Y-94218016D01*
X47600491Y-94218016D02*
X47436583Y-94253868D01*
X47436583Y-94253868D02*
X47249769Y-94278181D01*
X47249769Y-94278181D02*
X47057953Y-94289850D01*
X47057953Y-94289850D02*
X46879040Y-94287771D01*
X46879040Y-94287771D02*
X46734311Y-94271486D01*
X46734311Y-94271486D02*
X46455451Y-94197378D01*
X46455451Y-94197378D02*
X46204123Y-94084490D01*
X46204123Y-94084490D02*
X45973460Y-93928989D01*
X45973460Y-93928989D02*
X45756596Y-93727038D01*
X45756596Y-93727038D02*
X45753554Y-93723787D01*
X45753554Y-93723787D02*
X45581578Y-93512371D01*
X45581578Y-93512371D02*
X45456057Y-93293861D01*
X45456057Y-93293861D02*
X45372659Y-93060158D01*
X45372659Y-93060158D02*
X45353004Y-92975181D01*
X45353004Y-92975181D02*
X45322948Y-92704304D01*
X45322948Y-92704304D02*
X45330630Y-92602158D01*
X45330630Y-92602158D02*
X45731157Y-92602158D01*
X45731157Y-92602158D02*
X45732672Y-92811774D01*
X45732672Y-92811774D02*
X45777327Y-93021547D01*
X45777327Y-93021547D02*
X45868235Y-93226303D01*
X45868235Y-93226303D02*
X45879460Y-93245422D01*
X45879460Y-93245422D02*
X45995192Y-93401686D01*
X45995192Y-93401686D02*
X46145125Y-93549666D01*
X46145125Y-93549666D02*
X46316815Y-93680207D01*
X46316815Y-93680207D02*
X46497816Y-93784153D01*
X46497816Y-93784153D02*
X46675684Y-93852350D01*
X46675684Y-93852350D02*
X46718719Y-93862850D01*
X46718719Y-93862850D02*
X46849176Y-93878945D01*
X46849176Y-93878945D02*
X47010569Y-93881757D01*
X47010569Y-93881757D02*
X47185149Y-93872516D01*
X47185149Y-93872516D02*
X47355169Y-93852449D01*
X47355169Y-93852449D02*
X47502881Y-93822787D01*
X47502881Y-93822787D02*
X47564100Y-93804293D01*
X47564100Y-93804293D02*
X47743763Y-93737500D01*
X47743763Y-93737500D02*
X47878275Y-93680423D01*
X47878275Y-93680423D02*
X47966080Y-93633770D01*
X47966080Y-93633770D02*
X48000474Y-93605891D01*
X48000474Y-93605891D02*
X48010154Y-93577317D01*
X48010154Y-93577317D02*
X47998263Y-93531942D01*
X47998263Y-93531942D02*
X47961435Y-93460357D01*
X47961435Y-93460357D02*
X47928822Y-93405570D01*
X47928822Y-93405570D02*
X47869278Y-93303943D01*
X47869278Y-93303943D02*
X47799906Y-93179237D01*
X47799906Y-93179237D02*
X47733180Y-93054017D01*
X47733180Y-93054017D02*
X47715613Y-93019863D01*
X47715613Y-93019863D02*
X47663400Y-92918783D01*
X47663400Y-92918783D02*
X47626893Y-92855596D01*
X47626893Y-92855596D02*
X47599152Y-92822721D01*
X47599152Y-92822721D02*
X47573235Y-92812579D01*
X47573235Y-92812579D02*
X47542205Y-92817588D01*
X47542205Y-92817588D02*
X47532905Y-92820298D01*
X47532905Y-92820298D02*
X47412737Y-92862048D01*
X47412737Y-92862048D02*
X47328059Y-92906710D01*
X47328059Y-92906710D02*
X47280334Y-92945101D01*
X47280334Y-92945101D02*
X47221456Y-93019990D01*
X47221456Y-93019990D02*
X47207691Y-93097335D01*
X47207691Y-93097335D02*
X47237294Y-93189781D01*
X47237294Y-93189781D02*
X47244565Y-93204199D01*
X47244565Y-93204199D02*
X47290074Y-93321657D01*
X47290074Y-93321657D02*
X47292166Y-93415258D01*
X47292166Y-93415258D02*
X47250889Y-93483812D01*
X47250889Y-93483812D02*
X47232859Y-93497517D01*
X47232859Y-93497517D02*
X47160305Y-93523531D01*
X47160305Y-93523531D02*
X47091879Y-93502073D01*
X47091879Y-93502073D02*
X47025488Y-93431931D01*
X47025488Y-93431931D02*
X46977211Y-93349494D01*
X46977211Y-93349494D02*
X46919576Y-93187172D01*
X46919576Y-93187172D02*
X46911318Y-93030171D01*
X46911318Y-93030171D02*
X46951131Y-92883480D01*
X46951131Y-92883480D02*
X47037705Y-92752088D01*
X47037705Y-92752088D02*
X47161511Y-92646353D01*
X47161511Y-92646353D02*
X47230068Y-92603060D01*
X47230068Y-92603060D02*
X47281608Y-92574382D01*
X47281608Y-92574382D02*
X47300101Y-92567400D01*
X47300101Y-92567400D02*
X47335915Y-92559139D01*
X47335915Y-92559139D02*
X47388571Y-92541136D01*
X47388571Y-92541136D02*
X47457649Y-92514872D01*
X47457649Y-92514872D02*
X47383874Y-92436408D01*
X47383874Y-92436408D02*
X47283619Y-92353554D01*
X47283619Y-92353554D02*
X47166226Y-92305782D01*
X47166226Y-92305782D02*
X47019071Y-92288305D01*
X47019071Y-92288305D02*
X46992571Y-92288000D01*
X46992571Y-92288000D02*
X46814948Y-92311561D01*
X46814948Y-92311561D02*
X46658292Y-92379993D01*
X46658292Y-92379993D02*
X46527675Y-92489917D01*
X46527675Y-92489917D02*
X46428168Y-92637955D01*
X46428168Y-92637955D02*
X46410864Y-92675515D01*
X46410864Y-92675515D02*
X46352730Y-92777336D01*
X46352730Y-92777336D02*
X46286771Y-92830207D01*
X46286771Y-92830207D02*
X46214091Y-92833509D01*
X46214091Y-92833509D02*
X46168140Y-92811717D01*
X46168140Y-92811717D02*
X46117932Y-92751974D01*
X46117932Y-92751974D02*
X46104955Y-92669112D01*
X46104955Y-92669112D02*
X46125329Y-92569849D01*
X46125329Y-92569849D02*
X46175172Y-92460906D01*
X46175172Y-92460906D02*
X46250604Y-92349003D01*
X46250604Y-92349003D02*
X46347744Y-92240859D01*
X46347744Y-92240859D02*
X46462711Y-92143194D01*
X46462711Y-92143194D02*
X46591624Y-92062727D01*
X46591624Y-92062727D02*
X46604487Y-92056205D01*
X46604487Y-92056205D02*
X46664572Y-92029311D01*
X46664572Y-92029311D02*
X46723926Y-92011743D01*
X46723926Y-92011743D02*
X46795642Y-92001592D01*
X46795642Y-92001592D02*
X46892813Y-91996949D01*
X46892813Y-91996949D02*
X47018000Y-91995900D01*
X47018000Y-91995900D02*
X47310100Y-91995900D01*
X47310100Y-91995900D02*
X47259300Y-91787865D01*
X47259300Y-91787865D02*
X47234120Y-91688525D01*
X47234120Y-91688525D02*
X47209473Y-91621939D01*
X47209473Y-91621939D02*
X47175324Y-91581538D01*
X47175324Y-91581538D02*
X47121634Y-91560756D01*
X47121634Y-91560756D02*
X47038370Y-91553023D01*
X47038370Y-91553023D02*
X46915494Y-91551771D01*
X46915494Y-91551771D02*
X46898505Y-91551746D01*
X46898505Y-91551746D02*
X46666971Y-91573846D01*
X46666971Y-91573846D02*
X46453672Y-91637495D01*
X46453672Y-91637495D02*
X46261722Y-91737517D01*
X46261722Y-91737517D02*
X46094233Y-91868740D01*
X46094233Y-91868740D02*
X45954319Y-92025990D01*
X45954319Y-92025990D02*
X45845093Y-92204092D01*
X45845093Y-92204092D02*
X45769668Y-92397872D01*
X45769668Y-92397872D02*
X45731157Y-92602158D01*
X45731157Y-92602158D02*
X45330630Y-92602158D01*
X45330630Y-92602158D02*
X45342872Y-92439386D01*
X45342872Y-92439386D02*
X45412088Y-92182713D01*
X45412088Y-92182713D02*
X45529910Y-91936566D01*
X45529910Y-91936566D02*
X45695649Y-91703231D01*
X45695649Y-91703231D02*
X45756591Y-91633921D01*
X45756591Y-91633921D02*
X45922746Y-91483311D01*
X45922746Y-91483311D02*
X46119541Y-91353518D01*
X46119541Y-91353518D02*
X46223005Y-91303820D01*
X46223005Y-91303820D02*
X47566092Y-91303820D01*
X47566092Y-91303820D02*
X47575413Y-91376355D01*
X47575413Y-91376355D02*
X47595831Y-91481122D01*
X47595831Y-91481122D02*
X47625540Y-91609925D01*
X47625540Y-91609925D02*
X47662736Y-91754566D01*
X47662736Y-91754566D02*
X47705612Y-91906851D01*
X47705612Y-91906851D02*
X47720826Y-91957800D01*
X47720826Y-91957800D02*
X47893719Y-92444846D01*
X47893719Y-92444846D02*
X48107318Y-92902816D01*
X48107318Y-92902816D02*
X48359689Y-93330058D01*
X48359689Y-93330058D02*
X48648898Y-93724920D01*
X48648898Y-93724920D02*
X48973008Y-94085752D01*
X48973008Y-94085752D02*
X49330085Y-94410902D01*
X49330085Y-94410902D02*
X49718193Y-94698719D01*
X49718193Y-94698719D02*
X50135399Y-94947552D01*
X50135399Y-94947552D02*
X50579766Y-95155750D01*
X50579766Y-95155750D02*
X51049360Y-95321660D01*
X51049360Y-95321660D02*
X51542245Y-95443633D01*
X51542245Y-95443633D02*
X51869400Y-95497926D01*
X51869400Y-95497926D02*
X52051667Y-95516391D01*
X52051667Y-95516391D02*
X52269447Y-95528631D01*
X52269447Y-95528631D02*
X52507827Y-95534600D01*
X52507827Y-95534600D02*
X52751898Y-95534255D01*
X52751898Y-95534255D02*
X52986748Y-95527554D01*
X52986748Y-95527554D02*
X53197467Y-95514453D01*
X53197467Y-95514453D02*
X53317200Y-95502139D01*
X53317200Y-95502139D02*
X53851788Y-95411194D01*
X53851788Y-95411194D02*
X54373538Y-95275094D01*
X54373538Y-95275094D02*
X54878390Y-95095775D01*
X54878390Y-95095775D02*
X55362288Y-94875176D01*
X55362288Y-94875176D02*
X55821172Y-94615234D01*
X55821172Y-94615234D02*
X56250985Y-94317886D01*
X56250985Y-94317886D02*
X56647669Y-93985072D01*
X56647669Y-93985072D02*
X56799039Y-93839569D01*
X56799039Y-93839569D02*
X57117438Y-93492943D01*
X57117438Y-93492943D02*
X57389887Y-93134354D01*
X57389887Y-93134354D02*
X57621017Y-92756526D01*
X57621017Y-92756526D02*
X57815462Y-92352182D01*
X57815462Y-92352182D02*
X57924228Y-92072100D01*
X57924228Y-92072100D02*
X58039464Y-91680546D01*
X58039464Y-91680546D02*
X58117693Y-91262781D01*
X58117693Y-91262781D02*
X58158491Y-90827837D01*
X58158491Y-90827837D02*
X58161436Y-90384750D01*
X58161436Y-90384750D02*
X58126104Y-89942553D01*
X58126104Y-89942553D02*
X58052072Y-89510280D01*
X58052072Y-89510280D02*
X58045583Y-89481300D01*
X58045583Y-89481300D02*
X58024045Y-89387220D01*
X58024045Y-89387220D02*
X58003905Y-89326288D01*
X58003905Y-89326288D02*
X57975466Y-89294494D01*
X57975466Y-89294494D02*
X57929032Y-89287828D01*
X57929032Y-89287828D02*
X57854905Y-89302280D01*
X57854905Y-89302280D02*
X57743388Y-89333840D01*
X57743388Y-89333840D02*
X57711400Y-89343106D01*
X57711400Y-89343106D02*
X57600890Y-89370367D01*
X57600890Y-89370367D02*
X57485763Y-89387867D01*
X57485763Y-89387867D02*
X57349973Y-89397424D01*
X57349973Y-89397424D02*
X57203400Y-89400686D01*
X57203400Y-89400686D02*
X57070334Y-89400839D01*
X57070334Y-89400839D02*
X56965642Y-89397262D01*
X56965642Y-89397262D02*
X56873862Y-89387695D01*
X56873862Y-89387695D02*
X56779533Y-89369881D01*
X56779533Y-89369881D02*
X56667194Y-89341561D01*
X56667194Y-89341561D02*
X56525578Y-89301682D01*
X56525578Y-89301682D02*
X56514761Y-89306965D01*
X56514761Y-89306965D02*
X56523074Y-89336332D01*
X56523074Y-89336332D02*
X56552400Y-89393036D01*
X56552400Y-89393036D02*
X56604624Y-89480327D01*
X56604624Y-89480327D02*
X56681629Y-89601455D01*
X56681629Y-89601455D02*
X56785300Y-89759672D01*
X56785300Y-89759672D02*
X56830628Y-89828013D01*
X56830628Y-89828013D02*
X57004958Y-90095810D01*
X57004958Y-90095810D02*
X57154148Y-90336736D01*
X57154148Y-90336736D02*
X57277003Y-90548563D01*
X57277003Y-90548563D02*
X57372323Y-90729065D01*
X57372323Y-90729065D02*
X57438913Y-90876016D01*
X57438913Y-90876016D02*
X57475575Y-90987189D01*
X57475575Y-90987189D02*
X57482800Y-91040918D01*
X57482800Y-91040918D02*
X57458012Y-91141460D01*
X57458012Y-91141460D02*
X57384536Y-91232699D01*
X57384536Y-91232699D02*
X57263702Y-91314209D01*
X57263702Y-91314209D02*
X57096838Y-91385565D01*
X57096838Y-91385565D02*
X56885275Y-91446341D01*
X56885275Y-91446341D02*
X56630343Y-91496114D01*
X56630343Y-91496114D02*
X56333371Y-91534457D01*
X56333371Y-91534457D02*
X55995690Y-91560946D01*
X55995690Y-91560946D02*
X55831800Y-91568845D01*
X55831800Y-91568845D02*
X55686625Y-91574119D01*
X55686625Y-91574119D02*
X55583096Y-91576019D01*
X55583096Y-91576019D02*
X55512126Y-91573778D01*
X55512126Y-91573778D02*
X55464625Y-91566631D01*
X55464625Y-91566631D02*
X55431507Y-91553814D01*
X55431507Y-91553814D02*
X55403685Y-91534562D01*
X55403685Y-91534562D02*
X55401269Y-91532602D01*
X55401269Y-91532602D02*
X55351757Y-91462523D01*
X55351757Y-91462523D02*
X55337715Y-91374625D01*
X55337715Y-91374625D02*
X55359771Y-91288061D01*
X55359771Y-91288061D02*
X55391784Y-91243527D01*
X55391784Y-91243527D02*
X55417005Y-91223117D01*
X55417005Y-91223117D02*
X55451506Y-91207667D01*
X55451506Y-91207667D02*
X55503592Y-91195801D01*
X55503592Y-91195801D02*
X55581564Y-91186145D01*
X55581564Y-91186145D02*
X55693725Y-91177321D01*
X55693725Y-91177321D02*
X55847714Y-91167993D01*
X55847714Y-91167993D02*
X56075851Y-91152267D01*
X56075851Y-91152267D02*
X56294215Y-91131858D01*
X56294215Y-91131858D02*
X56496820Y-91107743D01*
X56496820Y-91107743D02*
X56677684Y-91080897D01*
X56677684Y-91080897D02*
X56830821Y-91052297D01*
X56830821Y-91052297D02*
X56950249Y-91022919D01*
X56950249Y-91022919D02*
X57029983Y-90993740D01*
X57029983Y-90993740D02*
X57062067Y-90969841D01*
X57062067Y-90969841D02*
X57056247Y-90934947D01*
X57056247Y-90934947D02*
X57021230Y-90861485D01*
X57021230Y-90861485D02*
X56958372Y-90751470D01*
X56958372Y-90751470D02*
X56869034Y-90606916D01*
X56869034Y-90606916D02*
X56754573Y-90429837D01*
X56754573Y-90429837D02*
X56616348Y-90222248D01*
X56616348Y-90222248D02*
X56455717Y-89986163D01*
X56455717Y-89986163D02*
X56274040Y-89723597D01*
X56274040Y-89723597D02*
X56072674Y-89436565D01*
X56072674Y-89436565D02*
X55852978Y-89127080D01*
X55852978Y-89127080D02*
X55616311Y-88797157D01*
X55616311Y-88797157D02*
X55364031Y-88448811D01*
X55364031Y-88448811D02*
X55334462Y-88408186D01*
X55334462Y-88408186D02*
X55247495Y-88289252D01*
X55247495Y-88289252D02*
X55183935Y-88205303D01*
X55183935Y-88205303D02*
X55137305Y-88150243D01*
X55137305Y-88150243D02*
X55101127Y-88117980D01*
X55101127Y-88117980D02*
X55068922Y-88102417D01*
X55068922Y-88102417D02*
X55034215Y-88097460D01*
X55034215Y-88097460D02*
X55003760Y-88097036D01*
X55003760Y-88097036D02*
X54886138Y-88121118D01*
X54886138Y-88121118D02*
X54770535Y-88188980D01*
X54770535Y-88188980D02*
X54664683Y-88293927D01*
X54664683Y-88293927D02*
X54576314Y-88429260D01*
X54576314Y-88429260D02*
X54546436Y-88493157D01*
X54546436Y-88493157D02*
X54529691Y-88536638D01*
X54529691Y-88536638D02*
X54523133Y-88574115D01*
X54523133Y-88574115D02*
X54529256Y-88616967D01*
X54529256Y-88616967D02*
X54550555Y-88676571D01*
X54550555Y-88676571D02*
X54589526Y-88764305D01*
X54589526Y-88764305D02*
X54620566Y-88831180D01*
X54620566Y-88831180D02*
X54746246Y-89157084D01*
X54746246Y-89157084D02*
X54823317Y-89487141D01*
X54823317Y-89487141D02*
X54852492Y-89817303D01*
X54852492Y-89817303D02*
X54834488Y-90143524D01*
X54834488Y-90143524D02*
X54770016Y-90461755D01*
X54770016Y-90461755D02*
X54659792Y-90767950D01*
X54659792Y-90767950D02*
X54504529Y-91058062D01*
X54504529Y-91058062D02*
X54304942Y-91328044D01*
X54304942Y-91328044D02*
X54151224Y-91491357D01*
X54151224Y-91491357D02*
X53889133Y-91712314D01*
X53889133Y-91712314D02*
X53607247Y-91886507D01*
X53607247Y-91886507D02*
X53305073Y-92014149D01*
X53305073Y-92014149D02*
X52982115Y-92095459D01*
X52982115Y-92095459D02*
X52694787Y-92128089D01*
X52694787Y-92128089D02*
X52346398Y-92125326D01*
X52346398Y-92125326D02*
X52019020Y-92076514D01*
X52019020Y-92076514D02*
X51710939Y-91981005D01*
X51710939Y-91981005D02*
X51420439Y-91838147D01*
X51420439Y-91838147D02*
X51145808Y-91647292D01*
X51145808Y-91647292D02*
X50939293Y-91462500D01*
X50939293Y-91462500D02*
X50710000Y-91205939D01*
X50710000Y-91205939D02*
X50529552Y-90936970D01*
X50529552Y-90936970D02*
X50397059Y-90653543D01*
X50397059Y-90653543D02*
X50311633Y-90353607D01*
X50311633Y-90353607D02*
X50272386Y-90035112D01*
X50272386Y-90035112D02*
X50269429Y-89918199D01*
X50269429Y-89918199D02*
X50675975Y-89918199D01*
X50675975Y-89918199D02*
X50680552Y-90093182D01*
X50680552Y-90093182D02*
X50697674Y-90241503D01*
X50697674Y-90241503D02*
X50731491Y-90380713D01*
X50731491Y-90380713D02*
X50786156Y-90528361D01*
X50786156Y-90528361D02*
X50857093Y-90683970D01*
X50857093Y-90683970D02*
X50925996Y-90819501D01*
X50925996Y-90819501D02*
X50990593Y-90925645D01*
X50990593Y-90925645D02*
X51063759Y-91020823D01*
X51063759Y-91020823D02*
X51158368Y-91123453D01*
X51158368Y-91123453D02*
X51178932Y-91144405D01*
X51178932Y-91144405D02*
X51277262Y-91238514D01*
X51277262Y-91238514D02*
X51379819Y-91327513D01*
X51379819Y-91327513D02*
X51477717Y-91404601D01*
X51477717Y-91404601D02*
X51562069Y-91462979D01*
X51562069Y-91462979D02*
X51623988Y-91495847D01*
X51623988Y-91495847D02*
X51644476Y-91500600D01*
X51644476Y-91500600D02*
X51648162Y-91480204D01*
X51648162Y-91480204D02*
X51633549Y-91429521D01*
X51633549Y-91429521D02*
X51626803Y-91412515D01*
X51626803Y-91412515D02*
X51592311Y-91268377D01*
X51592311Y-91268377D02*
X51602491Y-91121739D01*
X51602491Y-91121739D02*
X51652602Y-90981896D01*
X51652602Y-90981896D02*
X51737905Y-90858144D01*
X51737905Y-90858144D02*
X51853659Y-90759780D01*
X51853659Y-90759780D02*
X51991578Y-90697116D01*
X51991578Y-90697116D02*
X52157081Y-90670599D01*
X52157081Y-90670599D02*
X52308086Y-90692488D01*
X52308086Y-90692488D02*
X52447329Y-90763491D01*
X52447329Y-90763491D02*
X52533473Y-90836957D01*
X52533473Y-90836957D02*
X52637780Y-90970044D01*
X52637780Y-90970044D02*
X52692980Y-91113719D01*
X52692980Y-91113719D02*
X52700232Y-91271217D01*
X52700232Y-91271217D02*
X52697415Y-91295080D01*
X52697415Y-91295080D02*
X52664240Y-91417455D01*
X52664240Y-91417455D02*
X52604056Y-91536401D01*
X52604056Y-91536401D02*
X52527265Y-91634264D01*
X52527265Y-91634264D02*
X52470646Y-91679896D01*
X52470646Y-91679896D02*
X52390100Y-91729010D01*
X52390100Y-91729010D02*
X52593300Y-91728664D01*
X52593300Y-91728664D02*
X52722102Y-91723189D01*
X52722102Y-91723189D02*
X52860737Y-91709211D01*
X52860737Y-91709211D02*
X52973571Y-91690809D01*
X52973571Y-91690809D02*
X53202816Y-91621999D01*
X53202816Y-91621999D02*
X53436128Y-91515519D01*
X53436128Y-91515519D02*
X53658326Y-91380124D01*
X53658326Y-91380124D02*
X53854232Y-91224567D01*
X53854232Y-91224567D02*
X53951184Y-91127047D01*
X53951184Y-91127047D02*
X54117838Y-90909302D01*
X54117838Y-90909302D02*
X54257533Y-90662169D01*
X54257533Y-90662169D02*
X54364266Y-90399101D01*
X54364266Y-90399101D02*
X54432034Y-90133550D01*
X54432034Y-90133550D02*
X54448668Y-90012222D01*
X54448668Y-90012222D02*
X54453190Y-89837496D01*
X54453190Y-89837496D02*
X54438568Y-89638136D01*
X54438568Y-89638136D02*
X54407315Y-89435463D01*
X54407315Y-89435463D02*
X54361943Y-89250794D01*
X54361943Y-89250794D02*
X54357120Y-89235370D01*
X54357120Y-89235370D02*
X54268746Y-89014954D01*
X54268746Y-89014954D02*
X54147212Y-88792807D01*
X54147212Y-88792807D02*
X54002047Y-88583187D01*
X54002047Y-88583187D02*
X53842777Y-88400347D01*
X53842777Y-88400347D02*
X53730907Y-88298288D01*
X53730907Y-88298288D02*
X53497546Y-88139566D01*
X53497546Y-88139566D02*
X53247646Y-88028065D01*
X53247646Y-88028065D02*
X52983975Y-87964018D01*
X52983975Y-87964018D02*
X52709307Y-87947659D01*
X52709307Y-87947659D02*
X52426411Y-87979222D01*
X52426411Y-87979222D02*
X52138059Y-88058942D01*
X52138059Y-88058942D02*
X51928989Y-88146115D01*
X51928989Y-88146115D02*
X51720974Y-88252606D01*
X51720974Y-88252606D02*
X51546497Y-88360029D01*
X51546497Y-88360029D02*
X51389251Y-88479118D01*
X51389251Y-88479118D02*
X51289015Y-88567443D01*
X51289015Y-88567443D02*
X51072291Y-88799385D01*
X51072291Y-88799385D02*
X50901996Y-89050385D01*
X50901996Y-89050385D02*
X50778767Y-89319041D01*
X50778767Y-89319041D02*
X50703240Y-89603950D01*
X50703240Y-89603950D02*
X50676053Y-89903711D01*
X50676053Y-89903711D02*
X50675975Y-89918199D01*
X50675975Y-89918199D02*
X50269429Y-89918199D01*
X50269429Y-89918199D02*
X50269391Y-89916732D01*
X50269391Y-89916732D02*
X50267698Y-89824736D01*
X50267698Y-89824736D02*
X50261281Y-89774138D01*
X50261281Y-89774138D02*
X50247751Y-89755590D01*
X50247751Y-89755590D02*
X50228835Y-89758054D01*
X50228835Y-89758054D02*
X50200126Y-89773072D01*
X50200126Y-89773072D02*
X50132235Y-89810545D01*
X50132235Y-89810545D02*
X50029896Y-89867776D01*
X50029896Y-89867776D02*
X49897844Y-89942070D01*
X49897844Y-89942070D02*
X49740813Y-90030734D01*
X49740813Y-90030734D02*
X49563540Y-90131070D01*
X49563540Y-90131070D02*
X49370758Y-90240384D01*
X49370758Y-90240384D02*
X49167202Y-90355982D01*
X49167202Y-90355982D02*
X48957608Y-90475167D01*
X48957608Y-90475167D02*
X48746709Y-90595245D01*
X48746709Y-90595245D02*
X48539241Y-90713520D01*
X48539241Y-90713520D02*
X48339938Y-90827298D01*
X48339938Y-90827298D02*
X48153536Y-90933882D01*
X48153536Y-90933882D02*
X47984768Y-91030579D01*
X47984768Y-91030579D02*
X47838371Y-91114692D01*
X47838371Y-91114692D02*
X47719078Y-91183527D01*
X47719078Y-91183527D02*
X47631624Y-91234389D01*
X47631624Y-91234389D02*
X47580745Y-91264582D01*
X47580745Y-91264582D02*
X47569675Y-91271712D01*
X47569675Y-91271712D02*
X47566092Y-91303820D01*
X47566092Y-91303820D02*
X46223005Y-91303820D01*
X46223005Y-91303820D02*
X46334434Y-91250297D01*
X46334434Y-91250297D02*
X46554883Y-91179401D01*
X46554883Y-91179401D02*
X46768344Y-91146585D01*
X46768344Y-91146585D02*
X46822330Y-91145000D01*
X46822330Y-91145000D02*
X46923004Y-91137784D01*
X46923004Y-91137784D02*
X47011627Y-91119069D01*
X47011627Y-91119069D02*
X47045598Y-91105762D01*
X47045598Y-91105762D02*
X47094589Y-91075301D01*
X47094589Y-91075301D02*
X47110837Y-91040437D01*
X47110837Y-91040437D02*
X47103283Y-90979928D01*
X47103283Y-90979928D02*
X47101723Y-90972412D01*
X47101723Y-90972412D02*
X47092215Y-90895880D01*
X47092215Y-90895880D02*
X47085714Y-90777934D01*
X47085714Y-90777934D02*
X47082059Y-90627859D01*
X47082059Y-90627859D02*
X47081089Y-90454944D01*
X47081089Y-90454944D02*
X47081711Y-90380238D01*
X47081711Y-90380238D02*
X47474938Y-90380238D01*
X47474938Y-90380238D02*
X47477542Y-90525615D01*
X47477542Y-90525615D02*
X47483553Y-90650773D01*
X47483553Y-90650773D02*
X47492826Y-90748321D01*
X47492826Y-90748321D02*
X47505217Y-90810868D01*
X47505217Y-90810868D02*
X47520582Y-90831023D01*
X47520582Y-90831023D02*
X47522742Y-90830172D01*
X47522742Y-90830172D02*
X47547111Y-90816273D01*
X47547111Y-90816273D02*
X47611722Y-90779456D01*
X47611722Y-90779456D02*
X47712674Y-90721943D01*
X47712674Y-90721943D02*
X47846067Y-90645956D01*
X47846067Y-90645956D02*
X48007998Y-90553718D01*
X48007998Y-90553718D02*
X48194567Y-90447450D01*
X48194567Y-90447450D02*
X48401873Y-90329375D01*
X48401873Y-90329375D02*
X48626015Y-90201715D01*
X48626015Y-90201715D02*
X48846800Y-90075970D01*
X48846800Y-90075970D02*
X49086888Y-89939293D01*
X49086888Y-89939293D02*
X49316766Y-89808543D01*
X49316766Y-89808543D02*
X49532115Y-89686169D01*
X49532115Y-89686169D02*
X49728616Y-89574620D01*
X49728616Y-89574620D02*
X49901952Y-89476345D01*
X49901952Y-89476345D02*
X50047803Y-89393792D01*
X50047803Y-89393792D02*
X50161851Y-89329410D01*
X50161851Y-89329410D02*
X50239777Y-89285648D01*
X50239777Y-89285648D02*
X50274493Y-89266435D01*
X50274493Y-89266435D02*
X50356421Y-89213460D01*
X50356421Y-89213460D02*
X50407481Y-89152786D01*
X50407481Y-89152786D02*
X50437530Y-89087600D01*
X50437530Y-89087600D02*
X50524035Y-88905875D01*
X50524035Y-88905875D02*
X50647055Y-88711540D01*
X50647055Y-88711540D02*
X50797872Y-88515106D01*
X50797872Y-88515106D02*
X50967769Y-88327086D01*
X50967769Y-88327086D02*
X51148027Y-88157991D01*
X51148027Y-88157991D02*
X51316862Y-88027252D01*
X51316862Y-88027252D02*
X51626402Y-87839213D01*
X51626402Y-87839213D02*
X51940212Y-87697462D01*
X51940212Y-87697462D02*
X52255162Y-87601938D01*
X52255162Y-87601938D02*
X52568122Y-87552582D01*
X52568122Y-87552582D02*
X52875962Y-87549330D01*
X52875962Y-87549330D02*
X53175549Y-87592123D01*
X53175549Y-87592123D02*
X53463755Y-87680899D01*
X53463755Y-87680899D02*
X53737448Y-87815597D01*
X53737448Y-87815597D02*
X53993498Y-87996156D01*
X53993498Y-87996156D02*
X54090462Y-88081380D01*
X54090462Y-88081380D02*
X54155762Y-88140421D01*
X54155762Y-88140421D02*
X54206264Y-88182533D01*
X54206264Y-88182533D02*
X54231034Y-88198599D01*
X54231034Y-88198599D02*
X54231036Y-88198600D01*
X54231036Y-88198600D02*
X54252691Y-88179021D01*
X54252691Y-88179021D02*
X54285825Y-88131133D01*
X54285825Y-88131133D02*
X54290326Y-88123640D01*
X54290326Y-88123640D02*
X54405625Y-87975360D01*
X54405625Y-87975360D02*
X54556898Y-87851422D01*
X54556898Y-87851422D02*
X54732299Y-87759021D01*
X54732299Y-87759021D02*
X54919983Y-87705350D01*
X54919983Y-87705350D02*
X54993626Y-87696493D01*
X54993626Y-87696493D02*
X55169486Y-87683911D01*
X55169486Y-87683911D02*
X55169567Y-87508255D01*
X55169567Y-87508255D02*
X55568045Y-87508255D01*
X55568045Y-87508255D02*
X55577923Y-87673410D01*
X55577923Y-87673410D02*
X55602000Y-87813563D01*
X55602000Y-87813563D02*
X55614567Y-87855700D01*
X55614567Y-87855700D02*
X55698369Y-88061992D01*
X55698369Y-88061992D02*
X55797086Y-88247536D01*
X55797086Y-88247536D02*
X55903118Y-88398310D01*
X55903118Y-88398310D02*
X55918336Y-88416098D01*
X55918336Y-88416098D02*
X56027081Y-88539678D01*
X56027081Y-88539678D02*
X56025022Y-88388140D01*
X56025022Y-88388140D02*
X56038252Y-88246149D01*
X56038252Y-88246149D02*
X56086590Y-88129217D01*
X56086590Y-88129217D02*
X56176527Y-88023956D01*
X56176527Y-88023956D02*
X56219539Y-87986985D01*
X56219539Y-87986985D02*
X56341431Y-87918966D01*
X56341431Y-87918966D02*
X56477657Y-87893350D01*
X56477657Y-87893350D02*
X56617238Y-87908496D01*
X56617238Y-87908496D02*
X56749193Y-87962764D01*
X56749193Y-87962764D02*
X56862542Y-88054514D01*
X56862542Y-88054514D02*
X56889768Y-88087114D01*
X56889768Y-88087114D02*
X56933944Y-88157784D01*
X56933944Y-88157784D02*
X56958630Y-88236758D01*
X56958630Y-88236758D02*
X56970345Y-88340509D01*
X56970345Y-88340509D02*
X56973066Y-88439224D01*
X56973066Y-88439224D02*
X56962834Y-88510735D01*
X56962834Y-88510735D02*
X56934975Y-88577960D01*
X56934975Y-88577960D02*
X56914430Y-88614649D01*
X56914430Y-88614649D02*
X56815414Y-88736653D01*
X56815414Y-88736653D02*
X56686348Y-88818107D01*
X56686348Y-88818107D02*
X56593800Y-88846986D01*
X56593800Y-88846986D02*
X56536891Y-88860258D01*
X56536891Y-88860258D02*
X56525455Y-88870496D01*
X56525455Y-88870496D02*
X56555211Y-88884943D01*
X56555211Y-88884943D02*
X56568400Y-88889991D01*
X56568400Y-88889991D02*
X56829614Y-88966499D01*
X56829614Y-88966499D02*
X57098684Y-89002985D01*
X57098684Y-89002985D02*
X57364522Y-88999096D01*
X57364522Y-88999096D02*
X57616038Y-88954478D01*
X57616038Y-88954478D02*
X57707002Y-88926262D01*
X57707002Y-88926262D02*
X57977785Y-88805291D01*
X57977785Y-88805291D02*
X58217014Y-88645454D01*
X58217014Y-88645454D02*
X58422062Y-88449568D01*
X58422062Y-88449568D02*
X58590302Y-88220447D01*
X58590302Y-88220447D02*
X58719106Y-87960910D01*
X58719106Y-87960910D02*
X58781129Y-87774719D01*
X58781129Y-87774719D02*
X58817938Y-87571123D01*
X58817938Y-87571123D02*
X58826937Y-87344587D01*
X58826937Y-87344587D02*
X58808882Y-87114181D01*
X58808882Y-87114181D02*
X58764526Y-86898972D01*
X58764526Y-86898972D02*
X58743874Y-86833472D01*
X58743874Y-86833472D02*
X58626603Y-86559532D01*
X58626603Y-86559532D02*
X58478251Y-86317535D01*
X58478251Y-86317535D02*
X58302178Y-86111544D01*
X58302178Y-86111544D02*
X58101745Y-85945623D01*
X58101745Y-85945623D02*
X57926036Y-85844427D01*
X57926036Y-85844427D02*
X57823261Y-85797969D01*
X57823261Y-85797969D02*
X57739913Y-85768580D01*
X57739913Y-85768580D02*
X57656264Y-85751610D01*
X57656264Y-85751610D02*
X57552589Y-85742410D01*
X57552589Y-85742410D02*
X57478444Y-85738918D01*
X57478444Y-85738918D02*
X57343998Y-85736285D01*
X57343998Y-85736285D02*
X57236099Y-85742767D01*
X57236099Y-85742767D02*
X57130885Y-85761181D01*
X57130885Y-85761181D02*
X57004495Y-85794345D01*
X57004495Y-85794345D02*
X57001432Y-85795222D01*
X57001432Y-85795222D02*
X56705009Y-85903035D01*
X56705009Y-85903035D02*
X56432114Y-86047784D01*
X56432114Y-86047784D02*
X56187365Y-86225317D01*
X56187365Y-86225317D02*
X55975378Y-86431481D01*
X55975378Y-86431481D02*
X55800771Y-86662125D01*
X55800771Y-86662125D02*
X55668160Y-86913097D01*
X55668160Y-86913097D02*
X55622036Y-87035732D01*
X55622036Y-87035732D02*
X55590259Y-87172119D01*
X55590259Y-87172119D02*
X55572210Y-87335392D01*
X55572210Y-87335392D02*
X55568045Y-87508255D01*
X55568045Y-87508255D02*
X55169567Y-87508255D01*
X55169567Y-87508255D02*
X55169600Y-87439605D01*
X55169600Y-87439605D02*
X55191478Y-87154912D01*
X55191478Y-87154912D02*
X55254305Y-86875768D01*
X55254305Y-86875768D02*
X55312800Y-86712420D01*
X55312800Y-86712420D02*
X55374076Y-86590357D01*
X55374076Y-86590357D02*
X55461548Y-86448655D01*
X55461548Y-86448655D02*
X55564732Y-86302822D01*
X55564732Y-86302822D02*
X55673145Y-86168365D01*
X55673145Y-86168365D02*
X55703951Y-86133839D01*
X55703951Y-86133839D02*
X55759995Y-86074342D01*
X55759995Y-86074342D02*
X55796801Y-86031504D01*
X55796801Y-86031504D02*
X55811053Y-85997510D01*
X55811053Y-85997510D02*
X55799432Y-85964544D01*
X55799432Y-85964544D02*
X55758620Y-85924791D01*
X55758620Y-85924791D02*
X55685301Y-85870436D01*
X55685301Y-85870436D02*
X55576157Y-85793664D01*
X55576157Y-85793664D02*
X55552400Y-85776824D01*
X55552400Y-85776824D02*
X55435941Y-85694413D01*
X55435941Y-85694413D02*
X55352678Y-85638732D01*
X55352678Y-85638732D02*
X55294198Y-85607365D01*
X55294198Y-85607365D02*
X55252088Y-85597898D01*
X55252088Y-85597898D02*
X55217937Y-85607915D01*
X55217937Y-85607915D02*
X55183331Y-85635000D01*
X55183331Y-85635000D02*
X55154561Y-85662601D01*
X55154561Y-85662601D02*
X55040643Y-85795835D01*
X55040643Y-85795835D02*
X54939846Y-85956114D01*
X54939846Y-85956114D02*
X54877997Y-86090400D01*
X54877997Y-86090400D02*
X54820559Y-86203927D01*
X54820559Y-86203927D02*
X54750455Y-86270611D01*
X54750455Y-86270611D02*
X54664359Y-86293546D01*
X54664359Y-86293546D02*
X54659431Y-86293600D01*
X54659431Y-86293600D02*
X54582939Y-86273108D01*
X54582939Y-86273108D02*
X54514130Y-86221583D01*
X54514130Y-86221583D02*
X54469228Y-86153951D01*
X54469228Y-86153951D02*
X54460510Y-86110604D01*
X54460510Y-86110604D02*
X54473584Y-86043467D01*
X54473584Y-86043467D02*
X54508277Y-85946467D01*
X54508277Y-85946467D02*
X54558561Y-85832358D01*
X54558561Y-85832358D02*
X54618408Y-85713895D01*
X54618408Y-85713895D02*
X54681788Y-85603832D01*
X54681788Y-85603832D02*
X54741110Y-85516942D01*
X54741110Y-85516942D02*
X54793005Y-85446681D01*
X54793005Y-85446681D02*
X54827922Y-85393549D01*
X54827922Y-85393549D02*
X54838674Y-85368530D01*
X54838674Y-85368530D02*
X54838437Y-85368203D01*
X54838437Y-85368203D02*
X54802822Y-85347260D01*
X54802822Y-85347260D02*
X54730564Y-85313949D01*
X54730564Y-85313949D02*
X54632906Y-85272853D01*
X54632906Y-85272853D02*
X54521092Y-85228559D01*
X54521092Y-85228559D02*
X54406366Y-85185651D01*
X54406366Y-85185651D02*
X54301495Y-85149218D01*
X54301495Y-85149218D02*
X53818933Y-85016280D01*
X53818933Y-85016280D02*
X53330475Y-84933648D01*
X53330475Y-84933648D02*
X52836932Y-84901272D01*
X52836932Y-84901272D02*
X52339115Y-84919102D01*
X52339115Y-84919102D02*
X51837834Y-84987088D01*
X51837834Y-84987088D02*
X51333899Y-85105182D01*
X51333899Y-85105182D02*
X50828123Y-85273333D01*
X50828123Y-85273333D02*
X50571223Y-85377704D01*
X50571223Y-85377704D02*
X50154634Y-85584207D01*
X50154634Y-85584207D02*
X49753596Y-85836565D01*
X49753596Y-85836565D02*
X49372230Y-86131135D01*
X49372230Y-86131135D02*
X49014655Y-86464276D01*
X49014655Y-86464276D02*
X48684990Y-86832345D01*
X48684990Y-86832345D02*
X48387355Y-87231699D01*
X48387355Y-87231699D02*
X48270340Y-87411981D01*
X48270340Y-87411981D02*
X48055766Y-87799175D01*
X48055766Y-87799175D02*
X47870171Y-88220662D01*
X47870171Y-88220662D02*
X47716661Y-88667019D01*
X47716661Y-88667019D02*
X47598342Y-89128823D01*
X47598342Y-89128823D02*
X47518323Y-89596648D01*
X47518323Y-89596648D02*
X47501487Y-89744341D01*
X47501487Y-89744341D02*
X47489016Y-89896692D01*
X47489016Y-89896692D02*
X47480530Y-90058385D01*
X47480530Y-90058385D02*
X47475886Y-90222031D01*
X47475886Y-90222031D02*
X47474938Y-90380238D01*
X47474938Y-90380238D02*
X47081711Y-90380238D01*
X47081711Y-90380238D02*
X47082644Y-90268475D01*
X47082644Y-90268475D02*
X47086561Y-90077739D01*
X47086561Y-90077739D02*
X47092679Y-89892022D01*
X47092679Y-89892022D02*
X47100838Y-89720611D01*
X47100838Y-89720611D02*
X47110876Y-89572793D01*
X47110876Y-89572793D02*
X47122632Y-89457854D01*
X47122632Y-89457854D02*
X47128711Y-89417800D01*
X47128711Y-89417800D02*
X47175290Y-89172895D01*
X47175290Y-89172895D02*
X47224683Y-88943223D01*
X47224683Y-88943223D02*
X47274283Y-88740099D01*
X47274283Y-88740099D02*
X47321480Y-88574839D01*
X47321480Y-88574839D02*
X47326793Y-88558292D01*
X47326793Y-88558292D02*
X47350343Y-88474017D01*
X47350343Y-88474017D02*
X47361257Y-88409129D01*
X47361257Y-88409129D02*
X47357372Y-88378161D01*
X47357372Y-88378161D02*
X47322070Y-88362741D01*
X47322070Y-88362741D02*
X47253750Y-88342891D01*
X47253750Y-88342891D02*
X47191757Y-88328314D01*
X47191757Y-88328314D02*
X46974529Y-88260002D01*
X46974529Y-88260002D02*
X46758580Y-88152088D01*
X46758580Y-88152088D02*
X46556250Y-88013034D01*
X46556250Y-88013034D02*
X46379877Y-87851303D01*
X46379877Y-87851303D02*
X46243424Y-87677900D01*
X46243424Y-87677900D02*
X46153315Y-87520468D01*
X46153315Y-87520468D02*
X46093218Y-87369628D01*
X46093218Y-87369628D02*
X46058329Y-87208350D01*
X46058329Y-87208350D02*
X46043846Y-87019604D01*
X46043846Y-87019604D02*
X46042856Y-86966700D01*
X46042856Y-86966700D02*
X46043320Y-86830612D01*
X46043320Y-86830612D02*
X46049644Y-86726056D01*
X46049644Y-86726056D02*
X46064541Y-86633857D01*
X46064541Y-86633857D02*
X46090727Y-86534843D01*
X46090727Y-86534843D02*
X46114777Y-86458700D01*
X46114777Y-86458700D02*
X46175741Y-86298671D01*
X46175741Y-86298671D02*
X46239514Y-86186218D01*
X46239514Y-86186218D02*
X46308610Y-86118116D01*
X46308610Y-86118116D02*
X46385542Y-86091143D01*
X46385542Y-86091143D02*
X46402018Y-86090400D01*
X46402018Y-86090400D02*
X46483402Y-86113136D01*
X46483402Y-86113136D02*
X46533802Y-86152199D01*
X46533802Y-86152199D02*
X46566675Y-86200337D01*
X46566675Y-86200337D02*
X46580277Y-86260389D01*
X46580277Y-86260389D02*
X46573949Y-86340856D01*
X46573949Y-86340856D02*
X46547031Y-86450241D01*
X46547031Y-86450241D02*
X46499450Y-86595374D01*
X46499450Y-86595374D02*
X46443394Y-86821786D01*
X46443394Y-86821786D02*
X46435500Y-87039365D01*
X46435500Y-87039365D02*
X46474939Y-87244514D01*
X46474939Y-87244514D02*
X46560883Y-87433638D01*
X46560883Y-87433638D02*
X46692505Y-87603141D01*
X46692505Y-87603141D02*
X46742539Y-87651218D01*
X46742539Y-87651218D02*
X46894795Y-87767629D01*
X46894795Y-87767629D02*
X47064480Y-87862905D01*
X47064480Y-87862905D02*
X47237957Y-87931023D01*
X47237957Y-87931023D02*
X47401590Y-87965959D01*
X47401590Y-87965959D02*
X47462500Y-87969292D01*
X47462500Y-87969292D02*
X47497667Y-87966308D01*
X47497667Y-87966308D02*
X47526208Y-87952004D01*
X47526208Y-87952004D02*
X47554398Y-87918187D01*
X47554398Y-87918187D02*
X47588515Y-87856662D01*
X47588515Y-87856662D02*
X47634835Y-87759236D01*
X47634835Y-87759236D02*
X47651975Y-87721943D01*
X47651975Y-87721943D02*
X47865564Y-87309306D01*
X47865564Y-87309306D02*
X48124537Y-86905742D01*
X48124537Y-86905742D02*
X48431083Y-86507992D01*
X48431083Y-86507992D02*
X48592239Y-86322104D01*
X48592239Y-86322104D02*
X48685763Y-86216951D01*
X48685763Y-86216951D02*
X48748727Y-86142747D01*
X48748727Y-86142747D02*
X48785191Y-86093264D01*
X48785191Y-86093264D02*
X48799217Y-86062274D01*
X48799217Y-86062274D02*
X48794867Y-86043550D01*
X48794867Y-86043550D02*
X48780692Y-86033117D01*
X48780692Y-86033117D02*
X48720684Y-85989723D01*
X48720684Y-85989723D02*
X48640260Y-85915670D01*
X48640260Y-85915670D02*
X48548856Y-85821406D01*
X48548856Y-85821406D02*
X48455907Y-85717376D01*
X48455907Y-85717376D02*
X48370847Y-85614026D01*
X48370847Y-85614026D02*
X48303112Y-85521805D01*
X48303112Y-85521805D02*
X48270239Y-85467919D01*
X48270239Y-85467919D02*
X48160492Y-85209339D01*
X48160492Y-85209339D02*
X48099286Y-84947111D01*
X48099286Y-84947111D02*
X48085995Y-84685817D01*
X48085995Y-84685817D02*
X48119996Y-84430037D01*
X48119996Y-84430037D02*
X48200665Y-84184352D01*
X48200665Y-84184352D02*
X48327378Y-83953344D01*
X48327378Y-83953344D02*
X48499510Y-83741594D01*
X48499510Y-83741594D02*
X48506387Y-83734550D01*
X48506387Y-83734550D02*
X48614787Y-83632040D01*
X48614787Y-83632040D02*
X48702059Y-83569965D01*
X48702059Y-83569965D02*
X48774955Y-83546296D01*
X48774955Y-83546296D02*
X48840225Y-83559001D01*
X48840225Y-83559001D02*
X48904624Y-83606051D01*
X48904624Y-83606051D02*
X48911454Y-83612745D01*
X48911454Y-83612745D02*
X48957379Y-83671220D01*
X48957379Y-83671220D02*
X48971906Y-83730065D01*
X48971906Y-83730065D02*
X48952889Y-83797141D01*
X48952889Y-83797141D02*
X48898181Y-83880307D01*
X48898181Y-83880307D02*
X48810604Y-83982020D01*
X48810604Y-83982020D02*
X48653515Y-84180914D01*
X48653515Y-84180914D02*
X48546627Y-84381857D01*
X48546627Y-84381857D02*
X48489344Y-84587472D01*
X48489344Y-84587472D02*
X48481068Y-84800383D01*
X48481068Y-84800383D02*
X48521204Y-85023213D01*
X48521204Y-85023213D02*
X48552067Y-85119592D01*
X48552067Y-85119592D02*
X48632866Y-85287496D01*
X48632866Y-85287496D02*
X48749441Y-85454110D01*
X48749441Y-85454110D02*
X48888988Y-85604054D01*
X48888988Y-85604054D02*
X49038703Y-85721949D01*
X49038703Y-85721949D02*
X49068998Y-85740479D01*
X49068998Y-85740479D02*
X49144466Y-85784258D01*
X49144466Y-85784258D02*
X49332183Y-85643299D01*
X49332183Y-85643299D02*
X49764076Y-85350352D01*
X49764076Y-85350352D02*
X50224970Y-85097482D01*
X50224970Y-85097482D02*
X50709243Y-84887592D01*
X50709243Y-84887592D02*
X50978623Y-84793102D01*
X50978623Y-84793102D02*
X51192747Y-84724027D01*
X51192747Y-84724027D02*
X51187123Y-84448363D01*
X51187123Y-84448363D02*
X51201511Y-84161594D01*
X51201511Y-84161594D02*
X51257254Y-83904188D01*
X51257254Y-83904188D02*
X51354752Y-83675450D01*
X51354752Y-83675450D02*
X51494406Y-83474687D01*
X51494406Y-83474687D02*
X51676615Y-83301205D01*
X51676615Y-83301205D02*
X51901781Y-83154310D01*
X51901781Y-83154310D02*
X51947831Y-83130169D01*
X51947831Y-83130169D02*
X52057997Y-83084200D01*
X52057997Y-83084200D02*
X52201395Y-83038309D01*
X52201395Y-83038309D02*
X52360660Y-82997104D01*
X52360660Y-82997104D02*
X52518426Y-82965192D01*
X52518426Y-82965192D02*
X52627120Y-82949939D01*
X52627120Y-82949939D02*
X52715536Y-82943284D01*
X52715536Y-82943284D02*
X52770850Y-82948564D01*
X52770850Y-82948564D02*
X52770850Y-82948564D01*
G36*
X45412088Y-92182713D02*
G01*
X45529910Y-91936566D01*
X45695649Y-91703231D01*
X45756591Y-91633921D01*
X45922746Y-91483311D01*
X46119541Y-91353518D01*
X46223005Y-91303820D01*
X47566092Y-91303820D01*
X47575413Y-91376355D01*
X47595831Y-91481122D01*
X47625540Y-91609925D01*
X47662736Y-91754566D01*
X47705612Y-91906851D01*
X47720826Y-91957800D01*
X47893719Y-92444846D01*
X48107318Y-92902816D01*
X48359689Y-93330058D01*
X48648898Y-93724920D01*
X48973008Y-94085752D01*
X49330085Y-94410902D01*
X49718193Y-94698719D01*
X50135399Y-94947552D01*
X50579766Y-95155750D01*
X51049360Y-95321660D01*
X51542245Y-95443633D01*
X51869400Y-95497926D01*
X52051667Y-95516391D01*
X52269447Y-95528631D01*
X52507827Y-95534600D01*
X52751898Y-95534255D01*
X52986748Y-95527554D01*
X53197467Y-95514453D01*
X53317200Y-95502139D01*
X53851788Y-95411194D01*
X54373538Y-95275094D01*
X54878390Y-95095775D01*
X55362288Y-94875176D01*
X55821172Y-94615234D01*
X56250985Y-94317886D01*
X56647669Y-93985072D01*
X56799039Y-93839569D01*
X57117438Y-93492943D01*
X57389887Y-93134354D01*
X57621017Y-92756526D01*
X57815462Y-92352182D01*
X57924228Y-92072100D01*
X58039464Y-91680546D01*
X58117693Y-91262781D01*
X58158491Y-90827837D01*
X58161436Y-90384750D01*
X58126104Y-89942553D01*
X58052072Y-89510280D01*
X58045583Y-89481300D01*
X58024045Y-89387220D01*
X58003905Y-89326288D01*
X57975466Y-89294494D01*
X57929032Y-89287828D01*
X57854905Y-89302280D01*
X57743388Y-89333840D01*
X57711400Y-89343106D01*
X57600890Y-89370367D01*
X57485763Y-89387867D01*
X57349973Y-89397424D01*
X57203400Y-89400686D01*
X57070334Y-89400839D01*
X56965642Y-89397262D01*
X56873862Y-89387695D01*
X56779533Y-89369881D01*
X56667194Y-89341561D01*
X56525578Y-89301682D01*
X56514761Y-89306965D01*
X56523074Y-89336332D01*
X56552400Y-89393036D01*
X56604624Y-89480327D01*
X56681629Y-89601455D01*
X56785300Y-89759672D01*
X56830628Y-89828013D01*
X57004958Y-90095810D01*
X57154148Y-90336736D01*
X57277003Y-90548563D01*
X57372323Y-90729065D01*
X57438913Y-90876016D01*
X57475575Y-90987189D01*
X57482800Y-91040918D01*
X57458012Y-91141460D01*
X57384536Y-91232699D01*
X57263702Y-91314209D01*
X57096838Y-91385565D01*
X56885275Y-91446341D01*
X56630343Y-91496114D01*
X56333371Y-91534457D01*
X55995690Y-91560946D01*
X55831800Y-91568845D01*
X55686625Y-91574119D01*
X55583096Y-91576019D01*
X55512126Y-91573778D01*
X55464625Y-91566631D01*
X55431507Y-91553814D01*
X55403685Y-91534562D01*
X55401269Y-91532602D01*
X55351757Y-91462523D01*
X55337715Y-91374625D01*
X55359771Y-91288061D01*
X55391784Y-91243527D01*
X55417005Y-91223117D01*
X55451506Y-91207667D01*
X55503592Y-91195801D01*
X55581564Y-91186145D01*
X55693725Y-91177321D01*
X55847714Y-91167993D01*
X56075851Y-91152267D01*
X56294215Y-91131858D01*
X56496820Y-91107743D01*
X56677684Y-91080897D01*
X56830821Y-91052297D01*
X56950249Y-91022919D01*
X57029983Y-90993740D01*
X57062067Y-90969841D01*
X57056247Y-90934947D01*
X57021230Y-90861485D01*
X56958372Y-90751470D01*
X56869034Y-90606916D01*
X56754573Y-90429837D01*
X56616348Y-90222248D01*
X56455717Y-89986163D01*
X56274040Y-89723597D01*
X56072674Y-89436565D01*
X55852978Y-89127080D01*
X55616311Y-88797157D01*
X55364031Y-88448811D01*
X55334462Y-88408186D01*
X55247495Y-88289252D01*
X55183935Y-88205303D01*
X55137305Y-88150243D01*
X55101127Y-88117980D01*
X55068922Y-88102417D01*
X55034215Y-88097460D01*
X55003760Y-88097036D01*
X54886138Y-88121118D01*
X54770535Y-88188980D01*
X54664683Y-88293927D01*
X54576314Y-88429260D01*
X54546436Y-88493157D01*
X54529691Y-88536638D01*
X54523133Y-88574115D01*
X54529256Y-88616967D01*
X54550555Y-88676571D01*
X54589526Y-88764305D01*
X54620566Y-88831180D01*
X54746246Y-89157084D01*
X54823317Y-89487141D01*
X54852492Y-89817303D01*
X54834488Y-90143524D01*
X54770016Y-90461755D01*
X54659792Y-90767950D01*
X54504529Y-91058062D01*
X54304942Y-91328044D01*
X54151224Y-91491357D01*
X53889133Y-91712314D01*
X53607247Y-91886507D01*
X53305073Y-92014149D01*
X52982115Y-92095459D01*
X52694787Y-92128089D01*
X52346398Y-92125326D01*
X52019020Y-92076514D01*
X51710939Y-91981005D01*
X51420439Y-91838147D01*
X51145808Y-91647292D01*
X50939293Y-91462500D01*
X50710000Y-91205939D01*
X50529552Y-90936970D01*
X50397059Y-90653543D01*
X50311633Y-90353607D01*
X50272386Y-90035112D01*
X50269429Y-89918199D01*
X50675975Y-89918199D01*
X50680552Y-90093182D01*
X50697674Y-90241503D01*
X50731491Y-90380713D01*
X50786156Y-90528361D01*
X50857093Y-90683970D01*
X50925996Y-90819501D01*
X50990593Y-90925645D01*
X51063759Y-91020823D01*
X51158368Y-91123453D01*
X51178932Y-91144405D01*
X51277262Y-91238514D01*
X51379819Y-91327513D01*
X51477717Y-91404601D01*
X51562069Y-91462979D01*
X51623988Y-91495847D01*
X51644476Y-91500600D01*
X51648162Y-91480204D01*
X51633549Y-91429521D01*
X51626803Y-91412515D01*
X51592311Y-91268377D01*
X51602491Y-91121739D01*
X51652602Y-90981896D01*
X51737905Y-90858144D01*
X51853659Y-90759780D01*
X51991578Y-90697116D01*
X52157081Y-90670599D01*
X52308086Y-90692488D01*
X52447329Y-90763491D01*
X52533473Y-90836957D01*
X52637780Y-90970044D01*
X52692980Y-91113719D01*
X52700232Y-91271217D01*
X52697415Y-91295080D01*
X52664240Y-91417455D01*
X52604056Y-91536401D01*
X52527265Y-91634264D01*
X52470646Y-91679896D01*
X52390100Y-91729010D01*
X52593300Y-91728664D01*
X52722102Y-91723189D01*
X52860737Y-91709211D01*
X52973571Y-91690809D01*
X53202816Y-91621999D01*
X53436128Y-91515519D01*
X53658326Y-91380124D01*
X53854232Y-91224567D01*
X53951184Y-91127047D01*
X54117838Y-90909302D01*
X54257533Y-90662169D01*
X54364266Y-90399101D01*
X54432034Y-90133550D01*
X54448668Y-90012222D01*
X54453190Y-89837496D01*
X54438568Y-89638136D01*
X54407315Y-89435463D01*
X54361943Y-89250794D01*
X54357120Y-89235370D01*
X54268746Y-89014954D01*
X54147212Y-88792807D01*
X54002047Y-88583187D01*
X53842777Y-88400347D01*
X53730907Y-88298288D01*
X53497546Y-88139566D01*
X53247646Y-88028065D01*
X52983975Y-87964018D01*
X52709307Y-87947659D01*
X52426411Y-87979222D01*
X52138059Y-88058942D01*
X51928989Y-88146115D01*
X51720974Y-88252606D01*
X51546497Y-88360029D01*
X51389251Y-88479118D01*
X51289015Y-88567443D01*
X51072291Y-88799385D01*
X50901996Y-89050385D01*
X50778767Y-89319041D01*
X50703240Y-89603950D01*
X50676053Y-89903711D01*
X50675975Y-89918199D01*
X50269429Y-89918199D01*
X50269391Y-89916732D01*
X50267698Y-89824736D01*
X50261281Y-89774138D01*
X50247751Y-89755590D01*
X50228835Y-89758054D01*
X50200126Y-89773072D01*
X50132235Y-89810545D01*
X50029896Y-89867776D01*
X49897844Y-89942070D01*
X49740813Y-90030734D01*
X49563540Y-90131070D01*
X49370758Y-90240384D01*
X49167202Y-90355982D01*
X48957608Y-90475167D01*
X48746709Y-90595245D01*
X48539241Y-90713520D01*
X48339938Y-90827298D01*
X48153536Y-90933882D01*
X47984768Y-91030579D01*
X47838371Y-91114692D01*
X47719078Y-91183527D01*
X47631624Y-91234389D01*
X47580745Y-91264582D01*
X47569675Y-91271712D01*
X47566092Y-91303820D01*
X46223005Y-91303820D01*
X46334434Y-91250297D01*
X46554883Y-91179401D01*
X46768344Y-91146585D01*
X46822330Y-91145000D01*
X46923004Y-91137784D01*
X47011627Y-91119069D01*
X47045598Y-91105762D01*
X47094589Y-91075301D01*
X47110837Y-91040437D01*
X47103283Y-90979928D01*
X47101723Y-90972412D01*
X47092215Y-90895880D01*
X47085714Y-90777934D01*
X47082059Y-90627859D01*
X47081089Y-90454944D01*
X47081711Y-90380238D01*
X47474938Y-90380238D01*
X47477542Y-90525615D01*
X47483553Y-90650773D01*
X47492826Y-90748321D01*
X47505217Y-90810868D01*
X47520582Y-90831023D01*
X47522742Y-90830172D01*
X47547111Y-90816273D01*
X47611722Y-90779456D01*
X47712674Y-90721943D01*
X47846067Y-90645956D01*
X48007998Y-90553718D01*
X48194567Y-90447450D01*
X48401873Y-90329375D01*
X48626015Y-90201715D01*
X48846800Y-90075970D01*
X49086888Y-89939293D01*
X49316766Y-89808543D01*
X49532115Y-89686169D01*
X49728616Y-89574620D01*
X49901952Y-89476345D01*
X50047803Y-89393792D01*
X50161851Y-89329410D01*
X50239777Y-89285648D01*
X50274493Y-89266435D01*
X50356421Y-89213460D01*
X50407481Y-89152786D01*
X50437530Y-89087600D01*
X50524035Y-88905875D01*
X50647055Y-88711540D01*
X50797872Y-88515106D01*
X50967769Y-88327086D01*
X51148027Y-88157991D01*
X51316862Y-88027252D01*
X51626402Y-87839213D01*
X51940212Y-87697462D01*
X52255162Y-87601938D01*
X52568122Y-87552582D01*
X52875962Y-87549330D01*
X53175549Y-87592123D01*
X53463755Y-87680899D01*
X53737448Y-87815597D01*
X53993498Y-87996156D01*
X54090462Y-88081380D01*
X54155762Y-88140421D01*
X54206264Y-88182533D01*
X54231034Y-88198599D01*
X54231036Y-88198600D01*
X54252691Y-88179021D01*
X54285825Y-88131133D01*
X54290326Y-88123640D01*
X54405625Y-87975360D01*
X54556898Y-87851422D01*
X54732299Y-87759021D01*
X54919983Y-87705350D01*
X54993626Y-87696493D01*
X55169486Y-87683911D01*
X55169567Y-87508255D01*
X55568045Y-87508255D01*
X55577923Y-87673410D01*
X55602000Y-87813563D01*
X55614567Y-87855700D01*
X55698369Y-88061992D01*
X55797086Y-88247536D01*
X55903118Y-88398310D01*
X55918336Y-88416098D01*
X56027081Y-88539678D01*
X56025022Y-88388140D01*
X56038252Y-88246149D01*
X56086590Y-88129217D01*
X56176527Y-88023956D01*
X56219539Y-87986985D01*
X56341431Y-87918966D01*
X56477657Y-87893350D01*
X56617238Y-87908496D01*
X56749193Y-87962764D01*
X56862542Y-88054514D01*
X56889768Y-88087114D01*
X56933944Y-88157784D01*
X56958630Y-88236758D01*
X56970345Y-88340509D01*
X56973066Y-88439224D01*
X56962834Y-88510735D01*
X56934975Y-88577960D01*
X56914430Y-88614649D01*
X56815414Y-88736653D01*
X56686348Y-88818107D01*
X56593800Y-88846986D01*
X56536891Y-88860258D01*
X56525455Y-88870496D01*
X56555211Y-88884943D01*
X56568400Y-88889991D01*
X56829614Y-88966499D01*
X57098684Y-89002985D01*
X57364522Y-88999096D01*
X57616038Y-88954478D01*
X57707002Y-88926262D01*
X57977785Y-88805291D01*
X58217014Y-88645454D01*
X58422062Y-88449568D01*
X58590302Y-88220447D01*
X58719106Y-87960910D01*
X58781129Y-87774719D01*
X58817938Y-87571123D01*
X58826937Y-87344587D01*
X58808882Y-87114181D01*
X58764526Y-86898972D01*
X58743874Y-86833472D01*
X58626603Y-86559532D01*
X58478251Y-86317535D01*
X58302178Y-86111544D01*
X58101745Y-85945623D01*
X57926036Y-85844427D01*
X57823261Y-85797969D01*
X57739913Y-85768580D01*
X57656264Y-85751610D01*
X57552589Y-85742410D01*
X57478444Y-85738918D01*
X57343998Y-85736285D01*
X57236099Y-85742767D01*
X57130885Y-85761181D01*
X57004495Y-85794345D01*
X57001432Y-85795222D01*
X56705009Y-85903035D01*
X56432114Y-86047784D01*
X56187365Y-86225317D01*
X55975378Y-86431481D01*
X55800771Y-86662125D01*
X55668160Y-86913097D01*
X55622036Y-87035732D01*
X55590259Y-87172119D01*
X55572210Y-87335392D01*
X55568045Y-87508255D01*
X55169567Y-87508255D01*
X55169600Y-87439605D01*
X55191478Y-87154912D01*
X55254305Y-86875768D01*
X55312800Y-86712420D01*
X55374076Y-86590357D01*
X55461548Y-86448655D01*
X55564732Y-86302822D01*
X55673145Y-86168365D01*
X55703951Y-86133839D01*
X55759995Y-86074342D01*
X55796801Y-86031504D01*
X55811053Y-85997510D01*
X55799432Y-85964544D01*
X55758620Y-85924791D01*
X55685301Y-85870436D01*
X55576157Y-85793664D01*
X55552400Y-85776824D01*
X55435941Y-85694413D01*
X55352678Y-85638732D01*
X55294198Y-85607365D01*
X55252088Y-85597898D01*
X55217937Y-85607915D01*
X55183331Y-85635000D01*
X55154561Y-85662601D01*
X55040643Y-85795835D01*
X54939846Y-85956114D01*
X54877997Y-86090400D01*
X54820559Y-86203927D01*
X54750455Y-86270611D01*
X54664359Y-86293546D01*
X54659431Y-86293600D01*
X54582939Y-86273108D01*
X54514130Y-86221583D01*
X54469228Y-86153951D01*
X54460510Y-86110604D01*
X54473584Y-86043467D01*
X54508277Y-85946467D01*
X54558561Y-85832358D01*
X54618408Y-85713895D01*
X54681788Y-85603832D01*
X54741110Y-85516942D01*
X54793005Y-85446681D01*
X54827922Y-85393549D01*
X54838674Y-85368530D01*
X54838437Y-85368203D01*
X54802822Y-85347260D01*
X54730564Y-85313949D01*
X54632906Y-85272853D01*
X54521092Y-85228559D01*
X54406366Y-85185651D01*
X54301495Y-85149218D01*
X53818933Y-85016280D01*
X53330475Y-84933648D01*
X52836932Y-84901272D01*
X52339115Y-84919102D01*
X51837834Y-84987088D01*
X51333899Y-85105182D01*
X50828123Y-85273333D01*
X50571223Y-85377704D01*
X50154634Y-85584207D01*
X49753596Y-85836565D01*
X49372230Y-86131135D01*
X49014655Y-86464276D01*
X48684990Y-86832345D01*
X48387355Y-87231699D01*
X48270340Y-87411981D01*
X48055766Y-87799175D01*
X47870171Y-88220662D01*
X47716661Y-88667019D01*
X47598342Y-89128823D01*
X47518323Y-89596648D01*
X47501487Y-89744341D01*
X47489016Y-89896692D01*
X47480530Y-90058385D01*
X47475886Y-90222031D01*
X47474938Y-90380238D01*
X47081711Y-90380238D01*
X47082644Y-90268475D01*
X47086561Y-90077739D01*
X47092679Y-89892022D01*
X47100838Y-89720611D01*
X47110876Y-89572793D01*
X47122632Y-89457854D01*
X47128711Y-89417800D01*
X47175290Y-89172895D01*
X47224683Y-88943223D01*
X47274283Y-88740099D01*
X47321480Y-88574839D01*
X47326793Y-88558292D01*
X47350343Y-88474017D01*
X47361257Y-88409129D01*
X47357372Y-88378161D01*
X47322070Y-88362741D01*
X47253750Y-88342891D01*
X47191757Y-88328314D01*
X46974529Y-88260002D01*
X46758580Y-88152088D01*
X46556250Y-88013034D01*
X46379877Y-87851303D01*
X46243424Y-87677900D01*
X46153315Y-87520468D01*
X46093218Y-87369628D01*
X46058329Y-87208350D01*
X46043846Y-87019604D01*
X46042856Y-86966700D01*
X46043320Y-86830612D01*
X46049644Y-86726056D01*
X46064541Y-86633857D01*
X46090727Y-86534843D01*
X46114777Y-86458700D01*
X46175741Y-86298671D01*
X46239514Y-86186218D01*
X46308610Y-86118116D01*
X46385542Y-86091143D01*
X46402018Y-86090400D01*
X46483402Y-86113136D01*
X46533802Y-86152199D01*
X46566675Y-86200337D01*
X46580277Y-86260389D01*
X46573949Y-86340856D01*
X46547031Y-86450241D01*
X46499450Y-86595374D01*
X46443394Y-86821786D01*
X46435500Y-87039365D01*
X46474939Y-87244514D01*
X46560883Y-87433638D01*
X46692505Y-87603141D01*
X46742539Y-87651218D01*
X46894795Y-87767629D01*
X47064480Y-87862905D01*
X47237957Y-87931023D01*
X47401590Y-87965959D01*
X47462500Y-87969292D01*
X47497667Y-87966308D01*
X47526208Y-87952004D01*
X47554398Y-87918187D01*
X47588515Y-87856662D01*
X47634835Y-87759236D01*
X47651975Y-87721943D01*
X47865564Y-87309306D01*
X48124537Y-86905742D01*
X48431083Y-86507992D01*
X48592239Y-86322104D01*
X48685763Y-86216951D01*
X48748727Y-86142747D01*
X48785191Y-86093264D01*
X48799217Y-86062274D01*
X48794867Y-86043550D01*
X48780692Y-86033117D01*
X48720684Y-85989723D01*
X48640260Y-85915670D01*
X48548856Y-85821406D01*
X48455907Y-85717376D01*
X48370847Y-85614026D01*
X48303112Y-85521805D01*
X48270239Y-85467919D01*
X48160492Y-85209339D01*
X48099286Y-84947111D01*
X48085995Y-84685817D01*
X48119996Y-84430037D01*
X48200665Y-84184352D01*
X48327378Y-83953344D01*
X48499510Y-83741594D01*
X48506387Y-83734550D01*
X48614787Y-83632040D01*
X48702059Y-83569965D01*
X48774955Y-83546296D01*
X48840225Y-83559001D01*
X48904624Y-83606051D01*
X48911454Y-83612745D01*
X48957379Y-83671220D01*
X48971906Y-83730065D01*
X48952889Y-83797141D01*
X48898181Y-83880307D01*
X48810604Y-83982020D01*
X48653515Y-84180914D01*
X48546627Y-84381857D01*
X48489344Y-84587472D01*
X48481068Y-84800383D01*
X48521204Y-85023213D01*
X48552067Y-85119592D01*
X48632866Y-85287496D01*
X48749441Y-85454110D01*
X48888988Y-85604054D01*
X49038703Y-85721949D01*
X49068998Y-85740479D01*
X49144466Y-85784258D01*
X49332183Y-85643299D01*
X49764076Y-85350352D01*
X50224970Y-85097482D01*
X50709243Y-84887592D01*
X50978623Y-84793102D01*
X51192747Y-84724027D01*
X51187123Y-84448363D01*
X51201511Y-84161594D01*
X51257254Y-83904188D01*
X51354752Y-83675450D01*
X51494406Y-83474687D01*
X51676615Y-83301205D01*
X51901781Y-83154310D01*
X51947831Y-83130169D01*
X52057997Y-83084200D01*
X52201395Y-83038309D01*
X52360660Y-82997104D01*
X52518426Y-82965192D01*
X52627120Y-82949939D01*
X52715536Y-82943284D01*
X52770850Y-82948564D01*
X52810001Y-82968964D01*
X52831324Y-82988324D01*
X52874317Y-83063678D01*
X52883749Y-83156627D01*
X52858324Y-83245532D01*
X52847739Y-83262664D01*
X52805233Y-83298884D01*
X52729547Y-83326833D01*
X52638189Y-83345904D01*
X52365894Y-83407631D01*
X52137148Y-83492619D01*
X51949659Y-83602237D01*
X51801135Y-83737854D01*
X51689284Y-83900839D01*
X51680442Y-83917875D01*
X51621481Y-84078373D01*
X51588247Y-84269234D01*
X51583103Y-84475712D01*
X51585249Y-84512105D01*
X51592032Y-84580482D01*
X51606687Y-84610079D01*
X51640423Y-84612808D01*
X51674149Y-84606571D01*
X51947553Y-84561310D01*
X52248536Y-84528690D01*
X52562109Y-84509290D01*
X52873283Y-84503688D01*
X53167068Y-84512462D01*
X53428475Y-84536190D01*
X53444200Y-84538293D01*
X53858307Y-84611996D01*
X54271922Y-84718091D01*
X54668559Y-84851812D01*
X54973187Y-84980422D01*
X55086255Y-85031816D01*
X55162623Y-85062126D01*
X55210615Y-85073792D01*
X55238556Y-85069256D01*
X55248139Y-85061049D01*
X55285235Y-85033225D01*
X55357900Y-84990997D01*
X55454973Y-84939877D01*
X55565290Y-84885378D01*
X55677689Y-84833013D01*
X55781006Y-84788293D01*
X55864079Y-84756731D01*
X55865011Y-84756420D01*
X56006431Y-84716478D01*
X56168025Y-84681921D01*
X56329341Y-84656376D01*
X56469925Y-84643469D01*
X56507134Y-84642600D01*
X56603700Y-84648870D01*
X56666529Y-84670503D01*
X56694753Y-84692753D01*
X56752333Y-84777761D01*
X56762044Y-84865665D01*
X56727873Y-84943051D01*
X56696726Y-84978373D01*
X56657807Y-85004806D01*
X56601578Y-85025367D01*
X56518498Y-85043075D01*
X56399027Y-85060949D01*
X56324621Y-85070643D01*
X56173678Y-85097255D01*
X56014148Y-85137835D01*
X55862307Y-85187301D01*
X55734428Y-85240572D01*
X55672936Y-85274150D01*
X55596948Y-85322262D01*
X55758824Y-85431123D01*
X55859514Y-85501502D01*
X55963018Y-85578065D01*
X56040543Y-85639082D01*
X56160386Y-85738179D01*
X56308510Y-85651366D01*
X56613945Y-85499422D01*
X56928730Y-85396841D01*
X57256601Y-85342496D01*
X57356117Y-85335526D01*
X57563026Y-85334131D01*
X57741959Y-85355032D01*
X57912336Y-85402256D01*
X58093583Y-85479827D01*
X58123332Y-85494542D01*
X58377974Y-85650332D01*
X58606860Y-85847485D01*
X58806889Y-86081896D01*
X58974958Y-86349457D01*
X59107967Y-86646063D01*
X59187473Y-86903200D01*
X59210747Y-87040557D01*
X59222734Y-87211117D01*
X59223801Y-87398637D01*
X59214315Y-87586874D01*
X59194643Y-87759586D01*
X59165153Y-87900529D01*
X59164903Y-87901399D01*
X59053820Y-88204369D01*
X58901870Y-88479967D01*
X58706158Y-88732866D01*
X58554239Y-88887169D01*
X58463278Y-88974002D01*
X58405679Y-89035366D01*
X58375935Y-89078505D01*
X58368539Y-89110660D01*
X58372142Y-89126661D01*
X58384526Y-89170666D01*
X58404149Y-89252993D01*
X58428381Y-89362130D01*
X58454591Y-89486566D01*
X58456311Y-89494961D01*
X58538796Y-90012692D01*
X58571906Y-90519029D01*
X58555496Y-91015106D01*
X58489422Y-91502057D01*
X58373539Y-91981017D01*
X58207703Y-92453121D01*
X58029533Y-92845537D01*
X57792943Y-93261478D01*
X57511808Y-93656850D01*
X57189080Y-94029100D01*
X56827715Y-94375672D01*
X56430665Y-94694012D01*
X56000884Y-94981565D01*
X55541325Y-95235776D01*
X55054942Y-95454091D01*
X54979417Y-95483753D01*
X54696666Y-95588667D01*
X54441142Y-95673655D01*
X54195674Y-95743484D01*
X53943093Y-95802919D01*
X53666230Y-95856726D01*
X53583900Y-95871110D01*
X53398891Y-95896104D01*
X53176772Y-95915402D01*
X52930949Y-95928694D01*
X52674826Y-95935672D01*
X52421807Y-95936025D01*
X52185296Y-95929445D01*
X51978698Y-95915621D01*
X51920200Y-95909514D01*
X51404515Y-95825653D01*
X50900514Y-95696061D01*
X50415359Y-95522843D01*
X50067742Y-95365352D01*
X49659169Y-95140455D01*
X49280376Y-94885972D01*
X48923969Y-94596090D01*
X48582556Y-94264998D01*
X48369965Y-94030473D01*
X48310862Y-93964336D01*
X48273328Y-93931715D01*
X48246735Y-93926831D01*
X48220456Y-93943907D01*
X48216779Y-93947193D01*
X48157669Y-93987383D01*
X48062617Y-94037370D01*
X47944126Y-94091661D01*
X47814699Y-94144761D01*
X47686837Y-94191177D01*
X47600491Y-94218016D01*
X47436583Y-94253868D01*
X47249769Y-94278181D01*
X47057953Y-94289850D01*
X46879040Y-94287771D01*
X46734311Y-94271486D01*
X46455451Y-94197378D01*
X46204123Y-94084490D01*
X45973460Y-93928989D01*
X45756596Y-93727038D01*
X45753554Y-93723787D01*
X45581578Y-93512371D01*
X45456057Y-93293861D01*
X45372659Y-93060158D01*
X45353004Y-92975181D01*
X45322948Y-92704304D01*
X45330630Y-92602158D01*
X45731157Y-92602158D01*
X45732672Y-92811774D01*
X45777327Y-93021547D01*
X45868235Y-93226303D01*
X45879460Y-93245422D01*
X45995192Y-93401686D01*
X46145125Y-93549666D01*
X46316815Y-93680207D01*
X46497816Y-93784153D01*
X46675684Y-93852350D01*
X46718719Y-93862850D01*
X46849176Y-93878945D01*
X47010569Y-93881757D01*
X47185149Y-93872516D01*
X47355169Y-93852449D01*
X47502881Y-93822787D01*
X47564100Y-93804293D01*
X47743763Y-93737500D01*
X47878275Y-93680423D01*
X47966080Y-93633770D01*
X48000474Y-93605891D01*
X48010154Y-93577317D01*
X47998263Y-93531942D01*
X47961435Y-93460357D01*
X47928822Y-93405570D01*
X47869278Y-93303943D01*
X47799906Y-93179237D01*
X47733180Y-93054017D01*
X47715613Y-93019863D01*
X47663400Y-92918783D01*
X47626893Y-92855596D01*
X47599152Y-92822721D01*
X47573235Y-92812579D01*
X47542205Y-92817588D01*
X47532905Y-92820298D01*
X47412737Y-92862048D01*
X47328059Y-92906710D01*
X47280334Y-92945101D01*
X47221456Y-93019990D01*
X47207691Y-93097335D01*
X47237294Y-93189781D01*
X47244565Y-93204199D01*
X47290074Y-93321657D01*
X47292166Y-93415258D01*
X47250889Y-93483812D01*
X47232859Y-93497517D01*
X47160305Y-93523531D01*
X47091879Y-93502073D01*
X47025488Y-93431931D01*
X46977211Y-93349494D01*
X46919576Y-93187172D01*
X46911318Y-93030171D01*
X46951131Y-92883480D01*
X47037705Y-92752088D01*
X47161511Y-92646353D01*
X47230068Y-92603060D01*
X47281608Y-92574382D01*
X47300101Y-92567400D01*
X47335915Y-92559139D01*
X47388571Y-92541136D01*
X47457649Y-92514872D01*
X47383874Y-92436408D01*
X47283619Y-92353554D01*
X47166226Y-92305782D01*
X47019071Y-92288305D01*
X46992571Y-92288000D01*
X46814948Y-92311561D01*
X46658292Y-92379993D01*
X46527675Y-92489917D01*
X46428168Y-92637955D01*
X46410864Y-92675515D01*
X46352730Y-92777336D01*
X46286771Y-92830207D01*
X46214091Y-92833509D01*
X46168140Y-92811717D01*
X46117932Y-92751974D01*
X46104955Y-92669112D01*
X46125329Y-92569849D01*
X46175172Y-92460906D01*
X46250604Y-92349003D01*
X46347744Y-92240859D01*
X46462711Y-92143194D01*
X46591624Y-92062727D01*
X46604487Y-92056205D01*
X46664572Y-92029311D01*
X46723926Y-92011743D01*
X46795642Y-92001592D01*
X46892813Y-91996949D01*
X47018000Y-91995900D01*
X47310100Y-91995900D01*
X47259300Y-91787865D01*
X47234120Y-91688525D01*
X47209473Y-91621939D01*
X47175324Y-91581538D01*
X47121634Y-91560756D01*
X47038370Y-91553023D01*
X46915494Y-91551771D01*
X46898505Y-91551746D01*
X46666971Y-91573846D01*
X46453672Y-91637495D01*
X46261722Y-91737517D01*
X46094233Y-91868740D01*
X45954319Y-92025990D01*
X45845093Y-92204092D01*
X45769668Y-92397872D01*
X45731157Y-92602158D01*
X45330630Y-92602158D01*
X45342872Y-92439386D01*
X45412088Y-92182713D01*
G37*
X45412088Y-92182713D02*
X45529910Y-91936566D01*
X45695649Y-91703231D01*
X45756591Y-91633921D01*
X45922746Y-91483311D01*
X46119541Y-91353518D01*
X46223005Y-91303820D01*
X47566092Y-91303820D01*
X47575413Y-91376355D01*
X47595831Y-91481122D01*
X47625540Y-91609925D01*
X47662736Y-91754566D01*
X47705612Y-91906851D01*
X47720826Y-91957800D01*
X47893719Y-92444846D01*
X48107318Y-92902816D01*
X48359689Y-93330058D01*
X48648898Y-93724920D01*
X48973008Y-94085752D01*
X49330085Y-94410902D01*
X49718193Y-94698719D01*
X50135399Y-94947552D01*
X50579766Y-95155750D01*
X51049360Y-95321660D01*
X51542245Y-95443633D01*
X51869400Y-95497926D01*
X52051667Y-95516391D01*
X52269447Y-95528631D01*
X52507827Y-95534600D01*
X52751898Y-95534255D01*
X52986748Y-95527554D01*
X53197467Y-95514453D01*
X53317200Y-95502139D01*
X53851788Y-95411194D01*
X54373538Y-95275094D01*
X54878390Y-95095775D01*
X55362288Y-94875176D01*
X55821172Y-94615234D01*
X56250985Y-94317886D01*
X56647669Y-93985072D01*
X56799039Y-93839569D01*
X57117438Y-93492943D01*
X57389887Y-93134354D01*
X57621017Y-92756526D01*
X57815462Y-92352182D01*
X57924228Y-92072100D01*
X58039464Y-91680546D01*
X58117693Y-91262781D01*
X58158491Y-90827837D01*
X58161436Y-90384750D01*
X58126104Y-89942553D01*
X58052072Y-89510280D01*
X58045583Y-89481300D01*
X58024045Y-89387220D01*
X58003905Y-89326288D01*
X57975466Y-89294494D01*
X57929032Y-89287828D01*
X57854905Y-89302280D01*
X57743388Y-89333840D01*
X57711400Y-89343106D01*
X57600890Y-89370367D01*
X57485763Y-89387867D01*
X57349973Y-89397424D01*
X57203400Y-89400686D01*
X57070334Y-89400839D01*
X56965642Y-89397262D01*
X56873862Y-89387695D01*
X56779533Y-89369881D01*
X56667194Y-89341561D01*
X56525578Y-89301682D01*
X56514761Y-89306965D01*
X56523074Y-89336332D01*
X56552400Y-89393036D01*
X56604624Y-89480327D01*
X56681629Y-89601455D01*
X56785300Y-89759672D01*
X56830628Y-89828013D01*
X57004958Y-90095810D01*
X57154148Y-90336736D01*
X57277003Y-90548563D01*
X57372323Y-90729065D01*
X57438913Y-90876016D01*
X57475575Y-90987189D01*
X57482800Y-91040918D01*
X57458012Y-91141460D01*
X57384536Y-91232699D01*
X57263702Y-91314209D01*
X57096838Y-91385565D01*
X56885275Y-91446341D01*
X56630343Y-91496114D01*
X56333371Y-91534457D01*
X55995690Y-91560946D01*
X55831800Y-91568845D01*
X55686625Y-91574119D01*
X55583096Y-91576019D01*
X55512126Y-91573778D01*
X55464625Y-91566631D01*
X55431507Y-91553814D01*
X55403685Y-91534562D01*
X55401269Y-91532602D01*
X55351757Y-91462523D01*
X55337715Y-91374625D01*
X55359771Y-91288061D01*
X55391784Y-91243527D01*
X55417005Y-91223117D01*
X55451506Y-91207667D01*
X55503592Y-91195801D01*
X55581564Y-91186145D01*
X55693725Y-91177321D01*
X55847714Y-91167993D01*
X56075851Y-91152267D01*
X56294215Y-91131858D01*
X56496820Y-91107743D01*
X56677684Y-91080897D01*
X56830821Y-91052297D01*
X56950249Y-91022919D01*
X57029983Y-90993740D01*
X57062067Y-90969841D01*
X57056247Y-90934947D01*
X57021230Y-90861485D01*
X56958372Y-90751470D01*
X56869034Y-90606916D01*
X56754573Y-90429837D01*
X56616348Y-90222248D01*
X56455717Y-89986163D01*
X56274040Y-89723597D01*
X56072674Y-89436565D01*
X55852978Y-89127080D01*
X55616311Y-88797157D01*
X55364031Y-88448811D01*
X55334462Y-88408186D01*
X55247495Y-88289252D01*
X55183935Y-88205303D01*
X55137305Y-88150243D01*
X55101127Y-88117980D01*
X55068922Y-88102417D01*
X55034215Y-88097460D01*
X55003760Y-88097036D01*
X54886138Y-88121118D01*
X54770535Y-88188980D01*
X54664683Y-88293927D01*
X54576314Y-88429260D01*
X54546436Y-88493157D01*
X54529691Y-88536638D01*
X54523133Y-88574115D01*
X54529256Y-88616967D01*
X54550555Y-88676571D01*
X54589526Y-88764305D01*
X54620566Y-88831180D01*
X54746246Y-89157084D01*
X54823317Y-89487141D01*
X54852492Y-89817303D01*
X54834488Y-90143524D01*
X54770016Y-90461755D01*
X54659792Y-90767950D01*
X54504529Y-91058062D01*
X54304942Y-91328044D01*
X54151224Y-91491357D01*
X53889133Y-91712314D01*
X53607247Y-91886507D01*
X53305073Y-92014149D01*
X52982115Y-92095459D01*
X52694787Y-92128089D01*
X52346398Y-92125326D01*
X52019020Y-92076514D01*
X51710939Y-91981005D01*
X51420439Y-91838147D01*
X51145808Y-91647292D01*
X50939293Y-91462500D01*
X50710000Y-91205939D01*
X50529552Y-90936970D01*
X50397059Y-90653543D01*
X50311633Y-90353607D01*
X50272386Y-90035112D01*
X50269429Y-89918199D01*
X50675975Y-89918199D01*
X50680552Y-90093182D01*
X50697674Y-90241503D01*
X50731491Y-90380713D01*
X50786156Y-90528361D01*
X50857093Y-90683970D01*
X50925996Y-90819501D01*
X50990593Y-90925645D01*
X51063759Y-91020823D01*
X51158368Y-91123453D01*
X51178932Y-91144405D01*
X51277262Y-91238514D01*
X51379819Y-91327513D01*
X51477717Y-91404601D01*
X51562069Y-91462979D01*
X51623988Y-91495847D01*
X51644476Y-91500600D01*
X51648162Y-91480204D01*
X51633549Y-91429521D01*
X51626803Y-91412515D01*
X51592311Y-91268377D01*
X51602491Y-91121739D01*
X51652602Y-90981896D01*
X51737905Y-90858144D01*
X51853659Y-90759780D01*
X51991578Y-90697116D01*
X52157081Y-90670599D01*
X52308086Y-90692488D01*
X52447329Y-90763491D01*
X52533473Y-90836957D01*
X52637780Y-90970044D01*
X52692980Y-91113719D01*
X52700232Y-91271217D01*
X52697415Y-91295080D01*
X52664240Y-91417455D01*
X52604056Y-91536401D01*
X52527265Y-91634264D01*
X52470646Y-91679896D01*
X52390100Y-91729010D01*
X52593300Y-91728664D01*
X52722102Y-91723189D01*
X52860737Y-91709211D01*
X52973571Y-91690809D01*
X53202816Y-91621999D01*
X53436128Y-91515519D01*
X53658326Y-91380124D01*
X53854232Y-91224567D01*
X53951184Y-91127047D01*
X54117838Y-90909302D01*
X54257533Y-90662169D01*
X54364266Y-90399101D01*
X54432034Y-90133550D01*
X54448668Y-90012222D01*
X54453190Y-89837496D01*
X54438568Y-89638136D01*
X54407315Y-89435463D01*
X54361943Y-89250794D01*
X54357120Y-89235370D01*
X54268746Y-89014954D01*
X54147212Y-88792807D01*
X54002047Y-88583187D01*
X53842777Y-88400347D01*
X53730907Y-88298288D01*
X53497546Y-88139566D01*
X53247646Y-88028065D01*
X52983975Y-87964018D01*
X52709307Y-87947659D01*
X52426411Y-87979222D01*
X52138059Y-88058942D01*
X51928989Y-88146115D01*
X51720974Y-88252606D01*
X51546497Y-88360029D01*
X51389251Y-88479118D01*
X51289015Y-88567443D01*
X51072291Y-88799385D01*
X50901996Y-89050385D01*
X50778767Y-89319041D01*
X50703240Y-89603950D01*
X50676053Y-89903711D01*
X50675975Y-89918199D01*
X50269429Y-89918199D01*
X50269391Y-89916732D01*
X50267698Y-89824736D01*
X50261281Y-89774138D01*
X50247751Y-89755590D01*
X50228835Y-89758054D01*
X50200126Y-89773072D01*
X50132235Y-89810545D01*
X50029896Y-89867776D01*
X49897844Y-89942070D01*
X49740813Y-90030734D01*
X49563540Y-90131070D01*
X49370758Y-90240384D01*
X49167202Y-90355982D01*
X48957608Y-90475167D01*
X48746709Y-90595245D01*
X48539241Y-90713520D01*
X48339938Y-90827298D01*
X48153536Y-90933882D01*
X47984768Y-91030579D01*
X47838371Y-91114692D01*
X47719078Y-91183527D01*
X47631624Y-91234389D01*
X47580745Y-91264582D01*
X47569675Y-91271712D01*
X47566092Y-91303820D01*
X46223005Y-91303820D01*
X46334434Y-91250297D01*
X46554883Y-91179401D01*
X46768344Y-91146585D01*
X46822330Y-91145000D01*
X46923004Y-91137784D01*
X47011627Y-91119069D01*
X47045598Y-91105762D01*
X47094589Y-91075301D01*
X47110837Y-91040437D01*
X47103283Y-90979928D01*
X47101723Y-90972412D01*
X47092215Y-90895880D01*
X47085714Y-90777934D01*
X47082059Y-90627859D01*
X47081089Y-90454944D01*
X47081711Y-90380238D01*
X47474938Y-90380238D01*
X47477542Y-90525615D01*
X47483553Y-90650773D01*
X47492826Y-90748321D01*
X47505217Y-90810868D01*
X47520582Y-90831023D01*
X47522742Y-90830172D01*
X47547111Y-90816273D01*
X47611722Y-90779456D01*
X47712674Y-90721943D01*
X47846067Y-90645956D01*
X48007998Y-90553718D01*
X48194567Y-90447450D01*
X48401873Y-90329375D01*
X48626015Y-90201715D01*
X48846800Y-90075970D01*
X49086888Y-89939293D01*
X49316766Y-89808543D01*
X49532115Y-89686169D01*
X49728616Y-89574620D01*
X49901952Y-89476345D01*
X50047803Y-89393792D01*
X50161851Y-89329410D01*
X50239777Y-89285648D01*
X50274493Y-89266435D01*
X50356421Y-89213460D01*
X50407481Y-89152786D01*
X50437530Y-89087600D01*
X50524035Y-88905875D01*
X50647055Y-88711540D01*
X50797872Y-88515106D01*
X50967769Y-88327086D01*
X51148027Y-88157991D01*
X51316862Y-88027252D01*
X51626402Y-87839213D01*
X51940212Y-87697462D01*
X52255162Y-87601938D01*
X52568122Y-87552582D01*
X52875962Y-87549330D01*
X53175549Y-87592123D01*
X53463755Y-87680899D01*
X53737448Y-87815597D01*
X53993498Y-87996156D01*
X54090462Y-88081380D01*
X54155762Y-88140421D01*
X54206264Y-88182533D01*
X54231034Y-88198599D01*
X54231036Y-88198600D01*
X54252691Y-88179021D01*
X54285825Y-88131133D01*
X54290326Y-88123640D01*
X54405625Y-87975360D01*
X54556898Y-87851422D01*
X54732299Y-87759021D01*
X54919983Y-87705350D01*
X54993626Y-87696493D01*
X55169486Y-87683911D01*
X55169567Y-87508255D01*
X55568045Y-87508255D01*
X55577923Y-87673410D01*
X55602000Y-87813563D01*
X55614567Y-87855700D01*
X55698369Y-88061992D01*
X55797086Y-88247536D01*
X55903118Y-88398310D01*
X55918336Y-88416098D01*
X56027081Y-88539678D01*
X56025022Y-88388140D01*
X56038252Y-88246149D01*
X56086590Y-88129217D01*
X56176527Y-88023956D01*
X56219539Y-87986985D01*
X56341431Y-87918966D01*
X56477657Y-87893350D01*
X56617238Y-87908496D01*
X56749193Y-87962764D01*
X56862542Y-88054514D01*
X56889768Y-88087114D01*
X56933944Y-88157784D01*
X56958630Y-88236758D01*
X56970345Y-88340509D01*
X56973066Y-88439224D01*
X56962834Y-88510735D01*
X56934975Y-88577960D01*
X56914430Y-88614649D01*
X56815414Y-88736653D01*
X56686348Y-88818107D01*
X56593800Y-88846986D01*
X56536891Y-88860258D01*
X56525455Y-88870496D01*
X56555211Y-88884943D01*
X56568400Y-88889991D01*
X56829614Y-88966499D01*
X57098684Y-89002985D01*
X57364522Y-88999096D01*
X57616038Y-88954478D01*
X57707002Y-88926262D01*
X57977785Y-88805291D01*
X58217014Y-88645454D01*
X58422062Y-88449568D01*
X58590302Y-88220447D01*
X58719106Y-87960910D01*
X58781129Y-87774719D01*
X58817938Y-87571123D01*
X58826937Y-87344587D01*
X58808882Y-87114181D01*
X58764526Y-86898972D01*
X58743874Y-86833472D01*
X58626603Y-86559532D01*
X58478251Y-86317535D01*
X58302178Y-86111544D01*
X58101745Y-85945623D01*
X57926036Y-85844427D01*
X57823261Y-85797969D01*
X57739913Y-85768580D01*
X57656264Y-85751610D01*
X57552589Y-85742410D01*
X57478444Y-85738918D01*
X57343998Y-85736285D01*
X57236099Y-85742767D01*
X57130885Y-85761181D01*
X57004495Y-85794345D01*
X57001432Y-85795222D01*
X56705009Y-85903035D01*
X56432114Y-86047784D01*
X56187365Y-86225317D01*
X55975378Y-86431481D01*
X55800771Y-86662125D01*
X55668160Y-86913097D01*
X55622036Y-87035732D01*
X55590259Y-87172119D01*
X55572210Y-87335392D01*
X55568045Y-87508255D01*
X55169567Y-87508255D01*
X55169600Y-87439605D01*
X55191478Y-87154912D01*
X55254305Y-86875768D01*
X55312800Y-86712420D01*
X55374076Y-86590357D01*
X55461548Y-86448655D01*
X55564732Y-86302822D01*
X55673145Y-86168365D01*
X55703951Y-86133839D01*
X55759995Y-86074342D01*
X55796801Y-86031504D01*
X55811053Y-85997510D01*
X55799432Y-85964544D01*
X55758620Y-85924791D01*
X55685301Y-85870436D01*
X55576157Y-85793664D01*
X55552400Y-85776824D01*
X55435941Y-85694413D01*
X55352678Y-85638732D01*
X55294198Y-85607365D01*
X55252088Y-85597898D01*
X55217937Y-85607915D01*
X55183331Y-85635000D01*
X55154561Y-85662601D01*
X55040643Y-85795835D01*
X54939846Y-85956114D01*
X54877997Y-86090400D01*
X54820559Y-86203927D01*
X54750455Y-86270611D01*
X54664359Y-86293546D01*
X54659431Y-86293600D01*
X54582939Y-86273108D01*
X54514130Y-86221583D01*
X54469228Y-86153951D01*
X54460510Y-86110604D01*
X54473584Y-86043467D01*
X54508277Y-85946467D01*
X54558561Y-85832358D01*
X54618408Y-85713895D01*
X54681788Y-85603832D01*
X54741110Y-85516942D01*
X54793005Y-85446681D01*
X54827922Y-85393549D01*
X54838674Y-85368530D01*
X54838437Y-85368203D01*
X54802822Y-85347260D01*
X54730564Y-85313949D01*
X54632906Y-85272853D01*
X54521092Y-85228559D01*
X54406366Y-85185651D01*
X54301495Y-85149218D01*
X53818933Y-85016280D01*
X53330475Y-84933648D01*
X52836932Y-84901272D01*
X52339115Y-84919102D01*
X51837834Y-84987088D01*
X51333899Y-85105182D01*
X50828123Y-85273333D01*
X50571223Y-85377704D01*
X50154634Y-85584207D01*
X49753596Y-85836565D01*
X49372230Y-86131135D01*
X49014655Y-86464276D01*
X48684990Y-86832345D01*
X48387355Y-87231699D01*
X48270340Y-87411981D01*
X48055766Y-87799175D01*
X47870171Y-88220662D01*
X47716661Y-88667019D01*
X47598342Y-89128823D01*
X47518323Y-89596648D01*
X47501487Y-89744341D01*
X47489016Y-89896692D01*
X47480530Y-90058385D01*
X47475886Y-90222031D01*
X47474938Y-90380238D01*
X47081711Y-90380238D01*
X47082644Y-90268475D01*
X47086561Y-90077739D01*
X47092679Y-89892022D01*
X47100838Y-89720611D01*
X47110876Y-89572793D01*
X47122632Y-89457854D01*
X47128711Y-89417800D01*
X47175290Y-89172895D01*
X47224683Y-88943223D01*
X47274283Y-88740099D01*
X47321480Y-88574839D01*
X47326793Y-88558292D01*
X47350343Y-88474017D01*
X47361257Y-88409129D01*
X47357372Y-88378161D01*
X47322070Y-88362741D01*
X47253750Y-88342891D01*
X47191757Y-88328314D01*
X46974529Y-88260002D01*
X46758580Y-88152088D01*
X46556250Y-88013034D01*
X46379877Y-87851303D01*
X46243424Y-87677900D01*
X46153315Y-87520468D01*
X46093218Y-87369628D01*
X46058329Y-87208350D01*
X46043846Y-87019604D01*
X46042856Y-86966700D01*
X46043320Y-86830612D01*
X46049644Y-86726056D01*
X46064541Y-86633857D01*
X46090727Y-86534843D01*
X46114777Y-86458700D01*
X46175741Y-86298671D01*
X46239514Y-86186218D01*
X46308610Y-86118116D01*
X46385542Y-86091143D01*
X46402018Y-86090400D01*
X46483402Y-86113136D01*
X46533802Y-86152199D01*
X46566675Y-86200337D01*
X46580277Y-86260389D01*
X46573949Y-86340856D01*
X46547031Y-86450241D01*
X46499450Y-86595374D01*
X46443394Y-86821786D01*
X46435500Y-87039365D01*
X46474939Y-87244514D01*
X46560883Y-87433638D01*
X46692505Y-87603141D01*
X46742539Y-87651218D01*
X46894795Y-87767629D01*
X47064480Y-87862905D01*
X47237957Y-87931023D01*
X47401590Y-87965959D01*
X47462500Y-87969292D01*
X47497667Y-87966308D01*
X47526208Y-87952004D01*
X47554398Y-87918187D01*
X47588515Y-87856662D01*
X47634835Y-87759236D01*
X47651975Y-87721943D01*
X47865564Y-87309306D01*
X48124537Y-86905742D01*
X48431083Y-86507992D01*
X48592239Y-86322104D01*
X48685763Y-86216951D01*
X48748727Y-86142747D01*
X48785191Y-86093264D01*
X48799217Y-86062274D01*
X48794867Y-86043550D01*
X48780692Y-86033117D01*
X48720684Y-85989723D01*
X48640260Y-85915670D01*
X48548856Y-85821406D01*
X48455907Y-85717376D01*
X48370847Y-85614026D01*
X48303112Y-85521805D01*
X48270239Y-85467919D01*
X48160492Y-85209339D01*
X48099286Y-84947111D01*
X48085995Y-84685817D01*
X48119996Y-84430037D01*
X48200665Y-84184352D01*
X48327378Y-83953344D01*
X48499510Y-83741594D01*
X48506387Y-83734550D01*
X48614787Y-83632040D01*
X48702059Y-83569965D01*
X48774955Y-83546296D01*
X48840225Y-83559001D01*
X48904624Y-83606051D01*
X48911454Y-83612745D01*
X48957379Y-83671220D01*
X48971906Y-83730065D01*
X48952889Y-83797141D01*
X48898181Y-83880307D01*
X48810604Y-83982020D01*
X48653515Y-84180914D01*
X48546627Y-84381857D01*
X48489344Y-84587472D01*
X48481068Y-84800383D01*
X48521204Y-85023213D01*
X48552067Y-85119592D01*
X48632866Y-85287496D01*
X48749441Y-85454110D01*
X48888988Y-85604054D01*
X49038703Y-85721949D01*
X49068998Y-85740479D01*
X49144466Y-85784258D01*
X49332183Y-85643299D01*
X49764076Y-85350352D01*
X50224970Y-85097482D01*
X50709243Y-84887592D01*
X50978623Y-84793102D01*
X51192747Y-84724027D01*
X51187123Y-84448363D01*
X51201511Y-84161594D01*
X51257254Y-83904188D01*
X51354752Y-83675450D01*
X51494406Y-83474687D01*
X51676615Y-83301205D01*
X51901781Y-83154310D01*
X51947831Y-83130169D01*
X52057997Y-83084200D01*
X52201395Y-83038309D01*
X52360660Y-82997104D01*
X52518426Y-82965192D01*
X52627120Y-82949939D01*
X52715536Y-82943284D01*
X52770850Y-82948564D01*
X52810001Y-82968964D01*
X52831324Y-82988324D01*
X52874317Y-83063678D01*
X52883749Y-83156627D01*
X52858324Y-83245532D01*
X52847739Y-83262664D01*
X52805233Y-83298884D01*
X52729547Y-83326833D01*
X52638189Y-83345904D01*
X52365894Y-83407631D01*
X52137148Y-83492619D01*
X51949659Y-83602237D01*
X51801135Y-83737854D01*
X51689284Y-83900839D01*
X51680442Y-83917875D01*
X51621481Y-84078373D01*
X51588247Y-84269234D01*
X51583103Y-84475712D01*
X51585249Y-84512105D01*
X51592032Y-84580482D01*
X51606687Y-84610079D01*
X51640423Y-84612808D01*
X51674149Y-84606571D01*
X51947553Y-84561310D01*
X52248536Y-84528690D01*
X52562109Y-84509290D01*
X52873283Y-84503688D01*
X53167068Y-84512462D01*
X53428475Y-84536190D01*
X53444200Y-84538293D01*
X53858307Y-84611996D01*
X54271922Y-84718091D01*
X54668559Y-84851812D01*
X54973187Y-84980422D01*
X55086255Y-85031816D01*
X55162623Y-85062126D01*
X55210615Y-85073792D01*
X55238556Y-85069256D01*
X55248139Y-85061049D01*
X55285235Y-85033225D01*
X55357900Y-84990997D01*
X55454973Y-84939877D01*
X55565290Y-84885378D01*
X55677689Y-84833013D01*
X55781006Y-84788293D01*
X55864079Y-84756731D01*
X55865011Y-84756420D01*
X56006431Y-84716478D01*
X56168025Y-84681921D01*
X56329341Y-84656376D01*
X56469925Y-84643469D01*
X56507134Y-84642600D01*
X56603700Y-84648870D01*
X56666529Y-84670503D01*
X56694753Y-84692753D01*
X56752333Y-84777761D01*
X56762044Y-84865665D01*
X56727873Y-84943051D01*
X56696726Y-84978373D01*
X56657807Y-85004806D01*
X56601578Y-85025367D01*
X56518498Y-85043075D01*
X56399027Y-85060949D01*
X56324621Y-85070643D01*
X56173678Y-85097255D01*
X56014148Y-85137835D01*
X55862307Y-85187301D01*
X55734428Y-85240572D01*
X55672936Y-85274150D01*
X55596948Y-85322262D01*
X55758824Y-85431123D01*
X55859514Y-85501502D01*
X55963018Y-85578065D01*
X56040543Y-85639082D01*
X56160386Y-85738179D01*
X56308510Y-85651366D01*
X56613945Y-85499422D01*
X56928730Y-85396841D01*
X57256601Y-85342496D01*
X57356117Y-85335526D01*
X57563026Y-85334131D01*
X57741959Y-85355032D01*
X57912336Y-85402256D01*
X58093583Y-85479827D01*
X58123332Y-85494542D01*
X58377974Y-85650332D01*
X58606860Y-85847485D01*
X58806889Y-86081896D01*
X58974958Y-86349457D01*
X59107967Y-86646063D01*
X59187473Y-86903200D01*
X59210747Y-87040557D01*
X59222734Y-87211117D01*
X59223801Y-87398637D01*
X59214315Y-87586874D01*
X59194643Y-87759586D01*
X59165153Y-87900529D01*
X59164903Y-87901399D01*
X59053820Y-88204369D01*
X58901870Y-88479967D01*
X58706158Y-88732866D01*
X58554239Y-88887169D01*
X58463278Y-88974002D01*
X58405679Y-89035366D01*
X58375935Y-89078505D01*
X58368539Y-89110660D01*
X58372142Y-89126661D01*
X58384526Y-89170666D01*
X58404149Y-89252993D01*
X58428381Y-89362130D01*
X58454591Y-89486566D01*
X58456311Y-89494961D01*
X58538796Y-90012692D01*
X58571906Y-90519029D01*
X58555496Y-91015106D01*
X58489422Y-91502057D01*
X58373539Y-91981017D01*
X58207703Y-92453121D01*
X58029533Y-92845537D01*
X57792943Y-93261478D01*
X57511808Y-93656850D01*
X57189080Y-94029100D01*
X56827715Y-94375672D01*
X56430665Y-94694012D01*
X56000884Y-94981565D01*
X55541325Y-95235776D01*
X55054942Y-95454091D01*
X54979417Y-95483753D01*
X54696666Y-95588667D01*
X54441142Y-95673655D01*
X54195674Y-95743484D01*
X53943093Y-95802919D01*
X53666230Y-95856726D01*
X53583900Y-95871110D01*
X53398891Y-95896104D01*
X53176772Y-95915402D01*
X52930949Y-95928694D01*
X52674826Y-95935672D01*
X52421807Y-95936025D01*
X52185296Y-95929445D01*
X51978698Y-95915621D01*
X51920200Y-95909514D01*
X51404515Y-95825653D01*
X50900514Y-95696061D01*
X50415359Y-95522843D01*
X50067742Y-95365352D01*
X49659169Y-95140455D01*
X49280376Y-94885972D01*
X48923969Y-94596090D01*
X48582556Y-94264998D01*
X48369965Y-94030473D01*
X48310862Y-93964336D01*
X48273328Y-93931715D01*
X48246735Y-93926831D01*
X48220456Y-93943907D01*
X48216779Y-93947193D01*
X48157669Y-93987383D01*
X48062617Y-94037370D01*
X47944126Y-94091661D01*
X47814699Y-94144761D01*
X47686837Y-94191177D01*
X47600491Y-94218016D01*
X47436583Y-94253868D01*
X47249769Y-94278181D01*
X47057953Y-94289850D01*
X46879040Y-94287771D01*
X46734311Y-94271486D01*
X46455451Y-94197378D01*
X46204123Y-94084490D01*
X45973460Y-93928989D01*
X45756596Y-93727038D01*
X45753554Y-93723787D01*
X45581578Y-93512371D01*
X45456057Y-93293861D01*
X45372659Y-93060158D01*
X45353004Y-92975181D01*
X45322948Y-92704304D01*
X45330630Y-92602158D01*
X45731157Y-92602158D01*
X45732672Y-92811774D01*
X45777327Y-93021547D01*
X45868235Y-93226303D01*
X45879460Y-93245422D01*
X45995192Y-93401686D01*
X46145125Y-93549666D01*
X46316815Y-93680207D01*
X46497816Y-93784153D01*
X46675684Y-93852350D01*
X46718719Y-93862850D01*
X46849176Y-93878945D01*
X47010569Y-93881757D01*
X47185149Y-93872516D01*
X47355169Y-93852449D01*
X47502881Y-93822787D01*
X47564100Y-93804293D01*
X47743763Y-93737500D01*
X47878275Y-93680423D01*
X47966080Y-93633770D01*
X48000474Y-93605891D01*
X48010154Y-93577317D01*
X47998263Y-93531942D01*
X47961435Y-93460357D01*
X47928822Y-93405570D01*
X47869278Y-93303943D01*
X47799906Y-93179237D01*
X47733180Y-93054017D01*
X47715613Y-93019863D01*
X47663400Y-92918783D01*
X47626893Y-92855596D01*
X47599152Y-92822721D01*
X47573235Y-92812579D01*
X47542205Y-92817588D01*
X47532905Y-92820298D01*
X47412737Y-92862048D01*
X47328059Y-92906710D01*
X47280334Y-92945101D01*
X47221456Y-93019990D01*
X47207691Y-93097335D01*
X47237294Y-93189781D01*
X47244565Y-93204199D01*
X47290074Y-93321657D01*
X47292166Y-93415258D01*
X47250889Y-93483812D01*
X47232859Y-93497517D01*
X47160305Y-93523531D01*
X47091879Y-93502073D01*
X47025488Y-93431931D01*
X46977211Y-93349494D01*
X46919576Y-93187172D01*
X46911318Y-93030171D01*
X46951131Y-92883480D01*
X47037705Y-92752088D01*
X47161511Y-92646353D01*
X47230068Y-92603060D01*
X47281608Y-92574382D01*
X47300101Y-92567400D01*
X47335915Y-92559139D01*
X47388571Y-92541136D01*
X47457649Y-92514872D01*
X47383874Y-92436408D01*
X47283619Y-92353554D01*
X47166226Y-92305782D01*
X47019071Y-92288305D01*
X46992571Y-92288000D01*
X46814948Y-92311561D01*
X46658292Y-92379993D01*
X46527675Y-92489917D01*
X46428168Y-92637955D01*
X46410864Y-92675515D01*
X46352730Y-92777336D01*
X46286771Y-92830207D01*
X46214091Y-92833509D01*
X46168140Y-92811717D01*
X46117932Y-92751974D01*
X46104955Y-92669112D01*
X46125329Y-92569849D01*
X46175172Y-92460906D01*
X46250604Y-92349003D01*
X46347744Y-92240859D01*
X46462711Y-92143194D01*
X46591624Y-92062727D01*
X46604487Y-92056205D01*
X46664572Y-92029311D01*
X46723926Y-92011743D01*
X46795642Y-92001592D01*
X46892813Y-91996949D01*
X47018000Y-91995900D01*
X47310100Y-91995900D01*
X47259300Y-91787865D01*
X47234120Y-91688525D01*
X47209473Y-91621939D01*
X47175324Y-91581538D01*
X47121634Y-91560756D01*
X47038370Y-91553023D01*
X46915494Y-91551771D01*
X46898505Y-91551746D01*
X46666971Y-91573846D01*
X46453672Y-91637495D01*
X46261722Y-91737517D01*
X46094233Y-91868740D01*
X45954319Y-92025990D01*
X45845093Y-92204092D01*
X45769668Y-92397872D01*
X45731157Y-92602158D01*
X45330630Y-92602158D01*
X45342872Y-92439386D01*
X45412088Y-92182713D01*
X52367068Y-86590822D02*
X52430614Y-86598064D01*
X52430614Y-86598064D02*
X52475125Y-86611174D01*
X52475125Y-86611174D02*
X52511183Y-86631559D01*
X52511183Y-86631559D02*
X52521556Y-86639023D01*
X52521556Y-86639023D02*
X52579628Y-86707767D01*
X52579628Y-86707767D02*
X52603895Y-86792206D01*
X52603895Y-86792206D02*
X52591999Y-86875076D01*
X52591999Y-86875076D02*
X52560391Y-86923408D01*
X52560391Y-86923408D02*
X52533194Y-86943871D01*
X52533194Y-86943871D02*
X52493010Y-86958836D01*
X52493010Y-86958836D02*
X52430848Y-86969774D01*
X52430848Y-86969774D02*
X52337716Y-86978152D01*
X52337716Y-86978152D02*
X52204623Y-86985441D01*
X52204623Y-86985441D02*
X52171594Y-86986933D01*
X52171594Y-86986933D02*
X51963705Y-87000409D01*
X51963705Y-87000409D02*
X51791442Y-87022795D01*
X51791442Y-87022795D02*
X51639921Y-87057579D01*
X51639921Y-87057579D02*
X51494259Y-87108248D01*
X51494259Y-87108248D02*
X51339572Y-87178289D01*
X51339572Y-87178289D02*
X51325779Y-87185124D01*
X51325779Y-87185124D02*
X51097290Y-87316286D01*
X51097290Y-87316286D02*
X50877997Y-87475005D01*
X50877997Y-87475005D02*
X50674920Y-87654025D01*
X50674920Y-87654025D02*
X50495081Y-87846090D01*
X50495081Y-87846090D02*
X50345502Y-88043944D01*
X50345502Y-88043944D02*
X50233203Y-88240334D01*
X50233203Y-88240334D02*
X50182685Y-88366341D01*
X50182685Y-88366341D02*
X50131316Y-88475199D01*
X50131316Y-88475199D02*
X50063632Y-88536058D01*
X50063632Y-88536058D02*
X49979859Y-88548807D01*
X49979859Y-88548807D02*
X49883594Y-88515185D01*
X49883594Y-88515185D02*
X49815717Y-88454169D01*
X49815717Y-88454169D02*
X49787751Y-88366023D01*
X49787751Y-88366023D02*
X49799860Y-88250117D01*
X49799860Y-88250117D02*
X49852207Y-88105819D01*
X49852207Y-88105819D02*
X49944956Y-87932500D01*
X49944956Y-87932500D02*
X50078271Y-87729527D01*
X50078271Y-87729527D02*
X50092370Y-87709635D01*
X50092370Y-87709635D02*
X50288159Y-87471126D01*
X50288159Y-87471126D02*
X50522738Y-87245627D01*
X50522738Y-87245627D02*
X50784237Y-87042381D01*
X50784237Y-87042381D02*
X51060785Y-86870628D01*
X51060785Y-86870628D02*
X51336000Y-86741367D01*
X51336000Y-86741367D02*
X51530830Y-86672026D01*
X51530830Y-86672026D02*
X51707250Y-86626200D01*
X51707250Y-86626200D02*
X51886370Y-86599872D01*
X51886370Y-86599872D02*
X52089305Y-86589025D01*
X52089305Y-86589025D02*
X52140556Y-86588306D01*
X52140556Y-86588306D02*
X52273909Y-86588039D01*
X52273909Y-86588039D02*
X52367068Y-86590822D01*
X52367068Y-86590822D02*
X52367068Y-86590822D01*
G36*
X52367068Y-86590822D02*
G01*
X52430614Y-86598064D01*
X52475125Y-86611174D01*
X52511183Y-86631559D01*
X52521556Y-86639023D01*
X52579628Y-86707767D01*
X52603895Y-86792206D01*
X52591999Y-86875076D01*
X52560391Y-86923408D01*
X52533194Y-86943871D01*
X52493010Y-86958836D01*
X52430848Y-86969774D01*
X52337716Y-86978152D01*
X52204623Y-86985441D01*
X52171594Y-86986933D01*
X51963705Y-87000409D01*
X51791442Y-87022795D01*
X51639921Y-87057579D01*
X51494259Y-87108248D01*
X51339572Y-87178289D01*
X51325779Y-87185124D01*
X51097290Y-87316286D01*
X50877997Y-87475005D01*
X50674920Y-87654025D01*
X50495081Y-87846090D01*
X50345502Y-88043944D01*
X50233203Y-88240334D01*
X50182685Y-88366341D01*
X50131316Y-88475199D01*
X50063632Y-88536058D01*
X49979859Y-88548807D01*
X49883594Y-88515185D01*
X49815717Y-88454169D01*
X49787751Y-88366023D01*
X49799860Y-88250117D01*
X49852207Y-88105819D01*
X49944956Y-87932500D01*
X50078271Y-87729527D01*
X50092370Y-87709635D01*
X50288159Y-87471126D01*
X50522738Y-87245627D01*
X50784237Y-87042381D01*
X51060785Y-86870628D01*
X51336000Y-86741367D01*
X51530830Y-86672026D01*
X51707250Y-86626200D01*
X51886370Y-86599872D01*
X52089305Y-86589025D01*
X52140556Y-86588306D01*
X52273909Y-86588039D01*
X52367068Y-86590822D01*
G37*
X52367068Y-86590822D02*
X52430614Y-86598064D01*
X52475125Y-86611174D01*
X52511183Y-86631559D01*
X52521556Y-86639023D01*
X52579628Y-86707767D01*
X52603895Y-86792206D01*
X52591999Y-86875076D01*
X52560391Y-86923408D01*
X52533194Y-86943871D01*
X52493010Y-86958836D01*
X52430848Y-86969774D01*
X52337716Y-86978152D01*
X52204623Y-86985441D01*
X52171594Y-86986933D01*
X51963705Y-87000409D01*
X51791442Y-87022795D01*
X51639921Y-87057579D01*
X51494259Y-87108248D01*
X51339572Y-87178289D01*
X51325779Y-87185124D01*
X51097290Y-87316286D01*
X50877997Y-87475005D01*
X50674920Y-87654025D01*
X50495081Y-87846090D01*
X50345502Y-88043944D01*
X50233203Y-88240334D01*
X50182685Y-88366341D01*
X50131316Y-88475199D01*
X50063632Y-88536058D01*
X49979859Y-88548807D01*
X49883594Y-88515185D01*
X49815717Y-88454169D01*
X49787751Y-88366023D01*
X49799860Y-88250117D01*
X49852207Y-88105819D01*
X49944956Y-87932500D01*
X50078271Y-87729527D01*
X50092370Y-87709635D01*
X50288159Y-87471126D01*
X50522738Y-87245627D01*
X50784237Y-87042381D01*
X51060785Y-86870628D01*
X51336000Y-86741367D01*
X51530830Y-86672026D01*
X51707250Y-86626200D01*
X51886370Y-86599872D01*
X52089305Y-86589025D01*
X52140556Y-86588306D01*
X52273909Y-86588039D01*
X52367068Y-86590822D01*
X51872081Y-93695800D02*
X51962021Y-93724035D01*
X51962021Y-93724035D02*
X52051885Y-93761178D01*
X52051885Y-93761178D02*
X52238357Y-93832425D01*
X52238357Y-93832425D02*
X52465752Y-93890300D01*
X52465752Y-93890300D02*
X52736926Y-93935394D01*
X52736926Y-93935394D02*
X53050500Y-93967963D01*
X53050500Y-93967963D02*
X53303653Y-93982166D01*
X53303653Y-93982166D02*
X53521703Y-93980208D01*
X53521703Y-93980208D02*
X53718097Y-93960877D01*
X53718097Y-93960877D02*
X53906284Y-93922959D01*
X53906284Y-93922959D02*
X54066150Y-93876416D01*
X54066150Y-93876416D02*
X54173155Y-93843663D01*
X54173155Y-93843663D02*
X54246034Y-93828031D01*
X54246034Y-93828031D02*
X54297802Y-93827709D01*
X54297802Y-93827709D02*
X54336610Y-93838812D01*
X54336610Y-93838812D02*
X54406460Y-93892733D01*
X54406460Y-93892733D02*
X54445717Y-93974251D01*
X54445717Y-93974251D02*
X54446717Y-94065634D01*
X54446717Y-94065634D02*
X54441958Y-94082624D01*
X54441958Y-94082624D02*
X54394554Y-94149471D01*
X54394554Y-94149471D02*
X54302760Y-94210340D01*
X54302760Y-94210340D02*
X54172757Y-94264051D01*
X54172757Y-94264051D02*
X54010729Y-94309423D01*
X54010729Y-94309423D02*
X53822856Y-94345279D01*
X53822856Y-94345279D02*
X53615323Y-94370438D01*
X53615323Y-94370438D02*
X53394310Y-94383721D01*
X53394310Y-94383721D02*
X53166000Y-94383948D01*
X53166000Y-94383948D02*
X52936576Y-94369940D01*
X52936576Y-94369940D02*
X52936200Y-94369905D01*
X52936200Y-94369905D02*
X52703317Y-94341406D01*
X52703317Y-94341406D02*
X52474262Y-94301305D01*
X52474262Y-94301305D02*
X52257395Y-94251900D01*
X52257395Y-94251900D02*
X52061079Y-94195491D01*
X52061079Y-94195491D02*
X51893673Y-94134377D01*
X51893673Y-94134377D02*
X51763540Y-94070857D01*
X51763540Y-94070857D02*
X51705570Y-94031537D01*
X51705570Y-94031537D02*
X51647483Y-93959041D01*
X51647483Y-93959041D02*
X51627709Y-93876171D01*
X51627709Y-93876171D02*
X51642587Y-93795434D01*
X51642587Y-93795434D02*
X51688459Y-93729337D01*
X51688459Y-93729337D02*
X51761663Y-93690386D01*
X51761663Y-93690386D02*
X51806984Y-93685000D01*
X51806984Y-93685000D02*
X51872081Y-93695800D01*
X51872081Y-93695800D02*
X51872081Y-93695800D01*
G36*
X51872081Y-93695800D02*
G01*
X51962021Y-93724035D01*
X52051885Y-93761178D01*
X52238357Y-93832425D01*
X52465752Y-93890300D01*
X52736926Y-93935394D01*
X53050500Y-93967963D01*
X53303653Y-93982166D01*
X53521703Y-93980208D01*
X53718097Y-93960877D01*
X53906284Y-93922959D01*
X54066150Y-93876416D01*
X54173155Y-93843663D01*
X54246034Y-93828031D01*
X54297802Y-93827709D01*
X54336610Y-93838812D01*
X54406460Y-93892733D01*
X54445717Y-93974251D01*
X54446717Y-94065634D01*
X54441958Y-94082624D01*
X54394554Y-94149471D01*
X54302760Y-94210340D01*
X54172757Y-94264051D01*
X54010729Y-94309423D01*
X53822856Y-94345279D01*
X53615323Y-94370438D01*
X53394310Y-94383721D01*
X53166000Y-94383948D01*
X52936576Y-94369940D01*
X52936200Y-94369905D01*
X52703317Y-94341406D01*
X52474262Y-94301305D01*
X52257395Y-94251900D01*
X52061079Y-94195491D01*
X51893673Y-94134377D01*
X51763540Y-94070857D01*
X51705570Y-94031537D01*
X51647483Y-93959041D01*
X51627709Y-93876171D01*
X51642587Y-93795434D01*
X51688459Y-93729337D01*
X51761663Y-93690386D01*
X51806984Y-93685000D01*
X51872081Y-93695800D01*
G37*
X51872081Y-93695800D02*
X51962021Y-93724035D01*
X52051885Y-93761178D01*
X52238357Y-93832425D01*
X52465752Y-93890300D01*
X52736926Y-93935394D01*
X53050500Y-93967963D01*
X53303653Y-93982166D01*
X53521703Y-93980208D01*
X53718097Y-93960877D01*
X53906284Y-93922959D01*
X54066150Y-93876416D01*
X54173155Y-93843663D01*
X54246034Y-93828031D01*
X54297802Y-93827709D01*
X54336610Y-93838812D01*
X54406460Y-93892733D01*
X54445717Y-93974251D01*
X54446717Y-94065634D01*
X54441958Y-94082624D01*
X54394554Y-94149471D01*
X54302760Y-94210340D01*
X54172757Y-94264051D01*
X54010729Y-94309423D01*
X53822856Y-94345279D01*
X53615323Y-94370438D01*
X53394310Y-94383721D01*
X53166000Y-94383948D01*
X52936576Y-94369940D01*
X52936200Y-94369905D01*
X52703317Y-94341406D01*
X52474262Y-94301305D01*
X52257395Y-94251900D01*
X52061079Y-94195491D01*
X51893673Y-94134377D01*
X51763540Y-94070857D01*
X51705570Y-94031537D01*
X51647483Y-93959041D01*
X51627709Y-93876171D01*
X51642587Y-93795434D01*
X51688459Y-93729337D01*
X51761663Y-93690386D01*
X51806984Y-93685000D01*
X51872081Y-93695800D01*
%TD*%
M02*
