%TF.GenerationSoftware,KiCad,Pcbnew,(6.0.1)*%
%TF.CreationDate,2022-10-25T16:48:48-07:00*%
%TF.ProjectId,DuDad2HP_Panel,44754461-6432-4485-905f-50616e656c2e,rev?*%
%TF.SameCoordinates,Original*%
%TF.FileFunction,Copper,L1,Top*%
%TF.FilePolarity,Positive*%
%FSLAX46Y46*%
G04 Gerber Fmt 4.6, Leading zero omitted, Abs format (unit mm)*
G04 Created by KiCad (PCBNEW (6.0.1)) date 2022-10-25 16:48:48*
%MOMM*%
%LPD*%
G01*
G04 APERTURE LIST*
%TA.AperFunction,ComponentPad*%
%ADD10C,4.500000*%
%TD*%
G04 APERTURE END LIST*
D10*
%TO.P,H4,1,1*%
%TO.N,GND*%
X57500000Y-166250000D03*
%TD*%
%TO.P,H3,1,1*%
%TO.N,GND*%
X57500000Y-43750000D03*
%TD*%
%TA.AperFunction,Conductor*%
%TO.N,GND*%
G36*
X55913443Y-41278002D02*
G01*
X55959936Y-41331658D01*
X55970040Y-41401932D01*
X55940546Y-41466512D01*
X55922287Y-41483762D01*
X55750733Y-41616115D01*
X55742267Y-41627773D01*
X55748871Y-41639661D01*
X57770115Y-43660905D01*
X57804141Y-43723217D01*
X57799076Y-43794032D01*
X57770115Y-43839095D01*
X55750257Y-45858953D01*
X55743142Y-45871982D01*
X55750668Y-45882415D01*
X55896463Y-45999848D01*
X55902648Y-46004244D01*
X56178363Y-46176195D01*
X56185034Y-46179817D01*
X56479414Y-46317402D01*
X56486468Y-46320195D01*
X56795257Y-46421420D01*
X56802570Y-46423339D01*
X57121298Y-46486738D01*
X57128789Y-46487764D01*
X57452823Y-46512413D01*
X57460386Y-46512531D01*
X57785021Y-46498074D01*
X57792562Y-46497282D01*
X58113115Y-46443926D01*
X58120479Y-46442240D01*
X58432315Y-46350757D01*
X58439424Y-46348198D01*
X58738003Y-46219919D01*
X58744770Y-46216515D01*
X59025762Y-46053302D01*
X59032069Y-46049112D01*
X59290083Y-45854331D01*
X59356503Y-45829251D01*
X59425937Y-45844062D01*
X59476342Y-45894061D01*
X59492000Y-45954893D01*
X59492000Y-164048590D01*
X59471998Y-164116711D01*
X59418342Y-164163204D01*
X59348068Y-164173308D01*
X59287994Y-164147540D01*
X59079886Y-163983481D01*
X59073663Y-163979156D01*
X58796140Y-163810088D01*
X58789465Y-163806553D01*
X58493637Y-163672049D01*
X58486567Y-163669335D01*
X58176740Y-163571350D01*
X58169389Y-163569503D01*
X57850024Y-163509446D01*
X57842515Y-163508498D01*
X57518251Y-163487245D01*
X57510686Y-163487205D01*
X57186207Y-163505062D01*
X57178693Y-163505931D01*
X56858713Y-163562641D01*
X56851357Y-163564406D01*
X56540503Y-163659147D01*
X56533409Y-163661786D01*
X56236207Y-163793178D01*
X56229470Y-163796655D01*
X55950196Y-163962805D01*
X55943945Y-163967053D01*
X55750733Y-164116115D01*
X55742267Y-164127773D01*
X55748871Y-164139661D01*
X57770115Y-166160905D01*
X57804141Y-166223217D01*
X57799076Y-166294032D01*
X57770115Y-166339095D01*
X55750257Y-168358953D01*
X55743142Y-168371982D01*
X55750668Y-168382415D01*
X55896463Y-168499848D01*
X55902634Y-168504234D01*
X55910417Y-168509088D01*
X55957633Y-168562109D01*
X55968688Y-168632239D01*
X55940073Y-168697214D01*
X55880873Y-168736404D01*
X55843739Y-168742000D01*
X50634000Y-168742000D01*
X50565879Y-168721998D01*
X50519386Y-168668342D01*
X50508000Y-168616000D01*
X50508000Y-166224858D01*
X54737299Y-166224858D01*
X54753456Y-166549410D01*
X54754287Y-166556939D01*
X54809318Y-166877198D01*
X54811051Y-166884585D01*
X54904156Y-167195909D01*
X54906759Y-167203022D01*
X55036595Y-167500913D01*
X55040037Y-167507669D01*
X55204720Y-167787803D01*
X55208943Y-167794088D01*
X55365792Y-167999608D01*
X55377316Y-168008069D01*
X55389382Y-168001408D01*
X57127978Y-166262812D01*
X57135592Y-166248868D01*
X57135461Y-166247035D01*
X57131210Y-166240420D01*
X55390864Y-164500074D01*
X55377929Y-164493011D01*
X55367367Y-164500671D01*
X55241785Y-164658268D01*
X55237428Y-164664467D01*
X55066913Y-164941094D01*
X55063333Y-164947770D01*
X54927287Y-165242878D01*
X54924537Y-165249929D01*
X54824927Y-165559251D01*
X54823044Y-165566584D01*
X54761316Y-165885632D01*
X54760329Y-165893132D01*
X54737378Y-166217277D01*
X54737299Y-166224858D01*
X50508000Y-166224858D01*
X50508000Y-157107655D01*
X53239858Y-157107655D01*
X53275104Y-157366638D01*
X53276412Y-157371124D01*
X53276412Y-157371126D01*
X53296098Y-157438664D01*
X53348243Y-157617567D01*
X53457668Y-157854928D01*
X53460231Y-157858837D01*
X53598410Y-158069596D01*
X53598414Y-158069601D01*
X53600976Y-158073509D01*
X53775018Y-158268506D01*
X53975970Y-158435637D01*
X53979973Y-158438066D01*
X54195422Y-158568804D01*
X54195426Y-158568806D01*
X54199419Y-158571229D01*
X54440455Y-158672303D01*
X54693783Y-158736641D01*
X54698434Y-158737109D01*
X54698438Y-158737110D01*
X54891308Y-158756531D01*
X54910867Y-158758500D01*
X55066354Y-158758500D01*
X55068679Y-158758327D01*
X55068685Y-158758327D01*
X55256000Y-158744407D01*
X55256004Y-158744406D01*
X55260652Y-158744061D01*
X55265200Y-158743032D01*
X55265206Y-158743031D01*
X55451601Y-158700853D01*
X55515577Y-158686377D01*
X55551769Y-158672303D01*
X55754824Y-158593340D01*
X55754827Y-158593339D01*
X55759177Y-158591647D01*
X55986098Y-158461951D01*
X56191357Y-158300138D01*
X56370443Y-158109763D01*
X56519424Y-157895009D01*
X56635025Y-157660593D01*
X56714707Y-157411665D01*
X56756721Y-157153693D01*
X56760142Y-156892345D01*
X56724896Y-156633362D01*
X56710473Y-156583877D01*
X56653068Y-156386932D01*
X56651757Y-156382433D01*
X56542332Y-156145072D01*
X56509519Y-156095024D01*
X56401590Y-155930404D01*
X56401586Y-155930399D01*
X56399024Y-155926491D01*
X56224982Y-155731494D01*
X56024030Y-155564363D01*
X55976844Y-155535730D01*
X55804578Y-155431196D01*
X55804574Y-155431194D01*
X55800581Y-155428771D01*
X55559545Y-155327697D01*
X55306217Y-155263359D01*
X55301566Y-155262891D01*
X55301562Y-155262890D01*
X55092271Y-155241816D01*
X55089133Y-155241500D01*
X54933646Y-155241500D01*
X54931321Y-155241673D01*
X54931315Y-155241673D01*
X54744000Y-155255593D01*
X54743996Y-155255594D01*
X54739348Y-155255939D01*
X54734800Y-155256968D01*
X54734794Y-155256969D01*
X54548399Y-155299147D01*
X54484423Y-155313623D01*
X54480071Y-155315315D01*
X54480069Y-155315316D01*
X54245176Y-155406660D01*
X54245173Y-155406661D01*
X54240823Y-155408353D01*
X54013902Y-155538049D01*
X53808643Y-155699862D01*
X53629557Y-155890237D01*
X53480576Y-156104991D01*
X53364975Y-156339407D01*
X53285293Y-156588335D01*
X53243279Y-156846307D01*
X53239858Y-157107655D01*
X50508000Y-157107655D01*
X50508000Y-153109652D01*
X52791524Y-153109652D01*
X52793990Y-153118281D01*
X52793991Y-153118286D01*
X52799639Y-153138048D01*
X52803217Y-153154809D01*
X52806130Y-153175152D01*
X52806133Y-153175162D01*
X52807405Y-153184045D01*
X52818021Y-153207395D01*
X52824464Y-153224907D01*
X52831512Y-153249565D01*
X52847274Y-153274548D01*
X52855404Y-153289614D01*
X52867633Y-153316510D01*
X52884374Y-153335939D01*
X52895479Y-153350947D01*
X52909160Y-153372631D01*
X52915888Y-153378573D01*
X52931296Y-153392181D01*
X52943340Y-153404373D01*
X52962619Y-153426747D01*
X52970147Y-153431626D01*
X52970150Y-153431629D01*
X52984139Y-153440696D01*
X52999013Y-153451986D01*
X53018228Y-153468956D01*
X53026354Y-153472771D01*
X53026355Y-153472772D01*
X53032021Y-153475432D01*
X53044966Y-153481510D01*
X53059935Y-153489824D01*
X53084727Y-153505893D01*
X53101650Y-153510954D01*
X53109290Y-153513239D01*
X53126736Y-153519901D01*
X53149948Y-153530799D01*
X53179130Y-153535343D01*
X53195849Y-153539126D01*
X53215536Y-153545014D01*
X53215539Y-153545015D01*
X53224141Y-153547587D01*
X53233116Y-153547642D01*
X53233117Y-153547642D01*
X53239810Y-153547683D01*
X53258556Y-153547797D01*
X53259328Y-153547830D01*
X53260423Y-153548000D01*
X53291298Y-153548000D01*
X53292068Y-153548002D01*
X53365716Y-153548452D01*
X53365717Y-153548452D01*
X53369652Y-153548476D01*
X53370996Y-153548092D01*
X53372341Y-153548000D01*
X56691298Y-153548000D01*
X56692069Y-153548002D01*
X56769652Y-153548476D01*
X56778281Y-153546010D01*
X56778286Y-153546009D01*
X56798048Y-153540361D01*
X56814809Y-153536783D01*
X56835152Y-153533870D01*
X56835162Y-153533867D01*
X56844045Y-153532595D01*
X56867395Y-153521979D01*
X56884907Y-153515536D01*
X56900937Y-153510954D01*
X56909565Y-153508488D01*
X56934548Y-153492726D01*
X56949614Y-153484596D01*
X56976510Y-153472367D01*
X56995939Y-153455626D01*
X57010947Y-153444521D01*
X57025039Y-153435630D01*
X57032631Y-153430840D01*
X57052182Y-153408703D01*
X57064374Y-153396659D01*
X57079949Y-153383239D01*
X57079950Y-153383237D01*
X57086747Y-153377381D01*
X57091626Y-153369853D01*
X57091629Y-153369850D01*
X57100696Y-153355861D01*
X57111986Y-153340987D01*
X57123012Y-153328502D01*
X57128956Y-153321772D01*
X57141510Y-153295034D01*
X57149824Y-153280065D01*
X57165893Y-153255273D01*
X57173239Y-153230709D01*
X57179901Y-153213264D01*
X57186983Y-153198179D01*
X57190799Y-153190052D01*
X57195343Y-153160870D01*
X57199126Y-153144151D01*
X57205014Y-153124464D01*
X57205015Y-153124461D01*
X57207587Y-153115859D01*
X57207797Y-153081444D01*
X57207830Y-153080672D01*
X57208000Y-153079577D01*
X57208000Y-153048702D01*
X57208002Y-153047932D01*
X57208452Y-152974284D01*
X57208452Y-152974283D01*
X57208476Y-152970348D01*
X57208092Y-152969004D01*
X57208000Y-152967659D01*
X57208000Y-144948702D01*
X57208002Y-144947932D01*
X57208421Y-144879322D01*
X57208476Y-144870348D01*
X57206010Y-144861719D01*
X57206009Y-144861714D01*
X57200361Y-144841952D01*
X57196783Y-144825191D01*
X57193870Y-144804848D01*
X57193867Y-144804838D01*
X57192595Y-144795955D01*
X57181979Y-144772605D01*
X57175536Y-144755093D01*
X57170954Y-144739063D01*
X57168488Y-144730435D01*
X57152726Y-144705452D01*
X57144596Y-144690386D01*
X57132367Y-144663490D01*
X57115626Y-144644061D01*
X57104521Y-144629053D01*
X57095630Y-144614961D01*
X57090840Y-144607369D01*
X57068703Y-144587818D01*
X57056659Y-144575626D01*
X57043239Y-144560051D01*
X57043237Y-144560050D01*
X57037381Y-144553253D01*
X57029853Y-144548374D01*
X57029850Y-144548371D01*
X57015861Y-144539304D01*
X57000987Y-144528014D01*
X56988502Y-144516988D01*
X56981772Y-144511044D01*
X56973646Y-144507229D01*
X56973645Y-144507228D01*
X56967979Y-144504568D01*
X56955034Y-144498490D01*
X56940065Y-144490176D01*
X56915273Y-144474107D01*
X56890709Y-144466761D01*
X56873264Y-144460099D01*
X56868827Y-144458016D01*
X56850052Y-144449201D01*
X56820870Y-144444657D01*
X56804151Y-144440874D01*
X56784464Y-144434986D01*
X56784461Y-144434985D01*
X56775859Y-144432413D01*
X56766884Y-144432358D01*
X56766883Y-144432358D01*
X56760190Y-144432317D01*
X56741444Y-144432203D01*
X56740672Y-144432170D01*
X56739577Y-144432000D01*
X56708702Y-144432000D01*
X56707932Y-144431998D01*
X56634284Y-144431548D01*
X56634283Y-144431548D01*
X56630348Y-144431524D01*
X56629004Y-144431908D01*
X56627659Y-144432000D01*
X53308702Y-144432000D01*
X53307932Y-144431998D01*
X53307078Y-144431993D01*
X53230348Y-144431524D01*
X53221719Y-144433990D01*
X53221714Y-144433991D01*
X53201952Y-144439639D01*
X53185191Y-144443217D01*
X53164848Y-144446130D01*
X53164838Y-144446133D01*
X53155955Y-144447405D01*
X53132605Y-144458021D01*
X53115093Y-144464464D01*
X53107057Y-144466761D01*
X53090435Y-144471512D01*
X53065452Y-144487274D01*
X53050386Y-144495404D01*
X53023490Y-144507633D01*
X53004061Y-144524374D01*
X52989053Y-144535479D01*
X52967369Y-144549160D01*
X52961427Y-144555888D01*
X52947819Y-144571296D01*
X52935627Y-144583340D01*
X52913253Y-144602619D01*
X52908374Y-144610147D01*
X52908371Y-144610150D01*
X52899304Y-144624139D01*
X52888014Y-144639013D01*
X52871044Y-144658228D01*
X52858490Y-144684966D01*
X52850176Y-144699935D01*
X52834107Y-144724727D01*
X52831535Y-144733327D01*
X52826761Y-144749290D01*
X52820099Y-144766736D01*
X52809201Y-144789948D01*
X52804658Y-144819128D01*
X52800874Y-144835849D01*
X52794986Y-144855536D01*
X52794985Y-144855539D01*
X52792413Y-144864141D01*
X52792358Y-144873116D01*
X52792358Y-144873117D01*
X52792203Y-144898546D01*
X52792170Y-144899328D01*
X52792000Y-144900423D01*
X52792000Y-144931298D01*
X52791998Y-144932068D01*
X52791524Y-145009652D01*
X52791908Y-145010996D01*
X52792000Y-145012341D01*
X52792000Y-153031298D01*
X52791998Y-153032068D01*
X52791524Y-153109652D01*
X50508000Y-153109652D01*
X50508000Y-141332703D01*
X52890743Y-141332703D01*
X52928268Y-141617734D01*
X53004129Y-141895036D01*
X53116923Y-142159476D01*
X53264561Y-142406161D01*
X53444313Y-142630528D01*
X53652851Y-142828423D01*
X53886317Y-142996186D01*
X53890112Y-142998195D01*
X53890113Y-142998196D01*
X53911869Y-143009715D01*
X54140392Y-143130712D01*
X54410373Y-143229511D01*
X54691264Y-143290755D01*
X54719841Y-143293004D01*
X54914282Y-143308307D01*
X54914291Y-143308307D01*
X54916739Y-143308500D01*
X55072271Y-143308500D01*
X55074407Y-143308354D01*
X55074418Y-143308354D01*
X55282548Y-143294165D01*
X55282554Y-143294164D01*
X55286825Y-143293873D01*
X55291020Y-143293004D01*
X55291022Y-143293004D01*
X55427583Y-143264724D01*
X55568342Y-143235574D01*
X55839343Y-143139607D01*
X56094812Y-143007750D01*
X56098313Y-143005289D01*
X56098317Y-143005287D01*
X56212418Y-142925095D01*
X56330023Y-142842441D01*
X56540622Y-142646740D01*
X56722713Y-142424268D01*
X56872927Y-142179142D01*
X56988483Y-141915898D01*
X57067244Y-141639406D01*
X57107751Y-141354784D01*
X57107845Y-141336951D01*
X57109235Y-141071583D01*
X57109235Y-141071576D01*
X57109257Y-141067297D01*
X57071732Y-140782266D01*
X56995871Y-140504964D01*
X56883077Y-140240524D01*
X56735439Y-139993839D01*
X56555687Y-139769472D01*
X56347149Y-139571577D01*
X56113683Y-139403814D01*
X56091843Y-139392250D01*
X56068654Y-139379972D01*
X55859608Y-139269288D01*
X55589627Y-139170489D01*
X55308736Y-139109245D01*
X55277685Y-139106801D01*
X55085718Y-139091693D01*
X55085709Y-139091693D01*
X55083261Y-139091500D01*
X54927729Y-139091500D01*
X54925593Y-139091646D01*
X54925582Y-139091646D01*
X54717452Y-139105835D01*
X54717446Y-139105836D01*
X54713175Y-139106127D01*
X54708980Y-139106996D01*
X54708978Y-139106996D01*
X54572417Y-139135276D01*
X54431658Y-139164426D01*
X54160657Y-139260393D01*
X53905188Y-139392250D01*
X53901687Y-139394711D01*
X53901683Y-139394713D01*
X53891594Y-139401804D01*
X53669977Y-139557559D01*
X53459378Y-139753260D01*
X53277287Y-139975732D01*
X53127073Y-140220858D01*
X53011517Y-140484102D01*
X52932756Y-140760594D01*
X52892249Y-141045216D01*
X52892227Y-141049505D01*
X52892226Y-141049512D01*
X52890765Y-141328417D01*
X52890743Y-141332703D01*
X50508000Y-141332703D01*
X50508000Y-105132703D01*
X52890743Y-105132703D01*
X52928268Y-105417734D01*
X53004129Y-105695036D01*
X53116923Y-105959476D01*
X53264561Y-106206161D01*
X53444313Y-106430528D01*
X53652851Y-106628423D01*
X53886317Y-106796186D01*
X53890112Y-106798195D01*
X53890113Y-106798196D01*
X53911869Y-106809715D01*
X54140392Y-106930712D01*
X54410373Y-107029511D01*
X54691264Y-107090755D01*
X54719841Y-107093004D01*
X54914282Y-107108307D01*
X54914291Y-107108307D01*
X54916739Y-107108500D01*
X55072271Y-107108500D01*
X55074407Y-107108354D01*
X55074418Y-107108354D01*
X55282548Y-107094165D01*
X55282554Y-107094164D01*
X55286825Y-107093873D01*
X55291020Y-107093004D01*
X55291022Y-107093004D01*
X55427583Y-107064724D01*
X55568342Y-107035574D01*
X55839343Y-106939607D01*
X56094812Y-106807750D01*
X56098313Y-106805289D01*
X56098317Y-106805287D01*
X56212417Y-106725096D01*
X56330023Y-106642441D01*
X56540622Y-106446740D01*
X56722713Y-106224268D01*
X56872927Y-105979142D01*
X56988483Y-105715898D01*
X57067244Y-105439406D01*
X57107751Y-105154784D01*
X57107845Y-105136951D01*
X57109235Y-104871583D01*
X57109235Y-104871576D01*
X57109257Y-104867297D01*
X57071732Y-104582266D01*
X56995871Y-104304964D01*
X56883077Y-104040524D01*
X56735439Y-103793839D01*
X56555687Y-103569472D01*
X56347149Y-103371577D01*
X56113683Y-103203814D01*
X56091843Y-103192250D01*
X56068654Y-103179972D01*
X55859608Y-103069288D01*
X55589627Y-102970489D01*
X55308736Y-102909245D01*
X55277685Y-102906801D01*
X55085718Y-102891693D01*
X55085709Y-102891693D01*
X55083261Y-102891500D01*
X54927729Y-102891500D01*
X54925593Y-102891646D01*
X54925582Y-102891646D01*
X54717452Y-102905835D01*
X54717446Y-102905836D01*
X54713175Y-102906127D01*
X54708980Y-102906996D01*
X54708978Y-102906996D01*
X54572417Y-102935276D01*
X54431658Y-102964426D01*
X54160657Y-103060393D01*
X53905188Y-103192250D01*
X53901687Y-103194711D01*
X53901683Y-103194713D01*
X53891594Y-103201804D01*
X53669977Y-103357559D01*
X53459378Y-103553260D01*
X53277287Y-103775732D01*
X53127073Y-104020858D01*
X53011517Y-104284102D01*
X52932756Y-104560594D01*
X52892249Y-104845216D01*
X52892227Y-104849505D01*
X52892226Y-104849512D01*
X52890765Y-105128417D01*
X52890743Y-105132703D01*
X50508000Y-105132703D01*
X50508000Y-72632703D01*
X52890743Y-72632703D01*
X52928268Y-72917734D01*
X53004129Y-73195036D01*
X53116923Y-73459476D01*
X53264561Y-73706161D01*
X53444313Y-73930528D01*
X53652851Y-74128423D01*
X53886317Y-74296186D01*
X53890112Y-74298195D01*
X53890113Y-74298196D01*
X53911869Y-74309715D01*
X54140392Y-74430712D01*
X54410373Y-74529511D01*
X54691264Y-74590755D01*
X54719841Y-74593004D01*
X54914282Y-74608307D01*
X54914291Y-74608307D01*
X54916739Y-74608500D01*
X55072271Y-74608500D01*
X55074407Y-74608354D01*
X55074418Y-74608354D01*
X55282548Y-74594165D01*
X55282554Y-74594164D01*
X55286825Y-74593873D01*
X55291020Y-74593004D01*
X55291022Y-74593004D01*
X55427584Y-74564723D01*
X55568342Y-74535574D01*
X55839343Y-74439607D01*
X56094812Y-74307750D01*
X56098313Y-74305289D01*
X56098317Y-74305287D01*
X56212417Y-74225096D01*
X56330023Y-74142441D01*
X56540622Y-73946740D01*
X56722713Y-73724268D01*
X56872927Y-73479142D01*
X56988483Y-73215898D01*
X57067244Y-72939406D01*
X57107751Y-72654784D01*
X57107845Y-72636951D01*
X57109235Y-72371583D01*
X57109235Y-72371576D01*
X57109257Y-72367297D01*
X57071732Y-72082266D01*
X56995871Y-71804964D01*
X56883077Y-71540524D01*
X56735439Y-71293839D01*
X56555687Y-71069472D01*
X56347149Y-70871577D01*
X56113683Y-70703814D01*
X56091843Y-70692250D01*
X56068654Y-70679972D01*
X55859608Y-70569288D01*
X55589627Y-70470489D01*
X55308736Y-70409245D01*
X55277685Y-70406801D01*
X55085718Y-70391693D01*
X55085709Y-70391693D01*
X55083261Y-70391500D01*
X54927729Y-70391500D01*
X54925593Y-70391646D01*
X54925582Y-70391646D01*
X54717452Y-70405835D01*
X54717446Y-70405836D01*
X54713175Y-70406127D01*
X54708980Y-70406996D01*
X54708978Y-70406996D01*
X54572417Y-70435276D01*
X54431658Y-70464426D01*
X54160657Y-70560393D01*
X53905188Y-70692250D01*
X53901687Y-70694711D01*
X53901683Y-70694713D01*
X53891594Y-70701804D01*
X53669977Y-70857559D01*
X53459378Y-71053260D01*
X53277287Y-71275732D01*
X53127073Y-71520858D01*
X53011517Y-71784102D01*
X52932756Y-72060594D01*
X52892249Y-72345216D01*
X52892227Y-72349505D01*
X52892226Y-72349512D01*
X52890765Y-72628417D01*
X52890743Y-72632703D01*
X50508000Y-72632703D01*
X50508000Y-63625000D01*
X52636439Y-63625000D01*
X52656660Y-63933507D01*
X52716975Y-64236735D01*
X52816354Y-64529496D01*
X52818177Y-64533192D01*
X52818180Y-64533200D01*
X52928721Y-64757352D01*
X52953096Y-64806780D01*
X52955390Y-64810213D01*
X52955391Y-64810214D01*
X53124861Y-65063845D01*
X53127575Y-65066939D01*
X53127579Y-65066945D01*
X53326001Y-65293201D01*
X53328710Y-65296290D01*
X53331799Y-65298999D01*
X53558055Y-65497421D01*
X53558061Y-65497425D01*
X53561155Y-65500139D01*
X53564581Y-65502428D01*
X53564586Y-65502432D01*
X53814785Y-65669609D01*
X53818220Y-65671904D01*
X53821923Y-65673730D01*
X54091800Y-65806820D01*
X54091808Y-65806823D01*
X54095504Y-65808646D01*
X54099419Y-65809975D01*
X54384358Y-65906699D01*
X54384361Y-65906700D01*
X54388265Y-65908025D01*
X54614961Y-65953117D01*
X54687450Y-65967536D01*
X54687453Y-65967536D01*
X54691493Y-65968340D01*
X54695604Y-65968609D01*
X54695608Y-65968610D01*
X54920737Y-65983366D01*
X54920746Y-65983366D01*
X54922786Y-65983500D01*
X55077214Y-65983500D01*
X55079254Y-65983366D01*
X55079263Y-65983366D01*
X55304392Y-65968610D01*
X55304396Y-65968609D01*
X55308507Y-65968340D01*
X55312547Y-65967536D01*
X55312550Y-65967536D01*
X55385039Y-65953117D01*
X55611735Y-65908025D01*
X55615639Y-65906700D01*
X55615642Y-65906699D01*
X55900581Y-65809975D01*
X55904496Y-65808646D01*
X55908192Y-65806823D01*
X55908200Y-65806820D01*
X56178077Y-65673730D01*
X56181780Y-65671904D01*
X56185215Y-65669609D01*
X56435414Y-65502432D01*
X56435419Y-65502428D01*
X56438845Y-65500139D01*
X56441939Y-65497425D01*
X56441945Y-65497421D01*
X56668201Y-65298999D01*
X56671290Y-65296290D01*
X56673999Y-65293201D01*
X56872421Y-65066945D01*
X56872425Y-65066939D01*
X56875139Y-65063845D01*
X57046904Y-64806781D01*
X57183646Y-64529496D01*
X57283025Y-64236735D01*
X57343340Y-63933507D01*
X57363561Y-63625000D01*
X57343340Y-63316493D01*
X57283025Y-63013265D01*
X57183646Y-62720504D01*
X57181822Y-62716806D01*
X57181820Y-62716800D01*
X57048730Y-62446923D01*
X57046904Y-62443220D01*
X57044610Y-62439787D01*
X57044609Y-62439785D01*
X56877432Y-62189586D01*
X56877428Y-62189581D01*
X56875139Y-62186155D01*
X56872425Y-62183061D01*
X56872421Y-62183055D01*
X56673999Y-61956799D01*
X56671290Y-61953710D01*
X56668201Y-61951001D01*
X56441945Y-61752579D01*
X56441939Y-61752575D01*
X56438845Y-61749861D01*
X56435419Y-61747572D01*
X56435414Y-61747568D01*
X56185215Y-61580391D01*
X56185213Y-61580390D01*
X56181780Y-61578096D01*
X56132352Y-61553721D01*
X55908200Y-61443180D01*
X55908192Y-61443177D01*
X55904496Y-61441354D01*
X55900581Y-61440025D01*
X55615642Y-61343301D01*
X55615639Y-61343300D01*
X55611735Y-61341975D01*
X55385039Y-61296883D01*
X55312550Y-61282464D01*
X55312547Y-61282464D01*
X55308507Y-61281660D01*
X55304396Y-61281391D01*
X55304392Y-61281390D01*
X55079263Y-61266634D01*
X55079254Y-61266634D01*
X55077214Y-61266500D01*
X54922786Y-61266500D01*
X54920746Y-61266634D01*
X54920737Y-61266634D01*
X54695608Y-61281390D01*
X54695604Y-61281391D01*
X54691493Y-61281660D01*
X54687453Y-61282464D01*
X54687450Y-61282464D01*
X54614961Y-61296883D01*
X54388265Y-61341975D01*
X54384361Y-61343300D01*
X54384358Y-61343301D01*
X54099419Y-61440025D01*
X54095504Y-61441354D01*
X54091808Y-61443177D01*
X54091800Y-61443180D01*
X53867648Y-61553721D01*
X53818220Y-61578096D01*
X53814787Y-61580390D01*
X53814785Y-61580391D01*
X53564586Y-61747568D01*
X53564581Y-61747572D01*
X53561155Y-61749861D01*
X53558061Y-61752575D01*
X53558055Y-61752579D01*
X53331799Y-61951001D01*
X53328710Y-61953710D01*
X53326001Y-61956799D01*
X53127579Y-62183055D01*
X53127575Y-62183061D01*
X53124861Y-62186155D01*
X52953096Y-62443219D01*
X52816354Y-62720504D01*
X52716975Y-63013265D01*
X52656660Y-63316493D01*
X52636439Y-63625000D01*
X50508000Y-63625000D01*
X50508000Y-54107655D01*
X53239858Y-54107655D01*
X53275104Y-54366638D01*
X53276412Y-54371124D01*
X53276412Y-54371126D01*
X53296098Y-54438664D01*
X53348243Y-54617567D01*
X53457668Y-54854928D01*
X53460231Y-54858837D01*
X53598410Y-55069596D01*
X53598414Y-55069601D01*
X53600976Y-55073509D01*
X53775018Y-55268506D01*
X53975970Y-55435637D01*
X53979973Y-55438066D01*
X54195422Y-55568804D01*
X54195426Y-55568806D01*
X54199419Y-55571229D01*
X54440455Y-55672303D01*
X54693783Y-55736641D01*
X54698434Y-55737109D01*
X54698438Y-55737110D01*
X54891308Y-55756531D01*
X54910867Y-55758500D01*
X55066354Y-55758500D01*
X55068679Y-55758327D01*
X55068685Y-55758327D01*
X55256000Y-55744407D01*
X55256004Y-55744406D01*
X55260652Y-55744061D01*
X55265200Y-55743032D01*
X55265206Y-55743031D01*
X55451601Y-55700853D01*
X55515577Y-55686377D01*
X55551769Y-55672303D01*
X55754824Y-55593340D01*
X55754827Y-55593339D01*
X55759177Y-55591647D01*
X55986098Y-55461951D01*
X56191357Y-55300138D01*
X56370443Y-55109763D01*
X56519424Y-54895009D01*
X56635025Y-54660593D01*
X56714707Y-54411665D01*
X56756721Y-54153693D01*
X56760142Y-53892345D01*
X56724896Y-53633362D01*
X56710473Y-53583877D01*
X56653068Y-53386932D01*
X56651757Y-53382433D01*
X56542332Y-53145072D01*
X56509519Y-53095024D01*
X56401590Y-52930404D01*
X56401586Y-52930399D01*
X56399024Y-52926491D01*
X56224982Y-52731494D01*
X56024030Y-52564363D01*
X55976844Y-52535730D01*
X55804578Y-52431196D01*
X55804574Y-52431194D01*
X55800581Y-52428771D01*
X55559545Y-52327697D01*
X55306217Y-52263359D01*
X55301566Y-52262891D01*
X55301562Y-52262890D01*
X55092271Y-52241816D01*
X55089133Y-52241500D01*
X54933646Y-52241500D01*
X54931321Y-52241673D01*
X54931315Y-52241673D01*
X54744000Y-52255593D01*
X54743996Y-52255594D01*
X54739348Y-52255939D01*
X54734800Y-52256968D01*
X54734794Y-52256969D01*
X54548399Y-52299147D01*
X54484423Y-52313623D01*
X54480071Y-52315315D01*
X54480069Y-52315316D01*
X54245176Y-52406660D01*
X54245173Y-52406661D01*
X54240823Y-52408353D01*
X54013902Y-52538049D01*
X53808643Y-52699862D01*
X53629557Y-52890237D01*
X53480576Y-53104991D01*
X53364975Y-53339407D01*
X53285293Y-53588335D01*
X53243279Y-53846307D01*
X53239858Y-54107655D01*
X50508000Y-54107655D01*
X50508000Y-43724858D01*
X54737299Y-43724858D01*
X54753456Y-44049410D01*
X54754287Y-44056939D01*
X54809318Y-44377198D01*
X54811051Y-44384585D01*
X54904156Y-44695909D01*
X54906759Y-44703022D01*
X55036595Y-45000913D01*
X55040037Y-45007669D01*
X55204720Y-45287803D01*
X55208943Y-45294088D01*
X55365792Y-45499608D01*
X55377316Y-45508069D01*
X55389382Y-45501408D01*
X57127978Y-43762812D01*
X57135592Y-43748868D01*
X57135461Y-43747035D01*
X57131210Y-43740420D01*
X55390864Y-42000074D01*
X55377929Y-41993011D01*
X55367367Y-42000671D01*
X55241785Y-42158268D01*
X55237428Y-42164467D01*
X55066913Y-42441094D01*
X55063333Y-42447770D01*
X54927287Y-42742878D01*
X54924537Y-42749929D01*
X54824927Y-43059251D01*
X54823044Y-43066584D01*
X54761316Y-43385632D01*
X54760329Y-43393132D01*
X54737378Y-43717277D01*
X54737299Y-43724858D01*
X50508000Y-43724858D01*
X50508000Y-41384000D01*
X50528002Y-41315879D01*
X50581658Y-41269386D01*
X50634000Y-41258000D01*
X55845322Y-41258000D01*
X55913443Y-41278002D01*
G37*
%TD.AperFunction*%
%TD*%
M02*
