  0
SECTION
  2
HEADER
  9
$ANGBASE
  50
0.0
  9
$ANGDIR
  70
1
  9
$MEASUREMENT
  70
0
  0
ENDSEC
  0
SECTION
  2
TABLES
  0
TABLE
  2
LTYPE
  70
4
  0
LTYPE
  5
40F
  2
CONTINUOUS
  70
0
  3
Solid line
  72
65
  73
0
  40
0.0
  0
LTYPE
  5
410
  2
DASHDOT
 70
0
  3
Dash Dot ____ _ ____ _
 72
65
 73
4
 40
2.0
 49
1.25
 49
-0.25
 49
0.25
 49
-0.25
  0
LTYPE
  5
411
  2
DASHED
 70
0
  3
Dashed __ __ __ __ __
 72
65
 73
2
 40
0.75
 49
0.5
 49
-0.25
  0
LTYPE
  5
43B
  2
DOTTED
 70
0
  3
Dotted .  .  .  .
 72
65
 73
2
 40
0.2
 49
0.0
 49
-0.2
  0
ENDTAB
  0
TABLE
  2
STYLE
  70
4
  0
STYLE
  2
KICAD
  70
0
  40
0
  41
1
  42
1
  50
0
  71
0
  3
isocp.shx
  0
STYLE
  2
KICADB
  70
0
  40
0
  41
1
  42
1
  50
0
  71
0
  3
isocp.shx
  0
STYLE
  2
KICADI
  70
0
  40
0
  41
1
  42
1
  50
15
  71
0
  3
isocp.shx
  0
STYLE
  2
KICADBI
  70
0
  40
0
  41
1
  42
1
  50
15
  71
0
  3
isocp.shx
  0
ENDTAB
  0
TABLE
  2
LAYER
  70
1
  0
LAYER
  2
BLACK
  70
0
  62
7
  6
CONTINUOUS
  0
ENDTAB
  0
ENDSEC
  0
SECTION
  2
ENTITIES
0
LINE
8
BLACK
6
CONTINUOUS
10
4.54336
20
-1.57382
11
4.5435
21
-1.57383
0
LINE
8
BLACK
6
CONTINUOUS
10
4.5435
20
-1.57383
11
4.54369
21
-1.57389
0
LINE
8
BLACK
6
CONTINUOUS
10
4.54369
20
-1.57389
11
4.54386
21
-1.57398
0
LINE
8
BLACK
6
CONTINUOUS
10
4.54386
20
-1.57398
11
4.54401
21
-1.5741
0
LINE
8
BLACK
6
CONTINUOUS
10
4.54401
20
-1.5741
11
4.54413
21
-1.57425
0
LINE
8
BLACK
6
CONTINUOUS
10
4.54413
20
-1.57425
11
4.54422
21
-1.57442
0
LINE
8
BLACK
6
CONTINUOUS
10
4.54422
20
-1.57442
11
4.54428
21
-1.57461
0
LINE
8
BLACK
6
CONTINUOUS
10
4.54428
20
-1.57461
11
4.5443
21
-1.5748
0
LINE
8
BLACK
6
CONTINUOUS
10
4.5443
20
-1.5748
11
4.54429
21
-1.57485
0
LINE
8
BLACK
6
CONTINUOUS
10
4.54429
20
-1.57485
11
4.54429
21
-6.62987
0
LINE
8
BLACK
6
CONTINUOUS
10
4.54429
20
-6.62987
11
4.5443
21
-6.62992
0
LINE
8
BLACK
6
CONTINUOUS
10
4.5443
20
-6.62992
11
4.54428
21
-6.63011
0
LINE
8
BLACK
6
CONTINUOUS
10
4.54428
20
-6.63011
11
4.54422
21
-6.6303
0
LINE
8
BLACK
6
CONTINUOUS
10
4.54422
20
-6.6303
11
4.54413
21
-6.63047
0
LINE
8
BLACK
6
CONTINUOUS
10
4.54413
20
-6.63047
11
4.54401
21
-6.63062
0
LINE
8
BLACK
6
CONTINUOUS
10
4.54401
20
-6.63062
11
4.54386
21
-6.63074
0
LINE
8
BLACK
6
CONTINUOUS
10
4.54386
20
-6.63074
11
4.54369
21
-6.63083
0
LINE
8
BLACK
6
CONTINUOUS
10
4.54369
20
-6.63083
11
4.5435
21
-6.63089
0
LINE
8
BLACK
6
CONTINUOUS
10
4.5435
20
-6.63089
11
4.54336
21
-6.63091
0
LINE
8
BLACK
6
CONTINUOUS
10
4.54336
20
-6.63091
11
4.54336
21
-6.63091
0
LINE
8
BLACK
6
CONTINUOUS
10
4.54336
20
-6.63091
11
4.54331
21
-6.63091
0
LINE
8
BLACK
6
CONTINUOUS
10
4.54331
20
-6.63091
11
4.54326
21
-6.63091
0
LINE
8
BLACK
6
CONTINUOUS
10
4.54326
20
-6.63091
11
2.1654
21
-6.63091
0
LINE
8
BLACK
6
CONTINUOUS
10
2.1654
20
-6.63091
11
2.16535
21
-6.63091
0
LINE
8
BLACK
6
CONTINUOUS
10
2.16535
20
-6.63091
11
2.16531
21
-6.63091
0
LINE
8
BLACK
6
CONTINUOUS
10
2.16531
20
-6.63091
11
2.16531
21
-6.63091
0
LINE
8
BLACK
6
CONTINUOUS
10
2.16531
20
-6.63091
11
2.16516
21
-6.63089
0
LINE
8
BLACK
6
CONTINUOUS
10
2.16516
20
-6.63089
11
2.16498
21
-6.63083
0
LINE
8
BLACK
6
CONTINUOUS
10
2.16498
20
-6.63083
11
2.1648
21
-6.63074
0
LINE
8
BLACK
6
CONTINUOUS
10
2.1648
20
-6.63074
11
2.16465
21
-6.63062
0
LINE
8
BLACK
6
CONTINUOUS
10
2.16465
20
-6.63062
11
2.16453
21
-6.63047
0
LINE
8
BLACK
6
CONTINUOUS
10
2.16453
20
-6.63047
11
2.16444
21
-6.6303
0
LINE
8
BLACK
6
CONTINUOUS
10
2.16444
20
-6.6303
11
2.16438
21
-6.63011
0
LINE
8
BLACK
6
CONTINUOUS
10
2.16438
20
-6.63011
11
2.16437
21
-6.62992
0
LINE
8
BLACK
6
CONTINUOUS
10
2.16437
20
-6.62992
11
2.16437
21
-6.62987
0
LINE
8
BLACK
6
CONTINUOUS
10
2.16437
20
-6.62987
11
2.16437
21
-1.57485
0
LINE
8
BLACK
6
CONTINUOUS
10
2.16437
20
-1.57485
11
2.16437
21
-1.5748
0
LINE
8
BLACK
6
CONTINUOUS
10
2.16437
20
-1.5748
11
2.16438
21
-1.57461
0
LINE
8
BLACK
6
CONTINUOUS
10
2.16438
20
-1.57461
11
2.16444
21
-1.57442
0
LINE
8
BLACK
6
CONTINUOUS
10
2.16444
20
-1.57442
11
2.16453
21
-1.57425
0
LINE
8
BLACK
6
CONTINUOUS
10
2.16453
20
-1.57425
11
2.16465
21
-1.5741
0
LINE
8
BLACK
6
CONTINUOUS
10
2.16465
20
-1.5741
11
2.1648
21
-1.57398
0
LINE
8
BLACK
6
CONTINUOUS
10
2.1648
20
-1.57398
11
2.16498
21
-1.57389
0
LINE
8
BLACK
6
CONTINUOUS
10
2.16498
20
-1.57389
11
2.16516
21
-1.57383
0
LINE
8
BLACK
6
CONTINUOUS
10
2.16516
20
-1.57383
11
2.16531
21
-1.57382
0
LINE
8
BLACK
6
CONTINUOUS
10
2.16531
20
-1.57382
11
2.16535
21
-1.57381
0
LINE
8
BLACK
6
CONTINUOUS
10
2.16535
20
-1.57381
11
2.1654
21
-1.57382
0
LINE
8
BLACK
6
CONTINUOUS
10
2.1654
20
-1.57382
11
4.54326
21
-1.57382
0
LINE
8
BLACK
6
CONTINUOUS
10
4.54326
20
-1.57382
11
4.54331
21
-1.57381
0
LINE
8
BLACK
6
CONTINUOUS
10
4.54331
20
-1.57381
11
4.54336
21
-1.57382
0
LINE
8
BLACK
6
CONTINUOUS
10
2.16634
20
-1.57579
11
2.16634
21
-6.62894
0
LINE
8
BLACK
6
CONTINUOUS
10
2.16634
20
-6.62894
11
4.54232
21
-6.62894
0
LINE
8
BLACK
6
CONTINUOUS
10
4.54232
20
-6.62894
11
4.54232
21
-1.57579
0
LINE
8
BLACK
6
CONTINUOUS
10
4.54232
20
-1.57579
11
2.16634
21
-1.57579
0
LINE
8
BLACK
6
CONTINUOUS
10
3.86619
20
-2.5187
11
3.86633
21
-2.51872
0
LINE
8
BLACK
6
CONTINUOUS
10
3.86633
20
-2.51872
11
3.86652
21
-2.51877
0
LINE
8
BLACK
6
CONTINUOUS
10
3.86652
20
-2.51877
11
3.86669
21
-2.51886
0
LINE
8
BLACK
6
CONTINUOUS
10
3.86669
20
-2.51886
11
3.86684
21
-2.51899
0
LINE
8
BLACK
6
CONTINUOUS
10
3.86684
20
-2.51899
11
3.86696
21
-2.51914
0
LINE
8
BLACK
6
CONTINUOUS
10
3.86696
20
-2.51914
11
3.86706
21
-2.51931
0
LINE
8
BLACK
6
CONTINUOUS
10
3.86706
20
-2.51931
11
3.86711
21
-2.51949
0
LINE
8
BLACK
6
CONTINUOUS
10
3.86711
20
-2.51949
11
3.86713
21
-2.51969
0
LINE
8
BLACK
6
CONTINUOUS
10
3.86713
20
-2.51969
11
3.86713
21
-2.51973
0
LINE
8
BLACK
6
CONTINUOUS
10
3.86713
20
-2.51973
11
3.86713
21
-3.11019
0
LINE
8
BLACK
6
CONTINUOUS
10
3.86713
20
-3.11019
11
3.86713
21
-3.11024
0
LINE
8
BLACK
6
CONTINUOUS
10
3.86713
20
-3.11024
11
3.86711
21
-3.11043
0
LINE
8
BLACK
6
CONTINUOUS
10
3.86711
20
-3.11043
11
3.86706
21
-3.11061
0
LINE
8
BLACK
6
CONTINUOUS
10
3.86706
20
-3.11061
11
3.86696
21
-3.11079
0
LINE
8
BLACK
6
CONTINUOUS
10
3.86696
20
-3.11079
11
3.86684
21
-3.11094
0
LINE
8
BLACK
6
CONTINUOUS
10
3.86684
20
-3.11094
11
3.86669
21
-3.11106
0
LINE
8
BLACK
6
CONTINUOUS
10
3.86669
20
-3.11106
11
3.86652
21
-3.11115
0
LINE
8
BLACK
6
CONTINUOUS
10
3.86652
20
-3.11115
11
3.86633
21
-3.11121
0
LINE
8
BLACK
6
CONTINUOUS
10
3.86633
20
-3.11121
11
3.86619
21
-3.11122
0
LINE
8
BLACK
6
CONTINUOUS
10
3.86619
20
-3.11122
11
3.86619
21
-3.11122
0
LINE
8
BLACK
6
CONTINUOUS
10
3.86619
20
-3.11122
11
3.86614
21
-3.11123
0
LINE
8
BLACK
6
CONTINUOUS
10
3.86614
20
-3.11123
11
3.86609
21
-3.11122
0
LINE
8
BLACK
6
CONTINUOUS
10
3.86609
20
-3.11122
11
2.84257
21
-3.11122
0
LINE
8
BLACK
6
CONTINUOUS
10
2.84257
20
-3.11122
11
2.84252
21
-3.11123
0
LINE
8
BLACK
6
CONTINUOUS
10
2.84252
20
-3.11123
11
2.84247
21
-3.11122
0
LINE
8
BLACK
6
CONTINUOUS
10
2.84247
20
-3.11122
11
2.84247
21
-3.11122
0
LINE
8
BLACK
6
CONTINUOUS
10
2.84247
20
-3.11122
11
2.84233
21
-3.11121
0
LINE
8
BLACK
6
CONTINUOUS
10
2.84233
20
-3.11121
11
2.84214
21
-3.11115
0
LINE
8
BLACK
6
CONTINUOUS
10
2.84214
20
-3.11115
11
2.84197
21
-3.11106
0
LINE
8
BLACK
6
CONTINUOUS
10
2.84197
20
-3.11106
11
2.84182
21
-3.11094
0
LINE
8
BLACK
6
CONTINUOUS
10
2.84182
20
-3.11094
11
2.8417
21
-3.11079
0
LINE
8
BLACK
6
CONTINUOUS
10
2.8417
20
-3.11079
11
2.84161
21
-3.11061
0
LINE
8
BLACK
6
CONTINUOUS
10
2.84161
20
-3.11061
11
2.84155
21
-3.11043
0
LINE
8
BLACK
6
CONTINUOUS
10
2.84155
20
-3.11043
11
2.84153
21
-3.11024
0
LINE
8
BLACK
6
CONTINUOUS
10
2.84153
20
-3.11024
11
2.84154
21
-3.11019
0
LINE
8
BLACK
6
CONTINUOUS
10
2.84154
20
-3.11019
11
2.84154
21
-2.51973
0
LINE
8
BLACK
6
CONTINUOUS
10
2.84154
20
-2.51973
11
2.84153
21
-2.51969
0
LINE
8
BLACK
6
CONTINUOUS
10
2.84153
20
-2.51969
11
2.84155
21
-2.51949
0
LINE
8
BLACK
6
CONTINUOUS
10
2.84155
20
-2.51949
11
2.84161
21
-2.51931
0
LINE
8
BLACK
6
CONTINUOUS
10
2.84161
20
-2.51931
11
2.8417
21
-2.51914
0
LINE
8
BLACK
6
CONTINUOUS
10
2.8417
20
-2.51914
11
2.84182
21
-2.51899
0
LINE
8
BLACK
6
CONTINUOUS
10
2.84182
20
-2.51899
11
2.84197
21
-2.51886
0
LINE
8
BLACK
6
CONTINUOUS
10
2.84197
20
-2.51886
11
2.84214
21
-2.51877
0
LINE
8
BLACK
6
CONTINUOUS
10
2.84214
20
-2.51877
11
2.84233
21
-2.51872
0
LINE
8
BLACK
6
CONTINUOUS
10
2.84233
20
-2.51872
11
2.84247
21
-2.5187
0
LINE
8
BLACK
6
CONTINUOUS
10
2.84247
20
-2.5187
11
2.84252
21
-2.5187
0
LINE
8
BLACK
6
CONTINUOUS
10
2.84252
20
-2.5187
11
2.84257
21
-2.5187
0
LINE
8
BLACK
6
CONTINUOUS
10
2.84257
20
-2.5187
11
3.86609
21
-2.5187
0
LINE
8
BLACK
6
CONTINUOUS
10
3.86609
20
-2.5187
11
3.86614
21
-2.5187
0
LINE
8
BLACK
6
CONTINUOUS
10
3.86614
20
-2.5187
11
3.86619
21
-2.5187
0
LINE
8
BLACK
6
CONTINUOUS
10
2.8435
20
-2.52067
11
2.8435
21
-3.10925
0
LINE
8
BLACK
6
CONTINUOUS
10
2.8435
20
-3.10925
11
3.86516
21
-3.10925
0
LINE
8
BLACK
6
CONTINUOUS
10
3.86516
20
-3.10925
11
3.86516
21
-2.52067
0
LINE
8
BLACK
6
CONTINUOUS
10
3.86516
20
-2.52067
11
2.8435
21
-2.52067
  0
ENDSEC
  0
EOF
