  0
SECTION
  2
HEADER
  9
$ANGBASE
  50
0.0
  9
$ANGDIR
  70
1
  9
$MEASUREMENT
  70
0
  0
ENDSEC
  0
SECTION
  2
TABLES
  0
TABLE
  2
LTYPE
  70
4
  0
LTYPE
  5
40F
  2
CONTINUOUS
  70
0
  3
Solid line
  72
65
  73
0
  40
0.0
  0
LTYPE
  5
410
  2
DASHDOT
 70
0
  3
Dash Dot ____ _ ____ _
 72
65
 73
4
 40
2.0
 49
1.25
 49
-0.25
 49
0.25
 49
-0.25
  0
LTYPE
  5
411
  2
DASHED
 70
0
  3
Dashed __ __ __ __ __
 72
65
 73
2
 40
0.75
 49
0.5
 49
-0.25
  0
LTYPE
  5
43B
  2
DOTTED
 70
0
  3
Dotted .  .  .  .
 72
65
 73
2
 40
0.2
 49
0.0
 49
-0.2
  0
ENDTAB
  0
TABLE
  2
STYLE
  70
4
  0
STYLE
  2
KICAD
  70
0
  40
0
  41
1
  42
1
  50
0
  71
0
  3
isocp.shx
  0
STYLE
  2
KICADB
  70
0
  40
0
  41
1
  42
1
  50
0
  71
0
  3
isocp.shx
  0
STYLE
  2
KICADI
  70
0
  40
0
  41
1
  42
1
  50
15
  71
0
  3
isocp.shx
  0
STYLE
  2
KICADBI
  70
0
  40
0
  41
1
  42
1
  50
15
  71
0
  3
isocp.shx
  0
ENDTAB
  0
TABLE
  2
LAYER
  70
1
  0
LAYER
  2
BLACK
  70
0
  62
7
  6
CONTINUOUS
  0
ENDTAB
  0
ENDSEC
  0
SECTION
  2
ENTITIES
0
LINE
8
BLACK
6
CONTINUOUS
10
4.08383
20
-6.41717
11
4.10174
21
-6.42459
0
LINE
8
BLACK
6
CONTINUOUS
10
4.10174
20
-6.42459
11
4.11786
21
-6.43536
0
LINE
8
BLACK
6
CONTINUOUS
10
4.11786
20
-6.43536
11
4.13157
21
-6.44907
0
LINE
8
BLACK
6
CONTINUOUS
10
4.13157
20
-6.44907
11
4.14234
21
-6.46519
0
LINE
8
BLACK
6
CONTINUOUS
10
4.14234
20
-6.46519
11
4.14976
21
-6.4831
0
LINE
8
BLACK
6
CONTINUOUS
10
4.14976
20
-6.4831
11
4.15354
21
-6.50212
0
LINE
8
BLACK
6
CONTINUOUS
10
4.15354
20
-6.50212
11
4.15354
21
-6.52151
0
LINE
8
BLACK
6
CONTINUOUS
10
4.15354
20
-6.52151
11
4.14976
21
-6.54052
0
LINE
8
BLACK
6
CONTINUOUS
10
4.14976
20
-6.54052
11
4.14234
21
-6.55843
0
LINE
8
BLACK
6
CONTINUOUS
10
4.14234
20
-6.55843
11
4.13157
21
-6.57455
0
LINE
8
BLACK
6
CONTINUOUS
10
4.13157
20
-6.57455
11
4.11786
21
-6.58826
0
LINE
8
BLACK
6
CONTINUOUS
10
4.11786
20
-6.58826
11
4.10174
21
-6.59903
0
LINE
8
BLACK
6
CONTINUOUS
10
4.10174
20
-6.59903
11
4.08383
21
-6.60645
0
LINE
8
BLACK
6
CONTINUOUS
10
4.08383
20
-6.60645
11
4.06481
21
-6.61024
0
LINE
8
BLACK
6
CONTINUOUS
10
4.06481
20
-6.61024
11
4.04542
21
-6.61024
0
LINE
8
BLACK
6
CONTINUOUS
10
4.04542
20
-6.61024
11
4.02641
21
-6.60645
0
LINE
8
BLACK
6
CONTINUOUS
10
4.02641
20
-6.60645
11
4.0085
21
-6.59903
0
LINE
8
BLACK
6
CONTINUOUS
10
4.0085
20
-6.59903
11
3.99238
21
-6.58826
0
LINE
8
BLACK
6
CONTINUOUS
10
3.99238
20
-6.58826
11
3.97867
21
-6.57455
0
LINE
8
BLACK
6
CONTINUOUS
10
3.97867
20
-6.57455
11
3.96789
21
-6.55843
0
LINE
8
BLACK
6
CONTINUOUS
10
3.96789
20
-6.55843
11
3.96048
21
-6.54052
0
LINE
8
BLACK
6
CONTINUOUS
10
3.96048
20
-6.54052
11
3.95669
21
-6.52151
0
LINE
8
BLACK
6
CONTINUOUS
10
3.95669
20
-6.52151
11
3.95669
21
-6.50212
0
LINE
8
BLACK
6
CONTINUOUS
10
3.95669
20
-6.50212
11
3.96048
21
-6.4831
0
LINE
8
BLACK
6
CONTINUOUS
10
3.96048
20
-6.4831
11
3.96789
21
-6.46519
0
LINE
8
BLACK
6
CONTINUOUS
10
3.96789
20
-6.46519
11
3.97867
21
-6.44907
0
LINE
8
BLACK
6
CONTINUOUS
10
3.97867
20
-6.44907
11
3.99238
21
-6.43536
0
LINE
8
BLACK
6
CONTINUOUS
10
3.99238
20
-6.43536
11
4.0085
21
-6.42459
0
LINE
8
BLACK
6
CONTINUOUS
10
4.0085
20
-6.42459
11
4.02641
21
-6.41717
0
LINE
8
BLACK
6
CONTINUOUS
10
4.02641
20
-6.41717
11
4.04542
21
-6.41339
0
LINE
8
BLACK
6
CONTINUOUS
10
4.04542
20
-6.41339
11
4.06481
21
-6.41339
0
LINE
8
BLACK
6
CONTINUOUS
10
4.06481
20
-6.41339
11
4.08383
21
-6.41717
0
LINE
8
BLACK
6
CONTINUOUS
10
2.68619
20
-6.41717
11
2.7041
21
-6.42459
0
LINE
8
BLACK
6
CONTINUOUS
10
2.7041
20
-6.42459
11
2.72022
21
-6.43536
0
LINE
8
BLACK
6
CONTINUOUS
10
2.72022
20
-6.43536
11
2.73393
21
-6.44907
0
LINE
8
BLACK
6
CONTINUOUS
10
2.73393
20
-6.44907
11
2.7447
21
-6.46519
0
LINE
8
BLACK
6
CONTINUOUS
10
2.7447
20
-6.46519
11
2.75212
21
-6.4831
0
LINE
8
BLACK
6
CONTINUOUS
10
2.75212
20
-6.4831
11
2.75591
21
-6.50212
0
LINE
8
BLACK
6
CONTINUOUS
10
2.75591
20
-6.50212
11
2.75591
21
-6.52151
0
LINE
8
BLACK
6
CONTINUOUS
10
2.75591
20
-6.52151
11
2.75212
21
-6.54052
0
LINE
8
BLACK
6
CONTINUOUS
10
2.75212
20
-6.54052
11
2.7447
21
-6.55843
0
LINE
8
BLACK
6
CONTINUOUS
10
2.7447
20
-6.55843
11
2.73393
21
-6.57455
0
LINE
8
BLACK
6
CONTINUOUS
10
2.73393
20
-6.57455
11
2.72022
21
-6.58826
0
LINE
8
BLACK
6
CONTINUOUS
10
2.72022
20
-6.58826
11
2.7041
21
-6.59903
0
LINE
8
BLACK
6
CONTINUOUS
10
2.7041
20
-6.59903
11
2.68619
21
-6.60645
0
LINE
8
BLACK
6
CONTINUOUS
10
2.68619
20
-6.60645
11
2.66717
21
-6.61024
0
LINE
8
BLACK
6
CONTINUOUS
10
2.66717
20
-6.61024
11
2.64779
21
-6.61024
0
LINE
8
BLACK
6
CONTINUOUS
10
2.64779
20
-6.61024
11
2.62877
21
-6.60645
0
LINE
8
BLACK
6
CONTINUOUS
10
2.62877
20
-6.60645
11
2.61086
21
-6.59903
0
LINE
8
BLACK
6
CONTINUOUS
10
2.61086
20
-6.59903
11
2.59474
21
-6.58826
0
LINE
8
BLACK
6
CONTINUOUS
10
2.59474
20
-6.58826
11
2.58103
21
-6.57455
0
LINE
8
BLACK
6
CONTINUOUS
10
2.58103
20
-6.57455
11
2.57026
21
-6.55843
0
LINE
8
BLACK
6
CONTINUOUS
10
2.57026
20
-6.55843
11
2.56284
21
-6.54052
0
LINE
8
BLACK
6
CONTINUOUS
10
2.56284
20
-6.54052
11
2.55906
21
-6.52151
0
LINE
8
BLACK
6
CONTINUOUS
10
2.55906
20
-6.52151
11
2.55906
21
-6.50212
0
LINE
8
BLACK
6
CONTINUOUS
10
2.55906
20
-6.50212
11
2.56284
21
-6.4831
0
LINE
8
BLACK
6
CONTINUOUS
10
2.56284
20
-6.4831
11
2.57026
21
-6.46519
0
LINE
8
BLACK
6
CONTINUOUS
10
2.57026
20
-6.46519
11
2.58103
21
-6.44907
0
LINE
8
BLACK
6
CONTINUOUS
10
2.58103
20
-6.44907
11
2.59474
21
-6.43536
0
LINE
8
BLACK
6
CONTINUOUS
10
2.59474
20
-6.43536
11
2.61086
21
-6.42459
0
LINE
8
BLACK
6
CONTINUOUS
10
2.61086
20
-6.42459
11
2.62877
21
-6.41717
0
LINE
8
BLACK
6
CONTINUOUS
10
2.62877
20
-6.41717
11
2.64779
21
-6.41339
0
LINE
8
BLACK
6
CONTINUOUS
10
2.64779
20
-6.41339
11
2.66717
21
-6.41339
0
LINE
8
BLACK
6
CONTINUOUS
10
2.66717
20
-6.41339
11
2.68619
21
-6.41717
0
LINE
8
BLACK
6
CONTINUOUS
10
2.18634
20
-1.60075
11
2.18634
21
-1.60075
0
LINE
8
BLACK
6
CONTINUOUS
10
2.18634
20
-1.60075
11
2.18634
21
-1.60075
0
LINE
8
BLACK
6
CONTINUOUS
10
2.18634
20
-1.60075
11
2.18634
21
-1.60072
0
LINE
8
BLACK
6
CONTINUOUS
10
2.18634
20
-1.60072
11
2.18639
21
-1.60025
0
LINE
8
BLACK
6
CONTINUOUS
10
2.18639
20
-1.60025
11
2.18644
21
-1.59978
0
LINE
8
BLACK
6
CONTINUOUS
10
2.18644
20
-1.59978
11
2.18645
21
-1.59977
0
LINE
8
BLACK
6
CONTINUOUS
10
2.18645
20
-1.59977
11
2.18645
21
-1.59975
0
LINE
8
BLACK
6
CONTINUOUS
10
2.18645
20
-1.59975
11
2.18659
21
-1.5993
0
LINE
8
BLACK
6
CONTINUOUS
10
2.18659
20
-1.5993
11
2.18673
21
-1.59885
0
LINE
8
BLACK
6
CONTINUOUS
10
2.18673
20
-1.59885
11
2.18674
21
-1.59883
0
LINE
8
BLACK
6
CONTINUOUS
10
2.18674
20
-1.59883
11
2.18674
21
-1.59882
0
LINE
8
BLACK
6
CONTINUOUS
10
2.18674
20
-1.59882
11
2.18697
21
-1.59841
0
LINE
8
BLACK
6
CONTINUOUS
10
2.18697
20
-1.59841
11
2.18719
21
-1.59799
0
LINE
8
BLACK
6
CONTINUOUS
10
2.18719
20
-1.59799
11
2.1872
21
-1.59798
0
LINE
8
BLACK
6
CONTINUOUS
10
2.1872
20
-1.59798
11
2.18721
21
-1.59796
0
LINE
8
BLACK
6
CONTINUOUS
10
2.18721
20
-1.59796
11
2.18751
21
-1.5976
0
LINE
8
BLACK
6
CONTINUOUS
10
2.18751
20
-1.5976
11
2.18782
21
-1.59724
0
LINE
8
BLACK
6
CONTINUOUS
10
2.18782
20
-1.59724
11
2.18783
21
-1.59723
0
LINE
8
BLACK
6
CONTINUOUS
10
2.18783
20
-1.59723
11
2.18784
21
-1.59722
0
LINE
8
BLACK
6
CONTINUOUS
10
2.18784
20
-1.59722
11
2.18821
21
-1.59692
0
LINE
8
BLACK
6
CONTINUOUS
10
2.18821
20
-1.59692
11
2.18857
21
-1.59662
0
LINE
8
BLACK
6
CONTINUOUS
10
2.18857
20
-1.59662
11
2.18859
21
-1.59661
0
LINE
8
BLACK
6
CONTINUOUS
10
2.18859
20
-1.59661
11
2.1886
21
-1.5966
0
LINE
8
BLACK
6
CONTINUOUS
10
2.1886
20
-1.5966
11
2.18902
21
-1.59639
0
LINE
8
BLACK
6
CONTINUOUS
10
2.18902
20
-1.59639
11
2.18943
21
-1.59616
0
LINE
8
BLACK
6
CONTINUOUS
10
2.18943
20
-1.59616
11
2.18945
21
-1.59616
0
LINE
8
BLACK
6
CONTINUOUS
10
2.18945
20
-1.59616
11
2.18947
21
-1.59615
0
LINE
8
BLACK
6
CONTINUOUS
10
2.18947
20
-1.59615
11
2.18992
21
-1.59602
0
LINE
8
BLACK
6
CONTINUOUS
10
2.18992
20
-1.59602
11
2.19037
21
-1.59588
0
LINE
8
BLACK
6
CONTINUOUS
10
2.19037
20
-1.59588
11
2.19038
21
-1.59588
0
LINE
8
BLACK
6
CONTINUOUS
10
2.19038
20
-1.59588
11
2.1904
21
-1.59588
0
LINE
8
BLACK
6
CONTINUOUS
10
2.1904
20
-1.59588
11
2.19087
21
-1.59583
0
LINE
8
BLACK
6
CONTINUOUS
10
2.19087
20
-1.59583
11
2.19134
21
-1.59579
0
LINE
8
BLACK
6
CONTINUOUS
10
2.19134
20
-1.59579
11
2.57506
21
-1.59579
0
LINE
8
BLACK
6
CONTINUOUS
10
2.57506
20
-1.59579
11
2.57511
21
-1.59579
0
LINE
8
BLACK
6
CONTINUOUS
10
2.57511
20
-1.59579
11
2.57511
21
-1.59579
0
LINE
8
BLACK
6
CONTINUOUS
10
2.57511
20
-1.59579
11
2.57511
21
-1.59579
0
LINE
8
BLACK
6
CONTINUOUS
10
2.57511
20
-1.59579
11
2.57513
21
-1.59579
0
LINE
8
BLACK
6
CONTINUOUS
10
2.57513
20
-1.59579
11
2.57561
21
-1.59584
0
LINE
8
BLACK
6
CONTINUOUS
10
2.57561
20
-1.59584
11
2.57608
21
-1.59589
0
LINE
8
BLACK
6
CONTINUOUS
10
2.57608
20
-1.59589
11
2.57609
21
-1.5959
0
LINE
8
BLACK
6
CONTINUOUS
10
2.57609
20
-1.5959
11
2.5761
21
-1.5959
0
LINE
8
BLACK
6
CONTINUOUS
10
2.5761
20
-1.5959
11
2.57656
21
-1.59604
0
LINE
8
BLACK
6
CONTINUOUS
10
2.57656
20
-1.59604
11
2.57701
21
-1.59618
0
LINE
8
BLACK
6
CONTINUOUS
10
2.57701
20
-1.59618
11
2.57702
21
-1.59619
0
LINE
8
BLACK
6
CONTINUOUS
10
2.57702
20
-1.59619
11
2.57703
21
-1.59619
0
LINE
8
BLACK
6
CONTINUOUS
10
2.57703
20
-1.59619
11
2.57745
21
-1.59643
0
LINE
8
BLACK
6
CONTINUOUS
10
2.57745
20
-1.59643
11
2.57787
21
-1.59665
0
LINE
8
BLACK
6
CONTINUOUS
10
2.57787
20
-1.59665
11
2.57787
21
-1.59666
0
LINE
8
BLACK
6
CONTINUOUS
10
2.57787
20
-1.59666
11
2.57788
21
-1.59666
0
LINE
8
BLACK
6
CONTINUOUS
10
2.57788
20
-1.59666
11
2.57825
21
-1.59698
0
LINE
8
BLACK
6
CONTINUOUS
10
2.57825
20
-1.59698
11
2.57862
21
-1.59728
0
LINE
8
BLACK
6
CONTINUOUS
10
2.57862
20
-1.59728
11
2.57862
21
-1.59728
0
LINE
8
BLACK
6
CONTINUOUS
10
2.57862
20
-1.59728
11
2.57863
21
-1.59729
0
LINE
8
BLACK
6
CONTINUOUS
10
2.57863
20
-1.59729
11
2.57893
21
-1.59766
0
LINE
8
BLACK
6
CONTINUOUS
10
2.57893
20
-1.59766
11
2.57923
21
-1.59803
0
LINE
8
BLACK
6
CONTINUOUS
10
2.57923
20
-1.59803
11
2.57924
21
-1.59804
0
LINE
8
BLACK
6
CONTINUOUS
10
2.57924
20
-1.59804
11
2.57924
21
-1.59805
0
LINE
8
BLACK
6
CONTINUOUS
10
2.57924
20
-1.59805
11
2.57946
21
-1.59847
0
LINE
8
BLACK
6
CONTINUOUS
10
2.57946
20
-1.59847
11
2.57969
21
-1.5989
0
LINE
8
BLACK
6
CONTINUOUS
10
2.57969
20
-1.5989
11
2.57969
21
-1.59891
0
LINE
8
BLACK
6
CONTINUOUS
10
2.57969
20
-1.59891
11
2.57969
21
-1.59891
0
LINE
8
BLACK
6
CONTINUOUS
10
2.57969
20
-1.59891
11
2.57983
21
-1.59937
0
LINE
8
BLACK
6
CONTINUOUS
10
2.57983
20
-1.59937
11
2.57996
21
-1.59983
0
LINE
8
BLACK
6
CONTINUOUS
10
2.57996
20
-1.59983
11
2.57997
21
-1.59984
0
LINE
8
BLACK
6
CONTINUOUS
10
2.57997
20
-1.59984
11
2.57997
21
-1.59985
0
LINE
8
BLACK
6
CONTINUOUS
10
2.57997
20
-1.59985
11
2.58001
21
-1.60033
0
LINE
8
BLACK
6
CONTINUOUS
10
2.58001
20
-1.60033
11
2.58006
21
-1.6008
0
LINE
8
BLACK
6
CONTINUOUS
10
2.58006
20
-1.6008
11
2.58006
21
-1.60081
0
LINE
8
BLACK
6
CONTINUOUS
10
2.58006
20
-1.60081
11
2.58006
21
-1.60082
0
LINE
8
BLACK
6
CONTINUOUS
10
2.58006
20
-1.60082
11
2.58001
21
-1.6013
0
LINE
8
BLACK
6
CONTINUOUS
10
2.58001
20
-1.6013
11
2.57996
21
-1.60178
0
LINE
8
BLACK
6
CONTINUOUS
10
2.57996
20
-1.60178
11
2.57996
21
-1.60178
0
LINE
8
BLACK
6
CONTINUOUS
10
2.57996
20
-1.60178
11
2.57995
21
-1.60179
0
LINE
8
BLACK
6
CONTINUOUS
10
2.57995
20
-1.60179
11
2.57981
21
-1.60226
0
LINE
8
BLACK
6
CONTINUOUS
10
2.57981
20
-1.60226
11
2.57967
21
-1.60271
0
LINE
8
BLACK
6
CONTINUOUS
10
2.57967
20
-1.60271
11
2.57967
21
-1.60272
0
LINE
8
BLACK
6
CONTINUOUS
10
2.57967
20
-1.60272
11
2.57967
21
-1.60272
0
LINE
8
BLACK
6
CONTINUOUS
10
2.57967
20
-1.60272
11
2.57943
21
-1.60315
0
LINE
8
BLACK
6
CONTINUOUS
10
2.57943
20
-1.60315
11
2.57921
21
-1.60357
0
LINE
8
BLACK
6
CONTINUOUS
10
2.57921
20
-1.60357
11
2.57921
21
-1.60358
0
LINE
8
BLACK
6
CONTINUOUS
10
2.57921
20
-1.60358
11
2.5792
21
-1.60358
0
LINE
8
BLACK
6
CONTINUOUS
10
2.5792
20
-1.60358
11
2.57889
21
-1.60395
0
LINE
8
BLACK
6
CONTINUOUS
10
2.57889
20
-1.60395
11
2.57859
21
-1.60432
0
LINE
8
BLACK
6
CONTINUOUS
10
2.57859
20
-1.60432
11
2.56549
21
-1.61742
0
LINE
8
BLACK
6
CONTINUOUS
10
2.56549
20
-1.61742
11
2.55253
21
-1.63682
0
LINE
8
BLACK
6
CONTINUOUS
10
2.55253
20
-1.63682
11
2.54361
21
-1.65837
0
LINE
8
BLACK
6
CONTINUOUS
10
2.54361
20
-1.65837
11
2.53906
21
-1.68125
0
LINE
8
BLACK
6
CONTINUOUS
10
2.53906
20
-1.68125
11
2.53906
21
-1.70458
0
LINE
8
BLACK
6
CONTINUOUS
10
2.53906
20
-1.70458
11
2.54361
21
-1.72746
0
LINE
8
BLACK
6
CONTINUOUS
10
2.54361
20
-1.72746
11
2.55253
21
-1.74901
0
LINE
8
BLACK
6
CONTINUOUS
10
2.55253
20
-1.74901
11
2.56549
21
-1.7684
0
LINE
8
BLACK
6
CONTINUOUS
10
2.56549
20
-1.7684
11
2.58199
21
-1.7849
0
LINE
8
BLACK
6
CONTINUOUS
10
2.58199
20
-1.7849
11
2.60138
21
-1.79786
0
LINE
8
BLACK
6
CONTINUOUS
10
2.60138
20
-1.79786
11
2.62294
21
-1.80679
0
LINE
8
BLACK
6
CONTINUOUS
10
2.62294
20
-1.80679
11
2.64582
21
-1.81134
0
LINE
8
BLACK
6
CONTINUOUS
10
2.64582
20
-1.81134
11
2.66914
21
-1.81134
0
LINE
8
BLACK
6
CONTINUOUS
10
2.66914
20
-1.81134
11
2.69202
21
-1.80679
0
LINE
8
BLACK
6
CONTINUOUS
10
2.69202
20
-1.80679
11
2.71358
21
-1.79786
0
LINE
8
BLACK
6
CONTINUOUS
10
2.71358
20
-1.79786
11
2.73297
21
-1.7849
0
LINE
8
BLACK
6
CONTINUOUS
10
2.73297
20
-1.7849
11
2.74947
21
-1.76841
0
LINE
8
BLACK
6
CONTINUOUS
10
2.74947
20
-1.76841
11
2.76243
21
-1.74901
0
LINE
8
BLACK
6
CONTINUOUS
10
2.76243
20
-1.74901
11
2.77135
21
-1.72746
0
LINE
8
BLACK
6
CONTINUOUS
10
2.77135
20
-1.72746
11
2.77591
21
-1.70458
0
LINE
8
BLACK
6
CONTINUOUS
10
2.77591
20
-1.70458
11
2.77591
21
-1.68125
0
LINE
8
BLACK
6
CONTINUOUS
10
2.77591
20
-1.68125
11
2.77135
21
-1.65837
0
LINE
8
BLACK
6
CONTINUOUS
10
2.77135
20
-1.65837
11
2.76243
21
-1.63682
0
LINE
8
BLACK
6
CONTINUOUS
10
2.76243
20
-1.63682
11
2.74947
21
-1.61742
0
LINE
8
BLACK
6
CONTINUOUS
10
2.74947
20
-1.61742
11
2.73637
21
-1.60432
0
LINE
8
BLACK
6
CONTINUOUS
10
2.73637
20
-1.60432
11
2.73633
21
-1.60429
0
LINE
8
BLACK
6
CONTINUOUS
10
2.73633
20
-1.60429
11
2.73633
21
-1.60429
0
LINE
8
BLACK
6
CONTINUOUS
10
2.73633
20
-1.60429
11
2.73633
21
-1.60429
0
LINE
8
BLACK
6
CONTINUOUS
10
2.73633
20
-1.60429
11
2.73632
21
-1.60427
0
LINE
8
BLACK
6
CONTINUOUS
10
2.73632
20
-1.60427
11
2.73602
21
-1.6039
0
LINE
8
BLACK
6
CONTINUOUS
10
2.73602
20
-1.6039
11
2.73572
21
-1.60353
0
LINE
8
BLACK
6
CONTINUOUS
10
2.73572
20
-1.60353
11
2.73572
21
-1.60352
0
LINE
8
BLACK
6
CONTINUOUS
10
2.73572
20
-1.60352
11
2.73571
21
-1.60351
0
LINE
8
BLACK
6
CONTINUOUS
10
2.73571
20
-1.60351
11
2.73549
21
-1.60309
0
LINE
8
BLACK
6
CONTINUOUS
10
2.73549
20
-1.60309
11
2.73527
21
-1.60266
0
LINE
8
BLACK
6
CONTINUOUS
10
2.73527
20
-1.60266
11
2.73527
21
-1.60265
0
LINE
8
BLACK
6
CONTINUOUS
10
2.73527
20
-1.60265
11
2.73526
21
-1.60264
0
LINE
8
BLACK
6
CONTINUOUS
10
2.73526
20
-1.60264
11
2.73513
21
-1.60218
0
LINE
8
BLACK
6
CONTINUOUS
10
2.73513
20
-1.60218
11
2.73499
21
-1.60172
0
LINE
8
BLACK
6
CONTINUOUS
10
2.73499
20
-1.60172
11
2.73499
21
-1.60172
0
LINE
8
BLACK
6
CONTINUOUS
10
2.73499
20
-1.60172
11
2.73499
21
-1.60171
0
LINE
8
BLACK
6
CONTINUOUS
10
2.73499
20
-1.60171
11
2.73495
21
-1.60123
0
LINE
8
BLACK
6
CONTINUOUS
10
2.73495
20
-1.60123
11
2.7349
21
-1.60075
0
LINE
8
BLACK
6
CONTINUOUS
10
2.7349
20
-1.60075
11
2.7349
21
-1.60074
0
LINE
8
BLACK
6
CONTINUOUS
10
2.7349
20
-1.60074
11
2.7349
21
-1.60074
0
LINE
8
BLACK
6
CONTINUOUS
10
2.7349
20
-1.60074
11
2.73496
21
-1.60026
0
LINE
8
BLACK
6
CONTINUOUS
10
2.73496
20
-1.60026
11
2.73501
21
-1.59978
0
LINE
8
BLACK
6
CONTINUOUS
10
2.73501
20
-1.59978
11
2.73501
21
-1.59977
0
LINE
8
BLACK
6
CONTINUOUS
10
2.73501
20
-1.59977
11
2.73501
21
-1.59976
0
LINE
8
BLACK
6
CONTINUOUS
10
2.73501
20
-1.59976
11
2.73515
21
-1.59931
0
LINE
8
BLACK
6
CONTINUOUS
10
2.73515
20
-1.59931
11
2.73529
21
-1.59885
0
LINE
8
BLACK
6
CONTINUOUS
10
2.73529
20
-1.59885
11
2.7353
21
-1.59884
0
LINE
8
BLACK
6
CONTINUOUS
10
2.7353
20
-1.59884
11
2.7353
21
-1.59883
0
LINE
8
BLACK
6
CONTINUOUS
10
2.7353
20
-1.59883
11
2.73553
21
-1.59841
0
LINE
8
BLACK
6
CONTINUOUS
10
2.73553
20
-1.59841
11
2.73576
21
-1.59799
0
LINE
8
BLACK
6
CONTINUOUS
10
2.73576
20
-1.59799
11
2.73576
21
-1.59798
0
LINE
8
BLACK
6
CONTINUOUS
10
2.73576
20
-1.59798
11
2.73577
21
-1.59798
0
LINE
8
BLACK
6
CONTINUOUS
10
2.73577
20
-1.59798
11
2.73608
21
-1.59761
0
LINE
8
BLACK
6
CONTINUOUS
10
2.73608
20
-1.59761
11
2.73638
21
-1.59724
0
LINE
8
BLACK
6
CONTINUOUS
10
2.73638
20
-1.59724
11
2.73639
21
-1.59723
0
LINE
8
BLACK
6
CONTINUOUS
10
2.73639
20
-1.59723
11
2.73639
21
-1.59723
0
LINE
8
BLACK
6
CONTINUOUS
10
2.73639
20
-1.59723
11
2.73677
21
-1.59692
0
LINE
8
BLACK
6
CONTINUOUS
10
2.73677
20
-1.59692
11
2.73714
21
-1.59662
0
LINE
8
BLACK
6
CONTINUOUS
10
2.73714
20
-1.59662
11
2.73714
21
-1.59662
0
LINE
8
BLACK
6
CONTINUOUS
10
2.73714
20
-1.59662
11
2.73715
21
-1.59661
0
LINE
8
BLACK
6
CONTINUOUS
10
2.73715
20
-1.59661
11
2.73758
21
-1.59639
0
LINE
8
BLACK
6
CONTINUOUS
10
2.73758
20
-1.59639
11
2.738
21
-1.59616
0
LINE
8
BLACK
6
CONTINUOUS
10
2.738
20
-1.59616
11
2.73801
21
-1.59616
0
LINE
8
BLACK
6
CONTINUOUS
10
2.73801
20
-1.59616
11
2.73801
21
-1.59616
0
LINE
8
BLACK
6
CONTINUOUS
10
2.73801
20
-1.59616
11
2.73847
21
-1.59602
0
LINE
8
BLACK
6
CONTINUOUS
10
2.73847
20
-1.59602
11
2.73893
21
-1.59588
0
LINE
8
BLACK
6
CONTINUOUS
10
2.73893
20
-1.59588
11
2.73894
21
-1.59588
0
LINE
8
BLACK
6
CONTINUOUS
10
2.73894
20
-1.59588
11
2.73895
21
-1.59588
0
LINE
8
BLACK
6
CONTINUOUS
10
2.73895
20
-1.59588
11
2.73942
21
-1.59583
0
LINE
8
BLACK
6
CONTINUOUS
10
2.73942
20
-1.59583
11
2.7399
21
-1.59579
0
LINE
8
BLACK
6
CONTINUOUS
10
2.7399
20
-1.59579
11
3.97269
21
-1.59579
0
LINE
8
BLACK
6
CONTINUOUS
10
3.97269
20
-1.59579
11
3.97275
21
-1.59579
0
LINE
8
BLACK
6
CONTINUOUS
10
3.97275
20
-1.59579
11
3.97275
21
-1.59579
0
LINE
8
BLACK
6
CONTINUOUS
10
3.97275
20
-1.59579
11
3.97275
21
-1.59579
0
LINE
8
BLACK
6
CONTINUOUS
10
3.97275
20
-1.59579
11
3.97276
21
-1.59579
0
LINE
8
BLACK
6
CONTINUOUS
10
3.97276
20
-1.59579
11
3.97325
21
-1.59584
0
LINE
8
BLACK
6
CONTINUOUS
10
3.97325
20
-1.59584
11
3.97372
21
-1.59589
0
LINE
8
BLACK
6
CONTINUOUS
10
3.97372
20
-1.59589
11
3.97373
21
-1.5959
0
LINE
8
BLACK
6
CONTINUOUS
10
3.97373
20
-1.5959
11
3.97373
21
-1.5959
0
LINE
8
BLACK
6
CONTINUOUS
10
3.97373
20
-1.5959
11
3.9742
21
-1.59604
0
LINE
8
BLACK
6
CONTINUOUS
10
3.9742
20
-1.59604
11
3.97465
21
-1.59618
0
LINE
8
BLACK
6
CONTINUOUS
10
3.97465
20
-1.59618
11
3.97466
21
-1.59619
0
LINE
8
BLACK
6
CONTINUOUS
10
3.97466
20
-1.59619
11
3.97466
21
-1.59619
0
LINE
8
BLACK
6
CONTINUOUS
10
3.97466
20
-1.59619
11
3.97509
21
-1.59643
0
LINE
8
BLACK
6
CONTINUOUS
10
3.97509
20
-1.59643
11
3.9755
21
-1.59665
0
LINE
8
BLACK
6
CONTINUOUS
10
3.9755
20
-1.59665
11
3.97551
21
-1.59666
0
LINE
8
BLACK
6
CONTINUOUS
10
3.97551
20
-1.59666
11
3.97552
21
-1.59666
0
LINE
8
BLACK
6
CONTINUOUS
10
3.97552
20
-1.59666
11
3.97589
21
-1.59698
0
LINE
8
BLACK
6
CONTINUOUS
10
3.97589
20
-1.59698
11
3.97625
21
-1.59728
0
LINE
8
BLACK
6
CONTINUOUS
10
3.97625
20
-1.59728
11
3.97626
21
-1.59728
0
LINE
8
BLACK
6
CONTINUOUS
10
3.97626
20
-1.59728
11
3.97627
21
-1.59729
0
LINE
8
BLACK
6
CONTINUOUS
10
3.97627
20
-1.59729
11
3.97657
21
-1.59766
0
LINE
8
BLACK
6
CONTINUOUS
10
3.97657
20
-1.59766
11
3.97687
21
-1.59803
0
LINE
8
BLACK
6
CONTINUOUS
10
3.97687
20
-1.59803
11
3.97687
21
-1.59804
0
LINE
8
BLACK
6
CONTINUOUS
10
3.97687
20
-1.59804
11
3.97688
21
-1.59805
0
LINE
8
BLACK
6
CONTINUOUS
10
3.97688
20
-1.59805
11
3.9771
21
-1.59847
0
LINE
8
BLACK
6
CONTINUOUS
10
3.9771
20
-1.59847
11
3.97732
21
-1.5989
0
LINE
8
BLACK
6
CONTINUOUS
10
3.97732
20
-1.5989
11
3.97733
21
-1.59891
0
LINE
8
BLACK
6
CONTINUOUS
10
3.97733
20
-1.59891
11
3.97733
21
-1.59891
0
LINE
8
BLACK
6
CONTINUOUS
10
3.97733
20
-1.59891
11
3.97747
21
-1.59937
0
LINE
8
BLACK
6
CONTINUOUS
10
3.97747
20
-1.59937
11
3.9776
21
-1.59983
0
LINE
8
BLACK
6
CONTINUOUS
10
3.9776
20
-1.59983
11
3.9776
21
-1.59984
0
LINE
8
BLACK
6
CONTINUOUS
10
3.9776
20
-1.59984
11
3.97761
21
-1.59985
0
LINE
8
BLACK
6
CONTINUOUS
10
3.97761
20
-1.59985
11
3.97765
21
-1.60033
0
LINE
8
BLACK
6
CONTINUOUS
10
3.97765
20
-1.60033
11
3.97769
21
-1.6008
0
LINE
8
BLACK
6
CONTINUOUS
10
3.97769
20
-1.6008
11
3.97769
21
-1.60081
0
LINE
8
BLACK
6
CONTINUOUS
10
3.97769
20
-1.60081
11
3.97769
21
-1.60082
0
LINE
8
BLACK
6
CONTINUOUS
10
3.97769
20
-1.60082
11
3.97764
21
-1.6013
0
LINE
8
BLACK
6
CONTINUOUS
10
3.97764
20
-1.6013
11
3.9776
21
-1.60178
0
LINE
8
BLACK
6
CONTINUOUS
10
3.9776
20
-1.60178
11
3.97759
21
-1.60178
0
LINE
8
BLACK
6
CONTINUOUS
10
3.97759
20
-1.60178
11
3.97759
21
-1.60179
0
LINE
8
BLACK
6
CONTINUOUS
10
3.97759
20
-1.60179
11
3.97745
21
-1.60226
0
LINE
8
BLACK
6
CONTINUOUS
10
3.97745
20
-1.60226
11
3.97731
21
-1.60271
0
LINE
8
BLACK
6
CONTINUOUS
10
3.97731
20
-1.60271
11
3.97731
21
-1.60272
0
LINE
8
BLACK
6
CONTINUOUS
10
3.97731
20
-1.60272
11
3.9773
21
-1.60272
0
LINE
8
BLACK
6
CONTINUOUS
10
3.9773
20
-1.60272
11
3.97707
21
-1.60315
0
LINE
8
BLACK
6
CONTINUOUS
10
3.97707
20
-1.60315
11
3.97685
21
-1.60357
0
LINE
8
BLACK
6
CONTINUOUS
10
3.97685
20
-1.60357
11
3.97684
21
-1.60358
0
LINE
8
BLACK
6
CONTINUOUS
10
3.97684
20
-1.60358
11
3.97684
21
-1.60358
0
LINE
8
BLACK
6
CONTINUOUS
10
3.97684
20
-1.60358
11
3.97653
21
-1.60395
0
LINE
8
BLACK
6
CONTINUOUS
10
3.97653
20
-1.60395
11
3.97623
21
-1.60432
0
LINE
8
BLACK
6
CONTINUOUS
10
3.97623
20
-1.60432
11
3.96313
21
-1.61742
0
LINE
8
BLACK
6
CONTINUOUS
10
3.96313
20
-1.61742
11
3.95017
21
-1.63682
0
LINE
8
BLACK
6
CONTINUOUS
10
3.95017
20
-1.63682
11
3.94124
21
-1.65837
0
LINE
8
BLACK
6
CONTINUOUS
10
3.94124
20
-1.65837
11
3.93669
21
-1.68125
0
LINE
8
BLACK
6
CONTINUOUS
10
3.93669
20
-1.68125
11
3.93669
21
-1.70458
0
LINE
8
BLACK
6
CONTINUOUS
10
3.93669
20
-1.70458
11
3.94124
21
-1.72746
0
LINE
8
BLACK
6
CONTINUOUS
10
3.94124
20
-1.72746
11
3.95017
21
-1.74901
0
LINE
8
BLACK
6
CONTINUOUS
10
3.95017
20
-1.74901
11
3.96313
21
-1.7684
0
LINE
8
BLACK
6
CONTINUOUS
10
3.96313
20
-1.7684
11
3.97963
21
-1.7849
0
LINE
8
BLACK
6
CONTINUOUS
10
3.97963
20
-1.7849
11
3.99902
21
-1.79786
0
LINE
8
BLACK
6
CONTINUOUS
10
3.99902
20
-1.79786
11
4.02057
21
-1.80679
0
LINE
8
BLACK
6
CONTINUOUS
10
4.02057
20
-1.80679
11
4.04345
21
-1.81134
0
LINE
8
BLACK
6
CONTINUOUS
10
4.04345
20
-1.81134
11
4.06678
21
-1.81134
0
LINE
8
BLACK
6
CONTINUOUS
10
4.06678
20
-1.81134
11
4.08966
21
-1.80679
0
LINE
8
BLACK
6
CONTINUOUS
10
4.08966
20
-1.80679
11
4.11121
21
-1.79786
0
LINE
8
BLACK
6
CONTINUOUS
10
4.11121
20
-1.79786
11
4.13061
21
-1.7849
0
LINE
8
BLACK
6
CONTINUOUS
10
4.13061
20
-1.7849
11
4.1471
21
-1.76841
0
LINE
8
BLACK
6
CONTINUOUS
10
4.1471
20
-1.76841
11
4.16007
21
-1.74901
0
LINE
8
BLACK
6
CONTINUOUS
10
4.16007
20
-1.74901
11
4.16899
21
-1.72746
0
LINE
8
BLACK
6
CONTINUOUS
10
4.16899
20
-1.72746
11
4.17354
21
-1.70458
0
LINE
8
BLACK
6
CONTINUOUS
10
4.17354
20
-1.70458
11
4.17354
21
-1.68125
0
LINE
8
BLACK
6
CONTINUOUS
10
4.17354
20
-1.68125
11
4.16899
21
-1.65837
0
LINE
8
BLACK
6
CONTINUOUS
10
4.16899
20
-1.65837
11
4.16007
21
-1.63682
0
LINE
8
BLACK
6
CONTINUOUS
10
4.16007
20
-1.63682
11
4.1471
21
-1.61742
0
LINE
8
BLACK
6
CONTINUOUS
10
4.1471
20
-1.61742
11
4.13401
21
-1.60432
0
LINE
8
BLACK
6
CONTINUOUS
10
4.13401
20
-1.60432
11
4.13397
21
-1.60429
0
LINE
8
BLACK
6
CONTINUOUS
10
4.13397
20
-1.60429
11
4.13397
21
-1.60429
0
LINE
8
BLACK
6
CONTINUOUS
10
4.13397
20
-1.60429
11
4.13397
21
-1.60429
0
LINE
8
BLACK
6
CONTINUOUS
10
4.13397
20
-1.60429
11
4.13396
21
-1.60427
0
LINE
8
BLACK
6
CONTINUOUS
10
4.13396
20
-1.60427
11
4.13366
21
-1.6039
0
LINE
8
BLACK
6
CONTINUOUS
10
4.13366
20
-1.6039
11
4.13336
21
-1.60353
0
LINE
8
BLACK
6
CONTINUOUS
10
4.13336
20
-1.60353
11
4.13335
21
-1.60352
0
LINE
8
BLACK
6
CONTINUOUS
10
4.13335
20
-1.60352
11
4.13335
21
-1.60351
0
LINE
8
BLACK
6
CONTINUOUS
10
4.13335
20
-1.60351
11
4.13313
21
-1.60309
0
LINE
8
BLACK
6
CONTINUOUS
10
4.13313
20
-1.60309
11
4.13291
21
-1.60266
0
LINE
8
BLACK
6
CONTINUOUS
10
4.13291
20
-1.60266
11
4.1329
21
-1.60265
0
LINE
8
BLACK
6
CONTINUOUS
10
4.1329
20
-1.60265
11
4.1329
21
-1.60264
0
LINE
8
BLACK
6
CONTINUOUS
10
4.1329
20
-1.60264
11
4.13276
21
-1.60218
0
LINE
8
BLACK
6
CONTINUOUS
10
4.13276
20
-1.60218
11
4.13263
21
-1.60172
0
LINE
8
BLACK
6
CONTINUOUS
10
4.13263
20
-1.60172
11
4.13263
21
-1.60172
0
LINE
8
BLACK
6
CONTINUOUS
10
4.13263
20
-1.60172
11
4.13263
21
-1.60171
0
LINE
8
BLACK
6
CONTINUOUS
10
4.13263
20
-1.60171
11
4.13259
21
-1.60123
0
LINE
8
BLACK
6
CONTINUOUS
10
4.13259
20
-1.60123
11
4.13254
21
-1.60075
0
LINE
8
BLACK
6
CONTINUOUS
10
4.13254
20
-1.60075
11
4.13254
21
-1.60074
0
LINE
8
BLACK
6
CONTINUOUS
10
4.13254
20
-1.60074
11
4.13254
21
-1.60074
0
LINE
8
BLACK
6
CONTINUOUS
10
4.13254
20
-1.60074
11
4.13259
21
-1.60026
0
LINE
8
BLACK
6
CONTINUOUS
10
4.13259
20
-1.60026
11
4.13264
21
-1.59978
0
LINE
8
BLACK
6
CONTINUOUS
10
4.13264
20
-1.59978
11
4.13265
21
-1.59977
0
LINE
8
BLACK
6
CONTINUOUS
10
4.13265
20
-1.59977
11
4.13265
21
-1.59976
0
LINE
8
BLACK
6
CONTINUOUS
10
4.13265
20
-1.59976
11
4.13279
21
-1.59931
0
LINE
8
BLACK
6
CONTINUOUS
10
4.13279
20
-1.59931
11
4.13293
21
-1.59885
0
LINE
8
BLACK
6
CONTINUOUS
10
4.13293
20
-1.59885
11
4.13294
21
-1.59884
0
LINE
8
BLACK
6
CONTINUOUS
10
4.13294
20
-1.59884
11
4.13294
21
-1.59883
0
LINE
8
BLACK
6
CONTINUOUS
10
4.13294
20
-1.59883
11
4.13317
21
-1.59841
0
LINE
8
BLACK
6
CONTINUOUS
10
4.13317
20
-1.59841
11
4.1334
21
-1.59799
0
LINE
8
BLACK
6
CONTINUOUS
10
4.1334
20
-1.59799
11
4.1334
21
-1.59798
0
LINE
8
BLACK
6
CONTINUOUS
10
4.1334
20
-1.59798
11
4.13341
21
-1.59798
0
LINE
8
BLACK
6
CONTINUOUS
10
4.13341
20
-1.59798
11
4.13371
21
-1.59761
0
LINE
8
BLACK
6
CONTINUOUS
10
4.13371
20
-1.59761
11
4.13402
21
-1.59724
0
LINE
8
BLACK
6
CONTINUOUS
10
4.13402
20
-1.59724
11
4.13403
21
-1.59723
0
LINE
8
BLACK
6
CONTINUOUS
10
4.13403
20
-1.59723
11
4.13403
21
-1.59723
0
LINE
8
BLACK
6
CONTINUOUS
10
4.13403
20
-1.59723
11
4.13441
21
-1.59692
0
LINE
8
BLACK
6
CONTINUOUS
10
4.13441
20
-1.59692
11
4.13477
21
-1.59662
0
LINE
8
BLACK
6
CONTINUOUS
10
4.13477
20
-1.59662
11
4.13478
21
-1.59662
0
LINE
8
BLACK
6
CONTINUOUS
10
4.13478
20
-1.59662
11
4.13479
21
-1.59661
0
LINE
8
BLACK
6
CONTINUOUS
10
4.13479
20
-1.59661
11
4.13521
21
-1.59639
0
LINE
8
BLACK
6
CONTINUOUS
10
4.13521
20
-1.59639
11
4.13564
21
-1.59616
0
LINE
8
BLACK
6
CONTINUOUS
10
4.13564
20
-1.59616
11
4.13564
21
-1.59616
0
LINE
8
BLACK
6
CONTINUOUS
10
4.13564
20
-1.59616
11
4.13565
21
-1.59616
0
LINE
8
BLACK
6
CONTINUOUS
10
4.13565
20
-1.59616
11
4.13611
21
-1.59602
0
LINE
8
BLACK
6
CONTINUOUS
10
4.13611
20
-1.59602
11
4.13657
21
-1.59588
0
LINE
8
BLACK
6
CONTINUOUS
10
4.13657
20
-1.59588
11
4.13658
21
-1.59588
0
LINE
8
BLACK
6
CONTINUOUS
10
4.13658
20
-1.59588
11
4.13659
21
-1.59588
0
LINE
8
BLACK
6
CONTINUOUS
10
4.13659
20
-1.59588
11
4.13706
21
-1.59583
0
LINE
8
BLACK
6
CONTINUOUS
10
4.13706
20
-1.59583
11
4.13754
21
-1.59579
0
LINE
8
BLACK
6
CONTINUOUS
10
4.13754
20
-1.59579
11
4.51732
21
-1.59579
0
LINE
8
BLACK
6
CONTINUOUS
10
4.51732
20
-1.59579
11
4.51736
21
-1.59579
0
LINE
8
BLACK
6
CONTINUOUS
10
4.51736
20
-1.59579
11
4.51736
21
-1.59579
0
LINE
8
BLACK
6
CONTINUOUS
10
4.51736
20
-1.59579
11
4.51736
21
-1.59579
0
LINE
8
BLACK
6
CONTINUOUS
10
4.51736
20
-1.59579
11
4.51739
21
-1.59579
0
LINE
8
BLACK
6
CONTINUOUS
10
4.51739
20
-1.59579
11
4.51786
21
-1.59584
0
LINE
8
BLACK
6
CONTINUOUS
10
4.51786
20
-1.59584
11
4.51833
21
-1.59589
0
LINE
8
BLACK
6
CONTINUOUS
10
4.51833
20
-1.59589
11
4.51834
21
-1.59589
0
LINE
8
BLACK
6
CONTINUOUS
10
4.51834
20
-1.59589
11
4.51836
21
-1.5959
0
LINE
8
BLACK
6
CONTINUOUS
10
4.51836
20
-1.5959
11
4.51881
21
-1.59604
0
LINE
8
BLACK
6
CONTINUOUS
10
4.51881
20
-1.59604
11
4.51926
21
-1.59618
0
LINE
8
BLACK
6
CONTINUOUS
10
4.51926
20
-1.59618
11
4.51928
21
-1.59619
0
LINE
8
BLACK
6
CONTINUOUS
10
4.51928
20
-1.59619
11
4.51929
21
-1.59619
0
LINE
8
BLACK
6
CONTINUOUS
10
4.51929
20
-1.59619
11
4.5197
21
-1.59642
0
LINE
8
BLACK
6
CONTINUOUS
10
4.5197
20
-1.59642
11
4.52012
21
-1.59664
0
LINE
8
BLACK
6
CONTINUOUS
10
4.52012
20
-1.59664
11
4.52013
21
-1.59665
0
LINE
8
BLACK
6
CONTINUOUS
10
4.52013
20
-1.59665
11
4.52015
21
-1.59666
0
LINE
8
BLACK
6
CONTINUOUS
10
4.52015
20
-1.59666
11
4.52051
21
-1.59696
0
LINE
8
BLACK
6
CONTINUOUS
10
4.52051
20
-1.59696
11
4.52087
21
-1.59726
0
LINE
8
BLACK
6
CONTINUOUS
10
4.52087
20
-1.59726
11
4.52088
21
-1.59728
0
LINE
8
BLACK
6
CONTINUOUS
10
4.52088
20
-1.59728
11
4.5209
21
-1.59729
0
LINE
8
BLACK
6
CONTINUOUS
10
4.5209
20
-1.59729
11
4.52119
21
-1.59766
0
LINE
8
BLACK
6
CONTINUOUS
10
4.52119
20
-1.59766
11
4.52149
21
-1.59802
0
LINE
8
BLACK
6
CONTINUOUS
10
4.52149
20
-1.59802
11
4.5215
21
-1.59804
0
LINE
8
BLACK
6
CONTINUOUS
10
4.5215
20
-1.59804
11
4.52151
21
-1.59805
0
LINE
8
BLACK
6
CONTINUOUS
10
4.52151
20
-1.59805
11
4.52172
21
-1.59847
0
LINE
8
BLACK
6
CONTINUOUS
10
4.52172
20
-1.59847
11
4.52195
21
-1.59888
0
LINE
8
BLACK
6
CONTINUOUS
10
4.52195
20
-1.59888
11
4.52195
21
-1.5989
0
LINE
8
BLACK
6
CONTINUOUS
10
4.52195
20
-1.5989
11
4.52196
21
-1.59891
0
LINE
8
BLACK
6
CONTINUOUS
10
4.52196
20
-1.59891
11
4.52209
21
-1.59936
0
LINE
8
BLACK
6
CONTINUOUS
10
4.52209
20
-1.59936
11
4.52223
21
-1.59982
0
LINE
8
BLACK
6
CONTINUOUS
10
4.52223
20
-1.59982
11
4.52223
21
-1.59983
0
LINE
8
BLACK
6
CONTINUOUS
10
4.52223
20
-1.59983
11
4.52223
21
-1.59985
0
LINE
8
BLACK
6
CONTINUOUS
10
4.52223
20
-1.59985
11
4.52228
21
-1.60032
0
LINE
8
BLACK
6
CONTINUOUS
10
4.52228
20
-1.60032
11
4.52232
21
-1.60079
0
LINE
8
BLACK
6
CONTINUOUS
10
4.52232
20
-1.60079
11
4.52232
21
-6.60394
0
LINE
8
BLACK
6
CONTINUOUS
10
4.52232
20
-6.60394
11
4.52232
21
-6.60397
0
LINE
8
BLACK
6
CONTINUOUS
10
4.52232
20
-6.60397
11
4.52232
21
-6.60397
0
LINE
8
BLACK
6
CONTINUOUS
10
4.52232
20
-6.60397
11
4.52232
21
-6.60397
0
LINE
8
BLACK
6
CONTINUOUS
10
4.52232
20
-6.60397
11
4.52232
21
-6.60401
0
LINE
8
BLACK
6
CONTINUOUS
10
4.52232
20
-6.60401
11
4.52227
21
-6.60448
0
LINE
8
BLACK
6
CONTINUOUS
10
4.52227
20
-6.60448
11
4.52222
21
-6.60494
0
LINE
8
BLACK
6
CONTINUOUS
10
4.52222
20
-6.60494
11
4.52222
21
-6.60496
0
LINE
8
BLACK
6
CONTINUOUS
10
4.52222
20
-6.60496
11
4.52221
21
-6.60498
0
LINE
8
BLACK
6
CONTINUOUS
10
4.52221
20
-6.60498
11
4.52207
21
-6.60543
0
LINE
8
BLACK
6
CONTINUOUS
10
4.52207
20
-6.60543
11
4.52193
21
-6.60587
0
LINE
8
BLACK
6
CONTINUOUS
10
4.52193
20
-6.60587
11
4.52192
21
-6.60589
0
LINE
8
BLACK
6
CONTINUOUS
10
4.52192
20
-6.60589
11
4.52192
21
-6.60591
0
LINE
8
BLACK
6
CONTINUOUS
10
4.52192
20
-6.60591
11
4.52169
21
-6.60632
0
LINE
8
BLACK
6
CONTINUOUS
10
4.52169
20
-6.60632
11
4.52147
21
-6.60673
0
LINE
8
BLACK
6
CONTINUOUS
10
4.52147
20
-6.60673
11
4.52146
21
-6.60675
0
LINE
8
BLACK
6
CONTINUOUS
10
4.52146
20
-6.60675
11
4.52145
21
-6.60676
0
LINE
8
BLACK
6
CONTINUOUS
10
4.52145
20
-6.60676
11
4.52115
21
-6.60712
0
LINE
8
BLACK
6
CONTINUOUS
10
4.52115
20
-6.60712
11
4.52085
21
-6.60748
0
LINE
8
BLACK
6
CONTINUOUS
10
4.52085
20
-6.60748
11
4.52083
21
-6.6075
0
LINE
8
BLACK
6
CONTINUOUS
10
4.52083
20
-6.6075
11
4.52082
21
-6.60751
0
LINE
8
BLACK
6
CONTINUOUS
10
4.52082
20
-6.60751
11
4.52045
21
-6.6078
0
LINE
8
BLACK
6
CONTINUOUS
10
4.52045
20
-6.6078
11
4.52009
21
-6.6081
0
LINE
8
BLACK
6
CONTINUOUS
10
4.52009
20
-6.6081
11
4.52007
21
-6.60811
0
LINE
8
BLACK
6
CONTINUOUS
10
4.52007
20
-6.60811
11
4.52006
21
-6.60812
0
LINE
8
BLACK
6
CONTINUOUS
10
4.52006
20
-6.60812
11
4.51964
21
-6.60834
0
LINE
8
BLACK
6
CONTINUOUS
10
4.51964
20
-6.60834
11
4.51923
21
-6.60856
0
LINE
8
BLACK
6
CONTINUOUS
10
4.51923
20
-6.60856
11
4.51921
21
-6.60856
0
LINE
8
BLACK
6
CONTINUOUS
10
4.51921
20
-6.60856
11
4.5192
21
-6.60857
0
LINE
8
BLACK
6
CONTINUOUS
10
4.5192
20
-6.60857
11
4.51875
21
-6.60871
0
LINE
8
BLACK
6
CONTINUOUS
10
4.51875
20
-6.60871
11
4.51829
21
-6.60884
0
LINE
8
BLACK
6
CONTINUOUS
10
4.51829
20
-6.60884
11
4.51828
21
-6.60884
0
LINE
8
BLACK
6
CONTINUOUS
10
4.51828
20
-6.60884
11
4.51826
21
-6.60885
0
LINE
8
BLACK
6
CONTINUOUS
10
4.51826
20
-6.60885
11
4.51779
21
-6.60889
0
LINE
8
BLACK
6
CONTINUOUS
10
4.51779
20
-6.60889
11
4.51732
21
-6.60894
0
LINE
8
BLACK
6
CONTINUOUS
10
4.51732
20
-6.60894
11
4.13754
21
-6.60894
0
LINE
8
BLACK
6
CONTINUOUS
10
4.13754
20
-6.60894
11
4.13749
21
-6.60894
0
LINE
8
BLACK
6
CONTINUOUS
10
4.13749
20
-6.60894
11
4.13749
21
-6.60894
0
LINE
8
BLACK
6
CONTINUOUS
10
4.13749
20
-6.60894
11
4.13749
21
-6.60894
0
LINE
8
BLACK
6
CONTINUOUS
10
4.13749
20
-6.60894
11
4.13747
21
-6.60894
0
LINE
8
BLACK
6
CONTINUOUS
10
4.13747
20
-6.60894
11
4.13699
21
-6.60888
0
LINE
8
BLACK
6
CONTINUOUS
10
4.13699
20
-6.60888
11
4.13652
21
-6.60883
0
LINE
8
BLACK
6
CONTINUOUS
10
4.13652
20
-6.60883
11
4.13651
21
-6.60883
0
LINE
8
BLACK
6
CONTINUOUS
10
4.13651
20
-6.60883
11
4.1365
21
-6.60883
0
LINE
8
BLACK
6
CONTINUOUS
10
4.1365
20
-6.60883
11
4.13604
21
-6.60868
0
LINE
8
BLACK
6
CONTINUOUS
10
4.13604
20
-6.60868
11
4.13559
21
-6.60854
0
LINE
8
BLACK
6
CONTINUOUS
10
4.13559
20
-6.60854
11
4.13558
21
-6.60854
0
LINE
8
BLACK
6
CONTINUOUS
10
4.13558
20
-6.60854
11
4.13557
21
-6.60853
0
LINE
8
BLACK
6
CONTINUOUS
10
4.13557
20
-6.60853
11
4.13515
21
-6.6083
0
LINE
8
BLACK
6
CONTINUOUS
10
4.13515
20
-6.6083
11
4.13473
21
-6.60807
0
LINE
8
BLACK
6
CONTINUOUS
10
4.13473
20
-6.60807
11
4.13472
21
-6.60807
0
LINE
8
BLACK
6
CONTINUOUS
10
4.13472
20
-6.60807
11
4.13472
21
-6.60806
0
LINE
8
BLACK
6
CONTINUOUS
10
4.13472
20
-6.60806
11
4.13435
21
-6.60776
0
LINE
8
BLACK
6
CONTINUOUS
10
4.13435
20
-6.60776
11
4.13398
21
-6.60745
0
LINE
8
BLACK
6
CONTINUOUS
10
4.13398
20
-6.60745
11
4.13398
21
-6.60744
0
LINE
8
BLACK
6
CONTINUOUS
10
4.13398
20
-6.60744
11
4.13397
21
-6.60744
0
LINE
8
BLACK
6
CONTINUOUS
10
4.13397
20
-6.60744
11
4.13367
21
-6.60706
0
LINE
8
BLACK
6
CONTINUOUS
10
4.13367
20
-6.60706
11
4.13337
21
-6.60669
0
LINE
8
BLACK
6
CONTINUOUS
10
4.13337
20
-6.60669
11
4.13336
21
-6.60668
0
LINE
8
BLACK
6
CONTINUOUS
10
4.13336
20
-6.60668
11
4.13336
21
-6.60667
0
LINE
8
BLACK
6
CONTINUOUS
10
4.13336
20
-6.60667
11
4.13314
21
-6.60625
0
LINE
8
BLACK
6
CONTINUOUS
10
4.13314
20
-6.60625
11
4.13291
21
-6.60583
0
LINE
8
BLACK
6
CONTINUOUS
10
4.13291
20
-6.60583
11
4.13291
21
-6.60582
0
LINE
8
BLACK
6
CONTINUOUS
10
4.13291
20
-6.60582
11
4.13291
21
-6.60581
0
LINE
8
BLACK
6
CONTINUOUS
10
4.13291
20
-6.60581
11
4.13277
21
-6.60535
0
LINE
8
BLACK
6
CONTINUOUS
10
4.13277
20
-6.60535
11
4.13263
21
-6.60489
0
LINE
8
BLACK
6
CONTINUOUS
10
4.13263
20
-6.60489
11
4.13263
21
-6.60488
0
LINE
8
BLACK
6
CONTINUOUS
10
4.13263
20
-6.60488
11
4.13263
21
-6.60487
0
LINE
8
BLACK
6
CONTINUOUS
10
4.13263
20
-6.60487
11
4.13259
21
-6.60439
0
LINE
8
BLACK
6
CONTINUOUS
10
4.13259
20
-6.60439
11
4.13254
21
-6.60392
0
LINE
8
BLACK
6
CONTINUOUS
10
4.13254
20
-6.60392
11
4.13254
21
-6.60391
0
LINE
8
BLACK
6
CONTINUOUS
10
4.13254
20
-6.60391
11
4.13254
21
-6.6039
0
LINE
8
BLACK
6
CONTINUOUS
10
4.13254
20
-6.6039
11
4.13259
21
-6.60343
0
LINE
8
BLACK
6
CONTINUOUS
10
4.13259
20
-6.60343
11
4.13264
21
-6.60295
0
LINE
8
BLACK
6
CONTINUOUS
10
4.13264
20
-6.60295
11
4.13264
21
-6.60294
0
LINE
8
BLACK
6
CONTINUOUS
10
4.13264
20
-6.60294
11
4.13264
21
-6.60293
0
LINE
8
BLACK
6
CONTINUOUS
10
4.13264
20
-6.60293
11
4.13279
21
-6.60247
0
LINE
8
BLACK
6
CONTINUOUS
10
4.13279
20
-6.60247
11
4.13293
21
-6.60202
0
LINE
8
BLACK
6
CONTINUOUS
10
4.13293
20
-6.60202
11
4.13293
21
-6.60201
0
LINE
8
BLACK
6
CONTINUOUS
10
4.13293
20
-6.60201
11
4.13293
21
-6.602
0
LINE
8
BLACK
6
CONTINUOUS
10
4.13293
20
-6.602
11
4.13316
21
-6.60157
0
LINE
8
BLACK
6
CONTINUOUS
10
4.13316
20
-6.60157
11
4.13339
21
-6.60116
0
LINE
8
BLACK
6
CONTINUOUS
10
4.13339
20
-6.60116
11
4.13339
21
-6.60115
0
LINE
8
BLACK
6
CONTINUOUS
10
4.13339
20
-6.60115
11
4.1334
21
-6.60114
0
LINE
8
BLACK
6
CONTINUOUS
10
4.1334
20
-6.60114
11
4.1337
21
-6.60077
0
LINE
8
BLACK
6
CONTINUOUS
10
4.1337
20
-6.60077
11
4.13401
21
-6.6004
0
LINE
8
BLACK
6
CONTINUOUS
10
4.13401
20
-6.6004
11
4.1471
21
-6.5873
0
LINE
8
BLACK
6
CONTINUOUS
10
4.1471
20
-6.5873
11
4.16007
21
-6.56791
0
LINE
8
BLACK
6
CONTINUOUS
10
4.16007
20
-6.56791
11
4.16899
21
-6.54635
0
LINE
8
BLACK
6
CONTINUOUS
10
4.16899
20
-6.54635
11
4.17354
21
-6.52347
0
LINE
8
BLACK
6
CONTINUOUS
10
4.17354
20
-6.52347
11
4.17354
21
-6.50015
0
LINE
8
BLACK
6
CONTINUOUS
10
4.17354
20
-6.50015
11
4.16899
21
-6.47727
0
LINE
8
BLACK
6
CONTINUOUS
10
4.16899
20
-6.47727
11
4.16007
21
-6.45572
0
LINE
8
BLACK
6
CONTINUOUS
10
4.16007
20
-6.45572
11
4.1471
21
-6.43632
0
LINE
8
BLACK
6
CONTINUOUS
10
4.1471
20
-6.43632
11
4.13061
21
-6.41982
0
LINE
8
BLACK
6
CONTINUOUS
10
4.13061
20
-6.41982
11
4.11121
21
-6.40686
0
LINE
8
BLACK
6
CONTINUOUS
10
4.11121
20
-6.40686
11
4.08966
21
-6.39794
0
LINE
8
BLACK
6
CONTINUOUS
10
4.08966
20
-6.39794
11
4.06678
21
-6.39339
0
LINE
8
BLACK
6
CONTINUOUS
10
4.06678
20
-6.39339
11
4.04345
21
-6.39339
0
LINE
8
BLACK
6
CONTINUOUS
10
4.04345
20
-6.39339
11
4.02057
21
-6.39794
0
LINE
8
BLACK
6
CONTINUOUS
10
4.02057
20
-6.39794
11
3.99902
21
-6.40686
0
LINE
8
BLACK
6
CONTINUOUS
10
3.99902
20
-6.40686
11
3.97963
21
-6.41982
0
LINE
8
BLACK
6
CONTINUOUS
10
3.97963
20
-6.41982
11
3.96313
21
-6.43632
0
LINE
8
BLACK
6
CONTINUOUS
10
3.96313
20
-6.43632
11
3.95017
21
-6.45572
0
LINE
8
BLACK
6
CONTINUOUS
10
3.95017
20
-6.45572
11
3.94124
21
-6.47727
0
LINE
8
BLACK
6
CONTINUOUS
10
3.94124
20
-6.47727
11
3.93669
21
-6.50015
0
LINE
8
BLACK
6
CONTINUOUS
10
3.93669
20
-6.50015
11
3.93669
21
-6.52347
0
LINE
8
BLACK
6
CONTINUOUS
10
3.93669
20
-6.52347
11
3.94124
21
-6.54635
0
LINE
8
BLACK
6
CONTINUOUS
10
3.94124
20
-6.54635
11
3.95017
21
-6.56791
0
LINE
8
BLACK
6
CONTINUOUS
10
3.95017
20
-6.56791
11
3.96313
21
-6.5873
0
LINE
8
BLACK
6
CONTINUOUS
10
3.96313
20
-6.5873
11
3.97623
21
-6.6004
0
LINE
8
BLACK
6
CONTINUOUS
10
3.97623
20
-6.6004
11
3.97627
21
-6.60044
0
LINE
8
BLACK
6
CONTINUOUS
10
3.97627
20
-6.60044
11
3.97627
21
-6.60044
0
LINE
8
BLACK
6
CONTINUOUS
10
3.97627
20
-6.60044
11
3.97627
21
-6.60044
0
LINE
8
BLACK
6
CONTINUOUS
10
3.97627
20
-6.60044
11
3.97628
21
-6.60045
0
LINE
8
BLACK
6
CONTINUOUS
10
3.97628
20
-6.60045
11
3.97658
21
-6.60083
0
LINE
8
BLACK
6
CONTINUOUS
10
3.97658
20
-6.60083
11
3.97688
21
-6.6012
0
LINE
8
BLACK
6
CONTINUOUS
10
3.97688
20
-6.6012
11
3.97688
21
-6.60121
0
LINE
8
BLACK
6
CONTINUOUS
10
3.97688
20
-6.60121
11
3.97689
21
-6.60121
0
LINE
8
BLACK
6
CONTINUOUS
10
3.97689
20
-6.60121
11
3.97711
21
-6.60164
0
LINE
8
BLACK
6
CONTINUOUS
10
3.97711
20
-6.60164
11
3.97733
21
-6.60206
0
LINE
8
BLACK
6
CONTINUOUS
10
3.97733
20
-6.60206
11
3.97733
21
-6.60207
0
LINE
8
BLACK
6
CONTINUOUS
10
3.97733
20
-6.60207
11
3.97734
21
-6.60208
0
LINE
8
BLACK
6
CONTINUOUS
10
3.97734
20
-6.60208
11
3.97747
21
-6.60254
0
LINE
8
BLACK
6
CONTINUOUS
10
3.97747
20
-6.60254
11
3.97761
21
-6.603
0
LINE
8
BLACK
6
CONTINUOUS
10
3.97761
20
-6.603
11
3.97761
21
-6.60301
0
LINE
8
BLACK
6
CONTINUOUS
10
3.97761
20
-6.60301
11
3.97761
21
-6.60302
0
LINE
8
BLACK
6
CONTINUOUS
10
3.97761
20
-6.60302
11
3.97765
21
-6.60349
0
LINE
8
BLACK
6
CONTINUOUS
10
3.97765
20
-6.60349
11
3.97769
21
-6.60397
0
LINE
8
BLACK
6
CONTINUOUS
10
3.97769
20
-6.60397
11
3.97769
21
-6.60398
0
LINE
8
BLACK
6
CONTINUOUS
10
3.97769
20
-6.60398
11
3.97769
21
-6.60399
0
LINE
8
BLACK
6
CONTINUOUS
10
3.97769
20
-6.60399
11
3.97764
21
-6.60446
0
LINE
8
BLACK
6
CONTINUOUS
10
3.97764
20
-6.60446
11
3.97759
21
-6.60494
0
LINE
8
BLACK
6
CONTINUOUS
10
3.97759
20
-6.60494
11
3.97759
21
-6.60495
0
LINE
8
BLACK
6
CONTINUOUS
10
3.97759
20
-6.60495
11
3.97759
21
-6.60496
0
LINE
8
BLACK
6
CONTINUOUS
10
3.97759
20
-6.60496
11
3.97745
21
-6.60541
0
LINE
8
BLACK
6
CONTINUOUS
10
3.97745
20
-6.60541
11
3.9773
21
-6.60587
0
LINE
8
BLACK
6
CONTINUOUS
10
3.9773
20
-6.60587
11
3.9773
21
-6.60588
0
LINE
8
BLACK
6
CONTINUOUS
10
3.9773
20
-6.60588
11
3.9773
21
-6.60589
0
LINE
8
BLACK
6
CONTINUOUS
10
3.9773
20
-6.60589
11
3.97707
21
-6.6063
0
LINE
8
BLACK
6
CONTINUOUS
10
3.97707
20
-6.6063
11
3.97684
21
-6.60673
0
LINE
8
BLACK
6
CONTINUOUS
10
3.97684
20
-6.60673
11
3.97683
21
-6.60674
0
LINE
8
BLACK
6
CONTINUOUS
10
3.97683
20
-6.60674
11
3.97683
21
-6.60675
0
LINE
8
BLACK
6
CONTINUOUS
10
3.97683
20
-6.60675
11
3.97653
21
-6.60711
0
LINE
8
BLACK
6
CONTINUOUS
10
3.97653
20
-6.60711
11
3.97622
21
-6.60748
0
LINE
8
BLACK
6
CONTINUOUS
10
3.97622
20
-6.60748
11
3.97621
21
-6.60749
0
LINE
8
BLACK
6
CONTINUOUS
10
3.97621
20
-6.60749
11
3.97621
21
-6.6075
0
LINE
8
BLACK
6
CONTINUOUS
10
3.97621
20
-6.6075
11
3.97583
21
-6.6078
0
LINE
8
BLACK
6
CONTINUOUS
10
3.97583
20
-6.6078
11
3.97546
21
-6.6081
0
LINE
8
BLACK
6
CONTINUOUS
10
3.97546
20
-6.6081
11
3.97545
21
-6.60811
0
LINE
8
BLACK
6
CONTINUOUS
10
3.97545
20
-6.60811
11
3.97545
21
-6.60811
0
LINE
8
BLACK
6
CONTINUOUS
10
3.97545
20
-6.60811
11
3.97502
21
-6.60833
0
LINE
8
BLACK
6
CONTINUOUS
10
3.97502
20
-6.60833
11
3.9746
21
-6.60856
0
LINE
8
BLACK
6
CONTINUOUS
10
3.9746
20
-6.60856
11
3.97459
21
-6.60856
0
LINE
8
BLACK
6
CONTINUOUS
10
3.97459
20
-6.60856
11
3.97458
21
-6.60857
0
LINE
8
BLACK
6
CONTINUOUS
10
3.97458
20
-6.60857
11
3.97413
21
-6.6087
0
LINE
8
BLACK
6
CONTINUOUS
10
3.97413
20
-6.6087
11
3.97367
21
-6.60884
0
LINE
8
BLACK
6
CONTINUOUS
10
3.97367
20
-6.60884
11
3.97366
21
-6.60884
0
LINE
8
BLACK
6
CONTINUOUS
10
3.97366
20
-6.60884
11
3.97365
21
-6.60885
0
LINE
8
BLACK
6
CONTINUOUS
10
3.97365
20
-6.60885
11
3.97317
21
-6.60889
0
LINE
8
BLACK
6
CONTINUOUS
10
3.97317
20
-6.60889
11
3.97269
21
-6.60894
0
LINE
8
BLACK
6
CONTINUOUS
10
3.97269
20
-6.60894
11
2.7399
21
-6.60894
0
LINE
8
BLACK
6
CONTINUOUS
10
2.7399
20
-6.60894
11
2.73985
21
-6.60894
0
LINE
8
BLACK
6
CONTINUOUS
10
2.73985
20
-6.60894
11
2.73985
21
-6.60894
0
LINE
8
BLACK
6
CONTINUOUS
10
2.73985
20
-6.60894
11
2.73985
21
-6.60894
0
LINE
8
BLACK
6
CONTINUOUS
10
2.73985
20
-6.60894
11
2.73983
21
-6.60894
0
LINE
8
BLACK
6
CONTINUOUS
10
2.73983
20
-6.60894
11
2.73935
21
-6.60888
0
LINE
8
BLACK
6
CONTINUOUS
10
2.73935
20
-6.60888
11
2.73888
21
-6.60883
0
LINE
8
BLACK
6
CONTINUOUS
10
2.73888
20
-6.60883
11
2.73887
21
-6.60883
0
LINE
8
BLACK
6
CONTINUOUS
10
2.73887
20
-6.60883
11
2.73886
21
-6.60883
0
LINE
8
BLACK
6
CONTINUOUS
10
2.73886
20
-6.60883
11
2.73841
21
-6.60868
0
LINE
8
BLACK
6
CONTINUOUS
10
2.73841
20
-6.60868
11
2.73795
21
-6.60854
0
LINE
8
BLACK
6
CONTINUOUS
10
2.73795
20
-6.60854
11
2.73794
21
-6.60854
0
LINE
8
BLACK
6
CONTINUOUS
10
2.73794
20
-6.60854
11
2.73793
21
-6.60853
0
LINE
8
BLACK
6
CONTINUOUS
10
2.73793
20
-6.60853
11
2.73752
21
-6.6083
0
LINE
8
BLACK
6
CONTINUOUS
10
2.73752
20
-6.6083
11
2.73709
21
-6.60807
0
LINE
8
BLACK
6
CONTINUOUS
10
2.73709
20
-6.60807
11
2.73709
21
-6.60807
0
LINE
8
BLACK
6
CONTINUOUS
10
2.73709
20
-6.60807
11
2.73708
21
-6.60806
0
LINE
8
BLACK
6
CONTINUOUS
10
2.73708
20
-6.60806
11
2.73671
21
-6.60776
0
LINE
8
BLACK
6
CONTINUOUS
10
2.73671
20
-6.60776
11
2.73634
21
-6.60745
0
LINE
8
BLACK
6
CONTINUOUS
10
2.73634
20
-6.60745
11
2.73634
21
-6.60744
0
LINE
8
BLACK
6
CONTINUOUS
10
2.73634
20
-6.60744
11
2.73633
21
-6.60744
0
LINE
8
BLACK
6
CONTINUOUS
10
2.73633
20
-6.60744
11
2.73603
21
-6.60706
0
LINE
8
BLACK
6
CONTINUOUS
10
2.73603
20
-6.60706
11
2.73573
21
-6.60669
0
LINE
8
BLACK
6
CONTINUOUS
10
2.73573
20
-6.60669
11
2.73573
21
-6.60668
0
LINE
8
BLACK
6
CONTINUOUS
10
2.73573
20
-6.60668
11
2.73572
21
-6.60667
0
LINE
8
BLACK
6
CONTINUOUS
10
2.73572
20
-6.60667
11
2.7355
21
-6.60625
0
LINE
8
BLACK
6
CONTINUOUS
10
2.7355
20
-6.60625
11
2.73527
21
-6.60583
0
LINE
8
BLACK
6
CONTINUOUS
10
2.73527
20
-6.60583
11
2.73527
21
-6.60582
0
LINE
8
BLACK
6
CONTINUOUS
10
2.73527
20
-6.60582
11
2.73527
21
-6.60581
0
LINE
8
BLACK
6
CONTINUOUS
10
2.73527
20
-6.60581
11
2.73513
21
-6.60535
0
LINE
8
BLACK
6
CONTINUOUS
10
2.73513
20
-6.60535
11
2.735
21
-6.60489
0
LINE
8
BLACK
6
CONTINUOUS
10
2.735
20
-6.60489
11
2.735
21
-6.60488
0
LINE
8
BLACK
6
CONTINUOUS
10
2.735
20
-6.60488
11
2.73499
21
-6.60487
0
LINE
8
BLACK
6
CONTINUOUS
10
2.73499
20
-6.60487
11
2.73495
21
-6.60439
0
LINE
8
BLACK
6
CONTINUOUS
10
2.73495
20
-6.60439
11
2.7349
21
-6.60392
0
LINE
8
BLACK
6
CONTINUOUS
10
2.7349
20
-6.60392
11
2.7349
21
-6.60391
0
LINE
8
BLACK
6
CONTINUOUS
10
2.7349
20
-6.60391
11
2.7349
21
-6.6039
0
LINE
8
BLACK
6
CONTINUOUS
10
2.7349
20
-6.6039
11
2.73495
21
-6.60343
0
LINE
8
BLACK
6
CONTINUOUS
10
2.73495
20
-6.60343
11
2.735
21
-6.60295
0
LINE
8
BLACK
6
CONTINUOUS
10
2.735
20
-6.60295
11
2.73501
21
-6.60294
0
LINE
8
BLACK
6
CONTINUOUS
10
2.73501
20
-6.60294
11
2.73501
21
-6.60293
0
LINE
8
BLACK
6
CONTINUOUS
10
2.73501
20
-6.60293
11
2.73515
21
-6.60247
0
LINE
8
BLACK
6
CONTINUOUS
10
2.73515
20
-6.60247
11
2.73529
21
-6.60202
0
LINE
8
BLACK
6
CONTINUOUS
10
2.73529
20
-6.60202
11
2.73529
21
-6.60201
0
LINE
8
BLACK
6
CONTINUOUS
10
2.73529
20
-6.60201
11
2.73529
21
-6.602
0
LINE
8
BLACK
6
CONTINUOUS
10
2.73529
20
-6.602
11
2.73553
21
-6.60157
0
LINE
8
BLACK
6
CONTINUOUS
10
2.73553
20
-6.60157
11
2.73575
21
-6.60116
0
LINE
8
BLACK
6
CONTINUOUS
10
2.73575
20
-6.60116
11
2.73575
21
-6.60115
0
LINE
8
BLACK
6
CONTINUOUS
10
2.73575
20
-6.60115
11
2.73576
21
-6.60114
0
LINE
8
BLACK
6
CONTINUOUS
10
2.73576
20
-6.60114
11
2.73606
21
-6.60077
0
LINE
8
BLACK
6
CONTINUOUS
10
2.73606
20
-6.60077
11
2.73637
21
-6.6004
0
LINE
8
BLACK
6
CONTINUOUS
10
2.73637
20
-6.6004
11
2.74947
21
-6.5873
0
LINE
8
BLACK
6
CONTINUOUS
10
2.74947
20
-6.5873
11
2.76243
21
-6.56791
0
LINE
8
BLACK
6
CONTINUOUS
10
2.76243
20
-6.56791
11
2.77135
21
-6.54635
0
LINE
8
BLACK
6
CONTINUOUS
10
2.77135
20
-6.54635
11
2.77591
21
-6.52347
0
LINE
8
BLACK
6
CONTINUOUS
10
2.77591
20
-6.52347
11
2.77591
21
-6.50015
0
LINE
8
BLACK
6
CONTINUOUS
10
2.77591
20
-6.50015
11
2.77135
21
-6.47727
0
LINE
8
BLACK
6
CONTINUOUS
10
2.77135
20
-6.47727
11
2.76243
21
-6.45572
0
LINE
8
BLACK
6
CONTINUOUS
10
2.76243
20
-6.45572
11
2.74947
21
-6.43632
0
LINE
8
BLACK
6
CONTINUOUS
10
2.74947
20
-6.43632
11
2.73297
21
-6.41982
0
LINE
8
BLACK
6
CONTINUOUS
10
2.73297
20
-6.41982
11
2.71358
21
-6.40686
0
LINE
8
BLACK
6
CONTINUOUS
10
2.71358
20
-6.40686
11
2.69202
21
-6.39794
0
LINE
8
BLACK
6
CONTINUOUS
10
2.69202
20
-6.39794
11
2.66914
21
-6.39339
0
LINE
8
BLACK
6
CONTINUOUS
10
2.66914
20
-6.39339
11
2.64582
21
-6.39339
0
LINE
8
BLACK
6
CONTINUOUS
10
2.64582
20
-6.39339
11
2.62294
21
-6.39794
0
LINE
8
BLACK
6
CONTINUOUS
10
2.62294
20
-6.39794
11
2.60138
21
-6.40686
0
LINE
8
BLACK
6
CONTINUOUS
10
2.60138
20
-6.40686
11
2.58199
21
-6.41982
0
LINE
8
BLACK
6
CONTINUOUS
10
2.58199
20
-6.41982
11
2.56549
21
-6.43632
0
LINE
8
BLACK
6
CONTINUOUS
10
2.56549
20
-6.43632
11
2.55253
21
-6.45572
0
LINE
8
BLACK
6
CONTINUOUS
10
2.55253
20
-6.45572
11
2.54361
21
-6.47727
0
LINE
8
BLACK
6
CONTINUOUS
10
2.54361
20
-6.47727
11
2.53906
21
-6.50015
0
LINE
8
BLACK
6
CONTINUOUS
10
2.53906
20
-6.50015
11
2.53906
21
-6.52347
0
LINE
8
BLACK
6
CONTINUOUS
10
2.53906
20
-6.52347
11
2.54361
21
-6.54635
0
LINE
8
BLACK
6
CONTINUOUS
10
2.54361
20
-6.54635
11
2.55253
21
-6.56791
0
LINE
8
BLACK
6
CONTINUOUS
10
2.55253
20
-6.56791
11
2.56549
21
-6.5873
0
LINE
8
BLACK
6
CONTINUOUS
10
2.56549
20
-6.5873
11
2.57859
21
-6.6004
0
LINE
8
BLACK
6
CONTINUOUS
10
2.57859
20
-6.6004
11
2.57863
21
-6.60044
0
LINE
8
BLACK
6
CONTINUOUS
10
2.57863
20
-6.60044
11
2.57863
21
-6.60044
0
LINE
8
BLACK
6
CONTINUOUS
10
2.57863
20
-6.60044
11
2.57863
21
-6.60044
0
LINE
8
BLACK
6
CONTINUOUS
10
2.57863
20
-6.60044
11
2.57864
21
-6.60045
0
LINE
8
BLACK
6
CONTINUOUS
10
2.57864
20
-6.60045
11
2.57894
21
-6.60083
0
LINE
8
BLACK
6
CONTINUOUS
10
2.57894
20
-6.60083
11
2.57924
21
-6.6012
0
LINE
8
BLACK
6
CONTINUOUS
10
2.57924
20
-6.6012
11
2.57924
21
-6.60121
0
LINE
8
BLACK
6
CONTINUOUS
10
2.57924
20
-6.60121
11
2.57925
21
-6.60121
0
LINE
8
BLACK
6
CONTINUOUS
10
2.57925
20
-6.60121
11
2.57947
21
-6.60164
0
LINE
8
BLACK
6
CONTINUOUS
10
2.57947
20
-6.60164
11
2.57969
21
-6.60206
0
LINE
8
BLACK
6
CONTINUOUS
10
2.57969
20
-6.60206
11
2.5797
21
-6.60207
0
LINE
8
BLACK
6
CONTINUOUS
10
2.5797
20
-6.60207
11
2.5797
21
-6.60208
0
LINE
8
BLACK
6
CONTINUOUS
10
2.5797
20
-6.60208
11
2.57983
21
-6.60254
0
LINE
8
BLACK
6
CONTINUOUS
10
2.57983
20
-6.60254
11
2.57997
21
-6.603
0
LINE
8
BLACK
6
CONTINUOUS
10
2.57997
20
-6.603
11
2.57997
21
-6.60301
0
LINE
8
BLACK
6
CONTINUOUS
10
2.57997
20
-6.60301
11
2.57997
21
-6.60302
0
LINE
8
BLACK
6
CONTINUOUS
10
2.57997
20
-6.60302
11
2.58001
21
-6.60349
0
LINE
8
BLACK
6
CONTINUOUS
10
2.58001
20
-6.60349
11
2.58006
21
-6.60397
0
LINE
8
BLACK
6
CONTINUOUS
10
2.58006
20
-6.60397
11
2.58006
21
-6.60398
0
LINE
8
BLACK
6
CONTINUOUS
10
2.58006
20
-6.60398
11
2.58006
21
-6.60399
0
LINE
8
BLACK
6
CONTINUOUS
10
2.58006
20
-6.60399
11
2.58
21
-6.60446
0
LINE
8
BLACK
6
CONTINUOUS
10
2.58
20
-6.60446
11
2.57995
21
-6.60494
0
LINE
8
BLACK
6
CONTINUOUS
10
2.57995
20
-6.60494
11
2.57995
21
-6.60495
0
LINE
8
BLACK
6
CONTINUOUS
10
2.57995
20
-6.60495
11
2.57995
21
-6.60496
0
LINE
8
BLACK
6
CONTINUOUS
10
2.57995
20
-6.60496
11
2.57981
21
-6.60541
0
LINE
8
BLACK
6
CONTINUOUS
10
2.57981
20
-6.60541
11
2.57967
21
-6.60587
0
LINE
8
BLACK
6
CONTINUOUS
10
2.57967
20
-6.60587
11
2.57966
21
-6.60588
0
LINE
8
BLACK
6
CONTINUOUS
10
2.57966
20
-6.60588
11
2.57966
21
-6.60589
0
LINE
8
BLACK
6
CONTINUOUS
10
2.57966
20
-6.60589
11
2.57943
21
-6.6063
0
LINE
8
BLACK
6
CONTINUOUS
10
2.57943
20
-6.6063
11
2.5792
21
-6.60673
0
LINE
8
BLACK
6
CONTINUOUS
10
2.5792
20
-6.60673
11
2.5792
21
-6.60674
0
LINE
8
BLACK
6
CONTINUOUS
10
2.5792
20
-6.60674
11
2.57919
21
-6.60675
0
LINE
8
BLACK
6
CONTINUOUS
10
2.57919
20
-6.60675
11
2.57889
21
-6.60711
0
LINE
8
BLACK
6
CONTINUOUS
10
2.57889
20
-6.60711
11
2.57858
21
-6.60748
0
LINE
8
BLACK
6
CONTINUOUS
10
2.57858
20
-6.60748
11
2.57857
21
-6.60749
0
LINE
8
BLACK
6
CONTINUOUS
10
2.57857
20
-6.60749
11
2.57857
21
-6.6075
0
LINE
8
BLACK
6
CONTINUOUS
10
2.57857
20
-6.6075
11
2.5782
21
-6.6078
0
LINE
8
BLACK
6
CONTINUOUS
10
2.5782
20
-6.6078
11
2.57782
21
-6.6081
0
LINE
8
BLACK
6
CONTINUOUS
10
2.57782
20
-6.6081
11
2.57782
21
-6.60811
0
LINE
8
BLACK
6
CONTINUOUS
10
2.57782
20
-6.60811
11
2.57781
21
-6.60811
0
LINE
8
BLACK
6
CONTINUOUS
10
2.57781
20
-6.60811
11
2.57739
21
-6.60833
0
LINE
8
BLACK
6
CONTINUOUS
10
2.57739
20
-6.60833
11
2.57696
21
-6.60856
0
LINE
8
BLACK
6
CONTINUOUS
10
2.57696
20
-6.60856
11
2.57695
21
-6.60856
0
LINE
8
BLACK
6
CONTINUOUS
10
2.57695
20
-6.60856
11
2.57695
21
-6.60857
0
LINE
8
BLACK
6
CONTINUOUS
10
2.57695
20
-6.60857
11
2.57649
21
-6.6087
0
LINE
8
BLACK
6
CONTINUOUS
10
2.57649
20
-6.6087
11
2.57603
21
-6.60884
0
LINE
8
BLACK
6
CONTINUOUS
10
2.57603
20
-6.60884
11
2.57602
21
-6.60884
0
LINE
8
BLACK
6
CONTINUOUS
10
2.57602
20
-6.60884
11
2.57601
21
-6.60885
0
LINE
8
BLACK
6
CONTINUOUS
10
2.57601
20
-6.60885
11
2.57554
21
-6.60889
0
LINE
8
BLACK
6
CONTINUOUS
10
2.57554
20
-6.60889
11
2.57506
21
-6.60894
0
LINE
8
BLACK
6
CONTINUOUS
10
2.57506
20
-6.60894
11
2.19134
21
-6.60894
0
LINE
8
BLACK
6
CONTINUOUS
10
2.19134
20
-6.60894
11
2.1913
21
-6.60894
0
LINE
8
BLACK
6
CONTINUOUS
10
2.1913
20
-6.60894
11
2.1913
21
-6.60894
0
LINE
8
BLACK
6
CONTINUOUS
10
2.1913
20
-6.60894
11
2.1913
21
-6.60894
0
LINE
8
BLACK
6
CONTINUOUS
10
2.1913
20
-6.60894
11
2.19127
21
-6.60894
0
LINE
8
BLACK
6
CONTINUOUS
10
2.19127
20
-6.60894
11
2.1908
21
-6.60888
0
LINE
8
BLACK
6
CONTINUOUS
10
2.1908
20
-6.60888
11
2.19033
21
-6.60883
0
LINE
8
BLACK
6
CONTINUOUS
10
2.19033
20
-6.60883
11
2.19032
21
-6.60883
0
LINE
8
BLACK
6
CONTINUOUS
10
2.19032
20
-6.60883
11
2.1903
21
-6.60883
0
LINE
8
BLACK
6
CONTINUOUS
10
2.1903
20
-6.60883
11
2.18985
21
-6.60869
0
LINE
8
BLACK
6
CONTINUOUS
10
2.18985
20
-6.60869
11
2.1894
21
-6.60855
0
LINE
8
BLACK
6
CONTINUOUS
10
2.1894
20
-6.60855
11
2.18939
21
-6.60854
0
LINE
8
BLACK
6
CONTINUOUS
10
2.18939
20
-6.60854
11
2.18937
21
-6.60853
0
LINE
8
BLACK
6
CONTINUOUS
10
2.18937
20
-6.60853
11
2.18896
21
-6.60831
0
LINE
8
BLACK
6
CONTINUOUS
10
2.18896
20
-6.60831
11
2.18854
21
-6.60808
0
LINE
8
BLACK
6
CONTINUOUS
10
2.18854
20
-6.60808
11
2.18853
21
-6.60807
0
LINE
8
BLACK
6
CONTINUOUS
10
2.18853
20
-6.60807
11
2.18851
21
-6.60806
0
LINE
8
BLACK
6
CONTINUOUS
10
2.18851
20
-6.60806
11
2.18815
21
-6.60776
0
LINE
8
BLACK
6
CONTINUOUS
10
2.18815
20
-6.60776
11
2.18779
21
-6.60746
0
LINE
8
BLACK
6
CONTINUOUS
10
2.18779
20
-6.60746
11
2.18778
21
-6.60745
0
LINE
8
BLACK
6
CONTINUOUS
10
2.18778
20
-6.60745
11
2.18777
21
-6.60744
0
LINE
8
BLACK
6
CONTINUOUS
10
2.18777
20
-6.60744
11
2.18747
21
-6.60707
0
LINE
8
BLACK
6
CONTINUOUS
10
2.18747
20
-6.60707
11
2.18717
21
-6.6067
0
LINE
8
BLACK
6
CONTINUOUS
10
2.18717
20
-6.6067
11
2.18717
21
-6.60669
0
LINE
8
BLACK
6
CONTINUOUS
10
2.18717
20
-6.60669
11
2.18715
21
-6.60667
0
LINE
8
BLACK
6
CONTINUOUS
10
2.18715
20
-6.60667
11
2.18694
21
-6.60626
0
LINE
8
BLACK
6
CONTINUOUS
10
2.18694
20
-6.60626
11
2.18672
21
-6.60584
0
LINE
8
BLACK
6
CONTINUOUS
10
2.18672
20
-6.60584
11
2.18671
21
-6.60583
0
LINE
8
BLACK
6
CONTINUOUS
10
2.18671
20
-6.60583
11
2.1867
21
-6.60581
0
LINE
8
BLACK
6
CONTINUOUS
10
2.1867
20
-6.60581
11
2.18657
21
-6.60536
0
LINE
8
BLACK
6
CONTINUOUS
10
2.18657
20
-6.60536
11
2.18643
21
-6.60491
0
LINE
8
BLACK
6
CONTINUOUS
10
2.18643
20
-6.60491
11
2.18643
21
-6.60489
0
LINE
8
BLACK
6
CONTINUOUS
10
2.18643
20
-6.60489
11
2.18643
21
-6.60487
0
LINE
8
BLACK
6
CONTINUOUS
10
2.18643
20
-6.60487
11
2.18638
21
-6.60441
0
LINE
8
BLACK
6
CONTINUOUS
10
2.18638
20
-6.60441
11
2.18634
21
-6.60394
0
LINE
8
BLACK
6
CONTINUOUS
10
2.18634
20
-6.60394
11
2.18634
21
-1.60079
0
LINE
8
BLACK
6
CONTINUOUS
10
2.18634
20
-1.60079
11
2.18634
21
-1.60075
0
LINE
8
BLACK
6
CONTINUOUS
10
4.22547
20
-6.08236
11
4.21209
21
-6.08502
0
LINE
8
BLACK
6
CONTINUOUS
10
4.21209
20
-6.08502
11
4.1995
21
-6.09024
0
LINE
8
BLACK
6
CONTINUOUS
10
4.1995
20
-6.09024
11
4.18816
21
-6.09781
0
LINE
8
BLACK
6
CONTINUOUS
10
4.18816
20
-6.09781
11
4.17852
21
-6.10745
0
LINE
8
BLACK
6
CONTINUOUS
10
4.17852
20
-6.10745
11
4.17095
21
-6.11879
0
LINE
8
BLACK
6
CONTINUOUS
10
4.17095
20
-6.11879
11
4.16573
21
-6.13139
0
LINE
8
BLACK
6
CONTINUOUS
10
4.16573
20
-6.13139
11
4.16307
21
-6.14476
0
LINE
8
BLACK
6
CONTINUOUS
10
4.16307
20
-6.14476
11
4.16307
21
-6.15839
0
LINE
8
BLACK
6
CONTINUOUS
10
4.16307
20
-6.15839
11
4.16573
21
-6.17176
0
LINE
8
BLACK
6
CONTINUOUS
10
4.16573
20
-6.17176
11
4.17095
21
-6.18436
0
LINE
8
BLACK
6
CONTINUOUS
10
4.17095
20
-6.18436
11
4.17852
21
-6.1957
0
LINE
8
BLACK
6
CONTINUOUS
10
4.17852
20
-6.1957
11
4.18816
21
-6.20534
0
LINE
8
BLACK
6
CONTINUOUS
10
4.18816
20
-6.20534
11
4.1995
21
-6.21291
0
LINE
8
BLACK
6
CONTINUOUS
10
4.1995
20
-6.21291
11
4.21209
21
-6.21813
0
LINE
8
BLACK
6
CONTINUOUS
10
4.21209
20
-6.21813
11
4.22547
21
-6.22079
0
LINE
8
BLACK
6
CONTINUOUS
10
4.22547
20
-6.22079
11
4.2391
21
-6.22079
0
LINE
8
BLACK
6
CONTINUOUS
10
4.2391
20
-6.22079
11
4.25247
21
-6.21813
0
LINE
8
BLACK
6
CONTINUOUS
10
4.25247
20
-6.21813
11
4.26507
21
-6.21291
0
LINE
8
BLACK
6
CONTINUOUS
10
4.26507
20
-6.21291
11
4.2764
21
-6.20534
0
LINE
8
BLACK
6
CONTINUOUS
10
4.2764
20
-6.20534
11
4.28604
21
-6.1957
0
LINE
8
BLACK
6
CONTINUOUS
10
4.28604
20
-6.1957
11
4.29362
21
-6.18436
0
LINE
8
BLACK
6
CONTINUOUS
10
4.29362
20
-6.18436
11
4.29884
21
-6.17176
0
LINE
8
BLACK
6
CONTINUOUS
10
4.29884
20
-6.17176
11
4.3015
21
-6.15839
0
LINE
8
BLACK
6
CONTINUOUS
10
4.3015
20
-6.15839
11
4.3015
21
-6.14476
0
LINE
8
BLACK
6
CONTINUOUS
10
4.3015
20
-6.14476
11
4.29884
21
-6.13139
0
LINE
8
BLACK
6
CONTINUOUS
10
4.29884
20
-6.13139
11
4.29362
21
-6.11879
0
LINE
8
BLACK
6
CONTINUOUS
10
4.29362
20
-6.11879
11
4.28604
21
-6.10745
0
LINE
8
BLACK
6
CONTINUOUS
10
4.28604
20
-6.10745
11
4.2764
21
-6.09781
0
LINE
8
BLACK
6
CONTINUOUS
10
4.2764
20
-6.09781
11
4.26507
21
-6.09024
0
LINE
8
BLACK
6
CONTINUOUS
10
4.26507
20
-6.09024
11
4.25247
21
-6.08502
0
LINE
8
BLACK
6
CONTINUOUS
10
4.25247
20
-6.08502
11
4.2391
21
-6.08236
0
LINE
8
BLACK
6
CONTINUOUS
10
4.2391
20
-6.08236
11
4.22547
21
-6.08236
0
LINE
8
BLACK
6
CONTINUOUS
10
2.4735
20
-6.08236
11
2.46013
21
-6.08502
0
LINE
8
BLACK
6
CONTINUOUS
10
2.46013
20
-6.08502
11
2.44753
21
-6.09024
0
LINE
8
BLACK
6
CONTINUOUS
10
2.44753
20
-6.09024
11
2.43619
21
-6.09781
0
LINE
8
BLACK
6
CONTINUOUS
10
2.43619
20
-6.09781
11
2.42655
21
-6.10745
0
LINE
8
BLACK
6
CONTINUOUS
10
2.42655
20
-6.10745
11
2.41898
21
-6.11879
0
LINE
8
BLACK
6
CONTINUOUS
10
2.41898
20
-6.11879
11
2.41376
21
-6.13139
0
LINE
8
BLACK
6
CONTINUOUS
10
2.41376
20
-6.13139
11
2.4111
21
-6.14476
0
LINE
8
BLACK
6
CONTINUOUS
10
2.4111
20
-6.14476
11
2.4111
21
-6.15839
0
LINE
8
BLACK
6
CONTINUOUS
10
2.4111
20
-6.15839
11
2.41376
21
-6.17176
0
LINE
8
BLACK
6
CONTINUOUS
10
2.41376
20
-6.17176
11
2.41898
21
-6.18436
0
LINE
8
BLACK
6
CONTINUOUS
10
2.41898
20
-6.18436
11
2.42655
21
-6.1957
0
LINE
8
BLACK
6
CONTINUOUS
10
2.42655
20
-6.1957
11
2.43619
21
-6.20534
0
LINE
8
BLACK
6
CONTINUOUS
10
2.43619
20
-6.20534
11
2.44753
21
-6.21291
0
LINE
8
BLACK
6
CONTINUOUS
10
2.44753
20
-6.21291
11
2.46013
21
-6.21813
0
LINE
8
BLACK
6
CONTINUOUS
10
2.46013
20
-6.21813
11
2.4735
21
-6.22079
0
LINE
8
BLACK
6
CONTINUOUS
10
2.4735
20
-6.22079
11
2.48713
21
-6.22079
0
LINE
8
BLACK
6
CONTINUOUS
10
2.48713
20
-6.22079
11
2.5005
21
-6.21813
0
LINE
8
BLACK
6
CONTINUOUS
10
2.5005
20
-6.21813
11
2.5131
21
-6.21291
0
LINE
8
BLACK
6
CONTINUOUS
10
2.5131
20
-6.21291
11
2.52444
21
-6.20534
0
LINE
8
BLACK
6
CONTINUOUS
10
2.52444
20
-6.20534
11
2.53408
21
-6.1957
0
LINE
8
BLACK
6
CONTINUOUS
10
2.53408
20
-6.1957
11
2.54165
21
-6.18436
0
LINE
8
BLACK
6
CONTINUOUS
10
2.54165
20
-6.18436
11
2.54687
21
-6.17176
0
LINE
8
BLACK
6
CONTINUOUS
10
2.54687
20
-6.17176
11
2.54953
21
-6.15839
0
LINE
8
BLACK
6
CONTINUOUS
10
2.54953
20
-6.15839
11
2.54953
21
-6.14476
0
LINE
8
BLACK
6
CONTINUOUS
10
2.54953
20
-6.14476
11
2.54687
21
-6.13139
0
LINE
8
BLACK
6
CONTINUOUS
10
2.54687
20
-6.13139
11
2.54165
21
-6.11879
0
LINE
8
BLACK
6
CONTINUOUS
10
2.54165
20
-6.11879
11
2.53408
21
-6.10745
0
LINE
8
BLACK
6
CONTINUOUS
10
2.53408
20
-6.10745
11
2.52444
21
-6.09781
0
LINE
8
BLACK
6
CONTINUOUS
10
2.52444
20
-6.09781
11
2.5131
21
-6.09024
0
LINE
8
BLACK
6
CONTINUOUS
10
2.5131
20
-6.09024
11
2.5005
21
-6.08502
0
LINE
8
BLACK
6
CONTINUOUS
10
2.5005
20
-6.08502
11
2.48713
21
-6.08236
0
LINE
8
BLACK
6
CONTINUOUS
10
2.48713
20
-6.08236
11
2.4735
21
-6.08236
0
LINE
8
BLACK
6
CONTINUOUS
10
2.54468
20
-5.63157
11
2.51647
21
-5.63718
0
LINE
8
BLACK
6
CONTINUOUS
10
2.51647
20
-5.63718
11
2.48991
21
-5.64819
0
LINE
8
BLACK
6
CONTINUOUS
10
2.48991
20
-5.64819
11
2.466
21
-5.66417
0
LINE
8
BLACK
6
CONTINUOUS
10
2.466
20
-5.66417
11
2.44566
21
-5.6845
0
LINE
8
BLACK
6
CONTINUOUS
10
2.44566
20
-5.6845
11
2.42969
21
-5.70841
0
LINE
8
BLACK
6
CONTINUOUS
10
2.42969
20
-5.70841
11
2.41868
21
-5.73498
0
LINE
8
BLACK
6
CONTINUOUS
10
2.41868
20
-5.73498
11
2.41307
21
-5.76318
0
LINE
8
BLACK
6
CONTINUOUS
10
2.41307
20
-5.76318
11
2.41307
21
-5.79194
0
LINE
8
BLACK
6
CONTINUOUS
10
2.41307
20
-5.79194
11
2.41868
21
-5.82014
0
LINE
8
BLACK
6
CONTINUOUS
10
2.41868
20
-5.82014
11
2.42969
21
-5.84671
0
LINE
8
BLACK
6
CONTINUOUS
10
2.42969
20
-5.84671
11
2.44566
21
-5.87062
0
LINE
8
BLACK
6
CONTINUOUS
10
2.44566
20
-5.87062
11
2.466
21
-5.89095
0
LINE
8
BLACK
6
CONTINUOUS
10
2.466
20
-5.89095
11
2.48991
21
-5.90693
0
LINE
8
BLACK
6
CONTINUOUS
10
2.48991
20
-5.90693
11
2.51647
21
-5.91793
0
LINE
8
BLACK
6
CONTINUOUS
10
2.51647
20
-5.91793
11
2.54468
21
-5.92354
0
LINE
8
BLACK
6
CONTINUOUS
10
2.54468
20
-5.92354
11
2.57343
21
-5.92354
0
LINE
8
BLACK
6
CONTINUOUS
10
2.57343
20
-5.92354
11
2.60164
21
-5.91793
0
LINE
8
BLACK
6
CONTINUOUS
10
2.60164
20
-5.91793
11
2.6282
21
-5.90693
0
LINE
8
BLACK
6
CONTINUOUS
10
2.6282
20
-5.90693
11
2.65211
21
-5.89095
0
LINE
8
BLACK
6
CONTINUOUS
10
2.65211
20
-5.89095
11
2.67245
21
-5.87062
0
LINE
8
BLACK
6
CONTINUOUS
10
2.67245
20
-5.87062
11
2.68842
21
-5.84671
0
LINE
8
BLACK
6
CONTINUOUS
10
2.68842
20
-5.84671
11
2.69943
21
-5.82014
0
LINE
8
BLACK
6
CONTINUOUS
10
2.69943
20
-5.82014
11
2.70504
21
-5.79194
0
LINE
8
BLACK
6
CONTINUOUS
10
2.70504
20
-5.79194
11
2.70504
21
-5.76318
0
LINE
8
BLACK
6
CONTINUOUS
10
2.70504
20
-5.76318
11
2.69943
21
-5.73498
0
LINE
8
BLACK
6
CONTINUOUS
10
2.69943
20
-5.73498
11
2.68842
21
-5.70841
0
LINE
8
BLACK
6
CONTINUOUS
10
2.68842
20
-5.70841
11
2.67245
21
-5.6845
0
LINE
8
BLACK
6
CONTINUOUS
10
2.67245
20
-5.6845
11
2.65211
21
-5.66417
0
LINE
8
BLACK
6
CONTINUOUS
10
2.65211
20
-5.66417
11
2.6282
21
-5.64819
0
LINE
8
BLACK
6
CONTINUOUS
10
2.6282
20
-5.64819
11
2.60164
21
-5.63718
0
LINE
8
BLACK
6
CONTINUOUS
10
2.60164
20
-5.63718
11
2.57343
21
-5.63157
0
LINE
8
BLACK
6
CONTINUOUS
10
2.57343
20
-5.63157
11
2.54468
21
-5.63157
0
LINE
8
BLACK
6
CONTINUOUS
10
2.49192
20
-5.08945
11
2.46447
21
-5.09491
0
LINE
8
BLACK
6
CONTINUOUS
10
2.46447
20
-5.09491
11
2.43862
21
-5.10562
0
LINE
8
BLACK
6
CONTINUOUS
10
2.43862
20
-5.10562
11
2.41536
21
-5.12116
0
LINE
8
BLACK
6
CONTINUOUS
10
2.41536
20
-5.12116
11
2.39557
21
-5.14095
0
LINE
8
BLACK
6
CONTINUOUS
10
2.39557
20
-5.14095
11
2.38002
21
-5.16421
0
LINE
8
BLACK
6
CONTINUOUS
10
2.38002
20
-5.16421
11
2.36932
21
-5.19006
0
LINE
8
BLACK
6
CONTINUOUS
10
2.36932
20
-5.19006
11
2.36386
21
-5.21751
0
LINE
8
BLACK
6
CONTINUOUS
10
2.36386
20
-5.21751
11
2.36386
21
-5.24549
0
LINE
8
BLACK
6
CONTINUOUS
10
2.36386
20
-5.24549
11
2.36932
21
-5.27293
0
LINE
8
BLACK
6
CONTINUOUS
10
2.36932
20
-5.27293
11
2.38002
21
-5.29878
0
LINE
8
BLACK
6
CONTINUOUS
10
2.38002
20
-5.29878
11
2.39557
21
-5.32205
0
LINE
8
BLACK
6
CONTINUOUS
10
2.39557
20
-5.32205
11
2.41536
21
-5.34183
0
LINE
8
BLACK
6
CONTINUOUS
10
2.41536
20
-5.34183
11
2.43862
21
-5.35738
0
LINE
8
BLACK
6
CONTINUOUS
10
2.43862
20
-5.35738
11
2.46447
21
-5.36808
0
LINE
8
BLACK
6
CONTINUOUS
10
2.46447
20
-5.36808
11
2.49192
21
-5.37354
0
LINE
8
BLACK
6
CONTINUOUS
10
2.49192
20
-5.37354
11
2.5199
21
-5.37354
0
LINE
8
BLACK
6
CONTINUOUS
10
2.5199
20
-5.37354
11
2.54734
21
-5.36808
0
LINE
8
BLACK
6
CONTINUOUS
10
2.54734
20
-5.36808
11
2.57319
21
-5.35738
0
LINE
8
BLACK
6
CONTINUOUS
10
2.57319
20
-5.35738
11
2.59646
21
-5.34183
0
LINE
8
BLACK
6
CONTINUOUS
10
2.59646
20
-5.34183
11
2.61624
21
-5.32205
0
LINE
8
BLACK
6
CONTINUOUS
10
2.61624
20
-5.32205
11
2.63179
21
-5.29878
0
LINE
8
BLACK
6
CONTINUOUS
10
2.63179
20
-5.29878
11
2.64249
21
-5.27293
0
LINE
8
BLACK
6
CONTINUOUS
10
2.64249
20
-5.27293
11
2.64795
21
-5.24549
0
LINE
8
BLACK
6
CONTINUOUS
10
2.64795
20
-5.24549
11
2.64795
21
-5.21751
0
LINE
8
BLACK
6
CONTINUOUS
10
2.64795
20
-5.21751
11
2.64249
21
-5.19006
0
LINE
8
BLACK
6
CONTINUOUS
10
2.64249
20
-5.19006
11
2.63179
21
-5.16421
0
LINE
8
BLACK
6
CONTINUOUS
10
2.63179
20
-5.16421
11
2.61624
21
-5.14095
0
LINE
8
BLACK
6
CONTINUOUS
10
2.61624
20
-5.14095
11
2.59646
21
-5.12116
0
LINE
8
BLACK
6
CONTINUOUS
10
2.59646
20
-5.12116
11
2.57319
21
-5.10562
0
LINE
8
BLACK
6
CONTINUOUS
10
2.57319
20
-5.10562
11
2.54734
21
-5.09491
0
LINE
8
BLACK
6
CONTINUOUS
10
2.54734
20
-5.09491
11
2.5199
21
-5.08945
0
LINE
8
BLACK
6
CONTINUOUS
10
2.5199
20
-5.08945
11
2.49192
21
-5.08945
0
LINE
8
BLACK
6
CONTINUOUS
10
3.34616
20
-4.82055
11
3.33012
21
-4.82374
0
LINE
8
BLACK
6
CONTINUOUS
10
3.33012
20
-4.82374
11
3.31502
21
-4.83
0
LINE
8
BLACK
6
CONTINUOUS
10
3.31502
20
-4.83
11
3.30143
21
-4.83908
0
LINE
8
BLACK
6
CONTINUOUS
10
3.30143
20
-4.83908
11
3.28987
21
-4.85064
0
LINE
8
BLACK
6
CONTINUOUS
10
3.28987
20
-4.85064
11
3.28078
21
-4.86423
0
LINE
8
BLACK
6
CONTINUOUS
10
3.28078
20
-4.86423
11
3.27453
21
-4.87934
0
LINE
8
BLACK
6
CONTINUOUS
10
3.27453
20
-4.87934
11
3.27134
21
-4.89537
0
LINE
8
BLACK
6
CONTINUOUS
10
3.27134
20
-4.89537
11
3.27134
21
-4.91172
0
LINE
8
BLACK
6
CONTINUOUS
10
3.27134
20
-4.91172
11
3.27453
21
-4.92775
0
LINE
8
BLACK
6
CONTINUOUS
10
3.27453
20
-4.92775
11
3.28078
21
-4.94285
0
LINE
8
BLACK
6
CONTINUOUS
10
3.28078
20
-4.94285
11
3.28987
21
-4.95645
0
LINE
8
BLACK
6
CONTINUOUS
10
3.28987
20
-4.95645
11
3.30143
21
-4.96801
0
LINE
8
BLACK
6
CONTINUOUS
10
3.30143
20
-4.96801
11
3.31502
21
-4.97709
0
LINE
8
BLACK
6
CONTINUOUS
10
3.31502
20
-4.97709
11
3.33012
21
-4.98335
0
LINE
8
BLACK
6
CONTINUOUS
10
3.33012
20
-4.98335
11
3.34616
21
-4.98654
0
LINE
8
BLACK
6
CONTINUOUS
10
3.34616
20
-4.98654
11
3.3625
21
-4.98654
0
LINE
8
BLACK
6
CONTINUOUS
10
3.3625
20
-4.98654
11
3.37854
21
-4.98335
0
LINE
8
BLACK
6
CONTINUOUS
10
3.37854
20
-4.98335
11
3.39364
21
-4.97709
0
LINE
8
BLACK
6
CONTINUOUS
10
3.39364
20
-4.97709
11
3.40724
21
-4.96801
0
LINE
8
BLACK
6
CONTINUOUS
10
3.40724
20
-4.96801
11
3.41879
21
-4.95645
0
LINE
8
BLACK
6
CONTINUOUS
10
3.41879
20
-4.95645
11
3.42788
21
-4.94285
0
LINE
8
BLACK
6
CONTINUOUS
10
3.42788
20
-4.94285
11
3.43413
21
-4.92775
0
LINE
8
BLACK
6
CONTINUOUS
10
3.43413
20
-4.92775
11
3.43732
21
-4.91172
0
LINE
8
BLACK
6
CONTINUOUS
10
3.43732
20
-4.91172
11
3.43732
21
-4.89537
0
LINE
8
BLACK
6
CONTINUOUS
10
3.43732
20
-4.89537
11
3.43413
21
-4.87934
0
LINE
8
BLACK
6
CONTINUOUS
10
3.43413
20
-4.87934
11
3.42788
21
-4.86423
0
LINE
8
BLACK
6
CONTINUOUS
10
3.42788
20
-4.86423
11
3.41879
21
-4.85064
0
LINE
8
BLACK
6
CONTINUOUS
10
3.41879
20
-4.85064
11
3.40724
21
-4.83908
0
LINE
8
BLACK
6
CONTINUOUS
10
3.40724
20
-4.83908
11
3.39364
21
-4.83
0
LINE
8
BLACK
6
CONTINUOUS
10
3.39364
20
-4.83
11
3.37854
21
-4.82374
0
LINE
8
BLACK
6
CONTINUOUS
10
3.37854
20
-4.82374
11
3.3625
21
-4.82055
0
LINE
8
BLACK
6
CONTINUOUS
10
3.3625
20
-4.82055
11
3.34616
21
-4.82055
0
LINE
8
BLACK
6
CONTINUOUS
10
2.52038
20
-4.72016
11
2.50245
21
-4.72373
0
LINE
8
BLACK
6
CONTINUOUS
10
2.50245
20
-4.72373
11
2.48555
21
-4.73072
0
LINE
8
BLACK
6
CONTINUOUS
10
2.48555
20
-4.73072
11
2.47035
21
-4.74088
0
LINE
8
BLACK
6
CONTINUOUS
10
2.47035
20
-4.74088
11
2.45742
21
-4.75381
0
LINE
8
BLACK
6
CONTINUOUS
10
2.45742
20
-4.75381
11
2.44726
21
-4.76902
0
LINE
8
BLACK
6
CONTINUOUS
10
2.44726
20
-4.76902
11
2.44026
21
-4.78591
0
LINE
8
BLACK
6
CONTINUOUS
10
2.44026
20
-4.78591
11
2.43669
21
-4.80385
0
LINE
8
BLACK
6
CONTINUOUS
10
2.43669
20
-4.80385
11
2.43669
21
-4.82214
0
LINE
8
BLACK
6
CONTINUOUS
10
2.43669
20
-4.82214
11
2.44026
21
-4.84007
0
LINE
8
BLACK
6
CONTINUOUS
10
2.44026
20
-4.84007
11
2.44726
21
-4.85697
0
LINE
8
BLACK
6
CONTINUOUS
10
2.44726
20
-4.85697
11
2.45742
21
-4.87217
0
LINE
8
BLACK
6
CONTINUOUS
10
2.45742
20
-4.87217
11
2.47035
21
-4.8851
0
LINE
8
BLACK
6
CONTINUOUS
10
2.47035
20
-4.8851
11
2.48555
21
-4.89526
0
LINE
8
BLACK
6
CONTINUOUS
10
2.48555
20
-4.89526
11
2.50245
21
-4.90226
0
LINE
8
BLACK
6
CONTINUOUS
10
2.50245
20
-4.90226
11
2.52038
21
-4.90583
0
LINE
8
BLACK
6
CONTINUOUS
10
2.52038
20
-4.90583
11
2.53867
21
-4.90583
0
LINE
8
BLACK
6
CONTINUOUS
10
2.53867
20
-4.90583
11
2.55661
21
-4.90226
0
LINE
8
BLACK
6
CONTINUOUS
10
2.55661
20
-4.90226
11
2.5735
21
-4.89526
0
LINE
8
BLACK
6
CONTINUOUS
10
2.5735
20
-4.89526
11
2.5803
21
-4.89072
0
LINE
8
BLACK
6
CONTINUOUS
10
2.5803
20
-4.89072
11
2.5803
21
-4.89072
0
LINE
8
BLACK
6
CONTINUOUS
10
2.5803
20
-4.89072
11
2.58871
21
-4.8851
0
LINE
8
BLACK
6
CONTINUOUS
10
2.58871
20
-4.8851
11
2.60164
21
-4.87217
0
LINE
8
BLACK
6
CONTINUOUS
10
2.60164
20
-4.87217
11
2.6118
21
-4.85697
0
LINE
8
BLACK
6
CONTINUOUS
10
2.6118
20
-4.85697
11
2.61879
21
-4.84007
0
LINE
8
BLACK
6
CONTINUOUS
10
2.61879
20
-4.84007
11
2.62236
21
-4.82214
0
LINE
8
BLACK
6
CONTINUOUS
10
2.62236
20
-4.82214
11
2.62236
21
-4.80385
0
LINE
8
BLACK
6
CONTINUOUS
10
2.62236
20
-4.80385
11
2.61879
21
-4.78591
0
LINE
8
BLACK
6
CONTINUOUS
10
2.61879
20
-4.78591
11
2.6118
21
-4.76902
0
LINE
8
BLACK
6
CONTINUOUS
10
2.6118
20
-4.76902
11
2.60164
21
-4.75381
0
LINE
8
BLACK
6
CONTINUOUS
10
2.60164
20
-4.75381
11
2.58871
21
-4.74088
0
LINE
8
BLACK
6
CONTINUOUS
10
2.58871
20
-4.74088
11
2.5735
21
-4.73072
0
LINE
8
BLACK
6
CONTINUOUS
10
2.5735
20
-4.73072
11
2.55661
21
-4.72373
0
LINE
8
BLACK
6
CONTINUOUS
10
2.55661
20
-4.72373
11
2.53867
21
-4.72016
0
LINE
8
BLACK
6
CONTINUOUS
10
2.53867
20
-4.72016
11
2.52038
21
-4.72016
0
LINE
8
BLACK
6
CONTINUOUS
10
2.52135
20
-4.45441
11
2.50532
21
-4.4576
0
LINE
8
BLACK
6
CONTINUOUS
10
2.50532
20
-4.4576
11
2.49022
21
-4.46385
0
LINE
8
BLACK
6
CONTINUOUS
10
2.49022
20
-4.46385
11
2.47662
21
-4.47294
0
LINE
8
BLACK
6
CONTINUOUS
10
2.47662
20
-4.47294
11
2.46506
21
-4.4845
0
LINE
8
BLACK
6
CONTINUOUS
10
2.46506
20
-4.4845
11
2.45598
21
-4.49809
0
LINE
8
BLACK
6
CONTINUOUS
10
2.45598
20
-4.49809
11
2.44972
21
-4.51319
0
LINE
8
BLACK
6
CONTINUOUS
10
2.44972
20
-4.51319
11
2.44654
21
-4.52923
0
LINE
8
BLACK
6
CONTINUOUS
10
2.44654
20
-4.52923
11
2.44654
21
-4.54558
0
LINE
8
BLACK
6
CONTINUOUS
10
2.44654
20
-4.54558
11
2.44972
21
-4.56161
0
LINE
8
BLACK
6
CONTINUOUS
10
2.44972
20
-4.56161
11
2.45598
21
-4.57671
0
LINE
8
BLACK
6
CONTINUOUS
10
2.45598
20
-4.57671
11
2.46506
21
-4.59031
0
LINE
8
BLACK
6
CONTINUOUS
10
2.46506
20
-4.59031
11
2.47662
21
-4.60187
0
LINE
8
BLACK
6
CONTINUOUS
10
2.47662
20
-4.60187
11
2.49022
21
-4.61095
0
LINE
8
BLACK
6
CONTINUOUS
10
2.49022
20
-4.61095
11
2.50532
21
-4.6172
0
LINE
8
BLACK
6
CONTINUOUS
10
2.50532
20
-4.6172
11
2.52135
21
-4.62039
0
LINE
8
BLACK
6
CONTINUOUS
10
2.52135
20
-4.62039
11
2.5377
21
-4.62039
0
LINE
8
BLACK
6
CONTINUOUS
10
2.5377
20
-4.62039
11
2.55374
21
-4.6172
0
LINE
8
BLACK
6
CONTINUOUS
10
2.55374
20
-4.6172
11
2.56884
21
-4.61095
0
LINE
8
BLACK
6
CONTINUOUS
10
2.56884
20
-4.61095
11
2.58243
21
-4.60187
0
LINE
8
BLACK
6
CONTINUOUS
10
2.58243
20
-4.60187
11
2.59399
21
-4.59031
0
LINE
8
BLACK
6
CONTINUOUS
10
2.59399
20
-4.59031
11
2.60307
21
-4.57671
0
LINE
8
BLACK
6
CONTINUOUS
10
2.60307
20
-4.57671
11
2.60933
21
-4.56161
0
LINE
8
BLACK
6
CONTINUOUS
10
2.60933
20
-4.56161
11
2.61252
21
-4.54558
0
LINE
8
BLACK
6
CONTINUOUS
10
2.61252
20
-4.54558
11
2.61252
21
-4.52923
0
LINE
8
BLACK
6
CONTINUOUS
10
2.61252
20
-4.52923
11
2.60933
21
-4.51319
0
LINE
8
BLACK
6
CONTINUOUS
10
2.60933
20
-4.51319
11
2.60307
21
-4.49809
0
LINE
8
BLACK
6
CONTINUOUS
10
2.60307
20
-4.49809
11
2.59399
21
-4.4845
0
LINE
8
BLACK
6
CONTINUOUS
10
2.59399
20
-4.4845
11
2.58243
21
-4.47294
0
LINE
8
BLACK
6
CONTINUOUS
10
2.58243
20
-4.47294
11
2.56884
21
-4.46385
0
LINE
8
BLACK
6
CONTINUOUS
10
2.56884
20
-4.46385
11
2.55374
21
-4.4576
0
LINE
8
BLACK
6
CONTINUOUS
10
2.55374
20
-4.4576
11
2.5377
21
-4.45441
0
LINE
8
BLACK
6
CONTINUOUS
10
2.5377
20
-4.45441
11
2.52135
21
-4.45441
0
LINE
8
BLACK
6
CONTINUOUS
10
3.33995
20
-4.11583
11
3.31175
21
-4.12144
0
LINE
8
BLACK
6
CONTINUOUS
10
3.31175
20
-4.12144
11
3.28518
21
-4.13244
0
LINE
8
BLACK
6
CONTINUOUS
10
3.28518
20
-4.13244
11
3.26127
21
-4.14842
0
LINE
8
BLACK
6
CONTINUOUS
10
3.26127
20
-4.14842
11
3.24094
21
-4.16875
0
LINE
8
BLACK
6
CONTINUOUS
10
3.24094
20
-4.16875
11
3.22496
21
-4.19266
0
LINE
8
BLACK
6
CONTINUOUS
10
3.22496
20
-4.19266
11
3.21396
21
-4.21923
0
LINE
8
BLACK
6
CONTINUOUS
10
3.21396
20
-4.21923
11
3.20835
21
-4.24743
0
LINE
8
BLACK
6
CONTINUOUS
10
3.20835
20
-4.24743
11
3.20835
21
-4.27619
0
LINE
8
BLACK
6
CONTINUOUS
10
3.20835
20
-4.27619
11
3.21396
21
-4.30439
0
LINE
8
BLACK
6
CONTINUOUS
10
3.21396
20
-4.30439
11
3.22496
21
-4.33096
0
LINE
8
BLACK
6
CONTINUOUS
10
3.22496
20
-4.33096
11
3.24094
21
-4.35487
0
LINE
8
BLACK
6
CONTINUOUS
10
3.24094
20
-4.35487
11
3.26127
21
-4.3752
0
LINE
8
BLACK
6
CONTINUOUS
10
3.26127
20
-4.3752
11
3.28518
21
-4.39118
0
LINE
8
BLACK
6
CONTINUOUS
10
3.28518
20
-4.39118
11
3.31175
21
-4.40219
0
LINE
8
BLACK
6
CONTINUOUS
10
3.31175
20
-4.40219
11
3.33995
21
-4.4078
0
LINE
8
BLACK
6
CONTINUOUS
10
3.33995
20
-4.4078
11
3.36871
21
-4.4078
0
LINE
8
BLACK
6
CONTINUOUS
10
3.36871
20
-4.4078
11
3.39691
21
-4.40219
0
LINE
8
BLACK
6
CONTINUOUS
10
3.39691
20
-4.40219
11
3.42348
21
-4.39118
0
LINE
8
BLACK
6
CONTINUOUS
10
3.42348
20
-4.39118
11
3.44739
21
-4.3752
0
LINE
8
BLACK
6
CONTINUOUS
10
3.44739
20
-4.3752
11
3.46772
21
-4.35487
0
LINE
8
BLACK
6
CONTINUOUS
10
3.46772
20
-4.35487
11
3.4837
21
-4.33096
0
LINE
8
BLACK
6
CONTINUOUS
10
3.4837
20
-4.33096
11
3.4947
21
-4.30439
0
LINE
8
BLACK
6
CONTINUOUS
10
3.4947
20
-4.30439
11
3.50031
21
-4.27619
0
LINE
8
BLACK
6
CONTINUOUS
10
3.50031
20
-4.27619
11
3.50031
21
-4.24743
0
LINE
8
BLACK
6
CONTINUOUS
10
3.50031
20
-4.24743
11
3.4947
21
-4.21923
0
LINE
8
BLACK
6
CONTINUOUS
10
3.4947
20
-4.21923
11
3.4837
21
-4.19266
0
LINE
8
BLACK
6
CONTINUOUS
10
3.4837
20
-4.19266
11
3.46772
21
-4.16875
0
LINE
8
BLACK
6
CONTINUOUS
10
3.46772
20
-4.16875
11
3.45653
21
-4.15756
0
LINE
8
BLACK
6
CONTINUOUS
10
3.45653
20
-4.15756
11
3.45653
21
-4.15755
0
LINE
8
BLACK
6
CONTINUOUS
10
3.45653
20
-4.15755
11
3.44739
21
-4.14842
0
LINE
8
BLACK
6
CONTINUOUS
10
3.44739
20
-4.14842
11
3.42348
21
-4.13244
0
LINE
8
BLACK
6
CONTINUOUS
10
3.42348
20
-4.13244
11
3.39691
21
-4.12144
0
LINE
8
BLACK
6
CONTINUOUS
10
3.39691
20
-4.12144
11
3.36871
21
-4.11583
0
LINE
8
BLACK
6
CONTINUOUS
10
3.36871
20
-4.11583
11
3.33995
21
-4.11583
0
LINE
8
BLACK
6
CONTINUOUS
10
4.12577
20
-4.02646
11
4.09833
21
-4.03192
0
LINE
8
BLACK
6
CONTINUOUS
10
4.09833
20
-4.03192
11
4.07248
21
-4.04262
0
LINE
8
BLACK
6
CONTINUOUS
10
4.07248
20
-4.04262
11
4.04921
21
-4.05817
0
LINE
8
BLACK
6
CONTINUOUS
10
4.04921
20
-4.05817
11
4.02943
21
-4.07795
0
LINE
8
BLACK
6
CONTINUOUS
10
4.02943
20
-4.07795
11
4.01388
21
-4.10122
0
LINE
8
BLACK
6
CONTINUOUS
10
4.01388
20
-4.10122
11
4.00318
21
-4.12707
0
LINE
8
BLACK
6
CONTINUOUS
10
4.00318
20
-4.12707
11
3.99772
21
-4.15451
0
LINE
8
BLACK
6
CONTINUOUS
10
3.99772
20
-4.15451
11
3.99772
21
-4.18249
0
LINE
8
BLACK
6
CONTINUOUS
10
3.99772
20
-4.18249
11
4.00318
21
-4.20994
0
LINE
8
BLACK
6
CONTINUOUS
10
4.00318
20
-4.20994
11
4.01388
21
-4.23579
0
LINE
8
BLACK
6
CONTINUOUS
10
4.01388
20
-4.23579
11
4.02943
21
-4.25905
0
LINE
8
BLACK
6
CONTINUOUS
10
4.02943
20
-4.25905
11
4.04921
21
-4.27884
0
LINE
8
BLACK
6
CONTINUOUS
10
4.04921
20
-4.27884
11
4.07248
21
-4.29438
0
LINE
8
BLACK
6
CONTINUOUS
10
4.07248
20
-4.29438
11
4.09833
21
-4.30509
0
LINE
8
BLACK
6
CONTINUOUS
10
4.09833
20
-4.30509
11
4.12577
21
-4.31055
0
LINE
8
BLACK
6
CONTINUOUS
10
4.12577
20
-4.31055
11
4.15375
21
-4.31055
0
LINE
8
BLACK
6
CONTINUOUS
10
4.15375
20
-4.31055
11
4.1812
21
-4.30509
0
LINE
8
BLACK
6
CONTINUOUS
10
4.1812
20
-4.30509
11
4.20705
21
-4.29438
0
LINE
8
BLACK
6
CONTINUOUS
10
4.20705
20
-4.29438
11
4.23031
21
-4.27884
0
LINE
8
BLACK
6
CONTINUOUS
10
4.23031
20
-4.27884
11
4.2501
21
-4.25905
0
LINE
8
BLACK
6
CONTINUOUS
10
4.2501
20
-4.25905
11
4.26564
21
-4.23579
0
LINE
8
BLACK
6
CONTINUOUS
10
4.26564
20
-4.23579
11
4.27635
21
-4.20994
0
LINE
8
BLACK
6
CONTINUOUS
10
4.27635
20
-4.20994
11
4.28181
21
-4.18249
0
LINE
8
BLACK
6
CONTINUOUS
10
4.28181
20
-4.18249
11
4.28181
21
-4.15451
0
LINE
8
BLACK
6
CONTINUOUS
10
4.28181
20
-4.15451
11
4.27635
21
-4.12707
0
LINE
8
BLACK
6
CONTINUOUS
10
4.27635
20
-4.12707
11
4.26564
21
-4.10122
0
LINE
8
BLACK
6
CONTINUOUS
10
4.26564
20
-4.10122
11
4.2501
21
-4.07795
0
LINE
8
BLACK
6
CONTINUOUS
10
4.2501
20
-4.07795
11
4.23031
21
-4.05817
0
LINE
8
BLACK
6
CONTINUOUS
10
4.23031
20
-4.05817
11
4.20705
21
-4.04262
0
LINE
8
BLACK
6
CONTINUOUS
10
4.20705
20
-4.04262
11
4.1812
21
-4.03192
0
LINE
8
BLACK
6
CONTINUOUS
10
4.1812
20
-4.03192
11
4.15375
21
-4.02646
0
LINE
8
BLACK
6
CONTINUOUS
10
4.15375
20
-4.02646
11
4.12577
21
-4.02646
0
LINE
8
BLACK
6
CONTINUOUS
10
2.49192
20
-4.02646
11
2.46447
21
-4.03192
0
LINE
8
BLACK
6
CONTINUOUS
10
2.46447
20
-4.03192
11
2.43862
21
-4.04262
0
LINE
8
BLACK
6
CONTINUOUS
10
2.43862
20
-4.04262
11
2.41536
21
-4.05817
0
LINE
8
BLACK
6
CONTINUOUS
10
2.41536
20
-4.05817
11
2.39557
21
-4.07795
0
LINE
8
BLACK
6
CONTINUOUS
10
2.39557
20
-4.07795
11
2.38002
21
-4.10122
0
LINE
8
BLACK
6
CONTINUOUS
10
2.38002
20
-4.10122
11
2.36932
21
-4.12707
0
LINE
8
BLACK
6
CONTINUOUS
10
2.36932
20
-4.12707
11
2.36386
21
-4.15451
0
LINE
8
BLACK
6
CONTINUOUS
10
2.36386
20
-4.15451
11
2.36386
21
-4.18249
0
LINE
8
BLACK
6
CONTINUOUS
10
2.36386
20
-4.18249
11
2.36932
21
-4.20994
0
LINE
8
BLACK
6
CONTINUOUS
10
2.36932
20
-4.20994
11
2.38002
21
-4.23579
0
LINE
8
BLACK
6
CONTINUOUS
10
2.38002
20
-4.23579
11
2.39557
21
-4.25905
0
LINE
8
BLACK
6
CONTINUOUS
10
2.39557
20
-4.25905
11
2.41536
21
-4.27884
0
LINE
8
BLACK
6
CONTINUOUS
10
2.41536
20
-4.27884
11
2.43862
21
-4.29438
0
LINE
8
BLACK
6
CONTINUOUS
10
2.43862
20
-4.29438
11
2.46447
21
-4.30509
0
LINE
8
BLACK
6
CONTINUOUS
10
2.46447
20
-4.30509
11
2.49192
21
-4.31055
0
LINE
8
BLACK
6
CONTINUOUS
10
2.49192
20
-4.31055
11
2.5199
21
-4.31055
0
LINE
8
BLACK
6
CONTINUOUS
10
2.5199
20
-4.31055
11
2.54734
21
-4.30509
0
LINE
8
BLACK
6
CONTINUOUS
10
2.54734
20
-4.30509
11
2.57319
21
-4.29438
0
LINE
8
BLACK
6
CONTINUOUS
10
2.57319
20
-4.29438
11
2.59646
21
-4.27884
0
LINE
8
BLACK
6
CONTINUOUS
10
2.59646
20
-4.27884
11
2.61624
21
-4.25905
0
LINE
8
BLACK
6
CONTINUOUS
10
2.61624
20
-4.25905
11
2.62619
21
-4.24416
0
LINE
8
BLACK
6
CONTINUOUS
10
2.62619
20
-4.24416
11
2.63179
21
-4.23579
0
LINE
8
BLACK
6
CONTINUOUS
10
2.63179
20
-4.23579
11
2.64249
21
-4.20994
0
LINE
8
BLACK
6
CONTINUOUS
10
2.64249
20
-4.20994
11
2.64795
21
-4.18249
0
LINE
8
BLACK
6
CONTINUOUS
10
2.64795
20
-4.18249
11
2.64795
21
-4.15451
0
LINE
8
BLACK
6
CONTINUOUS
10
2.64795
20
-4.15451
11
2.64249
21
-4.12707
0
LINE
8
BLACK
6
CONTINUOUS
10
2.64249
20
-4.12707
11
2.63179
21
-4.10122
0
LINE
8
BLACK
6
CONTINUOUS
10
2.63179
20
-4.10122
11
2.61624
21
-4.07795
0
LINE
8
BLACK
6
CONTINUOUS
10
2.61624
20
-4.07795
11
2.59646
21
-4.05817
0
LINE
8
BLACK
6
CONTINUOUS
10
2.59646
20
-4.05817
11
2.57319
21
-4.04262
0
LINE
8
BLACK
6
CONTINUOUS
10
2.57319
20
-4.04262
11
2.54734
21
-4.03192
0
LINE
8
BLACK
6
CONTINUOUS
10
2.54734
20
-4.03192
11
2.5199
21
-4.02646
0
LINE
8
BLACK
6
CONTINUOUS
10
2.5199
20
-4.02646
11
2.49192
21
-4.02646
0
LINE
8
BLACK
6
CONTINUOUS
10
3.83928
20
-3.53315
11
3.82135
21
-3.53672
0
LINE
8
BLACK
6
CONTINUOUS
10
3.82135
20
-3.53672
11
3.80445
21
-3.54372
0
LINE
8
BLACK
6
CONTINUOUS
10
3.80445
20
-3.54372
11
3.78925
21
-3.55387
0
LINE
8
BLACK
6
CONTINUOUS
10
3.78925
20
-3.55387
11
3.77632
21
-3.56681
0
LINE
8
BLACK
6
CONTINUOUS
10
3.77632
20
-3.56681
11
3.76616
21
-3.58201
0
LINE
8
BLACK
6
CONTINUOUS
10
3.76616
20
-3.58201
11
3.75916
21
-3.59891
0
LINE
8
BLACK
6
CONTINUOUS
10
3.75916
20
-3.59891
11
3.75559
21
-3.61684
0
LINE
8
BLACK
6
CONTINUOUS
10
3.75559
20
-3.61684
11
3.75559
21
-3.63513
0
LINE
8
BLACK
6
CONTINUOUS
10
3.75559
20
-3.63513
11
3.75916
21
-3.65306
0
LINE
8
BLACK
6
CONTINUOUS
10
3.75916
20
-3.65306
11
3.76616
21
-3.66996
0
LINE
8
BLACK
6
CONTINUOUS
10
3.76616
20
-3.66996
11
3.77632
21
-3.68516
0
LINE
8
BLACK
6
CONTINUOUS
10
3.77632
20
-3.68516
11
3.78925
21
-3.69809
0
LINE
8
BLACK
6
CONTINUOUS
10
3.78925
20
-3.69809
11
3.80445
21
-3.70825
0
LINE
8
BLACK
6
CONTINUOUS
10
3.80445
20
-3.70825
11
3.82135
21
-3.71525
0
LINE
8
BLACK
6
CONTINUOUS
10
3.82135
20
-3.71525
11
3.83928
21
-3.71882
0
LINE
8
BLACK
6
CONTINUOUS
10
3.83928
20
-3.71882
11
3.85757
21
-3.71882
0
LINE
8
BLACK
6
CONTINUOUS
10
3.85757
20
-3.71882
11
3.8755
21
-3.71525
0
LINE
8
BLACK
6
CONTINUOUS
10
3.8755
20
-3.71525
11
3.8924
21
-3.70825
0
LINE
8
BLACK
6
CONTINUOUS
10
3.8924
20
-3.70825
11
3.9076
21
-3.69809
0
LINE
8
BLACK
6
CONTINUOUS
10
3.9076
20
-3.69809
11
3.92053
21
-3.68516
0
LINE
8
BLACK
6
CONTINUOUS
10
3.92053
20
-3.68516
11
3.93069
21
-3.66996
0
LINE
8
BLACK
6
CONTINUOUS
10
3.93069
20
-3.66996
11
3.93769
21
-3.65306
0
LINE
8
BLACK
6
CONTINUOUS
10
3.93769
20
-3.65306
11
3.94126
21
-3.63513
0
LINE
8
BLACK
6
CONTINUOUS
10
3.94126
20
-3.63513
11
3.94126
21
-3.61684
0
LINE
8
BLACK
6
CONTINUOUS
10
3.94126
20
-3.61684
11
3.93769
21
-3.59891
0
LINE
8
BLACK
6
CONTINUOUS
10
3.93769
20
-3.59891
11
3.93069
21
-3.58201
0
LINE
8
BLACK
6
CONTINUOUS
10
3.93069
20
-3.58201
11
3.92053
21
-3.56681
0
LINE
8
BLACK
6
CONTINUOUS
10
3.92053
20
-3.56681
11
3.9076
21
-3.55387
0
LINE
8
BLACK
6
CONTINUOUS
10
3.9076
20
-3.55387
11
3.8924
21
-3.54372
0
LINE
8
BLACK
6
CONTINUOUS
10
3.8924
20
-3.54372
11
3.8755
21
-3.53672
0
LINE
8
BLACK
6
CONTINUOUS
10
3.8755
20
-3.53672
11
3.85757
21
-3.53315
0
LINE
8
BLACK
6
CONTINUOUS
10
3.85757
20
-3.53315
11
3.83928
21
-3.53315
0
LINE
8
BLACK
6
CONTINUOUS
10
3.51448
20
-3.53315
11
3.49654
21
-3.53672
0
LINE
8
BLACK
6
CONTINUOUS
10
3.49654
20
-3.53672
11
3.47965
21
-3.54372
0
LINE
8
BLACK
6
CONTINUOUS
10
3.47965
20
-3.54372
11
3.46444
21
-3.55387
0
LINE
8
BLACK
6
CONTINUOUS
10
3.46444
20
-3.55387
11
3.45151
21
-3.56681
0
LINE
8
BLACK
6
CONTINUOUS
10
3.45151
20
-3.56681
11
3.44135
21
-3.58201
0
LINE
8
BLACK
6
CONTINUOUS
10
3.44135
20
-3.58201
11
3.43435
21
-3.59891
0
LINE
8
BLACK
6
CONTINUOUS
10
3.43435
20
-3.59891
11
3.43079
21
-3.61684
0
LINE
8
BLACK
6
CONTINUOUS
10
3.43079
20
-3.61684
11
3.43079
21
-3.63513
0
LINE
8
BLACK
6
CONTINUOUS
10
3.43079
20
-3.63513
11
3.43435
21
-3.65306
0
LINE
8
BLACK
6
CONTINUOUS
10
3.43435
20
-3.65306
11
3.44135
21
-3.66996
0
LINE
8
BLACK
6
CONTINUOUS
10
3.44135
20
-3.66996
11
3.45151
21
-3.68516
0
LINE
8
BLACK
6
CONTINUOUS
10
3.45151
20
-3.68516
11
3.46444
21
-3.69809
0
LINE
8
BLACK
6
CONTINUOUS
10
3.46444
20
-3.69809
11
3.47965
21
-3.70825
0
LINE
8
BLACK
6
CONTINUOUS
10
3.47965
20
-3.70825
11
3.49654
21
-3.71525
0
LINE
8
BLACK
6
CONTINUOUS
10
3.49654
20
-3.71525
11
3.51448
21
-3.71882
0
LINE
8
BLACK
6
CONTINUOUS
10
3.51448
20
-3.71882
11
3.53277
21
-3.71882
0
LINE
8
BLACK
6
CONTINUOUS
10
3.53277
20
-3.71882
11
3.5507
21
-3.71525
0
LINE
8
BLACK
6
CONTINUOUS
10
3.5507
20
-3.71525
11
3.5676
21
-3.70825
0
LINE
8
BLACK
6
CONTINUOUS
10
3.5676
20
-3.70825
11
3.5828
21
-3.69809
0
LINE
8
BLACK
6
CONTINUOUS
10
3.5828
20
-3.69809
11
3.59573
21
-3.68516
0
LINE
8
BLACK
6
CONTINUOUS
10
3.59573
20
-3.68516
11
3.60589
21
-3.66996
0
LINE
8
BLACK
6
CONTINUOUS
10
3.60589
20
-3.66996
11
3.61289
21
-3.65306
0
LINE
8
BLACK
6
CONTINUOUS
10
3.61289
20
-3.65306
11
3.61646
21
-3.63513
0
LINE
8
BLACK
6
CONTINUOUS
10
3.61646
20
-3.63513
11
3.61646
21
-3.61684
0
LINE
8
BLACK
6
CONTINUOUS
10
3.61646
20
-3.61684
11
3.61289
21
-3.59891
0
LINE
8
BLACK
6
CONTINUOUS
10
3.61289
20
-3.59891
11
3.60589
21
-3.58201
0
LINE
8
BLACK
6
CONTINUOUS
10
3.60589
20
-3.58201
11
3.59573
21
-3.56681
0
LINE
8
BLACK
6
CONTINUOUS
10
3.59573
20
-3.56681
11
3.5828
21
-3.55387
0
LINE
8
BLACK
6
CONTINUOUS
10
3.5828
20
-3.55387
11
3.5676
21
-3.54372
0
LINE
8
BLACK
6
CONTINUOUS
10
3.5676
20
-3.54372
11
3.5507
21
-3.53672
0
LINE
8
BLACK
6
CONTINUOUS
10
3.5507
20
-3.53672
11
3.53277
21
-3.53315
0
LINE
8
BLACK
6
CONTINUOUS
10
3.53277
20
-3.53315
11
3.51448
21
-3.53315
0
LINE
8
BLACK
6
CONTINUOUS
10
3.17983
20
-3.53315
11
3.1619
21
-3.53672
0
LINE
8
BLACK
6
CONTINUOUS
10
3.1619
20
-3.53672
11
3.145
21
-3.54372
0
LINE
8
BLACK
6
CONTINUOUS
10
3.145
20
-3.54372
11
3.1298
21
-3.55387
0
LINE
8
BLACK
6
CONTINUOUS
10
3.1298
20
-3.55387
11
3.11687
21
-3.56681
0
LINE
8
BLACK
6
CONTINUOUS
10
3.11687
20
-3.56681
11
3.10671
21
-3.58201
0
LINE
8
BLACK
6
CONTINUOUS
10
3.10671
20
-3.58201
11
3.09971
21
-3.59891
0
LINE
8
BLACK
6
CONTINUOUS
10
3.09971
20
-3.59891
11
3.09614
21
-3.61684
0
LINE
8
BLACK
6
CONTINUOUS
10
3.09614
20
-3.61684
11
3.09614
21
-3.63513
0
LINE
8
BLACK
6
CONTINUOUS
10
3.09614
20
-3.63513
11
3.09971
21
-3.65306
0
LINE
8
BLACK
6
CONTINUOUS
10
3.09971
20
-3.65306
11
3.10671
21
-3.66996
0
LINE
8
BLACK
6
CONTINUOUS
10
3.10671
20
-3.66996
11
3.11687
21
-3.68516
0
LINE
8
BLACK
6
CONTINUOUS
10
3.11687
20
-3.68516
11
3.1298
21
-3.69809
0
LINE
8
BLACK
6
CONTINUOUS
10
3.1298
20
-3.69809
11
3.145
21
-3.70825
0
LINE
8
BLACK
6
CONTINUOUS
10
3.145
20
-3.70825
11
3.1619
21
-3.71525
0
LINE
8
BLACK
6
CONTINUOUS
10
3.1619
20
-3.71525
11
3.17983
21
-3.71882
0
LINE
8
BLACK
6
CONTINUOUS
10
3.17983
20
-3.71882
11
3.19812
21
-3.71882
0
LINE
8
BLACK
6
CONTINUOUS
10
3.19812
20
-3.71882
11
3.21606
21
-3.71525
0
LINE
8
BLACK
6
CONTINUOUS
10
3.21606
20
-3.71525
11
3.23295
21
-3.70825
0
LINE
8
BLACK
6
CONTINUOUS
10
3.23295
20
-3.70825
11
3.24816
21
-3.69809
0
LINE
8
BLACK
6
CONTINUOUS
10
3.24816
20
-3.69809
11
3.26109
21
-3.68516
0
LINE
8
BLACK
6
CONTINUOUS
10
3.26109
20
-3.68516
11
3.27125
21
-3.66996
0
LINE
8
BLACK
6
CONTINUOUS
10
3.27125
20
-3.66996
11
3.27824
21
-3.65306
0
LINE
8
BLACK
6
CONTINUOUS
10
3.27824
20
-3.65306
11
3.28181
21
-3.63513
0
LINE
8
BLACK
6
CONTINUOUS
10
3.28181
20
-3.63513
11
3.28181
21
-3.61684
0
LINE
8
BLACK
6
CONTINUOUS
10
3.28181
20
-3.61684
11
3.27824
21
-3.59891
0
LINE
8
BLACK
6
CONTINUOUS
10
3.27824
20
-3.59891
11
3.27125
21
-3.58201
0
LINE
8
BLACK
6
CONTINUOUS
10
3.27125
20
-3.58201
11
3.26109
21
-3.56681
0
LINE
8
BLACK
6
CONTINUOUS
10
3.26109
20
-3.56681
11
3.24816
21
-3.55387
0
LINE
8
BLACK
6
CONTINUOUS
10
3.24816
20
-3.55387
11
3.23295
21
-3.54372
0
LINE
8
BLACK
6
CONTINUOUS
10
3.23295
20
-3.54372
11
3.21606
21
-3.53672
0
LINE
8
BLACK
6
CONTINUOUS
10
3.21606
20
-3.53672
11
3.19812
21
-3.53315
0
LINE
8
BLACK
6
CONTINUOUS
10
3.19812
20
-3.53315
11
3.17983
21
-3.53315
0
LINE
8
BLACK
6
CONTINUOUS
10
2.85503
20
-3.53315
11
2.83709
21
-3.53672
0
LINE
8
BLACK
6
CONTINUOUS
10
2.83709
20
-3.53672
11
2.8202
21
-3.54372
0
LINE
8
BLACK
6
CONTINUOUS
10
2.8202
20
-3.54372
11
2.80499
21
-3.55387
0
LINE
8
BLACK
6
CONTINUOUS
10
2.80499
20
-3.55387
11
2.79206
21
-3.56681
0
LINE
8
BLACK
6
CONTINUOUS
10
2.79206
20
-3.56681
11
2.7819
21
-3.58201
0
LINE
8
BLACK
6
CONTINUOUS
10
2.7819
20
-3.58201
11
2.77491
21
-3.59891
0
LINE
8
BLACK
6
CONTINUOUS
10
2.77491
20
-3.59891
11
2.77134
21
-3.61684
0
LINE
8
BLACK
6
CONTINUOUS
10
2.77134
20
-3.61684
11
2.77134
21
-3.63513
0
LINE
8
BLACK
6
CONTINUOUS
10
2.77134
20
-3.63513
11
2.77491
21
-3.65306
0
LINE
8
BLACK
6
CONTINUOUS
10
2.77491
20
-3.65306
11
2.7819
21
-3.66996
0
LINE
8
BLACK
6
CONTINUOUS
10
2.7819
20
-3.66996
11
2.79206
21
-3.68516
0
LINE
8
BLACK
6
CONTINUOUS
10
2.79206
20
-3.68516
11
2.80499
21
-3.69809
0
LINE
8
BLACK
6
CONTINUOUS
10
2.80499
20
-3.69809
11
2.8202
21
-3.70825
0
LINE
8
BLACK
6
CONTINUOUS
10
2.8202
20
-3.70825
11
2.83709
21
-3.71525
0
LINE
8
BLACK
6
CONTINUOUS
10
2.83709
20
-3.71525
11
2.85503
21
-3.71882
0
LINE
8
BLACK
6
CONTINUOUS
10
2.85503
20
-3.71882
11
2.87332
21
-3.71882
0
LINE
8
BLACK
6
CONTINUOUS
10
2.87332
20
-3.71882
11
2.89125
21
-3.71525
0
LINE
8
BLACK
6
CONTINUOUS
10
2.89125
20
-3.71525
11
2.90815
21
-3.70825
0
LINE
8
BLACK
6
CONTINUOUS
10
2.90815
20
-3.70825
11
2.92335
21
-3.69809
0
LINE
8
BLACK
6
CONTINUOUS
10
2.92335
20
-3.69809
11
2.93628
21
-3.68516
0
LINE
8
BLACK
6
CONTINUOUS
10
2.93628
20
-3.68516
11
2.94644
21
-3.66996
0
LINE
8
BLACK
6
CONTINUOUS
10
2.94644
20
-3.66996
11
2.95344
21
-3.65306
0
LINE
8
BLACK
6
CONTINUOUS
10
2.95344
20
-3.65306
11
2.95701
21
-3.63513
0
LINE
8
BLACK
6
CONTINUOUS
10
2.95701
20
-3.63513
11
2.95701
21
-3.61684
0
LINE
8
BLACK
6
CONTINUOUS
10
2.95701
20
-3.61684
11
2.95344
21
-3.59891
0
LINE
8
BLACK
6
CONTINUOUS
10
2.95344
20
-3.59891
11
2.94644
21
-3.58201
0
LINE
8
BLACK
6
CONTINUOUS
10
2.94644
20
-3.58201
11
2.93628
21
-3.56681
0
LINE
8
BLACK
6
CONTINUOUS
10
2.93628
20
-3.56681
11
2.92335
21
-3.55387
0
LINE
8
BLACK
6
CONTINUOUS
10
2.92335
20
-3.55387
11
2.90815
21
-3.54372
0
LINE
8
BLACK
6
CONTINUOUS
10
2.90815
20
-3.54372
11
2.89125
21
-3.53672
0
LINE
8
BLACK
6
CONTINUOUS
10
2.89125
20
-3.53672
11
2.87332
21
-3.53315
0
LINE
8
BLACK
6
CONTINUOUS
10
2.87332
20
-3.53315
11
2.85503
21
-3.53315
0
LINE
8
BLACK
6
CONTINUOUS
10
4.22135
20
-3.37173
11
4.20532
21
-3.37492
0
LINE
8
BLACK
6
CONTINUOUS
10
4.20532
20
-3.37492
11
4.19022
21
-3.38118
0
LINE
8
BLACK
6
CONTINUOUS
10
4.19022
20
-3.38118
11
4.17662
21
-3.39026
0
LINE
8
BLACK
6
CONTINUOUS
10
4.17662
20
-3.39026
11
4.16506
21
-3.40182
0
LINE
8
BLACK
6
CONTINUOUS
10
4.16506
20
-3.40182
11
4.15598
21
-3.41541
0
LINE
8
BLACK
6
CONTINUOUS
10
4.15598
20
-3.41541
11
4.14972
21
-3.43052
0
LINE
8
BLACK
6
CONTINUOUS
10
4.14972
20
-3.43052
11
4.14654
21
-3.44655
0
LINE
8
BLACK
6
CONTINUOUS
10
4.14654
20
-3.44655
11
4.14654
21
-3.4629
0
LINE
8
BLACK
6
CONTINUOUS
10
4.14654
20
-3.4629
11
4.14972
21
-3.47893
0
LINE
8
BLACK
6
CONTINUOUS
10
4.14972
20
-3.47893
11
4.15598
21
-3.49404
0
LINE
8
BLACK
6
CONTINUOUS
10
4.15598
20
-3.49404
11
4.16506
21
-3.50763
0
LINE
8
BLACK
6
CONTINUOUS
10
4.16506
20
-3.50763
11
4.17662
21
-3.51919
0
LINE
8
BLACK
6
CONTINUOUS
10
4.17662
20
-3.51919
11
4.19022
21
-3.52827
0
LINE
8
BLACK
6
CONTINUOUS
10
4.19022
20
-3.52827
11
4.20532
21
-3.53453
0
LINE
8
BLACK
6
CONTINUOUS
10
4.20532
20
-3.53453
11
4.22135
21
-3.53772
0
LINE
8
BLACK
6
CONTINUOUS
10
4.22135
20
-3.53772
11
4.2377
21
-3.53772
0
LINE
8
BLACK
6
CONTINUOUS
10
4.2377
20
-3.53772
11
4.25374
21
-3.53453
0
LINE
8
BLACK
6
CONTINUOUS
10
4.25374
20
-3.53453
11
4.26884
21
-3.52827
0
LINE
8
BLACK
6
CONTINUOUS
10
4.26884
20
-3.52827
11
4.28243
21
-3.51919
0
LINE
8
BLACK
6
CONTINUOUS
10
4.28243
20
-3.51919
11
4.29399
21
-3.50763
0
LINE
8
BLACK
6
CONTINUOUS
10
4.29399
20
-3.50763
11
4.30307
21
-3.49404
0
LINE
8
BLACK
6
CONTINUOUS
10
4.30307
20
-3.49404
11
4.30933
21
-3.47893
0
LINE
8
BLACK
6
CONTINUOUS
10
4.30933
20
-3.47893
11
4.31252
21
-3.4629
0
LINE
8
BLACK
6
CONTINUOUS
10
4.31252
20
-3.4629
11
4.31252
21
-3.44655
0
LINE
8
BLACK
6
CONTINUOUS
10
4.31252
20
-3.44655
11
4.30933
21
-3.43052
0
LINE
8
BLACK
6
CONTINUOUS
10
4.30933
20
-3.43052
11
4.30307
21
-3.41541
0
LINE
8
BLACK
6
CONTINUOUS
10
4.30307
20
-3.41541
11
4.29399
21
-3.40182
0
LINE
8
BLACK
6
CONTINUOUS
10
4.29399
20
-3.40182
11
4.28243
21
-3.39026
0
LINE
8
BLACK
6
CONTINUOUS
10
4.28243
20
-3.39026
11
4.26884
21
-3.38118
0
LINE
8
BLACK
6
CONTINUOUS
10
4.26884
20
-3.38118
11
4.25374
21
-3.37492
0
LINE
8
BLACK
6
CONTINUOUS
10
4.25374
20
-3.37492
11
4.2377
21
-3.37173
0
LINE
8
BLACK
6
CONTINUOUS
10
4.2377
20
-3.37173
11
4.22135
21
-3.37173
0
LINE
8
BLACK
6
CONTINUOUS
10
4.12577
20
-2.94378
11
4.09833
21
-2.94924
0
LINE
8
BLACK
6
CONTINUOUS
10
4.09833
20
-2.94924
11
4.07248
21
-2.95995
0
LINE
8
BLACK
6
CONTINUOUS
10
4.07248
20
-2.95995
11
4.04921
21
-2.97549
0
LINE
8
BLACK
6
CONTINUOUS
10
4.04921
20
-2.97549
11
4.02943
21
-2.99528
0
LINE
8
BLACK
6
CONTINUOUS
10
4.02943
20
-2.99528
11
4.01388
21
-3.01854
0
LINE
8
BLACK
6
CONTINUOUS
10
4.01388
20
-3.01854
11
4.00318
21
-3.04439
0
LINE
8
BLACK
6
CONTINUOUS
10
4.00318
20
-3.04439
11
3.99772
21
-3.07184
0
LINE
8
BLACK
6
CONTINUOUS
10
3.99772
20
-3.07184
11
3.99772
21
-3.09982
0
LINE
8
BLACK
6
CONTINUOUS
10
3.99772
20
-3.09982
11
4.00318
21
-3.12726
0
LINE
8
BLACK
6
CONTINUOUS
10
4.00318
20
-3.12726
11
4.01388
21
-3.15311
0
LINE
8
BLACK
6
CONTINUOUS
10
4.01388
20
-3.15311
11
4.02943
21
-3.17638
0
LINE
8
BLACK
6
CONTINUOUS
10
4.02943
20
-3.17638
11
4.04921
21
-3.19616
0
LINE
8
BLACK
6
CONTINUOUS
10
4.04921
20
-3.19616
11
4.07248
21
-3.21171
0
LINE
8
BLACK
6
CONTINUOUS
10
4.07248
20
-3.21171
11
4.09833
21
-3.22242
0
LINE
8
BLACK
6
CONTINUOUS
10
4.09833
20
-3.22242
11
4.12577
21
-3.22787
0
LINE
8
BLACK
6
CONTINUOUS
10
4.12577
20
-3.22787
11
4.15375
21
-3.22787
0
LINE
8
BLACK
6
CONTINUOUS
10
4.15375
20
-3.22787
11
4.1812
21
-3.22242
0
LINE
8
BLACK
6
CONTINUOUS
10
4.1812
20
-3.22242
11
4.20705
21
-3.21171
0
LINE
8
BLACK
6
CONTINUOUS
10
4.20705
20
-3.21171
11
4.23031
21
-3.19616
0
LINE
8
BLACK
6
CONTINUOUS
10
4.23031
20
-3.19616
11
4.2501
21
-3.17638
0
LINE
8
BLACK
6
CONTINUOUS
10
4.2501
20
-3.17638
11
4.26564
21
-3.15311
0
LINE
8
BLACK
6
CONTINUOUS
10
4.26564
20
-3.15311
11
4.27635
21
-3.12726
0
LINE
8
BLACK
6
CONTINUOUS
10
4.27635
20
-3.12726
11
4.28181
21
-3.09982
0
LINE
8
BLACK
6
CONTINUOUS
10
4.28181
20
-3.09982
11
4.28181
21
-3.07184
0
LINE
8
BLACK
6
CONTINUOUS
10
4.28181
20
-3.07184
11
4.27635
21
-3.04439
0
LINE
8
BLACK
6
CONTINUOUS
10
4.27635
20
-3.04439
11
4.26564
21
-3.01854
0
LINE
8
BLACK
6
CONTINUOUS
10
4.26564
20
-3.01854
11
4.2501
21
-2.99528
0
LINE
8
BLACK
6
CONTINUOUS
10
4.2501
20
-2.99528
11
4.23031
21
-2.97549
0
LINE
8
BLACK
6
CONTINUOUS
10
4.23031
20
-2.97549
11
4.20705
21
-2.95995
0
LINE
8
BLACK
6
CONTINUOUS
10
4.20705
20
-2.95995
11
4.1812
21
-2.94924
0
LINE
8
BLACK
6
CONTINUOUS
10
4.1812
20
-2.94924
11
4.15375
21
-2.94378
0
LINE
8
BLACK
6
CONTINUOUS
10
4.15375
20
-2.94378
11
4.12577
21
-2.94378
0
LINE
8
BLACK
6
CONTINUOUS
10
3.88713
20
-2.52089
11
3.88715
21
-2.52068
0
LINE
8
BLACK
6
CONTINUOUS
10
3.88715
20
-2.52068
11
3.88715
21
-2.52047
0
LINE
8
BLACK
6
CONTINUOUS
10
3.88715
20
-2.52047
11
3.88723
21
-2.51969
0
LINE
8
BLACK
6
CONTINUOUS
10
3.88723
20
-2.51969
11
3.88682
21
-2.51557
0
LINE
8
BLACK
6
CONTINUOUS
10
3.88682
20
-2.51557
11
3.88562
21
-2.51162
0
LINE
8
BLACK
6
CONTINUOUS
10
3.88562
20
-2.51162
11
3.88367
21
-2.50797
0
LINE
8
BLACK
6
CONTINUOUS
10
3.88367
20
-2.50797
11
3.88105
21
-2.50478
0
LINE
8
BLACK
6
CONTINUOUS
10
3.88105
20
-2.50478
11
3.87786
21
-2.50215
0
LINE
8
BLACK
6
CONTINUOUS
10
3.87786
20
-2.50215
11
3.87421
21
-2.5002
0
LINE
8
BLACK
6
CONTINUOUS
10
3.87421
20
-2.5002
11
3.87026
21
-2.499
0
LINE
8
BLACK
6
CONTINUOUS
10
3.87026
20
-2.499
11
3.86693
21
-2.49868
0
LINE
8
BLACK
6
CONTINUOUS
10
3.86693
20
-2.49868
11
3.86614
21
-2.4986
0
LINE
8
BLACK
6
CONTINUOUS
10
3.86614
20
-2.4986
11
3.86536
21
-2.49868
0
LINE
8
BLACK
6
CONTINUOUS
10
3.86536
20
-2.49868
11
3.86529
21
-2.49868
0
LINE
8
BLACK
6
CONTINUOUS
10
3.86529
20
-2.49868
11
3.86508
21
-2.49868
0
LINE
8
BLACK
6
CONTINUOUS
10
3.86508
20
-2.49868
11
3.86487
21
-2.4987
0
LINE
8
BLACK
6
CONTINUOUS
10
3.86487
20
-2.4987
11
2.8438
21
-2.4987
0
LINE
8
BLACK
6
CONTINUOUS
10
2.8438
20
-2.4987
11
2.84373
21
-2.4987
0
LINE
8
BLACK
6
CONTINUOUS
10
2.84373
20
-2.4987
11
2.84352
21
-2.49868
0
LINE
8
BLACK
6
CONTINUOUS
10
2.84352
20
-2.49868
11
2.84331
21
-2.49868
0
LINE
8
BLACK
6
CONTINUOUS
10
2.84331
20
-2.49868
11
2.84252
21
-2.4986
0
LINE
8
BLACK
6
CONTINUOUS
10
2.84252
20
-2.4986
11
2.84173
21
-2.49868
0
LINE
8
BLACK
6
CONTINUOUS
10
2.84173
20
-2.49868
11
2.83841
21
-2.499
0
LINE
8
BLACK
6
CONTINUOUS
10
2.83841
20
-2.499
11
2.83445
21
-2.5002
0
LINE
8
BLACK
6
CONTINUOUS
10
2.83445
20
-2.5002
11
2.83081
21
-2.50215
0
LINE
8
BLACK
6
CONTINUOUS
10
2.83081
20
-2.50215
11
2.82761
21
-2.50478
0
LINE
8
BLACK
6
CONTINUOUS
10
2.82761
20
-2.50478
11
2.82499
21
-2.50797
0
LINE
8
BLACK
6
CONTINUOUS
10
2.82499
20
-2.50797
11
2.82304
21
-2.51162
0
LINE
8
BLACK
6
CONTINUOUS
10
2.82304
20
-2.51162
11
2.82184
21
-2.51557
0
LINE
8
BLACK
6
CONTINUOUS
10
2.82184
20
-2.51557
11
2.82143
21
-2.51969
0
LINE
8
BLACK
6
CONTINUOUS
10
2.82143
20
-2.51969
11
2.82151
21
-2.52047
0
LINE
8
BLACK
6
CONTINUOUS
10
2.82151
20
-2.52047
11
2.82152
21
-2.52054
0
LINE
8
BLACK
6
CONTINUOUS
10
2.82152
20
-2.52054
11
2.82151
21
-2.52075
0
LINE
8
BLACK
6
CONTINUOUS
10
2.82151
20
-2.52075
11
2.82154
21
-2.52096
0
LINE
8
BLACK
6
CONTINUOUS
10
2.82154
20
-2.52096
11
2.82154
21
-3.10896
0
LINE
8
BLACK
6
CONTINUOUS
10
2.82154
20
-3.10896
11
2.82153
21
-3.10903
0
LINE
8
BLACK
6
CONTINUOUS
10
2.82153
20
-3.10903
11
2.82151
21
-3.10924
0
LINE
8
BLACK
6
CONTINUOUS
10
2.82151
20
-3.10924
11
2.82151
21
-3.10945
0
LINE
8
BLACK
6
CONTINUOUS
10
2.82151
20
-3.10945
11
2.82143
21
-3.11024
0
LINE
8
BLACK
6
CONTINUOUS
10
2.82143
20
-3.11024
11
2.82184
21
-3.11435
0
LINE
8
BLACK
6
CONTINUOUS
10
2.82184
20
-3.11435
11
2.82304
21
-3.11831
0
LINE
8
BLACK
6
CONTINUOUS
10
2.82304
20
-3.11831
11
2.82499
21
-3.12195
0
LINE
8
BLACK
6
CONTINUOUS
10
2.82499
20
-3.12195
11
2.82761
21
-3.12515
0
LINE
8
BLACK
6
CONTINUOUS
10
2.82761
20
-3.12515
11
2.83081
21
-3.12777
0
LINE
8
BLACK
6
CONTINUOUS
10
2.83081
20
-3.12777
11
2.83445
21
-3.12972
0
LINE
8
BLACK
6
CONTINUOUS
10
2.83445
20
-3.12972
11
2.83841
21
-3.13092
0
LINE
8
BLACK
6
CONTINUOUS
10
2.83841
20
-3.13092
11
2.84173
21
-3.13124
0
LINE
8
BLACK
6
CONTINUOUS
10
2.84173
20
-3.13124
11
2.84252
21
-3.13132
0
LINE
8
BLACK
6
CONTINUOUS
10
2.84252
20
-3.13132
11
2.84331
21
-3.13124
0
LINE
8
BLACK
6
CONTINUOUS
10
2.84331
20
-3.13124
11
2.84338
21
-3.13124
0
LINE
8
BLACK
6
CONTINUOUS
10
2.84338
20
-3.13124
11
2.84359
21
-3.13124
0
LINE
8
BLACK
6
CONTINUOUS
10
2.84359
20
-3.13124
11
2.8438
21
-3.13122
0
LINE
8
BLACK
6
CONTINUOUS
10
2.8438
20
-3.13122
11
3.86487
21
-3.13122
0
LINE
8
BLACK
6
CONTINUOUS
10
3.86487
20
-3.13122
11
3.86494
21
-3.13122
0
LINE
8
BLACK
6
CONTINUOUS
10
3.86494
20
-3.13122
11
3.86514
21
-3.13124
0
LINE
8
BLACK
6
CONTINUOUS
10
3.86514
20
-3.13124
11
3.86536
21
-3.13124
0
LINE
8
BLACK
6
CONTINUOUS
10
3.86536
20
-3.13124
11
3.86614
21
-3.13132
0
LINE
8
BLACK
6
CONTINUOUS
10
3.86614
20
-3.13132
11
3.86693
21
-3.13124
0
LINE
8
BLACK
6
CONTINUOUS
10
3.86693
20
-3.13124
11
3.87026
21
-3.13092
0
LINE
8
BLACK
6
CONTINUOUS
10
3.87026
20
-3.13092
11
3.87421
21
-3.12972
0
LINE
8
BLACK
6
CONTINUOUS
10
3.87421
20
-3.12972
11
3.87786
21
-3.12777
0
LINE
8
BLACK
6
CONTINUOUS
10
3.87786
20
-3.12777
11
3.88105
21
-3.12515
0
LINE
8
BLACK
6
CONTINUOUS
10
3.88105
20
-3.12515
11
3.88367
21
-3.12195
0
LINE
8
BLACK
6
CONTINUOUS
10
3.88367
20
-3.12195
11
3.88562
21
-3.11831
0
LINE
8
BLACK
6
CONTINUOUS
10
3.88562
20
-3.11831
11
3.88682
21
-3.11435
0
LINE
8
BLACK
6
CONTINUOUS
10
3.88682
20
-3.11435
11
3.88723
21
-3.11024
0
LINE
8
BLACK
6
CONTINUOUS
10
3.88723
20
-3.11024
11
3.88715
21
-3.10945
0
LINE
8
BLACK
6
CONTINUOUS
10
3.88715
20
-3.10945
11
3.88714
21
-3.10938
0
LINE
8
BLACK
6
CONTINUOUS
10
3.88714
20
-3.10938
11
3.88715
21
-3.10917
0
LINE
8
BLACK
6
CONTINUOUS
10
3.88715
20
-3.10917
11
3.88713
21
-3.10896
0
LINE
8
BLACK
6
CONTINUOUS
10
3.88713
20
-3.10896
11
3.88713
21
-2.52096
0
LINE
8
BLACK
6
CONTINUOUS
10
3.88713
20
-2.52096
11
3.88713
21
-2.52089
0
LINE
8
BLACK
6
CONTINUOUS
10
4.12577
20
-2.43197
11
4.09833
21
-2.43743
0
LINE
8
BLACK
6
CONTINUOUS
10
4.09833
20
-2.43743
11
4.07248
21
-2.44814
0
LINE
8
BLACK
6
CONTINUOUS
10
4.07248
20
-2.44814
11
4.04921
21
-2.46368
0
LINE
8
BLACK
6
CONTINUOUS
10
4.04921
20
-2.46368
11
4.02943
21
-2.48347
0
LINE
8
BLACK
6
CONTINUOUS
10
4.02943
20
-2.48347
11
4.01388
21
-2.50673
0
LINE
8
BLACK
6
CONTINUOUS
10
4.01388
20
-2.50673
11
4.00318
21
-2.53258
0
LINE
8
BLACK
6
CONTINUOUS
10
4.00318
20
-2.53258
11
3.99772
21
-2.56003
0
LINE
8
BLACK
6
CONTINUOUS
10
3.99772
20
-2.56003
11
3.99772
21
-2.58801
0
LINE
8
BLACK
6
CONTINUOUS
10
3.99772
20
-2.58801
11
4.00318
21
-2.61545
0
LINE
8
BLACK
6
CONTINUOUS
10
4.00318
20
-2.61545
11
4.01388
21
-2.6413
0
LINE
8
BLACK
6
CONTINUOUS
10
4.01388
20
-2.6413
11
4.02943
21
-2.66457
0
LINE
8
BLACK
6
CONTINUOUS
10
4.02943
20
-2.66457
11
4.04921
21
-2.68435
0
LINE
8
BLACK
6
CONTINUOUS
10
4.04921
20
-2.68435
11
4.07248
21
-2.6999
0
LINE
8
BLACK
6
CONTINUOUS
10
4.07248
20
-2.6999
11
4.09833
21
-2.7106
0
LINE
8
BLACK
6
CONTINUOUS
10
4.09833
20
-2.7106
11
4.12577
21
-2.71606
0
LINE
8
BLACK
6
CONTINUOUS
10
4.12577
20
-2.71606
11
4.15375
21
-2.71606
0
LINE
8
BLACK
6
CONTINUOUS
10
4.15375
20
-2.71606
11
4.1812
21
-2.7106
0
LINE
8
BLACK
6
CONTINUOUS
10
4.1812
20
-2.7106
11
4.20705
21
-2.6999
0
LINE
8
BLACK
6
CONTINUOUS
10
4.20705
20
-2.6999
11
4.23031
21
-2.68435
0
LINE
8
BLACK
6
CONTINUOUS
10
4.23031
20
-2.68435
11
4.2501
21
-2.66457
0
LINE
8
BLACK
6
CONTINUOUS
10
4.2501
20
-2.66457
11
4.26564
21
-2.6413
0
LINE
8
BLACK
6
CONTINUOUS
10
4.26564
20
-2.6413
11
4.27635
21
-2.61545
0
LINE
8
BLACK
6
CONTINUOUS
10
4.27635
20
-2.61545
11
4.28181
21
-2.58801
0
LINE
8
BLACK
6
CONTINUOUS
10
4.28181
20
-2.58801
11
4.28181
21
-2.56003
0
LINE
8
BLACK
6
CONTINUOUS
10
4.28181
20
-2.56003
11
4.27635
21
-2.53258
0
LINE
8
BLACK
6
CONTINUOUS
10
4.27635
20
-2.53258
11
4.26564
21
-2.50673
0
LINE
8
BLACK
6
CONTINUOUS
10
4.26564
20
-2.50673
11
4.2501
21
-2.48347
0
LINE
8
BLACK
6
CONTINUOUS
10
4.2501
20
-2.48347
11
4.23031
21
-2.46368
0
LINE
8
BLACK
6
CONTINUOUS
10
4.23031
20
-2.46368
11
4.20705
21
-2.44814
0
LINE
8
BLACK
6
CONTINUOUS
10
4.20705
20
-2.44814
11
4.1812
21
-2.43743
0
LINE
8
BLACK
6
CONTINUOUS
10
4.1812
20
-2.43743
11
4.15375
21
-2.43197
0
LINE
8
BLACK
6
CONTINUOUS
10
4.15375
20
-2.43197
11
4.12577
21
-2.43197
0
LINE
8
BLACK
6
CONTINUOUS
10
4.22135
20
-2.19063
11
4.20532
21
-2.19382
0
LINE
8
BLACK
6
CONTINUOUS
10
4.20532
20
-2.19382
11
4.19022
21
-2.20008
0
LINE
8
BLACK
6
CONTINUOUS
10
4.19022
20
-2.20008
11
4.17662
21
-2.20916
0
LINE
8
BLACK
6
CONTINUOUS
10
4.17662
20
-2.20916
11
4.16506
21
-2.22072
0
LINE
8
BLACK
6
CONTINUOUS
10
4.16506
20
-2.22072
11
4.15598
21
-2.23431
0
LINE
8
BLACK
6
CONTINUOUS
10
4.15598
20
-2.23431
11
4.14972
21
-2.24941
0
LINE
8
BLACK
6
CONTINUOUS
10
4.14972
20
-2.24941
11
4.14654
21
-2.26545
0
LINE
8
BLACK
6
CONTINUOUS
10
4.14654
20
-2.26545
11
4.14654
21
-2.2818
0
LINE
8
BLACK
6
CONTINUOUS
10
4.14654
20
-2.2818
11
4.14972
21
-2.29783
0
LINE
8
BLACK
6
CONTINUOUS
10
4.14972
20
-2.29783
11
4.15598
21
-2.31293
0
LINE
8
BLACK
6
CONTINUOUS
10
4.15598
20
-2.31293
11
4.16506
21
-2.32653
0
LINE
8
BLACK
6
CONTINUOUS
10
4.16506
20
-2.32653
11
4.17662
21
-2.33809
0
LINE
8
BLACK
6
CONTINUOUS
10
4.17662
20
-2.33809
11
4.19022
21
-2.34717
0
LINE
8
BLACK
6
CONTINUOUS
10
4.19022
20
-2.34717
11
4.20532
21
-2.35342
0
LINE
8
BLACK
6
CONTINUOUS
10
4.20532
20
-2.35342
11
4.22135
21
-2.35661
0
LINE
8
BLACK
6
CONTINUOUS
10
4.22135
20
-2.35661
11
4.2377
21
-2.35661
0
LINE
8
BLACK
6
CONTINUOUS
10
4.2377
20
-2.35661
11
4.25374
21
-2.35342
0
LINE
8
BLACK
6
CONTINUOUS
10
4.25374
20
-2.35342
11
4.26884
21
-2.34717
0
LINE
8
BLACK
6
CONTINUOUS
10
4.26884
20
-2.34717
11
4.28243
21
-2.33809
0
LINE
8
BLACK
6
CONTINUOUS
10
4.28243
20
-2.33809
11
4.29399
21
-2.32653
0
LINE
8
BLACK
6
CONTINUOUS
10
4.29399
20
-2.32653
11
4.30307
21
-2.31293
0
LINE
8
BLACK
6
CONTINUOUS
10
4.30307
20
-2.31293
11
4.30933
21
-2.29783
0
LINE
8
BLACK
6
CONTINUOUS
10
4.30933
20
-2.29783
11
4.31252
21
-2.2818
0
LINE
8
BLACK
6
CONTINUOUS
10
4.31252
20
-2.2818
11
4.31252
21
-2.26545
0
LINE
8
BLACK
6
CONTINUOUS
10
4.31252
20
-2.26545
11
4.30933
21
-2.24941
0
LINE
8
BLACK
6
CONTINUOUS
10
4.30933
20
-2.24941
11
4.30307
21
-2.23431
0
LINE
8
BLACK
6
CONTINUOUS
10
4.30307
20
-2.23431
11
4.29399
21
-2.22072
0
LINE
8
BLACK
6
CONTINUOUS
10
4.29399
20
-2.22072
11
4.28243
21
-2.20916
0
LINE
8
BLACK
6
CONTINUOUS
10
4.28243
20
-2.20916
11
4.26884
21
-2.20008
0
LINE
8
BLACK
6
CONTINUOUS
10
4.26884
20
-2.20008
11
4.25374
21
-2.19382
0
LINE
8
BLACK
6
CONTINUOUS
10
4.25374
20
-2.19382
11
4.2377
21
-2.19063
0
LINE
8
BLACK
6
CONTINUOUS
10
4.2377
20
-2.19063
11
4.22135
21
-2.19063
0
LINE
8
BLACK
6
CONTINUOUS
10
3.72117
20
-2.03315
11
3.70324
21
-2.03672
0
LINE
8
BLACK
6
CONTINUOUS
10
3.70324
20
-2.03672
11
3.68634
21
-2.04372
0
LINE
8
BLACK
6
CONTINUOUS
10
3.68634
20
-2.04372
11
3.67114
21
-2.05387
0
LINE
8
BLACK
6
CONTINUOUS
10
3.67114
20
-2.05387
11
3.65821
21
-2.06681
0
LINE
8
BLACK
6
CONTINUOUS
10
3.65821
20
-2.06681
11
3.64805
21
-2.08201
0
LINE
8
BLACK
6
CONTINUOUS
10
3.64805
20
-2.08201
11
3.64105
21
-2.09891
0
LINE
8
BLACK
6
CONTINUOUS
10
3.64105
20
-2.09891
11
3.63748
21
-2.11684
0
LINE
8
BLACK
6
CONTINUOUS
10
3.63748
20
-2.11684
11
3.63748
21
-2.13513
0
LINE
8
BLACK
6
CONTINUOUS
10
3.63748
20
-2.13513
11
3.64105
21
-2.15306
0
LINE
8
BLACK
6
CONTINUOUS
10
3.64105
20
-2.15306
11
3.64805
21
-2.16996
0
LINE
8
BLACK
6
CONTINUOUS
10
3.64805
20
-2.16996
11
3.65821
21
-2.18516
0
LINE
8
BLACK
6
CONTINUOUS
10
3.65821
20
-2.18516
11
3.67114
21
-2.19809
0
LINE
8
BLACK
6
CONTINUOUS
10
3.67114
20
-2.19809
11
3.68634
21
-2.20825
0
LINE
8
BLACK
6
CONTINUOUS
10
3.68634
20
-2.20825
11
3.70324
21
-2.21525
0
LINE
8
BLACK
6
CONTINUOUS
10
3.70324
20
-2.21525
11
3.72117
21
-2.21882
0
LINE
8
BLACK
6
CONTINUOUS
10
3.72117
20
-2.21882
11
3.73946
21
-2.21882
0
LINE
8
BLACK
6
CONTINUOUS
10
3.73946
20
-2.21882
11
3.75739
21
-2.21525
0
LINE
8
BLACK
6
CONTINUOUS
10
3.75739
20
-2.21525
11
3.77429
21
-2.20825
0
LINE
8
BLACK
6
CONTINUOUS
10
3.77429
20
-2.20825
11
3.78949
21
-2.19809
0
LINE
8
BLACK
6
CONTINUOUS
10
3.78949
20
-2.19809
11
3.80242
21
-2.18516
0
LINE
8
BLACK
6
CONTINUOUS
10
3.80242
20
-2.18516
11
3.81258
21
-2.16996
0
LINE
8
BLACK
6
CONTINUOUS
10
3.81258
20
-2.16996
11
3.81958
21
-2.15306
0
LINE
8
BLACK
6
CONTINUOUS
10
3.81958
20
-2.15306
11
3.82315
21
-2.13513
0
LINE
8
BLACK
6
CONTINUOUS
10
3.82315
20
-2.13513
11
3.82315
21
-2.11684
0
LINE
8
BLACK
6
CONTINUOUS
10
3.82315
20
-2.11684
11
3.81958
21
-2.09891
0
LINE
8
BLACK
6
CONTINUOUS
10
3.81958
20
-2.09891
11
3.81258
21
-2.08201
0
LINE
8
BLACK
6
CONTINUOUS
10
3.81258
20
-2.08201
11
3.80242
21
-2.06681
0
LINE
8
BLACK
6
CONTINUOUS
10
3.80242
20
-2.06681
11
3.78949
21
-2.05387
0
LINE
8
BLACK
6
CONTINUOUS
10
3.78949
20
-2.05387
11
3.77429
21
-2.04372
0
LINE
8
BLACK
6
CONTINUOUS
10
3.77429
20
-2.04372
11
3.75739
21
-2.03672
0
LINE
8
BLACK
6
CONTINUOUS
10
3.75739
20
-2.03672
11
3.73946
21
-2.03315
0
LINE
8
BLACK
6
CONTINUOUS
10
3.73946
20
-2.03315
11
3.72117
21
-2.03315
0
LINE
8
BLACK
6
CONTINUOUS
10
2.97314
20
-2.03315
11
2.9552
21
-2.03672
0
LINE
8
BLACK
6
CONTINUOUS
10
2.9552
20
-2.03672
11
2.93831
21
-2.04372
0
LINE
8
BLACK
6
CONTINUOUS
10
2.93831
20
-2.04372
11
2.9231
21
-2.05387
0
LINE
8
BLACK
6
CONTINUOUS
10
2.9231
20
-2.05387
11
2.91017
21
-2.06681
0
LINE
8
BLACK
6
CONTINUOUS
10
2.91017
20
-2.06681
11
2.90001
21
-2.08201
0
LINE
8
BLACK
6
CONTINUOUS
10
2.90001
20
-2.08201
11
2.89302
21
-2.09891
0
LINE
8
BLACK
6
CONTINUOUS
10
2.89302
20
-2.09891
11
2.88945
21
-2.11684
0
LINE
8
BLACK
6
CONTINUOUS
10
2.88945
20
-2.11684
11
2.88945
21
-2.13513
0
LINE
8
BLACK
6
CONTINUOUS
10
2.88945
20
-2.13513
11
2.89302
21
-2.15306
0
LINE
8
BLACK
6
CONTINUOUS
10
2.89302
20
-2.15306
11
2.90001
21
-2.16996
0
LINE
8
BLACK
6
CONTINUOUS
10
2.90001
20
-2.16996
11
2.91017
21
-2.18516
0
LINE
8
BLACK
6
CONTINUOUS
10
2.91017
20
-2.18516
11
2.9231
21
-2.19809
0
LINE
8
BLACK
6
CONTINUOUS
10
2.9231
20
-2.19809
11
2.93831
21
-2.20825
0
LINE
8
BLACK
6
CONTINUOUS
10
2.93831
20
-2.20825
11
2.9552
21
-2.21525
0
LINE
8
BLACK
6
CONTINUOUS
10
2.9552
20
-2.21525
11
2.97314
21
-2.21882
0
LINE
8
BLACK
6
CONTINUOUS
10
2.97314
20
-2.21882
11
2.99143
21
-2.21882
0
LINE
8
BLACK
6
CONTINUOUS
10
2.99143
20
-2.21882
11
3.00936
21
-2.21525
0
LINE
8
BLACK
6
CONTINUOUS
10
3.00936
20
-2.21525
11
3.02626
21
-2.20825
0
LINE
8
BLACK
6
CONTINUOUS
10
3.02626
20
-2.20825
11
3.04146
21
-2.19809
0
LINE
8
BLACK
6
CONTINUOUS
10
3.04146
20
-2.19809
11
3.05439
21
-2.18516
0
LINE
8
BLACK
6
CONTINUOUS
10
3.05439
20
-2.18516
11
3.06455
21
-2.16996
0
LINE
8
BLACK
6
CONTINUOUS
10
3.06455
20
-2.16996
11
3.07155
21
-2.15306
0
LINE
8
BLACK
6
CONTINUOUS
10
3.07155
20
-2.15306
11
3.07512
21
-2.13513
0
LINE
8
BLACK
6
CONTINUOUS
10
3.07512
20
-2.13513
11
3.07512
21
-2.11684
0
LINE
8
BLACK
6
CONTINUOUS
10
3.07512
20
-2.11684
11
3.07155
21
-2.09891
0
LINE
8
BLACK
6
CONTINUOUS
10
3.07155
20
-2.09891
11
3.06455
21
-2.08201
0
LINE
8
BLACK
6
CONTINUOUS
10
3.06455
20
-2.08201
11
3.05439
21
-2.06681
0
LINE
8
BLACK
6
CONTINUOUS
10
3.05439
20
-2.06681
11
3.04146
21
-2.05387
0
LINE
8
BLACK
6
CONTINUOUS
10
3.04146
20
-2.05387
11
3.02626
21
-2.04372
0
LINE
8
BLACK
6
CONTINUOUS
10
3.02626
20
-2.04372
11
3.00936
21
-2.03672
0
LINE
8
BLACK
6
CONTINUOUS
10
3.00936
20
-2.03672
11
2.99143
21
-2.03315
0
LINE
8
BLACK
6
CONTINUOUS
10
2.99143
20
-2.03315
11
2.97314
21
-2.03315
0
LINE
8
BLACK
6
CONTINUOUS
10
4.22547
20
-1.98787
11
4.21209
21
-1.99053
0
LINE
8
BLACK
6
CONTINUOUS
10
4.21209
20
-1.99053
11
4.1995
21
-1.99575
0
LINE
8
BLACK
6
CONTINUOUS
10
4.1995
20
-1.99575
11
4.18816
21
-2.00333
0
LINE
8
BLACK
6
CONTINUOUS
10
4.18816
20
-2.00333
11
4.17852
21
-2.01297
0
LINE
8
BLACK
6
CONTINUOUS
10
4.17852
20
-2.01297
11
4.17095
21
-2.0243
0
LINE
8
BLACK
6
CONTINUOUS
10
4.17095
20
-2.0243
11
4.16573
21
-2.0369
0
LINE
8
BLACK
6
CONTINUOUS
10
4.16573
20
-2.0369
11
4.16307
21
-2.05027
0
LINE
8
BLACK
6
CONTINUOUS
10
4.16307
20
-2.05027
11
4.16307
21
-2.0639
0
LINE
8
BLACK
6
CONTINUOUS
10
4.16307
20
-2.0639
11
4.16573
21
-2.07728
0
LINE
8
BLACK
6
CONTINUOUS
10
4.16573
20
-2.07728
11
4.17095
21
-2.08987
0
LINE
8
BLACK
6
CONTINUOUS
10
4.17095
20
-2.08987
11
4.17852
21
-2.10121
0
LINE
8
BLACK
6
CONTINUOUS
10
4.17852
20
-2.10121
11
4.18816
21
-2.11085
0
LINE
8
BLACK
6
CONTINUOUS
10
4.18816
20
-2.11085
11
4.1995
21
-2.11842
0
LINE
8
BLACK
6
CONTINUOUS
10
4.1995
20
-2.11842
11
4.21209
21
-2.12364
0
LINE
8
BLACK
6
CONTINUOUS
10
4.21209
20
-2.12364
11
4.22547
21
-2.1263
0
LINE
8
BLACK
6
CONTINUOUS
10
4.22547
20
-2.1263
11
4.2391
21
-2.1263
0
LINE
8
BLACK
6
CONTINUOUS
10
4.2391
20
-2.1263
11
4.25247
21
-2.12364
0
LINE
8
BLACK
6
CONTINUOUS
10
4.25247
20
-2.12364
11
4.26507
21
-2.11842
0
LINE
8
BLACK
6
CONTINUOUS
10
4.26507
20
-2.11842
11
4.2764
21
-2.11085
0
LINE
8
BLACK
6
CONTINUOUS
10
4.2764
20
-2.11085
11
4.28604
21
-2.10121
0
LINE
8
BLACK
6
CONTINUOUS
10
4.28604
20
-2.10121
11
4.29362
21
-2.08987
0
LINE
8
BLACK
6
CONTINUOUS
10
4.29362
20
-2.08987
11
4.29884
21
-2.07728
0
LINE
8
BLACK
6
CONTINUOUS
10
4.29884
20
-2.07728
11
4.3015
21
-2.0639
0
LINE
8
BLACK
6
CONTINUOUS
10
4.3015
20
-2.0639
11
4.3015
21
-2.05027
0
LINE
8
BLACK
6
CONTINUOUS
10
4.3015
20
-2.05027
11
4.29884
21
-2.0369
0
LINE
8
BLACK
6
CONTINUOUS
10
4.29884
20
-2.0369
11
4.29362
21
-2.0243
0
LINE
8
BLACK
6
CONTINUOUS
10
4.29362
20
-2.0243
11
4.28604
21
-2.01297
0
LINE
8
BLACK
6
CONTINUOUS
10
4.28604
20
-2.01297
11
4.2764
21
-2.00333
0
LINE
8
BLACK
6
CONTINUOUS
10
4.2764
20
-2.00333
11
4.26507
21
-1.99575
0
LINE
8
BLACK
6
CONTINUOUS
10
4.26507
20
-1.99575
11
4.25247
21
-1.99053
0
LINE
8
BLACK
6
CONTINUOUS
10
4.25247
20
-1.99053
11
4.2391
21
-1.98787
0
LINE
8
BLACK
6
CONTINUOUS
10
4.2391
20
-1.98787
11
4.22547
21
-1.98787
0
LINE
8
BLACK
6
CONTINUOUS
10
2.4735
20
-1.98787
11
2.46013
21
-1.99053
0
LINE
8
BLACK
6
CONTINUOUS
10
2.46013
20
-1.99053
11
2.44753
21
-1.99575
0
LINE
8
BLACK
6
CONTINUOUS
10
2.44753
20
-1.99575
11
2.43619
21
-2.00333
0
LINE
8
BLACK
6
CONTINUOUS
10
2.43619
20
-2.00333
11
2.42655
21
-2.01297
0
LINE
8
BLACK
6
CONTINUOUS
10
2.42655
20
-2.01297
11
2.41898
21
-2.0243
0
LINE
8
BLACK
6
CONTINUOUS
10
2.41898
20
-2.0243
11
2.41376
21
-2.0369
0
LINE
8
BLACK
6
CONTINUOUS
10
2.41376
20
-2.0369
11
2.4111
21
-2.05027
0
LINE
8
BLACK
6
CONTINUOUS
10
2.4111
20
-2.05027
11
2.4111
21
-2.0639
0
LINE
8
BLACK
6
CONTINUOUS
10
2.4111
20
-2.0639
11
2.41376
21
-2.07728
0
LINE
8
BLACK
6
CONTINUOUS
10
2.41376
20
-2.07728
11
2.41898
21
-2.08987
0
LINE
8
BLACK
6
CONTINUOUS
10
2.41898
20
-2.08987
11
2.42655
21
-2.10121
0
LINE
8
BLACK
6
CONTINUOUS
10
2.42655
20
-2.10121
11
2.43619
21
-2.11085
0
LINE
8
BLACK
6
CONTINUOUS
10
2.43619
20
-2.11085
11
2.44753
21
-2.11842
0
LINE
8
BLACK
6
CONTINUOUS
10
2.44753
20
-2.11842
11
2.46013
21
-2.12364
0
LINE
8
BLACK
6
CONTINUOUS
10
2.46013
20
-2.12364
11
2.4735
21
-2.1263
0
LINE
8
BLACK
6
CONTINUOUS
10
2.4735
20
-2.1263
11
2.48713
21
-2.1263
0
LINE
8
BLACK
6
CONTINUOUS
10
2.48713
20
-2.1263
11
2.5005
21
-2.12364
0
LINE
8
BLACK
6
CONTINUOUS
10
2.5005
20
-2.12364
11
2.5131
21
-2.11842
0
LINE
8
BLACK
6
CONTINUOUS
10
2.5131
20
-2.11842
11
2.52242
21
-2.11219
0
LINE
8
BLACK
6
CONTINUOUS
10
2.52242
20
-2.11219
11
2.52242
21
-2.11219
0
LINE
8
BLACK
6
CONTINUOUS
10
2.52242
20
-2.11219
11
2.52444
21
-2.11085
0
LINE
8
BLACK
6
CONTINUOUS
10
2.52444
20
-2.11085
11
2.53408
21
-2.10121
0
LINE
8
BLACK
6
CONTINUOUS
10
2.53408
20
-2.10121
11
2.54165
21
-2.08987
0
LINE
8
BLACK
6
CONTINUOUS
10
2.54165
20
-2.08987
11
2.54687
21
-2.07728
0
LINE
8
BLACK
6
CONTINUOUS
10
2.54687
20
-2.07728
11
2.54953
21
-2.0639
0
LINE
8
BLACK
6
CONTINUOUS
10
2.54953
20
-2.0639
11
2.54953
21
-2.05027
0
LINE
8
BLACK
6
CONTINUOUS
10
2.54953
20
-2.05027
11
2.54687
21
-2.0369
0
LINE
8
BLACK
6
CONTINUOUS
10
2.54687
20
-2.0369
11
2.54165
21
-2.0243
0
LINE
8
BLACK
6
CONTINUOUS
10
2.54165
20
-2.0243
11
2.53408
21
-2.01297
0
LINE
8
BLACK
6
CONTINUOUS
10
2.53408
20
-2.01297
11
2.52444
21
-2.00333
0
LINE
8
BLACK
6
CONTINUOUS
10
2.52444
20
-2.00333
11
2.5131
21
-1.99575
0
LINE
8
BLACK
6
CONTINUOUS
10
2.5131
20
-1.99575
11
2.5005
21
-1.99053
0
LINE
8
BLACK
6
CONTINUOUS
10
2.5005
20
-1.99053
11
2.48713
21
-1.98787
0
LINE
8
BLACK
6
CONTINUOUS
10
2.48713
20
-1.98787
11
2.4735
21
-1.98787
0
LINE
8
BLACK
6
CONTINUOUS
10
4.24664
20
-6.10425
11
4.25559
21
-6.10796
0
LINE
8
BLACK
6
CONTINUOUS
10
4.25559
20
-6.10796
11
4.26365
21
-6.11335
0
LINE
8
BLACK
6
CONTINUOUS
10
4.26365
20
-6.11335
11
4.27051
21
-6.1202
0
LINE
8
BLACK
6
CONTINUOUS
10
4.27051
20
-6.1202
11
4.2759
21
-6.12826
0
LINE
8
BLACK
6
CONTINUOUS
10
4.2759
20
-6.12826
11
4.2796
21
-6.13722
0
LINE
8
BLACK
6
CONTINUOUS
10
4.2796
20
-6.13722
11
4.2815
21
-6.14673
0
LINE
8
BLACK
6
CONTINUOUS
10
4.2815
20
-6.14673
11
4.2815
21
-6.15642
0
LINE
8
BLACK
6
CONTINUOUS
10
4.2815
20
-6.15642
11
4.2796
21
-6.16593
0
LINE
8
BLACK
6
CONTINUOUS
10
4.2796
20
-6.16593
11
4.2759
21
-6.17489
0
LINE
8
BLACK
6
CONTINUOUS
10
4.2759
20
-6.17489
11
4.27051
21
-6.18295
0
LINE
8
BLACK
6
CONTINUOUS
10
4.27051
20
-6.18295
11
4.26365
21
-6.1898
0
LINE
8
BLACK
6
CONTINUOUS
10
4.26365
20
-6.1898
11
4.25559
21
-6.19519
0
LINE
8
BLACK
6
CONTINUOUS
10
4.25559
20
-6.19519
11
4.24664
21
-6.1989
0
LINE
8
BLACK
6
CONTINUOUS
10
4.24664
20
-6.1989
11
4.23713
21
-6.20079
0
LINE
8
BLACK
6
CONTINUOUS
10
4.23713
20
-6.20079
11
4.22744
21
-6.20079
0
LINE
8
BLACK
6
CONTINUOUS
10
4.22744
20
-6.20079
11
4.21793
21
-6.1989
0
LINE
8
BLACK
6
CONTINUOUS
10
4.21793
20
-6.1989
11
4.20897
21
-6.19519
0
LINE
8
BLACK
6
CONTINUOUS
10
4.20897
20
-6.19519
11
4.20091
21
-6.1898
0
LINE
8
BLACK
6
CONTINUOUS
10
4.20091
20
-6.1898
11
4.19406
21
-6.18295
0
LINE
8
BLACK
6
CONTINUOUS
10
4.19406
20
-6.18295
11
4.18867
21
-6.17489
0
LINE
8
BLACK
6
CONTINUOUS
10
4.18867
20
-6.17489
11
4.18496
21
-6.16593
0
LINE
8
BLACK
6
CONTINUOUS
10
4.18496
20
-6.16593
11
4.18307
21
-6.15642
0
LINE
8
BLACK
6
CONTINUOUS
10
4.18307
20
-6.15642
11
4.18307
21
-6.14673
0
LINE
8
BLACK
6
CONTINUOUS
10
4.18307
20
-6.14673
11
4.18496
21
-6.13722
0
LINE
8
BLACK
6
CONTINUOUS
10
4.18496
20
-6.13722
11
4.18867
21
-6.12826
0
LINE
8
BLACK
6
CONTINUOUS
10
4.18867
20
-6.12826
11
4.19406
21
-6.1202
0
LINE
8
BLACK
6
CONTINUOUS
10
4.19406
20
-6.1202
11
4.20091
21
-6.11335
0
LINE
8
BLACK
6
CONTINUOUS
10
4.20091
20
-6.11335
11
4.20897
21
-6.10796
0
LINE
8
BLACK
6
CONTINUOUS
10
4.20897
20
-6.10796
11
4.21793
21
-6.10425
0
LINE
8
BLACK
6
CONTINUOUS
10
4.21793
20
-6.10425
11
4.22744
21
-6.10236
0
LINE
8
BLACK
6
CONTINUOUS
10
4.22744
20
-6.10236
11
4.23713
21
-6.10236
0
LINE
8
BLACK
6
CONTINUOUS
10
4.23713
20
-6.10236
11
4.24664
21
-6.10425
0
LINE
8
BLACK
6
CONTINUOUS
10
2.49467
20
-6.10425
11
2.50363
21
-6.10796
0
LINE
8
BLACK
6
CONTINUOUS
10
2.50363
20
-6.10796
11
2.51169
21
-6.11335
0
LINE
8
BLACK
6
CONTINUOUS
10
2.51169
20
-6.11335
11
2.51854
21
-6.1202
0
LINE
8
BLACK
6
CONTINUOUS
10
2.51854
20
-6.1202
11
2.52393
21
-6.12826
0
LINE
8
BLACK
6
CONTINUOUS
10
2.52393
20
-6.12826
11
2.52764
21
-6.13722
0
LINE
8
BLACK
6
CONTINUOUS
10
2.52764
20
-6.13722
11
2.52953
21
-6.14673
0
LINE
8
BLACK
6
CONTINUOUS
10
2.52953
20
-6.14673
11
2.52953
21
-6.15642
0
LINE
8
BLACK
6
CONTINUOUS
10
2.52953
20
-6.15642
11
2.52764
21
-6.16593
0
LINE
8
BLACK
6
CONTINUOUS
10
2.52764
20
-6.16593
11
2.52393
21
-6.17489
0
LINE
8
BLACK
6
CONTINUOUS
10
2.52393
20
-6.17489
11
2.51854
21
-6.18295
0
LINE
8
BLACK
6
CONTINUOUS
10
2.51854
20
-6.18295
11
2.51169
21
-6.1898
0
LINE
8
BLACK
6
CONTINUOUS
10
2.51169
20
-6.1898
11
2.50363
21
-6.19519
0
LINE
8
BLACK
6
CONTINUOUS
10
2.50363
20
-6.19519
11
2.49467
21
-6.1989
0
LINE
8
BLACK
6
CONTINUOUS
10
2.49467
20
-6.1989
11
2.48516
21
-6.20079
0
LINE
8
BLACK
6
CONTINUOUS
10
2.48516
20
-6.20079
11
2.47547
21
-6.20079
0
LINE
8
BLACK
6
CONTINUOUS
10
2.47547
20
-6.20079
11
2.46596
21
-6.1989
0
LINE
8
BLACK
6
CONTINUOUS
10
2.46596
20
-6.1989
11
2.457
21
-6.19519
0
LINE
8
BLACK
6
CONTINUOUS
10
2.457
20
-6.19519
11
2.44894
21
-6.1898
0
LINE
8
BLACK
6
CONTINUOUS
10
2.44894
20
-6.1898
11
2.44209
21
-6.18295
0
LINE
8
BLACK
6
CONTINUOUS
10
2.44209
20
-6.18295
11
2.4367
21
-6.17489
0
LINE
8
BLACK
6
CONTINUOUS
10
2.4367
20
-6.17489
11
2.43299
21
-6.16593
0
LINE
8
BLACK
6
CONTINUOUS
10
2.43299
20
-6.16593
11
2.4311
21
-6.15642
0
LINE
8
BLACK
6
CONTINUOUS
10
2.4311
20
-6.15642
11
2.4311
21
-6.14673
0
LINE
8
BLACK
6
CONTINUOUS
10
2.4311
20
-6.14673
11
2.43299
21
-6.13722
0
LINE
8
BLACK
6
CONTINUOUS
10
2.43299
20
-6.13722
11
2.4367
21
-6.12826
0
LINE
8
BLACK
6
CONTINUOUS
10
2.4367
20
-6.12826
11
2.44209
21
-6.1202
0
LINE
8
BLACK
6
CONTINUOUS
10
2.44209
20
-6.1202
11
2.44894
21
-6.11335
0
LINE
8
BLACK
6
CONTINUOUS
10
2.44894
20
-6.11335
11
2.457
21
-6.10796
0
LINE
8
BLACK
6
CONTINUOUS
10
2.457
20
-6.10796
11
2.46596
21
-6.10425
0
LINE
8
BLACK
6
CONTINUOUS
10
2.46596
20
-6.10425
11
2.47547
21
-6.10236
0
LINE
8
BLACK
6
CONTINUOUS
10
2.47547
20
-6.10236
11
2.48516
21
-6.10236
0
LINE
8
BLACK
6
CONTINUOUS
10
2.48516
20
-6.10236
11
2.49467
21
-6.10425
0
LINE
8
BLACK
6
CONTINUOUS
10
2.5958
20
-5.65642
11
2.61873
21
-5.66591
0
LINE
8
BLACK
6
CONTINUOUS
10
2.61873
20
-5.66591
11
2.63937
21
-5.6797
0
LINE
8
BLACK
6
CONTINUOUS
10
2.63937
20
-5.6797
11
2.65691
21
-5.69725
0
LINE
8
BLACK
6
CONTINUOUS
10
2.65691
20
-5.69725
11
2.6707
21
-5.71788
0
LINE
8
BLACK
6
CONTINUOUS
10
2.6707
20
-5.71788
11
2.6802
21
-5.74081
0
LINE
8
BLACK
6
CONTINUOUS
10
2.6802
20
-5.74081
11
2.68504
21
-5.76515
0
LINE
8
BLACK
6
CONTINUOUS
10
2.68504
20
-5.76515
11
2.68504
21
-5.78997
0
LINE
8
BLACK
6
CONTINUOUS
10
2.68504
20
-5.78997
11
2.6802
21
-5.81431
0
LINE
8
BLACK
6
CONTINUOUS
10
2.6802
20
-5.81431
11
2.6707
21
-5.83723
0
LINE
8
BLACK
6
CONTINUOUS
10
2.6707
20
-5.83723
11
2.65691
21
-5.85787
0
LINE
8
BLACK
6
CONTINUOUS
10
2.65691
20
-5.85787
11
2.63937
21
-5.87542
0
LINE
8
BLACK
6
CONTINUOUS
10
2.63937
20
-5.87542
11
2.61873
21
-5.8892
0
LINE
8
BLACK
6
CONTINUOUS
10
2.61873
20
-5.8892
11
2.5958
21
-5.8987
0
LINE
8
BLACK
6
CONTINUOUS
10
2.5958
20
-5.8987
11
2.57146
21
-5.90354
0
LINE
8
BLACK
6
CONTINUOUS
10
2.57146
20
-5.90354
11
2.54665
21
-5.90354
0
LINE
8
BLACK
6
CONTINUOUS
10
2.54665
20
-5.90354
11
2.52231
21
-5.8987
0
LINE
8
BLACK
6
CONTINUOUS
10
2.52231
20
-5.8987
11
2.49938
21
-5.8892
0
LINE
8
BLACK
6
CONTINUOUS
10
2.49938
20
-5.8892
11
2.47874
21
-5.87542
0
LINE
8
BLACK
6
CONTINUOUS
10
2.47874
20
-5.87542
11
2.4612
21
-5.85787
0
LINE
8
BLACK
6
CONTINUOUS
10
2.4612
20
-5.85787
11
2.44741
21
-5.83723
0
LINE
8
BLACK
6
CONTINUOUS
10
2.44741
20
-5.83723
11
2.43791
21
-5.81431
0
LINE
8
BLACK
6
CONTINUOUS
10
2.43791
20
-5.81431
11
2.43307
21
-5.78997
0
LINE
8
BLACK
6
CONTINUOUS
10
2.43307
20
-5.78997
11
2.43307
21
-5.76515
0
LINE
8
BLACK
6
CONTINUOUS
10
2.43307
20
-5.76515
11
2.43791
21
-5.74081
0
LINE
8
BLACK
6
CONTINUOUS
10
2.43791
20
-5.74081
11
2.44741
21
-5.71788
0
LINE
8
BLACK
6
CONTINUOUS
10
2.44741
20
-5.71788
11
2.4612
21
-5.69725
0
LINE
8
BLACK
6
CONTINUOUS
10
2.4612
20
-5.69725
11
2.47874
21
-5.6797
0
LINE
8
BLACK
6
CONTINUOUS
10
2.47874
20
-5.6797
11
2.49938
21
-5.66591
0
LINE
8
BLACK
6
CONTINUOUS
10
2.49938
20
-5.66591
11
2.52231
21
-5.65642
0
LINE
8
BLACK
6
CONTINUOUS
10
2.52231
20
-5.65642
11
2.54665
21
-5.65157
0
LINE
8
BLACK
6
CONTINUOUS
10
2.54665
20
-5.65157
11
2.57146
21
-5.65157
0
LINE
8
BLACK
6
CONTINUOUS
10
2.57146
20
-5.65157
11
2.5958
21
-5.65642
0
LINE
8
BLACK
6
CONTINUOUS
10
2.54151
20
-5.11414
11
2.56372
21
-5.12334
0
LINE
8
BLACK
6
CONTINUOUS
10
2.56372
20
-5.12334
11
2.58371
21
-5.1367
0
LINE
8
BLACK
6
CONTINUOUS
10
2.58371
20
-5.1367
11
2.60071
21
-5.1537
0
LINE
8
BLACK
6
CONTINUOUS
10
2.60071
20
-5.1537
11
2.61406
21
-5.17368
0
LINE
8
BLACK
6
CONTINUOUS
10
2.61406
20
-5.17368
11
2.62326
21
-5.1959
0
LINE
8
BLACK
6
CONTINUOUS
10
2.62326
20
-5.1959
11
2.62795
21
-5.21948
0
LINE
8
BLACK
6
CONTINUOUS
10
2.62795
20
-5.21948
11
2.62795
21
-5.24352
0
LINE
8
BLACK
6
CONTINUOUS
10
2.62795
20
-5.24352
11
2.62326
21
-5.2671
0
LINE
8
BLACK
6
CONTINUOUS
10
2.62326
20
-5.2671
11
2.61406
21
-5.28931
0
LINE
8
BLACK
6
CONTINUOUS
10
2.61406
20
-5.28931
11
2.60071
21
-5.3093
0
LINE
8
BLACK
6
CONTINUOUS
10
2.60071
20
-5.3093
11
2.58371
21
-5.3263
0
LINE
8
BLACK
6
CONTINUOUS
10
2.58371
20
-5.3263
11
2.56372
21
-5.33965
0
LINE
8
BLACK
6
CONTINUOUS
10
2.56372
20
-5.33965
11
2.54151
21
-5.34885
0
LINE
8
BLACK
6
CONTINUOUS
10
2.54151
20
-5.34885
11
2.51793
21
-5.35354
0
LINE
8
BLACK
6
CONTINUOUS
10
2.51793
20
-5.35354
11
2.49388
21
-5.35354
0
LINE
8
BLACK
6
CONTINUOUS
10
2.49388
20
-5.35354
11
2.47031
21
-5.34885
0
LINE
8
BLACK
6
CONTINUOUS
10
2.47031
20
-5.34885
11
2.44809
21
-5.33965
0
LINE
8
BLACK
6
CONTINUOUS
10
2.44809
20
-5.33965
11
2.4281
21
-5.3263
0
LINE
8
BLACK
6
CONTINUOUS
10
2.4281
20
-5.3263
11
2.41111
21
-5.3093
0
LINE
8
BLACK
6
CONTINUOUS
10
2.41111
20
-5.3093
11
2.39775
21
-5.28931
0
LINE
8
BLACK
6
CONTINUOUS
10
2.39775
20
-5.28931
11
2.38855
21
-5.2671
0
LINE
8
BLACK
6
CONTINUOUS
10
2.38855
20
-5.2671
11
2.38386
21
-5.24352
0
LINE
8
BLACK
6
CONTINUOUS
10
2.38386
20
-5.24352
11
2.38386
21
-5.21948
0
LINE
8
BLACK
6
CONTINUOUS
10
2.38386
20
-5.21948
11
2.38855
21
-5.1959
0
LINE
8
BLACK
6
CONTINUOUS
10
2.38855
20
-5.1959
11
2.39775
21
-5.17368
0
LINE
8
BLACK
6
CONTINUOUS
10
2.39775
20
-5.17368
11
2.41111
21
-5.1537
0
LINE
8
BLACK
6
CONTINUOUS
10
2.41111
20
-5.1537
11
2.4281
21
-5.1367
0
LINE
8
BLACK
6
CONTINUOUS
10
2.4281
20
-5.1367
11
2.44809
21
-5.12334
0
LINE
8
BLACK
6
CONTINUOUS
10
2.44809
20
-5.12334
11
2.47031
21
-5.11414
0
LINE
8
BLACK
6
CONTINUOUS
10
2.47031
20
-5.11414
11
2.49388
21
-5.10945
0
LINE
8
BLACK
6
CONTINUOUS
10
2.49388
20
-5.10945
11
2.51793
21
-5.10945
0
LINE
8
BLACK
6
CONTINUOUS
10
2.51793
20
-5.10945
11
2.54151
21
-5.11414
0
LINE
8
BLACK
6
CONTINUOUS
10
3.3727
20
-4.84297
11
3.38417
21
-4.84772
0
LINE
8
BLACK
6
CONTINUOUS
10
3.38417
20
-4.84772
11
3.39449
21
-4.85461
0
LINE
8
BLACK
6
CONTINUOUS
10
3.39449
20
-4.85461
11
3.40326
21
-4.86339
0
LINE
8
BLACK
6
CONTINUOUS
10
3.40326
20
-4.86339
11
3.41015
21
-4.87371
0
LINE
8
BLACK
6
CONTINUOUS
10
3.41015
20
-4.87371
11
3.4149
21
-4.88517
0
LINE
8
BLACK
6
CONTINUOUS
10
3.4149
20
-4.88517
11
3.41732
21
-4.89734
0
LINE
8
BLACK
6
CONTINUOUS
10
3.41732
20
-4.89734
11
3.41732
21
-4.90975
0
LINE
8
BLACK
6
CONTINUOUS
10
3.41732
20
-4.90975
11
3.4149
21
-4.92192
0
LINE
8
BLACK
6
CONTINUOUS
10
3.4149
20
-4.92192
11
3.41015
21
-4.93338
0
LINE
8
BLACK
6
CONTINUOUS
10
3.41015
20
-4.93338
11
3.40326
21
-4.9437
0
LINE
8
BLACK
6
CONTINUOUS
10
3.40326
20
-4.9437
11
3.39449
21
-4.95247
0
LINE
8
BLACK
6
CONTINUOUS
10
3.39449
20
-4.95247
11
3.38417
21
-4.95937
0
LINE
8
BLACK
6
CONTINUOUS
10
3.38417
20
-4.95937
11
3.3727
21
-4.96411
0
LINE
8
BLACK
6
CONTINUOUS
10
3.3727
20
-4.96411
11
3.36053
21
-4.96654
0
LINE
8
BLACK
6
CONTINUOUS
10
3.36053
20
-4.96654
11
3.34813
21
-4.96654
0
LINE
8
BLACK
6
CONTINUOUS
10
3.34813
20
-4.96654
11
3.33596
21
-4.96411
0
LINE
8
BLACK
6
CONTINUOUS
10
3.33596
20
-4.96411
11
3.32449
21
-4.95937
0
LINE
8
BLACK
6
CONTINUOUS
10
3.32449
20
-4.95937
11
3.31418
21
-4.95247
0
LINE
8
BLACK
6
CONTINUOUS
10
3.31418
20
-4.95247
11
3.3054
21
-4.9437
0
LINE
8
BLACK
6
CONTINUOUS
10
3.3054
20
-4.9437
11
3.29851
21
-4.93338
0
LINE
8
BLACK
6
CONTINUOUS
10
3.29851
20
-4.93338
11
3.29376
21
-4.92192
0
LINE
8
BLACK
6
CONTINUOUS
10
3.29376
20
-4.92192
11
3.29134
21
-4.90975
0
LINE
8
BLACK
6
CONTINUOUS
10
3.29134
20
-4.90975
11
3.29134
21
-4.89734
0
LINE
8
BLACK
6
CONTINUOUS
10
3.29134
20
-4.89734
11
3.29376
21
-4.88517
0
LINE
8
BLACK
6
CONTINUOUS
10
3.29376
20
-4.88517
11
3.29851
21
-4.87371
0
LINE
8
BLACK
6
CONTINUOUS
10
3.29851
20
-4.87371
11
3.3054
21
-4.86339
0
LINE
8
BLACK
6
CONTINUOUS
10
3.3054
20
-4.86339
11
3.31418
21
-4.85461
0
LINE
8
BLACK
6
CONTINUOUS
10
3.31418
20
-4.85461
11
3.32449
21
-4.84772
0
LINE
8
BLACK
6
CONTINUOUS
10
3.32449
20
-4.84772
11
3.33596
21
-4.84297
0
LINE
8
BLACK
6
CONTINUOUS
10
3.33596
20
-4.84297
11
3.34813
21
-4.84055
0
LINE
8
BLACK
6
CONTINUOUS
10
3.34813
20
-4.84055
11
3.36053
21
-4.84055
0
LINE
8
BLACK
6
CONTINUOUS
10
3.36053
20
-4.84055
11
3.3727
21
-4.84297
0
LINE
8
BLACK
6
CONTINUOUS
10
2.55077
20
-4.74296
11
2.56403
21
-4.74845
0
LINE
8
BLACK
6
CONTINUOUS
10
2.56403
20
-4.74845
11
2.57596
21
-4.75642
0
LINE
8
BLACK
6
CONTINUOUS
10
2.57596
20
-4.75642
11
2.5861
21
-4.76656
0
LINE
8
BLACK
6
CONTINUOUS
10
2.5861
20
-4.76656
11
2.59407
21
-4.77849
0
LINE
8
BLACK
6
CONTINUOUS
10
2.59407
20
-4.77849
11
2.59956
21
-4.79175
0
LINE
8
BLACK
6
CONTINUOUS
10
2.59956
20
-4.79175
11
2.60236
21
-4.80582
0
LINE
8
BLACK
6
CONTINUOUS
10
2.60236
20
-4.80582
11
2.60236
21
-4.82017
0
LINE
8
BLACK
6
CONTINUOUS
10
2.60236
20
-4.82017
11
2.59956
21
-4.83424
0
LINE
8
BLACK
6
CONTINUOUS
10
2.59956
20
-4.83424
11
2.59407
21
-4.84749
0
LINE
8
BLACK
6
CONTINUOUS
10
2.59407
20
-4.84749
11
2.5861
21
-4.85942
0
LINE
8
BLACK
6
CONTINUOUS
10
2.5861
20
-4.85942
11
2.57596
21
-4.86957
0
LINE
8
BLACK
6
CONTINUOUS
10
2.57596
20
-4.86957
11
2.56403
21
-4.87754
0
LINE
8
BLACK
6
CONTINUOUS
10
2.56403
20
-4.87754
11
2.55077
21
-4.88303
0
LINE
8
BLACK
6
CONTINUOUS
10
2.55077
20
-4.88303
11
2.5367
21
-4.88583
0
LINE
8
BLACK
6
CONTINUOUS
10
2.5367
20
-4.88583
11
2.52235
21
-4.88583
0
LINE
8
BLACK
6
CONTINUOUS
10
2.52235
20
-4.88583
11
2.50828
21
-4.88303
0
LINE
8
BLACK
6
CONTINUOUS
10
2.50828
20
-4.88303
11
2.49503
21
-4.87754
0
LINE
8
BLACK
6
CONTINUOUS
10
2.49503
20
-4.87754
11
2.4831
21
-4.86957
0
LINE
8
BLACK
6
CONTINUOUS
10
2.4831
20
-4.86957
11
2.47295
21
-4.85942
0
LINE
8
BLACK
6
CONTINUOUS
10
2.47295
20
-4.85942
11
2.46498
21
-4.84749
0
LINE
8
BLACK
6
CONTINUOUS
10
2.46498
20
-4.84749
11
2.45949
21
-4.83424
0
LINE
8
BLACK
6
CONTINUOUS
10
2.45949
20
-4.83424
11
2.45669
21
-4.82017
0
LINE
8
BLACK
6
CONTINUOUS
10
2.45669
20
-4.82017
11
2.45669
21
-4.80582
0
LINE
8
BLACK
6
CONTINUOUS
10
2.45669
20
-4.80582
11
2.45949
21
-4.79175
0
LINE
8
BLACK
6
CONTINUOUS
10
2.45949
20
-4.79175
11
2.46498
21
-4.77849
0
LINE
8
BLACK
6
CONTINUOUS
10
2.46498
20
-4.77849
11
2.47295
21
-4.76656
0
LINE
8
BLACK
6
CONTINUOUS
10
2.47295
20
-4.76656
11
2.4831
21
-4.75642
0
LINE
8
BLACK
6
CONTINUOUS
10
2.4831
20
-4.75642
11
2.49503
21
-4.74845
0
LINE
8
BLACK
6
CONTINUOUS
10
2.49503
20
-4.74845
11
2.50828
21
-4.74296
0
LINE
8
BLACK
6
CONTINUOUS
10
2.50828
20
-4.74296
11
2.52235
21
-4.74016
0
LINE
8
BLACK
6
CONTINUOUS
10
2.52235
20
-4.74016
11
2.5367
21
-4.74016
0
LINE
8
BLACK
6
CONTINUOUS
10
2.5367
20
-4.74016
11
2.55077
21
-4.74296
0
LINE
8
BLACK
6
CONTINUOUS
10
2.5479
20
-4.47683
11
2.55937
21
-4.48158
0
LINE
8
BLACK
6
CONTINUOUS
10
2.55937
20
-4.48158
11
2.56968
21
-4.48847
0
LINE
8
BLACK
6
CONTINUOUS
10
2.56968
20
-4.48847
11
2.57846
21
-4.49725
0
LINE
8
BLACK
6
CONTINUOUS
10
2.57846
20
-4.49725
11
2.58535
21
-4.50756
0
LINE
8
BLACK
6
CONTINUOUS
10
2.58535
20
-4.50756
11
2.5901
21
-4.51903
0
LINE
8
BLACK
6
CONTINUOUS
10
2.5901
20
-4.51903
11
2.59252
21
-4.5312
0
LINE
8
BLACK
6
CONTINUOUS
10
2.59252
20
-4.5312
11
2.59252
21
-4.54361
0
LINE
8
BLACK
6
CONTINUOUS
10
2.59252
20
-4.54361
11
2.5901
21
-4.55578
0
LINE
8
BLACK
6
CONTINUOUS
10
2.5901
20
-4.55578
11
2.58535
21
-4.56724
0
LINE
8
BLACK
6
CONTINUOUS
10
2.58535
20
-4.56724
11
2.57846
21
-4.57756
0
LINE
8
BLACK
6
CONTINUOUS
10
2.57846
20
-4.57756
11
2.56968
21
-4.58633
0
LINE
8
BLACK
6
CONTINUOUS
10
2.56968
20
-4.58633
11
2.55937
21
-4.59322
0
LINE
8
BLACK
6
CONTINUOUS
10
2.55937
20
-4.59322
11
2.5479
21
-4.59797
0
LINE
8
BLACK
6
CONTINUOUS
10
2.5479
20
-4.59797
11
2.53573
21
-4.60039
0
LINE
8
BLACK
6
CONTINUOUS
10
2.53573
20
-4.60039
11
2.52332
21
-4.60039
0
LINE
8
BLACK
6
CONTINUOUS
10
2.52332
20
-4.60039
11
2.51115
21
-4.59797
0
LINE
8
BLACK
6
CONTINUOUS
10
2.51115
20
-4.59797
11
2.49969
21
-4.59322
0
LINE
8
BLACK
6
CONTINUOUS
10
2.49969
20
-4.59322
11
2.48937
21
-4.58633
0
LINE
8
BLACK
6
CONTINUOUS
10
2.48937
20
-4.58633
11
2.4806
21
-4.57756
0
LINE
8
BLACK
6
CONTINUOUS
10
2.4806
20
-4.57756
11
2.4737
21
-4.56724
0
LINE
8
BLACK
6
CONTINUOUS
10
2.4737
20
-4.56724
11
2.46896
21
-4.55578
0
LINE
8
BLACK
6
CONTINUOUS
10
2.46896
20
-4.55578
11
2.46654
21
-4.54361
0
LINE
8
BLACK
6
CONTINUOUS
10
2.46654
20
-4.54361
11
2.46654
21
-4.5312
0
LINE
8
BLACK
6
CONTINUOUS
10
2.46654
20
-4.5312
11
2.46896
21
-4.51903
0
LINE
8
BLACK
6
CONTINUOUS
10
2.46896
20
-4.51903
11
2.4737
21
-4.50756
0
LINE
8
BLACK
6
CONTINUOUS
10
2.4737
20
-4.50756
11
2.4806
21
-4.49725
0
LINE
8
BLACK
6
CONTINUOUS
10
2.4806
20
-4.49725
11
2.48937
21
-4.48847
0
LINE
8
BLACK
6
CONTINUOUS
10
2.48937
20
-4.48847
11
2.49969
21
-4.48158
0
LINE
8
BLACK
6
CONTINUOUS
10
2.49969
20
-4.48158
11
2.51115
21
-4.47683
0
LINE
8
BLACK
6
CONTINUOUS
10
2.51115
20
-4.47683
11
2.52332
21
-4.47441
0
LINE
8
BLACK
6
CONTINUOUS
10
2.52332
20
-4.47441
11
2.53573
21
-4.47441
0
LINE
8
BLACK
6
CONTINUOUS
10
2.53573
20
-4.47441
11
2.5479
21
-4.47683
0
LINE
8
BLACK
6
CONTINUOUS
10
3.39108
20
-4.14067
11
3.41401
21
-4.15017
0
LINE
8
BLACK
6
CONTINUOUS
10
3.41401
20
-4.15017
11
3.43464
21
-4.16395
0
LINE
8
BLACK
6
CONTINUOUS
10
3.43464
20
-4.16395
11
3.45219
21
-4.1815
0
LINE
8
BLACK
6
CONTINUOUS
10
3.45219
20
-4.1815
11
3.46598
21
-4.20214
0
LINE
8
BLACK
6
CONTINUOUS
10
3.46598
20
-4.20214
11
3.47547
21
-4.22506
0
LINE
8
BLACK
6
CONTINUOUS
10
3.47547
20
-4.22506
11
3.48031
21
-4.2494
0
LINE
8
BLACK
6
CONTINUOUS
10
3.48031
20
-4.2494
11
3.48031
21
-4.27422
0
LINE
8
BLACK
6
CONTINUOUS
10
3.48031
20
-4.27422
11
3.47547
21
-4.29856
0
LINE
8
BLACK
6
CONTINUOUS
10
3.47547
20
-4.29856
11
3.46598
21
-4.32149
0
LINE
8
BLACK
6
CONTINUOUS
10
3.46598
20
-4.32149
11
3.45219
21
-4.34212
0
LINE
8
BLACK
6
CONTINUOUS
10
3.45219
20
-4.34212
11
3.43464
21
-4.35967
0
LINE
8
BLACK
6
CONTINUOUS
10
3.43464
20
-4.35967
11
3.41401
21
-4.37346
0
LINE
8
BLACK
6
CONTINUOUS
10
3.41401
20
-4.37346
11
3.39108
21
-4.38295
0
LINE
8
BLACK
6
CONTINUOUS
10
3.39108
20
-4.38295
11
3.36674
21
-4.3878
0
LINE
8
BLACK
6
CONTINUOUS
10
3.36674
20
-4.3878
11
3.34192
21
-4.3878
0
LINE
8
BLACK
6
CONTINUOUS
10
3.34192
20
-4.3878
11
3.31758
21
-4.38295
0
LINE
8
BLACK
6
CONTINUOUS
10
3.31758
20
-4.38295
11
3.29465
21
-4.37346
0
LINE
8
BLACK
6
CONTINUOUS
10
3.29465
20
-4.37346
11
3.27402
21
-4.35967
0
LINE
8
BLACK
6
CONTINUOUS
10
3.27402
20
-4.35967
11
3.25647
21
-4.34212
0
LINE
8
BLACK
6
CONTINUOUS
10
3.25647
20
-4.34212
11
3.24268
21
-4.32149
0
LINE
8
BLACK
6
CONTINUOUS
10
3.24268
20
-4.32149
11
3.23319
21
-4.29856
0
LINE
8
BLACK
6
CONTINUOUS
10
3.23319
20
-4.29856
11
3.22835
21
-4.27422
0
LINE
8
BLACK
6
CONTINUOUS
10
3.22835
20
-4.27422
11
3.22835
21
-4.2494
0
LINE
8
BLACK
6
CONTINUOUS
10
3.22835
20
-4.2494
11
3.23319
21
-4.22506
0
LINE
8
BLACK
6
CONTINUOUS
10
3.23319
20
-4.22506
11
3.24268
21
-4.20214
0
LINE
8
BLACK
6
CONTINUOUS
10
3.24268
20
-4.20214
11
3.25647
21
-4.1815
0
LINE
8
BLACK
6
CONTINUOUS
10
3.25647
20
-4.1815
11
3.27402
21
-4.16395
0
LINE
8
BLACK
6
CONTINUOUS
10
3.27402
20
-4.16395
11
3.29465
21
-4.15017
0
LINE
8
BLACK
6
CONTINUOUS
10
3.29465
20
-4.15017
11
3.31758
21
-4.14067
0
LINE
8
BLACK
6
CONTINUOUS
10
3.31758
20
-4.14067
11
3.34192
21
-4.13583
0
LINE
8
BLACK
6
CONTINUOUS
10
3.34192
20
-4.13583
11
3.36674
21
-4.13583
0
LINE
8
BLACK
6
CONTINUOUS
10
3.36674
20
-4.13583
11
3.39108
21
-4.14067
0
LINE
8
BLACK
6
CONTINUOUS
10
4.17536
20
-4.05115
11
4.19757
21
-4.06035
0
LINE
8
BLACK
6
CONTINUOUS
10
4.19757
20
-4.06035
11
4.21756
21
-4.0737
0
LINE
8
BLACK
6
CONTINUOUS
10
4.21756
20
-4.0737
11
4.23456
21
-4.0907
0
LINE
8
BLACK
6
CONTINUOUS
10
4.23456
20
-4.0907
11
4.24792
21
-4.11069
0
LINE
8
BLACK
6
CONTINUOUS
10
4.24792
20
-4.11069
11
4.25712
21
-4.1329
0
LINE
8
BLACK
6
CONTINUOUS
10
4.25712
20
-4.1329
11
4.26181
21
-4.15648
0
LINE
8
BLACK
6
CONTINUOUS
10
4.26181
20
-4.15648
11
4.26181
21
-4.18052
0
LINE
8
BLACK
6
CONTINUOUS
10
4.26181
20
-4.18052
11
4.25712
21
-4.2041
0
LINE
8
BLACK
6
CONTINUOUS
10
4.25712
20
-4.2041
11
4.24792
21
-4.22631
0
LINE
8
BLACK
6
CONTINUOUS
10
4.24792
20
-4.22631
11
4.23456
21
-4.2463
0
LINE
8
BLACK
6
CONTINUOUS
10
4.23456
20
-4.2463
11
4.21756
21
-4.2633
0
LINE
8
BLACK
6
CONTINUOUS
10
4.21756
20
-4.2633
11
4.19757
21
-4.27666
0
LINE
8
BLACK
6
CONTINUOUS
10
4.19757
20
-4.27666
11
4.17536
21
-4.28586
0
LINE
8
BLACK
6
CONTINUOUS
10
4.17536
20
-4.28586
11
4.15178
21
-4.29055
0
LINE
8
BLACK
6
CONTINUOUS
10
4.15178
20
-4.29055
11
4.12774
21
-4.29055
0
LINE
8
BLACK
6
CONTINUOUS
10
4.12774
20
-4.29055
11
4.10416
21
-4.28586
0
LINE
8
BLACK
6
CONTINUOUS
10
4.10416
20
-4.28586
11
4.08195
21
-4.27666
0
LINE
8
BLACK
6
CONTINUOUS
10
4.08195
20
-4.27666
11
4.06196
21
-4.2633
0
LINE
8
BLACK
6
CONTINUOUS
10
4.06196
20
-4.2633
11
4.04496
21
-4.2463
0
LINE
8
BLACK
6
CONTINUOUS
10
4.04496
20
-4.2463
11
4.03161
21
-4.22631
0
LINE
8
BLACK
6
CONTINUOUS
10
4.03161
20
-4.22631
11
4.02241
21
-4.2041
0
LINE
8
BLACK
6
CONTINUOUS
10
4.02241
20
-4.2041
11
4.01772
21
-4.18052
0
LINE
8
BLACK
6
CONTINUOUS
10
4.01772
20
-4.18052
11
4.01772
21
-4.15648
0
LINE
8
BLACK
6
CONTINUOUS
10
4.01772
20
-4.15648
11
4.02241
21
-4.1329
0
LINE
8
BLACK
6
CONTINUOUS
10
4.02241
20
-4.1329
11
4.03161
21
-4.11069
0
LINE
8
BLACK
6
CONTINUOUS
10
4.03161
20
-4.11069
11
4.04496
21
-4.0907
0
LINE
8
BLACK
6
CONTINUOUS
10
4.04496
20
-4.0907
11
4.06196
21
-4.0737
0
LINE
8
BLACK
6
CONTINUOUS
10
4.06196
20
-4.0737
11
4.08195
21
-4.06035
0
LINE
8
BLACK
6
CONTINUOUS
10
4.08195
20
-4.06035
11
4.10416
21
-4.05115
0
LINE
8
BLACK
6
CONTINUOUS
10
4.10416
20
-4.05115
11
4.12774
21
-4.04646
0
LINE
8
BLACK
6
CONTINUOUS
10
4.12774
20
-4.04646
11
4.15178
21
-4.04646
0
LINE
8
BLACK
6
CONTINUOUS
10
4.15178
20
-4.04646
11
4.17536
21
-4.05115
0
LINE
8
BLACK
6
CONTINUOUS
10
2.54151
20
-4.05115
11
2.56372
21
-4.06035
0
LINE
8
BLACK
6
CONTINUOUS
10
2.56372
20
-4.06035
11
2.58371
21
-4.0737
0
LINE
8
BLACK
6
CONTINUOUS
10
2.58371
20
-4.0737
11
2.60071
21
-4.0907
0
LINE
8
BLACK
6
CONTINUOUS
10
2.60071
20
-4.0907
11
2.61406
21
-4.11069
0
LINE
8
BLACK
6
CONTINUOUS
10
2.61406
20
-4.11069
11
2.62326
21
-4.1329
0
LINE
8
BLACK
6
CONTINUOUS
10
2.62326
20
-4.1329
11
2.62795
21
-4.15648
0
LINE
8
BLACK
6
CONTINUOUS
10
2.62795
20
-4.15648
11
2.62795
21
-4.18052
0
LINE
8
BLACK
6
CONTINUOUS
10
2.62795
20
-4.18052
11
2.62326
21
-4.2041
0
LINE
8
BLACK
6
CONTINUOUS
10
2.62326
20
-4.2041
11
2.61406
21
-4.22631
0
LINE
8
BLACK
6
CONTINUOUS
10
2.61406
20
-4.22631
11
2.60071
21
-4.2463
0
LINE
8
BLACK
6
CONTINUOUS
10
2.60071
20
-4.2463
11
2.58371
21
-4.2633
0
LINE
8
BLACK
6
CONTINUOUS
10
2.58371
20
-4.2633
11
2.56372
21
-4.27666
0
LINE
8
BLACK
6
CONTINUOUS
10
2.56372
20
-4.27666
11
2.54151
21
-4.28586
0
LINE
8
BLACK
6
CONTINUOUS
10
2.54151
20
-4.28586
11
2.51793
21
-4.29055
0
LINE
8
BLACK
6
CONTINUOUS
10
2.51793
20
-4.29055
11
2.49388
21
-4.29055
0
LINE
8
BLACK
6
CONTINUOUS
10
2.49388
20
-4.29055
11
2.47031
21
-4.28586
0
LINE
8
BLACK
6
CONTINUOUS
10
2.47031
20
-4.28586
11
2.44809
21
-4.27666
0
LINE
8
BLACK
6
CONTINUOUS
10
2.44809
20
-4.27666
11
2.4281
21
-4.2633
0
LINE
8
BLACK
6
CONTINUOUS
10
2.4281
20
-4.2633
11
2.41111
21
-4.2463
0
LINE
8
BLACK
6
CONTINUOUS
10
2.41111
20
-4.2463
11
2.39775
21
-4.22631
0
LINE
8
BLACK
6
CONTINUOUS
10
2.39775
20
-4.22631
11
2.38855
21
-4.2041
0
LINE
8
BLACK
6
CONTINUOUS
10
2.38855
20
-4.2041
11
2.38386
21
-4.18052
0
LINE
8
BLACK
6
CONTINUOUS
10
2.38386
20
-4.18052
11
2.38386
21
-4.15648
0
LINE
8
BLACK
6
CONTINUOUS
10
2.38386
20
-4.15648
11
2.38855
21
-4.1329
0
LINE
8
BLACK
6
CONTINUOUS
10
2.38855
20
-4.1329
11
2.39775
21
-4.11069
0
LINE
8
BLACK
6
CONTINUOUS
10
2.39775
20
-4.11069
11
2.41111
21
-4.0907
0
LINE
8
BLACK
6
CONTINUOUS
10
2.41111
20
-4.0907
11
2.4281
21
-4.0737
0
LINE
8
BLACK
6
CONTINUOUS
10
2.4281
20
-4.0737
11
2.44809
21
-4.06035
0
LINE
8
BLACK
6
CONTINUOUS
10
2.44809
20
-4.06035
11
2.47031
21
-4.05115
0
LINE
8
BLACK
6
CONTINUOUS
10
2.47031
20
-4.05115
11
2.49388
21
-4.04646
0
LINE
8
BLACK
6
CONTINUOUS
10
2.49388
20
-4.04646
11
2.51793
21
-4.04646
0
LINE
8
BLACK
6
CONTINUOUS
10
2.51793
20
-4.04646
11
2.54151
21
-4.05115
0
LINE
8
BLACK
6
CONTINUOUS
10
3.86967
20
-3.55595
11
3.88293
21
-3.56144
0
LINE
8
BLACK
6
CONTINUOUS
10
3.88293
20
-3.56144
11
3.89485
21
-3.56941
0
LINE
8
BLACK
6
CONTINUOUS
10
3.89485
20
-3.56941
11
3.905
21
-3.57955
0
LINE
8
BLACK
6
CONTINUOUS
10
3.905
20
-3.57955
11
3.91297
21
-3.59148
0
LINE
8
BLACK
6
CONTINUOUS
10
3.91297
20
-3.59148
11
3.91846
21
-3.60474
0
LINE
8
BLACK
6
CONTINUOUS
10
3.91846
20
-3.60474
11
3.92126
21
-3.61881
0
LINE
8
BLACK
6
CONTINUOUS
10
3.92126
20
-3.61881
11
3.92126
21
-3.63316
0
LINE
8
BLACK
6
CONTINUOUS
10
3.92126
20
-3.63316
11
3.91846
21
-3.64723
0
LINE
8
BLACK
6
CONTINUOUS
10
3.91846
20
-3.64723
11
3.91297
21
-3.66048
0
LINE
8
BLACK
6
CONTINUOUS
10
3.91297
20
-3.66048
11
3.905
21
-3.67241
0
LINE
8
BLACK
6
CONTINUOUS
10
3.905
20
-3.67241
11
3.89485
21
-3.68256
0
LINE
8
BLACK
6
CONTINUOUS
10
3.89485
20
-3.68256
11
3.88293
21
-3.69053
0
LINE
8
BLACK
6
CONTINUOUS
10
3.88293
20
-3.69053
11
3.86967
21
-3.69602
0
LINE
8
BLACK
6
CONTINUOUS
10
3.86967
20
-3.69602
11
3.8556
21
-3.69882
0
LINE
8
BLACK
6
CONTINUOUS
10
3.8556
20
-3.69882
11
3.84125
21
-3.69882
0
LINE
8
BLACK
6
CONTINUOUS
10
3.84125
20
-3.69882
11
3.82718
21
-3.69602
0
LINE
8
BLACK
6
CONTINUOUS
10
3.82718
20
-3.69602
11
3.81393
21
-3.69053
0
LINE
8
BLACK
6
CONTINUOUS
10
3.81393
20
-3.69053
11
3.802
21
-3.68256
0
LINE
8
BLACK
6
CONTINUOUS
10
3.802
20
-3.68256
11
3.79185
21
-3.67241
0
LINE
8
BLACK
6
CONTINUOUS
10
3.79185
20
-3.67241
11
3.78388
21
-3.66048
0
LINE
8
BLACK
6
CONTINUOUS
10
3.78388
20
-3.66048
11
3.77839
21
-3.64723
0
LINE
8
BLACK
6
CONTINUOUS
10
3.77839
20
-3.64723
11
3.77559
21
-3.63316
0
LINE
8
BLACK
6
CONTINUOUS
10
3.77559
20
-3.63316
11
3.77559
21
-3.61881
0
LINE
8
BLACK
6
CONTINUOUS
10
3.77559
20
-3.61881
11
3.77839
21
-3.60474
0
LINE
8
BLACK
6
CONTINUOUS
10
3.77839
20
-3.60474
11
3.78388
21
-3.59148
0
LINE
8
BLACK
6
CONTINUOUS
10
3.78388
20
-3.59148
11
3.79185
21
-3.57955
0
LINE
8
BLACK
6
CONTINUOUS
10
3.79185
20
-3.57955
11
3.802
21
-3.56941
0
LINE
8
BLACK
6
CONTINUOUS
10
3.802
20
-3.56941
11
3.81393
21
-3.56144
0
LINE
8
BLACK
6
CONTINUOUS
10
3.81393
20
-3.56144
11
3.82718
21
-3.55595
0
LINE
8
BLACK
6
CONTINUOUS
10
3.82718
20
-3.55595
11
3.84125
21
-3.55315
0
LINE
8
BLACK
6
CONTINUOUS
10
3.84125
20
-3.55315
11
3.8556
21
-3.55315
0
LINE
8
BLACK
6
CONTINUOUS
10
3.8556
20
-3.55315
11
3.86967
21
-3.55595
0
LINE
8
BLACK
6
CONTINUOUS
10
3.54487
20
-3.55595
11
3.55812
21
-3.56144
0
LINE
8
BLACK
6
CONTINUOUS
10
3.55812
20
-3.56144
11
3.57005
21
-3.56941
0
LINE
8
BLACK
6
CONTINUOUS
10
3.57005
20
-3.56941
11
3.5802
21
-3.57955
0
LINE
8
BLACK
6
CONTINUOUS
10
3.5802
20
-3.57955
11
3.58817
21
-3.59148
0
LINE
8
BLACK
6
CONTINUOUS
10
3.58817
20
-3.59148
11
3.59366
21
-3.60474
0
LINE
8
BLACK
6
CONTINUOUS
10
3.59366
20
-3.60474
11
3.59646
21
-3.61881
0
LINE
8
BLACK
6
CONTINUOUS
10
3.59646
20
-3.61881
11
3.59646
21
-3.63316
0
LINE
8
BLACK
6
CONTINUOUS
10
3.59646
20
-3.63316
11
3.59366
21
-3.64723
0
LINE
8
BLACK
6
CONTINUOUS
10
3.59366
20
-3.64723
11
3.58817
21
-3.66048
0
LINE
8
BLACK
6
CONTINUOUS
10
3.58817
20
-3.66048
11
3.5802
21
-3.67241
0
LINE
8
BLACK
6
CONTINUOUS
10
3.5802
20
-3.67241
11
3.57005
21
-3.68256
0
LINE
8
BLACK
6
CONTINUOUS
10
3.57005
20
-3.68256
11
3.55812
21
-3.69053
0
LINE
8
BLACK
6
CONTINUOUS
10
3.55812
20
-3.69053
11
3.54487
21
-3.69602
0
LINE
8
BLACK
6
CONTINUOUS
10
3.54487
20
-3.69602
11
3.5308
21
-3.69882
0
LINE
8
BLACK
6
CONTINUOUS
10
3.5308
20
-3.69882
11
3.51645
21
-3.69882
0
LINE
8
BLACK
6
CONTINUOUS
10
3.51645
20
-3.69882
11
3.50238
21
-3.69602
0
LINE
8
BLACK
6
CONTINUOUS
10
3.50238
20
-3.69602
11
3.48912
21
-3.69053
0
LINE
8
BLACK
6
CONTINUOUS
10
3.48912
20
-3.69053
11
3.47719
21
-3.68256
0
LINE
8
BLACK
6
CONTINUOUS
10
3.47719
20
-3.68256
11
3.46705
21
-3.67241
0
LINE
8
BLACK
6
CONTINUOUS
10
3.46705
20
-3.67241
11
3.45908
21
-3.66048
0
LINE
8
BLACK
6
CONTINUOUS
10
3.45908
20
-3.66048
11
3.45359
21
-3.64723
0
LINE
8
BLACK
6
CONTINUOUS
10
3.45359
20
-3.64723
11
3.45079
21
-3.63316
0
LINE
8
BLACK
6
CONTINUOUS
10
3.45079
20
-3.63316
11
3.45079
21
-3.61881
0
LINE
8
BLACK
6
CONTINUOUS
10
3.45079
20
-3.61881
11
3.45359
21
-3.60474
0
LINE
8
BLACK
6
CONTINUOUS
10
3.45359
20
-3.60474
11
3.45908
21
-3.59148
0
LINE
8
BLACK
6
CONTINUOUS
10
3.45908
20
-3.59148
11
3.46705
21
-3.57955
0
LINE
8
BLACK
6
CONTINUOUS
10
3.46705
20
-3.57955
11
3.47719
21
-3.56941
0
LINE
8
BLACK
6
CONTINUOUS
10
3.47719
20
-3.56941
11
3.48912
21
-3.56144
0
LINE
8
BLACK
6
CONTINUOUS
10
3.48912
20
-3.56144
11
3.50238
21
-3.55595
0
LINE
8
BLACK
6
CONTINUOUS
10
3.50238
20
-3.55595
11
3.51645
21
-3.55315
0
LINE
8
BLACK
6
CONTINUOUS
10
3.51645
20
-3.55315
11
3.5308
21
-3.55315
0
LINE
8
BLACK
6
CONTINUOUS
10
3.5308
20
-3.55315
11
3.54487
21
-3.55595
0
LINE
8
BLACK
6
CONTINUOUS
10
3.21022
20
-3.55595
11
3.22348
21
-3.56144
0
LINE
8
BLACK
6
CONTINUOUS
10
3.22348
20
-3.56144
11
3.23541
21
-3.56941
0
LINE
8
BLACK
6
CONTINUOUS
10
3.23541
20
-3.56941
11
3.24555
21
-3.57955
0
LINE
8
BLACK
6
CONTINUOUS
10
3.24555
20
-3.57955
11
3.25352
21
-3.59148
0
LINE
8
BLACK
6
CONTINUOUS
10
3.25352
20
-3.59148
11
3.25901
21
-3.60474
0
LINE
8
BLACK
6
CONTINUOUS
10
3.25901
20
-3.60474
11
3.26181
21
-3.61881
0
LINE
8
BLACK
6
CONTINUOUS
10
3.26181
20
-3.61881
11
3.26181
21
-3.63316
0
LINE
8
BLACK
6
CONTINUOUS
10
3.26181
20
-3.63316
11
3.25901
21
-3.64723
0
LINE
8
BLACK
6
CONTINUOUS
10
3.25901
20
-3.64723
11
3.25352
21
-3.66048
0
LINE
8
BLACK
6
CONTINUOUS
10
3.25352
20
-3.66048
11
3.24555
21
-3.67241
0
LINE
8
BLACK
6
CONTINUOUS
10
3.24555
20
-3.67241
11
3.23541
21
-3.68256
0
LINE
8
BLACK
6
CONTINUOUS
10
3.23541
20
-3.68256
11
3.22348
21
-3.69053
0
LINE
8
BLACK
6
CONTINUOUS
10
3.22348
20
-3.69053
11
3.21022
21
-3.69602
0
LINE
8
BLACK
6
CONTINUOUS
10
3.21022
20
-3.69602
11
3.19615
21
-3.69882
0
LINE
8
BLACK
6
CONTINUOUS
10
3.19615
20
-3.69882
11
3.1818
21
-3.69882
0
LINE
8
BLACK
6
CONTINUOUS
10
3.1818
20
-3.69882
11
3.16773
21
-3.69602
0
LINE
8
BLACK
6
CONTINUOUS
10
3.16773
20
-3.69602
11
3.15448
21
-3.69053
0
LINE
8
BLACK
6
CONTINUOUS
10
3.15448
20
-3.69053
11
3.14255
21
-3.68256
0
LINE
8
BLACK
6
CONTINUOUS
10
3.14255
20
-3.68256
11
3.1324
21
-3.67241
0
LINE
8
BLACK
6
CONTINUOUS
10
3.1324
20
-3.67241
11
3.12443
21
-3.66048
0
LINE
8
BLACK
6
CONTINUOUS
10
3.12443
20
-3.66048
11
3.11894
21
-3.64723
0
LINE
8
BLACK
6
CONTINUOUS
10
3.11894
20
-3.64723
11
3.11614
21
-3.63316
0
LINE
8
BLACK
6
CONTINUOUS
10
3.11614
20
-3.63316
11
3.11614
21
-3.61881
0
LINE
8
BLACK
6
CONTINUOUS
10
3.11614
20
-3.61881
11
3.11894
21
-3.60474
0
LINE
8
BLACK
6
CONTINUOUS
10
3.11894
20
-3.60474
11
3.12443
21
-3.59148
0
LINE
8
BLACK
6
CONTINUOUS
10
3.12443
20
-3.59148
11
3.1324
21
-3.57955
0
LINE
8
BLACK
6
CONTINUOUS
10
3.1324
20
-3.57955
11
3.14255
21
-3.56941
0
LINE
8
BLACK
6
CONTINUOUS
10
3.14255
20
-3.56941
11
3.15448
21
-3.56144
0
LINE
8
BLACK
6
CONTINUOUS
10
3.15448
20
-3.56144
11
3.16773
21
-3.55595
0
LINE
8
BLACK
6
CONTINUOUS
10
3.16773
20
-3.55595
11
3.1818
21
-3.55315
0
LINE
8
BLACK
6
CONTINUOUS
10
3.1818
20
-3.55315
11
3.19615
21
-3.55315
0
LINE
8
BLACK
6
CONTINUOUS
10
3.19615
20
-3.55315
11
3.21022
21
-3.55595
0
LINE
8
BLACK
6
CONTINUOUS
10
2.88542
20
-3.55595
11
2.89867
21
-3.56144
0
LINE
8
BLACK
6
CONTINUOUS
10
2.89867
20
-3.56144
11
2.9106
21
-3.56941
0
LINE
8
BLACK
6
CONTINUOUS
10
2.9106
20
-3.56941
11
2.92075
21
-3.57955
0
LINE
8
BLACK
6
CONTINUOUS
10
2.92075
20
-3.57955
11
2.92872
21
-3.59148
0
LINE
8
BLACK
6
CONTINUOUS
10
2.92872
20
-3.59148
11
2.93421
21
-3.60474
0
LINE
8
BLACK
6
CONTINUOUS
10
2.93421
20
-3.60474
11
2.93701
21
-3.61881
0
LINE
8
BLACK
6
CONTINUOUS
10
2.93701
20
-3.61881
11
2.93701
21
-3.63316
0
LINE
8
BLACK
6
CONTINUOUS
10
2.93701
20
-3.63316
11
2.93421
21
-3.64723
0
LINE
8
BLACK
6
CONTINUOUS
10
2.93421
20
-3.64723
11
2.92872
21
-3.66048
0
LINE
8
BLACK
6
CONTINUOUS
10
2.92872
20
-3.66048
11
2.92075
21
-3.67241
0
LINE
8
BLACK
6
CONTINUOUS
10
2.92075
20
-3.67241
11
2.9106
21
-3.68256
0
LINE
8
BLACK
6
CONTINUOUS
10
2.9106
20
-3.68256
11
2.89867
21
-3.69053
0
LINE
8
BLACK
6
CONTINUOUS
10
2.89867
20
-3.69053
11
2.88542
21
-3.69602
0
LINE
8
BLACK
6
CONTINUOUS
10
2.88542
20
-3.69602
11
2.87135
21
-3.69882
0
LINE
8
BLACK
6
CONTINUOUS
10
2.87135
20
-3.69882
11
2.857
21
-3.69882
0
LINE
8
BLACK
6
CONTINUOUS
10
2.857
20
-3.69882
11
2.84293
21
-3.69602
0
LINE
8
BLACK
6
CONTINUOUS
10
2.84293
20
-3.69602
11
2.82967
21
-3.69053
0
LINE
8
BLACK
6
CONTINUOUS
10
2.82967
20
-3.69053
11
2.81774
21
-3.68256
0
LINE
8
BLACK
6
CONTINUOUS
10
2.81774
20
-3.68256
11
2.8076
21
-3.67241
0
LINE
8
BLACK
6
CONTINUOUS
10
2.8076
20
-3.67241
11
2.79963
21
-3.66048
0
LINE
8
BLACK
6
CONTINUOUS
10
2.79963
20
-3.66048
11
2.79414
21
-3.64723
0
LINE
8
BLACK
6
CONTINUOUS
10
2.79414
20
-3.64723
11
2.79134
21
-3.63316
0
LINE
8
BLACK
6
CONTINUOUS
10
2.79134
20
-3.63316
11
2.79134
21
-3.61881
0
LINE
8
BLACK
6
CONTINUOUS
10
2.79134
20
-3.61881
11
2.79414
21
-3.60474
0
LINE
8
BLACK
6
CONTINUOUS
10
2.79414
20
-3.60474
11
2.79963
21
-3.59148
0
LINE
8
BLACK
6
CONTINUOUS
10
2.79963
20
-3.59148
11
2.8076
21
-3.57955
0
LINE
8
BLACK
6
CONTINUOUS
10
2.8076
20
-3.57955
11
2.81774
21
-3.56941
0
LINE
8
BLACK
6
CONTINUOUS
10
2.81774
20
-3.56941
11
2.82967
21
-3.56144
0
LINE
8
BLACK
6
CONTINUOUS
10
2.82967
20
-3.56144
11
2.84293
21
-3.55595
0
LINE
8
BLACK
6
CONTINUOUS
10
2.84293
20
-3.55595
11
2.857
21
-3.55315
0
LINE
8
BLACK
6
CONTINUOUS
10
2.857
20
-3.55315
11
2.87135
21
-3.55315
0
LINE
8
BLACK
6
CONTINUOUS
10
2.87135
20
-3.55315
11
2.88542
21
-3.55595
0
LINE
8
BLACK
6
CONTINUOUS
10
4.2479
20
-3.39415
11
4.25937
21
-3.3989
0
LINE
8
BLACK
6
CONTINUOUS
10
4.25937
20
-3.3989
11
4.26968
21
-3.4058
0
LINE
8
BLACK
6
CONTINUOUS
10
4.26968
20
-3.4058
11
4.27846
21
-3.41457
0
LINE
8
BLACK
6
CONTINUOUS
10
4.27846
20
-3.41457
11
4.28535
21
-3.42489
0
LINE
8
BLACK
6
CONTINUOUS
10
4.28535
20
-3.42489
11
4.2901
21
-3.43635
0
LINE
8
BLACK
6
CONTINUOUS
10
4.2901
20
-3.43635
11
4.29252
21
-3.44852
0
LINE
8
BLACK
6
CONTINUOUS
10
4.29252
20
-3.44852
11
4.29252
21
-3.46093
0
LINE
8
BLACK
6
CONTINUOUS
10
4.29252
20
-3.46093
11
4.2901
21
-3.4731
0
LINE
8
BLACK
6
CONTINUOUS
10
4.2901
20
-3.4731
11
4.28535
21
-3.48456
0
LINE
8
BLACK
6
CONTINUOUS
10
4.28535
20
-3.48456
11
4.27846
21
-3.49488
0
LINE
8
BLACK
6
CONTINUOUS
10
4.27846
20
-3.49488
11
4.26968
21
-3.50365
0
LINE
8
BLACK
6
CONTINUOUS
10
4.26968
20
-3.50365
11
4.25937
21
-3.51055
0
LINE
8
BLACK
6
CONTINUOUS
10
4.25937
20
-3.51055
11
4.2479
21
-3.5153
0
LINE
8
BLACK
6
CONTINUOUS
10
4.2479
20
-3.5153
11
4.23573
21
-3.51772
0
LINE
8
BLACK
6
CONTINUOUS
10
4.23573
20
-3.51772
11
4.22332
21
-3.51772
0
LINE
8
BLACK
6
CONTINUOUS
10
4.22332
20
-3.51772
11
4.21115
21
-3.5153
0
LINE
8
BLACK
6
CONTINUOUS
10
4.21115
20
-3.5153
11
4.19969
21
-3.51055
0
LINE
8
BLACK
6
CONTINUOUS
10
4.19969
20
-3.51055
11
4.18937
21
-3.50365
0
LINE
8
BLACK
6
CONTINUOUS
10
4.18937
20
-3.50365
11
4.1806
21
-3.49488
0
LINE
8
BLACK
6
CONTINUOUS
10
4.1806
20
-3.49488
11
4.1737
21
-3.48456
0
LINE
8
BLACK
6
CONTINUOUS
10
4.1737
20
-3.48456
11
4.16896
21
-3.4731
0
LINE
8
BLACK
6
CONTINUOUS
10
4.16896
20
-3.4731
11
4.16654
21
-3.46093
0
LINE
8
BLACK
6
CONTINUOUS
10
4.16654
20
-3.46093
11
4.16654
21
-3.44852
0
LINE
8
BLACK
6
CONTINUOUS
10
4.16654
20
-3.44852
11
4.16896
21
-3.43635
0
LINE
8
BLACK
6
CONTINUOUS
10
4.16896
20
-3.43635
11
4.1737
21
-3.42489
0
LINE
8
BLACK
6
CONTINUOUS
10
4.1737
20
-3.42489
11
4.1806
21
-3.41457
0
LINE
8
BLACK
6
CONTINUOUS
10
4.1806
20
-3.41457
11
4.18937
21
-3.4058
0
LINE
8
BLACK
6
CONTINUOUS
10
4.18937
20
-3.4058
11
4.19969
21
-3.3989
0
LINE
8
BLACK
6
CONTINUOUS
10
4.19969
20
-3.3989
11
4.21115
21
-3.39415
0
LINE
8
BLACK
6
CONTINUOUS
10
4.21115
20
-3.39415
11
4.22332
21
-3.39173
0
LINE
8
BLACK
6
CONTINUOUS
10
4.22332
20
-3.39173
11
4.23573
21
-3.39173
0
LINE
8
BLACK
6
CONTINUOUS
10
4.23573
20
-3.39173
11
4.2479
21
-3.39415
0
LINE
8
BLACK
6
CONTINUOUS
10
4.17536
20
-2.96847
11
4.19757
21
-2.97767
0
LINE
8
BLACK
6
CONTINUOUS
10
4.19757
20
-2.97767
11
4.21756
21
-2.99103
0
LINE
8
BLACK
6
CONTINUOUS
10
4.21756
20
-2.99103
11
4.23456
21
-3.00803
0
LINE
8
BLACK
6
CONTINUOUS
10
4.23456
20
-3.00803
11
4.24792
21
-3.02802
0
LINE
8
BLACK
6
CONTINUOUS
10
4.24792
20
-3.02802
11
4.25712
21
-3.05023
0
LINE
8
BLACK
6
CONTINUOUS
10
4.25712
20
-3.05023
11
4.26181
21
-3.07381
0
LINE
8
BLACK
6
CONTINUOUS
10
4.26181
20
-3.07381
11
4.26181
21
-3.09785
0
LINE
8
BLACK
6
CONTINUOUS
10
4.26181
20
-3.09785
11
4.25712
21
-3.12143
0
LINE
8
BLACK
6
CONTINUOUS
10
4.25712
20
-3.12143
11
4.24792
21
-3.14364
0
LINE
8
BLACK
6
CONTINUOUS
10
4.24792
20
-3.14364
11
4.23456
21
-3.16363
0
LINE
8
BLACK
6
CONTINUOUS
10
4.23456
20
-3.16363
11
4.21756
21
-3.18063
0
LINE
8
BLACK
6
CONTINUOUS
10
4.21756
20
-3.18063
11
4.19757
21
-3.19398
0
LINE
8
BLACK
6
CONTINUOUS
10
4.19757
20
-3.19398
11
4.17536
21
-3.20318
0
LINE
8
BLACK
6
CONTINUOUS
10
4.17536
20
-3.20318
11
4.15178
21
-3.20787
0
LINE
8
BLACK
6
CONTINUOUS
10
4.15178
20
-3.20787
11
4.12774
21
-3.20787
0
LINE
8
BLACK
6
CONTINUOUS
10
4.12774
20
-3.20787
11
4.10416
21
-3.20318
0
LINE
8
BLACK
6
CONTINUOUS
10
4.10416
20
-3.20318
11
4.08195
21
-3.19398
0
LINE
8
BLACK
6
CONTINUOUS
10
4.08195
20
-3.19398
11
4.06196
21
-3.18063
0
LINE
8
BLACK
6
CONTINUOUS
10
4.06196
20
-3.18063
11
4.04496
21
-3.16363
0
LINE
8
BLACK
6
CONTINUOUS
10
4.04496
20
-3.16363
11
4.03161
21
-3.14364
0
LINE
8
BLACK
6
CONTINUOUS
10
4.03161
20
-3.14364
11
4.02241
21
-3.12143
0
LINE
8
BLACK
6
CONTINUOUS
10
4.02241
20
-3.12143
11
4.01772
21
-3.09785
0
LINE
8
BLACK
6
CONTINUOUS
10
4.01772
20
-3.09785
11
4.01772
21
-3.07381
0
LINE
8
BLACK
6
CONTINUOUS
10
4.01772
20
-3.07381
11
4.02241
21
-3.05023
0
LINE
8
BLACK
6
CONTINUOUS
10
4.02241
20
-3.05023
11
4.03161
21
-3.02802
0
LINE
8
BLACK
6
CONTINUOUS
10
4.03161
20
-3.02802
11
4.04496
21
-3.00803
0
LINE
8
BLACK
6
CONTINUOUS
10
4.04496
20
-3.00803
11
4.06196
21
-2.99103
0
LINE
8
BLACK
6
CONTINUOUS
10
4.06196
20
-2.99103
11
4.08195
21
-2.97767
0
LINE
8
BLACK
6
CONTINUOUS
10
4.08195
20
-2.97767
11
4.10416
21
-2.96847
0
LINE
8
BLACK
6
CONTINUOUS
10
4.10416
20
-2.96847
11
4.12774
21
-2.96378
0
LINE
8
BLACK
6
CONTINUOUS
10
4.12774
20
-2.96378
11
4.15178
21
-2.96378
0
LINE
8
BLACK
6
CONTINUOUS
10
4.15178
20
-2.96378
11
4.17536
21
-2.96847
0
LINE
8
BLACK
6
CONTINUOUS
10
4.17536
20
-2.45666
11
4.19757
21
-2.46586
0
LINE
8
BLACK
6
CONTINUOUS
10
4.19757
20
-2.46586
11
4.21756
21
-2.47922
0
LINE
8
BLACK
6
CONTINUOUS
10
4.21756
20
-2.47922
11
4.23456
21
-2.49622
0
LINE
8
BLACK
6
CONTINUOUS
10
4.23456
20
-2.49622
11
4.24792
21
-2.5162
0
LINE
8
BLACK
6
CONTINUOUS
10
4.24792
20
-2.5162
11
4.25712
21
-2.53842
0
LINE
8
BLACK
6
CONTINUOUS
10
4.25712
20
-2.53842
11
4.26181
21
-2.562
0
LINE
8
BLACK
6
CONTINUOUS
10
4.26181
20
-2.562
11
4.26181
21
-2.58604
0
LINE
8
BLACK
6
CONTINUOUS
10
4.26181
20
-2.58604
11
4.25712
21
-2.60962
0
LINE
8
BLACK
6
CONTINUOUS
10
4.25712
20
-2.60962
11
4.24792
21
-2.63183
0
LINE
8
BLACK
6
CONTINUOUS
10
4.24792
20
-2.63183
11
4.23456
21
-2.65182
0
LINE
8
BLACK
6
CONTINUOUS
10
4.23456
20
-2.65182
11
4.21756
21
-2.66882
0
LINE
8
BLACK
6
CONTINUOUS
10
4.21756
20
-2.66882
11
4.19757
21
-2.68217
0
LINE
8
BLACK
6
CONTINUOUS
10
4.19757
20
-2.68217
11
4.17536
21
-2.69137
0
LINE
8
BLACK
6
CONTINUOUS
10
4.17536
20
-2.69137
11
4.15178
21
-2.69606
0
LINE
8
BLACK
6
CONTINUOUS
10
4.15178
20
-2.69606
11
4.12774
21
-2.69606
0
LINE
8
BLACK
6
CONTINUOUS
10
4.12774
20
-2.69606
11
4.10416
21
-2.69137
0
LINE
8
BLACK
6
CONTINUOUS
10
4.10416
20
-2.69137
11
4.08195
21
-2.68217
0
LINE
8
BLACK
6
CONTINUOUS
10
4.08195
20
-2.68217
11
4.06196
21
-2.66882
0
LINE
8
BLACK
6
CONTINUOUS
10
4.06196
20
-2.66882
11
4.04496
21
-2.65182
0
LINE
8
BLACK
6
CONTINUOUS
10
4.04496
20
-2.65182
11
4.03161
21
-2.63183
0
LINE
8
BLACK
6
CONTINUOUS
10
4.03161
20
-2.63183
11
4.02241
21
-2.60962
0
LINE
8
BLACK
6
CONTINUOUS
10
4.02241
20
-2.60962
11
4.01772
21
-2.58604
0
LINE
8
BLACK
6
CONTINUOUS
10
4.01772
20
-2.58604
11
4.01772
21
-2.562
0
LINE
8
BLACK
6
CONTINUOUS
10
4.01772
20
-2.562
11
4.02241
21
-2.53842
0
LINE
8
BLACK
6
CONTINUOUS
10
4.02241
20
-2.53842
11
4.03161
21
-2.5162
0
LINE
8
BLACK
6
CONTINUOUS
10
4.03161
20
-2.5162
11
4.04496
21
-2.49622
0
LINE
8
BLACK
6
CONTINUOUS
10
4.04496
20
-2.49622
11
4.06196
21
-2.47922
0
LINE
8
BLACK
6
CONTINUOUS
10
4.06196
20
-2.47922
11
4.08195
21
-2.46586
0
LINE
8
BLACK
6
CONTINUOUS
10
4.08195
20
-2.46586
11
4.10416
21
-2.45666
0
LINE
8
BLACK
6
CONTINUOUS
10
4.10416
20
-2.45666
11
4.12774
21
-2.45197
0
LINE
8
BLACK
6
CONTINUOUS
10
4.12774
20
-2.45197
11
4.15178
21
-2.45197
0
LINE
8
BLACK
6
CONTINUOUS
10
4.15178
20
-2.45197
11
4.17536
21
-2.45666
0
LINE
8
BLACK
6
CONTINUOUS
10
4.2479
20
-2.21305
11
4.25937
21
-2.2178
0
LINE
8
BLACK
6
CONTINUOUS
10
4.25937
20
-2.2178
11
4.26968
21
-2.22469
0
LINE
8
BLACK
6
CONTINUOUS
10
4.26968
20
-2.22469
11
4.27846
21
-2.23347
0
LINE
8
BLACK
6
CONTINUOUS
10
4.27846
20
-2.23347
11
4.28535
21
-2.24378
0
LINE
8
BLACK
6
CONTINUOUS
10
4.28535
20
-2.24378
11
4.2901
21
-2.25525
0
LINE
8
BLACK
6
CONTINUOUS
10
4.2901
20
-2.25525
11
4.29252
21
-2.26742
0
LINE
8
BLACK
6
CONTINUOUS
10
4.29252
20
-2.26742
11
4.29252
21
-2.27983
0
LINE
8
BLACK
6
CONTINUOUS
10
4.29252
20
-2.27983
11
4.2901
21
-2.292
0
LINE
8
BLACK
6
CONTINUOUS
10
4.2901
20
-2.292
11
4.28535
21
-2.30346
0
LINE
8
BLACK
6
CONTINUOUS
10
4.28535
20
-2.30346
11
4.27846
21
-2.31378
0
LINE
8
BLACK
6
CONTINUOUS
10
4.27846
20
-2.31378
11
4.26968
21
-2.32255
0
LINE
8
BLACK
6
CONTINUOUS
10
4.26968
20
-2.32255
11
4.25937
21
-2.32944
0
LINE
8
BLACK
6
CONTINUOUS
10
4.25937
20
-2.32944
11
4.2479
21
-2.33419
0
LINE
8
BLACK
6
CONTINUOUS
10
4.2479
20
-2.33419
11
4.23573
21
-2.33661
0
LINE
8
BLACK
6
CONTINUOUS
10
4.23573
20
-2.33661
11
4.22332
21
-2.33661
0
LINE
8
BLACK
6
CONTINUOUS
10
4.22332
20
-2.33661
11
4.21115
21
-2.33419
0
LINE
8
BLACK
6
CONTINUOUS
10
4.21115
20
-2.33419
11
4.19969
21
-2.32944
0
LINE
8
BLACK
6
CONTINUOUS
10
4.19969
20
-2.32944
11
4.18937
21
-2.32255
0
LINE
8
BLACK
6
CONTINUOUS
10
4.18937
20
-2.32255
11
4.1806
21
-2.31378
0
LINE
8
BLACK
6
CONTINUOUS
10
4.1806
20
-2.31378
11
4.1737
21
-2.30346
0
LINE
8
BLACK
6
CONTINUOUS
10
4.1737
20
-2.30346
11
4.16896
21
-2.292
0
LINE
8
BLACK
6
CONTINUOUS
10
4.16896
20
-2.292
11
4.16654
21
-2.27983
0
LINE
8
BLACK
6
CONTINUOUS
10
4.16654
20
-2.27983
11
4.16654
21
-2.26742
0
LINE
8
BLACK
6
CONTINUOUS
10
4.16654
20
-2.26742
11
4.16896
21
-2.25525
0
LINE
8
BLACK
6
CONTINUOUS
10
4.16896
20
-2.25525
11
4.1737
21
-2.24378
0
LINE
8
BLACK
6
CONTINUOUS
10
4.1737
20
-2.24378
11
4.1806
21
-2.23347
0
LINE
8
BLACK
6
CONTINUOUS
10
4.1806
20
-2.23347
11
4.18937
21
-2.22469
0
LINE
8
BLACK
6
CONTINUOUS
10
4.18937
20
-2.22469
11
4.19969
21
-2.2178
0
LINE
8
BLACK
6
CONTINUOUS
10
4.19969
20
-2.2178
11
4.21115
21
-2.21305
0
LINE
8
BLACK
6
CONTINUOUS
10
4.21115
20
-2.21305
11
4.22332
21
-2.21063
0
LINE
8
BLACK
6
CONTINUOUS
10
4.22332
20
-2.21063
11
4.23573
21
-2.21063
0
LINE
8
BLACK
6
CONTINUOUS
10
4.23573
20
-2.21063
11
4.2479
21
-2.21305
0
LINE
8
BLACK
6
CONTINUOUS
10
3.75156
20
-2.05595
11
3.76482
21
-2.06144
0
LINE
8
BLACK
6
CONTINUOUS
10
3.76482
20
-2.06144
11
3.77674
21
-2.06941
0
LINE
8
BLACK
6
CONTINUOUS
10
3.77674
20
-2.06941
11
3.78689
21
-2.07955
0
LINE
8
BLACK
6
CONTINUOUS
10
3.78689
20
-2.07955
11
3.79486
21
-2.09148
0
LINE
8
BLACK
6
CONTINUOUS
10
3.79486
20
-2.09148
11
3.80035
21
-2.10474
0
LINE
8
BLACK
6
CONTINUOUS
10
3.80035
20
-2.10474
11
3.80315
21
-2.11881
0
LINE
8
BLACK
6
CONTINUOUS
10
3.80315
20
-2.11881
11
3.80315
21
-2.13316
0
LINE
8
BLACK
6
CONTINUOUS
10
3.80315
20
-2.13316
11
3.80035
21
-2.14723
0
LINE
8
BLACK
6
CONTINUOUS
10
3.80035
20
-2.14723
11
3.79486
21
-2.16048
0
LINE
8
BLACK
6
CONTINUOUS
10
3.79486
20
-2.16048
11
3.78689
21
-2.17241
0
LINE
8
BLACK
6
CONTINUOUS
10
3.78689
20
-2.17241
11
3.77674
21
-2.18256
0
LINE
8
BLACK
6
CONTINUOUS
10
3.77674
20
-2.18256
11
3.76482
21
-2.19053
0
LINE
8
BLACK
6
CONTINUOUS
10
3.76482
20
-2.19053
11
3.75156
21
-2.19602
0
LINE
8
BLACK
6
CONTINUOUS
10
3.75156
20
-2.19602
11
3.73749
21
-2.19882
0
LINE
8
BLACK
6
CONTINUOUS
10
3.73749
20
-2.19882
11
3.72314
21
-2.19882
0
LINE
8
BLACK
6
CONTINUOUS
10
3.72314
20
-2.19882
11
3.70907
21
-2.19602
0
LINE
8
BLACK
6
CONTINUOUS
10
3.70907
20
-2.19602
11
3.69581
21
-2.19053
0
LINE
8
BLACK
6
CONTINUOUS
10
3.69581
20
-2.19053
11
3.68389
21
-2.18256
0
LINE
8
BLACK
6
CONTINUOUS
10
3.68389
20
-2.18256
11
3.67374
21
-2.17241
0
LINE
8
BLACK
6
CONTINUOUS
10
3.67374
20
-2.17241
11
3.66577
21
-2.16048
0
LINE
8
BLACK
6
CONTINUOUS
10
3.66577
20
-2.16048
11
3.66028
21
-2.14723
0
LINE
8
BLACK
6
CONTINUOUS
10
3.66028
20
-2.14723
11
3.65748
21
-2.13316
0
LINE
8
BLACK
6
CONTINUOUS
10
3.65748
20
-2.13316
11
3.65748
21
-2.11881
0
LINE
8
BLACK
6
CONTINUOUS
10
3.65748
20
-2.11881
11
3.66028
21
-2.10474
0
LINE
8
BLACK
6
CONTINUOUS
10
3.66028
20
-2.10474
11
3.66577
21
-2.09148
0
LINE
8
BLACK
6
CONTINUOUS
10
3.66577
20
-2.09148
11
3.67374
21
-2.07955
0
LINE
8
BLACK
6
CONTINUOUS
10
3.67374
20
-2.07955
11
3.68389
21
-2.06941
0
LINE
8
BLACK
6
CONTINUOUS
10
3.68389
20
-2.06941
11
3.69581
21
-2.06144
0
LINE
8
BLACK
6
CONTINUOUS
10
3.69581
20
-2.06144
11
3.70907
21
-2.05595
0
LINE
8
BLACK
6
CONTINUOUS
10
3.70907
20
-2.05595
11
3.72314
21
-2.05315
0
LINE
8
BLACK
6
CONTINUOUS
10
3.72314
20
-2.05315
11
3.73749
21
-2.05315
0
LINE
8
BLACK
6
CONTINUOUS
10
3.73749
20
-2.05315
11
3.75156
21
-2.05595
0
LINE
8
BLACK
6
CONTINUOUS
10
3.00353
20
-2.05595
11
3.01678
21
-2.06144
0
LINE
8
BLACK
6
CONTINUOUS
10
3.01678
20
-2.06144
11
3.02871
21
-2.06941
0
LINE
8
BLACK
6
CONTINUOUS
10
3.02871
20
-2.06941
11
3.03886
21
-2.07955
0
LINE
8
BLACK
6
CONTINUOUS
10
3.03886
20
-2.07955
11
3.04683
21
-2.09148
0
LINE
8
BLACK
6
CONTINUOUS
10
3.04683
20
-2.09148
11
3.05232
21
-2.10474
0
LINE
8
BLACK
6
CONTINUOUS
10
3.05232
20
-2.10474
11
3.05512
21
-2.11881
0
LINE
8
BLACK
6
CONTINUOUS
10
3.05512
20
-2.11881
11
3.05512
21
-2.13316
0
LINE
8
BLACK
6
CONTINUOUS
10
3.05512
20
-2.13316
11
3.05232
21
-2.14723
0
LINE
8
BLACK
6
CONTINUOUS
10
3.05232
20
-2.14723
11
3.04683
21
-2.16048
0
LINE
8
BLACK
6
CONTINUOUS
10
3.04683
20
-2.16048
11
3.03886
21
-2.17241
0
LINE
8
BLACK
6
CONTINUOUS
10
3.03886
20
-2.17241
11
3.02871
21
-2.18256
0
LINE
8
BLACK
6
CONTINUOUS
10
3.02871
20
-2.18256
11
3.01678
21
-2.19053
0
LINE
8
BLACK
6
CONTINUOUS
10
3.01678
20
-2.19053
11
3.00353
21
-2.19602
0
LINE
8
BLACK
6
CONTINUOUS
10
3.00353
20
-2.19602
11
2.98946
21
-2.19882
0
LINE
8
BLACK
6
CONTINUOUS
10
2.98946
20
-2.19882
11
2.97511
21
-2.19882
0
LINE
8
BLACK
6
CONTINUOUS
10
2.97511
20
-2.19882
11
2.96104
21
-2.19602
0
LINE
8
BLACK
6
CONTINUOUS
10
2.96104
20
-2.19602
11
2.94778
21
-2.19053
0
LINE
8
BLACK
6
CONTINUOUS
10
2.94778
20
-2.19053
11
2.93585
21
-2.18256
0
LINE
8
BLACK
6
CONTINUOUS
10
2.93585
20
-2.18256
11
2.92571
21
-2.17241
0
LINE
8
BLACK
6
CONTINUOUS
10
2.92571
20
-2.17241
11
2.91774
21
-2.16048
0
LINE
8
BLACK
6
CONTINUOUS
10
2.91774
20
-2.16048
11
2.91225
21
-2.14723
0
LINE
8
BLACK
6
CONTINUOUS
10
2.91225
20
-2.14723
11
2.90945
21
-2.13316
0
LINE
8
BLACK
6
CONTINUOUS
10
2.90945
20
-2.13316
11
2.90945
21
-2.11881
0
LINE
8
BLACK
6
CONTINUOUS
10
2.90945
20
-2.11881
11
2.91225
21
-2.10474
0
LINE
8
BLACK
6
CONTINUOUS
10
2.91225
20
-2.10474
11
2.91774
21
-2.09148
0
LINE
8
BLACK
6
CONTINUOUS
10
2.91774
20
-2.09148
11
2.92571
21
-2.07955
0
LINE
8
BLACK
6
CONTINUOUS
10
2.92571
20
-2.07955
11
2.93585
21
-2.06941
0
LINE
8
BLACK
6
CONTINUOUS
10
2.93585
20
-2.06941
11
2.94778
21
-2.06144
0
LINE
8
BLACK
6
CONTINUOUS
10
2.94778
20
-2.06144
11
2.96104
21
-2.05595
0
LINE
8
BLACK
6
CONTINUOUS
10
2.96104
20
-2.05595
11
2.97511
21
-2.05315
0
LINE
8
BLACK
6
CONTINUOUS
10
2.97511
20
-2.05315
11
2.98946
21
-2.05315
0
LINE
8
BLACK
6
CONTINUOUS
10
2.98946
20
-2.05315
11
3.00353
21
-2.05595
0
LINE
8
BLACK
6
CONTINUOUS
10
4.24664
20
-2.00977
11
4.25559
21
-2.01348
0
LINE
8
BLACK
6
CONTINUOUS
10
4.25559
20
-2.01348
11
4.26365
21
-2.01886
0
LINE
8
BLACK
6
CONTINUOUS
10
4.26365
20
-2.01886
11
4.27051
21
-2.02572
0
LINE
8
BLACK
6
CONTINUOUS
10
4.27051
20
-2.02572
11
4.2759
21
-2.03378
0
LINE
8
BLACK
6
CONTINUOUS
10
4.2759
20
-2.03378
11
4.2796
21
-2.04273
0
LINE
8
BLACK
6
CONTINUOUS
10
4.2796
20
-2.04273
11
4.2815
21
-2.05224
0
LINE
8
BLACK
6
CONTINUOUS
10
4.2815
20
-2.05224
11
4.2815
21
-2.06193
0
LINE
8
BLACK
6
CONTINUOUS
10
4.2815
20
-2.06193
11
4.2796
21
-2.07144
0
LINE
8
BLACK
6
CONTINUOUS
10
4.2796
20
-2.07144
11
4.2759
21
-2.0804
0
LINE
8
BLACK
6
CONTINUOUS
10
4.2759
20
-2.0804
11
4.27051
21
-2.08846
0
LINE
8
BLACK
6
CONTINUOUS
10
4.27051
20
-2.08846
11
4.26365
21
-2.09531
0
LINE
8
BLACK
6
CONTINUOUS
10
4.26365
20
-2.09531
11
4.25559
21
-2.1007
0
LINE
8
BLACK
6
CONTINUOUS
10
4.25559
20
-2.1007
11
4.24664
21
-2.10441
0
LINE
8
BLACK
6
CONTINUOUS
10
4.24664
20
-2.10441
11
4.23713
21
-2.1063
0
LINE
8
BLACK
6
CONTINUOUS
10
4.23713
20
-2.1063
11
4.22744
21
-2.1063
0
LINE
8
BLACK
6
CONTINUOUS
10
4.22744
20
-2.1063
11
4.21793
21
-2.10441
0
LINE
8
BLACK
6
CONTINUOUS
10
4.21793
20
-2.10441
11
4.20897
21
-2.1007
0
LINE
8
BLACK
6
CONTINUOUS
10
4.20897
20
-2.1007
11
4.20091
21
-2.09531
0
LINE
8
BLACK
6
CONTINUOUS
10
4.20091
20
-2.09531
11
4.19406
21
-2.08846
0
LINE
8
BLACK
6
CONTINUOUS
10
4.19406
20
-2.08846
11
4.18867
21
-2.0804
0
LINE
8
BLACK
6
CONTINUOUS
10
4.18867
20
-2.0804
11
4.18496
21
-2.07144
0
LINE
8
BLACK
6
CONTINUOUS
10
4.18496
20
-2.07144
11
4.18307
21
-2.06193
0
LINE
8
BLACK
6
CONTINUOUS
10
4.18307
20
-2.06193
11
4.18307
21
-2.05224
0
LINE
8
BLACK
6
CONTINUOUS
10
4.18307
20
-2.05224
11
4.18496
21
-2.04273
0
LINE
8
BLACK
6
CONTINUOUS
10
4.18496
20
-2.04273
11
4.18867
21
-2.03378
0
LINE
8
BLACK
6
CONTINUOUS
10
4.18867
20
-2.03378
11
4.19406
21
-2.02572
0
LINE
8
BLACK
6
CONTINUOUS
10
4.19406
20
-2.02572
11
4.20091
21
-2.01886
0
LINE
8
BLACK
6
CONTINUOUS
10
4.20091
20
-2.01886
11
4.20897
21
-2.01348
0
LINE
8
BLACK
6
CONTINUOUS
10
4.20897
20
-2.01348
11
4.21793
21
-2.00977
0
LINE
8
BLACK
6
CONTINUOUS
10
4.21793
20
-2.00977
11
4.22744
21
-2.00787
0
LINE
8
BLACK
6
CONTINUOUS
10
4.22744
20
-2.00787
11
4.23713
21
-2.00787
0
LINE
8
BLACK
6
CONTINUOUS
10
4.23713
20
-2.00787
11
4.24664
21
-2.00977
0
LINE
8
BLACK
6
CONTINUOUS
10
2.49467
20
-2.00977
11
2.50363
21
-2.01348
0
LINE
8
BLACK
6
CONTINUOUS
10
2.50363
20
-2.01348
11
2.51169
21
-2.01886
0
LINE
8
BLACK
6
CONTINUOUS
10
2.51169
20
-2.01886
11
2.51854
21
-2.02572
0
LINE
8
BLACK
6
CONTINUOUS
10
2.51854
20
-2.02572
11
2.52393
21
-2.03378
0
LINE
8
BLACK
6
CONTINUOUS
10
2.52393
20
-2.03378
11
2.52764
21
-2.04273
0
LINE
8
BLACK
6
CONTINUOUS
10
2.52764
20
-2.04273
11
2.52953
21
-2.05224
0
LINE
8
BLACK
6
CONTINUOUS
10
2.52953
20
-2.05224
11
2.52953
21
-2.06193
0
LINE
8
BLACK
6
CONTINUOUS
10
2.52953
20
-2.06193
11
2.52764
21
-2.07144
0
LINE
8
BLACK
6
CONTINUOUS
10
2.52764
20
-2.07144
11
2.52393
21
-2.0804
0
LINE
8
BLACK
6
CONTINUOUS
10
2.52393
20
-2.0804
11
2.51854
21
-2.08846
0
LINE
8
BLACK
6
CONTINUOUS
10
2.51854
20
-2.08846
11
2.51169
21
-2.09531
0
LINE
8
BLACK
6
CONTINUOUS
10
2.51169
20
-2.09531
11
2.50363
21
-2.1007
0
LINE
8
BLACK
6
CONTINUOUS
10
2.50363
20
-2.1007
11
2.49467
21
-2.10441
0
LINE
8
BLACK
6
CONTINUOUS
10
2.49467
20
-2.10441
11
2.48516
21
-2.1063
0
LINE
8
BLACK
6
CONTINUOUS
10
2.48516
20
-2.1063
11
2.47547
21
-2.1063
0
LINE
8
BLACK
6
CONTINUOUS
10
2.47547
20
-2.1063
11
2.46596
21
-2.10441
0
LINE
8
BLACK
6
CONTINUOUS
10
2.46596
20
-2.10441
11
2.457
21
-2.1007
0
LINE
8
BLACK
6
CONTINUOUS
10
2.457
20
-2.1007
11
2.44894
21
-2.09531
0
LINE
8
BLACK
6
CONTINUOUS
10
2.44894
20
-2.09531
11
2.44209
21
-2.08846
0
LINE
8
BLACK
6
CONTINUOUS
10
2.44209
20
-2.08846
11
2.4367
21
-2.0804
0
LINE
8
BLACK
6
CONTINUOUS
10
2.4367
20
-2.0804
11
2.43299
21
-2.07144
0
LINE
8
BLACK
6
CONTINUOUS
10
2.43299
20
-2.07144
11
2.4311
21
-2.06193
0
LINE
8
BLACK
6
CONTINUOUS
10
2.4311
20
-2.06193
11
2.4311
21
-2.05224
0
LINE
8
BLACK
6
CONTINUOUS
10
2.4311
20
-2.05224
11
2.43299
21
-2.04273
0
LINE
8
BLACK
6
CONTINUOUS
10
2.43299
20
-2.04273
11
2.4367
21
-2.03378
0
LINE
8
BLACK
6
CONTINUOUS
10
2.4367
20
-2.03378
11
2.44209
21
-2.02572
0
LINE
8
BLACK
6
CONTINUOUS
10
2.44209
20
-2.02572
11
2.44894
21
-2.01886
0
LINE
8
BLACK
6
CONTINUOUS
10
2.44894
20
-2.01886
11
2.457
21
-2.01348
0
LINE
8
BLACK
6
CONTINUOUS
10
2.457
20
-2.01348
11
2.46596
21
-2.00977
0
LINE
8
BLACK
6
CONTINUOUS
10
2.46596
20
-2.00977
11
2.47547
21
-2.00787
0
LINE
8
BLACK
6
CONTINUOUS
10
2.47547
20
-2.00787
11
2.48516
21
-2.00787
0
LINE
8
BLACK
6
CONTINUOUS
10
2.48516
20
-2.00787
11
2.49467
21
-2.00977
0
LINE
8
BLACK
6
CONTINUOUS
10
2.68619
20
-1.59827
11
2.7041
21
-1.60569
0
LINE
8
BLACK
6
CONTINUOUS
10
2.7041
20
-1.60569
11
2.72022
21
-1.61646
0
LINE
8
BLACK
6
CONTINUOUS
10
2.72022
20
-1.61646
11
2.73393
21
-1.63017
0
LINE
8
BLACK
6
CONTINUOUS
10
2.73393
20
-1.63017
11
2.7447
21
-1.64629
0
LINE
8
BLACK
6
CONTINUOUS
10
2.7447
20
-1.64629
11
2.75212
21
-1.6642
0
LINE
8
BLACK
6
CONTINUOUS
10
2.75212
20
-1.6642
11
2.75591
21
-1.68322
0
LINE
8
BLACK
6
CONTINUOUS
10
2.75591
20
-1.68322
11
2.75591
21
-1.70261
0
LINE
8
BLACK
6
CONTINUOUS
10
2.75591
20
-1.70261
11
2.75212
21
-1.72162
0
LINE
8
BLACK
6
CONTINUOUS
10
2.75212
20
-1.72162
11
2.7447
21
-1.73954
0
LINE
8
BLACK
6
CONTINUOUS
10
2.7447
20
-1.73954
11
2.73393
21
-1.75566
0
LINE
8
BLACK
6
CONTINUOUS
10
2.73393
20
-1.75566
11
2.72022
21
-1.76937
0
LINE
8
BLACK
6
CONTINUOUS
10
2.72022
20
-1.76937
11
2.7041
21
-1.78014
0
LINE
8
BLACK
6
CONTINUOUS
10
2.7041
20
-1.78014
11
2.68619
21
-1.78756
0
LINE
8
BLACK
6
CONTINUOUS
10
2.68619
20
-1.78756
11
2.66717
21
-1.79134
0
LINE
8
BLACK
6
CONTINUOUS
10
2.66717
20
-1.79134
11
2.64779
21
-1.79134
0
LINE
8
BLACK
6
CONTINUOUS
10
2.64779
20
-1.79134
11
2.62877
21
-1.78756
0
LINE
8
BLACK
6
CONTINUOUS
10
2.62877
20
-1.78756
11
2.61086
21
-1.78014
0
LINE
8
BLACK
6
CONTINUOUS
10
2.61086
20
-1.78014
11
2.59474
21
-1.76937
0
LINE
8
BLACK
6
CONTINUOUS
10
2.59474
20
-1.76937
11
2.58103
21
-1.75566
0
LINE
8
BLACK
6
CONTINUOUS
10
2.58103
20
-1.75566
11
2.57026
21
-1.73954
0
LINE
8
BLACK
6
CONTINUOUS
10
2.57026
20
-1.73954
11
2.56284
21
-1.72162
0
LINE
8
BLACK
6
CONTINUOUS
10
2.56284
20
-1.72162
11
2.55906
21
-1.70261
0
LINE
8
BLACK
6
CONTINUOUS
10
2.55906
20
-1.70261
11
2.55906
21
-1.68322
0
LINE
8
BLACK
6
CONTINUOUS
10
2.55906
20
-1.68322
11
2.56284
21
-1.6642
0
LINE
8
BLACK
6
CONTINUOUS
10
2.56284
20
-1.6642
11
2.57026
21
-1.64629
0
LINE
8
BLACK
6
CONTINUOUS
10
2.57026
20
-1.64629
11
2.58103
21
-1.63017
0
LINE
8
BLACK
6
CONTINUOUS
10
2.58103
20
-1.63017
11
2.59474
21
-1.61646
0
LINE
8
BLACK
6
CONTINUOUS
10
2.59474
20
-1.61646
11
2.61086
21
-1.60569
0
LINE
8
BLACK
6
CONTINUOUS
10
2.61086
20
-1.60569
11
2.62877
21
-1.59827
0
LINE
8
BLACK
6
CONTINUOUS
10
2.62877
20
-1.59827
11
2.64779
21
-1.59449
0
LINE
8
BLACK
6
CONTINUOUS
10
2.64779
20
-1.59449
11
2.66717
21
-1.59449
0
LINE
8
BLACK
6
CONTINUOUS
10
2.66717
20
-1.59449
11
2.68619
21
-1.59827
0
LINE
8
BLACK
6
CONTINUOUS
10
4.08383
20
-1.59827
11
4.10174
21
-1.60569
0
LINE
8
BLACK
6
CONTINUOUS
10
4.10174
20
-1.60569
11
4.11786
21
-1.61646
0
LINE
8
BLACK
6
CONTINUOUS
10
4.11786
20
-1.61646
11
4.13157
21
-1.63017
0
LINE
8
BLACK
6
CONTINUOUS
10
4.13157
20
-1.63017
11
4.14234
21
-1.64629
0
LINE
8
BLACK
6
CONTINUOUS
10
4.14234
20
-1.64629
11
4.14976
21
-1.6642
0
LINE
8
BLACK
6
CONTINUOUS
10
4.14976
20
-1.6642
11
4.15354
21
-1.68322
0
LINE
8
BLACK
6
CONTINUOUS
10
4.15354
20
-1.68322
11
4.15354
21
-1.70261
0
LINE
8
BLACK
6
CONTINUOUS
10
4.15354
20
-1.70261
11
4.14976
21
-1.72162
0
LINE
8
BLACK
6
CONTINUOUS
10
4.14976
20
-1.72162
11
4.14234
21
-1.73954
0
LINE
8
BLACK
6
CONTINUOUS
10
4.14234
20
-1.73954
11
4.13157
21
-1.75566
0
LINE
8
BLACK
6
CONTINUOUS
10
4.13157
20
-1.75566
11
4.11786
21
-1.76937
0
LINE
8
BLACK
6
CONTINUOUS
10
4.11786
20
-1.76937
11
4.10174
21
-1.78014
0
LINE
8
BLACK
6
CONTINUOUS
10
4.10174
20
-1.78014
11
4.08383
21
-1.78756
0
LINE
8
BLACK
6
CONTINUOUS
10
4.08383
20
-1.78756
11
4.06481
21
-1.79134
0
LINE
8
BLACK
6
CONTINUOUS
10
4.06481
20
-1.79134
11
4.04542
21
-1.79134
0
LINE
8
BLACK
6
CONTINUOUS
10
4.04542
20
-1.79134
11
4.02641
21
-1.78756
0
LINE
8
BLACK
6
CONTINUOUS
10
4.02641
20
-1.78756
11
4.0085
21
-1.78014
0
LINE
8
BLACK
6
CONTINUOUS
10
4.0085
20
-1.78014
11
3.99238
21
-1.76937
0
LINE
8
BLACK
6
CONTINUOUS
10
3.99238
20
-1.76937
11
3.97867
21
-1.75566
0
LINE
8
BLACK
6
CONTINUOUS
10
3.97867
20
-1.75566
11
3.96789
21
-1.73954
0
LINE
8
BLACK
6
CONTINUOUS
10
3.96789
20
-1.73954
11
3.96048
21
-1.72162
0
LINE
8
BLACK
6
CONTINUOUS
10
3.96048
20
-1.72162
11
3.95669
21
-1.70261
0
LINE
8
BLACK
6
CONTINUOUS
10
3.95669
20
-1.70261
11
3.95669
21
-1.68322
0
LINE
8
BLACK
6
CONTINUOUS
10
3.95669
20
-1.68322
11
3.96048
21
-1.6642
0
LINE
8
BLACK
6
CONTINUOUS
10
3.96048
20
-1.6642
11
3.96789
21
-1.64629
0
LINE
8
BLACK
6
CONTINUOUS
10
3.96789
20
-1.64629
11
3.97867
21
-1.63017
0
LINE
8
BLACK
6
CONTINUOUS
10
3.97867
20
-1.63017
11
3.99238
21
-1.61646
0
LINE
8
BLACK
6
CONTINUOUS
10
3.99238
20
-1.61646
11
4.0085
21
-1.60569
0
LINE
8
BLACK
6
CONTINUOUS
10
4.0085
20
-1.60569
11
4.02641
21
-1.59827
0
LINE
8
BLACK
6
CONTINUOUS
10
4.02641
20
-1.59827
11
4.04542
21
-1.59449
0
LINE
8
BLACK
6
CONTINUOUS
10
4.04542
20
-1.59449
11
4.06481
21
-1.59449
0
LINE
8
BLACK
6
CONTINUOUS
10
4.06481
20
-1.59449
11
4.08383
21
-1.59827
  0
ENDSEC
  0
EOF
