  0
SECTION
  2
HEADER
  9
$ANGBASE
  50
0.0
  9
$ANGDIR
  70
1
  9
$MEASUREMENT
  70
0
  0
ENDSEC
  0
SECTION
  2
TABLES
  0
TABLE
  2
LTYPE
  70
4
  0
LTYPE
  5
40F
  2
CONTINUOUS
  70
0
  3
Solid line
  72
65
  73
0
  40
0.0
  0
LTYPE
  5
410
  2
DASHDOT
 70
0
  3
Dash Dot ____ _ ____ _
 72
65
 73
4
 40
2.0
 49
1.25
 49
-0.25
 49
0.25
 49
-0.25
  0
LTYPE
  5
411
  2
DASHED
 70
0
  3
Dashed __ __ __ __ __
 72
65
 73
2
 40
0.75
 49
0.5
 49
-0.25
  0
LTYPE
  5
43B
  2
DOTTED
 70
0
  3
Dotted .  .  .  .
 72
65
 73
2
 40
0.2
 49
0.0
 49
-0.2
  0
ENDTAB
  0
TABLE
  2
STYLE
  70
4
  0
STYLE
  2
KICAD
  70
0
  40
0
  41
1
  42
1
  50
0
  71
0
  3
isocp.shx
  0
STYLE
  2
KICADB
  70
0
  40
0
  41
1
  42
1
  50
0
  71
0
  3
isocp.shx
  0
STYLE
  2
KICADI
  70
0
  40
0
  41
1
  42
1
  50
15
  71
0
  3
isocp.shx
  0
STYLE
  2
KICADBI
  70
0
  40
0
  41
1
  42
1
  50
15
  71
0
  3
isocp.shx
  0
ENDTAB
  0
TABLE
  2
LAYER
  70
1
  0
LAYER
  2
BLACK
  70
0
  62
7
  6
CONTINUOUS
  0
ENDTAB
  0
ENDSEC
  0
SECTION
  2
ENTITIES
0
LINE
8
BLACK
6
CONTINUOUS
10
3.41675
20
-6.42613
11
3.41908
21
-6.42763
0
LINE
8
BLACK
6
CONTINUOUS
10
3.41908
20
-6.42763
11
3.42023
21
-6.43016
0
LINE
8
BLACK
6
CONTINUOUS
10
3.42023
20
-6.43016
11
3.41983
21
-6.4329
0
LINE
8
BLACK
6
CONTINUOUS
10
3.41983
20
-6.4329
11
3.41801
21
-6.43499
0
LINE
8
BLACK
6
CONTINUOUS
10
3.41801
20
-6.43499
11
3.41535
21
-6.43577
0
LINE
8
BLACK
6
CONTINUOUS
10
3.41535
20
-6.43577
11
3.38964
21
-6.43577
0
LINE
8
BLACK
6
CONTINUOUS
10
3.38964
20
-6.43577
11
3.40219
21
-6.45011
0
LINE
8
BLACK
6
CONTINUOUS
10
3.40219
20
-6.45011
11
3.4022
21
-6.45012
0
LINE
8
BLACK
6
CONTINUOUS
10
3.4022
20
-6.45012
11
3.40221
21
-6.45013
0
LINE
8
BLACK
6
CONTINUOUS
10
3.40221
20
-6.45013
11
3.40222
21
-6.45016
0
LINE
8
BLACK
6
CONTINUOUS
10
3.40222
20
-6.45016
11
3.40295
21
-6.45129
0
LINE
8
BLACK
6
CONTINUOUS
10
3.40295
20
-6.45129
11
3.40306
21
-6.452
0
LINE
8
BLACK
6
CONTINUOUS
10
3.40306
20
-6.452
11
3.40335
21
-6.45265
0
LINE
8
BLACK
6
CONTINUOUS
10
3.40335
20
-6.45265
11
3.40325
21
-6.45334
0
LINE
8
BLACK
6
CONTINUOUS
10
3.40325
20
-6.45334
11
3.40335
21
-6.45403
0
LINE
8
BLACK
6
CONTINUOUS
10
3.40335
20
-6.45403
11
3.40306
21
-6.45469
0
LINE
8
BLACK
6
CONTINUOUS
10
3.40306
20
-6.45469
11
3.40296
21
-6.4554
0
LINE
8
BLACK
6
CONTINUOUS
10
3.40296
20
-6.4554
11
3.4025
21
-6.45592
0
LINE
8
BLACK
6
CONTINUOUS
10
3.4025
20
-6.45592
11
3.40221
21
-6.45656
0
LINE
8
BLACK
6
CONTINUOUS
10
3.40221
20
-6.45656
11
3.40161
21
-6.45695
0
LINE
8
BLACK
6
CONTINUOUS
10
3.40161
20
-6.45695
11
3.40114
21
-6.45749
0
LINE
8
BLACK
6
CONTINUOUS
10
3.40114
20
-6.45749
11
3.40047
21
-6.45768
0
LINE
8
BLACK
6
CONTINUOUS
10
3.40047
20
-6.45768
11
3.39989
21
-6.45806
0
LINE
8
BLACK
6
CONTINUOUS
10
3.39989
20
-6.45806
11
3.39917
21
-6.45807
0
LINE
8
BLACK
6
CONTINUOUS
10
3.39917
20
-6.45807
11
3.39848
21
-6.45827
0
LINE
8
BLACK
6
CONTINUOUS
10
3.39848
20
-6.45827
11
3.39121
21
-6.45827
0
LINE
8
BLACK
6
CONTINUOUS
10
3.39121
20
-6.45827
11
3.38734
21
-6.4602
0
LINE
8
BLACK
6
CONTINUOUS
10
3.38734
20
-6.4602
11
3.38565
21
-6.46189
0
LINE
8
BLACK
6
CONTINUOUS
10
3.38565
20
-6.46189
11
3.38372
21
-6.46576
0
LINE
8
BLACK
6
CONTINUOUS
10
3.38372
20
-6.46576
11
3.38372
21
-6.47749
0
LINE
8
BLACK
6
CONTINUOUS
10
3.38372
20
-6.47749
11
3.38565
21
-6.48136
0
LINE
8
BLACK
6
CONTINUOUS
10
3.38565
20
-6.48136
11
3.38734
21
-6.48305
0
LINE
8
BLACK
6
CONTINUOUS
10
3.38734
20
-6.48305
11
3.39121
21
-6.48498
0
LINE
8
BLACK
6
CONTINUOUS
10
3.39121
20
-6.48498
11
3.40576
21
-6.48498
0
LINE
8
BLACK
6
CONTINUOUS
10
3.40576
20
-6.48498
11
3.40963
21
-6.48305
0
LINE
8
BLACK
6
CONTINUOUS
10
3.40963
20
-6.48305
11
3.41187
21
-6.4808
0
LINE
8
BLACK
6
CONTINUOUS
10
3.41187
20
-6.4808
11
3.41301
21
-6.47996
0
LINE
8
BLACK
6
CONTINUOUS
10
3.41301
20
-6.47996
11
3.41571
21
-6.47937
0
LINE
8
BLACK
6
CONTINUOUS
10
3.41571
20
-6.47937
11
3.41831
21
-6.48034
0
LINE
8
BLACK
6
CONTINUOUS
10
3.41831
20
-6.48034
11
3.41997
21
-6.48256
0
LINE
8
BLACK
6
CONTINUOUS
10
3.41997
20
-6.48256
11
3.42016
21
-6.48533
0
LINE
8
BLACK
6
CONTINUOUS
10
3.42016
20
-6.48533
11
3.41883
21
-6.48776
0
LINE
8
BLACK
6
CONTINUOUS
10
3.41883
20
-6.48776
11
3.41602
21
-6.49057
0
LINE
8
BLACK
6
CONTINUOUS
10
3.41602
20
-6.49057
11
3.41489
21
-6.49142
0
LINE
8
BLACK
6
CONTINUOUS
10
3.41489
20
-6.49142
11
3.41481
21
-6.49144
0
LINE
8
BLACK
6
CONTINUOUS
10
3.41481
20
-6.49144
11
3.41474
21
-6.49149
0
LINE
8
BLACK
6
CONTINUOUS
10
3.41474
20
-6.49149
11
3.40912
21
-6.49431
0
LINE
8
BLACK
6
CONTINUOUS
10
3.40912
20
-6.49431
11
3.40778
21
-6.49475
0
LINE
8
BLACK
6
CONTINUOUS
10
3.40778
20
-6.49475
11
3.40734
21
-6.4947
0
LINE
8
BLACK
6
CONTINUOUS
10
3.40734
20
-6.4947
11
3.40692
21
-6.49483
0
LINE
8
BLACK
6
CONTINUOUS
10
3.40692
20
-6.49483
11
3.39004
21
-6.49483
0
LINE
8
BLACK
6
CONTINUOUS
10
3.39004
20
-6.49483
11
3.38865
21
-6.49462
0
LINE
8
BLACK
6
CONTINUOUS
10
3.38865
20
-6.49462
11
3.38828
21
-6.49438
0
LINE
8
BLACK
6
CONTINUOUS
10
3.38828
20
-6.49438
11
3.38784
21
-6.49431
0
LINE
8
BLACK
6
CONTINUOUS
10
3.38784
20
-6.49431
11
3.38222
21
-6.49149
0
LINE
8
BLACK
6
CONTINUOUS
10
3.38222
20
-6.49149
11
3.38106
21
-6.49069
0
LINE
8
BLACK
6
CONTINUOUS
10
3.38106
20
-6.49069
11
3.38102
21
-6.49061
0
LINE
8
BLACK
6
CONTINUOUS
10
3.38102
20
-6.49061
11
3.38094
21
-6.49057
0
LINE
8
BLACK
6
CONTINUOUS
10
3.38094
20
-6.49057
11
3.37813
21
-6.48776
0
LINE
8
BLACK
6
CONTINUOUS
10
3.37813
20
-6.48776
11
3.37728
21
-6.48663
0
LINE
8
BLACK
6
CONTINUOUS
10
3.37728
20
-6.48663
11
3.37727
21
-6.48654
0
LINE
8
BLACK
6
CONTINUOUS
10
3.37727
20
-6.48654
11
3.37721
21
-6.48648
0
LINE
8
BLACK
6
CONTINUOUS
10
3.37721
20
-6.48648
11
3.37439
21
-6.48086
0
LINE
8
BLACK
6
CONTINUOUS
10
3.37439
20
-6.48086
11
3.37395
21
-6.47952
0
LINE
8
BLACK
6
CONTINUOUS
10
3.37395
20
-6.47952
11
3.374
21
-6.47908
0
LINE
8
BLACK
6
CONTINUOUS
10
3.374
20
-6.47908
11
3.37388
21
-6.47866
0
LINE
8
BLACK
6
CONTINUOUS
10
3.37388
20
-6.47866
11
3.37388
21
-6.4646
0
LINE
8
BLACK
6
CONTINUOUS
10
3.37388
20
-6.4646
11
3.37408
21
-6.4632
0
LINE
8
BLACK
6
CONTINUOUS
10
3.37408
20
-6.4632
11
3.37432
21
-6.46283
0
LINE
8
BLACK
6
CONTINUOUS
10
3.37432
20
-6.46283
11
3.37439
21
-6.46239
0
LINE
8
BLACK
6
CONTINUOUS
10
3.37439
20
-6.46239
11
3.37721
21
-6.45677
0
LINE
8
BLACK
6
CONTINUOUS
10
3.37721
20
-6.45677
11
3.37801
21
-6.45561
0
LINE
8
BLACK
6
CONTINUOUS
10
3.37801
20
-6.45561
11
3.37809
21
-6.45557
0
LINE
8
BLACK
6
CONTINUOUS
10
3.37809
20
-6.45557
11
3.37813
21
-6.45549
0
LINE
8
BLACK
6
CONTINUOUS
10
3.37813
20
-6.45549
11
3.38094
21
-6.45268
0
LINE
8
BLACK
6
CONTINUOUS
10
3.38094
20
-6.45268
11
3.38207
21
-6.45183
0
LINE
8
BLACK
6
CONTINUOUS
10
3.38207
20
-6.45183
11
3.38216
21
-6.45182
0
LINE
8
BLACK
6
CONTINUOUS
10
3.38216
20
-6.45182
11
3.38222
21
-6.45176
0
LINE
8
BLACK
6
CONTINUOUS
10
3.38222
20
-6.45176
11
3.38784
21
-6.44894
0
LINE
8
BLACK
6
CONTINUOUS
10
3.38784
20
-6.44894
11
3.38804
21
-6.44888
0
LINE
8
BLACK
6
CONTINUOUS
10
3.38804
20
-6.44888
11
3.37509
21
-6.43409
0
LINE
8
BLACK
6
CONTINUOUS
10
3.37509
20
-6.43409
11
3.37508
21
-6.43407
0
LINE
8
BLACK
6
CONTINUOUS
10
3.37508
20
-6.43407
11
3.37507
21
-6.43406
0
LINE
8
BLACK
6
CONTINUOUS
10
3.37507
20
-6.43406
11
3.37506
21
-6.43404
0
LINE
8
BLACK
6
CONTINUOUS
10
3.37506
20
-6.43404
11
3.37432
21
-6.4329
0
LINE
8
BLACK
6
CONTINUOUS
10
3.37432
20
-6.4329
11
3.37422
21
-6.4322
0
LINE
8
BLACK
6
CONTINUOUS
10
3.37422
20
-6.4322
11
3.37392
21
-6.43154
0
LINE
8
BLACK
6
CONTINUOUS
10
3.37392
20
-6.43154
11
3.37402
21
-6.43085
0
LINE
8
BLACK
6
CONTINUOUS
10
3.37402
20
-6.43085
11
3.37392
21
-6.43016
0
LINE
8
BLACK
6
CONTINUOUS
10
3.37392
20
-6.43016
11
3.37422
21
-6.42951
0
LINE
8
BLACK
6
CONTINUOUS
10
3.37422
20
-6.42951
11
3.37432
21
-6.4288
0
LINE
8
BLACK
6
CONTINUOUS
10
3.37432
20
-6.4288
11
3.37478
21
-6.42827
0
LINE
8
BLACK
6
CONTINUOUS
10
3.37478
20
-6.42827
11
3.37507
21
-6.42764
0
LINE
8
BLACK
6
CONTINUOUS
10
3.37507
20
-6.42764
11
3.37567
21
-6.42725
0
LINE
8
BLACK
6
CONTINUOUS
10
3.37567
20
-6.42725
11
3.37614
21
-6.42671
0
LINE
8
BLACK
6
CONTINUOUS
10
3.37614
20
-6.42671
11
3.37681
21
-6.42651
0
LINE
8
BLACK
6
CONTINUOUS
10
3.37681
20
-6.42651
11
3.37739
21
-6.42613
0
LINE
8
BLACK
6
CONTINUOUS
10
3.37739
20
-6.42613
11
3.37811
21
-6.42613
0
LINE
8
BLACK
6
CONTINUOUS
10
3.37811
20
-6.42613
11
3.3788
21
-6.42593
0
LINE
8
BLACK
6
CONTINUOUS
10
3.3788
20
-6.42593
11
3.41535
21
-6.42593
0
LINE
8
BLACK
6
CONTINUOUS
10
3.41535
20
-6.42593
11
3.41675
21
-6.42613
0
LINE
8
BLACK
6
CONTINUOUS
10
3.35418
20
-6.4795
11
3.35454
21
-6.47947
0
LINE
8
BLACK
6
CONTINUOUS
10
3.35454
20
-6.47947
11
3.35501
21
-6.47973
0
LINE
8
BLACK
6
CONTINUOUS
10
3.35501
20
-6.47973
11
3.35554
21
-6.47981
0
LINE
8
BLACK
6
CONTINUOUS
10
3.35554
20
-6.47981
11
3.35594
21
-6.48016
0
LINE
8
BLACK
6
CONTINUOUS
10
3.35594
20
-6.48016
11
3.35644
21
-6.48034
0
LINE
8
BLACK
6
CONTINUOUS
10
3.35644
20
-6.48034
11
3.35665
21
-6.48063
0
LINE
8
BLACK
6
CONTINUOUS
10
3.35665
20
-6.48063
11
3.35697
21
-6.4808
0
LINE
8
BLACK
6
CONTINUOUS
10
3.35697
20
-6.4808
11
3.35978
21
-6.48361
0
LINE
8
BLACK
6
CONTINUOUS
10
3.35978
20
-6.48361
11
3.36062
21
-6.48474
0
LINE
8
BLACK
6
CONTINUOUS
10
3.36062
20
-6.48474
11
3.3607
21
-6.48509
0
LINE
8
BLACK
6
CONTINUOUS
10
3.3607
20
-6.48509
11
3.36091
21
-6.48538
0
LINE
8
BLACK
6
CONTINUOUS
10
3.36091
20
-6.48538
11
3.36099
21
-6.48643
0
LINE
8
BLACK
6
CONTINUOUS
10
3.36099
20
-6.48643
11
3.36121
21
-6.48745
0
LINE
8
BLACK
6
CONTINUOUS
10
3.36121
20
-6.48745
11
3.36108
21
-6.48779
0
LINE
8
BLACK
6
CONTINUOUS
10
3.36108
20
-6.48779
11
3.36111
21
-6.48814
0
LINE
8
BLACK
6
CONTINUOUS
10
3.36111
20
-6.48814
11
3.3606
21
-6.48906
0
LINE
8
BLACK
6
CONTINUOUS
10
3.3606
20
-6.48906
11
3.36023
21
-6.49005
0
LINE
8
BLACK
6
CONTINUOUS
10
3.36023
20
-6.49005
11
3.35995
21
-6.49026
0
LINE
8
BLACK
6
CONTINUOUS
10
3.35995
20
-6.49026
11
3.35978
21
-6.49057
0
LINE
8
BLACK
6
CONTINUOUS
10
3.35978
20
-6.49057
11
3.35697
21
-6.49338
0
LINE
8
BLACK
6
CONTINUOUS
10
3.35697
20
-6.49338
11
3.35676
21
-6.49354
0
LINE
8
BLACK
6
CONTINUOUS
10
3.35676
20
-6.49354
11
3.3567
21
-6.49363
0
LINE
8
BLACK
6
CONTINUOUS
10
3.3567
20
-6.49363
11
3.35654
21
-6.4937
0
LINE
8
BLACK
6
CONTINUOUS
10
3.35654
20
-6.4937
11
3.35584
21
-6.49423
0
LINE
8
BLACK
6
CONTINUOUS
10
3.35584
20
-6.49423
11
3.35549
21
-6.4943
0
LINE
8
BLACK
6
CONTINUOUS
10
3.35549
20
-6.4943
11
3.3552
21
-6.49452
0
LINE
8
BLACK
6
CONTINUOUS
10
3.3552
20
-6.49452
11
3.35467
21
-6.49455
0
LINE
8
BLACK
6
CONTINUOUS
10
3.35467
20
-6.49455
11
3.35418
21
-6.49478
0
LINE
8
BLACK
6
CONTINUOUS
10
3.35418
20
-6.49478
11
3.35365
21
-6.4947
0
LINE
8
BLACK
6
CONTINUOUS
10
3.35365
20
-6.4947
11
3.35313
21
-6.49481
0
LINE
8
BLACK
6
CONTINUOUS
10
3.35313
20
-6.49481
11
3.35279
21
-6.49469
0
LINE
8
BLACK
6
CONTINUOUS
10
3.35279
20
-6.49469
11
3.35244
21
-6.49471
0
LINE
8
BLACK
6
CONTINUOUS
10
3.35244
20
-6.49471
11
3.35197
21
-6.49446
0
LINE
8
BLACK
6
CONTINUOUS
10
3.35197
20
-6.49446
11
3.35144
21
-6.49438
0
LINE
8
BLACK
6
CONTINUOUS
10
3.35144
20
-6.49438
11
3.35103
21
-6.49403
0
LINE
8
BLACK
6
CONTINUOUS
10
3.35103
20
-6.49403
11
3.35053
21
-6.49384
0
LINE
8
BLACK
6
CONTINUOUS
10
3.35053
20
-6.49384
11
3.35032
21
-6.49355
0
LINE
8
BLACK
6
CONTINUOUS
10
3.35032
20
-6.49355
11
3.35001
21
-6.49338
0
LINE
8
BLACK
6
CONTINUOUS
10
3.35001
20
-6.49338
11
3.3472
21
-6.49057
0
LINE
8
BLACK
6
CONTINUOUS
10
3.3472
20
-6.49057
11
3.34635
21
-6.48944
0
LINE
8
BLACK
6
CONTINUOUS
10
3.34635
20
-6.48944
11
3.34628
21
-6.48909
0
LINE
8
BLACK
6
CONTINUOUS
10
3.34628
20
-6.48909
11
3.34606
21
-6.48881
0
LINE
8
BLACK
6
CONTINUOUS
10
3.34606
20
-6.48881
11
3.34599
21
-6.48776
0
LINE
8
BLACK
6
CONTINUOUS
10
3.34599
20
-6.48776
11
3.34577
21
-6.48673
0
LINE
8
BLACK
6
CONTINUOUS
10
3.34577
20
-6.48673
11
3.34589
21
-6.4864
0
LINE
8
BLACK
6
CONTINUOUS
10
3.34589
20
-6.4864
11
3.34587
21
-6.48604
0
LINE
8
BLACK
6
CONTINUOUS
10
3.34587
20
-6.48604
11
3.34637
21
-6.48512
0
LINE
8
BLACK
6
CONTINUOUS
10
3.34637
20
-6.48512
11
3.34674
21
-6.48414
0
LINE
8
BLACK
6
CONTINUOUS
10
3.34674
20
-6.48414
11
3.34702
21
-6.48392
0
LINE
8
BLACK
6
CONTINUOUS
10
3.34702
20
-6.48392
11
3.3472
21
-6.48361
0
LINE
8
BLACK
6
CONTINUOUS
10
3.3472
20
-6.48361
11
3.35001
21
-6.4808
0
LINE
8
BLACK
6
CONTINUOUS
10
3.35001
20
-6.4808
11
3.35021
21
-6.48065
0
LINE
8
BLACK
6
CONTINUOUS
10
3.35021
20
-6.48065
11
3.35027
21
-6.48055
0
LINE
8
BLACK
6
CONTINUOUS
10
3.35027
20
-6.48055
11
3.35044
21
-6.48048
0
LINE
8
BLACK
6
CONTINUOUS
10
3.35044
20
-6.48048
11
3.35114
21
-6.47996
0
LINE
8
BLACK
6
CONTINUOUS
10
3.35114
20
-6.47996
11
3.35149
21
-6.47988
0
LINE
8
BLACK
6
CONTINUOUS
10
3.35149
20
-6.47988
11
3.35177
21
-6.47967
0
LINE
8
BLACK
6
CONTINUOUS
10
3.35177
20
-6.47967
11
3.35231
21
-6.47963
0
LINE
8
BLACK
6
CONTINUOUS
10
3.35231
20
-6.47963
11
3.35279
21
-6.47941
0
LINE
8
BLACK
6
CONTINUOUS
10
3.35279
20
-6.47941
11
3.35332
21
-6.47948
0
LINE
8
BLACK
6
CONTINUOUS
10
3.35332
20
-6.47948
11
3.35385
21
-6.47937
0
LINE
8
BLACK
6
CONTINUOUS
10
3.35385
20
-6.47937
11
3.35418
21
-6.4795
0
LINE
8
BLACK
6
CONTINUOUS
10
3.43523
20
-6.44664
11
3.43686
21
-6.44888
0
LINE
8
BLACK
6
CONTINUOUS
10
3.43686
20
-6.44888
11
3.44629
21
-6.47527
0
LINE
8
BLACK
6
CONTINUOUS
10
3.44629
20
-6.47527
11
3.45571
21
-6.44888
0
LINE
8
BLACK
6
CONTINUOUS
10
3.45571
20
-6.44888
11
3.45638
21
-6.44763
0
LINE
8
BLACK
6
CONTINUOUS
10
3.45638
20
-6.44763
11
3.45857
21
-6.44594
0
LINE
8
BLACK
6
CONTINUOUS
10
3.45857
20
-6.44594
11
3.46133
21
-6.44571
0
LINE
8
BLACK
6
CONTINUOUS
10
3.46133
20
-6.44571
11
3.46378
21
-6.44701
0
LINE
8
BLACK
6
CONTINUOUS
10
3.46378
20
-6.44701
11
3.46514
21
-6.44942
0
LINE
8
BLACK
6
CONTINUOUS
10
3.46514
20
-6.44942
11
3.46498
21
-6.45219
0
LINE
8
BLACK
6
CONTINUOUS
10
3.46498
20
-6.45219
11
3.45092
21
-6.49156
0
LINE
8
BLACK
6
CONTINUOUS
10
3.45092
20
-6.49156
11
3.45061
21
-6.49214
0
LINE
8
BLACK
6
CONTINUOUS
10
3.45061
20
-6.49214
11
3.45057
21
-6.49233
0
LINE
8
BLACK
6
CONTINUOUS
10
3.45057
20
-6.49233
11
3.45046
21
-6.49244
0
LINE
8
BLACK
6
CONTINUOUS
10
3.45046
20
-6.49244
11
3.45026
21
-6.49281
0
LINE
8
BLACK
6
CONTINUOUS
10
3.45026
20
-6.49281
11
3.44938
21
-6.49348
0
LINE
8
BLACK
6
CONTINUOUS
10
3.44938
20
-6.49348
11
3.44858
21
-6.49426
0
LINE
8
BLACK
6
CONTINUOUS
10
3.44858
20
-6.49426
11
3.44829
21
-6.49432
0
LINE
8
BLACK
6
CONTINUOUS
10
3.44829
20
-6.49432
11
3.44806
21
-6.49449
0
LINE
8
BLACK
6
CONTINUOUS
10
3.44806
20
-6.49449
11
3.44695
21
-6.49459
0
LINE
8
BLACK
6
CONTINUOUS
10
3.44695
20
-6.49459
11
3.44586
21
-6.49481
0
LINE
8
BLACK
6
CONTINUOUS
10
3.44586
20
-6.49481
11
3.44559
21
-6.4947
0
LINE
8
BLACK
6
CONTINUOUS
10
3.44559
20
-6.4947
11
3.4453
21
-6.49473
0
LINE
8
BLACK
6
CONTINUOUS
10
3.4453
20
-6.49473
11
3.44432
21
-6.49421
0
LINE
8
BLACK
6
CONTINUOUS
10
3.44432
20
-6.49421
11
3.44328
21
-6.4938
0
LINE
8
BLACK
6
CONTINUOUS
10
3.44328
20
-6.4938
11
3.44311
21
-6.49357
0
LINE
8
BLACK
6
CONTINUOUS
10
3.44311
20
-6.49357
11
3.44285
21
-6.49343
0
LINE
8
BLACK
6
CONTINUOUS
10
3.44285
20
-6.49343
11
3.44231
21
-6.49246
0
LINE
8
BLACK
6
CONTINUOUS
10
3.44231
20
-6.49246
11
3.44165
21
-6.49156
0
LINE
8
BLACK
6
CONTINUOUS
10
3.44165
20
-6.49156
11
3.42759
21
-6.45219
0
LINE
8
BLACK
6
CONTINUOUS
10
3.42759
20
-6.45219
11
3.42731
21
-6.45081
0
LINE
8
BLACK
6
CONTINUOUS
10
3.42731
20
-6.45081
11
3.42795
21
-6.44811
0
LINE
8
BLACK
6
CONTINUOUS
10
3.42795
20
-6.44811
11
3.42994
21
-6.44618
0
LINE
8
BLACK
6
CONTINUOUS
10
3.42994
20
-6.44618
11
3.43265
21
-6.44563
0
LINE
8
BLACK
6
CONTINUOUS
10
3.43265
20
-6.44563
11
3.43523
21
-6.44664
0
LINE
8
BLACK
6
CONTINUOUS
10
3.3172
20
-6.42421
11
3.31879
21
-6.42648
0
LINE
8
BLACK
6
CONTINUOUS
10
3.31879
20
-6.42648
11
3.33285
21
-6.46866
0
LINE
8
BLACK
6
CONTINUOUS
10
3.33285
20
-6.46866
11
3.33297
21
-6.46935
0
LINE
8
BLACK
6
CONTINUOUS
10
3.33297
20
-6.46935
11
3.33305
21
-6.46953
0
LINE
8
BLACK
6
CONTINUOUS
10
3.33305
20
-6.46953
11
3.33303
21
-6.46968
0
LINE
8
BLACK
6
CONTINUOUS
10
3.33303
20
-6.46968
11
3.3331
21
-6.47005
0
LINE
8
BLACK
6
CONTINUOUS
10
3.3331
20
-6.47005
11
3.33281
21
-6.47115
0
LINE
8
BLACK
6
CONTINUOUS
10
3.33281
20
-6.47115
11
3.33265
21
-6.47227
0
LINE
8
BLACK
6
CONTINUOUS
10
3.33265
20
-6.47227
11
3.33247
21
-6.47247
0
LINE
8
BLACK
6
CONTINUOUS
10
3.33247
20
-6.47247
11
3.33241
21
-6.47274
0
LINE
8
BLACK
6
CONTINUOUS
10
3.33241
20
-6.47274
11
3.33158
21
-6.47351
0
LINE
8
BLACK
6
CONTINUOUS
10
3.33158
20
-6.47351
11
3.33084
21
-6.47436
0
LINE
8
BLACK
6
CONTINUOUS
10
3.33084
20
-6.47436
11
3.33058
21
-6.47444
0
LINE
8
BLACK
6
CONTINUOUS
10
3.33058
20
-6.47444
11
3.33038
21
-6.47462
0
LINE
8
BLACK
6
CONTINUOUS
10
3.33038
20
-6.47462
11
3.32926
21
-6.47482
0
LINE
8
BLACK
6
CONTINUOUS
10
3.32926
20
-6.47482
11
3.32818
21
-6.47514
0
LINE
8
BLACK
6
CONTINUOUS
10
3.32818
20
-6.47514
11
3.30498
21
-6.47514
0
LINE
8
BLACK
6
CONTINUOUS
10
3.30498
20
-6.47514
11
3.30498
21
-6.4899
0
LINE
8
BLACK
6
CONTINUOUS
10
3.30498
20
-6.4899
11
3.30477
21
-6.4913
0
LINE
8
BLACK
6
CONTINUOUS
10
3.30477
20
-6.4913
11
3.30327
21
-6.49363
0
LINE
8
BLACK
6
CONTINUOUS
10
3.30327
20
-6.49363
11
3.30075
21
-6.49478
0
LINE
8
BLACK
6
CONTINUOUS
10
3.30075
20
-6.49478
11
3.29801
21
-6.49438
0
LINE
8
BLACK
6
CONTINUOUS
10
3.29801
20
-6.49438
11
3.29591
21
-6.49256
0
LINE
8
BLACK
6
CONTINUOUS
10
3.29591
20
-6.49256
11
3.29513
21
-6.4899
0
LINE
8
BLACK
6
CONTINUOUS
10
3.29513
20
-6.4899
11
3.29513
21
-6.47514
0
LINE
8
BLACK
6
CONTINUOUS
10
3.29513
20
-6.47514
11
3.29162
21
-6.47514
0
LINE
8
BLACK
6
CONTINUOUS
10
3.29162
20
-6.47514
11
3.29022
21
-6.47494
0
LINE
8
BLACK
6
CONTINUOUS
10
3.29022
20
-6.47494
11
3.28789
21
-6.47344
0
LINE
8
BLACK
6
CONTINUOUS
10
3.28789
20
-6.47344
11
3.28675
21
-6.47091
0
LINE
8
BLACK
6
CONTINUOUS
10
3.28675
20
-6.47091
11
3.28715
21
-6.46817
0
LINE
8
BLACK
6
CONTINUOUS
10
3.28715
20
-6.46817
11
3.28896
21
-6.46608
0
LINE
8
BLACK
6
CONTINUOUS
10
3.28896
20
-6.46608
11
3.29162
21
-6.4653
0
LINE
8
BLACK
6
CONTINUOUS
10
3.29162
20
-6.4653
11
3.29513
21
-6.4653
0
LINE
8
BLACK
6
CONTINUOUS
10
3.29513
20
-6.4653
11
3.29513
21
-6.45053
0
LINE
8
BLACK
6
CONTINUOUS
10
3.29513
20
-6.45053
11
3.29534
21
-6.44914
0
LINE
8
BLACK
6
CONTINUOUS
10
3.29534
20
-6.44914
11
3.29684
21
-6.44681
0
LINE
8
BLACK
6
CONTINUOUS
10
3.29684
20
-6.44681
11
3.29936
21
-6.44566
0
LINE
8
BLACK
6
CONTINUOUS
10
3.29936
20
-6.44566
11
3.3021
21
-6.44606
0
LINE
8
BLACK
6
CONTINUOUS
10
3.3021
20
-6.44606
11
3.3042
21
-6.44788
0
LINE
8
BLACK
6
CONTINUOUS
10
3.3042
20
-6.44788
11
3.30498
21
-6.45053
0
LINE
8
BLACK
6
CONTINUOUS
10
3.30498
20
-6.45053
11
3.30498
21
-6.4653
0
LINE
8
BLACK
6
CONTINUOUS
10
3.30498
20
-6.4653
11
3.32135
21
-6.4653
0
LINE
8
BLACK
6
CONTINUOUS
10
3.32135
20
-6.4653
11
3.30945
21
-6.42959
0
LINE
8
BLACK
6
CONTINUOUS
10
3.30945
20
-6.42959
11
3.3092
21
-6.4282
0
LINE
8
BLACK
6
CONTINUOUS
10
3.3092
20
-6.4282
11
3.30989
21
-6.42552
0
LINE
8
BLACK
6
CONTINUOUS
10
3.30989
20
-6.42552
11
3.31192
21
-6.42363
0
LINE
8
BLACK
6
CONTINUOUS
10
3.31192
20
-6.42363
11
3.31465
21
-6.42314
0
LINE
8
BLACK
6
CONTINUOUS
10
3.31465
20
-6.42314
11
3.3172
21
-6.42421
0
LINE
8
BLACK
6
CONTINUOUS
10
3.46737
20
-6.35074
11
3.46774
21
-6.35098
0
LINE
8
BLACK
6
CONTINUOUS
10
3.46774
20
-6.35098
11
3.46817
21
-6.35105
0
LINE
8
BLACK
6
CONTINUOUS
10
3.46817
20
-6.35105
11
3.46898
21
-6.35146
0
LINE
8
BLACK
6
CONTINUOUS
10
3.46898
20
-6.35146
11
3.4709
21
-6.35058
0
LINE
8
BLACK
6
CONTINUOUS
10
3.4709
20
-6.35058
11
3.47365
21
-6.35098
0
LINE
8
BLACK
6
CONTINUOUS
10
3.47365
20
-6.35098
11
3.47574
21
-6.3528
0
LINE
8
BLACK
6
CONTINUOUS
10
3.47574
20
-6.3528
11
3.47652
21
-6.35546
0
LINE
8
BLACK
6
CONTINUOUS
10
3.47652
20
-6.35546
11
3.47652
21
-6.41451
0
LINE
8
BLACK
6
CONTINUOUS
10
3.47652
20
-6.41451
11
3.47632
21
-6.41591
0
LINE
8
BLACK
6
CONTINUOUS
10
3.47632
20
-6.41591
11
3.47481
21
-6.41824
0
LINE
8
BLACK
6
CONTINUOUS
10
3.47481
20
-6.41824
11
3.47229
21
-6.41938
0
LINE
8
BLACK
6
CONTINUOUS
10
3.47229
20
-6.41938
11
3.46955
21
-6.41899
0
LINE
8
BLACK
6
CONTINUOUS
10
3.46955
20
-6.41899
11
3.46746
21
-6.41717
0
LINE
8
BLACK
6
CONTINUOUS
10
3.46746
20
-6.41717
11
3.46668
21
-6.41451
0
LINE
8
BLACK
6
CONTINUOUS
10
3.46668
20
-6.41451
11
3.46668
21
-6.39965
0
LINE
8
BLACK
6
CONTINUOUS
10
3.46668
20
-6.39965
11
3.4664
21
-6.39962
0
LINE
8
BLACK
6
CONTINUOUS
10
3.4664
20
-6.39962
11
3.46597
21
-6.39975
0
LINE
8
BLACK
6
CONTINUOUS
10
3.46597
20
-6.39975
11
3.45472
21
-6.39975
0
LINE
8
BLACK
6
CONTINUOUS
10
3.45472
20
-6.39975
11
3.45333
21
-6.39954
0
LINE
8
BLACK
6
CONTINUOUS
10
3.45333
20
-6.39954
11
3.45296
21
-6.39931
0
LINE
8
BLACK
6
CONTINUOUS
10
3.45296
20
-6.39931
11
3.45252
21
-6.39923
0
LINE
8
BLACK
6
CONTINUOUS
10
3.45252
20
-6.39923
11
3.4469
21
-6.39642
0
LINE
8
BLACK
6
CONTINUOUS
10
3.4469
20
-6.39642
11
3.44574
21
-6.39561
0
LINE
8
BLACK
6
CONTINUOUS
10
3.44574
20
-6.39561
11
3.4457
21
-6.39553
0
LINE
8
BLACK
6
CONTINUOUS
10
3.4457
20
-6.39553
11
3.44562
21
-6.39549
0
LINE
8
BLACK
6
CONTINUOUS
10
3.44562
20
-6.39549
11
3.44281
21
-6.39268
0
LINE
8
BLACK
6
CONTINUOUS
10
3.44281
20
-6.39268
11
3.44196
21
-6.39155
0
LINE
8
BLACK
6
CONTINUOUS
10
3.44196
20
-6.39155
11
3.44194
21
-6.39147
0
LINE
8
BLACK
6
CONTINUOUS
10
3.44194
20
-6.39147
11
3.44189
21
-6.3914
0
LINE
8
BLACK
6
CONTINUOUS
10
3.44189
20
-6.3914
11
3.43907
21
-6.38578
0
LINE
8
BLACK
6
CONTINUOUS
10
3.43907
20
-6.38578
11
3.43863
21
-6.38444
0
LINE
8
BLACK
6
CONTINUOUS
10
3.43863
20
-6.38444
11
3.43868
21
-6.384
0
LINE
8
BLACK
6
CONTINUOUS
10
3.43868
20
-6.384
11
3.43855
21
-6.38358
0
LINE
8
BLACK
6
CONTINUOUS
10
3.43855
20
-6.38358
11
3.43855
21
-6.3667
0
LINE
8
BLACK
6
CONTINUOUS
10
3.43855
20
-6.3667
11
3.43876
21
-6.36531
0
LINE
8
BLACK
6
CONTINUOUS
10
3.43876
20
-6.36531
11
3.439
21
-6.36494
0
LINE
8
BLACK
6
CONTINUOUS
10
3.439
20
-6.36494
11
3.43907
21
-6.3645
0
LINE
8
BLACK
6
CONTINUOUS
10
3.43907
20
-6.3645
11
3.44189
21
-6.35888
0
LINE
8
BLACK
6
CONTINUOUS
10
3.44189
20
-6.35888
11
3.44269
21
-6.35772
0
LINE
8
BLACK
6
CONTINUOUS
10
3.44269
20
-6.35772
11
3.44277
21
-6.35768
0
LINE
8
BLACK
6
CONTINUOUS
10
3.44277
20
-6.35768
11
3.44281
21
-6.3576
0
LINE
8
BLACK
6
CONTINUOUS
10
3.44281
20
-6.3576
11
3.44562
21
-6.35479
0
LINE
8
BLACK
6
CONTINUOUS
10
3.44562
20
-6.35479
11
3.44675
21
-6.35394
0
LINE
8
BLACK
6
CONTINUOUS
10
3.44675
20
-6.35394
11
3.44684
21
-6.35392
0
LINE
8
BLACK
6
CONTINUOUS
10
3.44684
20
-6.35392
11
3.4469
21
-6.35387
0
LINE
8
BLACK
6
CONTINUOUS
10
3.4469
20
-6.35387
11
3.45252
21
-6.35105
0
LINE
8
BLACK
6
CONTINUOUS
10
3.45252
20
-6.35105
11
3.45386
21
-6.35061
0
LINE
8
BLACK
6
CONTINUOUS
10
3.45386
20
-6.35061
11
3.4543
21
-6.35066
0
LINE
8
BLACK
6
CONTINUOUS
10
3.4543
20
-6.35066
11
3.45472
21
-6.35053
0
LINE
8
BLACK
6
CONTINUOUS
10
3.45472
20
-6.35053
11
3.46597
21
-6.35053
0
LINE
8
BLACK
6
CONTINUOUS
10
3.46597
20
-6.35053
11
3.46737
21
-6.35074
0
LINE
8
BLACK
6
CONTINUOUS
10
3.45589
20
-6.36038
11
3.45202
21
-6.36231
0
LINE
8
BLACK
6
CONTINUOUS
10
3.45202
20
-6.36231
11
3.45033
21
-6.364
0
LINE
8
BLACK
6
CONTINUOUS
10
3.45033
20
-6.364
11
3.4484
21
-6.36787
0
LINE
8
BLACK
6
CONTINUOUS
10
3.4484
20
-6.36787
11
3.4484
21
-6.38242
0
LINE
8
BLACK
6
CONTINUOUS
10
3.4484
20
-6.38242
11
3.45033
21
-6.38629
0
LINE
8
BLACK
6
CONTINUOUS
10
3.45033
20
-6.38629
11
3.45202
21
-6.38797
0
LINE
8
BLACK
6
CONTINUOUS
10
3.45202
20
-6.38797
11
3.45589
21
-6.3899
0
LINE
8
BLACK
6
CONTINUOUS
10
3.45589
20
-6.3899
11
3.46481
21
-6.3899
0
LINE
8
BLACK
6
CONTINUOUS
10
3.46481
20
-6.3899
11
3.46668
21
-6.38897
0
LINE
8
BLACK
6
CONTINUOUS
10
3.46668
20
-6.38897
11
3.46668
21
-6.36131
0
LINE
8
BLACK
6
CONTINUOUS
10
3.46668
20
-6.36131
11
3.46481
21
-6.36038
0
LINE
8
BLACK
6
CONTINUOUS
10
3.46481
20
-6.36038
11
3.45589
21
-6.36038
0
LINE
8
BLACK
6
CONTINUOUS
10
3.61923
20
-6.35074
11
3.6196
21
-6.35098
0
LINE
8
BLACK
6
CONTINUOUS
10
3.6196
20
-6.35098
11
3.62003
21
-6.35105
0
LINE
8
BLACK
6
CONTINUOUS
10
3.62003
20
-6.35105
11
3.62565
21
-6.35387
0
LINE
8
BLACK
6
CONTINUOUS
10
3.62565
20
-6.35387
11
3.62586
21
-6.35401
0
LINE
8
BLACK
6
CONTINUOUS
10
3.62586
20
-6.35401
11
3.62597
21
-6.35404
0
LINE
8
BLACK
6
CONTINUOUS
10
3.62597
20
-6.35404
11
3.62609
21
-6.35417
0
LINE
8
BLACK
6
CONTINUOUS
10
3.62609
20
-6.35417
11
3.62681
21
-6.35467
0
LINE
8
BLACK
6
CONTINUOUS
10
3.62681
20
-6.35467
11
3.62726
21
-6.35543
0
LINE
8
BLACK
6
CONTINUOUS
10
3.62726
20
-6.35543
11
3.62786
21
-6.35607
0
LINE
8
BLACK
6
CONTINUOUS
10
3.62786
20
-6.35607
11
3.63067
21
-6.36169
0
LINE
8
BLACK
6
CONTINUOUS
10
3.63067
20
-6.36169
11
3.63111
21
-6.36303
0
LINE
8
BLACK
6
CONTINUOUS
10
3.63111
20
-6.36303
11
3.63106
21
-6.36347
0
LINE
8
BLACK
6
CONTINUOUS
10
3.63106
20
-6.36347
11
3.63119
21
-6.36389
0
LINE
8
BLACK
6
CONTINUOUS
10
3.63119
20
-6.36389
11
3.63119
21
-6.38639
0
LINE
8
BLACK
6
CONTINUOUS
10
3.63119
20
-6.38639
11
3.63098
21
-6.38779
0
LINE
8
BLACK
6
CONTINUOUS
10
3.63098
20
-6.38779
11
3.63075
21
-6.38816
0
LINE
8
BLACK
6
CONTINUOUS
10
3.63075
20
-6.38816
11
3.63067
21
-6.38859
0
LINE
8
BLACK
6
CONTINUOUS
10
3.63067
20
-6.38859
11
3.62786
21
-6.39421
0
LINE
8
BLACK
6
CONTINUOUS
10
3.62786
20
-6.39421
11
3.62771
21
-6.39442
0
LINE
8
BLACK
6
CONTINUOUS
10
3.62771
20
-6.39442
11
3.62768
21
-6.39453
0
LINE
8
BLACK
6
CONTINUOUS
10
3.62768
20
-6.39453
11
3.62755
21
-6.39465
0
LINE
8
BLACK
6
CONTINUOUS
10
3.62755
20
-6.39465
11
3.62705
21
-6.39537
0
LINE
8
BLACK
6
CONTINUOUS
10
3.62705
20
-6.39537
11
3.6263
21
-6.39582
0
LINE
8
BLACK
6
CONTINUOUS
10
3.6263
20
-6.39582
11
3.62565
21
-6.39642
0
LINE
8
BLACK
6
CONTINUOUS
10
3.62565
20
-6.39642
11
3.62003
21
-6.39923
0
LINE
8
BLACK
6
CONTINUOUS
10
3.62003
20
-6.39923
11
3.61869
21
-6.39967
0
LINE
8
BLACK
6
CONTINUOUS
10
3.61869
20
-6.39967
11
3.61825
21
-6.39962
0
LINE
8
BLACK
6
CONTINUOUS
10
3.61825
20
-6.39962
11
3.61783
21
-6.39975
0
LINE
8
BLACK
6
CONTINUOUS
10
3.61783
20
-6.39975
11
3.60658
21
-6.39975
0
LINE
8
BLACK
6
CONTINUOUS
10
3.60658
20
-6.39975
11
3.60518
21
-6.39954
0
LINE
8
BLACK
6
CONTINUOUS
10
3.60518
20
-6.39954
11
3.60481
21
-6.39931
0
LINE
8
BLACK
6
CONTINUOUS
10
3.60481
20
-6.39931
11
3.60438
21
-6.39923
0
LINE
8
BLACK
6
CONTINUOUS
10
3.60438
20
-6.39923
11
3.59876
21
-6.39642
0
LINE
8
BLACK
6
CONTINUOUS
10
3.59876
20
-6.39642
11
3.5976
21
-6.39561
0
LINE
8
BLACK
6
CONTINUOUS
10
3.5976
20
-6.39561
11
3.59619
21
-6.39322
0
LINE
8
BLACK
6
CONTINUOUS
10
3.59619
20
-6.39322
11
3.59629
21
-6.39045
0
LINE
8
BLACK
6
CONTINUOUS
10
3.59629
20
-6.39045
11
3.59787
21
-6.38818
0
LINE
8
BLACK
6
CONTINUOUS
10
3.59787
20
-6.38818
11
3.60043
21
-6.38712
0
LINE
8
BLACK
6
CONTINUOUS
10
3.60043
20
-6.38712
11
3.60316
21
-6.38761
0
LINE
8
BLACK
6
CONTINUOUS
10
3.60316
20
-6.38761
11
3.60774
21
-6.3899
0
LINE
8
BLACK
6
CONTINUOUS
10
3.60774
20
-6.3899
11
3.61667
21
-6.3899
0
LINE
8
BLACK
6
CONTINUOUS
10
3.61667
20
-6.3899
11
3.61979
21
-6.38835
0
LINE
8
BLACK
6
CONTINUOUS
10
3.61979
20
-6.38835
11
3.62134
21
-6.38523
0
LINE
8
BLACK
6
CONTINUOUS
10
3.62134
20
-6.38523
11
3.62134
21
-6.37918
0
LINE
8
BLACK
6
CONTINUOUS
10
3.62134
20
-6.37918
11
3.59718
21
-6.37434
0
LINE
8
BLACK
6
CONTINUOUS
10
3.59718
20
-6.37434
11
3.59626
21
-6.37401
0
LINE
8
BLACK
6
CONTINUOUS
10
3.59626
20
-6.37401
11
3.5961
21
-6.37399
0
LINE
8
BLACK
6
CONTINUOUS
10
3.5961
20
-6.37399
11
3.59603
21
-6.37393
0
LINE
8
BLACK
6
CONTINUOUS
10
3.59603
20
-6.37393
11
3.59585
21
-6.37387
0
LINE
8
BLACK
6
CONTINUOUS
10
3.59585
20
-6.37387
11
3.59495
21
-6.373
0
LINE
8
BLACK
6
CONTINUOUS
10
3.59495
20
-6.373
11
3.594
21
-6.37217
0
LINE
8
BLACK
6
CONTINUOUS
10
3.594
20
-6.37217
11
3.59396
21
-6.37204
0
LINE
8
BLACK
6
CONTINUOUS
10
3.59396
20
-6.37204
11
3.59386
21
-6.37194
0
LINE
8
BLACK
6
CONTINUOUS
10
3.59386
20
-6.37194
11
3.59358
21
-6.37072
0
LINE
8
BLACK
6
CONTINUOUS
10
3.59358
20
-6.37072
11
3.59322
21
-6.36952
0
LINE
8
BLACK
6
CONTINUOUS
10
3.59322
20
-6.36952
11
3.59322
21
-6.36389
0
LINE
8
BLACK
6
CONTINUOUS
10
3.59322
20
-6.36389
11
3.59343
21
-6.36249
0
LINE
8
BLACK
6
CONTINUOUS
10
3.59343
20
-6.36249
11
3.59366
21
-6.36212
0
LINE
8
BLACK
6
CONTINUOUS
10
3.59366
20
-6.36212
11
3.59374
21
-6.36169
0
LINE
8
BLACK
6
CONTINUOUS
10
3.59374
20
-6.36169
11
3.59655
21
-6.35607
0
LINE
8
BLACK
6
CONTINUOUS
10
3.59655
20
-6.35607
11
3.5967
21
-6.35586
0
LINE
8
BLACK
6
CONTINUOUS
10
3.5967
20
-6.35586
11
3.59673
21
-6.35575
0
LINE
8
BLACK
6
CONTINUOUS
10
3.59673
20
-6.35575
11
3.59686
21
-6.35563
0
LINE
8
BLACK
6
CONTINUOUS
10
3.59686
20
-6.35563
11
3.59736
21
-6.35491
0
LINE
8
BLACK
6
CONTINUOUS
10
3.59736
20
-6.35491
11
3.59811
21
-6.35446
0
LINE
8
BLACK
6
CONTINUOUS
10
3.59811
20
-6.35446
11
3.59876
21
-6.35387
0
LINE
8
BLACK
6
CONTINUOUS
10
3.59876
20
-6.35387
11
3.60438
21
-6.35105
0
LINE
8
BLACK
6
CONTINUOUS
10
3.60438
20
-6.35105
11
3.60572
21
-6.35061
0
LINE
8
BLACK
6
CONTINUOUS
10
3.60572
20
-6.35061
11
3.60616
21
-6.35066
0
LINE
8
BLACK
6
CONTINUOUS
10
3.60616
20
-6.35066
11
3.60658
21
-6.35053
0
LINE
8
BLACK
6
CONTINUOUS
10
3.60658
20
-6.35053
11
3.61783
21
-6.35053
0
LINE
8
BLACK
6
CONTINUOUS
10
3.61783
20
-6.35053
11
3.61923
21
-6.35074
0
LINE
8
BLACK
6
CONTINUOUS
10
3.60774
20
-6.36038
11
3.60462
21
-6.36194
0
LINE
8
BLACK
6
CONTINUOUS
10
3.60462
20
-6.36194
11
3.60307
21
-6.36505
0
LINE
8
BLACK
6
CONTINUOUS
10
3.60307
20
-6.36505
11
3.60307
21
-6.36548
0
LINE
8
BLACK
6
CONTINUOUS
10
3.60307
20
-6.36548
11
3.62134
21
-6.36914
0
LINE
8
BLACK
6
CONTINUOUS
10
3.62134
20
-6.36914
11
3.62134
21
-6.36505
0
LINE
8
BLACK
6
CONTINUOUS
10
3.62134
20
-6.36505
11
3.61979
21
-6.36194
0
LINE
8
BLACK
6
CONTINUOUS
10
3.61979
20
-6.36194
11
3.61667
21
-6.36038
0
LINE
8
BLACK
6
CONTINUOUS
10
3.61667
20
-6.36038
11
3.60774
21
-6.36038
0
LINE
8
BLACK
6
CONTINUOUS
10
3.41394
20
-6.35074
11
3.41431
21
-6.35098
0
LINE
8
BLACK
6
CONTINUOUS
10
3.41431
20
-6.35098
11
3.41474
21
-6.35105
0
LINE
8
BLACK
6
CONTINUOUS
10
3.41474
20
-6.35105
11
3.42037
21
-6.35387
0
LINE
8
BLACK
6
CONTINUOUS
10
3.42037
20
-6.35387
11
3.42153
21
-6.35467
0
LINE
8
BLACK
6
CONTINUOUS
10
3.42153
20
-6.35467
11
3.42294
21
-6.35706
0
LINE
8
BLACK
6
CONTINUOUS
10
3.42294
20
-6.35706
11
3.42283
21
-6.35983
0
LINE
8
BLACK
6
CONTINUOUS
10
3.42283
20
-6.35983
11
3.42125
21
-6.3621
0
LINE
8
BLACK
6
CONTINUOUS
10
3.42125
20
-6.3621
11
3.41869
21
-6.36316
0
LINE
8
BLACK
6
CONTINUOUS
10
3.41869
20
-6.36316
11
3.41597
21
-6.36267
0
LINE
8
BLACK
6
CONTINUOUS
10
3.41597
20
-6.36267
11
3.41138
21
-6.36038
0
LINE
8
BLACK
6
CONTINUOUS
10
3.41138
20
-6.36038
11
3.40246
21
-6.36038
0
LINE
8
BLACK
6
CONTINUOUS
10
3.40246
20
-6.36038
11
3.39934
21
-6.36194
0
LINE
8
BLACK
6
CONTINUOUS
10
3.39934
20
-6.36194
11
3.39778
21
-6.36505
0
LINE
8
BLACK
6
CONTINUOUS
10
3.39778
20
-6.36505
11
3.39778
21
-6.36647
0
LINE
8
BLACK
6
CONTINUOUS
10
3.39778
20
-6.36647
11
3.39964
21
-6.36741
0
LINE
8
BLACK
6
CONTINUOUS
10
3.39964
20
-6.36741
11
3.41254
21
-6.36741
0
LINE
8
BLACK
6
CONTINUOUS
10
3.41254
20
-6.36741
11
3.41394
21
-6.36761
0
LINE
8
BLACK
6
CONTINUOUS
10
3.41394
20
-6.36761
11
3.41431
21
-6.36785
0
LINE
8
BLACK
6
CONTINUOUS
10
3.41431
20
-6.36785
11
3.41474
21
-6.36793
0
LINE
8
BLACK
6
CONTINUOUS
10
3.41474
20
-6.36793
11
3.42037
21
-6.37074
0
LINE
8
BLACK
6
CONTINUOUS
10
3.42037
20
-6.37074
11
3.42057
21
-6.37088
0
LINE
8
BLACK
6
CONTINUOUS
10
3.42057
20
-6.37088
11
3.42068
21
-6.37091
0
LINE
8
BLACK
6
CONTINUOUS
10
3.42068
20
-6.37091
11
3.4208
21
-6.37104
0
LINE
8
BLACK
6
CONTINUOUS
10
3.4208
20
-6.37104
11
3.42153
21
-6.37155
0
LINE
8
BLACK
6
CONTINUOUS
10
3.42153
20
-6.37155
11
3.42197
21
-6.3723
0
LINE
8
BLACK
6
CONTINUOUS
10
3.42197
20
-6.3723
11
3.42257
21
-6.37294
0
LINE
8
BLACK
6
CONTINUOUS
10
3.42257
20
-6.37294
11
3.42538
21
-6.37856
0
LINE
8
BLACK
6
CONTINUOUS
10
3.42538
20
-6.37856
11
3.42582
21
-6.3799
0
LINE
8
BLACK
6
CONTINUOUS
10
3.42582
20
-6.3799
11
3.42578
21
-6.38034
0
LINE
8
BLACK
6
CONTINUOUS
10
3.42578
20
-6.38034
11
3.4259
21
-6.38076
0
LINE
8
BLACK
6
CONTINUOUS
10
3.4259
20
-6.38076
11
3.4259
21
-6.38639
0
LINE
8
BLACK
6
CONTINUOUS
10
3.4259
20
-6.38639
11
3.4257
21
-6.38779
0
LINE
8
BLACK
6
CONTINUOUS
10
3.4257
20
-6.38779
11
3.42546
21
-6.38816
0
LINE
8
BLACK
6
CONTINUOUS
10
3.42546
20
-6.38816
11
3.42538
21
-6.38859
0
LINE
8
BLACK
6
CONTINUOUS
10
3.42538
20
-6.38859
11
3.42257
21
-6.39421
0
LINE
8
BLACK
6
CONTINUOUS
10
3.42257
20
-6.39421
11
3.42242
21
-6.39442
0
LINE
8
BLACK
6
CONTINUOUS
10
3.42242
20
-6.39442
11
3.4224
21
-6.39453
0
LINE
8
BLACK
6
CONTINUOUS
10
3.4224
20
-6.39453
11
3.42226
21
-6.39465
0
LINE
8
BLACK
6
CONTINUOUS
10
3.42226
20
-6.39465
11
3.42176
21
-6.39537
0
LINE
8
BLACK
6
CONTINUOUS
10
3.42176
20
-6.39537
11
3.42101
21
-6.39582
0
LINE
8
BLACK
6
CONTINUOUS
10
3.42101
20
-6.39582
11
3.42037
21
-6.39642
0
LINE
8
BLACK
6
CONTINUOUS
10
3.42037
20
-6.39642
11
3.41474
21
-6.39923
0
LINE
8
BLACK
6
CONTINUOUS
10
3.41474
20
-6.39923
11
3.4134
21
-6.39967
0
LINE
8
BLACK
6
CONTINUOUS
10
3.4134
20
-6.39967
11
3.41296
21
-6.39962
0
LINE
8
BLACK
6
CONTINUOUS
10
3.41296
20
-6.39962
11
3.41254
21
-6.39975
0
LINE
8
BLACK
6
CONTINUOUS
10
3.41254
20
-6.39975
11
3.39848
21
-6.39975
0
LINE
8
BLACK
6
CONTINUOUS
10
3.39848
20
-6.39975
11
3.39708
21
-6.39954
0
LINE
8
BLACK
6
CONTINUOUS
10
3.39708
20
-6.39954
11
3.39671
21
-6.39931
0
LINE
8
BLACK
6
CONTINUOUS
10
3.39671
20
-6.39931
11
3.39628
21
-6.39923
0
LINE
8
BLACK
6
CONTINUOUS
10
3.39628
20
-6.39923
11
3.39547
21
-6.39882
0
LINE
8
BLACK
6
CONTINUOUS
10
3.39547
20
-6.39882
11
3.39355
21
-6.3997
0
LINE
8
BLACK
6
CONTINUOUS
10
3.39355
20
-6.3997
11
3.39081
21
-6.3993
0
LINE
8
BLACK
6
CONTINUOUS
10
3.39081
20
-6.3993
11
3.38872
21
-6.39748
0
LINE
8
BLACK
6
CONTINUOUS
10
3.38872
20
-6.39748
11
3.38794
21
-6.39483
0
LINE
8
BLACK
6
CONTINUOUS
10
3.38794
20
-6.39483
11
3.38794
21
-6.36389
0
LINE
8
BLACK
6
CONTINUOUS
10
3.38794
20
-6.36389
11
3.38814
21
-6.36249
0
LINE
8
BLACK
6
CONTINUOUS
10
3.38814
20
-6.36249
11
3.38838
21
-6.36212
0
LINE
8
BLACK
6
CONTINUOUS
10
3.38838
20
-6.36212
11
3.38846
21
-6.36169
0
LINE
8
BLACK
6
CONTINUOUS
10
3.38846
20
-6.36169
11
3.39127
21
-6.35607
0
LINE
8
BLACK
6
CONTINUOUS
10
3.39127
20
-6.35607
11
3.39141
21
-6.35586
0
LINE
8
BLACK
6
CONTINUOUS
10
3.39141
20
-6.35586
11
3.39144
21
-6.35575
0
LINE
8
BLACK
6
CONTINUOUS
10
3.39144
20
-6.35575
11
3.39157
21
-6.35563
0
LINE
8
BLACK
6
CONTINUOUS
10
3.39157
20
-6.35563
11
3.39207
21
-6.35491
0
LINE
8
BLACK
6
CONTINUOUS
10
3.39207
20
-6.35491
11
3.39283
21
-6.35446
0
LINE
8
BLACK
6
CONTINUOUS
10
3.39283
20
-6.35446
11
3.39347
21
-6.35387
0
LINE
8
BLACK
6
CONTINUOUS
10
3.39347
20
-6.35387
11
3.39909
21
-6.35105
0
LINE
8
BLACK
6
CONTINUOUS
10
3.39909
20
-6.35105
11
3.40043
21
-6.35061
0
LINE
8
BLACK
6
CONTINUOUS
10
3.40043
20
-6.35061
11
3.40087
21
-6.35066
0
LINE
8
BLACK
6
CONTINUOUS
10
3.40087
20
-6.35066
11
3.40129
21
-6.35053
0
LINE
8
BLACK
6
CONTINUOUS
10
3.40129
20
-6.35053
11
3.41254
21
-6.35053
0
LINE
8
BLACK
6
CONTINUOUS
10
3.41254
20
-6.35053
11
3.41394
21
-6.35074
0
LINE
8
BLACK
6
CONTINUOUS
10
3.39778
20
-6.38897
11
3.39964
21
-6.3899
0
LINE
8
BLACK
6
CONTINUOUS
10
3.39964
20
-6.3899
11
3.41138
21
-6.3899
0
LINE
8
BLACK
6
CONTINUOUS
10
3.41138
20
-6.3899
11
3.4145
21
-6.38835
0
LINE
8
BLACK
6
CONTINUOUS
10
3.4145
20
-6.38835
11
3.41606
21
-6.38523
0
LINE
8
BLACK
6
CONTINUOUS
10
3.41606
20
-6.38523
11
3.41606
21
-6.38193
0
LINE
8
BLACK
6
CONTINUOUS
10
3.41606
20
-6.38193
11
3.4145
21
-6.37881
0
LINE
8
BLACK
6
CONTINUOUS
10
3.4145
20
-6.37881
11
3.41138
21
-6.37725
0
LINE
8
BLACK
6
CONTINUOUS
10
3.41138
20
-6.37725
11
3.39848
21
-6.37725
0
LINE
8
BLACK
6
CONTINUOUS
10
3.39848
20
-6.37725
11
3.39778
21
-6.37715
0
LINE
8
BLACK
6
CONTINUOUS
10
3.39778
20
-6.37715
11
3.39778
21
-6.38897
0
LINE
8
BLACK
6
CONTINUOUS
10
3.08492
20
-6.35074
11
3.08529
21
-6.35098
0
LINE
8
BLACK
6
CONTINUOUS
10
3.08529
20
-6.35098
11
3.08572
21
-6.35105
0
LINE
8
BLACK
6
CONTINUOUS
10
3.08572
20
-6.35105
11
3.09135
21
-6.35387
0
LINE
8
BLACK
6
CONTINUOUS
10
3.09135
20
-6.35387
11
3.09251
21
-6.35467
0
LINE
8
BLACK
6
CONTINUOUS
10
3.09251
20
-6.35467
11
3.09255
21
-6.35475
0
LINE
8
BLACK
6
CONTINUOUS
10
3.09255
20
-6.35475
11
3.09262
21
-6.35479
0
LINE
8
BLACK
6
CONTINUOUS
10
3.09262
20
-6.35479
11
3.09544
21
-6.3576
0
LINE
8
BLACK
6
CONTINUOUS
10
3.09544
20
-6.3576
11
3.09628
21
-6.35873
0
LINE
8
BLACK
6
CONTINUOUS
10
3.09628
20
-6.35873
11
3.0963
21
-6.35882
0
LINE
8
BLACK
6
CONTINUOUS
10
3.0963
20
-6.35882
11
3.09636
21
-6.35888
0
LINE
8
BLACK
6
CONTINUOUS
10
3.09636
20
-6.35888
11
3.09917
21
-6.3645
0
LINE
8
BLACK
6
CONTINUOUS
10
3.09917
20
-6.3645
11
3.09961
21
-6.36584
0
LINE
8
BLACK
6
CONTINUOUS
10
3.09961
20
-6.36584
11
3.09957
21
-6.36628
0
LINE
8
BLACK
6
CONTINUOUS
10
3.09957
20
-6.36628
11
3.09969
21
-6.3667
0
LINE
8
BLACK
6
CONTINUOUS
10
3.09969
20
-6.3667
11
3.09969
21
-6.38358
0
LINE
8
BLACK
6
CONTINUOUS
10
3.09969
20
-6.38358
11
3.09949
21
-6.38497
0
LINE
8
BLACK
6
CONTINUOUS
10
3.09949
20
-6.38497
11
3.09925
21
-6.38534
0
LINE
8
BLACK
6
CONTINUOUS
10
3.09925
20
-6.38534
11
3.09917
21
-6.38578
0
LINE
8
BLACK
6
CONTINUOUS
10
3.09917
20
-6.38578
11
3.09636
21
-6.3914
0
LINE
8
BLACK
6
CONTINUOUS
10
3.09636
20
-6.3914
11
3.09555
21
-6.39256
0
LINE
8
BLACK
6
CONTINUOUS
10
3.09555
20
-6.39256
11
3.09548
21
-6.39261
0
LINE
8
BLACK
6
CONTINUOUS
10
3.09548
20
-6.39261
11
3.09544
21
-6.39268
0
LINE
8
BLACK
6
CONTINUOUS
10
3.09544
20
-6.39268
11
3.09262
21
-6.39549
0
LINE
8
BLACK
6
CONTINUOUS
10
3.09262
20
-6.39549
11
3.09149
21
-6.39634
0
LINE
8
BLACK
6
CONTINUOUS
10
3.09149
20
-6.39634
11
3.09141
21
-6.39636
0
LINE
8
BLACK
6
CONTINUOUS
10
3.09141
20
-6.39636
11
3.09135
21
-6.39642
0
LINE
8
BLACK
6
CONTINUOUS
10
3.09135
20
-6.39642
11
3.08572
21
-6.39923
0
LINE
8
BLACK
6
CONTINUOUS
10
3.08572
20
-6.39923
11
3.08438
21
-6.39967
0
LINE
8
BLACK
6
CONTINUOUS
10
3.08438
20
-6.39967
11
3.08394
21
-6.39962
0
LINE
8
BLACK
6
CONTINUOUS
10
3.08394
20
-6.39962
11
3.08352
21
-6.39975
0
LINE
8
BLACK
6
CONTINUOUS
10
3.08352
20
-6.39975
11
3.07508
21
-6.39975
0
LINE
8
BLACK
6
CONTINUOUS
10
3.07508
20
-6.39975
11
3.07369
21
-6.39954
0
LINE
8
BLACK
6
CONTINUOUS
10
3.07369
20
-6.39954
11
3.07332
21
-6.39931
0
LINE
8
BLACK
6
CONTINUOUS
10
3.07332
20
-6.39931
11
3.07288
21
-6.39923
0
LINE
8
BLACK
6
CONTINUOUS
10
3.07288
20
-6.39923
11
3.06726
21
-6.39642
0
LINE
8
BLACK
6
CONTINUOUS
10
3.06726
20
-6.39642
11
3.0661
21
-6.39561
0
LINE
8
BLACK
6
CONTINUOUS
10
3.0661
20
-6.39561
11
3.06606
21
-6.39553
0
LINE
8
BLACK
6
CONTINUOUS
10
3.06606
20
-6.39553
11
3.06598
21
-6.39549
0
LINE
8
BLACK
6
CONTINUOUS
10
3.06598
20
-6.39549
11
3.06317
21
-6.39268
0
LINE
8
BLACK
6
CONTINUOUS
10
3.06317
20
-6.39268
11
3.06232
21
-6.39155
0
LINE
8
BLACK
6
CONTINUOUS
10
3.06232
20
-6.39155
11
3.0623
21
-6.39147
0
LINE
8
BLACK
6
CONTINUOUS
10
3.0623
20
-6.39147
11
3.06225
21
-6.3914
0
LINE
8
BLACK
6
CONTINUOUS
10
3.06225
20
-6.3914
11
3.05943
21
-6.38578
0
LINE
8
BLACK
6
CONTINUOUS
10
3.05943
20
-6.38578
11
3.05899
21
-6.38444
0
LINE
8
BLACK
6
CONTINUOUS
10
3.05899
20
-6.38444
11
3.05904
21
-6.384
0
LINE
8
BLACK
6
CONTINUOUS
10
3.05904
20
-6.384
11
3.05891
21
-6.38358
0
LINE
8
BLACK
6
CONTINUOUS
10
3.05891
20
-6.38358
11
3.05891
21
-6.3667
0
LINE
8
BLACK
6
CONTINUOUS
10
3.05891
20
-6.3667
11
3.05912
21
-6.36531
0
LINE
8
BLACK
6
CONTINUOUS
10
3.05912
20
-6.36531
11
3.05936
21
-6.36494
0
LINE
8
BLACK
6
CONTINUOUS
10
3.05936
20
-6.36494
11
3.05943
21
-6.3645
0
LINE
8
BLACK
6
CONTINUOUS
10
3.05943
20
-6.3645
11
3.06225
21
-6.35888
0
LINE
8
BLACK
6
CONTINUOUS
10
3.06225
20
-6.35888
11
3.06305
21
-6.35772
0
LINE
8
BLACK
6
CONTINUOUS
10
3.06305
20
-6.35772
11
3.06313
21
-6.35768
0
LINE
8
BLACK
6
CONTINUOUS
10
3.06313
20
-6.35768
11
3.06317
21
-6.3576
0
LINE
8
BLACK
6
CONTINUOUS
10
3.06317
20
-6.3576
11
3.06598
21
-6.35479
0
LINE
8
BLACK
6
CONTINUOUS
10
3.06598
20
-6.35479
11
3.06711
21
-6.35394
0
LINE
8
BLACK
6
CONTINUOUS
10
3.06711
20
-6.35394
11
3.0672
21
-6.35392
0
LINE
8
BLACK
6
CONTINUOUS
10
3.0672
20
-6.35392
11
3.06726
21
-6.35387
0
LINE
8
BLACK
6
CONTINUOUS
10
3.06726
20
-6.35387
11
3.07288
21
-6.35105
0
LINE
8
BLACK
6
CONTINUOUS
10
3.07288
20
-6.35105
11
3.07422
21
-6.35061
0
LINE
8
BLACK
6
CONTINUOUS
10
3.07422
20
-6.35061
11
3.07466
21
-6.35066
0
LINE
8
BLACK
6
CONTINUOUS
10
3.07466
20
-6.35066
11
3.07508
21
-6.35053
0
LINE
8
BLACK
6
CONTINUOUS
10
3.07508
20
-6.35053
11
3.08352
21
-6.35053
0
LINE
8
BLACK
6
CONTINUOUS
10
3.08352
20
-6.35053
11
3.08492
21
-6.35074
0
LINE
8
BLACK
6
CONTINUOUS
10
3.07625
20
-6.36038
11
3.07238
21
-6.36231
0
LINE
8
BLACK
6
CONTINUOUS
10
3.07238
20
-6.36231
11
3.07069
21
-6.364
0
LINE
8
BLACK
6
CONTINUOUS
10
3.07069
20
-6.364
11
3.06876
21
-6.36787
0
LINE
8
BLACK
6
CONTINUOUS
10
3.06876
20
-6.36787
11
3.06876
21
-6.38242
0
LINE
8
BLACK
6
CONTINUOUS
10
3.06876
20
-6.38242
11
3.07069
21
-6.38629
0
LINE
8
BLACK
6
CONTINUOUS
10
3.07069
20
-6.38629
11
3.07238
21
-6.38797
0
LINE
8
BLACK
6
CONTINUOUS
10
3.07238
20
-6.38797
11
3.07625
21
-6.3899
0
LINE
8
BLACK
6
CONTINUOUS
10
3.07625
20
-6.3899
11
3.08236
21
-6.3899
0
LINE
8
BLACK
6
CONTINUOUS
10
3.08236
20
-6.3899
11
3.08623
21
-6.38797
0
LINE
8
BLACK
6
CONTINUOUS
10
3.08623
20
-6.38797
11
3.08791
21
-6.38629
0
LINE
8
BLACK
6
CONTINUOUS
10
3.08791
20
-6.38629
11
3.08985
21
-6.38242
0
LINE
8
BLACK
6
CONTINUOUS
10
3.08985
20
-6.38242
11
3.08985
21
-6.36787
0
LINE
8
BLACK
6
CONTINUOUS
10
3.08985
20
-6.36787
11
3.08791
21
-6.364
0
LINE
8
BLACK
6
CONTINUOUS
10
3.08791
20
-6.364
11
3.08623
21
-6.36231
0
LINE
8
BLACK
6
CONTINUOUS
10
3.08623
20
-6.36231
11
3.08236
21
-6.36038
0
LINE
8
BLACK
6
CONTINUOUS
10
3.08236
20
-6.36038
11
3.07625
21
-6.36038
0
LINE
8
BLACK
6
CONTINUOUS
10
3.12775
20
-6.3313
11
3.12984
21
-6.33311
0
LINE
8
BLACK
6
CONTINUOUS
10
3.12984
20
-6.33311
11
3.13062
21
-6.33577
0
LINE
8
BLACK
6
CONTINUOUS
10
3.13062
20
-6.33577
11
3.13062
21
-6.35053
0
LINE
8
BLACK
6
CONTINUOUS
10
3.13062
20
-6.35053
11
3.13414
21
-6.35053
0
LINE
8
BLACK
6
CONTINUOUS
10
3.13414
20
-6.35053
11
3.13554
21
-6.35074
0
LINE
8
BLACK
6
CONTINUOUS
10
3.13554
20
-6.35074
11
3.13786
21
-6.35224
0
LINE
8
BLACK
6
CONTINUOUS
10
3.13786
20
-6.35224
11
3.13901
21
-6.35476
0
LINE
8
BLACK
6
CONTINUOUS
10
3.13901
20
-6.35476
11
3.13861
21
-6.3575
0
LINE
8
BLACK
6
CONTINUOUS
10
3.13861
20
-6.3575
11
3.1368
21
-6.3596
0
LINE
8
BLACK
6
CONTINUOUS
10
3.1368
20
-6.3596
11
3.13414
21
-6.36038
0
LINE
8
BLACK
6
CONTINUOUS
10
3.13414
20
-6.36038
11
3.13062
21
-6.36038
0
LINE
8
BLACK
6
CONTINUOUS
10
3.13062
20
-6.36038
11
3.13062
21
-6.38639
0
LINE
8
BLACK
6
CONTINUOUS
10
3.13062
20
-6.38639
11
3.13042
21
-6.38779
0
LINE
8
BLACK
6
CONTINUOUS
10
3.13042
20
-6.38779
11
3.13018
21
-6.38816
0
LINE
8
BLACK
6
CONTINUOUS
10
3.13018
20
-6.38816
11
3.1301
21
-6.38859
0
LINE
8
BLACK
6
CONTINUOUS
10
3.1301
20
-6.38859
11
3.12729
21
-6.39421
0
LINE
8
BLACK
6
CONTINUOUS
10
3.12729
20
-6.39421
11
3.12715
21
-6.39442
0
LINE
8
BLACK
6
CONTINUOUS
10
3.12715
20
-6.39442
11
3.12712
21
-6.39453
0
LINE
8
BLACK
6
CONTINUOUS
10
3.12712
20
-6.39453
11
3.12699
21
-6.39465
0
LINE
8
BLACK
6
CONTINUOUS
10
3.12699
20
-6.39465
11
3.12649
21
-6.39537
0
LINE
8
BLACK
6
CONTINUOUS
10
3.12649
20
-6.39537
11
3.12573
21
-6.39582
0
LINE
8
BLACK
6
CONTINUOUS
10
3.12573
20
-6.39582
11
3.12509
21
-6.39642
0
LINE
8
BLACK
6
CONTINUOUS
10
3.12509
20
-6.39642
11
3.11947
21
-6.39923
0
LINE
8
BLACK
6
CONTINUOUS
10
3.11947
20
-6.39923
11
3.11813
21
-6.39967
0
LINE
8
BLACK
6
CONTINUOUS
10
3.11813
20
-6.39967
11
3.11769
21
-6.39962
0
LINE
8
BLACK
6
CONTINUOUS
10
3.11769
20
-6.39962
11
3.11727
21
-6.39975
0
LINE
8
BLACK
6
CONTINUOUS
10
3.11727
20
-6.39975
11
3.11164
21
-6.39975
0
LINE
8
BLACK
6
CONTINUOUS
10
3.11164
20
-6.39975
11
3.11024
21
-6.39954
0
LINE
8
BLACK
6
CONTINUOUS
10
3.11024
20
-6.39954
11
3.10792
21
-6.39804
0
LINE
8
BLACK
6
CONTINUOUS
10
3.10792
20
-6.39804
11
3.10677
21
-6.39552
0
LINE
8
BLACK
6
CONTINUOUS
10
3.10677
20
-6.39552
11
3.10717
21
-6.39278
0
LINE
8
BLACK
6
CONTINUOUS
10
3.10717
20
-6.39278
11
3.10898
21
-6.39068
0
LINE
8
BLACK
6
CONTINUOUS
10
3.10898
20
-6.39068
11
3.11164
21
-6.3899
0
LINE
8
BLACK
6
CONTINUOUS
10
3.11164
20
-6.3899
11
3.1161
21
-6.3899
0
LINE
8
BLACK
6
CONTINUOUS
10
3.1161
20
-6.3899
11
3.11922
21
-6.38835
0
LINE
8
BLACK
6
CONTINUOUS
10
3.11922
20
-6.38835
11
3.12078
21
-6.38523
0
LINE
8
BLACK
6
CONTINUOUS
10
3.12078
20
-6.38523
11
3.12078
21
-6.36038
0
LINE
8
BLACK
6
CONTINUOUS
10
3.12078
20
-6.36038
11
3.11164
21
-6.36038
0
LINE
8
BLACK
6
CONTINUOUS
10
3.11164
20
-6.36038
11
3.11024
21
-6.36017
0
LINE
8
BLACK
6
CONTINUOUS
10
3.11024
20
-6.36017
11
3.10792
21
-6.35867
0
LINE
8
BLACK
6
CONTINUOUS
10
3.10792
20
-6.35867
11
3.10677
21
-6.35615
0
LINE
8
BLACK
6
CONTINUOUS
10
3.10677
20
-6.35615
11
3.10717
21
-6.35341
0
LINE
8
BLACK
6
CONTINUOUS
10
3.10717
20
-6.35341
11
3.10898
21
-6.35131
0
LINE
8
BLACK
6
CONTINUOUS
10
3.10898
20
-6.35131
11
3.11164
21
-6.35053
0
LINE
8
BLACK
6
CONTINUOUS
10
3.11164
20
-6.35053
11
3.12078
21
-6.35053
0
LINE
8
BLACK
6
CONTINUOUS
10
3.12078
20
-6.35053
11
3.12078
21
-6.33577
0
LINE
8
BLACK
6
CONTINUOUS
10
3.12078
20
-6.33577
11
3.12098
21
-6.33437
0
LINE
8
BLACK
6
CONTINUOUS
10
3.12098
20
-6.33437
11
3.12249
21
-6.33205
0
LINE
8
BLACK
6
CONTINUOUS
10
3.12249
20
-6.33205
11
3.12501
21
-6.3309
0
LINE
8
BLACK
6
CONTINUOUS
10
3.12501
20
-6.3309
11
3.12775
21
-6.3313
0
LINE
8
BLACK
6
CONTINUOUS
10
3.26555
20
-6.35098
11
3.26764
21
-6.3528
0
LINE
8
BLACK
6
CONTINUOUS
10
3.26764
20
-6.3528
11
3.26842
21
-6.35546
0
LINE
8
BLACK
6
CONTINUOUS
10
3.26842
20
-6.35546
11
3.26842
21
-6.38639
0
LINE
8
BLACK
6
CONTINUOUS
10
3.26842
20
-6.38639
11
3.26822
21
-6.38779
0
LINE
8
BLACK
6
CONTINUOUS
10
3.26822
20
-6.38779
11
3.26798
21
-6.38816
0
LINE
8
BLACK
6
CONTINUOUS
10
3.26798
20
-6.38816
11
3.2679
21
-6.38859
0
LINE
8
BLACK
6
CONTINUOUS
10
3.2679
20
-6.38859
11
3.26509
21
-6.39421
0
LINE
8
BLACK
6
CONTINUOUS
10
3.26509
20
-6.39421
11
3.26494
21
-6.39442
0
LINE
8
BLACK
6
CONTINUOUS
10
3.26494
20
-6.39442
11
3.26492
21
-6.39453
0
LINE
8
BLACK
6
CONTINUOUS
10
3.26492
20
-6.39453
11
3.26478
21
-6.39465
0
LINE
8
BLACK
6
CONTINUOUS
10
3.26478
20
-6.39465
11
3.26428
21
-6.39537
0
LINE
8
BLACK
6
CONTINUOUS
10
3.26428
20
-6.39537
11
3.26353
21
-6.39582
0
LINE
8
BLACK
6
CONTINUOUS
10
3.26353
20
-6.39582
11
3.26289
21
-6.39642
0
LINE
8
BLACK
6
CONTINUOUS
10
3.26289
20
-6.39642
11
3.25726
21
-6.39923
0
LINE
8
BLACK
6
CONTINUOUS
10
3.25726
20
-6.39923
11
3.25592
21
-6.39967
0
LINE
8
BLACK
6
CONTINUOUS
10
3.25592
20
-6.39967
11
3.25548
21
-6.39962
0
LINE
8
BLACK
6
CONTINUOUS
10
3.25548
20
-6.39962
11
3.25506
21
-6.39975
0
LINE
8
BLACK
6
CONTINUOUS
10
3.25506
20
-6.39975
11
3.24663
21
-6.39975
0
LINE
8
BLACK
6
CONTINUOUS
10
3.24663
20
-6.39975
11
3.24523
21
-6.39954
0
LINE
8
BLACK
6
CONTINUOUS
10
3.24523
20
-6.39954
11
3.24486
21
-6.39931
0
LINE
8
BLACK
6
CONTINUOUS
10
3.24486
20
-6.39931
11
3.24442
21
-6.39923
0
LINE
8
BLACK
6
CONTINUOUS
10
3.24442
20
-6.39923
11
3.24181
21
-6.39792
0
LINE
8
BLACK
6
CONTINUOUS
10
3.24181
20
-6.39792
11
3.2414
21
-6.39855
0
LINE
8
BLACK
6
CONTINUOUS
10
3.2414
20
-6.39855
11
3.23888
21
-6.3997
0
LINE
8
BLACK
6
CONTINUOUS
10
3.23888
20
-6.3997
11
3.23614
21
-6.3993
0
LINE
8
BLACK
6
CONTINUOUS
10
3.23614
20
-6.3993
11
3.23405
21
-6.39748
0
LINE
8
BLACK
6
CONTINUOUS
10
3.23405
20
-6.39748
11
3.23327
21
-6.39483
0
LINE
8
BLACK
6
CONTINUOUS
10
3.23327
20
-6.39483
11
3.23327
21
-6.35546
0
LINE
8
BLACK
6
CONTINUOUS
10
3.23327
20
-6.35546
11
3.23347
21
-6.35406
0
LINE
8
BLACK
6
CONTINUOUS
10
3.23347
20
-6.35406
11
3.23497
21
-6.35173
0
LINE
8
BLACK
6
CONTINUOUS
10
3.23497
20
-6.35173
11
3.2375
21
-6.35058
0
LINE
8
BLACK
6
CONTINUOUS
10
3.2375
20
-6.35058
11
3.24024
21
-6.35098
0
LINE
8
BLACK
6
CONTINUOUS
10
3.24024
20
-6.35098
11
3.24233
21
-6.3528
0
LINE
8
BLACK
6
CONTINUOUS
10
3.24233
20
-6.3528
11
3.24311
21
-6.35546
0
LINE
8
BLACK
6
CONTINUOUS
10
3.24311
20
-6.35546
11
3.24311
21
-6.38716
0
LINE
8
BLACK
6
CONTINUOUS
10
3.24311
20
-6.38716
11
3.24392
21
-6.38797
0
LINE
8
BLACK
6
CONTINUOUS
10
3.24392
20
-6.38797
11
3.24779
21
-6.3899
0
LINE
8
BLACK
6
CONTINUOUS
10
3.24779
20
-6.3899
11
3.2539
21
-6.3899
0
LINE
8
BLACK
6
CONTINUOUS
10
3.2539
20
-6.3899
11
3.25702
21
-6.38835
0
LINE
8
BLACK
6
CONTINUOUS
10
3.25702
20
-6.38835
11
3.25858
21
-6.38523
0
LINE
8
BLACK
6
CONTINUOUS
10
3.25858
20
-6.38523
11
3.25858
21
-6.35546
0
LINE
8
BLACK
6
CONTINUOUS
10
3.25858
20
-6.35546
11
3.25878
21
-6.35406
0
LINE
8
BLACK
6
CONTINUOUS
10
3.25878
20
-6.35406
11
3.26028
21
-6.35173
0
LINE
8
BLACK
6
CONTINUOUS
10
3.26028
20
-6.35173
11
3.2628
21
-6.35058
0
LINE
8
BLACK
6
CONTINUOUS
10
3.2628
20
-6.35058
11
3.26555
21
-6.35098
0
LINE
8
BLACK
6
CONTINUOUS
10
3.17491
20
-6.35074
11
3.17528
21
-6.35098
0
LINE
8
BLACK
6
CONTINUOUS
10
3.17528
20
-6.35098
11
3.17571
21
-6.35105
0
LINE
8
BLACK
6
CONTINUOUS
10
3.17571
20
-6.35105
11
3.18133
21
-6.35387
0
LINE
8
BLACK
6
CONTINUOUS
10
3.18133
20
-6.35387
11
3.18249
21
-6.35467
0
LINE
8
BLACK
6
CONTINUOUS
10
3.18249
20
-6.35467
11
3.1839
21
-6.35706
0
LINE
8
BLACK
6
CONTINUOUS
10
3.1839
20
-6.35706
11
3.1838
21
-6.35983
0
LINE
8
BLACK
6
CONTINUOUS
10
3.1838
20
-6.35983
11
3.18222
21
-6.3621
0
LINE
8
BLACK
6
CONTINUOUS
10
3.18222
20
-6.3621
11
3.17966
21
-6.36316
0
LINE
8
BLACK
6
CONTINUOUS
10
3.17966
20
-6.36316
11
3.17693
21
-6.36267
0
LINE
8
BLACK
6
CONTINUOUS
10
3.17693
20
-6.36267
11
3.17235
21
-6.36038
0
LINE
8
BLACK
6
CONTINUOUS
10
3.17235
20
-6.36038
11
3.16342
21
-6.36038
0
LINE
8
BLACK
6
CONTINUOUS
10
3.16342
20
-6.36038
11
3.1603
21
-6.36194
0
LINE
8
BLACK
6
CONTINUOUS
10
3.1603
20
-6.36194
11
3.15875
21
-6.36505
0
LINE
8
BLACK
6
CONTINUOUS
10
3.15875
20
-6.36505
11
3.15875
21
-6.36647
0
LINE
8
BLACK
6
CONTINUOUS
10
3.15875
20
-6.36647
11
3.16061
21
-6.36741
0
LINE
8
BLACK
6
CONTINUOUS
10
3.16061
20
-6.36741
11
3.17351
21
-6.36741
0
LINE
8
BLACK
6
CONTINUOUS
10
3.17351
20
-6.36741
11
3.17491
21
-6.36761
0
LINE
8
BLACK
6
CONTINUOUS
10
3.17491
20
-6.36761
11
3.17528
21
-6.36785
0
LINE
8
BLACK
6
CONTINUOUS
10
3.17528
20
-6.36785
11
3.17571
21
-6.36793
0
LINE
8
BLACK
6
CONTINUOUS
10
3.17571
20
-6.36793
11
3.18133
21
-6.37074
0
LINE
8
BLACK
6
CONTINUOUS
10
3.18133
20
-6.37074
11
3.18154
21
-6.37088
0
LINE
8
BLACK
6
CONTINUOUS
10
3.18154
20
-6.37088
11
3.18165
21
-6.37091
0
LINE
8
BLACK
6
CONTINUOUS
10
3.18165
20
-6.37091
11
3.18177
21
-6.37104
0
LINE
8
BLACK
6
CONTINUOUS
10
3.18177
20
-6.37104
11
3.18249
21
-6.37155
0
LINE
8
BLACK
6
CONTINUOUS
10
3.18249
20
-6.37155
11
3.18294
21
-6.3723
0
LINE
8
BLACK
6
CONTINUOUS
10
3.18294
20
-6.3723
11
3.18354
21
-6.37294
0
LINE
8
BLACK
6
CONTINUOUS
10
3.18354
20
-6.37294
11
3.18635
21
-6.37856
0
LINE
8
BLACK
6
CONTINUOUS
10
3.18635
20
-6.37856
11
3.18679
21
-6.3799
0
LINE
8
BLACK
6
CONTINUOUS
10
3.18679
20
-6.3799
11
3.18674
21
-6.38034
0
LINE
8
BLACK
6
CONTINUOUS
10
3.18674
20
-6.38034
11
3.18687
21
-6.38076
0
LINE
8
BLACK
6
CONTINUOUS
10
3.18687
20
-6.38076
11
3.18687
21
-6.38639
0
LINE
8
BLACK
6
CONTINUOUS
10
3.18687
20
-6.38639
11
3.18666
21
-6.38779
0
LINE
8
BLACK
6
CONTINUOUS
10
3.18666
20
-6.38779
11
3.18643
21
-6.38816
0
LINE
8
BLACK
6
CONTINUOUS
10
3.18643
20
-6.38816
11
3.18635
21
-6.38859
0
LINE
8
BLACK
6
CONTINUOUS
10
3.18635
20
-6.38859
11
3.18354
21
-6.39421
0
LINE
8
BLACK
6
CONTINUOUS
10
3.18354
20
-6.39421
11
3.18339
21
-6.39442
0
LINE
8
BLACK
6
CONTINUOUS
10
3.18339
20
-6.39442
11
3.18336
21
-6.39453
0
LINE
8
BLACK
6
CONTINUOUS
10
3.18336
20
-6.39453
11
3.18323
21
-6.39465
0
LINE
8
BLACK
6
CONTINUOUS
10
3.18323
20
-6.39465
11
3.18273
21
-6.39537
0
LINE
8
BLACK
6
CONTINUOUS
10
3.18273
20
-6.39537
11
3.18198
21
-6.39582
0
LINE
8
BLACK
6
CONTINUOUS
10
3.18198
20
-6.39582
11
3.18133
21
-6.39642
0
LINE
8
BLACK
6
CONTINUOUS
10
3.18133
20
-6.39642
11
3.17571
21
-6.39923
0
LINE
8
BLACK
6
CONTINUOUS
10
3.17571
20
-6.39923
11
3.17437
21
-6.39967
0
LINE
8
BLACK
6
CONTINUOUS
10
3.17437
20
-6.39967
11
3.17393
21
-6.39962
0
LINE
8
BLACK
6
CONTINUOUS
10
3.17393
20
-6.39962
11
3.17351
21
-6.39975
0
LINE
8
BLACK
6
CONTINUOUS
10
3.17351
20
-6.39975
11
3.15945
21
-6.39975
0
LINE
8
BLACK
6
CONTINUOUS
10
3.15945
20
-6.39975
11
3.15805
21
-6.39954
0
LINE
8
BLACK
6
CONTINUOUS
10
3.15805
20
-6.39954
11
3.15768
21
-6.39931
0
LINE
8
BLACK
6
CONTINUOUS
10
3.15768
20
-6.39931
11
3.15725
21
-6.39923
0
LINE
8
BLACK
6
CONTINUOUS
10
3.15725
20
-6.39923
11
3.15644
21
-6.39882
0
LINE
8
BLACK
6
CONTINUOUS
10
3.15644
20
-6.39882
11
3.15452
21
-6.3997
0
LINE
8
BLACK
6
CONTINUOUS
10
3.15452
20
-6.3997
11
3.15178
21
-6.3993
0
LINE
8
BLACK
6
CONTINUOUS
10
3.15178
20
-6.3993
11
3.14968
21
-6.39748
0
LINE
8
BLACK
6
CONTINUOUS
10
3.14968
20
-6.39748
11
3.1489
21
-6.39483
0
LINE
8
BLACK
6
CONTINUOUS
10
3.1489
20
-6.39483
11
3.1489
21
-6.36389
0
LINE
8
BLACK
6
CONTINUOUS
10
3.1489
20
-6.36389
11
3.14911
21
-6.36249
0
LINE
8
BLACK
6
CONTINUOUS
10
3.14911
20
-6.36249
11
3.14934
21
-6.36212
0
LINE
8
BLACK
6
CONTINUOUS
10
3.14934
20
-6.36212
11
3.14942
21
-6.36169
0
LINE
8
BLACK
6
CONTINUOUS
10
3.14942
20
-6.36169
11
3.15223
21
-6.35607
0
LINE
8
BLACK
6
CONTINUOUS
10
3.15223
20
-6.35607
11
3.15238
21
-6.35586
0
LINE
8
BLACK
6
CONTINUOUS
10
3.15238
20
-6.35586
11
3.15241
21
-6.35575
0
LINE
8
BLACK
6
CONTINUOUS
10
3.15241
20
-6.35575
11
3.15254
21
-6.35563
0
LINE
8
BLACK
6
CONTINUOUS
10
3.15254
20
-6.35563
11
3.15304
21
-6.35491
0
LINE
8
BLACK
6
CONTINUOUS
10
3.15304
20
-6.35491
11
3.15379
21
-6.35446
0
LINE
8
BLACK
6
CONTINUOUS
10
3.15379
20
-6.35446
11
3.15444
21
-6.35387
0
LINE
8
BLACK
6
CONTINUOUS
10
3.15444
20
-6.35387
11
3.16006
21
-6.35105
0
LINE
8
BLACK
6
CONTINUOUS
10
3.16006
20
-6.35105
11
3.1614
21
-6.35061
0
LINE
8
BLACK
6
CONTINUOUS
10
3.1614
20
-6.35061
11
3.16184
21
-6.35066
0
LINE
8
BLACK
6
CONTINUOUS
10
3.16184
20
-6.35066
11
3.16226
21
-6.35053
0
LINE
8
BLACK
6
CONTINUOUS
10
3.16226
20
-6.35053
11
3.17351
21
-6.35053
0
LINE
8
BLACK
6
CONTINUOUS
10
3.17351
20
-6.35053
11
3.17491
21
-6.35074
0
LINE
8
BLACK
6
CONTINUOUS
10
3.15875
20
-6.38897
11
3.16061
21
-6.3899
0
LINE
8
BLACK
6
CONTINUOUS
10
3.16061
20
-6.3899
11
3.17235
21
-6.3899
0
LINE
8
BLACK
6
CONTINUOUS
10
3.17235
20
-6.3899
11
3.17547
21
-6.38835
0
LINE
8
BLACK
6
CONTINUOUS
10
3.17547
20
-6.38835
11
3.17702
21
-6.38523
0
LINE
8
BLACK
6
CONTINUOUS
10
3.17702
20
-6.38523
11
3.17702
21
-6.38193
0
LINE
8
BLACK
6
CONTINUOUS
10
3.17702
20
-6.38193
11
3.17547
21
-6.37881
0
LINE
8
BLACK
6
CONTINUOUS
10
3.17547
20
-6.37881
11
3.17235
21
-6.37725
0
LINE
8
BLACK
6
CONTINUOUS
10
3.17235
20
-6.37725
11
3.15945
21
-6.37725
0
LINE
8
BLACK
6
CONTINUOUS
10
3.15945
20
-6.37725
11
3.15875
21
-6.37715
0
LINE
8
BLACK
6
CONTINUOUS
10
3.15875
20
-6.37715
11
3.15875
21
-6.38897
0
LINE
8
BLACK
6
CONTINUOUS
10
3.5208
20
-6.33105
11
3.52117
21
-6.33129
0
LINE
8
BLACK
6
CONTINUOUS
10
3.52117
20
-6.33129
11
3.5216
21
-6.33137
0
LINE
8
BLACK
6
CONTINUOUS
10
3.5216
20
-6.33137
11
3.52723
21
-6.33418
0
LINE
8
BLACK
6
CONTINUOUS
10
3.52723
20
-6.33418
11
3.52839
21
-6.33499
0
LINE
8
BLACK
6
CONTINUOUS
10
3.52839
20
-6.33499
11
3.52843
21
-6.33506
0
LINE
8
BLACK
6
CONTINUOUS
10
3.52843
20
-6.33506
11
3.52851
21
-6.3351
0
LINE
8
BLACK
6
CONTINUOUS
10
3.52851
20
-6.3351
11
3.53132
21
-6.33791
0
LINE
8
BLACK
6
CONTINUOUS
10
3.53132
20
-6.33791
11
3.53217
21
-6.33905
0
LINE
8
BLACK
6
CONTINUOUS
10
3.53217
20
-6.33905
11
3.53218
21
-6.33913
0
LINE
8
BLACK
6
CONTINUOUS
10
3.53218
20
-6.33913
11
3.53224
21
-6.33919
0
LINE
8
BLACK
6
CONTINUOUS
10
3.53224
20
-6.33919
11
3.53505
21
-6.34482
0
LINE
8
BLACK
6
CONTINUOUS
10
3.53505
20
-6.34482
11
3.5355
21
-6.34616
0
LINE
8
BLACK
6
CONTINUOUS
10
3.5355
20
-6.34616
11
3.53545
21
-6.3466
0
LINE
8
BLACK
6
CONTINUOUS
10
3.53545
20
-6.3466
11
3.53557
21
-6.34702
0
LINE
8
BLACK
6
CONTINUOUS
10
3.53557
20
-6.34702
11
3.53557
21
-6.35264
0
LINE
8
BLACK
6
CONTINUOUS
10
3.53557
20
-6.35264
11
3.53537
21
-6.35404
0
LINE
8
BLACK
6
CONTINUOUS
10
3.53537
20
-6.35404
11
3.53513
21
-6.35441
0
LINE
8
BLACK
6
CONTINUOUS
10
3.53513
20
-6.35441
11
3.53505
21
-6.35484
0
LINE
8
BLACK
6
CONTINUOUS
10
3.53505
20
-6.35484
11
3.53224
21
-6.36047
0
LINE
8
BLACK
6
CONTINUOUS
10
3.53224
20
-6.36047
11
3.53144
21
-6.36163
0
LINE
8
BLACK
6
CONTINUOUS
10
3.53144
20
-6.36163
11
3.53136
21
-6.36167
0
LINE
8
BLACK
6
CONTINUOUS
10
3.53136
20
-6.36167
11
3.53132
21
-6.36175
0
LINE
8
BLACK
6
CONTINUOUS
10
3.53132
20
-6.36175
11
3.52851
21
-6.36456
0
LINE
8
BLACK
6
CONTINUOUS
10
3.52851
20
-6.36456
11
3.52738
21
-6.3654
0
LINE
8
BLACK
6
CONTINUOUS
10
3.52738
20
-6.3654
11
3.52729
21
-6.36542
0
LINE
8
BLACK
6
CONTINUOUS
10
3.52729
20
-6.36542
11
3.52723
21
-6.36548
0
LINE
8
BLACK
6
CONTINUOUS
10
3.52723
20
-6.36548
11
3.5216
21
-6.36829
0
LINE
8
BLACK
6
CONTINUOUS
10
3.5216
20
-6.36829
11
3.52075
21
-6.36858
0
LINE
8
BLACK
6
CONTINUOUS
10
3.52075
20
-6.36858
11
3.5206
21
-6.36867
0
LINE
8
BLACK
6
CONTINUOUS
10
3.5206
20
-6.36867
11
3.50987
21
-6.37135
0
LINE
8
BLACK
6
CONTINUOUS
10
3.50987
20
-6.37135
11
3.50545
21
-6.37356
0
LINE
8
BLACK
6
CONTINUOUS
10
3.50545
20
-6.37356
11
3.50376
21
-6.37524
0
LINE
8
BLACK
6
CONTINUOUS
10
3.50376
20
-6.37524
11
3.50183
21
-6.37911
0
LINE
8
BLACK
6
CONTINUOUS
10
3.50183
20
-6.37911
11
3.50183
21
-6.38242
0
LINE
8
BLACK
6
CONTINUOUS
10
3.50183
20
-6.38242
11
3.50376
21
-6.38629
0
LINE
8
BLACK
6
CONTINUOUS
10
3.50376
20
-6.38629
11
3.50545
21
-6.38797
0
LINE
8
BLACK
6
CONTINUOUS
10
3.50545
20
-6.38797
11
3.50932
21
-6.3899
0
LINE
8
BLACK
6
CONTINUOUS
10
3.50932
20
-6.3899
11
3.52142
21
-6.3899
0
LINE
8
BLACK
6
CONTINUOUS
10
3.52142
20
-6.3899
11
3.5291
21
-6.38734
0
LINE
8
BLACK
6
CONTINUOUS
10
3.5291
20
-6.38734
11
3.53049
21
-6.3871
0
LINE
8
BLACK
6
CONTINUOUS
10
3.53049
20
-6.3871
11
3.53317
21
-6.38778
0
LINE
8
BLACK
6
CONTINUOUS
10
3.53317
20
-6.38778
11
3.53506
21
-6.38981
0
LINE
8
BLACK
6
CONTINUOUS
10
3.53506
20
-6.38981
11
3.53555
21
-6.39254
0
LINE
8
BLACK
6
CONTINUOUS
10
3.53555
20
-6.39254
11
3.53448
21
-6.3951
0
LINE
8
BLACK
6
CONTINUOUS
10
3.53448
20
-6.3951
11
3.53221
21
-6.39668
0
LINE
8
BLACK
6
CONTINUOUS
10
3.53221
20
-6.39668
11
3.52377
21
-6.39949
0
LINE
8
BLACK
6
CONTINUOUS
10
3.52377
20
-6.39949
11
3.52238
21
-6.39974
0
LINE
8
BLACK
6
CONTINUOUS
10
3.52238
20
-6.39974
11
3.5223
21
-6.39972
0
LINE
8
BLACK
6
CONTINUOUS
10
3.5223
20
-6.39972
11
3.52222
21
-6.39975
0
LINE
8
BLACK
6
CONTINUOUS
10
3.52222
20
-6.39975
11
3.50816
21
-6.39975
0
LINE
8
BLACK
6
CONTINUOUS
10
3.50816
20
-6.39975
11
3.50676
21
-6.39954
0
LINE
8
BLACK
6
CONTINUOUS
10
3.50676
20
-6.39954
11
3.50639
21
-6.39931
0
LINE
8
BLACK
6
CONTINUOUS
10
3.50639
20
-6.39931
11
3.50595
21
-6.39923
0
LINE
8
BLACK
6
CONTINUOUS
10
3.50595
20
-6.39923
11
3.50033
21
-6.39642
0
LINE
8
BLACK
6
CONTINUOUS
10
3.50033
20
-6.39642
11
3.49917
21
-6.39561
0
LINE
8
BLACK
6
CONTINUOUS
10
3.49917
20
-6.39561
11
3.49913
21
-6.39553
0
LINE
8
BLACK
6
CONTINUOUS
10
3.49913
20
-6.39553
11
3.49905
21
-6.39549
0
LINE
8
BLACK
6
CONTINUOUS
10
3.49905
20
-6.39549
11
3.49624
21
-6.39268
0
LINE
8
BLACK
6
CONTINUOUS
10
3.49624
20
-6.39268
11
3.49539
21
-6.39155
0
LINE
8
BLACK
6
CONTINUOUS
10
3.49539
20
-6.39155
11
3.49538
21
-6.39147
0
LINE
8
BLACK
6
CONTINUOUS
10
3.49538
20
-6.39147
11
3.49532
21
-6.3914
0
LINE
8
BLACK
6
CONTINUOUS
10
3.49532
20
-6.3914
11
3.4925
21
-6.38578
0
LINE
8
BLACK
6
CONTINUOUS
10
3.4925
20
-6.38578
11
3.49206
21
-6.38444
0
LINE
8
BLACK
6
CONTINUOUS
10
3.49206
20
-6.38444
11
3.49211
21
-6.384
0
LINE
8
BLACK
6
CONTINUOUS
10
3.49211
20
-6.384
11
3.49199
21
-6.38358
0
LINE
8
BLACK
6
CONTINUOUS
10
3.49199
20
-6.38358
11
3.49199
21
-6.37795
0
LINE
8
BLACK
6
CONTINUOUS
10
3.49199
20
-6.37795
11
3.49219
21
-6.37656
0
LINE
8
BLACK
6
CONTINUOUS
10
3.49219
20
-6.37656
11
3.49243
21
-6.37619
0
LINE
8
BLACK
6
CONTINUOUS
10
3.49243
20
-6.37619
11
3.4925
21
-6.37575
0
LINE
8
BLACK
6
CONTINUOUS
10
3.4925
20
-6.37575
11
3.49532
21
-6.37013
0
LINE
8
BLACK
6
CONTINUOUS
10
3.49532
20
-6.37013
11
3.49612
21
-6.36897
0
LINE
8
BLACK
6
CONTINUOUS
10
3.49612
20
-6.36897
11
3.4962
21
-6.36892
0
LINE
8
BLACK
6
CONTINUOUS
10
3.4962
20
-6.36892
11
3.49624
21
-6.36885
0
LINE
8
BLACK
6
CONTINUOUS
10
3.49624
20
-6.36885
11
3.49905
21
-6.36604
0
LINE
8
BLACK
6
CONTINUOUS
10
3.49905
20
-6.36604
11
3.50018
21
-6.36519
0
LINE
8
BLACK
6
CONTINUOUS
10
3.50018
20
-6.36519
11
3.50027
21
-6.36517
0
LINE
8
BLACK
6
CONTINUOUS
10
3.50027
20
-6.36517
11
3.50033
21
-6.36511
0
LINE
8
BLACK
6
CONTINUOUS
10
3.50033
20
-6.36511
11
3.50595
21
-6.3623
0
LINE
8
BLACK
6
CONTINUOUS
10
3.50595
20
-6.3623
11
3.50681
21
-6.36202
0
LINE
8
BLACK
6
CONTINUOUS
10
3.50681
20
-6.36202
11
3.50696
21
-6.36193
0
LINE
8
BLACK
6
CONTINUOUS
10
3.50696
20
-6.36193
11
3.51769
21
-6.35925
0
LINE
8
BLACK
6
CONTINUOUS
10
3.51769
20
-6.35925
11
3.52211
21
-6.35704
0
LINE
8
BLACK
6
CONTINUOUS
10
3.52211
20
-6.35704
11
3.5238
21
-6.35535
0
LINE
8
BLACK
6
CONTINUOUS
10
3.5238
20
-6.35535
11
3.52573
21
-6.35148
0
LINE
8
BLACK
6
CONTINUOUS
10
3.52573
20
-6.35148
11
3.52573
21
-6.34818
0
LINE
8
BLACK
6
CONTINUOUS
10
3.52573
20
-6.34818
11
3.5238
21
-6.34431
0
LINE
8
BLACK
6
CONTINUOUS
10
3.5238
20
-6.34431
11
3.52211
21
-6.34263
0
LINE
8
BLACK
6
CONTINUOUS
10
3.52211
20
-6.34263
11
3.51824
21
-6.34069
0
LINE
8
BLACK
6
CONTINUOUS
10
3.51824
20
-6.34069
11
3.50614
21
-6.34069
0
LINE
8
BLACK
6
CONTINUOUS
10
3.50614
20
-6.34069
11
3.49846
21
-6.34325
0
LINE
8
BLACK
6
CONTINUOUS
10
3.49846
20
-6.34325
11
3.49707
21
-6.3435
0
LINE
8
BLACK
6
CONTINUOUS
10
3.49707
20
-6.3435
11
3.49439
21
-6.34281
0
LINE
8
BLACK
6
CONTINUOUS
10
3.49439
20
-6.34281
11
3.4925
21
-6.34078
0
LINE
8
BLACK
6
CONTINUOUS
10
3.4925
20
-6.34078
11
3.49201
21
-6.33805
0
LINE
8
BLACK
6
CONTINUOUS
10
3.49201
20
-6.33805
11
3.49307
21
-6.33549
0
LINE
8
BLACK
6
CONTINUOUS
10
3.49307
20
-6.33549
11
3.49535
21
-6.33391
0
LINE
8
BLACK
6
CONTINUOUS
10
3.49535
20
-6.33391
11
3.50379
21
-6.3311
0
LINE
8
BLACK
6
CONTINUOUS
10
3.50379
20
-6.3311
11
3.50518
21
-6.33085
0
LINE
8
BLACK
6
CONTINUOUS
10
3.50518
20
-6.33085
11
3.50526
21
-6.33087
0
LINE
8
BLACK
6
CONTINUOUS
10
3.50526
20
-6.33087
11
3.50534
21
-6.33085
0
LINE
8
BLACK
6
CONTINUOUS
10
3.50534
20
-6.33085
11
3.5194
21
-6.33085
0
LINE
8
BLACK
6
CONTINUOUS
10
3.5194
20
-6.33085
11
3.5208
21
-6.33105
0
LINE
8
BLACK
6
CONTINUOUS
10
3.31335
20
-6.3313
11
3.31545
21
-6.33311
0
LINE
8
BLACK
6
CONTINUOUS
10
3.31545
20
-6.33311
11
3.31623
21
-6.33577
0
LINE
8
BLACK
6
CONTINUOUS
10
3.31623
20
-6.33577
11
3.31623
21
-6.39483
0
LINE
8
BLACK
6
CONTINUOUS
10
3.31623
20
-6.39483
11
3.31602
21
-6.39622
0
LINE
8
BLACK
6
CONTINUOUS
10
3.31602
20
-6.39622
11
3.31452
21
-6.39855
0
LINE
8
BLACK
6
CONTINUOUS
10
3.31452
20
-6.39855
11
3.312
21
-6.3997
0
LINE
8
BLACK
6
CONTINUOUS
10
3.312
20
-6.3997
11
3.30926
21
-6.3993
0
LINE
8
BLACK
6
CONTINUOUS
10
3.30926
20
-6.3993
11
3.30716
21
-6.39748
0
LINE
8
BLACK
6
CONTINUOUS
10
3.30716
20
-6.39748
11
3.30638
21
-6.39483
0
LINE
8
BLACK
6
CONTINUOUS
10
3.30638
20
-6.39483
11
3.30638
21
-6.37999
0
LINE
8
BLACK
6
CONTINUOUS
10
3.30638
20
-6.37999
11
3.30621
21
-6.37982
0
LINE
8
BLACK
6
CONTINUOUS
10
3.30621
20
-6.37982
11
3.29274
21
-6.39778
0
LINE
8
BLACK
6
CONTINUOUS
10
3.29274
20
-6.39778
11
3.29174
21
-6.39877
0
LINE
8
BLACK
6
CONTINUOUS
10
3.29174
20
-6.39877
11
3.28914
21
-6.39974
0
LINE
8
BLACK
6
CONTINUOUS
10
3.28914
20
-6.39974
11
3.28644
21
-6.39914
0
LINE
8
BLACK
6
CONTINUOUS
10
3.28644
20
-6.39914
11
3.28448
21
-6.39718
0
LINE
8
BLACK
6
CONTINUOUS
10
3.28448
20
-6.39718
11
3.2839
21
-6.39447
0
LINE
8
BLACK
6
CONTINUOUS
10
3.2839
20
-6.39447
11
3.28487
21
-6.39187
0
LINE
8
BLACK
6
CONTINUOUS
10
3.28487
20
-6.39187
11
3.29918
21
-6.37279
0
LINE
8
BLACK
6
CONTINUOUS
10
3.29918
20
-6.37279
11
3.28533
21
-6.35894
0
LINE
8
BLACK
6
CONTINUOUS
10
3.28533
20
-6.35894
11
3.28448
21
-6.3578
0
LINE
8
BLACK
6
CONTINUOUS
10
3.28448
20
-6.3578
11
3.2839
21
-6.3551
0
LINE
8
BLACK
6
CONTINUOUS
10
3.2839
20
-6.3551
11
3.28487
21
-6.3525
0
LINE
8
BLACK
6
CONTINUOUS
10
3.28487
20
-6.3525
11
3.28709
21
-6.35084
0
LINE
8
BLACK
6
CONTINUOUS
10
3.28709
20
-6.35084
11
3.28986
21
-6.35065
0
LINE
8
BLACK
6
CONTINUOUS
10
3.28986
20
-6.35065
11
3.29229
21
-6.35198
0
LINE
8
BLACK
6
CONTINUOUS
10
3.29229
20
-6.35198
11
3.30638
21
-6.36607
0
LINE
8
BLACK
6
CONTINUOUS
10
3.30638
20
-6.36607
11
3.30638
21
-6.33577
0
LINE
8
BLACK
6
CONTINUOUS
10
3.30638
20
-6.33577
11
3.30659
21
-6.33437
0
LINE
8
BLACK
6
CONTINUOUS
10
3.30659
20
-6.33437
11
3.30809
21
-6.33205
0
LINE
8
BLACK
6
CONTINUOUS
10
3.30809
20
-6.33205
11
3.31061
21
-6.3309
0
LINE
8
BLACK
6
CONTINUOUS
10
3.31061
20
-6.3309
11
3.31335
21
-6.3313
0
LINE
8
BLACK
6
CONTINUOUS
10
3.73171
20
-6.33105
11
3.73404
21
-6.33255
0
LINE
8
BLACK
6
CONTINUOUS
10
3.73404
20
-6.33255
11
3.73519
21
-6.33508
0
LINE
8
BLACK
6
CONTINUOUS
10
3.73519
20
-6.33508
11
3.73479
21
-6.33782
0
LINE
8
BLACK
6
CONTINUOUS
10
3.73479
20
-6.33782
11
3.73297
21
-6.33991
0
LINE
8
BLACK
6
CONTINUOUS
10
3.73297
20
-6.33991
11
3.73031
21
-6.34069
0
LINE
8
BLACK
6
CONTINUOUS
10
3.73031
20
-6.34069
11
3.71836
21
-6.34069
0
LINE
8
BLACK
6
CONTINUOUS
10
3.71836
20
-6.34069
11
3.71836
21
-6.39483
0
LINE
8
BLACK
6
CONTINUOUS
10
3.71836
20
-6.39483
11
3.71816
21
-6.39622
0
LINE
8
BLACK
6
CONTINUOUS
10
3.71816
20
-6.39622
11
3.71666
21
-6.39855
0
LINE
8
BLACK
6
CONTINUOUS
10
3.71666
20
-6.39855
11
3.71414
21
-6.3997
0
LINE
8
BLACK
6
CONTINUOUS
10
3.71414
20
-6.3997
11
3.71139
21
-6.3993
0
LINE
8
BLACK
6
CONTINUOUS
10
3.71139
20
-6.3993
11
3.7093
21
-6.39748
0
LINE
8
BLACK
6
CONTINUOUS
10
3.7093
20
-6.39748
11
3.70852
21
-6.39483
0
LINE
8
BLACK
6
CONTINUOUS
10
3.70852
20
-6.39483
11
3.70852
21
-6.34069
0
LINE
8
BLACK
6
CONTINUOUS
10
3.70852
20
-6.34069
11
3.69657
21
-6.34069
0
LINE
8
BLACK
6
CONTINUOUS
10
3.69657
20
-6.34069
11
3.69517
21
-6.34049
0
LINE
8
BLACK
6
CONTINUOUS
10
3.69517
20
-6.34049
11
3.69284
21
-6.33899
0
LINE
8
BLACK
6
CONTINUOUS
10
3.69284
20
-6.33899
11
3.6917
21
-6.33646
0
LINE
8
BLACK
6
CONTINUOUS
10
3.6917
20
-6.33646
11
3.69209
21
-6.33372
0
LINE
8
BLACK
6
CONTINUOUS
10
3.69209
20
-6.33372
11
3.69391
21
-6.33163
0
LINE
8
BLACK
6
CONTINUOUS
10
3.69391
20
-6.33163
11
3.69657
21
-6.33085
0
LINE
8
BLACK
6
CONTINUOUS
10
3.69657
20
-6.33085
11
3.73031
21
-6.33085
0
LINE
8
BLACK
6
CONTINUOUS
10
3.73031
20
-6.33085
11
3.73171
21
-6.33105
0
LINE
8
BLACK
6
CONTINUOUS
10
3.67893
20
-6.3313
11
3.68103
21
-6.33311
0
LINE
8
BLACK
6
CONTINUOUS
10
3.68103
20
-6.33311
11
3.68181
21
-6.33577
0
LINE
8
BLACK
6
CONTINUOUS
10
3.68181
20
-6.33577
11
3.68181
21
-6.39483
0
LINE
8
BLACK
6
CONTINUOUS
10
3.68181
20
-6.39483
11
3.6816
21
-6.39622
0
LINE
8
BLACK
6
CONTINUOUS
10
3.6816
20
-6.39622
11
3.6801
21
-6.39855
0
LINE
8
BLACK
6
CONTINUOUS
10
3.6801
20
-6.39855
11
3.67758
21
-6.3997
0
LINE
8
BLACK
6
CONTINUOUS
10
3.67758
20
-6.3997
11
3.67484
21
-6.3993
0
LINE
8
BLACK
6
CONTINUOUS
10
3.67484
20
-6.3993
11
3.67274
21
-6.39748
0
LINE
8
BLACK
6
CONTINUOUS
10
3.67274
20
-6.39748
11
3.67196
21
-6.39483
0
LINE
8
BLACK
6
CONTINUOUS
10
3.67196
20
-6.39483
11
3.67196
21
-6.36312
0
LINE
8
BLACK
6
CONTINUOUS
10
3.67196
20
-6.36312
11
3.67116
21
-6.36231
0
LINE
8
BLACK
6
CONTINUOUS
10
3.67116
20
-6.36231
11
3.66729
21
-6.36038
0
LINE
8
BLACK
6
CONTINUOUS
10
3.66729
20
-6.36038
11
3.66117
21
-6.36038
0
LINE
8
BLACK
6
CONTINUOUS
10
3.66117
20
-6.36038
11
3.65806
21
-6.36194
0
LINE
8
BLACK
6
CONTINUOUS
10
3.65806
20
-6.36194
11
3.6565
21
-6.36505
0
LINE
8
BLACK
6
CONTINUOUS
10
3.6565
20
-6.36505
11
3.6565
21
-6.39483
0
LINE
8
BLACK
6
CONTINUOUS
10
3.6565
20
-6.39483
11
3.65629
21
-6.39622
0
LINE
8
BLACK
6
CONTINUOUS
10
3.65629
20
-6.39622
11
3.65479
21
-6.39855
0
LINE
8
BLACK
6
CONTINUOUS
10
3.65479
20
-6.39855
11
3.65227
21
-6.3997
0
LINE
8
BLACK
6
CONTINUOUS
10
3.65227
20
-6.3997
11
3.64953
21
-6.3993
0
LINE
8
BLACK
6
CONTINUOUS
10
3.64953
20
-6.3993
11
3.64743
21
-6.39748
0
LINE
8
BLACK
6
CONTINUOUS
10
3.64743
20
-6.39748
11
3.64665
21
-6.39483
0
LINE
8
BLACK
6
CONTINUOUS
10
3.64665
20
-6.39483
11
3.64665
21
-6.36389
0
LINE
8
BLACK
6
CONTINUOUS
10
3.64665
20
-6.36389
11
3.64686
21
-6.36249
0
LINE
8
BLACK
6
CONTINUOUS
10
3.64686
20
-6.36249
11
3.64709
21
-6.36212
0
LINE
8
BLACK
6
CONTINUOUS
10
3.64709
20
-6.36212
11
3.64717
21
-6.36169
0
LINE
8
BLACK
6
CONTINUOUS
10
3.64717
20
-6.36169
11
3.64999
21
-6.35607
0
LINE
8
BLACK
6
CONTINUOUS
10
3.64999
20
-6.35607
11
3.65013
21
-6.35586
0
LINE
8
BLACK
6
CONTINUOUS
10
3.65013
20
-6.35586
11
3.65016
21
-6.35575
0
LINE
8
BLACK
6
CONTINUOUS
10
3.65016
20
-6.35575
11
3.65029
21
-6.35563
0
LINE
8
BLACK
6
CONTINUOUS
10
3.65029
20
-6.35563
11
3.65079
21
-6.35491
0
LINE
8
BLACK
6
CONTINUOUS
10
3.65079
20
-6.35491
11
3.65155
21
-6.35446
0
LINE
8
BLACK
6
CONTINUOUS
10
3.65155
20
-6.35446
11
3.65219
21
-6.35387
0
LINE
8
BLACK
6
CONTINUOUS
10
3.65219
20
-6.35387
11
3.65781
21
-6.35105
0
LINE
8
BLACK
6
CONTINUOUS
10
3.65781
20
-6.35105
11
3.65915
21
-6.35061
0
LINE
8
BLACK
6
CONTINUOUS
10
3.65915
20
-6.35061
11
3.65959
21
-6.35066
0
LINE
8
BLACK
6
CONTINUOUS
10
3.65959
20
-6.35066
11
3.66001
21
-6.35053
0
LINE
8
BLACK
6
CONTINUOUS
10
3.66001
20
-6.35053
11
3.66845
21
-6.35053
0
LINE
8
BLACK
6
CONTINUOUS
10
3.66845
20
-6.35053
11
3.66985
21
-6.35074
0
LINE
8
BLACK
6
CONTINUOUS
10
3.66985
20
-6.35074
11
3.67022
21
-6.35098
0
LINE
8
BLACK
6
CONTINUOUS
10
3.67022
20
-6.35098
11
3.67065
21
-6.35105
0
LINE
8
BLACK
6
CONTINUOUS
10
3.67065
20
-6.35105
11
3.67196
21
-6.35171
0
LINE
8
BLACK
6
CONTINUOUS
10
3.67196
20
-6.35171
11
3.67196
21
-6.33577
0
LINE
8
BLACK
6
CONTINUOUS
10
3.67196
20
-6.33577
11
3.67217
21
-6.33437
0
LINE
8
BLACK
6
CONTINUOUS
10
3.67217
20
-6.33437
11
3.67367
21
-6.33205
0
LINE
8
BLACK
6
CONTINUOUS
10
3.67367
20
-6.33205
11
3.67619
21
-6.3309
0
LINE
8
BLACK
6
CONTINUOUS
10
3.67619
20
-6.3309
11
3.67893
21
-6.3313
0
LINE
8
BLACK
6
CONTINUOUS
10
3.3577
20
-6.35074
11
3.35807
21
-6.35098
0
LINE
8
BLACK
6
CONTINUOUS
10
3.35807
20
-6.35098
11
3.3585
21
-6.35105
0
LINE
8
BLACK
6
CONTINUOUS
10
3.3585
20
-6.35105
11
3.36111
21
-6.35236
0
LINE
8
BLACK
6
CONTINUOUS
10
3.36111
20
-6.35236
11
3.36152
21
-6.35173
0
LINE
8
BLACK
6
CONTINUOUS
10
3.36152
20
-6.35173
11
3.36404
21
-6.35058
0
LINE
8
BLACK
6
CONTINUOUS
10
3.36404
20
-6.35058
11
3.36678
21
-6.35098
0
LINE
8
BLACK
6
CONTINUOUS
10
3.36678
20
-6.35098
11
3.36888
21
-6.3528
0
LINE
8
BLACK
6
CONTINUOUS
10
3.36888
20
-6.3528
11
3.36966
21
-6.35546
0
LINE
8
BLACK
6
CONTINUOUS
10
3.36966
20
-6.35546
11
3.36966
21
-6.39483
0
LINE
8
BLACK
6
CONTINUOUS
10
3.36966
20
-6.39483
11
3.36945
21
-6.39622
0
LINE
8
BLACK
6
CONTINUOUS
10
3.36945
20
-6.39622
11
3.36795
21
-6.39855
0
LINE
8
BLACK
6
CONTINUOUS
10
3.36795
20
-6.39855
11
3.36543
21
-6.3997
0
LINE
8
BLACK
6
CONTINUOUS
10
3.36543
20
-6.3997
11
3.36269
21
-6.3993
0
LINE
8
BLACK
6
CONTINUOUS
10
3.36269
20
-6.3993
11
3.36059
21
-6.39748
0
LINE
8
BLACK
6
CONTINUOUS
10
3.36059
20
-6.39748
11
3.35981
21
-6.39483
0
LINE
8
BLACK
6
CONTINUOUS
10
3.35981
20
-6.39483
11
3.35981
21
-6.36312
0
LINE
8
BLACK
6
CONTINUOUS
10
3.35981
20
-6.36312
11
3.35901
21
-6.36231
0
LINE
8
BLACK
6
CONTINUOUS
10
3.35901
20
-6.36231
11
3.35514
21
-6.36038
0
LINE
8
BLACK
6
CONTINUOUS
10
3.35514
20
-6.36038
11
3.34902
21
-6.36038
0
LINE
8
BLACK
6
CONTINUOUS
10
3.34902
20
-6.36038
11
3.34591
21
-6.36194
0
LINE
8
BLACK
6
CONTINUOUS
10
3.34591
20
-6.36194
11
3.34435
21
-6.36505
0
LINE
8
BLACK
6
CONTINUOUS
10
3.34435
20
-6.36505
11
3.34435
21
-6.39483
0
LINE
8
BLACK
6
CONTINUOUS
10
3.34435
20
-6.39483
11
3.34414
21
-6.39622
0
LINE
8
BLACK
6
CONTINUOUS
10
3.34414
20
-6.39622
11
3.34264
21
-6.39855
0
LINE
8
BLACK
6
CONTINUOUS
10
3.34264
20
-6.39855
11
3.34012
21
-6.3997
0
LINE
8
BLACK
6
CONTINUOUS
10
3.34012
20
-6.3997
11
3.33738
21
-6.3993
0
LINE
8
BLACK
6
CONTINUOUS
10
3.33738
20
-6.3993
11
3.33528
21
-6.39748
0
LINE
8
BLACK
6
CONTINUOUS
10
3.33528
20
-6.39748
11
3.33451
21
-6.39483
0
LINE
8
BLACK
6
CONTINUOUS
10
3.33451
20
-6.39483
11
3.33451
21
-6.36389
0
LINE
8
BLACK
6
CONTINUOUS
10
3.33451
20
-6.36389
11
3.33471
21
-6.36249
0
LINE
8
BLACK
6
CONTINUOUS
10
3.33471
20
-6.36249
11
3.33495
21
-6.36212
0
LINE
8
BLACK
6
CONTINUOUS
10
3.33495
20
-6.36212
11
3.33502
21
-6.36169
0
LINE
8
BLACK
6
CONTINUOUS
10
3.33502
20
-6.36169
11
3.33784
21
-6.35607
0
LINE
8
BLACK
6
CONTINUOUS
10
3.33784
20
-6.35607
11
3.33798
21
-6.35586
0
LINE
8
BLACK
6
CONTINUOUS
10
3.33798
20
-6.35586
11
3.33801
21
-6.35575
0
LINE
8
BLACK
6
CONTINUOUS
10
3.33801
20
-6.35575
11
3.33814
21
-6.35563
0
LINE
8
BLACK
6
CONTINUOUS
10
3.33814
20
-6.35563
11
3.33864
21
-6.35491
0
LINE
8
BLACK
6
CONTINUOUS
10
3.33864
20
-6.35491
11
3.3394
21
-6.35446
0
LINE
8
BLACK
6
CONTINUOUS
10
3.3394
20
-6.35446
11
3.34004
21
-6.35387
0
LINE
8
BLACK
6
CONTINUOUS
10
3.34004
20
-6.35387
11
3.34566
21
-6.35105
0
LINE
8
BLACK
6
CONTINUOUS
10
3.34566
20
-6.35105
11
3.347
21
-6.35061
0
LINE
8
BLACK
6
CONTINUOUS
10
3.347
20
-6.35061
11
3.34744
21
-6.35066
0
LINE
8
BLACK
6
CONTINUOUS
10
3.34744
20
-6.35066
11
3.34786
21
-6.35053
0
LINE
8
BLACK
6
CONTINUOUS
10
3.34786
20
-6.35053
11
3.3563
21
-6.35053
0
LINE
8
BLACK
6
CONTINUOUS
10
3.3563
20
-6.35053
11
3.3577
21
-6.35074
0
LINE
8
BLACK
6
CONTINUOUS
10
3.02868
20
-6.35074
11
3.02905
21
-6.35098
0
LINE
8
BLACK
6
CONTINUOUS
10
3.02905
20
-6.35098
11
3.02948
21
-6.35105
0
LINE
8
BLACK
6
CONTINUOUS
10
3.02948
20
-6.35105
11
3.03422
21
-6.35342
0
LINE
8
BLACK
6
CONTINUOUS
10
3.03422
20
-6.35342
11
3.03531
21
-6.35173
0
LINE
8
BLACK
6
CONTINUOUS
10
3.03531
20
-6.35173
11
3.03783
21
-6.35058
0
LINE
8
BLACK
6
CONTINUOUS
10
3.03783
20
-6.35058
11
3.04058
21
-6.35098
0
LINE
8
BLACK
6
CONTINUOUS
10
3.04058
20
-6.35098
11
3.04267
21
-6.3528
0
LINE
8
BLACK
6
CONTINUOUS
10
3.04267
20
-6.3528
11
3.04345
21
-6.35546
0
LINE
8
BLACK
6
CONTINUOUS
10
3.04345
20
-6.35546
11
3.04345
21
-6.39483
0
LINE
8
BLACK
6
CONTINUOUS
10
3.04345
20
-6.39483
11
3.04324
21
-6.39622
0
LINE
8
BLACK
6
CONTINUOUS
10
3.04324
20
-6.39622
11
3.04174
21
-6.39855
0
LINE
8
BLACK
6
CONTINUOUS
10
3.04174
20
-6.39855
11
3.03922
21
-6.3997
0
LINE
8
BLACK
6
CONTINUOUS
10
3.03922
20
-6.3997
11
3.03648
21
-6.3993
0
LINE
8
BLACK
6
CONTINUOUS
10
3.03648
20
-6.3993
11
3.03439
21
-6.39748
0
LINE
8
BLACK
6
CONTINUOUS
10
3.03439
20
-6.39748
11
3.03361
21
-6.39483
0
LINE
8
BLACK
6
CONTINUOUS
10
3.03361
20
-6.39483
11
3.03361
21
-6.36787
0
LINE
8
BLACK
6
CONTINUOUS
10
3.03361
20
-6.36787
11
3.03167
21
-6.364
0
LINE
8
BLACK
6
CONTINUOUS
10
3.03167
20
-6.364
11
3.02999
21
-6.36231
0
LINE
8
BLACK
6
CONTINUOUS
10
3.02999
20
-6.36231
11
3.02612
21
-6.36038
0
LINE
8
BLACK
6
CONTINUOUS
10
3.02612
20
-6.36038
11
3.02165
21
-6.36038
0
LINE
8
BLACK
6
CONTINUOUS
10
3.02165
20
-6.36038
11
3.02026
21
-6.36017
0
LINE
8
BLACK
6
CONTINUOUS
10
3.02026
20
-6.36017
11
3.01793
21
-6.35867
0
LINE
8
BLACK
6
CONTINUOUS
10
3.01793
20
-6.35867
11
3.01678
21
-6.35615
0
LINE
8
BLACK
6
CONTINUOUS
10
3.01678
20
-6.35615
11
3.01718
21
-6.35341
0
LINE
8
BLACK
6
CONTINUOUS
10
3.01718
20
-6.35341
11
3.01899
21
-6.35131
0
LINE
8
BLACK
6
CONTINUOUS
10
3.01899
20
-6.35131
11
3.02165
21
-6.35053
0
LINE
8
BLACK
6
CONTINUOUS
10
3.02165
20
-6.35053
11
3.02728
21
-6.35053
0
LINE
8
BLACK
6
CONTINUOUS
10
3.02728
20
-6.35053
11
3.02868
21
-6.35074
0
LINE
8
BLACK
6
CONTINUOUS
10
3.21212
20
-6.3313
11
3.21421
21
-6.33311
0
LINE
8
BLACK
6
CONTINUOUS
10
3.21421
20
-6.33311
11
3.21499
21
-6.33577
0
LINE
8
BLACK
6
CONTINUOUS
10
3.21499
20
-6.33577
11
3.21499
21
-6.38639
0
LINE
8
BLACK
6
CONTINUOUS
10
3.21499
20
-6.38639
11
3.21479
21
-6.38779
0
LINE
8
BLACK
6
CONTINUOUS
10
3.21479
20
-6.38779
11
3.21455
21
-6.38816
0
LINE
8
BLACK
6
CONTINUOUS
10
3.21455
20
-6.38816
11
3.21447
21
-6.38859
0
LINE
8
BLACK
6
CONTINUOUS
10
3.21447
20
-6.38859
11
3.21166
21
-6.39421
0
LINE
8
BLACK
6
CONTINUOUS
10
3.21166
20
-6.39421
11
3.21151
21
-6.39442
0
LINE
8
BLACK
6
CONTINUOUS
10
3.21151
20
-6.39442
11
3.21149
21
-6.39453
0
LINE
8
BLACK
6
CONTINUOUS
10
3.21149
20
-6.39453
11
3.21135
21
-6.39465
0
LINE
8
BLACK
6
CONTINUOUS
10
3.21135
20
-6.39465
11
3.21085
21
-6.39537
0
LINE
8
BLACK
6
CONTINUOUS
10
3.21085
20
-6.39537
11
3.2101
21
-6.39582
0
LINE
8
BLACK
6
CONTINUOUS
10
3.2101
20
-6.39582
11
3.20946
21
-6.39642
0
LINE
8
BLACK
6
CONTINUOUS
10
3.20946
20
-6.39642
11
3.20383
21
-6.39923
0
LINE
8
BLACK
6
CONTINUOUS
10
3.20383
20
-6.39923
11
3.20249
21
-6.39967
0
LINE
8
BLACK
6
CONTINUOUS
10
3.20249
20
-6.39967
11
3.19974
21
-6.39937
0
LINE
8
BLACK
6
CONTINUOUS
10
3.19974
20
-6.39937
11
3.19758
21
-6.39762
0
LINE
8
BLACK
6
CONTINUOUS
10
3.19758
20
-6.39762
11
3.19671
21
-6.39499
0
LINE
8
BLACK
6
CONTINUOUS
10
3.19671
20
-6.39499
11
3.1974
21
-6.39231
0
LINE
8
BLACK
6
CONTINUOUS
10
3.1974
20
-6.39231
11
3.19943
21
-6.39042
0
LINE
8
BLACK
6
CONTINUOUS
10
3.19943
20
-6.39042
11
3.20359
21
-6.38835
0
LINE
8
BLACK
6
CONTINUOUS
10
3.20359
20
-6.38835
11
3.20515
21
-6.38523
0
LINE
8
BLACK
6
CONTINUOUS
10
3.20515
20
-6.38523
11
3.20515
21
-6.33577
0
LINE
8
BLACK
6
CONTINUOUS
10
3.20515
20
-6.33577
11
3.20535
21
-6.33437
0
LINE
8
BLACK
6
CONTINUOUS
10
3.20535
20
-6.33437
11
3.20685
21
-6.33205
0
LINE
8
BLACK
6
CONTINUOUS
10
3.20685
20
-6.33205
11
3.20937
21
-6.3309
0
LINE
8
BLACK
6
CONTINUOUS
10
3.20937
20
-6.3309
11
3.21212
21
-6.3313
0
LINE
8
BLACK
6
CONTINUOUS
10
3.74924
20
-6.3313
11
3.75133
21
-6.33311
0
LINE
8
BLACK
6
CONTINUOUS
10
3.75133
20
-6.33311
11
3.75211
21
-6.33577
0
LINE
8
BLACK
6
CONTINUOUS
10
3.75211
20
-6.33577
11
3.75211
21
-6.34702
0
LINE
8
BLACK
6
CONTINUOUS
10
3.75211
20
-6.34702
11
3.75191
21
-6.34842
0
LINE
8
BLACK
6
CONTINUOUS
10
3.75191
20
-6.34842
11
3.7504
21
-6.35074
0
LINE
8
BLACK
6
CONTINUOUS
10
3.7504
20
-6.35074
11
3.74788
21
-6.35189
0
LINE
8
BLACK
6
CONTINUOUS
10
3.74788
20
-6.35189
11
3.74514
21
-6.35149
0
LINE
8
BLACK
6
CONTINUOUS
10
3.74514
20
-6.35149
11
3.74305
21
-6.34968
0
LINE
8
BLACK
6
CONTINUOUS
10
3.74305
20
-6.34968
11
3.74227
21
-6.34702
0
LINE
8
BLACK
6
CONTINUOUS
10
3.74227
20
-6.34702
11
3.74227
21
-6.33577
0
LINE
8
BLACK
6
CONTINUOUS
10
3.74227
20
-6.33577
11
3.74247
21
-6.33437
0
LINE
8
BLACK
6
CONTINUOUS
10
3.74247
20
-6.33437
11
3.74397
21
-6.33205
0
LINE
8
BLACK
6
CONTINUOUS
10
3.74397
20
-6.33205
11
3.74649
21
-6.3309
0
LINE
8
BLACK
6
CONTINUOUS
10
3.74649
20
-6.3309
11
3.74924
21
-6.3313
0
LINE
8
BLACK
6
CONTINUOUS
10
3.77173
20
-6.3313
11
3.77383
21
-6.33311
0
LINE
8
BLACK
6
CONTINUOUS
10
3.77383
20
-6.33311
11
3.77461
21
-6.33577
0
LINE
8
BLACK
6
CONTINUOUS
10
3.77461
20
-6.33577
11
3.77461
21
-6.34702
0
LINE
8
BLACK
6
CONTINUOUS
10
3.77461
20
-6.34702
11
3.7744
21
-6.34842
0
LINE
8
BLACK
6
CONTINUOUS
10
3.7744
20
-6.34842
11
3.7729
21
-6.35074
0
LINE
8
BLACK
6
CONTINUOUS
10
3.7729
20
-6.35074
11
3.77038
21
-6.35189
0
LINE
8
BLACK
6
CONTINUOUS
10
3.77038
20
-6.35189
11
3.76764
21
-6.35149
0
LINE
8
BLACK
6
CONTINUOUS
10
3.76764
20
-6.35149
11
3.76554
21
-6.34968
0
LINE
8
BLACK
6
CONTINUOUS
10
3.76554
20
-6.34968
11
3.76476
21
-6.34702
0
LINE
8
BLACK
6
CONTINUOUS
10
3.76476
20
-6.34702
11
3.76476
21
-6.33577
0
LINE
8
BLACK
6
CONTINUOUS
10
3.76476
20
-6.33577
11
3.76497
21
-6.33437
0
LINE
8
BLACK
6
CONTINUOUS
10
3.76497
20
-6.33437
11
3.76647
21
-6.33205
0
LINE
8
BLACK
6
CONTINUOUS
10
3.76647
20
-6.33205
11
3.76899
21
-6.3309
0
LINE
8
BLACK
6
CONTINUOUS
10
3.76899
20
-6.3309
11
3.77173
21
-6.3313
0
LINE
8
BLACK
6
CONTINUOUS
10
2.98433
20
-6.3313
11
2.98642
21
-6.33311
0
LINE
8
BLACK
6
CONTINUOUS
10
2.98642
20
-6.33311
11
2.9872
21
-6.33577
0
LINE
8
BLACK
6
CONTINUOUS
10
2.9872
20
-6.33577
11
2.9872
21
-6.34702
0
LINE
8
BLACK
6
CONTINUOUS
10
2.9872
20
-6.34702
11
2.987
21
-6.34842
0
LINE
8
BLACK
6
CONTINUOUS
10
2.987
20
-6.34842
11
2.9855
21
-6.35074
0
LINE
8
BLACK
6
CONTINUOUS
10
2.9855
20
-6.35074
11
2.98298
21
-6.35189
0
LINE
8
BLACK
6
CONTINUOUS
10
2.98298
20
-6.35189
11
2.98023
21
-6.35149
0
LINE
8
BLACK
6
CONTINUOUS
10
2.98023
20
-6.35149
11
2.97814
21
-6.34968
0
LINE
8
BLACK
6
CONTINUOUS
10
2.97814
20
-6.34968
11
2.97736
21
-6.34702
0
LINE
8
BLACK
6
CONTINUOUS
10
2.97736
20
-6.34702
11
2.97736
21
-6.33577
0
LINE
8
BLACK
6
CONTINUOUS
10
2.97736
20
-6.33577
11
2.97756
21
-6.33437
0
LINE
8
BLACK
6
CONTINUOUS
10
2.97756
20
-6.33437
11
2.97907
21
-6.33205
0
LINE
8
BLACK
6
CONTINUOUS
10
2.97907
20
-6.33205
11
2.98159
21
-6.3309
0
LINE
8
BLACK
6
CONTINUOUS
10
2.98159
20
-6.3309
11
2.98433
21
-6.3313
0
LINE
8
BLACK
6
CONTINUOUS
10
3.00683
20
-6.3313
11
3.00892
21
-6.33311
0
LINE
8
BLACK
6
CONTINUOUS
10
3.00892
20
-6.33311
11
3.0097
21
-6.33577
0
LINE
8
BLACK
6
CONTINUOUS
10
3.0097
20
-6.33577
11
3.0097
21
-6.34702
0
LINE
8
BLACK
6
CONTINUOUS
10
3.0097
20
-6.34702
11
3.0095
21
-6.34842
0
LINE
8
BLACK
6
CONTINUOUS
10
3.0095
20
-6.34842
11
3.008
21
-6.35074
0
LINE
8
BLACK
6
CONTINUOUS
10
3.008
20
-6.35074
11
3.00547
21
-6.35189
0
LINE
8
BLACK
6
CONTINUOUS
10
3.00547
20
-6.35189
11
3.00273
21
-6.35149
0
LINE
8
BLACK
6
CONTINUOUS
10
3.00273
20
-6.35149
11
3.00064
21
-6.34968
0
LINE
8
BLACK
6
CONTINUOUS
10
3.00064
20
-6.34968
11
2.99986
21
-6.34702
0
LINE
8
BLACK
6
CONTINUOUS
10
2.99986
20
-6.34702
11
2.99986
21
-6.33577
0
LINE
8
BLACK
6
CONTINUOUS
10
2.99986
20
-6.33577
11
3.00006
21
-6.33437
0
LINE
8
BLACK
6
CONTINUOUS
10
3.00006
20
-6.33437
11
3.00156
21
-6.33205
0
LINE
8
BLACK
6
CONTINUOUS
10
3.00156
20
-6.33205
11
3.00409
21
-6.3309
0
LINE
8
BLACK
6
CONTINUOUS
10
3.00409
20
-6.3309
11
3.00683
21
-6.3313
0
LINE
8
BLACK
6
CONTINUOUS
10
3.55455
20
-6.25566
11
3.55492
21
-6.2559
0
LINE
8
BLACK
6
CONTINUOUS
10
3.55492
20
-6.2559
11
3.55535
21
-6.25598
0
LINE
8
BLACK
6
CONTINUOUS
10
3.55535
20
-6.25598
11
3.56097
21
-6.25879
0
LINE
8
BLACK
6
CONTINUOUS
10
3.56097
20
-6.25879
11
3.56118
21
-6.25893
0
LINE
8
BLACK
6
CONTINUOUS
10
3.56118
20
-6.25893
11
3.56129
21
-6.25896
0
LINE
8
BLACK
6
CONTINUOUS
10
3.56129
20
-6.25896
11
3.56141
21
-6.25909
0
LINE
8
BLACK
6
CONTINUOUS
10
3.56141
20
-6.25909
11
3.56213
21
-6.25959
0
LINE
8
BLACK
6
CONTINUOUS
10
3.56213
20
-6.25959
11
3.56258
21
-6.26035
0
LINE
8
BLACK
6
CONTINUOUS
10
3.56258
20
-6.26035
11
3.56318
21
-6.26099
0
LINE
8
BLACK
6
CONTINUOUS
10
3.56318
20
-6.26099
11
3.56599
21
-6.26661
0
LINE
8
BLACK
6
CONTINUOUS
10
3.56599
20
-6.26661
11
3.56643
21
-6.26795
0
LINE
8
BLACK
6
CONTINUOUS
10
3.56643
20
-6.26795
11
3.56638
21
-6.26839
0
LINE
8
BLACK
6
CONTINUOUS
10
3.56638
20
-6.26839
11
3.56651
21
-6.26881
0
LINE
8
BLACK
6
CONTINUOUS
10
3.56651
20
-6.26881
11
3.56651
21
-6.29131
0
LINE
8
BLACK
6
CONTINUOUS
10
3.56651
20
-6.29131
11
3.5663
21
-6.29271
0
LINE
8
BLACK
6
CONTINUOUS
10
3.5663
20
-6.29271
11
3.56607
21
-6.29308
0
LINE
8
BLACK
6
CONTINUOUS
10
3.56607
20
-6.29308
11
3.56599
21
-6.29351
0
LINE
8
BLACK
6
CONTINUOUS
10
3.56599
20
-6.29351
11
3.56318
21
-6.29914
0
LINE
8
BLACK
6
CONTINUOUS
10
3.56318
20
-6.29914
11
3.56303
21
-6.29934
0
LINE
8
BLACK
6
CONTINUOUS
10
3.56303
20
-6.29934
11
3.563
21
-6.29945
0
LINE
8
BLACK
6
CONTINUOUS
10
3.563
20
-6.29945
11
3.56287
21
-6.29957
0
LINE
8
BLACK
6
CONTINUOUS
10
3.56287
20
-6.29957
11
3.56237
21
-6.3003
0
LINE
8
BLACK
6
CONTINUOUS
10
3.56237
20
-6.3003
11
3.56162
21
-6.30074
0
LINE
8
BLACK
6
CONTINUOUS
10
3.56162
20
-6.30074
11
3.56097
21
-6.30134
0
LINE
8
BLACK
6
CONTINUOUS
10
3.56097
20
-6.30134
11
3.55535
21
-6.30415
0
LINE
8
BLACK
6
CONTINUOUS
10
3.55535
20
-6.30415
11
3.55401
21
-6.30459
0
LINE
8
BLACK
6
CONTINUOUS
10
3.55401
20
-6.30459
11
3.55357
21
-6.30454
0
LINE
8
BLACK
6
CONTINUOUS
10
3.55357
20
-6.30454
11
3.55315
21
-6.30467
0
LINE
8
BLACK
6
CONTINUOUS
10
3.55315
20
-6.30467
11
3.5419
21
-6.30467
0
LINE
8
BLACK
6
CONTINUOUS
10
3.5419
20
-6.30467
11
3.5405
21
-6.30447
0
LINE
8
BLACK
6
CONTINUOUS
10
3.5405
20
-6.30447
11
3.54013
21
-6.30423
0
LINE
8
BLACK
6
CONTINUOUS
10
3.54013
20
-6.30423
11
3.5397
21
-6.30415
0
LINE
8
BLACK
6
CONTINUOUS
10
3.5397
20
-6.30415
11
3.53408
21
-6.30134
0
LINE
8
BLACK
6
CONTINUOUS
10
3.53408
20
-6.30134
11
3.53292
21
-6.30053
0
LINE
8
BLACK
6
CONTINUOUS
10
3.53292
20
-6.30053
11
3.53151
21
-6.29814
0
LINE
8
BLACK
6
CONTINUOUS
10
3.53151
20
-6.29814
11
3.53161
21
-6.29538
0
LINE
8
BLACK
6
CONTINUOUS
10
3.53161
20
-6.29538
11
3.53319
21
-6.2931
0
LINE
8
BLACK
6
CONTINUOUS
10
3.53319
20
-6.2931
11
3.53575
21
-6.29204
0
LINE
8
BLACK
6
CONTINUOUS
10
3.53575
20
-6.29204
11
3.53848
21
-6.29253
0
LINE
8
BLACK
6
CONTINUOUS
10
3.53848
20
-6.29253
11
3.54306
21
-6.29483
0
LINE
8
BLACK
6
CONTINUOUS
10
3.54306
20
-6.29483
11
3.55199
21
-6.29483
0
LINE
8
BLACK
6
CONTINUOUS
10
3.55199
20
-6.29483
11
3.55511
21
-6.29327
0
LINE
8
BLACK
6
CONTINUOUS
10
3.55511
20
-6.29327
11
3.55666
21
-6.29015
0
LINE
8
BLACK
6
CONTINUOUS
10
3.55666
20
-6.29015
11
3.55666
21
-6.2841
0
LINE
8
BLACK
6
CONTINUOUS
10
3.55666
20
-6.2841
11
3.5325
21
-6.27926
0
LINE
8
BLACK
6
CONTINUOUS
10
3.5325
20
-6.27926
11
3.53158
21
-6.27894
0
LINE
8
BLACK
6
CONTINUOUS
10
3.53158
20
-6.27894
11
3.53142
21
-6.27891
0
LINE
8
BLACK
6
CONTINUOUS
10
3.53142
20
-6.27891
11
3.53135
21
-6.27885
0
LINE
8
BLACK
6
CONTINUOUS
10
3.53135
20
-6.27885
11
3.53117
21
-6.27879
0
LINE
8
BLACK
6
CONTINUOUS
10
3.53117
20
-6.27879
11
3.53027
21
-6.27792
0
LINE
8
BLACK
6
CONTINUOUS
10
3.53027
20
-6.27792
11
3.52932
21
-6.2771
0
LINE
8
BLACK
6
CONTINUOUS
10
3.52932
20
-6.2771
11
3.52928
21
-6.27696
0
LINE
8
BLACK
6
CONTINUOUS
10
3.52928
20
-6.27696
11
3.52918
21
-6.27686
0
LINE
8
BLACK
6
CONTINUOUS
10
3.52918
20
-6.27686
11
3.5289
21
-6.27564
0
LINE
8
BLACK
6
CONTINUOUS
10
3.5289
20
-6.27564
11
3.52854
21
-6.27444
0
LINE
8
BLACK
6
CONTINUOUS
10
3.52854
20
-6.27444
11
3.52854
21
-6.26881
0
LINE
8
BLACK
6
CONTINUOUS
10
3.52854
20
-6.26881
11
3.52875
21
-6.26742
0
LINE
8
BLACK
6
CONTINUOUS
10
3.52875
20
-6.26742
11
3.52898
21
-6.26705
0
LINE
8
BLACK
6
CONTINUOUS
10
3.52898
20
-6.26705
11
3.52906
21
-6.26661
0
LINE
8
BLACK
6
CONTINUOUS
10
3.52906
20
-6.26661
11
3.53187
21
-6.26099
0
LINE
8
BLACK
6
CONTINUOUS
10
3.53187
20
-6.26099
11
3.53202
21
-6.26078
0
LINE
8
BLACK
6
CONTINUOUS
10
3.53202
20
-6.26078
11
3.53205
21
-6.26067
0
LINE
8
BLACK
6
CONTINUOUS
10
3.53205
20
-6.26067
11
3.53218
21
-6.26055
0
LINE
8
BLACK
6
CONTINUOUS
10
3.53218
20
-6.26055
11
3.53268
21
-6.25983
0
LINE
8
BLACK
6
CONTINUOUS
10
3.53268
20
-6.25983
11
3.53343
21
-6.25938
0
LINE
8
BLACK
6
CONTINUOUS
10
3.53343
20
-6.25938
11
3.53408
21
-6.25879
0
LINE
8
BLACK
6
CONTINUOUS
10
3.53408
20
-6.25879
11
3.5397
21
-6.25598
0
LINE
8
BLACK
6
CONTINUOUS
10
3.5397
20
-6.25598
11
3.54104
21
-6.25553
0
LINE
8
BLACK
6
CONTINUOUS
10
3.54104
20
-6.25553
11
3.54148
21
-6.25558
0
LINE
8
BLACK
6
CONTINUOUS
10
3.54148
20
-6.25558
11
3.5419
21
-6.25546
0
LINE
8
BLACK
6
CONTINUOUS
10
3.5419
20
-6.25546
11
3.55315
21
-6.25546
0
LINE
8
BLACK
6
CONTINUOUS
10
3.55315
20
-6.25546
11
3.55455
21
-6.25566
0
LINE
8
BLACK
6
CONTINUOUS
10
3.54306
20
-6.2653
11
3.53994
21
-6.26686
0
LINE
8
BLACK
6
CONTINUOUS
10
3.53994
20
-6.26686
11
3.53839
21
-6.26998
0
LINE
8
BLACK
6
CONTINUOUS
10
3.53839
20
-6.26998
11
3.53839
21
-6.2704
0
LINE
8
BLACK
6
CONTINUOUS
10
3.53839
20
-6.2704
11
3.55666
21
-6.27406
0
LINE
8
BLACK
6
CONTINUOUS
10
3.55666
20
-6.27406
11
3.55666
21
-6.26997
0
LINE
8
BLACK
6
CONTINUOUS
10
3.55666
20
-6.26997
11
3.55511
21
-6.26686
0
LINE
8
BLACK
6
CONTINUOUS
10
3.55511
20
-6.26686
11
3.55199
21
-6.2653
0
LINE
8
BLACK
6
CONTINUOUS
10
3.55199
20
-6.2653
11
3.54306
21
-6.2653
0
LINE
8
BLACK
6
CONTINUOUS
10
3.3127
20
-6.25566
11
3.31307
21
-6.2559
0
LINE
8
BLACK
6
CONTINUOUS
10
3.31307
20
-6.2559
11
3.31351
21
-6.25598
0
LINE
8
BLACK
6
CONTINUOUS
10
3.31351
20
-6.25598
11
3.31913
21
-6.25879
0
LINE
8
BLACK
6
CONTINUOUS
10
3.31913
20
-6.25879
11
3.31934
21
-6.25893
0
LINE
8
BLACK
6
CONTINUOUS
10
3.31934
20
-6.25893
11
3.31944
21
-6.25896
0
LINE
8
BLACK
6
CONTINUOUS
10
3.31944
20
-6.25896
11
3.31957
21
-6.25909
0
LINE
8
BLACK
6
CONTINUOUS
10
3.31957
20
-6.25909
11
3.32029
21
-6.25959
0
LINE
8
BLACK
6
CONTINUOUS
10
3.32029
20
-6.25959
11
3.32073
21
-6.26035
0
LINE
8
BLACK
6
CONTINUOUS
10
3.32073
20
-6.26035
11
3.32133
21
-6.26099
0
LINE
8
BLACK
6
CONTINUOUS
10
3.32133
20
-6.26099
11
3.32414
21
-6.26661
0
LINE
8
BLACK
6
CONTINUOUS
10
3.32414
20
-6.26661
11
3.32459
21
-6.26795
0
LINE
8
BLACK
6
CONTINUOUS
10
3.32459
20
-6.26795
11
3.32454
21
-6.26839
0
LINE
8
BLACK
6
CONTINUOUS
10
3.32454
20
-6.26839
11
3.32466
21
-6.26881
0
LINE
8
BLACK
6
CONTINUOUS
10
3.32466
20
-6.26881
11
3.32466
21
-6.29131
0
LINE
8
BLACK
6
CONTINUOUS
10
3.32466
20
-6.29131
11
3.32446
21
-6.29271
0
LINE
8
BLACK
6
CONTINUOUS
10
3.32446
20
-6.29271
11
3.32422
21
-6.29308
0
LINE
8
BLACK
6
CONTINUOUS
10
3.32422
20
-6.29308
11
3.32414
21
-6.29351
0
LINE
8
BLACK
6
CONTINUOUS
10
3.32414
20
-6.29351
11
3.32133
21
-6.29914
0
LINE
8
BLACK
6
CONTINUOUS
10
3.32133
20
-6.29914
11
3.32119
21
-6.29934
0
LINE
8
BLACK
6
CONTINUOUS
10
3.32119
20
-6.29934
11
3.32116
21
-6.29945
0
LINE
8
BLACK
6
CONTINUOUS
10
3.32116
20
-6.29945
11
3.32103
21
-6.29957
0
LINE
8
BLACK
6
CONTINUOUS
10
3.32103
20
-6.29957
11
3.32052
21
-6.3003
0
LINE
8
BLACK
6
CONTINUOUS
10
3.32052
20
-6.3003
11
3.31977
21
-6.30074
0
LINE
8
BLACK
6
CONTINUOUS
10
3.31977
20
-6.30074
11
3.31913
21
-6.30134
0
LINE
8
BLACK
6
CONTINUOUS
10
3.31913
20
-6.30134
11
3.31351
21
-6.30415
0
LINE
8
BLACK
6
CONTINUOUS
10
3.31351
20
-6.30415
11
3.31216
21
-6.30459
0
LINE
8
BLACK
6
CONTINUOUS
10
3.31216
20
-6.30459
11
3.31173
21
-6.30454
0
LINE
8
BLACK
6
CONTINUOUS
10
3.31173
20
-6.30454
11
3.3113
21
-6.30467
0
LINE
8
BLACK
6
CONTINUOUS
10
3.3113
20
-6.30467
11
3.30006
21
-6.30467
0
LINE
8
BLACK
6
CONTINUOUS
10
3.30006
20
-6.30467
11
3.29866
21
-6.30447
0
LINE
8
BLACK
6
CONTINUOUS
10
3.29866
20
-6.30447
11
3.29829
21
-6.30423
0
LINE
8
BLACK
6
CONTINUOUS
10
3.29829
20
-6.30423
11
3.29786
21
-6.30415
0
LINE
8
BLACK
6
CONTINUOUS
10
3.29786
20
-6.30415
11
3.29223
21
-6.30134
0
LINE
8
BLACK
6
CONTINUOUS
10
3.29223
20
-6.30134
11
3.29107
21
-6.30053
0
LINE
8
BLACK
6
CONTINUOUS
10
3.29107
20
-6.30053
11
3.28966
21
-6.29814
0
LINE
8
BLACK
6
CONTINUOUS
10
3.28966
20
-6.29814
11
3.28976
21
-6.29538
0
LINE
8
BLACK
6
CONTINUOUS
10
3.28976
20
-6.29538
11
3.29135
21
-6.2931
0
LINE
8
BLACK
6
CONTINUOUS
10
3.29135
20
-6.2931
11
3.29391
21
-6.29204
0
LINE
8
BLACK
6
CONTINUOUS
10
3.29391
20
-6.29204
11
3.29663
21
-6.29253
0
LINE
8
BLACK
6
CONTINUOUS
10
3.29663
20
-6.29253
11
3.30122
21
-6.29483
0
LINE
8
BLACK
6
CONTINUOUS
10
3.30122
20
-6.29483
11
3.31014
21
-6.29483
0
LINE
8
BLACK
6
CONTINUOUS
10
3.31014
20
-6.29483
11
3.31326
21
-6.29327
0
LINE
8
BLACK
6
CONTINUOUS
10
3.31326
20
-6.29327
11
3.31482
21
-6.29015
0
LINE
8
BLACK
6
CONTINUOUS
10
3.31482
20
-6.29015
11
3.31482
21
-6.2841
0
LINE
8
BLACK
6
CONTINUOUS
10
3.31482
20
-6.2841
11
3.29065
21
-6.27926
0
LINE
8
BLACK
6
CONTINUOUS
10
3.29065
20
-6.27926
11
3.28973
21
-6.27894
0
LINE
8
BLACK
6
CONTINUOUS
10
3.28973
20
-6.27894
11
3.28957
21
-6.27891
0
LINE
8
BLACK
6
CONTINUOUS
10
3.28957
20
-6.27891
11
3.28951
21
-6.27885
0
LINE
8
BLACK
6
CONTINUOUS
10
3.28951
20
-6.27885
11
3.28932
21
-6.27879
0
LINE
8
BLACK
6
CONTINUOUS
10
3.28932
20
-6.27879
11
3.28843
21
-6.27792
0
LINE
8
BLACK
6
CONTINUOUS
10
3.28843
20
-6.27792
11
3.28748
21
-6.2771
0
LINE
8
BLACK
6
CONTINUOUS
10
3.28748
20
-6.2771
11
3.28744
21
-6.27696
0
LINE
8
BLACK
6
CONTINUOUS
10
3.28744
20
-6.27696
11
3.28734
21
-6.27686
0
LINE
8
BLACK
6
CONTINUOUS
10
3.28734
20
-6.27686
11
3.28705
21
-6.27564
0
LINE
8
BLACK
6
CONTINUOUS
10
3.28705
20
-6.27564
11
3.2867
21
-6.27444
0
LINE
8
BLACK
6
CONTINUOUS
10
3.2867
20
-6.27444
11
3.2867
21
-6.26881
0
LINE
8
BLACK
6
CONTINUOUS
10
3.2867
20
-6.26881
11
3.2869
21
-6.26742
0
LINE
8
BLACK
6
CONTINUOUS
10
3.2869
20
-6.26742
11
3.28714
21
-6.26705
0
LINE
8
BLACK
6
CONTINUOUS
10
3.28714
20
-6.26705
11
3.28722
21
-6.26661
0
LINE
8
BLACK
6
CONTINUOUS
10
3.28722
20
-6.26661
11
3.29003
21
-6.26099
0
LINE
8
BLACK
6
CONTINUOUS
10
3.29003
20
-6.26099
11
3.29017
21
-6.26078
0
LINE
8
BLACK
6
CONTINUOUS
10
3.29017
20
-6.26078
11
3.2902
21
-6.26067
0
LINE
8
BLACK
6
CONTINUOUS
10
3.2902
20
-6.26067
11
3.29033
21
-6.26055
0
LINE
8
BLACK
6
CONTINUOUS
10
3.29033
20
-6.26055
11
3.29084
21
-6.25983
0
LINE
8
BLACK
6
CONTINUOUS
10
3.29084
20
-6.25983
11
3.29159
21
-6.25938
0
LINE
8
BLACK
6
CONTINUOUS
10
3.29159
20
-6.25938
11
3.29223
21
-6.25879
0
LINE
8
BLACK
6
CONTINUOUS
10
3.29223
20
-6.25879
11
3.29786
21
-6.25598
0
LINE
8
BLACK
6
CONTINUOUS
10
3.29786
20
-6.25598
11
3.2992
21
-6.25553
0
LINE
8
BLACK
6
CONTINUOUS
10
3.2992
20
-6.25553
11
3.29963
21
-6.25558
0
LINE
8
BLACK
6
CONTINUOUS
10
3.29963
20
-6.25558
11
3.30006
21
-6.25546
0
LINE
8
BLACK
6
CONTINUOUS
10
3.30006
20
-6.25546
11
3.3113
21
-6.25546
0
LINE
8
BLACK
6
CONTINUOUS
10
3.3113
20
-6.25546
11
3.3127
21
-6.25566
0
LINE
8
BLACK
6
CONTINUOUS
10
3.30122
20
-6.2653
11
3.2981
21
-6.26686
0
LINE
8
BLACK
6
CONTINUOUS
10
3.2981
20
-6.26686
11
3.29654
21
-6.26997
0
LINE
8
BLACK
6
CONTINUOUS
10
3.29654
20
-6.26997
11
3.29654
21
-6.2704
0
LINE
8
BLACK
6
CONTINUOUS
10
3.29654
20
-6.2704
11
3.31482
21
-6.27406
0
LINE
8
BLACK
6
CONTINUOUS
10
3.31482
20
-6.27406
11
3.31482
21
-6.26997
0
LINE
8
BLACK
6
CONTINUOUS
10
3.31482
20
-6.26997
11
3.31326
21
-6.26686
0
LINE
8
BLACK
6
CONTINUOUS
10
3.31326
20
-6.26686
11
3.31014
21
-6.2653
0
LINE
8
BLACK
6
CONTINUOUS
10
3.31014
20
-6.2653
11
3.30122
21
-6.2653
0
LINE
8
BLACK
6
CONTINUOUS
10
3.22336
20
-6.23622
11
3.22546
21
-6.23803
0
LINE
8
BLACK
6
CONTINUOUS
10
3.22546
20
-6.23803
11
3.22624
21
-6.24069
0
LINE
8
BLACK
6
CONTINUOUS
10
3.22624
20
-6.24069
11
3.22624
21
-6.29975
0
LINE
8
BLACK
6
CONTINUOUS
10
3.22624
20
-6.29975
11
3.22603
21
-6.30114
0
LINE
8
BLACK
6
CONTINUOUS
10
3.22603
20
-6.30114
11
3.22584
21
-6.30144
0
LINE
8
BLACK
6
CONTINUOUS
10
3.22584
20
-6.30144
11
3.22579
21
-6.3018
0
LINE
8
BLACK
6
CONTINUOUS
10
3.22579
20
-6.3018
11
3.2251
21
-6.30259
0
LINE
8
BLACK
6
CONTINUOUS
10
3.2251
20
-6.30259
11
3.22453
21
-6.30347
0
LINE
8
BLACK
6
CONTINUOUS
10
3.22453
20
-6.30347
11
3.22421
21
-6.30362
0
LINE
8
BLACK
6
CONTINUOUS
10
3.22421
20
-6.30362
11
3.22397
21
-6.30389
0
LINE
8
BLACK
6
CONTINUOUS
10
3.22397
20
-6.30389
11
3.22297
21
-6.30418
0
LINE
8
BLACK
6
CONTINUOUS
10
3.22297
20
-6.30418
11
3.22201
21
-6.30462
0
LINE
8
BLACK
6
CONTINUOUS
10
3.22201
20
-6.30462
11
3.22166
21
-6.30457
0
LINE
8
BLACK
6
CONTINUOUS
10
3.22166
20
-6.30457
11
3.22132
21
-6.30467
0
LINE
8
BLACK
6
CONTINUOUS
10
3.22132
20
-6.30467
11
3.19319
21
-6.30467
0
LINE
8
BLACK
6
CONTINUOUS
10
3.19319
20
-6.30467
11
3.1918
21
-6.30447
0
LINE
8
BLACK
6
CONTINUOUS
10
3.1918
20
-6.30447
11
3.18947
21
-6.30296
0
LINE
8
BLACK
6
CONTINUOUS
10
3.18947
20
-6.30296
11
3.18832
21
-6.30044
0
LINE
8
BLACK
6
CONTINUOUS
10
3.18832
20
-6.30044
11
3.18872
21
-6.2977
0
LINE
8
BLACK
6
CONTINUOUS
10
3.18872
20
-6.2977
11
3.19054
21
-6.29561
0
LINE
8
BLACK
6
CONTINUOUS
10
3.19054
20
-6.29561
11
3.19319
21
-6.29483
0
LINE
8
BLACK
6
CONTINUOUS
10
3.19319
20
-6.29483
11
3.21639
21
-6.29483
0
LINE
8
BLACK
6
CONTINUOUS
10
3.21639
20
-6.29483
11
3.21639
21
-6.24069
0
LINE
8
BLACK
6
CONTINUOUS
10
3.21639
20
-6.24069
11
3.2166
21
-6.23929
0
LINE
8
BLACK
6
CONTINUOUS
10
3.2166
20
-6.23929
11
3.2181
21
-6.23697
0
LINE
8
BLACK
6
CONTINUOUS
10
3.2181
20
-6.23697
11
3.22062
21
-6.23582
0
LINE
8
BLACK
6
CONTINUOUS
10
3.22062
20
-6.23582
11
3.22336
21
-6.23622
0
LINE
8
BLACK
6
CONTINUOUS
10
3.68953
20
-6.23597
11
3.6896
21
-6.23602
0
LINE
8
BLACK
6
CONTINUOUS
10
3.6896
20
-6.23602
11
3.68969
21
-6.23602
0
LINE
8
BLACK
6
CONTINUOUS
10
3.68969
20
-6.23602
11
3.69813
21
-6.23884
0
LINE
8
BLACK
6
CONTINUOUS
10
3.69813
20
-6.23884
11
3.69939
21
-6.23947
0
LINE
8
BLACK
6
CONTINUOUS
10
3.69939
20
-6.23947
11
3.69966
21
-6.23981
0
LINE
8
BLACK
6
CONTINUOUS
10
3.69966
20
-6.23981
11
3.70005
21
-6.24002
0
LINE
8
BLACK
6
CONTINUOUS
10
3.70005
20
-6.24002
11
3.70567
21
-6.24565
0
LINE
8
BLACK
6
CONTINUOUS
10
3.70567
20
-6.24565
11
3.70652
21
-6.24678
0
LINE
8
BLACK
6
CONTINUOUS
10
3.70652
20
-6.24678
11
3.70654
21
-6.24686
0
LINE
8
BLACK
6
CONTINUOUS
10
3.70654
20
-6.24686
11
3.7066
21
-6.24693
0
LINE
8
BLACK
6
CONTINUOUS
10
3.7066
20
-6.24693
11
3.70941
21
-6.25255
0
LINE
8
BLACK
6
CONTINUOUS
10
3.70941
20
-6.25255
11
3.70969
21
-6.25341
0
LINE
8
BLACK
6
CONTINUOUS
10
3.70969
20
-6.25341
11
3.70978
21
-6.25356
0
LINE
8
BLACK
6
CONTINUOUS
10
3.70978
20
-6.25356
11
3.71259
21
-6.26481
0
LINE
8
BLACK
6
CONTINUOUS
10
3.71259
20
-6.26481
11
3.7127
21
-6.26587
0
LINE
8
BLACK
6
CONTINUOUS
10
3.7127
20
-6.26587
11
3.71274
21
-6.266
0
LINE
8
BLACK
6
CONTINUOUS
10
3.71274
20
-6.266
11
3.71274
21
-6.27444
0
LINE
8
BLACK
6
CONTINUOUS
10
3.71274
20
-6.27444
11
3.71259
21
-6.27549
0
LINE
8
BLACK
6
CONTINUOUS
10
3.71259
20
-6.27549
11
3.71259
21
-6.27563
0
LINE
8
BLACK
6
CONTINUOUS
10
3.71259
20
-6.27563
11
3.70978
21
-6.28688
0
LINE
8
BLACK
6
CONTINUOUS
10
3.70978
20
-6.28688
11
3.70944
21
-6.28771
0
LINE
8
BLACK
6
CONTINUOUS
10
3.70944
20
-6.28771
11
3.70941
21
-6.28789
0
LINE
8
BLACK
6
CONTINUOUS
10
3.70941
20
-6.28789
11
3.7066
21
-6.29351
0
LINE
8
BLACK
6
CONTINUOUS
10
3.7066
20
-6.29351
11
3.70579
21
-6.29467
0
LINE
8
BLACK
6
CONTINUOUS
10
3.70579
20
-6.29467
11
3.70571
21
-6.29471
0
LINE
8
BLACK
6
CONTINUOUS
10
3.70571
20
-6.29471
11
3.70567
21
-6.29479
0
LINE
8
BLACK
6
CONTINUOUS
10
3.70567
20
-6.29479
11
3.70005
21
-6.30041
0
LINE
8
BLACK
6
CONTINUOUS
10
3.70005
20
-6.30041
11
3.69892
21
-6.30126
0
LINE
8
BLACK
6
CONTINUOUS
10
3.69892
20
-6.30126
11
3.69849
21
-6.30135
0
LINE
8
BLACK
6
CONTINUOUS
10
3.69849
20
-6.30135
11
3.69813
21
-6.3016
0
LINE
8
BLACK
6
CONTINUOUS
10
3.69813
20
-6.3016
11
3.68969
21
-6.30442
0
LINE
8
BLACK
6
CONTINUOUS
10
3.68969
20
-6.30442
11
3.6883
21
-6.30467
0
LINE
8
BLACK
6
CONTINUOUS
10
3.6883
20
-6.30467
11
3.68822
21
-6.30464
0
LINE
8
BLACK
6
CONTINUOUS
10
3.68822
20
-6.30464
11
3.68813
21
-6.30467
0
LINE
8
BLACK
6
CONTINUOUS
10
3.68813
20
-6.30467
11
3.68251
21
-6.30467
0
LINE
8
BLACK
6
CONTINUOUS
10
3.68251
20
-6.30467
11
3.68111
21
-6.30447
0
LINE
8
BLACK
6
CONTINUOUS
10
3.68111
20
-6.30447
11
3.68104
21
-6.30442
0
LINE
8
BLACK
6
CONTINUOUS
10
3.68104
20
-6.30442
11
3.68095
21
-6.30442
0
LINE
8
BLACK
6
CONTINUOUS
10
3.68095
20
-6.30442
11
3.67252
21
-6.3016
0
LINE
8
BLACK
6
CONTINUOUS
10
3.67252
20
-6.3016
11
3.67125
21
-6.30097
0
LINE
8
BLACK
6
CONTINUOUS
10
3.67125
20
-6.30097
11
3.67098
21
-6.30063
0
LINE
8
BLACK
6
CONTINUOUS
10
3.67098
20
-6.30063
11
3.67059
21
-6.30041
0
LINE
8
BLACK
6
CONTINUOUS
10
3.67059
20
-6.30041
11
3.66778
21
-6.2976
0
LINE
8
BLACK
6
CONTINUOUS
10
3.66778
20
-6.2976
11
3.66726
21
-6.2969
0
LINE
8
BLACK
6
CONTINUOUS
10
3.66726
20
-6.2969
11
3.66712
21
-6.29678
0
LINE
8
BLACK
6
CONTINUOUS
10
3.66712
20
-6.29678
11
3.66709
21
-6.29667
0
LINE
8
BLACK
6
CONTINUOUS
10
3.66709
20
-6.29667
11
3.66693
21
-6.29647
0
LINE
8
BLACK
6
CONTINUOUS
10
3.66693
20
-6.29647
11
3.66668
21
-6.29529
0
LINE
8
BLACK
6
CONTINUOUS
10
3.66668
20
-6.29529
11
3.66634
21
-6.29412
0
LINE
8
BLACK
6
CONTINUOUS
10
3.66634
20
-6.29412
11
3.66634
21
-6.27444
0
LINE
8
BLACK
6
CONTINUOUS
10
3.66634
20
-6.27444
11
3.66654
21
-6.27304
0
LINE
8
BLACK
6
CONTINUOUS
10
3.66654
20
-6.27304
11
3.66673
21
-6.27274
0
LINE
8
BLACK
6
CONTINUOUS
10
3.66673
20
-6.27274
11
3.66679
21
-6.27239
0
LINE
8
BLACK
6
CONTINUOUS
10
3.66679
20
-6.27239
11
3.66747
21
-6.2716
0
LINE
8
BLACK
6
CONTINUOUS
10
3.66747
20
-6.2716
11
3.66804
21
-6.27071
0
LINE
8
BLACK
6
CONTINUOUS
10
3.66804
20
-6.27071
11
3.66837
21
-6.27056
0
LINE
8
BLACK
6
CONTINUOUS
10
3.66837
20
-6.27056
11
3.6686
21
-6.2703
0
LINE
8
BLACK
6
CONTINUOUS
10
3.6686
20
-6.2703
11
3.66961
21
-6.27
0
LINE
8
BLACK
6
CONTINUOUS
10
3.66961
20
-6.27
11
3.67057
21
-6.26957
0
LINE
8
BLACK
6
CONTINUOUS
10
3.67057
20
-6.26957
11
3.67092
21
-6.26962
0
LINE
8
BLACK
6
CONTINUOUS
10
3.67092
20
-6.26962
11
3.67126
21
-6.26952
0
LINE
8
BLACK
6
CONTINUOUS
10
3.67126
20
-6.26952
11
3.68251
21
-6.26952
0
LINE
8
BLACK
6
CONTINUOUS
10
3.68251
20
-6.26952
11
3.68391
21
-6.26972
0
LINE
8
BLACK
6
CONTINUOUS
10
3.68391
20
-6.26972
11
3.68623
21
-6.27122
0
LINE
8
BLACK
6
CONTINUOUS
10
3.68623
20
-6.27122
11
3.68738
21
-6.27374
0
LINE
8
BLACK
6
CONTINUOUS
10
3.68738
20
-6.27374
11
3.68698
21
-6.27649
0
LINE
8
BLACK
6
CONTINUOUS
10
3.68698
20
-6.27649
11
3.68517
21
-6.27858
0
LINE
8
BLACK
6
CONTINUOUS
10
3.68517
20
-6.27858
11
3.68251
21
-6.27936
0
LINE
8
BLACK
6
CONTINUOUS
10
3.68251
20
-6.27936
11
3.67618
21
-6.27936
0
LINE
8
BLACK
6
CONTINUOUS
10
3.67618
20
-6.27936
11
3.67618
21
-6.29208
0
LINE
8
BLACK
6
CONTINUOUS
10
3.67618
20
-6.29208
11
3.67673
21
-6.29263
0
LINE
8
BLACK
6
CONTINUOUS
10
3.67673
20
-6.29263
11
3.68331
21
-6.29483
0
LINE
8
BLACK
6
CONTINUOUS
10
3.68331
20
-6.29483
11
3.68733
21
-6.29483
0
LINE
8
BLACK
6
CONTINUOUS
10
3.68733
20
-6.29483
11
3.69391
21
-6.29263
0
LINE
8
BLACK
6
CONTINUOUS
10
3.69391
20
-6.29263
11
3.69815
21
-6.2884
0
LINE
8
BLACK
6
CONTINUOUS
10
3.69815
20
-6.2884
11
3.70036
21
-6.28397
0
LINE
8
BLACK
6
CONTINUOUS
10
3.70036
20
-6.28397
11
3.7029
21
-6.27383
0
LINE
8
BLACK
6
CONTINUOUS
10
3.7029
20
-6.27383
11
3.7029
21
-6.26661
0
LINE
8
BLACK
6
CONTINUOUS
10
3.7029
20
-6.26661
11
3.70036
21
-6.25647
0
LINE
8
BLACK
6
CONTINUOUS
10
3.70036
20
-6.25647
11
3.69815
21
-6.25204
0
LINE
8
BLACK
6
CONTINUOUS
10
3.69815
20
-6.25204
11
3.69391
21
-6.24781
0
LINE
8
BLACK
6
CONTINUOUS
10
3.69391
20
-6.24781
11
3.68733
21
-6.24561
0
LINE
8
BLACK
6
CONTINUOUS
10
3.68733
20
-6.24561
11
3.68086
21
-6.24561
0
LINE
8
BLACK
6
CONTINUOUS
10
3.68086
20
-6.24561
11
3.67627
21
-6.24791
0
LINE
8
BLACK
6
CONTINUOUS
10
3.67627
20
-6.24791
11
3.67493
21
-6.24835
0
LINE
8
BLACK
6
CONTINUOUS
10
3.67493
20
-6.24835
11
3.67218
21
-6.24805
0
LINE
8
BLACK
6
CONTINUOUS
10
3.67218
20
-6.24805
11
3.67002
21
-6.2463
0
LINE
8
BLACK
6
CONTINUOUS
10
3.67002
20
-6.2463
11
3.66915
21
-6.24367
0
LINE
8
BLACK
6
CONTINUOUS
10
3.66915
20
-6.24367
11
3.66984
21
-6.24099
0
LINE
8
BLACK
6
CONTINUOUS
10
3.66984
20
-6.24099
11
3.67187
21
-6.2391
0
LINE
8
BLACK
6
CONTINUOUS
10
3.67187
20
-6.2391
11
3.6775
21
-6.23629
0
LINE
8
BLACK
6
CONTINUOUS
10
3.6775
20
-6.23629
11
3.67884
21
-6.23585
0
LINE
8
BLACK
6
CONTINUOUS
10
3.67884
20
-6.23585
11
3.67927
21
-6.23589
0
LINE
8
BLACK
6
CONTINUOUS
10
3.67927
20
-6.23589
11
3.6797
21
-6.23577
0
LINE
8
BLACK
6
CONTINUOUS
10
3.6797
20
-6.23577
11
3.68813
21
-6.23577
0
LINE
8
BLACK
6
CONTINUOUS
10
3.68813
20
-6.23577
11
3.68953
21
-6.23597
0
LINE
8
BLACK
6
CONTINUOUS
10
3.16928
20
-6.25566
11
3.16965
21
-6.2559
0
LINE
8
BLACK
6
CONTINUOUS
10
3.16965
20
-6.2559
11
3.17009
21
-6.25598
0
LINE
8
BLACK
6
CONTINUOUS
10
3.17009
20
-6.25598
11
3.17571
21
-6.25879
0
LINE
8
BLACK
6
CONTINUOUS
10
3.17571
20
-6.25879
11
3.17687
21
-6.25959
0
LINE
8
BLACK
6
CONTINUOUS
10
3.17687
20
-6.25959
11
3.17828
21
-6.26198
0
LINE
8
BLACK
6
CONTINUOUS
10
3.17828
20
-6.26198
11
3.17818
21
-6.26475
0
LINE
8
BLACK
6
CONTINUOUS
10
3.17818
20
-6.26475
11
3.1766
21
-6.26702
0
LINE
8
BLACK
6
CONTINUOUS
10
3.1766
20
-6.26702
11
3.17404
21
-6.26808
0
LINE
8
BLACK
6
CONTINUOUS
10
3.17404
20
-6.26808
11
3.17131
21
-6.26759
0
LINE
8
BLACK
6
CONTINUOUS
10
3.17131
20
-6.26759
11
3.16672
21
-6.2653
0
LINE
8
BLACK
6
CONTINUOUS
10
3.16672
20
-6.2653
11
3.1578
21
-6.2653
0
LINE
8
BLACK
6
CONTINUOUS
10
3.1578
20
-6.2653
11
3.15468
21
-6.26686
0
LINE
8
BLACK
6
CONTINUOUS
10
3.15468
20
-6.26686
11
3.15312
21
-6.26997
0
LINE
8
BLACK
6
CONTINUOUS
10
3.15312
20
-6.26997
11
3.15312
21
-6.2714
0
LINE
8
BLACK
6
CONTINUOUS
10
3.15312
20
-6.2714
11
3.15499
21
-6.27233
0
LINE
8
BLACK
6
CONTINUOUS
10
3.15499
20
-6.27233
11
3.16789
21
-6.27233
0
LINE
8
BLACK
6
CONTINUOUS
10
3.16789
20
-6.27233
11
3.16928
21
-6.27253
0
LINE
8
BLACK
6
CONTINUOUS
10
3.16928
20
-6.27253
11
3.16965
21
-6.27277
0
LINE
8
BLACK
6
CONTINUOUS
10
3.16965
20
-6.27277
11
3.17009
21
-6.27285
0
LINE
8
BLACK
6
CONTINUOUS
10
3.17009
20
-6.27285
11
3.17571
21
-6.27566
0
LINE
8
BLACK
6
CONTINUOUS
10
3.17571
20
-6.27566
11
3.17592
21
-6.2758
0
LINE
8
BLACK
6
CONTINUOUS
10
3.17592
20
-6.2758
11
3.17602
21
-6.27583
0
LINE
8
BLACK
6
CONTINUOUS
10
3.17602
20
-6.27583
11
3.17615
21
-6.27596
0
LINE
8
BLACK
6
CONTINUOUS
10
3.17615
20
-6.27596
11
3.17687
21
-6.27647
0
LINE
8
BLACK
6
CONTINUOUS
10
3.17687
20
-6.27647
11
3.17732
21
-6.27722
0
LINE
8
BLACK
6
CONTINUOUS
10
3.17732
20
-6.27722
11
3.17791
21
-6.27786
0
LINE
8
BLACK
6
CONTINUOUS
10
3.17791
20
-6.27786
11
3.18072
21
-6.28349
0
LINE
8
BLACK
6
CONTINUOUS
10
3.18072
20
-6.28349
11
3.18117
21
-6.28483
0
LINE
8
BLACK
6
CONTINUOUS
10
3.18117
20
-6.28483
11
3.18112
21
-6.28526
0
LINE
8
BLACK
6
CONTINUOUS
10
3.18112
20
-6.28526
11
3.18124
21
-6.28569
0
LINE
8
BLACK
6
CONTINUOUS
10
3.18124
20
-6.28569
11
3.18124
21
-6.29131
0
LINE
8
BLACK
6
CONTINUOUS
10
3.18124
20
-6.29131
11
3.18104
21
-6.29271
0
LINE
8
BLACK
6
CONTINUOUS
10
3.18104
20
-6.29271
11
3.1808
21
-6.29308
0
LINE
8
BLACK
6
CONTINUOUS
10
3.1808
20
-6.29308
11
3.18072
21
-6.29351
0
LINE
8
BLACK
6
CONTINUOUS
10
3.18072
20
-6.29351
11
3.17791
21
-6.29914
0
LINE
8
BLACK
6
CONTINUOUS
10
3.17791
20
-6.29914
11
3.17777
21
-6.29934
0
LINE
8
BLACK
6
CONTINUOUS
10
3.17777
20
-6.29934
11
3.17774
21
-6.29945
0
LINE
8
BLACK
6
CONTINUOUS
10
3.17774
20
-6.29945
11
3.17761
21
-6.29957
0
LINE
8
BLACK
6
CONTINUOUS
10
3.17761
20
-6.29957
11
3.1771
21
-6.3003
0
LINE
8
BLACK
6
CONTINUOUS
10
3.1771
20
-6.3003
11
3.17635
21
-6.30074
0
LINE
8
BLACK
6
CONTINUOUS
10
3.17635
20
-6.30074
11
3.17571
21
-6.30134
0
LINE
8
BLACK
6
CONTINUOUS
10
3.17571
20
-6.30134
11
3.17009
21
-6.30415
0
LINE
8
BLACK
6
CONTINUOUS
10
3.17009
20
-6.30415
11
3.16875
21
-6.30459
0
LINE
8
BLACK
6
CONTINUOUS
10
3.16875
20
-6.30459
11
3.16831
21
-6.30454
0
LINE
8
BLACK
6
CONTINUOUS
10
3.16831
20
-6.30454
11
3.16789
21
-6.30467
0
LINE
8
BLACK
6
CONTINUOUS
10
3.16789
20
-6.30467
11
3.15382
21
-6.30467
0
LINE
8
BLACK
6
CONTINUOUS
10
3.15382
20
-6.30467
11
3.15243
21
-6.30447
0
LINE
8
BLACK
6
CONTINUOUS
10
3.15243
20
-6.30447
11
3.15206
21
-6.30423
0
LINE
8
BLACK
6
CONTINUOUS
10
3.15206
20
-6.30423
11
3.15162
21
-6.30415
0
LINE
8
BLACK
6
CONTINUOUS
10
3.15162
20
-6.30415
11
3.15082
21
-6.30374
0
LINE
8
BLACK
6
CONTINUOUS
10
3.15082
20
-6.30374
11
3.14889
21
-6.30462
0
LINE
8
BLACK
6
CONTINUOUS
10
3.14889
20
-6.30462
11
3.14615
21
-6.30422
0
LINE
8
BLACK
6
CONTINUOUS
10
3.14615
20
-6.30422
11
3.14406
21
-6.30241
0
LINE
8
BLACK
6
CONTINUOUS
10
3.14406
20
-6.30241
11
3.14328
21
-6.29975
0
LINE
8
BLACK
6
CONTINUOUS
10
3.14328
20
-6.29975
11
3.14328
21
-6.26881
0
LINE
8
BLACK
6
CONTINUOUS
10
3.14328
20
-6.26881
11
3.14348
21
-6.26742
0
LINE
8
BLACK
6
CONTINUOUS
10
3.14348
20
-6.26742
11
3.14372
21
-6.26705
0
LINE
8
BLACK
6
CONTINUOUS
10
3.14372
20
-6.26705
11
3.1438
21
-6.26661
0
LINE
8
BLACK
6
CONTINUOUS
10
3.1438
20
-6.26661
11
3.14661
21
-6.26099
0
LINE
8
BLACK
6
CONTINUOUS
10
3.14661
20
-6.26099
11
3.14675
21
-6.26078
0
LINE
8
BLACK
6
CONTINUOUS
10
3.14675
20
-6.26078
11
3.14678
21
-6.26067
0
LINE
8
BLACK
6
CONTINUOUS
10
3.14678
20
-6.26067
11
3.14691
21
-6.26055
0
LINE
8
BLACK
6
CONTINUOUS
10
3.14691
20
-6.26055
11
3.14742
21
-6.25983
0
LINE
8
BLACK
6
CONTINUOUS
10
3.14742
20
-6.25983
11
3.14817
21
-6.25938
0
LINE
8
BLACK
6
CONTINUOUS
10
3.14817
20
-6.25938
11
3.14881
21
-6.25879
0
LINE
8
BLACK
6
CONTINUOUS
10
3.14881
20
-6.25879
11
3.15444
21
-6.25598
0
LINE
8
BLACK
6
CONTINUOUS
10
3.15444
20
-6.25598
11
3.15578
21
-6.25553
0
LINE
8
BLACK
6
CONTINUOUS
10
3.15578
20
-6.25553
11
3.15621
21
-6.25558
0
LINE
8
BLACK
6
CONTINUOUS
10
3.15621
20
-6.25558
11
3.15664
21
-6.25546
0
LINE
8
BLACK
6
CONTINUOUS
10
3.15664
20
-6.25546
11
3.16789
21
-6.25546
0
LINE
8
BLACK
6
CONTINUOUS
10
3.16789
20
-6.25546
11
3.16928
21
-6.25566
0
LINE
8
BLACK
6
CONTINUOUS
10
3.15312
20
-6.29389
11
3.15499
21
-6.29483
0
LINE
8
BLACK
6
CONTINUOUS
10
3.15499
20
-6.29483
11
3.16672
21
-6.29483
0
LINE
8
BLACK
6
CONTINUOUS
10
3.16672
20
-6.29483
11
3.16984
21
-6.29327
0
LINE
8
BLACK
6
CONTINUOUS
10
3.16984
20
-6.29327
11
3.1714
21
-6.29015
0
LINE
8
BLACK
6
CONTINUOUS
10
3.1714
20
-6.29015
11
3.1714
21
-6.28685
0
LINE
8
BLACK
6
CONTINUOUS
10
3.1714
20
-6.28685
11
3.16984
21
-6.28373
0
LINE
8
BLACK
6
CONTINUOUS
10
3.16984
20
-6.28373
11
3.16672
21
-6.28217
0
LINE
8
BLACK
6
CONTINUOUS
10
3.16672
20
-6.28217
11
3.15382
21
-6.28217
0
LINE
8
BLACK
6
CONTINUOUS
10
3.15382
20
-6.28217
11
3.15312
21
-6.28207
0
LINE
8
BLACK
6
CONTINUOUS
10
3.15312
20
-6.28207
11
3.15312
21
-6.29389
0
LINE
8
BLACK
6
CONTINUOUS
10
3.60517
20
-6.25566
11
3.60554
21
-6.2559
0
LINE
8
BLACK
6
CONTINUOUS
10
3.60554
20
-6.2559
11
3.60597
21
-6.25598
0
LINE
8
BLACK
6
CONTINUOUS
10
3.60597
20
-6.25598
11
3.61159
21
-6.25879
0
LINE
8
BLACK
6
CONTINUOUS
10
3.61159
20
-6.25879
11
3.6118
21
-6.25893
0
LINE
8
BLACK
6
CONTINUOUS
10
3.6118
20
-6.25893
11
3.61191
21
-6.25896
0
LINE
8
BLACK
6
CONTINUOUS
10
3.61191
20
-6.25896
11
3.61203
21
-6.25909
0
LINE
8
BLACK
6
CONTINUOUS
10
3.61203
20
-6.25909
11
3.61275
21
-6.25959
0
LINE
8
BLACK
6
CONTINUOUS
10
3.61275
20
-6.25959
11
3.6132
21
-6.26035
0
LINE
8
BLACK
6
CONTINUOUS
10
3.6132
20
-6.26035
11
3.61379
21
-6.26099
0
LINE
8
BLACK
6
CONTINUOUS
10
3.61379
20
-6.26099
11
3.61661
21
-6.26661
0
LINE
8
BLACK
6
CONTINUOUS
10
3.61661
20
-6.26661
11
3.61705
21
-6.26795
0
LINE
8
BLACK
6
CONTINUOUS
10
3.61705
20
-6.26795
11
3.617
21
-6.26839
0
LINE
8
BLACK
6
CONTINUOUS
10
3.617
20
-6.26839
11
3.61713
21
-6.26881
0
LINE
8
BLACK
6
CONTINUOUS
10
3.61713
20
-6.26881
11
3.61713
21
-6.29131
0
LINE
8
BLACK
6
CONTINUOUS
10
3.61713
20
-6.29131
11
3.61692
21
-6.29271
0
LINE
8
BLACK
6
CONTINUOUS
10
3.61692
20
-6.29271
11
3.61668
21
-6.29308
0
LINE
8
BLACK
6
CONTINUOUS
10
3.61668
20
-6.29308
11
3.61661
21
-6.29351
0
LINE
8
BLACK
6
CONTINUOUS
10
3.61661
20
-6.29351
11
3.61379
21
-6.29914
0
LINE
8
BLACK
6
CONTINUOUS
10
3.61379
20
-6.29914
11
3.61365
21
-6.29934
0
LINE
8
BLACK
6
CONTINUOUS
10
3.61365
20
-6.29934
11
3.61362
21
-6.29945
0
LINE
8
BLACK
6
CONTINUOUS
10
3.61362
20
-6.29945
11
3.61349
21
-6.29957
0
LINE
8
BLACK
6
CONTINUOUS
10
3.61349
20
-6.29957
11
3.61299
21
-6.3003
0
LINE
8
BLACK
6
CONTINUOUS
10
3.61299
20
-6.3003
11
3.61223
21
-6.30074
0
LINE
8
BLACK
6
CONTINUOUS
10
3.61223
20
-6.30074
11
3.61159
21
-6.30134
0
LINE
8
BLACK
6
CONTINUOUS
10
3.61159
20
-6.30134
11
3.60597
21
-6.30415
0
LINE
8
BLACK
6
CONTINUOUS
10
3.60597
20
-6.30415
11
3.60463
21
-6.30459
0
LINE
8
BLACK
6
CONTINUOUS
10
3.60463
20
-6.30459
11
3.60419
21
-6.30454
0
LINE
8
BLACK
6
CONTINUOUS
10
3.60419
20
-6.30454
11
3.60377
21
-6.30467
0
LINE
8
BLACK
6
CONTINUOUS
10
3.60377
20
-6.30467
11
3.59252
21
-6.30467
0
LINE
8
BLACK
6
CONTINUOUS
10
3.59252
20
-6.30467
11
3.59112
21
-6.30447
0
LINE
8
BLACK
6
CONTINUOUS
10
3.59112
20
-6.30447
11
3.59075
21
-6.30423
0
LINE
8
BLACK
6
CONTINUOUS
10
3.59075
20
-6.30423
11
3.59032
21
-6.30415
0
LINE
8
BLACK
6
CONTINUOUS
10
3.59032
20
-6.30415
11
3.58469
21
-6.30134
0
LINE
8
BLACK
6
CONTINUOUS
10
3.58469
20
-6.30134
11
3.58353
21
-6.30053
0
LINE
8
BLACK
6
CONTINUOUS
10
3.58353
20
-6.30053
11
3.58213
21
-6.29814
0
LINE
8
BLACK
6
CONTINUOUS
10
3.58213
20
-6.29814
11
3.58223
21
-6.29538
0
LINE
8
BLACK
6
CONTINUOUS
10
3.58223
20
-6.29538
11
3.58381
21
-6.2931
0
LINE
8
BLACK
6
CONTINUOUS
10
3.58381
20
-6.2931
11
3.58637
21
-6.29204
0
LINE
8
BLACK
6
CONTINUOUS
10
3.58637
20
-6.29204
11
3.5891
21
-6.29253
0
LINE
8
BLACK
6
CONTINUOUS
10
3.5891
20
-6.29253
11
3.59368
21
-6.29483
0
LINE
8
BLACK
6
CONTINUOUS
10
3.59368
20
-6.29483
11
3.60261
21
-6.29483
0
LINE
8
BLACK
6
CONTINUOUS
10
3.60261
20
-6.29483
11
3.60572
21
-6.29327
0
LINE
8
BLACK
6
CONTINUOUS
10
3.60572
20
-6.29327
11
3.60728
21
-6.29015
0
LINE
8
BLACK
6
CONTINUOUS
10
3.60728
20
-6.29015
11
3.60728
21
-6.2841
0
LINE
8
BLACK
6
CONTINUOUS
10
3.60728
20
-6.2841
11
3.58312
21
-6.27926
0
LINE
8
BLACK
6
CONTINUOUS
10
3.58312
20
-6.27926
11
3.5822
21
-6.27894
0
LINE
8
BLACK
6
CONTINUOUS
10
3.5822
20
-6.27894
11
3.58203
21
-6.27891
0
LINE
8
BLACK
6
CONTINUOUS
10
3.58203
20
-6.27891
11
3.58197
21
-6.27885
0
LINE
8
BLACK
6
CONTINUOUS
10
3.58197
20
-6.27885
11
3.58179
21
-6.27879
0
LINE
8
BLACK
6
CONTINUOUS
10
3.58179
20
-6.27879
11
3.58089
21
-6.27792
0
LINE
8
BLACK
6
CONTINUOUS
10
3.58089
20
-6.27792
11
3.57994
21
-6.2771
0
LINE
8
BLACK
6
CONTINUOUS
10
3.57994
20
-6.2771
11
3.5799
21
-6.27696
0
LINE
8
BLACK
6
CONTINUOUS
10
3.5799
20
-6.27696
11
3.5798
21
-6.27686
0
LINE
8
BLACK
6
CONTINUOUS
10
3.5798
20
-6.27686
11
3.57951
21
-6.27564
0
LINE
8
BLACK
6
CONTINUOUS
10
3.57951
20
-6.27564
11
3.57916
21
-6.27444
0
LINE
8
BLACK
6
CONTINUOUS
10
3.57916
20
-6.27444
11
3.57916
21
-6.26881
0
LINE
8
BLACK
6
CONTINUOUS
10
3.57916
20
-6.26881
11
3.57936
21
-6.26742
0
LINE
8
BLACK
6
CONTINUOUS
10
3.57936
20
-6.26742
11
3.5796
21
-6.26705
0
LINE
8
BLACK
6
CONTINUOUS
10
3.5796
20
-6.26705
11
3.57968
21
-6.26661
0
LINE
8
BLACK
6
CONTINUOUS
10
3.57968
20
-6.26661
11
3.58249
21
-6.26099
0
LINE
8
BLACK
6
CONTINUOUS
10
3.58249
20
-6.26099
11
3.58264
21
-6.26078
0
LINE
8
BLACK
6
CONTINUOUS
10
3.58264
20
-6.26078
11
3.58267
21
-6.26067
0
LINE
8
BLACK
6
CONTINUOUS
10
3.58267
20
-6.26067
11
3.5828
21
-6.26055
0
LINE
8
BLACK
6
CONTINUOUS
10
3.5828
20
-6.26055
11
3.5833
21
-6.25983
0
LINE
8
BLACK
6
CONTINUOUS
10
3.5833
20
-6.25983
11
3.58405
21
-6.25938
0
LINE
8
BLACK
6
CONTINUOUS
10
3.58405
20
-6.25938
11
3.58469
21
-6.25879
0
LINE
8
BLACK
6
CONTINUOUS
10
3.58469
20
-6.25879
11
3.59032
21
-6.25598
0
LINE
8
BLACK
6
CONTINUOUS
10
3.59032
20
-6.25598
11
3.59166
21
-6.25553
0
LINE
8
BLACK
6
CONTINUOUS
10
3.59166
20
-6.25553
11
3.5921
21
-6.25558
0
LINE
8
BLACK
6
CONTINUOUS
10
3.5921
20
-6.25558
11
3.59252
21
-6.25546
0
LINE
8
BLACK
6
CONTINUOUS
10
3.59252
20
-6.25546
11
3.60377
21
-6.25546
0
LINE
8
BLACK
6
CONTINUOUS
10
3.60377
20
-6.25546
11
3.60517
21
-6.25566
0
LINE
8
BLACK
6
CONTINUOUS
10
3.59368
20
-6.2653
11
3.59056
21
-6.26686
0
LINE
8
BLACK
6
CONTINUOUS
10
3.59056
20
-6.26686
11
3.589
21
-6.26998
0
LINE
8
BLACK
6
CONTINUOUS
10
3.589
20
-6.26998
11
3.589
21
-6.2704
0
LINE
8
BLACK
6
CONTINUOUS
10
3.589
20
-6.2704
11
3.60728
21
-6.27406
0
LINE
8
BLACK
6
CONTINUOUS
10
3.60728
20
-6.27406
11
3.60728
21
-6.26997
0
LINE
8
BLACK
6
CONTINUOUS
10
3.60728
20
-6.26997
11
3.60572
21
-6.26686
0
LINE
8
BLACK
6
CONTINUOUS
10
3.60572
20
-6.26686
11
3.60261
21
-6.2653
0
LINE
8
BLACK
6
CONTINUOUS
10
3.60261
20
-6.2653
11
3.59368
21
-6.2653
0
LINE
8
BLACK
6
CONTINUOUS
10
3.12213
20
-6.23622
11
3.12422
21
-6.23803
0
LINE
8
BLACK
6
CONTINUOUS
10
3.12422
20
-6.23803
11
3.125
21
-6.24069
0
LINE
8
BLACK
6
CONTINUOUS
10
3.125
20
-6.24069
11
3.125
21
-6.29975
0
LINE
8
BLACK
6
CONTINUOUS
10
3.125
20
-6.29975
11
3.1248
21
-6.30114
0
LINE
8
BLACK
6
CONTINUOUS
10
3.1248
20
-6.30114
11
3.12329
21
-6.30347
0
LINE
8
BLACK
6
CONTINUOUS
10
3.12329
20
-6.30347
11
3.12077
21
-6.30462
0
LINE
8
BLACK
6
CONTINUOUS
10
3.12077
20
-6.30462
11
3.11803
21
-6.30422
0
LINE
8
BLACK
6
CONTINUOUS
10
3.11803
20
-6.30422
11
3.11747
21
-6.30374
0
LINE
8
BLACK
6
CONTINUOUS
10
3.11747
20
-6.30374
11
3.11666
21
-6.30415
0
LINE
8
BLACK
6
CONTINUOUS
10
3.11666
20
-6.30415
11
3.11531
21
-6.30459
0
LINE
8
BLACK
6
CONTINUOUS
10
3.11531
20
-6.30459
11
3.11488
21
-6.30454
0
LINE
8
BLACK
6
CONTINUOUS
10
3.11488
20
-6.30454
11
3.11445
21
-6.30467
0
LINE
8
BLACK
6
CONTINUOUS
10
3.11445
20
-6.30467
11
3.10321
21
-6.30467
0
LINE
8
BLACK
6
CONTINUOUS
10
3.10321
20
-6.30467
11
3.10181
21
-6.30447
0
LINE
8
BLACK
6
CONTINUOUS
10
3.10181
20
-6.30447
11
3.10144
21
-6.30423
0
LINE
8
BLACK
6
CONTINUOUS
10
3.10144
20
-6.30423
11
3.101
21
-6.30415
0
LINE
8
BLACK
6
CONTINUOUS
10
3.101
20
-6.30415
11
3.09538
21
-6.30134
0
LINE
8
BLACK
6
CONTINUOUS
10
3.09538
20
-6.30134
11
3.09422
21
-6.30053
0
LINE
8
BLACK
6
CONTINUOUS
10
3.09422
20
-6.30053
11
3.09418
21
-6.30046
0
LINE
8
BLACK
6
CONTINUOUS
10
3.09418
20
-6.30046
11
3.0941
21
-6.30041
0
LINE
8
BLACK
6
CONTINUOUS
10
3.0941
20
-6.30041
11
3.09129
21
-6.2976
0
LINE
8
BLACK
6
CONTINUOUS
10
3.09129
20
-6.2976
11
3.09044
21
-6.29647
0
LINE
8
BLACK
6
CONTINUOUS
10
3.09044
20
-6.29647
11
3.09043
21
-6.29639
0
LINE
8
BLACK
6
CONTINUOUS
10
3.09043
20
-6.29639
11
3.09037
21
-6.29632
0
LINE
8
BLACK
6
CONTINUOUS
10
3.09037
20
-6.29632
11
3.08756
21
-6.2907
0
LINE
8
BLACK
6
CONTINUOUS
10
3.08756
20
-6.2907
11
3.08711
21
-6.28936
0
LINE
8
BLACK
6
CONTINUOUS
10
3.08711
20
-6.28936
11
3.08716
21
-6.28892
0
LINE
8
BLACK
6
CONTINUOUS
10
3.08716
20
-6.28892
11
3.08704
21
-6.2885
0
LINE
8
BLACK
6
CONTINUOUS
10
3.08704
20
-6.2885
11
3.08704
21
-6.27163
0
LINE
8
BLACK
6
CONTINUOUS
10
3.08704
20
-6.27163
11
3.08724
21
-6.27023
0
LINE
8
BLACK
6
CONTINUOUS
10
3.08724
20
-6.27023
11
3.08748
21
-6.26986
0
LINE
8
BLACK
6
CONTINUOUS
10
3.08748
20
-6.26986
11
3.08756
21
-6.26942
0
LINE
8
BLACK
6
CONTINUOUS
10
3.08756
20
-6.26942
11
3.09037
21
-6.2638
0
LINE
8
BLACK
6
CONTINUOUS
10
3.09037
20
-6.2638
11
3.09117
21
-6.26264
0
LINE
8
BLACK
6
CONTINUOUS
10
3.09117
20
-6.26264
11
3.09125
21
-6.2626
0
LINE
8
BLACK
6
CONTINUOUS
10
3.09125
20
-6.2626
11
3.09129
21
-6.26252
0
LINE
8
BLACK
6
CONTINUOUS
10
3.09129
20
-6.26252
11
3.0941
21
-6.25971
0
LINE
8
BLACK
6
CONTINUOUS
10
3.0941
20
-6.25971
11
3.09523
21
-6.25886
0
LINE
8
BLACK
6
CONTINUOUS
10
3.09523
20
-6.25886
11
3.09532
21
-6.25885
0
LINE
8
BLACK
6
CONTINUOUS
10
3.09532
20
-6.25885
11
3.09538
21
-6.25879
0
LINE
8
BLACK
6
CONTINUOUS
10
3.09538
20
-6.25879
11
3.101
21
-6.25598
0
LINE
8
BLACK
6
CONTINUOUS
10
3.101
20
-6.25598
11
3.10235
21
-6.25553
0
LINE
8
BLACK
6
CONTINUOUS
10
3.10235
20
-6.25553
11
3.10278
21
-6.25558
0
LINE
8
BLACK
6
CONTINUOUS
10
3.10278
20
-6.25558
11
3.10321
21
-6.25546
0
LINE
8
BLACK
6
CONTINUOUS
10
3.10321
20
-6.25546
11
3.11445
21
-6.25546
0
LINE
8
BLACK
6
CONTINUOUS
10
3.11445
20
-6.25546
11
3.11516
21
-6.25556
0
LINE
8
BLACK
6
CONTINUOUS
10
3.11516
20
-6.25556
11
3.11516
21
-6.24069
0
LINE
8
BLACK
6
CONTINUOUS
10
3.11516
20
-6.24069
11
3.11536
21
-6.23929
0
LINE
8
BLACK
6
CONTINUOUS
10
3.11536
20
-6.23929
11
3.11686
21
-6.23697
0
LINE
8
BLACK
6
CONTINUOUS
10
3.11686
20
-6.23697
11
3.11939
21
-6.23582
0
LINE
8
BLACK
6
CONTINUOUS
10
3.11939
20
-6.23582
11
3.12213
21
-6.23622
0
LINE
8
BLACK
6
CONTINUOUS
10
3.10437
20
-6.2653
11
3.1005
21
-6.26723
0
LINE
8
BLACK
6
CONTINUOUS
10
3.1005
20
-6.26723
11
3.09881
21
-6.26892
0
LINE
8
BLACK
6
CONTINUOUS
10
3.09881
20
-6.26892
11
3.09688
21
-6.27279
0
LINE
8
BLACK
6
CONTINUOUS
10
3.09688
20
-6.27279
11
3.09688
21
-6.28734
0
LINE
8
BLACK
6
CONTINUOUS
10
3.09688
20
-6.28734
11
3.09881
21
-6.29121
0
LINE
8
BLACK
6
CONTINUOUS
10
3.09881
20
-6.29121
11
3.1005
21
-6.29289
0
LINE
8
BLACK
6
CONTINUOUS
10
3.1005
20
-6.29289
11
3.10437
21
-6.29483
0
LINE
8
BLACK
6
CONTINUOUS
10
3.10437
20
-6.29483
11
3.11329
21
-6.29483
0
LINE
8
BLACK
6
CONTINUOUS
10
3.11329
20
-6.29483
11
3.11516
21
-6.29389
0
LINE
8
BLACK
6
CONTINUOUS
10
3.11516
20
-6.29389
11
3.11516
21
-6.26623
0
LINE
8
BLACK
6
CONTINUOUS
10
3.11516
20
-6.26623
11
3.11329
21
-6.2653
0
LINE
8
BLACK
6
CONTINUOUS
10
3.11329
20
-6.2653
11
3.10437
21
-6.2653
0
LINE
8
BLACK
6
CONTINUOUS
10
3.41675
20
-6.25566
11
3.41712
21
-6.2559
0
LINE
8
BLACK
6
CONTINUOUS
10
3.41712
20
-6.2559
11
3.41756
21
-6.25598
0
LINE
8
BLACK
6
CONTINUOUS
10
3.41756
20
-6.25598
11
3.42318
21
-6.25879
0
LINE
8
BLACK
6
CONTINUOUS
10
3.42318
20
-6.25879
11
3.42434
21
-6.25959
0
LINE
8
BLACK
6
CONTINUOUS
10
3.42434
20
-6.25959
11
3.42575
21
-6.26198
0
LINE
8
BLACK
6
CONTINUOUS
10
3.42575
20
-6.26198
11
3.42565
21
-6.26475
0
LINE
8
BLACK
6
CONTINUOUS
10
3.42565
20
-6.26475
11
3.42406
21
-6.26702
0
LINE
8
BLACK
6
CONTINUOUS
10
3.42406
20
-6.26702
11
3.4215
21
-6.26808
0
LINE
8
BLACK
6
CONTINUOUS
10
3.4215
20
-6.26808
11
3.41878
21
-6.26759
0
LINE
8
BLACK
6
CONTINUOUS
10
3.41878
20
-6.26759
11
3.41419
21
-6.2653
0
LINE
8
BLACK
6
CONTINUOUS
10
3.41419
20
-6.2653
11
3.40527
21
-6.2653
0
LINE
8
BLACK
6
CONTINUOUS
10
3.40527
20
-6.2653
11
3.40215
21
-6.26686
0
LINE
8
BLACK
6
CONTINUOUS
10
3.40215
20
-6.26686
11
3.40059
21
-6.26998
0
LINE
8
BLACK
6
CONTINUOUS
10
3.40059
20
-6.26998
11
3.40059
21
-6.2714
0
LINE
8
BLACK
6
CONTINUOUS
10
3.40059
20
-6.2714
11
3.40246
21
-6.27233
0
LINE
8
BLACK
6
CONTINUOUS
10
3.40246
20
-6.27233
11
3.41535
21
-6.27233
0
LINE
8
BLACK
6
CONTINUOUS
10
3.41535
20
-6.27233
11
3.41675
21
-6.27253
0
LINE
8
BLACK
6
CONTINUOUS
10
3.41675
20
-6.27253
11
3.41712
21
-6.27277
0
LINE
8
BLACK
6
CONTINUOUS
10
3.41712
20
-6.27277
11
3.41756
21
-6.27285
0
LINE
8
BLACK
6
CONTINUOUS
10
3.41756
20
-6.27285
11
3.42318
21
-6.27566
0
LINE
8
BLACK
6
CONTINUOUS
10
3.42318
20
-6.27566
11
3.42339
21
-6.2758
0
LINE
8
BLACK
6
CONTINUOUS
10
3.42339
20
-6.2758
11
3.42349
21
-6.27583
0
LINE
8
BLACK
6
CONTINUOUS
10
3.42349
20
-6.27583
11
3.42362
21
-6.27596
0
LINE
8
BLACK
6
CONTINUOUS
10
3.42362
20
-6.27596
11
3.42434
21
-6.27647
0
LINE
8
BLACK
6
CONTINUOUS
10
3.42434
20
-6.27647
11
3.42478
21
-6.27722
0
LINE
8
BLACK
6
CONTINUOUS
10
3.42478
20
-6.27722
11
3.42538
21
-6.27786
0
LINE
8
BLACK
6
CONTINUOUS
10
3.42538
20
-6.27786
11
3.42819
21
-6.28349
0
LINE
8
BLACK
6
CONTINUOUS
10
3.42819
20
-6.28349
11
3.42864
21
-6.28483
0
LINE
8
BLACK
6
CONTINUOUS
10
3.42864
20
-6.28483
11
3.42859
21
-6.28526
0
LINE
8
BLACK
6
CONTINUOUS
10
3.42859
20
-6.28526
11
3.42871
21
-6.28569
0
LINE
8
BLACK
6
CONTINUOUS
10
3.42871
20
-6.28569
11
3.42871
21
-6.29131
0
LINE
8
BLACK
6
CONTINUOUS
10
3.42871
20
-6.29131
11
3.42851
21
-6.29271
0
LINE
8
BLACK
6
CONTINUOUS
10
3.42851
20
-6.29271
11
3.42827
21
-6.29308
0
LINE
8
BLACK
6
CONTINUOUS
10
3.42827
20
-6.29308
11
3.42819
21
-6.29351
0
LINE
8
BLACK
6
CONTINUOUS
10
3.42819
20
-6.29351
11
3.42538
21
-6.29914
0
LINE
8
BLACK
6
CONTINUOUS
10
3.42538
20
-6.29914
11
3.42524
21
-6.29934
0
LINE
8
BLACK
6
CONTINUOUS
10
3.42524
20
-6.29934
11
3.42521
21
-6.29945
0
LINE
8
BLACK
6
CONTINUOUS
10
3.42521
20
-6.29945
11
3.42508
21
-6.29957
0
LINE
8
BLACK
6
CONTINUOUS
10
3.42508
20
-6.29957
11
3.42457
21
-6.3003
0
LINE
8
BLACK
6
CONTINUOUS
10
3.42457
20
-6.3003
11
3.42382
21
-6.30074
0
LINE
8
BLACK
6
CONTINUOUS
10
3.42382
20
-6.30074
11
3.42318
21
-6.30134
0
LINE
8
BLACK
6
CONTINUOUS
10
3.42318
20
-6.30134
11
3.41756
21
-6.30415
0
LINE
8
BLACK
6
CONTINUOUS
10
3.41756
20
-6.30415
11
3.41621
21
-6.30459
0
LINE
8
BLACK
6
CONTINUOUS
10
3.41621
20
-6.30459
11
3.41578
21
-6.30454
0
LINE
8
BLACK
6
CONTINUOUS
10
3.41578
20
-6.30454
11
3.41535
21
-6.30467
0
LINE
8
BLACK
6
CONTINUOUS
10
3.41535
20
-6.30467
11
3.40129
21
-6.30467
0
LINE
8
BLACK
6
CONTINUOUS
10
3.40129
20
-6.30467
11
3.3999
21
-6.30447
0
LINE
8
BLACK
6
CONTINUOUS
10
3.3999
20
-6.30447
11
3.39953
21
-6.30423
0
LINE
8
BLACK
6
CONTINUOUS
10
3.39953
20
-6.30423
11
3.39909
21
-6.30415
0
LINE
8
BLACK
6
CONTINUOUS
10
3.39909
20
-6.30415
11
3.39829
21
-6.30374
0
LINE
8
BLACK
6
CONTINUOUS
10
3.39829
20
-6.30374
11
3.39636
21
-6.30462
0
LINE
8
BLACK
6
CONTINUOUS
10
3.39636
20
-6.30462
11
3.39362
21
-6.30422
0
LINE
8
BLACK
6
CONTINUOUS
10
3.39362
20
-6.30422
11
3.39153
21
-6.30241
0
LINE
8
BLACK
6
CONTINUOUS
10
3.39153
20
-6.30241
11
3.39075
21
-6.29975
0
LINE
8
BLACK
6
CONTINUOUS
10
3.39075
20
-6.29975
11
3.39075
21
-6.26881
0
LINE
8
BLACK
6
CONTINUOUS
10
3.39075
20
-6.26881
11
3.39095
21
-6.26742
0
LINE
8
BLACK
6
CONTINUOUS
10
3.39095
20
-6.26742
11
3.39119
21
-6.26705
0
LINE
8
BLACK
6
CONTINUOUS
10
3.39119
20
-6.26705
11
3.39127
21
-6.26661
0
LINE
8
BLACK
6
CONTINUOUS
10
3.39127
20
-6.26661
11
3.39408
21
-6.26099
0
LINE
8
BLACK
6
CONTINUOUS
10
3.39408
20
-6.26099
11
3.39422
21
-6.26078
0
LINE
8
BLACK
6
CONTINUOUS
10
3.39422
20
-6.26078
11
3.39425
21
-6.26067
0
LINE
8
BLACK
6
CONTINUOUS
10
3.39425
20
-6.26067
11
3.39438
21
-6.26055
0
LINE
8
BLACK
6
CONTINUOUS
10
3.39438
20
-6.26055
11
3.39489
21
-6.25983
0
LINE
8
BLACK
6
CONTINUOUS
10
3.39489
20
-6.25983
11
3.39564
21
-6.25938
0
LINE
8
BLACK
6
CONTINUOUS
10
3.39564
20
-6.25938
11
3.39628
21
-6.25879
0
LINE
8
BLACK
6
CONTINUOUS
10
3.39628
20
-6.25879
11
3.4019
21
-6.25598
0
LINE
8
BLACK
6
CONTINUOUS
10
3.4019
20
-6.25598
11
3.40325
21
-6.25553
0
LINE
8
BLACK
6
CONTINUOUS
10
3.40325
20
-6.25553
11
3.40368
21
-6.25558
0
LINE
8
BLACK
6
CONTINUOUS
10
3.40368
20
-6.25558
11
3.40411
21
-6.25546
0
LINE
8
BLACK
6
CONTINUOUS
10
3.40411
20
-6.25546
11
3.41535
21
-6.25546
0
LINE
8
BLACK
6
CONTINUOUS
10
3.41535
20
-6.25546
11
3.41675
21
-6.25566
0
LINE
8
BLACK
6
CONTINUOUS
10
3.40059
20
-6.29389
11
3.40246
21
-6.29483
0
LINE
8
BLACK
6
CONTINUOUS
10
3.40246
20
-6.29483
11
3.41419
21
-6.29483
0
LINE
8
BLACK
6
CONTINUOUS
10
3.41419
20
-6.29483
11
3.41731
21
-6.29327
0
LINE
8
BLACK
6
CONTINUOUS
10
3.41731
20
-6.29327
11
3.41887
21
-6.29015
0
LINE
8
BLACK
6
CONTINUOUS
10
3.41887
20
-6.29015
11
3.41887
21
-6.28685
0
LINE
8
BLACK
6
CONTINUOUS
10
3.41887
20
-6.28685
11
3.41731
21
-6.28373
0
LINE
8
BLACK
6
CONTINUOUS
10
3.41731
20
-6.28373
11
3.41419
21
-6.28217
0
LINE
8
BLACK
6
CONTINUOUS
10
3.41419
20
-6.28217
11
3.40129
21
-6.28217
0
LINE
8
BLACK
6
CONTINUOUS
10
3.40129
20
-6.28217
11
3.40059
21
-6.28207
0
LINE
8
BLACK
6
CONTINUOUS
10
3.40059
20
-6.28207
11
3.40059
21
-6.29389
0
LINE
8
BLACK
6
CONTINUOUS
10
3.36051
20
-6.25566
11
3.36088
21
-6.2559
0
LINE
8
BLACK
6
CONTINUOUS
10
3.36088
20
-6.2559
11
3.36131
21
-6.25598
0
LINE
8
BLACK
6
CONTINUOUS
10
3.36131
20
-6.25598
11
3.36694
21
-6.25879
0
LINE
8
BLACK
6
CONTINUOUS
10
3.36694
20
-6.25879
11
3.3681
21
-6.25959
0
LINE
8
BLACK
6
CONTINUOUS
10
3.3681
20
-6.25959
11
3.36814
21
-6.25967
0
LINE
8
BLACK
6
CONTINUOUS
10
3.36814
20
-6.25967
11
3.36822
21
-6.25971
0
LINE
8
BLACK
6
CONTINUOUS
10
3.36822
20
-6.25971
11
3.37103
21
-6.26252
0
LINE
8
BLACK
6
CONTINUOUS
10
3.37103
20
-6.26252
11
3.37187
21
-6.26365
0
LINE
8
BLACK
6
CONTINUOUS
10
3.37187
20
-6.26365
11
3.37189
21
-6.26374
0
LINE
8
BLACK
6
CONTINUOUS
10
3.37189
20
-6.26374
11
3.37195
21
-6.2638
0
LINE
8
BLACK
6
CONTINUOUS
10
3.37195
20
-6.2638
11
3.37476
21
-6.26942
0
LINE
8
BLACK
6
CONTINUOUS
10
3.37476
20
-6.26942
11
3.37521
21
-6.27077
0
LINE
8
BLACK
6
CONTINUOUS
10
3.37521
20
-6.27077
11
3.37516
21
-6.2712
0
LINE
8
BLACK
6
CONTINUOUS
10
3.37516
20
-6.2712
11
3.37528
21
-6.27163
0
LINE
8
BLACK
6
CONTINUOUS
10
3.37528
20
-6.27163
11
3.37528
21
-6.2885
0
LINE
8
BLACK
6
CONTINUOUS
10
3.37528
20
-6.2885
11
3.37508
21
-6.2899
0
LINE
8
BLACK
6
CONTINUOUS
10
3.37508
20
-6.2899
11
3.37484
21
-6.29027
0
LINE
8
BLACK
6
CONTINUOUS
10
3.37484
20
-6.29027
11
3.37476
21
-6.2907
0
LINE
8
BLACK
6
CONTINUOUS
10
3.37476
20
-6.2907
11
3.37195
21
-6.29632
0
LINE
8
BLACK
6
CONTINUOUS
10
3.37195
20
-6.29632
11
3.37114
21
-6.29748
0
LINE
8
BLACK
6
CONTINUOUS
10
3.37114
20
-6.29748
11
3.37107
21
-6.29753
0
LINE
8
BLACK
6
CONTINUOUS
10
3.37107
20
-6.29753
11
3.37103
21
-6.2976
0
LINE
8
BLACK
6
CONTINUOUS
10
3.37103
20
-6.2976
11
3.36822
21
-6.30041
0
LINE
8
BLACK
6
CONTINUOUS
10
3.36822
20
-6.30041
11
3.36708
21
-6.30126
0
LINE
8
BLACK
6
CONTINUOUS
10
3.36708
20
-6.30126
11
3.367
21
-6.30128
0
LINE
8
BLACK
6
CONTINUOUS
10
3.367
20
-6.30128
11
3.36694
21
-6.30134
0
LINE
8
BLACK
6
CONTINUOUS
10
3.36694
20
-6.30134
11
3.36131
21
-6.30415
0
LINE
8
BLACK
6
CONTINUOUS
10
3.36131
20
-6.30415
11
3.35997
21
-6.30459
0
LINE
8
BLACK
6
CONTINUOUS
10
3.35997
20
-6.30459
11
3.35953
21
-6.30454
0
LINE
8
BLACK
6
CONTINUOUS
10
3.35953
20
-6.30454
11
3.35911
21
-6.30467
0
LINE
8
BLACK
6
CONTINUOUS
10
3.35911
20
-6.30467
11
3.34786
21
-6.30467
0
LINE
8
BLACK
6
CONTINUOUS
10
3.34786
20
-6.30467
11
3.34647
21
-6.30447
0
LINE
8
BLACK
6
CONTINUOUS
10
3.34647
20
-6.30447
11
3.3461
21
-6.30423
0
LINE
8
BLACK
6
CONTINUOUS
10
3.3461
20
-6.30423
11
3.34566
21
-6.30415
0
LINE
8
BLACK
6
CONTINUOUS
10
3.34566
20
-6.30415
11
3.34004
21
-6.30134
0
LINE
8
BLACK
6
CONTINUOUS
10
3.34004
20
-6.30134
11
3.33888
21
-6.30053
0
LINE
8
BLACK
6
CONTINUOUS
10
3.33888
20
-6.30053
11
3.33747
21
-6.29814
0
LINE
8
BLACK
6
CONTINUOUS
10
3.33747
20
-6.29814
11
3.33757
21
-6.29538
0
LINE
8
BLACK
6
CONTINUOUS
10
3.33757
20
-6.29538
11
3.33915
21
-6.2931
0
LINE
8
BLACK
6
CONTINUOUS
10
3.33915
20
-6.2931
11
3.34171
21
-6.29204
0
LINE
8
BLACK
6
CONTINUOUS
10
3.34171
20
-6.29204
11
3.34444
21
-6.29253
0
LINE
8
BLACK
6
CONTINUOUS
10
3.34444
20
-6.29253
11
3.34902
21
-6.29483
0
LINE
8
BLACK
6
CONTINUOUS
10
3.34902
20
-6.29483
11
3.35795
21
-6.29483
0
LINE
8
BLACK
6
CONTINUOUS
10
3.35795
20
-6.29483
11
3.36182
21
-6.29289
0
LINE
8
BLACK
6
CONTINUOUS
10
3.36182
20
-6.29289
11
3.3635
21
-6.29121
0
LINE
8
BLACK
6
CONTINUOUS
10
3.3635
20
-6.29121
11
3.36544
21
-6.28734
0
LINE
8
BLACK
6
CONTINUOUS
10
3.36544
20
-6.28734
11
3.36544
21
-6.27279
0
LINE
8
BLACK
6
CONTINUOUS
10
3.36544
20
-6.27279
11
3.3635
21
-6.26892
0
LINE
8
BLACK
6
CONTINUOUS
10
3.3635
20
-6.26892
11
3.36182
21
-6.26723
0
LINE
8
BLACK
6
CONTINUOUS
10
3.36182
20
-6.26723
11
3.35795
21
-6.2653
0
LINE
8
BLACK
6
CONTINUOUS
10
3.35795
20
-6.2653
11
3.34902
21
-6.2653
0
LINE
8
BLACK
6
CONTINUOUS
10
3.34902
20
-6.2653
11
3.34444
21
-6.26759
0
LINE
8
BLACK
6
CONTINUOUS
10
3.34444
20
-6.26759
11
3.3431
21
-6.26803
0
LINE
8
BLACK
6
CONTINUOUS
10
3.3431
20
-6.26803
11
3.34034
21
-6.26773
0
LINE
8
BLACK
6
CONTINUOUS
10
3.34034
20
-6.26773
11
3.33819
21
-6.26599
0
LINE
8
BLACK
6
CONTINUOUS
10
3.33819
20
-6.26599
11
3.33732
21
-6.26336
0
LINE
8
BLACK
6
CONTINUOUS
10
3.33732
20
-6.26336
11
3.33801
21
-6.26067
0
LINE
8
BLACK
6
CONTINUOUS
10
3.33801
20
-6.26067
11
3.34004
21
-6.25879
0
LINE
8
BLACK
6
CONTINUOUS
10
3.34004
20
-6.25879
11
3.34566
21
-6.25598
0
LINE
8
BLACK
6
CONTINUOUS
10
3.34566
20
-6.25598
11
3.347
21
-6.25553
0
LINE
8
BLACK
6
CONTINUOUS
10
3.347
20
-6.25553
11
3.34744
21
-6.25558
0
LINE
8
BLACK
6
CONTINUOUS
10
3.34744
20
-6.25558
11
3.34786
21
-6.25546
0
LINE
8
BLACK
6
CONTINUOUS
10
3.34786
20
-6.25546
11
3.35911
21
-6.25546
0
LINE
8
BLACK
6
CONTINUOUS
10
3.35911
20
-6.25546
11
3.36051
21
-6.25566
0
LINE
8
BLACK
6
CONTINUOUS
10
3.06242
20
-6.25566
11
3.06279
21
-6.2559
0
LINE
8
BLACK
6
CONTINUOUS
10
3.06279
20
-6.2559
11
3.06322
21
-6.25598
0
LINE
8
BLACK
6
CONTINUOUS
10
3.06322
20
-6.25598
11
3.06885
21
-6.25879
0
LINE
8
BLACK
6
CONTINUOUS
10
3.06885
20
-6.25879
11
3.06906
21
-6.25893
0
LINE
8
BLACK
6
CONTINUOUS
10
3.06906
20
-6.25893
11
3.06916
21
-6.25896
0
LINE
8
BLACK
6
CONTINUOUS
10
3.06916
20
-6.25896
11
3.06929
21
-6.25909
0
LINE
8
BLACK
6
CONTINUOUS
10
3.06929
20
-6.25909
11
3.07001
21
-6.25959
0
LINE
8
BLACK
6
CONTINUOUS
10
3.07001
20
-6.25959
11
3.07045
21
-6.26035
0
LINE
8
BLACK
6
CONTINUOUS
10
3.07045
20
-6.26035
11
3.07105
21
-6.26099
0
LINE
8
BLACK
6
CONTINUOUS
10
3.07105
20
-6.26099
11
3.07386
21
-6.26661
0
LINE
8
BLACK
6
CONTINUOUS
10
3.07386
20
-6.26661
11
3.07431
21
-6.26795
0
LINE
8
BLACK
6
CONTINUOUS
10
3.07431
20
-6.26795
11
3.07426
21
-6.26839
0
LINE
8
BLACK
6
CONTINUOUS
10
3.07426
20
-6.26839
11
3.07438
21
-6.26881
0
LINE
8
BLACK
6
CONTINUOUS
10
3.07438
20
-6.26881
11
3.07438
21
-6.27163
0
LINE
8
BLACK
6
CONTINUOUS
10
3.07438
20
-6.27163
11
3.07418
21
-6.27302
0
LINE
8
BLACK
6
CONTINUOUS
10
3.07418
20
-6.27302
11
3.07394
21
-6.27339
0
LINE
8
BLACK
6
CONTINUOUS
10
3.07394
20
-6.27339
11
3.07386
21
-6.27383
0
LINE
8
BLACK
6
CONTINUOUS
10
3.07386
20
-6.27383
11
3.07105
21
-6.27945
0
LINE
8
BLACK
6
CONTINUOUS
10
3.07105
20
-6.27945
11
3.07091
21
-6.27966
0
LINE
8
BLACK
6
CONTINUOUS
10
3.07091
20
-6.27966
11
3.07088
21
-6.27976
0
LINE
8
BLACK
6
CONTINUOUS
10
3.07088
20
-6.27976
11
3.07075
21
-6.27989
0
LINE
8
BLACK
6
CONTINUOUS
10
3.07075
20
-6.27989
11
3.07024
21
-6.28061
0
LINE
8
BLACK
6
CONTINUOUS
10
3.07024
20
-6.28061
11
3.06949
21
-6.28106
0
LINE
8
BLACK
6
CONTINUOUS
10
3.06949
20
-6.28106
11
3.06885
21
-6.28165
0
LINE
8
BLACK
6
CONTINUOUS
10
3.06885
20
-6.28165
11
3.06322
21
-6.28446
0
LINE
8
BLACK
6
CONTINUOUS
10
3.06322
20
-6.28446
11
3.06188
21
-6.28491
0
LINE
8
BLACK
6
CONTINUOUS
10
3.06188
20
-6.28491
11
3.06145
21
-6.28486
0
LINE
8
BLACK
6
CONTINUOUS
10
3.06145
20
-6.28486
11
3.06102
21
-6.28498
0
LINE
8
BLACK
6
CONTINUOUS
10
3.06102
20
-6.28498
11
3.05375
21
-6.28498
0
LINE
8
BLACK
6
CONTINUOUS
10
3.05375
20
-6.28498
11
3.05063
21
-6.28654
0
LINE
8
BLACK
6
CONTINUOUS
10
3.05063
20
-6.28654
11
3.04907
21
-6.28966
0
LINE
8
BLACK
6
CONTINUOUS
10
3.04907
20
-6.28966
11
3.04907
21
-6.29015
0
LINE
8
BLACK
6
CONTINUOUS
10
3.04907
20
-6.29015
11
3.05063
21
-6.29327
0
LINE
8
BLACK
6
CONTINUOUS
10
3.05063
20
-6.29327
11
3.05375
21
-6.29483
0
LINE
8
BLACK
6
CONTINUOUS
10
3.05375
20
-6.29483
11
3.06267
21
-6.29483
0
LINE
8
BLACK
6
CONTINUOUS
10
3.06267
20
-6.29483
11
3.06726
21
-6.29253
0
LINE
8
BLACK
6
CONTINUOUS
10
3.06726
20
-6.29253
11
3.0686
21
-6.29209
0
LINE
8
BLACK
6
CONTINUOUS
10
3.0686
20
-6.29209
11
3.07135
21
-6.29239
0
LINE
8
BLACK
6
CONTINUOUS
10
3.07135
20
-6.29239
11
3.07351
21
-6.29414
0
LINE
8
BLACK
6
CONTINUOUS
10
3.07351
20
-6.29414
11
3.07438
21
-6.29677
0
LINE
8
BLACK
6
CONTINUOUS
10
3.07438
20
-6.29677
11
3.07369
21
-6.29945
0
LINE
8
BLACK
6
CONTINUOUS
10
3.07369
20
-6.29945
11
3.07166
21
-6.30134
0
LINE
8
BLACK
6
CONTINUOUS
10
3.07166
20
-6.30134
11
3.06604
21
-6.30415
0
LINE
8
BLACK
6
CONTINUOUS
10
3.06604
20
-6.30415
11
3.0647
21
-6.30459
0
LINE
8
BLACK
6
CONTINUOUS
10
3.0647
20
-6.30459
11
3.06426
21
-6.30454
0
LINE
8
BLACK
6
CONTINUOUS
10
3.06426
20
-6.30454
11
3.06384
21
-6.30467
0
LINE
8
BLACK
6
CONTINUOUS
10
3.06384
20
-6.30467
11
3.05259
21
-6.30467
0
LINE
8
BLACK
6
CONTINUOUS
10
3.05259
20
-6.30467
11
3.05119
21
-6.30447
0
LINE
8
BLACK
6
CONTINUOUS
10
3.05119
20
-6.30447
11
3.05082
21
-6.30423
0
LINE
8
BLACK
6
CONTINUOUS
10
3.05082
20
-6.30423
11
3.05039
21
-6.30415
0
LINE
8
BLACK
6
CONTINUOUS
10
3.05039
20
-6.30415
11
3.04476
21
-6.30134
0
LINE
8
BLACK
6
CONTINUOUS
10
3.04476
20
-6.30134
11
3.04455
21
-6.30119
0
LINE
8
BLACK
6
CONTINUOUS
10
3.04455
20
-6.30119
11
3.04445
21
-6.30116
0
LINE
8
BLACK
6
CONTINUOUS
10
3.04445
20
-6.30116
11
3.04432
21
-6.30103
0
LINE
8
BLACK
6
CONTINUOUS
10
3.04432
20
-6.30103
11
3.0436
21
-6.30053
0
LINE
8
BLACK
6
CONTINUOUS
10
3.0436
20
-6.30053
11
3.04316
21
-6.29978
0
LINE
8
BLACK
6
CONTINUOUS
10
3.04316
20
-6.29978
11
3.04256
21
-6.29914
0
LINE
8
BLACK
6
CONTINUOUS
10
3.04256
20
-6.29914
11
3.03975
21
-6.29351
0
LINE
8
BLACK
6
CONTINUOUS
10
3.03975
20
-6.29351
11
3.03931
21
-6.29217
0
LINE
8
BLACK
6
CONTINUOUS
10
3.03931
20
-6.29217
11
3.03935
21
-6.29173
0
LINE
8
BLACK
6
CONTINUOUS
10
3.03935
20
-6.29173
11
3.03923
21
-6.29131
0
LINE
8
BLACK
6
CONTINUOUS
10
3.03923
20
-6.29131
11
3.03923
21
-6.2885
0
LINE
8
BLACK
6
CONTINUOUS
10
3.03923
20
-6.2885
11
3.03943
21
-6.2871
0
LINE
8
BLACK
6
CONTINUOUS
10
3.03943
20
-6.2871
11
3.03967
21
-6.28673
0
LINE
8
BLACK
6
CONTINUOUS
10
3.03967
20
-6.28673
11
3.03975
21
-6.2863
0
LINE
8
BLACK
6
CONTINUOUS
10
3.03975
20
-6.2863
11
3.04256
21
-6.28067
0
LINE
8
BLACK
6
CONTINUOUS
10
3.04256
20
-6.28067
11
3.04271
21
-6.28047
0
LINE
8
BLACK
6
CONTINUOUS
10
3.04271
20
-6.28047
11
3.04273
21
-6.28036
0
LINE
8
BLACK
6
CONTINUOUS
10
3.04273
20
-6.28036
11
3.04287
21
-6.28024
0
LINE
8
BLACK
6
CONTINUOUS
10
3.04287
20
-6.28024
11
3.04337
21
-6.27951
0
LINE
8
BLACK
6
CONTINUOUS
10
3.04337
20
-6.27951
11
3.04412
21
-6.27907
0
LINE
8
BLACK
6
CONTINUOUS
10
3.04412
20
-6.27907
11
3.04476
21
-6.27847
0
LINE
8
BLACK
6
CONTINUOUS
10
3.04476
20
-6.27847
11
3.05039
21
-6.27566
0
LINE
8
BLACK
6
CONTINUOUS
10
3.05039
20
-6.27566
11
3.05173
21
-6.27522
0
LINE
8
BLACK
6
CONTINUOUS
10
3.05173
20
-6.27522
11
3.05216
21
-6.27526
0
LINE
8
BLACK
6
CONTINUOUS
10
3.05216
20
-6.27526
11
3.05259
21
-6.27514
0
LINE
8
BLACK
6
CONTINUOUS
10
3.05259
20
-6.27514
11
3.05986
21
-6.27514
0
LINE
8
BLACK
6
CONTINUOUS
10
3.05986
20
-6.27514
11
3.06298
21
-6.27358
0
LINE
8
BLACK
6
CONTINUOUS
10
3.06298
20
-6.27358
11
3.06454
21
-6.27046
0
LINE
8
BLACK
6
CONTINUOUS
10
3.06454
20
-6.27046
11
3.06454
21
-6.26997
0
LINE
8
BLACK
6
CONTINUOUS
10
3.06454
20
-6.26997
11
3.06298
21
-6.26686
0
LINE
8
BLACK
6
CONTINUOUS
10
3.06298
20
-6.26686
11
3.05986
21
-6.2653
0
LINE
8
BLACK
6
CONTINUOUS
10
3.05986
20
-6.2653
11
3.05375
21
-6.2653
0
LINE
8
BLACK
6
CONTINUOUS
10
3.05375
20
-6.2653
11
3.04916
21
-6.26759
0
LINE
8
BLACK
6
CONTINUOUS
10
3.04916
20
-6.26759
11
3.04782
21
-6.26803
0
LINE
8
BLACK
6
CONTINUOUS
10
3.04782
20
-6.26803
11
3.04507
21
-6.26773
0
LINE
8
BLACK
6
CONTINUOUS
10
3.04507
20
-6.26773
11
3.04292
21
-6.26599
0
LINE
8
BLACK
6
CONTINUOUS
10
3.04292
20
-6.26599
11
3.04204
21
-6.26336
0
LINE
8
BLACK
6
CONTINUOUS
10
3.04204
20
-6.26336
11
3.04273
21
-6.26067
0
LINE
8
BLACK
6
CONTINUOUS
10
3.04273
20
-6.26067
11
3.04476
21
-6.25879
0
LINE
8
BLACK
6
CONTINUOUS
10
3.04476
20
-6.25879
11
3.05039
21
-6.25598
0
LINE
8
BLACK
6
CONTINUOUS
10
3.05039
20
-6.25598
11
3.05173
21
-6.25553
0
LINE
8
BLACK
6
CONTINUOUS
10
3.05173
20
-6.25553
11
3.05216
21
-6.25558
0
LINE
8
BLACK
6
CONTINUOUS
10
3.05216
20
-6.25558
11
3.05259
21
-6.25546
0
LINE
8
BLACK
6
CONTINUOUS
10
3.05259
20
-6.25546
11
3.06102
21
-6.25546
0
LINE
8
BLACK
6
CONTINUOUS
10
3.06102
20
-6.25546
11
3.06242
21
-6.25566
0
LINE
8
BLACK
6
CONTINUOUS
10
3.44769
20
-6.23597
11
3.44806
21
-6.23621
0
LINE
8
BLACK
6
CONTINUOUS
10
3.44806
20
-6.23621
11
3.44849
21
-6.23629
0
LINE
8
BLACK
6
CONTINUOUS
10
3.44849
20
-6.23629
11
3.45411
21
-6.2391
0
LINE
8
BLACK
6
CONTINUOUS
10
3.45411
20
-6.2391
11
3.45432
21
-6.23925
0
LINE
8
BLACK
6
CONTINUOUS
10
3.45432
20
-6.23925
11
3.45443
21
-6.23927
0
LINE
8
BLACK
6
CONTINUOUS
10
3.45443
20
-6.23927
11
3.45455
21
-6.23941
0
LINE
8
BLACK
6
CONTINUOUS
10
3.45455
20
-6.23941
11
3.45527
21
-6.23991
0
LINE
8
BLACK
6
CONTINUOUS
10
3.45527
20
-6.23991
11
3.45572
21
-6.24066
0
LINE
8
BLACK
6
CONTINUOUS
10
3.45572
20
-6.24066
11
3.45631
21
-6.2413
0
LINE
8
BLACK
6
CONTINUOUS
10
3.45631
20
-6.2413
11
3.45913
21
-6.24693
0
LINE
8
BLACK
6
CONTINUOUS
10
3.45913
20
-6.24693
11
3.45957
21
-6.24827
0
LINE
8
BLACK
6
CONTINUOUS
10
3.45957
20
-6.24827
11
3.45952
21
-6.24871
0
LINE
8
BLACK
6
CONTINUOUS
10
3.45952
20
-6.24871
11
3.45965
21
-6.24913
0
LINE
8
BLACK
6
CONTINUOUS
10
3.45965
20
-6.24913
11
3.45965
21
-6.25546
0
LINE
8
BLACK
6
CONTINUOUS
10
3.45965
20
-6.25546
11
3.46316
21
-6.25546
0
LINE
8
BLACK
6
CONTINUOUS
10
3.46316
20
-6.25546
11
3.46456
21
-6.25566
0
LINE
8
BLACK
6
CONTINUOUS
10
3.46456
20
-6.25566
11
3.46689
21
-6.25716
0
LINE
8
BLACK
6
CONTINUOUS
10
3.46689
20
-6.25716
11
3.46803
21
-6.25968
0
LINE
8
BLACK
6
CONTINUOUS
10
3.46803
20
-6.25968
11
3.46764
21
-6.26243
0
LINE
8
BLACK
6
CONTINUOUS
10
3.46764
20
-6.26243
11
3.46582
21
-6.26452
0
LINE
8
BLACK
6
CONTINUOUS
10
3.46582
20
-6.26452
11
3.46316
21
-6.2653
0
LINE
8
BLACK
6
CONTINUOUS
10
3.46316
20
-6.2653
11
3.45965
21
-6.2653
0
LINE
8
BLACK
6
CONTINUOUS
10
3.45965
20
-6.2653
11
3.45965
21
-6.29975
0
LINE
8
BLACK
6
CONTINUOUS
10
3.45965
20
-6.29975
11
3.45944
21
-6.30114
0
LINE
8
BLACK
6
CONTINUOUS
10
3.45944
20
-6.30114
11
3.45794
21
-6.30347
0
LINE
8
BLACK
6
CONTINUOUS
10
3.45794
20
-6.30347
11
3.45542
21
-6.30462
0
LINE
8
BLACK
6
CONTINUOUS
10
3.45542
20
-6.30462
11
3.45268
21
-6.30422
0
LINE
8
BLACK
6
CONTINUOUS
10
3.45268
20
-6.30422
11
3.45058
21
-6.30241
0
LINE
8
BLACK
6
CONTINUOUS
10
3.45058
20
-6.30241
11
3.4498
21
-6.29975
0
LINE
8
BLACK
6
CONTINUOUS
10
3.4498
20
-6.29975
11
3.4498
21
-6.2653
0
LINE
8
BLACK
6
CONTINUOUS
10
3.4498
20
-6.2653
11
3.44066
21
-6.2653
0
LINE
8
BLACK
6
CONTINUOUS
10
3.44066
20
-6.2653
11
3.43927
21
-6.2651
0
LINE
8
BLACK
6
CONTINUOUS
10
3.43927
20
-6.2651
11
3.43694
21
-6.26359
0
LINE
8
BLACK
6
CONTINUOUS
10
3.43694
20
-6.26359
11
3.43579
21
-6.26107
0
LINE
8
BLACK
6
CONTINUOUS
10
3.43579
20
-6.26107
11
3.43619
21
-6.25833
0
LINE
8
BLACK
6
CONTINUOUS
10
3.43619
20
-6.25833
11
3.438
21
-6.25624
0
LINE
8
BLACK
6
CONTINUOUS
10
3.438
20
-6.25624
11
3.44066
21
-6.25546
0
LINE
8
BLACK
6
CONTINUOUS
10
3.44066
20
-6.25546
11
3.4498
21
-6.25546
0
LINE
8
BLACK
6
CONTINUOUS
10
3.4498
20
-6.25546
11
3.4498
21
-6.25029
0
LINE
8
BLACK
6
CONTINUOUS
10
3.4498
20
-6.25029
11
3.44824
21
-6.24717
0
LINE
8
BLACK
6
CONTINUOUS
10
3.44824
20
-6.24717
11
3.44513
21
-6.24561
0
LINE
8
BLACK
6
CONTINUOUS
10
3.44513
20
-6.24561
11
3.44066
21
-6.24561
0
LINE
8
BLACK
6
CONTINUOUS
10
3.44066
20
-6.24561
11
3.43927
21
-6.24541
0
LINE
8
BLACK
6
CONTINUOUS
10
3.43927
20
-6.24541
11
3.43694
21
-6.24391
0
LINE
8
BLACK
6
CONTINUOUS
10
3.43694
20
-6.24391
11
3.43579
21
-6.24139
0
LINE
8
BLACK
6
CONTINUOUS
10
3.43579
20
-6.24139
11
3.43619
21
-6.23864
0
LINE
8
BLACK
6
CONTINUOUS
10
3.43619
20
-6.23864
11
3.438
21
-6.23655
0
LINE
8
BLACK
6
CONTINUOUS
10
3.438
20
-6.23655
11
3.44066
21
-6.23577
0
LINE
8
BLACK
6
CONTINUOUS
10
3.44066
20
-6.23577
11
3.44629
21
-6.23577
0
LINE
8
BLACK
6
CONTINUOUS
10
3.44629
20
-6.23577
11
3.44769
21
-6.23597
0
LINE
8
BLACK
6
CONTINUOUS
10
3.50112
20
-6.25566
11
3.50149
21
-6.2559
0
LINE
8
BLACK
6
CONTINUOUS
10
3.50149
20
-6.2559
11
3.50192
21
-6.25598
0
LINE
8
BLACK
6
CONTINUOUS
10
3.50192
20
-6.25598
11
3.50453
21
-6.25728
0
LINE
8
BLACK
6
CONTINUOUS
10
3.50453
20
-6.25728
11
3.50494
21
-6.25665
0
LINE
8
BLACK
6
CONTINUOUS
10
3.50494
20
-6.25665
11
3.50746
21
-6.2555
0
LINE
8
BLACK
6
CONTINUOUS
10
3.50746
20
-6.2555
11
3.5102
21
-6.2559
0
LINE
8
BLACK
6
CONTINUOUS
10
3.5102
20
-6.2559
11
3.5123
21
-6.25772
0
LINE
8
BLACK
6
CONTINUOUS
10
3.5123
20
-6.25772
11
3.51308
21
-6.26038
0
LINE
8
BLACK
6
CONTINUOUS
10
3.51308
20
-6.26038
11
3.51308
21
-6.29975
0
LINE
8
BLACK
6
CONTINUOUS
10
3.51308
20
-6.29975
11
3.51287
21
-6.30114
0
LINE
8
BLACK
6
CONTINUOUS
10
3.51287
20
-6.30114
11
3.51137
21
-6.30347
0
LINE
8
BLACK
6
CONTINUOUS
10
3.51137
20
-6.30347
11
3.50885
21
-6.30462
0
LINE
8
BLACK
6
CONTINUOUS
10
3.50885
20
-6.30462
11
3.50611
21
-6.30422
0
LINE
8
BLACK
6
CONTINUOUS
10
3.50611
20
-6.30422
11
3.50401
21
-6.30241
0
LINE
8
BLACK
6
CONTINUOUS
10
3.50401
20
-6.30241
11
3.50323
21
-6.29975
0
LINE
8
BLACK
6
CONTINUOUS
10
3.50323
20
-6.29975
11
3.50323
21
-6.26804
0
LINE
8
BLACK
6
CONTINUOUS
10
3.50323
20
-6.26804
11
3.50243
21
-6.26723
0
LINE
8
BLACK
6
CONTINUOUS
10
3.50243
20
-6.26723
11
3.49856
21
-6.2653
0
LINE
8
BLACK
6
CONTINUOUS
10
3.49856
20
-6.2653
11
3.49244
21
-6.2653
0
LINE
8
BLACK
6
CONTINUOUS
10
3.49244
20
-6.2653
11
3.48933
21
-6.26686
0
LINE
8
BLACK
6
CONTINUOUS
10
3.48933
20
-6.26686
11
3.48777
21
-6.26997
0
LINE
8
BLACK
6
CONTINUOUS
10
3.48777
20
-6.26997
11
3.48777
21
-6.29975
0
LINE
8
BLACK
6
CONTINUOUS
10
3.48777
20
-6.29975
11
3.48756
21
-6.30114
0
LINE
8
BLACK
6
CONTINUOUS
10
3.48756
20
-6.30114
11
3.48606
21
-6.30347
0
LINE
8
BLACK
6
CONTINUOUS
10
3.48606
20
-6.30347
11
3.48354
21
-6.30462
0
LINE
8
BLACK
6
CONTINUOUS
10
3.48354
20
-6.30462
11
3.4808
21
-6.30422
0
LINE
8
BLACK
6
CONTINUOUS
10
3.4808
20
-6.30422
11
3.4787
21
-6.30241
0
LINE
8
BLACK
6
CONTINUOUS
10
3.4787
20
-6.30241
11
3.47792
21
-6.29975
0
LINE
8
BLACK
6
CONTINUOUS
10
3.47792
20
-6.29975
11
3.47792
21
-6.26881
0
LINE
8
BLACK
6
CONTINUOUS
10
3.47792
20
-6.26881
11
3.47813
21
-6.26742
0
LINE
8
BLACK
6
CONTINUOUS
10
3.47813
20
-6.26742
11
3.47837
21
-6.26705
0
LINE
8
BLACK
6
CONTINUOUS
10
3.47837
20
-6.26705
11
3.47844
21
-6.26661
0
LINE
8
BLACK
6
CONTINUOUS
10
3.47844
20
-6.26661
11
3.48126
21
-6.26099
0
LINE
8
BLACK
6
CONTINUOUS
10
3.48126
20
-6.26099
11
3.4814
21
-6.26078
0
LINE
8
BLACK
6
CONTINUOUS
10
3.4814
20
-6.26078
11
3.48143
21
-6.26067
0
LINE
8
BLACK
6
CONTINUOUS
10
3.48143
20
-6.26067
11
3.48156
21
-6.26055
0
LINE
8
BLACK
6
CONTINUOUS
10
3.48156
20
-6.26055
11
3.48206
21
-6.25983
0
LINE
8
BLACK
6
CONTINUOUS
10
3.48206
20
-6.25983
11
3.48282
21
-6.25938
0
LINE
8
BLACK
6
CONTINUOUS
10
3.48282
20
-6.25938
11
3.48346
21
-6.25879
0
LINE
8
BLACK
6
CONTINUOUS
10
3.48346
20
-6.25879
11
3.48908
21
-6.25598
0
LINE
8
BLACK
6
CONTINUOUS
10
3.48908
20
-6.25598
11
3.49042
21
-6.25553
0
LINE
8
BLACK
6
CONTINUOUS
10
3.49042
20
-6.25553
11
3.49086
21
-6.25558
0
LINE
8
BLACK
6
CONTINUOUS
10
3.49086
20
-6.25558
11
3.49128
21
-6.25546
0
LINE
8
BLACK
6
CONTINUOUS
10
3.49128
20
-6.25546
11
3.49972
21
-6.25546
0
LINE
8
BLACK
6
CONTINUOUS
10
3.49972
20
-6.25546
11
3.50112
21
-6.25566
0
LINE
8
BLACK
6
CONTINUOUS
10
3.6361
20
-6.25566
11
3.63647
21
-6.2559
0
LINE
8
BLACK
6
CONTINUOUS
10
3.63647
20
-6.2559
11
3.6369
21
-6.25598
0
LINE
8
BLACK
6
CONTINUOUS
10
3.6369
20
-6.25598
11
3.64164
21
-6.25834
0
LINE
8
BLACK
6
CONTINUOUS
10
3.64164
20
-6.25834
11
3.64273
21
-6.25665
0
LINE
8
BLACK
6
CONTINUOUS
10
3.64273
20
-6.25665
11
3.64526
21
-6.2555
0
LINE
8
BLACK
6
CONTINUOUS
10
3.64526
20
-6.2555
11
3.648
21
-6.2559
0
LINE
8
BLACK
6
CONTINUOUS
10
3.648
20
-6.2559
11
3.65009
21
-6.25772
0
LINE
8
BLACK
6
CONTINUOUS
10
3.65009
20
-6.25772
11
3.65087
21
-6.26038
0
LINE
8
BLACK
6
CONTINUOUS
10
3.65087
20
-6.26038
11
3.65087
21
-6.29975
0
LINE
8
BLACK
6
CONTINUOUS
10
3.65087
20
-6.29975
11
3.65067
21
-6.30114
0
LINE
8
BLACK
6
CONTINUOUS
10
3.65067
20
-6.30114
11
3.64917
21
-6.30347
0
LINE
8
BLACK
6
CONTINUOUS
10
3.64917
20
-6.30347
11
3.64664
21
-6.30462
0
LINE
8
BLACK
6
CONTINUOUS
10
3.64664
20
-6.30462
11
3.6439
21
-6.30422
0
LINE
8
BLACK
6
CONTINUOUS
10
3.6439
20
-6.30422
11
3.64181
21
-6.30241
0
LINE
8
BLACK
6
CONTINUOUS
10
3.64181
20
-6.30241
11
3.64103
21
-6.29975
0
LINE
8
BLACK
6
CONTINUOUS
10
3.64103
20
-6.29975
11
3.64103
21
-6.27279
0
LINE
8
BLACK
6
CONTINUOUS
10
3.64103
20
-6.27279
11
3.63909
21
-6.26892
0
LINE
8
BLACK
6
CONTINUOUS
10
3.63909
20
-6.26892
11
3.63741
21
-6.26723
0
LINE
8
BLACK
6
CONTINUOUS
10
3.63741
20
-6.26723
11
3.63354
21
-6.2653
0
LINE
8
BLACK
6
CONTINUOUS
10
3.63354
20
-6.2653
11
3.62908
21
-6.2653
0
LINE
8
BLACK
6
CONTINUOUS
10
3.62908
20
-6.2653
11
3.62768
21
-6.2651
0
LINE
8
BLACK
6
CONTINUOUS
10
3.62768
20
-6.2651
11
3.62535
21
-6.26359
0
LINE
8
BLACK
6
CONTINUOUS
10
3.62535
20
-6.26359
11
3.62421
21
-6.26107
0
LINE
8
BLACK
6
CONTINUOUS
10
3.62421
20
-6.26107
11
3.6246
21
-6.25833
0
LINE
8
BLACK
6
CONTINUOUS
10
3.6246
20
-6.25833
11
3.62642
21
-6.25624
0
LINE
8
BLACK
6
CONTINUOUS
10
3.62642
20
-6.25624
11
3.62908
21
-6.25546
0
LINE
8
BLACK
6
CONTINUOUS
10
3.62908
20
-6.25546
11
3.6347
21
-6.25546
0
LINE
8
BLACK
6
CONTINUOUS
10
3.6347
20
-6.25546
11
3.6361
21
-6.25566
  0
ENDSEC
  0
EOF
