  0
SECTION
  2
HEADER
  9
$ANGBASE
  50
0.0
  9
$ANGDIR
  70
1
  9
$MEASUREMENT
  70
0
  0
ENDSEC
  0
SECTION
  2
TABLES
  0
TABLE
  2
LTYPE
  70
4
  0
LTYPE
  5
40F
  2
CONTINUOUS
  70
0
  3
Solid line
  72
65
  73
0
  40
0.0
  0
LTYPE
  5
410
  2
DASHDOT
 70
0
  3
Dash Dot ____ _ ____ _
 72
65
 73
4
 40
2.0
 49
1.25
 49
-0.25
 49
0.25
 49
-0.25
  0
LTYPE
  5
411
  2
DASHED
 70
0
  3
Dashed __ __ __ __ __
 72
65
 73
2
 40
0.75
 49
0.5
 49
-0.25
  0
LTYPE
  5
43B
  2
DOTTED
 70
0
  3
Dotted .  .  .  .
 72
65
 73
2
 40
0.2
 49
0.0
 49
-0.2
  0
ENDTAB
  0
TABLE
  2
STYLE
  70
4
  0
STYLE
  2
KICAD
  70
0
  40
0
  41
1
  42
1
  50
0
  71
0
  3
isocp.shx
  0
STYLE
  2
KICADB
  70
0
  40
0
  41
1
  42
1
  50
0
  71
0
  3
isocp.shx
  0
STYLE
  2
KICADI
  70
0
  40
0
  41
1
  42
1
  50
15
  71
0
  3
isocp.shx
  0
STYLE
  2
KICADBI
  70
0
  40
0
  41
1
  42
1
  50
15
  71
0
  3
isocp.shx
  0
ENDTAB
  0
TABLE
  2
LAYER
  70
1
  0
LAYER
  2
BLACK
  70
0
  62
7
  6
CONTINUOUS
  0
ENDTAB
  0
ENDSEC
  0
SECTION
  2
ENTITIES
0
LINE
8
BLACK
6
CONTINUOUS
10
2.16466
20
-6.63062
11
2.16437
21
-6.62992
0
LINE
8
BLACK
6
CONTINUOUS
10
2.16437
20
-6.62992
11
2.16437
21
-1.5748
0
LINE
8
BLACK
6
CONTINUOUS
10
2.16437
20
-1.5748
11
2.16466
21
-1.57411
0
LINE
8
BLACK
6
CONTINUOUS
10
2.16466
20
-1.57411
11
2.16535
21
-1.57382
0
LINE
8
BLACK
6
CONTINUOUS
10
2.16535
20
-1.57382
11
4.54331
21
-1.57382
0
LINE
8
BLACK
6
CONTINUOUS
10
4.54331
20
-1.57382
11
4.544
21
-1.57411
0
LINE
8
BLACK
6
CONTINUOUS
10
4.544
20
-1.57411
11
4.54429
21
-1.5748
0
LINE
8
BLACK
6
CONTINUOUS
10
4.54429
20
-1.5748
11
4.54429
21
-6.62992
0
LINE
8
BLACK
6
CONTINUOUS
10
4.54429
20
-6.62992
11
4.544
21
-6.63062
0
LINE
8
BLACK
6
CONTINUOUS
10
4.544
20
-6.63062
11
4.54331
21
-6.63091
0
LINE
8
BLACK
6
CONTINUOUS
10
4.54331
20
-6.63091
11
2.16535
21
-6.63091
0
LINE
8
BLACK
6
CONTINUOUS
10
2.16535
20
-6.63091
11
2.16466
21
-6.63062
0
LINE
8
BLACK
6
CONTINUOUS
10
2.16634
20
-1.57579
11
2.16634
21
-6.62894
0
LINE
8
BLACK
6
CONTINUOUS
10
2.16634
20
-6.62894
11
4.54232
21
-6.62894
0
LINE
8
BLACK
6
CONTINUOUS
10
4.54232
20
-6.62894
11
4.54232
21
-1.57579
0
LINE
8
BLACK
6
CONTINUOUS
10
4.54232
20
-1.57579
11
2.16634
21
-1.57579
0
LINE
8
BLACK
6
CONTINUOUS
10
2.84182
20
-3.11093
11
2.84154
21
-3.11024
0
LINE
8
BLACK
6
CONTINUOUS
10
2.84154
20
-3.11024
11
2.84154
21
-2.51969
0
LINE
8
BLACK
6
CONTINUOUS
10
2.84154
20
-2.51969
11
2.84182
21
-2.51899
0
LINE
8
BLACK
6
CONTINUOUS
10
2.84182
20
-2.51899
11
2.84252
21
-2.5187
0
LINE
8
BLACK
6
CONTINUOUS
10
2.84252
20
-2.5187
11
3.86614
21
-2.5187
0
LINE
8
BLACK
6
CONTINUOUS
10
3.86614
20
-2.5187
11
3.86684
21
-2.51899
0
LINE
8
BLACK
6
CONTINUOUS
10
3.86684
20
-2.51899
11
3.86713
21
-2.51969
0
LINE
8
BLACK
6
CONTINUOUS
10
3.86713
20
-2.51969
11
3.86713
21
-3.11024
0
LINE
8
BLACK
6
CONTINUOUS
10
3.86713
20
-3.11024
11
3.86684
21
-3.11093
0
LINE
8
BLACK
6
CONTINUOUS
10
3.86684
20
-3.11093
11
3.86614
21
-3.11122
0
LINE
8
BLACK
6
CONTINUOUS
10
3.86614
20
-3.11122
11
2.84252
21
-3.11122
0
LINE
8
BLACK
6
CONTINUOUS
10
2.84252
20
-3.11122
11
2.84182
21
-3.11093
0
LINE
8
BLACK
6
CONTINUOUS
10
2.8435
20
-2.52067
11
2.8435
21
-3.10925
0
LINE
8
BLACK
6
CONTINUOUS
10
2.8435
20
-3.10925
11
3.86516
21
-3.10925
0
LINE
8
BLACK
6
CONTINUOUS
10
3.86516
20
-3.10925
11
3.86516
21
-2.52067
0
LINE
8
BLACK
6
CONTINUOUS
10
3.86516
20
-2.52067
11
2.8435
21
-2.52067
  0
ENDSEC
  0
EOF
